<svg xmlns="http://www.w3.org/2000/svg" id="Icons-45" width="100.741" height="100.739" viewBox="0 0 100.741 100.739"><path id="Path_427" data-name="Path 427" d="M295.06,252.083a43.281,43.281,0,1,1-.153,0h.153m-.153-7.173h0a50.367,50.367,0,1,0,35.5,14.752,50.368,50.368,0,0,0-35.5-14.752Z" transform="translate(-244.42 -244.91)" fill="#00C2A7"></path><path id="Path_428" data-name="Path 428" d="M328.976,388.276A19.266,19.266,0,0,1,309.71,369h7.173a12.084,12.084,0,0,0,24.048,0H348.1a19.266,19.266,0,0,1-19.128,19.266Z" transform="translate(-278.489 -309.662)" fill="#00C2A7"></path><path id="Path_429" data-name="Path 429" d="M298.157,302.21a12.433,12.433,0,1,0,8.8,3.644A12.433,12.433,0,0,0,298.157,302.21Z" transform="translate(-265.975 -274.81)" fill="#00C2A7"></path><path id="Path_430" data-name="Path 430" d="M383.552,305.88a12.433,12.433,0,1,0-8.8,21.246h0a12.433,12.433,0,0,0,8.8-21.246Z" transform="translate(-305.957 -274.836)" fill="#00C2A7"></path></svg>