<svg xmlns="http://www.w3.org/2000/svg" width="105.979" height="101.601" viewBox="0 0 105.979 101.601"><g id="Icons-44" transform="translate(0.5 0.5)"><path id="Path_424" data-name="Path 424" d="M417.444,245.943a3.543,3.543,0,0,0-5.013,0l-24.49,24.49v-13.8a3.548,3.548,0,0,0-7.091,0v21.816A3.548,3.548,0,0,0,384.4,282h21.83a3.548,3.548,0,1,0,0-7.091H393.5l23.945-23.945a3.557,3.557,0,0,0,0-5.018Z" transform="translate(-313.743 -244.903)" fill="#fff" stroke="#30559b" stroke-width="1"></path><path id="Path_425" data-name="Path 425" d="M274.408,377.427H252.573a3.548,3.548,0,1,0,0,7.091h12.715l-23.945,23.945a3.545,3.545,0,0,0,5.018,5.009l24.49-24.49v13.809a3.548,3.548,0,0,0,7.091,0V380.97a3.552,3.552,0,0,0-3.552-3.543Z" transform="translate(-240.304 -314.149)" fill="#fff" stroke="#30559b" stroke-width="1"></path><path id="Path_426" data-name="Path 426" d="M348.95,337.825A11.13,11.13,0,1,1,337.822,326.7a11.13,11.13,0,0,1,11.128,11.125" transform="translate(-285.443 -287.644)" fill="#fff" stroke="#30559b" stroke-width="1"></path></g></svg>