<svg xmlns="http://www.w3.org/2000/svg" width="100.557" height="100" viewBox="0 0 100.557 100"><path id="Icons-42" d="M339.21,250.059a19.508,19.508,0,0,0-26.41,0L251.259,311.6l-6.919,33.31L277.65,338l61.561-61.527.081-.081.086-.076c3.455-2.855,5.52-7.756,5.52-13.048A17.956,17.956,0,0,0,339.21,250.059ZM317.8,285.019l-44.254,44.254-.519.514-.714.162L259.463,332.8l-3.859.857.857-3.859,2.855-12.848.157-.719.519-.519,44.254-44.254,1.794-1.765,1.78,1.78,9.993,9.993,1.78,1.78Zm14.985-14.984-5,5-1.761,1.8-1.78-1.78-9.993-9.993-1.78-1.78,1.78-1.78,5-5A9.58,9.58,0,1,1,332.8,270.054Z" transform="translate(-244.34 -244.91)" fill="#fff"></path></svg>