<svg xmlns="http://www.w3.org/2000/svg" width="23" height="23" viewBox="0 0 23 23" fill="none">
<path d="M15.3092 11.4417C15.3092 9.34357 13.5978 7.63213 11.4997 7.63213C9.40157 7.63213 7.69015 9.34357 7.69015 11.4417C7.69015 13.5398 9.40157 15.2512 11.4997 15.2512C13.5978 15.2512 15.3092 13.5398 15.3092 11.4417ZM17.3625 11.4417C17.3625 14.6855 14.7435 17.3045 11.4997 17.3045C8.25585 17.3045 5.63682 14.6855 5.63682 11.4417C5.63682 8.19785 8.25585 5.5788 11.4997 5.5788C14.7435 5.5788 17.3625 8.19785 17.3625 11.4417ZM18.9702 5.34072C18.9702 6.09975 18.3597 6.70928 17.6015 6.70928C16.8435 6.70928 16.233 6.0988 16.233 5.34072C16.233 4.58262 16.8435 3.97213 17.6015 3.97213C18.3597 3.97213 18.9702 4.58262 18.9702 5.34072ZM11.4997 2.06642C9.833 2.06642 6.26157 1.93213 4.75872 2.52738C4.23777 2.73595 3.8511 2.98833 3.44919 3.39023C3.04729 3.79213 2.79395 4.1788 2.58634 4.69975C1.9911 6.20262 2.12539 9.77405 2.12539 11.4407C2.12539 13.1074 1.9911 16.6789 2.58634 18.1817C2.7949 18.7027 3.04729 19.0893 3.44919 19.4912C3.8511 19.893 4.23777 20.1464 4.75872 20.354C6.26157 20.9494 9.833 20.815 11.4997 20.815C13.1663 20.815 16.7378 20.9494 18.2407 20.354C18.7615 20.1455 19.1482 19.893 19.5502 19.4912C19.952 19.0893 20.2053 18.7027 20.413 18.1817C21.0082 16.6789 20.874 13.1074 20.874 11.4407C20.874 9.77405 21.0082 6.20262 20.413 4.69975C20.2045 4.1788 19.952 3.79213 19.5502 3.39023C19.1482 2.98833 18.7615 2.735 18.2407 2.52738C16.7378 1.93213 13.1663 2.06642 11.4997 2.06642ZM22.9282 11.4417C22.9282 13.0188 22.9435 14.5817 22.854 16.1588C22.7645 17.9893 22.3482 19.6112 21.0092 20.9502C19.6702 22.2893 18.0482 22.7064 16.2178 22.795C14.6406 22.8845 13.0778 22.8694 11.5006 22.8694C9.92349 22.8694 8.36062 22.8845 6.78349 22.795C4.953 22.7055 3.3311 22.2893 1.99205 20.9502C0.653004 19.6112 0.235863 17.9893 0.147291 16.1588C0.057766 14.5817 0.0730044 13.0188 0.0730044 11.4417C0.0730044 9.86452 0.057766 8.30167 0.147291 6.72452C0.236814 4.89405 0.653004 3.27213 1.99205 1.93308C3.3311 0.594044 4.953 0.176903 6.78349 0.0883311C8.36062 -0.00119395 9.92349 0.0140444 11.5006 0.0140444C13.0778 0.0140444 14.6406 -0.00119395 16.2178 0.0883311C18.0482 0.177854 19.6702 0.594044 21.0092 1.93308C22.3482 3.27213 22.7653 4.89405 22.854 6.72452C22.9435 8.30167 22.9282 9.86452 22.9282 11.4417Z" fill="#111B24"/>
</svg>