<svg width="25" height="26" viewBox="0 0 25 26" fill="none" xmlns="http://www.w3.org/2000/svg">
<g clip-path="url(#clip0_1_236)">
<mask id="mask0_1_236" style="mask-type:luminance" maskUnits="userSpaceOnUse" x="0" y="0" width="25" height="26">
<path d="M25 0.935059H0V25.9351H25V0.935059Z" fill="white"/>
</mask>
<g mask="url(#mask0_1_236)">
<path d="M21.0137 1.15552H4.20178C1.8812 1.15552 0 2.98777 0 5.24797V21.6224C0 23.8826 1.8812 25.715 4.20178 25.715H21.0137C23.3343 25.715 25.2155 23.8826 25.2155 21.6224V5.24797C25.2155 2.98777 23.3343 1.15552 21.0137 1.15552Z" fill="url(#paint0_linear_1_236)"/>
<path d="M10.4044 18.2263H10.3705C10.1784 18.2197 9.98974 18.1743 9.81655 18.093C9.64327 18.0117 9.48931 17.8963 9.36431 17.754L7.10459 15.2603C6.84719 14.9711 6.71184 14.5976 6.72579 14.2151C6.73973 13.8326 6.90193 13.4694 7.17975 13.1988C7.31319 13.0694 7.4726 12.9681 7.648 12.9014C7.82341 12.8347 8.01105 12.8039 8.19921 12.8111C8.38737 12.8182 8.57201 12.8629 8.74163 12.9426C8.9112 13.0224 9.06206 13.1352 9.18491 13.2743L10.4578 14.6912L16.0803 9.0567C16.2106 8.92381 16.3676 8.8185 16.5415 8.74736C16.7154 8.67621 16.9025 8.64075 17.0911 8.64318C17.2797 8.64562 17.4659 8.68591 17.6378 8.76153C17.8097 8.83714 17.9637 8.94647 18.0903 9.08268C18.3532 9.3669 18.4965 9.7372 18.4915 10.1197C18.4865 10.5023 18.3338 10.8689 18.0636 11.1466L11.3961 17.8131C11.2676 17.9431 11.1136 18.0466 10.9433 18.1176C10.7729 18.1886 10.5897 18.2256 10.4044 18.2263Z" fill="white"/>
</g>
</g>
<defs>
<linearGradient id="paint0_linear_1_236" x1="2.40694" y1="6.68138" x2="22.5734" y2="8.88504" gradientUnits="userSpaceOnUse">
<stop stop-color="#32ACB1"/>
<stop offset="1" stop-color="#00C2A7"/>
</linearGradient>
<clipPath id="clip0_1_236">
<rect width="25" height="25" fill="white" transform="translate(0 0.935059)"/>
</clipPath>
</defs>
</svg>
