<svg width="85" height="101" viewBox="0 0 85 101" fill="none" xmlns="http://www.w3.org/2000/svg">
<g clip-path="url(#clip0_103_1101)">
<path d="M66.9342 24.7796V16.565C66.9342 15.9137 66.4034 15.3843 65.7521 15.3843H62.3585V1.30962C62.3585 0.658336 61.8304 0.128906 61.1792 0.128906H45.9223C45.2683 0.128906 44.7402 0.658336 44.7402 1.30962V15.3843H41.3536C40.7023 15.3843 40.1729 15.9137 40.1729 16.565V24.7754C35.055 25.3945 31.0171 29.5963 31.0171 34.8724V92.8365C31.0171 96.8534 34.2819 100.118 38.2904 100.118H68.7999C72.8154 100.118 76.0816 96.8534 76.0816 92.8463V77.4508V40.1639V34.8724C76.0844 29.5963 72.0479 25.3945 66.9342 24.7796ZM47.1017 2.48893H59.997V7.75521H56.602C55.9507 7.75521 55.4199 8.28464 55.4199 8.93592C55.4199 9.5872 55.9507 10.1166 56.602 10.1166H59.997V15.3801H47.1017V2.48893ZM42.5301 17.7471H45.9167H61.1736H64.5686V24.5401H42.5301V17.7471ZM68.8055 97.7624H38.2946C35.5803 97.7624 33.3785 95.5564 33.3785 92.8421V88.7705H73.723V92.8505C73.7244 95.5607 71.5198 97.7624 68.8055 97.7624ZM73.7244 76.2701H51.9141V41.3432H73.7244V76.2701ZM73.7244 38.9831H50.732C50.0808 38.9831 49.5527 39.5126 49.5527 40.1639V77.4508C49.5527 78.1021 50.0808 78.6315 50.732 78.6315H73.7244V86.4035H33.3799V34.8724C33.3799 30.4745 36.9515 26.9029 41.3494 26.9029H65.7493C70.1486 26.9029 73.7202 30.4745 73.7202 34.8724V38.9831H73.7244Z" fill="#264f68"/>
<path d="M26.0983 73.3584H1.68852C1.03724 73.3584 0.507812 73.8878 0.507812 74.5391V92.8464C0.507812 96.8536 3.77263 100.118 7.78957 100.118H19.9959C24.0128 100.118 27.2776 96.8536 27.2776 92.8366V74.5391C27.2776 73.8878 26.7482 73.3584 26.0983 73.3584ZM24.9162 92.8366C24.9162 95.551 22.7116 97.7584 19.9959 97.7584H7.78957C5.07519 97.7584 2.86924 95.5552 2.86924 92.8422V75.7142H24.9148L24.9162 92.8366Z" fill="#264f68"/>
<path d="M66.2913 7.6084C67.0294 7.6084 67.6261 8.20646 67.6261 8.94458C67.6261 9.6813 67.0294 10.2808 66.2913 10.2808C65.5532 10.2808 64.9565 9.6813 64.9565 8.94458C64.9565 8.20646 65.5532 7.6084 66.2913 7.6084Z" fill="#264f68"/>
<path d="M72.0228 4.50293C72.7609 4.50293 73.3603 5.10099 73.3603 5.83911C73.3603 6.57583 72.7609 7.17529 72.0228 7.17529C71.2847 7.17529 70.688 6.57583 70.688 5.83911C70.688 5.10099 71.2847 4.50293 72.0228 4.50293Z" fill="#264f68"/>
<path d="M72.0228 10.7051C72.7609 10.7051 73.3603 11.3031 73.3603 12.0413C73.3603 12.778 72.7609 13.3774 72.0228 13.3774C71.2847 13.3774 70.688 12.778 70.688 12.0413C70.688 11.3031 71.2847 10.7051 72.0228 10.7051Z" fill="#264f68"/>
<path d="M78.2625 2.6084C79.0006 2.6084 79.6001 3.20786 79.6001 3.94458C79.6001 4.6827 79.0006 5.28076 78.2625 5.28076C77.5244 5.28076 76.9277 4.6827 76.9277 3.94458C76.9277 3.20646 77.5244 2.6084 78.2625 2.6084Z" fill="#264f68"/>
<path d="M78.2625 12.5996C79.0006 12.5996 79.6001 13.1977 79.6001 13.9344C79.6001 14.6725 79.0006 15.2706 78.2625 15.2706C77.5244 15.2706 76.9277 14.6725 76.9277 13.9344C76.9277 13.1977 77.5244 12.5996 78.2625 12.5996Z" fill="#264f68"/>
<path d="M75.8719 7.6084C76.61 7.6084 77.2095 8.20646 77.2095 8.94458C77.2095 9.6813 76.61 10.2808 75.8719 10.2808C75.1338 10.2808 74.5371 9.6813 74.5371 8.94458C74.5371 8.20646 75.1338 7.6084 75.8719 7.6084Z" fill="#264f68"/>
<path d="M83.1702 0.716797C83.9083 0.716797 84.5078 1.31486 84.5078 2.05298C84.5078 2.7897 83.9083 3.38916 83.1702 3.38916C82.4321 3.38916 81.8354 2.7897 81.8354 2.05298C81.8354 1.31486 82.4321 0.716797 83.1702 0.716797Z" fill="#264f68"/>
<path d="M83.1702 14.4912C83.9083 14.4912 84.5078 15.0893 84.5078 15.8274C84.5078 16.5641 83.9083 17.1636 83.1702 17.1636C82.4321 17.1636 81.8354 16.5641 81.8354 15.8274C81.8354 15.0893 82.4321 14.4912 83.1702 14.4912Z" fill="#264f68"/>
<path d="M80.771 5.70312C81.512 5.70312 82.1114 6.30399 82.1114 7.04351C82.1114 7.78443 81.512 8.38389 80.771 8.38389C80.0301 8.38389 79.4307 7.78443 79.4307 7.04351C79.4307 6.30399 80.0301 5.70312 80.771 5.70312Z" fill="#264f68"/>
<path d="M80.7708 9.49805C81.5089 9.49805 82.1084 10.0975 82.1084 10.8342C82.1084 11.5723 81.5089 12.1704 80.7708 12.1704C80.0327 12.1704 79.436 11.5723 79.436 10.8342C79.436 10.0975 80.0327 9.49805 80.7708 9.49805Z" fill="#264f68"/>
</g>
<defs>
<clipPath id="clip0_103_1101">
<rect width="84" height="99.9893" fill="#264f68" transform="translate(0.507812 0.128906)"/>
</clipPath>
</defs>
</svg>
