<svg width="105" height="101" viewBox="0 0 105 101" fill="none" xmlns="http://www.w3.org/2000/svg">
<g clip-path="url(#clip0_103_1001)">
<path d="M56.7808 49.0657L62.8016 52.3495V31.5029L56.7808 35.1684V49.0657Z" fill="#ABCAE5"/>
<path d="M71.2308 26.3721L65.21 30.0376V53.6633L71.2308 56.9483V26.3721Z" fill="#ABCAE5"/>
<path d="M82.0679 59.5745L88.0887 56.2895V35.1672L82.0679 31.5029V59.5745Z" fill="#ABCAE5"/>
<path d="M54.3721 36.6348L44.7388 42.4966L54.3721 47.7516V36.6348Z" fill="#ABCAE5"/>
<path d="M90.4971 36.6348V54.9766L100.13 49.7216V42.4966L90.4971 36.6348Z" fill="#ABCAE5"/>
<path d="M79.6595 30.0376L73.6387 26.3721V59.3566V64.1732L79.6595 60.8883V30.0376Z" fill="#ABCAE5"/>
<path d="M104.462 28.5922L104.404 28.2743C104.403 28.2695 104.401 28.2671 104.401 28.2623C104.399 28.2587 104.401 28.2539 104.401 28.2491L104.354 28.0215C104.343 27.9673 104.31 27.9251 104.292 27.8734C104.273 27.8228 104.27 27.7686 104.244 27.7192L104.095 27.4435C104.085 27.4278 104.071 27.4194 104.062 27.4037C104.054 27.3881 104.053 27.3724 104.043 27.3568L103.906 27.1521C103.877 27.1087 103.831 27.0834 103.798 27.0437C103.764 27.0052 103.743 26.9606 103.702 26.9257L103.487 26.7414C103.481 26.7378 103.476 26.7378 103.471 26.733C103.466 26.7306 103.466 26.7258 103.46 26.7234L103.289 26.5861C103.265 26.568 103.24 26.5644 103.218 26.5488C103.194 26.5319 103.181 26.509 103.154 26.4946L69.8963 7.29416C69.8759 7.28212 69.8542 7.28212 69.8325 7.27128C69.8084 7.26165 69.8 7.24479 69.7771 7.23516L69.5568 7.14244C69.5351 7.13401 69.5146 7.13762 69.493 7.12919C69.4893 7.12678 69.4857 7.12437 69.4821 7.12437L69.2064 5.13389C69.204 5.11221 69.1895 5.09897 69.1859 5.0785C69.1811 5.05803 69.1883 5.04117 69.1823 5.0207L69.1257 4.79191L69.033 4.42584C69.0173 4.36443 68.98 4.31867 68.9571 4.26448C68.933 4.20909 68.927 4.15129 68.8909 4.09831L68.6958 3.80088C68.6886 3.79004 68.6765 3.78402 68.6705 3.77439C68.6609 3.76234 68.6609 3.7503 68.6512 3.73946L68.5152 3.55764C68.4911 3.52753 68.4562 3.51067 68.4309 3.48298C68.4056 3.45528 68.3936 3.41916 68.3622 3.39387L68.1009 3.16628C68.0805 3.14942 68.0588 3.14461 68.0383 3.13136C68.0191 3.11691 68.0094 3.09644 67.9902 3.08199L67.818 2.96759C67.8059 2.96157 67.7963 2.96157 67.7867 2.95435C67.777 2.94833 67.7722 2.93869 67.7614 2.93267L63.3601 0.371412C63.3373 0.356962 63.3096 0.356962 63.2843 0.344921C63.259 0.334083 63.2445 0.312408 63.218 0.301571L62.9905 0.211258C62.9712 0.202829 62.9543 0.206442 62.9339 0.199217C62.9146 0.193196 62.905 0.17995 62.8845 0.175133L62.7243 0.128171C62.7171 0.125762 62.7111 0.128171 62.7063 0.126967C62.7003 0.124558 62.6954 0.118537 62.6882 0.117333L62.5052 0.0727791C62.4606 0.0619417 62.4173 0.0727791 62.3739 0.0667583C62.3294 0.0607375 62.2896 0.0390625 62.2451 0.0390625H62.038H61.8453C61.7995 0.0390625 61.7586 0.0607375 61.714 0.0655542C61.6719 0.0703708 61.6298 0.0607375 61.5828 0.071575L61.4034 0.116129C61.3961 0.117333 61.3901 0.123354 61.3853 0.125762C61.3781 0.126967 61.3709 0.124558 61.3648 0.126967L61.2047 0.171521C61.1842 0.177542 61.1734 0.191992 61.1553 0.198012C61.1348 0.202829 61.1192 0.199217 61.0999 0.207646L60.8723 0.297958C60.8482 0.308796 60.8326 0.329266 60.8073 0.3389C60.782 0.352146 60.7543 0.352146 60.7302 0.365391L35.6523 14.8599C35.633 14.872 35.6222 14.89 35.6041 14.9033C35.5861 14.9153 35.5632 14.9177 35.5463 14.931L35.3645 15.0671C35.35 15.0779 35.3452 15.0911 35.332 15.102C35.3199 15.114 35.3031 15.1164 35.291 15.1273L35.0863 15.3103C35.0586 15.3356 35.0466 15.3693 35.0225 15.3934C34.9984 15.4211 34.9647 15.4367 34.943 15.4656L34.8058 15.6475C34.7889 15.6703 34.7853 15.6968 34.7708 15.7209C34.7576 15.7414 34.7359 15.7546 34.7251 15.7775C34.6998 15.7787 34.6769 15.7679 34.6528 15.7715L34.459 15.7932C34.4337 15.7968 34.4132 15.8124 34.3903 15.8172C34.3662 15.8221 34.3434 15.8148 34.3205 15.8209L34.1374 15.8678C34.1338 15.869 34.1326 15.8714 34.129 15.8726C34.1242 15.8738 34.1194 15.8726 34.1146 15.8738L33.9556 15.9172C33.9339 15.9244 33.9195 15.9401 33.899 15.9449C33.8797 15.9521 33.8593 15.9485 33.84 15.9569L33.6112 16.0484C33.5871 16.0581 33.5703 16.0798 33.5486 16.0906C33.5245 16.1026 33.498 16.1014 33.4752 16.1147L8.38274 30.5888C8.35866 30.6032 8.34421 30.6261 8.32133 30.6417C8.29724 30.6598 8.26955 30.6646 8.24667 30.6815L8.07568 30.8187C8.06845 30.826 8.06604 30.8344 8.05761 30.8416C8.05159 30.8452 8.04316 30.8464 8.03594 30.8537L7.82882 31.0367C7.7939 31.0668 7.77584 31.1102 7.74574 31.1463C7.71443 31.1824 7.67348 31.2053 7.64579 31.245L7.50972 31.4509C7.50008 31.4666 7.49888 31.4822 7.49045 31.4979C7.48082 31.5136 7.46516 31.522 7.45674 31.5376L7.30862 31.8122C7.28213 31.8628 7.27972 31.9157 7.26166 31.9663C7.24239 32.0181 7.21109 32.0602 7.20025 32.1156L7.15449 32.3432C7.15329 32.3468 7.15449 32.3504 7.15449 32.3553C7.15449 32.3601 7.15088 32.3625 7.14967 32.3661L7.09187 32.6864C7.08706 32.7189 7.09669 32.7502 7.09428 32.7827C7.09067 32.8153 7.07501 32.8442 7.07501 32.8767V42.2716L6.93051 42.3029L6.81491 42.3209C6.7535 42.3306 6.70293 42.3631 6.64513 42.3811C6.58492 42.4004 6.52351 42.404 6.4645 42.4341L6.24775 42.5485C6.24173 42.5521 6.23692 42.5594 6.23089 42.563C6.22608 42.5666 6.21765 42.5666 6.21163 42.569L1.84653 45.0833C1.82244 45.0965 1.80799 45.1218 1.78511 45.1375C1.76103 45.1531 1.73213 45.158 1.70805 45.1772L1.53706 45.3157C1.53344 45.3181 1.53224 45.3241 1.52742 45.3277C1.52501 45.3302 1.5214 45.3302 1.51899 45.3326L1.30224 45.5132C1.26371 45.5457 1.24444 45.5903 1.21073 45.6276C1.17701 45.6637 1.13246 45.6902 1.10356 45.7323L0.978322 45.9154C0.967485 45.9322 0.966281 45.9503 0.956647 45.9672C0.944606 45.9852 0.928952 45.9924 0.919318 46.0105L0.771206 46.2851C0.748327 46.3272 0.747123 46.3718 0.731468 46.4151C0.713406 46.4585 0.684506 46.4922 0.672464 46.5379L0.614664 46.7667C0.611052 46.786 0.615868 46.8028 0.61346 46.8221C0.609848 46.8414 0.596602 46.8546 0.594193 46.8751L0.548435 47.1966C0.544823 47.2219 0.55566 47.2472 0.553252 47.2725C0.552048 47.299 0.537598 47.3218 0.537598 47.3495V78.2111C0.537598 78.2388 0.552048 78.2605 0.553252 78.2882C0.55566 78.3135 0.544823 78.34 0.548435 78.3652L0.594193 78.6868C0.597806 78.7072 0.609848 78.7217 0.61346 78.7433C0.617073 78.759 0.612256 78.7759 0.615868 78.7951L0.673668 79.0227C0.688118 79.0817 0.719427 79.1287 0.74351 79.1817C0.755552 79.2118 0.755552 79.2479 0.77241 79.278L0.920522 79.5513C0.932564 79.5718 0.949422 79.5875 0.962668 79.6091C0.969893 79.62 0.971097 79.6344 0.979527 79.6465L1.10476 79.8307C1.14209 79.8849 1.18664 79.9282 1.22999 79.9728C1.24083 79.9836 1.24324 79.9969 1.25408 80.0065L1.47083 80.2112C1.49491 80.2353 1.52622 80.2425 1.55271 80.263C1.57559 80.2823 1.58883 80.3088 1.61533 80.3256L1.78632 80.44C1.79836 80.4472 1.81161 80.4509 1.82244 80.4569C1.83208 80.4629 1.83689 80.4713 1.84653 80.4773L35.108 99.6802C35.1188 99.6874 35.1321 99.6898 35.1453 99.697C35.1525 99.6994 35.1574 99.7079 35.1646 99.7127L35.3934 99.8259C35.4343 99.8464 35.4765 99.8403 35.5162 99.8536C35.5848 99.8777 35.6475 99.9186 35.7221 99.927L35.8269 99.9427L35.9642 99.9764C35.9931 99.9836 36.0232 99.9824 36.0521 99.9872C36.0665 99.9884 36.0774 99.9981 36.0906 100L36.2869 100.023C36.329 100.028 36.37 100.029 36.4121 100.029H36.4145H36.4169C36.4555 100.029 36.4952 100.028 36.5361 100.023L36.7408 100C36.7541 99.9993 36.7637 99.9896 36.777 99.9884C36.8095 99.9824 36.8432 99.9848 36.8733 99.9764L37.0094 99.9439L37.1165 99.927C37.1924 99.9174 37.2538 99.8777 37.3237 99.8536C37.3634 99.8391 37.4055 99.8439 37.4453 99.8259L37.6741 99.7127C37.6813 99.7079 37.6861 99.6994 37.6933 99.697C37.7054 99.6898 37.7186 99.6874 37.7307 99.6802L42.0861 97.1671C42.1042 97.1562 42.1126 97.1418 42.1295 97.1286C42.1512 97.1153 42.1752 97.1105 42.1957 97.0948L42.38 96.9576C42.3908 96.9479 42.3968 96.9335 42.4076 96.9238C42.4209 96.9154 42.4353 96.9118 42.4474 96.9022L42.6521 96.7191C42.6858 96.6914 42.7003 96.6505 42.7292 96.618C42.7508 96.5939 42.7821 96.5843 42.8026 96.5578L42.9399 96.3723C42.9519 96.3567 42.9531 96.3386 42.964 96.3218C42.9784 96.2989 42.9977 96.2808 43.0109 96.2567C43.0374 96.2555 43.0639 96.2555 43.0904 96.2519L43.2855 96.229C43.2975 96.2278 43.3072 96.2182 43.3192 96.217C43.3445 96.2146 43.3722 96.2158 43.3975 96.2086L43.5913 96.164C43.601 96.1616 43.6058 96.1556 43.6154 96.1532C43.6275 96.1496 43.6407 96.152 43.654 96.1472L43.8129 96.1014C43.8334 96.0954 43.8466 96.0785 43.8671 96.0737C43.8876 96.0665 43.908 96.0689 43.9285 96.0617L44.1465 95.9689C44.1633 95.9641 44.1718 95.9497 44.1874 95.9424C44.2139 95.9292 44.244 95.9232 44.2693 95.9099L69.3569 81.4383C69.3798 81.4238 69.3894 81.4058 69.4111 81.3913C69.4364 81.3732 69.4677 81.3672 69.4918 81.3468L69.6627 81.2107C69.6724 81.2035 69.676 81.1926 69.6844 81.1866C69.6928 81.1794 69.7037 81.1758 69.7097 81.1685L69.9096 80.9915C69.912 80.9891 69.9144 80.9867 69.9168 80.9843C69.9831 80.9253 70.0421 80.8579 70.0926 80.7808L70.2311 80.5761C70.2383 80.5653 70.2383 80.5532 70.2456 80.5412C70.2528 80.5291 70.2624 80.5207 70.2696 80.5099H70.4178C70.5021 80.5099 70.5863 80.499 70.6694 80.4798L70.8645 80.4328C70.8693 80.4316 70.8717 80.428 70.879 80.4268C70.8862 80.4244 70.8946 80.4256 70.903 80.4232L71.0608 80.3786C71.0861 80.3726 71.1029 80.3557 71.1282 80.3461C71.1499 80.3389 71.1716 80.3425 71.1956 80.3316L71.4124 80.2401C71.4281 80.2341 71.4365 80.2209 71.4485 80.2148C71.475 80.2028 71.5063 80.1968 71.5328 80.1811L96.6216 65.6878C96.6433 65.6745 96.6517 65.6541 96.6746 65.6396C96.6999 65.6228 96.7288 65.6167 96.7529 65.5963L96.9263 65.4602C96.9287 65.4578 96.9299 65.453 96.9347 65.4494C96.9383 65.4457 96.9467 65.4445 96.9516 65.4409L97.1671 65.2579C97.2153 65.2169 97.2405 65.1616 97.2803 65.1146C97.3056 65.0881 97.3381 65.0761 97.3586 65.046L97.485 64.8629C97.4946 64.8509 97.4946 64.8352 97.5043 64.8208C97.5139 64.8063 97.5271 64.7955 97.5332 64.7786C97.556 64.7774 97.5789 64.7774 97.6006 64.775L97.8053 64.7533C97.8234 64.7509 97.8342 64.7401 97.8499 64.7389C97.886 64.7329 97.9209 64.7341 97.9558 64.7244L98.1401 64.6775C98.1437 64.6763 98.1461 64.6727 98.1509 64.6727C98.1581 64.6703 98.1629 64.6715 98.1726 64.6703L98.3303 64.6245C98.3496 64.6185 98.3604 64.6052 98.3821 64.6004C98.4014 64.5944 98.4194 64.5956 98.4387 64.5872L98.6663 64.4957C98.6843 64.4896 98.6916 64.4752 98.7084 64.468C98.7397 64.4547 98.7747 64.4475 98.8048 64.4294L103.159 61.9151C103.182 61.9019 103.192 61.8814 103.214 61.867C103.24 61.8501 103.269 61.8453 103.293 61.8236L103.464 61.6875C103.468 61.6851 103.471 61.6803 103.473 61.6767C103.478 61.6731 103.483 61.6719 103.49 61.6683L103.706 61.4852C103.745 61.4515 103.764 61.4082 103.796 61.372C103.82 61.3468 103.853 61.3371 103.873 61.3082L104.009 61.1264C104.024 61.1083 104.026 61.0879 104.034 61.0686C104.06 61.0325 104.091 60.9988 104.11 60.9566L104.26 60.6592C104.276 60.6267 104.276 60.5918 104.285 60.5556C104.305 60.5075 104.334 60.4653 104.348 60.4123L104.392 60.2064C104.395 60.1968 104.392 60.1884 104.393 60.1787C104.396 60.1679 104.403 60.1595 104.405 60.1486L104.463 59.8054C104.469 59.7765 104.456 59.7464 104.458 59.7175C104.462 59.6874 104.479 59.6597 104.479 59.6284V28.7849C104.479 28.75 104.461 28.7223 104.458 28.6886C104.456 28.6573 104.469 28.626 104.462 28.5922ZM36.6758 97.7812L36.6108 97.8149C36.606 97.8161 36.6024 97.8185 36.5988 97.8197C36.5819 97.8222 36.5638 97.8173 36.547 97.821L36.4266 97.8486L36.4193 97.8498L36.4097 97.8486L36.2929 97.821C36.2748 97.8173 36.258 97.8222 36.2399 97.8197C36.2363 97.8185 36.2327 97.8161 36.2267 97.8149L36.1616 97.7812L2.95436 78.6097L2.89295 78.5687L2.82551 78.5049L2.79782 78.464L2.74122 78.3592L2.73038 78.3171L2.70269 78.1304V47.423L2.73038 47.2351L2.74122 47.193L2.79782 47.0882L2.80865 47.0726L2.89054 47.0039C2.89174 47.0039 2.89174 47.0039 2.89295 47.0027L3.00373 46.9148L7.26527 44.4607L7.32428 44.4294C7.34114 44.4258 7.35559 44.427 7.37124 44.4234L7.5049 44.3921L7.52176 44.3909L7.53982 44.3921L7.65181 44.4198C7.67469 44.4258 7.69636 44.4246 7.71804 44.4282L7.78788 44.4619L23.5504 53.5642L40.9807 63.6323L41.0518 63.6756L41.1108 63.7358L41.1577 63.8009L41.1878 63.8562L41.2023 63.9237L41.2396 64.1296V77.4067V94.7877L41.2372 94.7985C41.236 94.8057 41.2384 94.8105 41.2372 94.8166C41.236 94.8226 41.2336 94.8274 41.2324 94.8334L41.2011 95.0116L41.189 95.0718L41.1589 95.1296L41.1324 95.1646L41.0457 95.2416L40.947 95.3151L36.6758 97.7812ZM61.7538 2.28122L61.8489 2.24269L61.9392 2.2174L61.979 2.20656H62.0404H62.1114L62.1644 2.21981L62.2403 2.24269L62.3414 2.28242L66.6451 4.78829L66.7306 4.84609L66.8546 4.95326L66.9016 5.01468L66.9762 5.13028L67.0232 5.32053L67.0678 5.49393L67.4471 8.2021V8.20331L69.8084 24.9749L45.1411 39.2286C45.1158 39.2443 45.1014 39.2684 45.0773 39.284C45.0556 39.3009 45.0267 39.3045 45.005 39.3214L44.834 39.4598C44.8088 39.4803 44.7967 39.5104 44.7726 39.5321C44.751 39.5538 44.7233 39.5622 44.7028 39.5851L44.5956 39.7055L41.9453 20.8591C41.944 20.8386 41.9308 20.8242 41.926 20.8061C41.9224 20.7856 41.9284 20.7676 41.9248 20.7483L41.867 20.5183C41.8646 20.5099 41.8586 20.5051 41.8561 20.4966C41.8537 20.487 41.8561 20.4774 41.8537 20.4701L41.7514 20.1282C41.7369 20.0824 41.7056 20.0511 41.6864 20.0077C41.6671 19.9656 41.6635 19.9186 41.6394 19.8777L41.4455 19.5574C41.4347 19.5417 41.4202 19.5357 41.4106 19.5201C41.401 19.5044 41.3998 19.4888 41.3889 19.4743L41.2529 19.2901C41.2252 19.2539 41.1842 19.2347 41.1553 19.2022C41.1228 19.1696 41.1047 19.1275 41.0674 19.0974L40.8169 18.8927C40.8157 18.8915 40.8145 18.8915 40.8133 18.8903C40.8121 18.8891 40.8109 18.8879 40.8097 18.8867L40.6387 18.7494C40.6158 18.7301 40.5882 18.7253 40.5641 18.7085C40.5412 18.694 40.5279 18.6687 40.5027 18.6543L36.96 16.612L61.7538 2.28122ZM98.2304 41.9139L98.2918 41.9549L98.3785 42.0344L98.4074 42.0765L98.4411 42.1403L98.4568 42.2078L98.4917 42.4125V47.2568L98.4544 47.4784L98.4423 47.5326L98.4002 47.6157L98.3917 47.6277L98.2918 47.7108C98.2918 47.712 98.2906 47.712 98.2894 47.712L98.1798 47.7999L96.3037 48.8764C96.3037 48.8776 96.3013 48.8764 96.3013 48.8776L73.3969 62.0994V58.0678C73.3969 58.0353 73.3824 58.0088 73.3788 57.9799C73.3764 57.9498 73.3872 57.9209 73.3824 57.8896L73.3246 57.5476C73.3222 57.5368 73.315 57.5308 73.3126 57.5223C73.3102 57.5103 73.315 57.5007 73.3126 57.4922L73.268 57.2863C73.2584 57.2418 73.2295 57.208 73.2138 57.1659C73.197 57.1238 73.1982 57.0792 73.1789 57.0359L73.0296 56.7384C73.0139 56.7083 72.9874 56.689 72.967 56.6614C72.9489 56.6325 72.9453 56.5987 72.9248 56.5722L72.79 56.3904C72.7635 56.3555 72.7249 56.3374 72.6972 56.3073C72.6695 56.2796 72.6551 56.2411 72.6238 56.2158L72.407 56.0304C72.401 56.0292 72.395 56.028 72.3914 56.0243C72.3878 56.0195 72.3854 56.0147 72.3805 56.0099L72.2084 55.8738C72.1855 55.8558 72.159 55.851 72.1361 55.8365C72.1132 55.8208 72.1 55.7968 72.0747 55.7823L46.4476 40.9771L71.239 26.6499L71.3654 26.5993L71.428 26.5753L71.4907 26.5596L71.5123 26.5584H71.5196L71.6388 26.5861C71.6388 26.5861 71.64 26.5873 71.6412 26.5873L71.7158 26.6066L71.8025 26.6499L98.2304 41.9139ZM45.984 77.939L45.8793 77.9811L45.7745 78.01L45.7552 78.0148H45.6842H45.6228L45.6035 78.01L45.4975 77.9811L45.3928 77.9378L43.4071 76.7842V64.0345C43.4071 64.0007 43.3903 63.9718 43.3878 63.9393C43.3842 63.9068 43.3951 63.8755 43.3903 63.843L43.3325 63.5227C43.3325 63.5179 43.3288 63.5155 43.3276 63.5106C43.3264 63.507 43.3288 63.5034 43.3276 63.4986L43.2819 63.2698C43.271 63.2144 43.2373 63.1711 43.2193 63.1205C43.2012 63.0687 43.1988 63.0145 43.1723 62.9664L43.0242 62.6942C43.0109 62.6701 42.9893 62.6557 42.9748 62.634C42.9592 62.6111 42.9568 62.5834 42.9399 62.5606L42.8026 62.3763C42.7858 62.3534 42.7605 62.345 42.7424 62.3233C42.7256 62.3029 42.7183 62.2788 42.6991 62.2583L42.4944 62.0536C42.4642 62.0247 42.4257 62.0127 42.3932 61.9874C42.3607 61.9609 42.339 61.9224 42.3029 61.8995L42.1186 61.7863C42.1138 61.7827 42.1066 61.7827 42.1006 61.7791C42.0958 61.7754 42.0922 61.7694 42.0861 61.767L26.2586 52.6226L43.9767 42.398L44.1296 42.3354C44.1332 42.3342 44.1356 42.3318 44.138 42.3318C44.1477 42.327 44.1573 42.3173 44.1669 42.3125C44.1922 42.3017 44.2175 42.2957 44.2416 42.2836L44.2488 42.2824H44.2512L44.3126 42.2993L44.4294 42.3402L44.6016 42.4125L70.9259 57.6126L71.0343 57.6981L71.1318 57.7824L71.1378 57.7885L71.1824 57.8788L71.1944 57.9317L71.2306 58.1521V62.9844L71.2294 62.9965C71.2282 63.0025 71.2294 63.0073 71.2294 63.0121C71.2282 63.0194 71.2245 63.0242 71.2221 63.029L71.1932 63.212L71.18 63.271L71.1523 63.3276L71.115 63.3758L71.0319 63.4528L70.9632 63.4986L69.0414 64.6233L45.984 77.939ZM34.4879 18.0341L34.5866 17.9932L34.6926 17.9643C34.6938 17.9643 34.6938 17.9631 34.695 17.9631L34.7781 17.9426L34.7817 17.9414L34.7937 17.9438L34.8768 17.9643L34.9804 17.9932L35.0333 18.0149C35.0333 18.0161 35.0357 18.0149 35.037 18.0161C35.0382 18.0161 35.0394 18.0173 35.0406 18.0173L35.0815 18.0341L39.3406 20.4906L39.4502 20.5773L39.4514 20.5785L39.5911 20.6929L39.6164 20.7254L39.7139 20.8856L39.7693 21.0686L39.8067 21.2191L42.5485 40.7242L24.0911 51.3739L9.24011 42.8014V32.9718L9.27743 32.7671L9.29068 32.6997L9.33764 32.6118L9.36895 32.566L9.44481 32.4986L9.53874 32.4227L34.4879 18.0341ZM43.4071 93.9002V79.2912L44.3728 79.8536C44.4042 79.8717 44.4379 79.8777 44.4692 79.8921C44.486 79.9018 44.4957 79.915 44.5137 79.921L44.7425 80.0137C44.7618 80.021 44.7811 80.0186 44.8003 80.0258C44.8196 80.0318 44.8304 80.0463 44.8497 80.0511L45.0099 80.0968C45.0159 80.098 45.0219 80.098 45.0303 80.0992C45.0339 80.0992 45.0351 80.1029 45.04 80.104L45.223 80.151C45.3133 80.1727 45.4012 80.1835 45.4903 80.1835H45.6842H45.8913C45.9792 80.1835 46.0683 80.1727 46.1586 80.151L46.3417 80.104C46.3453 80.1029 46.3477 80.0992 46.3513 80.0992C46.3573 80.098 46.3645 80.098 46.3718 80.0968L46.5307 80.0511C46.5512 80.0451 46.562 80.0306 46.5813 80.0258C46.6006 80.0186 46.6198 80.021 46.6391 80.0137L46.8679 79.921C46.8847 79.915 46.8944 79.9018 46.9088 79.8945C46.9413 79.8801 46.9751 79.8728 47.004 79.856L68.5007 67.4447V79.0564L68.4935 79.107C68.4911 79.1142 68.4935 79.1203 68.4935 79.1299C68.4911 79.1359 68.4863 79.1419 68.4863 79.1491L68.4706 79.2684L68.4622 79.3009L68.4008 79.4129L68.3695 79.461L68.2948 79.5273L68.2057 79.5995L43.4071 93.9002ZM70.667 78.1702V66.1875L72.0855 65.359C72.094 65.3542 72.0976 65.3458 72.1072 65.3398C72.1168 65.3338 72.1301 65.3313 72.1397 65.3229L72.3119 65.2109C72.3372 65.1929 72.3492 65.1664 72.3733 65.1483C72.3986 65.1266 72.4323 65.1194 72.4528 65.0965L72.672 64.8918C72.6984 64.8653 72.7093 64.8316 72.7346 64.8051C72.7526 64.7822 72.7779 64.7762 72.7972 64.7533L72.9333 64.5691C72.9465 64.5535 72.9489 64.5342 72.9585 64.5173C72.973 64.4945 72.9923 64.4752 73.0055 64.4499C73.0272 64.4499 73.0416 64.4499 73.0621 64.4475L73.2668 64.4234C73.2813 64.4222 73.2921 64.4126 73.3065 64.4102C73.3427 64.4065 73.3752 64.4078 73.4125 64.3981L73.5486 64.3644L73.6497 64.35C73.7256 64.3391 73.787 64.3006 73.8569 64.2753C73.8966 64.2608 73.9399 64.2657 73.9773 64.2476L74.2061 64.1332C74.2145 64.1296 74.2193 64.1212 74.2265 64.1175C74.2398 64.1115 74.2518 64.1091 74.2639 64.1031L95.763 51.6906V63.3083L95.7606 63.3192C95.7558 63.336 95.7642 63.3505 95.7606 63.3661C95.7582 63.383 95.7486 63.3938 95.7462 63.4095L95.7305 63.5432L95.7221 63.5721L95.6691 63.6696L95.6559 63.6865L95.5523 63.7744L95.4668 63.843L70.667 78.1702ZM97.9293 62.4257V50.443L99.3382 49.635C99.3611 49.6218 99.3719 49.6037 99.3912 49.5893C99.4189 49.57 99.4526 49.5616 99.4779 49.5411L99.6489 49.4038C99.6549 49.4002 99.6573 49.3966 99.6597 49.393C99.6621 49.3894 99.6669 49.3894 99.6693 49.3858L99.8873 49.2027C99.9258 49.1714 99.9451 49.1269 99.9764 49.0908C100.002 49.0643 100.037 49.0534 100.057 49.0221L100.193 48.8403C100.21 48.8198 100.212 48.7994 100.221 48.7789C100.245 48.7452 100.273 48.7139 100.293 48.6753L100.442 48.3791C100.459 48.3478 100.459 48.3117 100.468 48.2804C100.488 48.2286 100.519 48.1828 100.533 48.1262L100.577 47.9203C100.58 47.9107 100.577 47.9023 100.577 47.8938C100.58 47.883 100.587 47.8758 100.588 47.8649L100.646 47.5229C100.652 47.4928 100.64 47.4627 100.642 47.4338C100.646 47.4037 100.662 47.3772 100.662 47.3459V42.3173C100.662 42.2824 100.645 42.2547 100.641 42.2222C100.639 42.1897 100.651 42.1584 100.644 42.1259L100.587 41.8056C100.587 41.8019 100.583 41.7983 100.582 41.7947C100.582 41.7911 100.583 41.7875 100.582 41.7827L100.538 41.5551C100.524 41.4985 100.493 41.4551 100.473 41.4022C100.453 41.3504 100.451 41.2962 100.426 41.2468L100.276 40.9735C100.263 40.9482 100.24 40.9349 100.226 40.9121C100.211 40.8904 100.209 40.8663 100.194 40.8446L100.057 40.6604C100.037 40.6339 100.01 40.6231 99.9885 40.5978C99.9644 40.5725 99.9584 40.5412 99.9319 40.5195L99.7127 40.3136C99.6898 40.2907 99.6609 40.2847 99.6356 40.2654C99.6115 40.2438 99.5983 40.2185 99.5718 40.2004L99.3996 40.086C99.3888 40.0788 99.3767 40.0788 99.3671 40.0728C99.3575 40.0655 99.3527 40.0547 99.3418 40.0499L72.8574 24.7594C72.8466 24.7534 72.8357 24.7534 72.8273 24.7485C72.8177 24.7425 72.8128 24.7329 72.802 24.7269L72.5744 24.6137C72.5371 24.5944 72.4973 24.5956 72.4564 24.5824C72.4167 24.5679 72.3854 24.5402 72.3432 24.5282L72.1493 24.4824H72.1469L71.9675 24.4391C71.9543 24.4355 71.941 24.4403 71.9254 24.4367L69.8602 9.77474L102.008 28.3333L102.092 28.402L102.191 28.4839L102.215 28.5188L102.262 28.6067L102.276 28.6753L102.311 28.8788V59.5321L102.274 59.7573L102.264 59.8018L102.217 59.8957L102.215 59.8982L102.092 60.0017L102.008 60.0703L97.9293 62.4257Z" fill="#264f68"/>
</g>
<defs>
<clipPath id="clip0_103_1001">
<rect width="103.94" height="99.9903" fill="#264f68" transform="translate(0.537598 0.0390625)"/>
</clipPath>
</defs>
</svg>
