<svg width="131" height="101" viewBox="0 0 131 101" fill="none" xmlns="http://www.w3.org/2000/svg">
<g clip-path="url(#clip0_103_1089)">
<path d="M8.78906 39.0295L22.2428 45.1449L72.3889 17.0142L71.1658 8.4527L68.7197 3.5604L62.6043 1.11426L9.51435 31.1786L8.78906 39.0295Z" fill="#264f68"/>
<path d="M123.446 61.422V49.2512L124.877 48.4305C124.898 48.4171 124.91 48.3987 124.931 48.3841C124.96 48.3644 124.994 48.3559 125.019 48.3351L125.193 48.1957C125.198 48.192 125.2 48.1883 125.204 48.1846C125.206 48.181 125.21 48.181 125.214 48.1773L125.434 47.9915C125.472 47.9596 125.493 47.9144 125.525 47.8777C125.551 47.8507 125.584 47.8397 125.607 47.808L125.746 47.6233C125.762 47.6025 125.764 47.5817 125.775 47.5609C125.798 47.5267 125.828 47.4948 125.849 47.4557L125.999 47.1549C126.017 47.123 126.015 47.0864 126.026 47.0545C126.047 47.002 126.077 46.9555 126.09 46.898L126.136 46.6889C126.139 46.6791 126.135 46.6705 126.136 46.6619C126.139 46.6509 126.146 46.6436 126.147 46.6326L126.205 46.2853C126.212 46.2546 126.201 46.2241 126.202 46.1947C126.205 46.1642 126.222 46.1372 126.222 46.1055V40.9979C126.222 40.9624 126.205 40.9343 126.202 40.9012C126.198 40.8682 126.211 40.8365 126.204 40.8035L126.146 40.4781C126.146 40.4744 126.142 40.4707 126.141 40.4671C126.141 40.4634 126.142 40.4597 126.141 40.4549L126.095 40.2237C126.083 40.1662 126.05 40.1222 126.031 40.0683C126.011 40.0158 126.009 39.9607 125.981 39.9106L125.83 39.6342C125.817 39.6085 125.795 39.595 125.779 39.5718C125.765 39.5498 125.762 39.5253 125.747 39.5033L125.607 39.3161C125.587 39.2893 125.559 39.2783 125.538 39.2526C125.514 39.2281 125.507 39.1951 125.481 39.173L125.259 38.9639C125.236 38.9407 125.206 38.9345 125.18 38.915C125.155 38.893 125.141 38.8673 125.115 38.849L124.941 38.7327C124.93 38.7254 124.918 38.7254 124.908 38.7193C124.897 38.712 124.892 38.701 124.883 38.696L74.7437 15.8258C74.7315 15.8197 74.7205 15.8197 74.7106 15.8148C74.7008 15.8087 74.696 15.7989 74.6862 15.7928L74.4526 15.6778C74.4146 15.6583 74.3743 15.6595 74.3352 15.646C74.2935 15.6313 74.2618 15.6033 74.219 15.591L74.022 15.5445H74.0196L73.8374 15.5005C73.8239 15.4968 73.8092 15.5017 73.7945 15.498L72.9201 11.6135L127.591 36.5789L127.676 36.6486L127.775 36.7318L127.8 36.7673L127.847 36.8566L127.86 36.9263L127.9 37.133V58.4829L127.859 58.7116L127.849 58.7569L127.803 58.8523L127.801 58.8547L127.676 58.9599L127.591 59.0297L123.446 61.422ZM98.202 77.4136V65.2428L99.6422 64.4014C99.6513 64.3965 99.655 64.3879 99.6651 64.3819C99.6752 64.3757 99.6871 64.3732 99.6981 64.3647L99.8733 64.251C99.8972 64.2326 99.9109 64.2057 99.9357 64.1874C99.9614 64.1654 99.9926 64.158 100.017 64.1347L100.238 63.9269C100.266 63.8999 100.277 63.8657 100.301 63.8388C100.319 63.8155 100.347 63.8095 100.365 63.7862L100.503 63.599C100.516 63.5832 100.519 63.5636 100.528 63.5465C100.543 63.5233 100.564 63.5036 100.579 63.4779C100.597 63.4779 100.615 63.4779 100.635 63.4756L100.843 63.4511C100.858 63.4499 100.869 63.4401 100.883 63.4376C100.919 63.4339 100.953 63.4352 100.991 63.4254L101.129 63.3912L101.232 63.3765C101.309 63.3655 101.371 63.3263 101.442 63.3006C101.482 63.286 101.525 63.2908 101.565 63.2725L101.797 63.1563C101.805 63.1527 101.811 63.144 101.816 63.1404C101.83 63.1343 101.844 63.1318 101.856 63.1257L121.245 50.5183V62.3185L121.243 62.3295C121.239 62.3466 121.247 62.3613 121.243 62.3772C121.24 62.3943 121.23 62.4053 121.229 62.4212L121.214 62.557L121.204 62.5863L121.151 62.6854L121.138 62.7025L121.032 62.7918L120.946 62.8615L98.202 77.4136ZM71.7374 93.3906V78.5524L72.7183 79.1235C72.7501 79.1418 72.7831 79.148 72.8161 79.1627C72.8332 79.1725 72.843 79.1859 72.8614 79.192L73.0925 79.2862C73.1133 79.2936 73.1329 79.2911 73.1524 79.2984C73.1721 79.3046 73.1831 79.3193 73.2038 79.3241L73.3652 79.3706C73.3726 79.3718 73.3775 79.3718 73.3861 79.373C73.3885 79.373 73.3909 79.3767 73.3959 79.378L73.5817 79.4257C73.6734 79.4477 73.764 79.4587 73.8521 79.4587H73.8532H74.0502H74.2593H74.2605C74.3499 79.4587 74.4403 79.4477 74.5321 79.4257L74.718 79.378C74.7205 79.3767 74.7241 79.373 74.7278 79.373C74.7351 79.3718 74.7412 79.3718 74.7498 79.3706L74.91 79.3241C74.9308 79.318 74.943 79.3033 74.9602 79.2984C74.981 79.2911 75.0017 79.2936 75.0201 79.2862L75.2537 79.192C75.2684 79.1859 75.2794 79.1725 75.2952 79.1651C75.3259 79.1505 75.3613 79.1431 75.3919 79.126L96.0041 66.5197V78.3139L95.995 78.3653C95.9931 78.3726 95.9959 78.3786 95.9959 78.3873C95.9931 78.3933 95.9895 78.3995 95.9895 78.4068L95.9729 78.5279L95.9638 78.5609L95.9014 78.6747L95.8702 78.7235L95.795 78.7909L95.7033 78.8643L71.7374 93.3906ZM35.7692 17.5565L35.8708 17.5149L35.9772 17.4856L35.9796 17.4843L36.0652 17.4635L36.0689 17.4623L36.0811 17.4647L36.1655 17.4856H36.1667L36.2719 17.5149L36.3245 17.5369L36.3281 17.5381L36.3306 17.5393L36.3734 17.5565L44.3687 21.2746L44.4799 21.3626L44.4811 21.3639L44.623 21.4801L44.6463 21.5131L44.7453 21.6758L44.8016 21.8617L44.8407 22.0146L47.6257 29.5952L21.5412 44.0813L10.1275 37.8204V32.7287L10.1642 32.5207L10.1776 32.4523L10.2266 32.363L10.2559 32.3166L10.3342 32.248L10.4296 32.171L35.7692 17.5565ZM74.3547 77.1788L74.2483 77.2216L74.1419 77.251L74.1224 77.2559H74.049H73.9878L73.9683 77.251L73.8619 77.2216L73.753 77.1776L71.7374 76.006V72.8406C71.7374 72.8064 71.7202 72.777 71.7166 72.744C71.7141 72.711 71.7251 72.6792 71.719 72.6461L71.6603 72.3208C71.6603 72.3159 71.6579 72.3134 71.6567 72.3086C71.6554 72.3049 71.6579 72.3012 71.6567 72.2964L71.6102 72.0639C71.5992 72.0077 71.5649 71.9637 71.5466 71.9123C71.5282 71.8597 71.5258 71.8047 71.4989 71.7557L71.3484 71.4793C71.3362 71.4548 71.3118 71.4402 71.2971 71.4181C71.2824 71.3949 71.2811 71.3668 71.2628 71.3436L71.1233 71.1564C71.1063 71.1332 71.0818 71.1246 71.0622 71.1026C71.0439 71.0818 71.0378 71.0574 71.0182 71.0365L70.8103 70.8287C70.7797 70.7993 70.7405 70.787 70.7075 70.7614C70.6745 70.7345 70.6525 70.6953 70.6158 70.6721L70.4287 70.5572C70.4238 70.5535 70.4165 70.5535 70.4103 70.5498C70.4055 70.5461 70.4018 70.54 70.3968 70.5375L23.7427 45.3496L49.0775 31.2952L49.2328 31.2317C49.2353 31.2305 49.2377 31.228 49.2414 31.228C49.2511 31.2231 49.2609 31.2133 49.2708 31.2084C49.2952 31.1974 49.3221 31.1913 49.3465 31.1791L49.3539 31.1778H49.3563L49.4187 31.195L49.5373 31.2365L49.7134 31.3099L98.4644 56.5334L98.5744 56.6202L98.6735 56.7059L98.6808 56.7119L98.7258 56.8036L98.7377 56.8575L98.7744 57.0813V61.9895L98.7726 62.0017C98.7707 62.0079 98.7735 62.0127 98.7726 62.0176C98.7707 62.0249 98.7689 62.0299 98.7661 62.0347L98.7368 62.2207L98.723 62.2806L98.6937 62.3381L98.657 62.387L98.5717 62.4665L98.5029 62.5118L96.5527 63.6541L74.3547 77.1788ZM123.753 40.5882L123.816 40.6297L123.901 40.7104L123.932 40.7533L123.969 40.8181L123.982 40.8866L124.019 41.0945V46.0149L123.981 46.24L123.97 46.295L123.927 46.3794L123.918 46.3917L123.816 46.4761L123.815 46.4773L123.703 46.5665L121.797 47.6588C121.795 47.6599 121.793 47.6599 121.793 47.6599L100.978 61.0906V56.9957C100.978 56.9627 100.961 56.9357 100.959 56.9064C100.957 56.8758 100.968 56.8465 100.961 56.8146L100.904 56.4674C100.902 56.4563 100.895 56.4502 100.893 56.4417C100.891 56.4294 100.895 56.4197 100.893 56.411L100.847 56.2019C100.837 56.1567 100.806 56.1224 100.792 56.0796C100.777 56.0368 100.778 55.9916 100.756 55.9475L100.604 55.6455C100.59 55.6148 100.561 55.5953 100.541 55.5671C100.525 55.5378 100.52 55.5035 100.498 55.4767L100.36 55.2919C100.334 55.2565 100.295 55.2382 100.267 55.2075C100.238 55.1795 100.224 55.1403 100.191 55.1146L99.9724 54.9263C99.9669 54.925 99.9623 54.9238 99.9577 54.9201C99.9522 54.9153 99.9504 54.9103 99.9467 54.9055L99.7724 54.7672C99.7495 54.7489 99.7229 54.744 99.699 54.7293C99.6761 54.7135 99.6624 54.689 99.6367 54.6743L51.5872 29.852L73.0999 17.7461L73.2271 17.6947L73.2907 17.6714L73.3542 17.6555L73.3762 17.6543H73.3812L73.5035 17.6824H73.5047L73.5071 17.6837L73.5805 17.7032L73.6698 17.7473L123.753 40.5882ZM63.4645 2.77931L63.5611 2.74017L63.6528 2.71448L63.6945 2.70348H63.7556H63.8277L63.8816 2.71693L63.9598 2.74017L64.0601 2.78052L68.4326 5.32574L68.5219 5.38445L68.6466 5.49331L68.6919 5.55568L68.769 5.6731L68.8179 5.86635V5.86757L68.8607 6.04247L70.4715 10.0162V10.0174L71.6469 16.0448L50.2602 28.0761C50.2345 28.092 50.2198 28.1165 50.1954 28.1324C50.1734 28.1495 50.144 28.1532 50.122 28.1703L49.9483 28.311C49.9239 28.3318 49.9104 28.3623 49.8859 28.3843C49.8639 28.4064 49.8358 28.4149 49.815 28.4382L49.7061 28.5605L47.0154 21.6488C47.0129 21.6281 46.9995 21.6134 46.9945 21.5951C46.9897 21.5743 46.997 21.5559 46.9922 21.5364L46.9335 21.3027C46.9322 21.2942 46.9261 21.2893 46.9236 21.2807C46.9212 21.2709 46.9236 21.2612 46.9212 21.2539L46.8172 20.9065C46.8026 20.86 46.7707 20.8282 46.7512 20.7842C46.7317 20.7414 46.728 20.6937 46.7035 20.6521L46.5065 20.3267C46.4968 20.3109 46.4809 20.3047 46.4699 20.2888C46.4613 20.2729 46.4601 20.257 46.4491 20.2423L46.3109 20.0552C46.2827 20.0185 46.2424 19.999 46.2118 19.966C46.1788 19.9329 46.1616 19.8901 46.1226 19.8595L45.8669 19.6516L45.8644 19.6491L45.8608 19.6455L45.6871 19.506C45.6639 19.4865 45.6357 19.4816 45.6113 19.4645C45.588 19.4498 45.5734 19.4241 45.5489 19.4094L38.2802 16.112L63.4645 2.77931ZM64.9003 97.3323L64.8343 97.3671C64.8294 97.368 64.8258 97.3708 64.8221 97.3717C64.8049 97.3745 64.7866 97.369 64.7682 97.3726L64.6472 97.4011L64.6398 97.402L64.6301 97.4011L64.5114 97.3726C64.4931 97.369 64.476 97.3745 64.4577 97.3717C64.454 97.3708 64.4503 97.368 64.4442 97.3671L64.3781 97.3323L3.74181 63.1832L3.67945 63.1417L3.61095 63.0768L3.58282 63.0353L3.52533 62.9288L3.51432 62.886L3.48742 62.6964V42.5145L3.51432 42.3237L3.52533 42.2809L3.58282 42.1745L3.59383 42.1586L3.67699 42.0889L3.67945 42.0877L3.79196 41.9983L8.12042 39.5057L8.18035 39.4739C8.19748 39.4702 8.21214 39.4715 8.22805 39.4679L8.36258 39.436L8.38093 39.4348L8.39927 39.436L8.51302 39.4642C8.53626 39.4702 8.55705 39.4691 8.5803 39.4727L8.65245 39.5069L20.9908 46.306L69.2729 72.4321L69.3451 72.4762L69.405 72.5373L69.4527 72.6033L69.4845 72.6596L69.4979 72.7281L69.5359 72.9372V76.6383V94.2923L69.5334 94.3033C69.5322 94.3107 69.5346 94.3153 69.5334 94.3217C69.5322 94.3272 69.5285 94.3327 69.5272 94.3382L69.4979 94.5217L69.4845 94.5822L69.4538 94.6409L69.427 94.6758L69.3389 94.7546L69.2386 94.829L64.9003 97.3323ZM130.082 36.8419L130.023 36.519C130.021 36.5141 130.02 36.5117 130.02 36.5068C130.018 36.5031 130.02 36.4982 130.02 36.4933L129.972 36.2622C129.961 36.2071 129.928 36.1643 129.91 36.1117C129.889 36.0603 129.888 36.0053 129.86 35.9551L129.709 35.6751C129.699 35.6592 129.686 35.6506 129.676 35.6347C129.667 35.6188 129.666 35.6029 129.656 35.587L129.517 35.3791C129.488 35.335 129.442 35.3093 129.407 35.269C129.372 35.2299 129.352 35.1846 129.31 35.1492L129.091 34.9621C129.086 34.9584 129.08 34.9584 129.077 34.9534C129.071 34.951 129.07 34.9461 129.067 34.9437L128.891 34.8043C128.869 34.7859 128.842 34.7823 128.82 34.7663C128.796 34.7492 128.781 34.7259 128.757 34.7113L72.9592 9.09403C72.9372 9.0818 72.9152 9.0818 72.8919 9.0708C72.8699 9.06102 72.8589 9.04389 72.8357 9.03411L72.6143 8.93993C72.5935 8.93137 72.5715 8.93503 72.5495 8.92648C72.5458 8.92403 72.5421 8.92159 72.5397 8.92159L71.0341 5.67677C71.0316 5.65475 71.0182 5.6413 71.0145 5.62051C71.0096 5.59972 71.0169 5.58259 71.0109 5.5618L70.9522 5.32941V5.3282L70.8592 4.9576C70.8433 4.89522 70.8054 4.84875 70.7821 4.79371C70.7577 4.73745 70.7504 4.67874 70.7149 4.62493L70.5167 4.32283C70.5094 4.31182 70.4972 4.3057 70.4886 4.29591C70.4812 4.28368 70.48 4.27147 70.4715 4.26046L70.3321 4.07577C70.3088 4.04519 70.2734 4.02807 70.2477 3.99993C70.2207 3.9718 70.2085 3.93512 70.178 3.90943L69.9113 3.67704C69.8918 3.65992 69.8685 3.65625 69.8489 3.64157C69.8281 3.62689 69.8196 3.60611 69.8 3.59143L69.6251 3.47524C69.6141 3.46913 69.6043 3.46913 69.5933 3.46179C69.5836 3.45567 69.5774 3.44588 69.5676 3.43976L65.0973 0.83829C65.0741 0.823613 65.0459 0.82361 65.0202 0.811379C64.9957 0.800372 64.9787 0.778362 64.953 0.767354L64.7194 0.675627C64.7035 0.667065 64.6839 0.670733 64.6631 0.663394C64.646 0.657279 64.6338 0.643829 64.613 0.638936L64.4515 0.591234C64.4442 0.588789 64.438 0.591226 64.4332 0.590003C64.4258 0.587557 64.4222 0.581447 64.4148 0.580224L64.2289 0.534967C64.1848 0.523959 64.1408 0.534971 64.0956 0.528855C64.0504 0.523963 64.01 0.501953 63.9635 0.501953H63.7544H63.5574C63.511 0.501953 63.4693 0.523963 63.4253 0.528855C63.3801 0.533747 63.3373 0.523959 63.2908 0.534967L63.1061 0.580224C63.1 0.581447 63.0951 0.587557 63.089 0.590003C63.0829 0.591226 63.0756 0.588789 63.0694 0.591234L62.9068 0.636482C62.8872 0.642598 62.8762 0.657279 62.8566 0.663394C62.8359 0.668286 62.8199 0.664621 62.8004 0.673183L62.5692 0.76491C62.5435 0.775917 62.5276 0.796705 62.5032 0.806489C62.4775 0.819943 62.4493 0.819947 62.4249 0.833401L36.9532 14.3324C36.9336 14.3447 36.9225 14.3631 36.9042 14.3765C36.8858 14.3887 36.8626 14.3911 36.8455 14.4046L36.6608 14.5428C36.6462 14.5539 36.64 14.5672 36.6278 14.5783C36.6156 14.5905 36.5985 14.5929 36.5863 14.6039L36.3783 14.7899C36.3501 14.8156 36.3379 14.8498 36.3147 14.8743C36.2878 14.9024 36.256 14.9183 36.2315 14.9477L36.0933 15.1323C36.075 15.1556 36.0726 15.1825 36.0591 15.207C36.0444 15.2277 36.0224 15.2412 36.0114 15.2644C35.9857 15.2657 35.9637 15.2547 35.9368 15.2583L35.7399 15.2804C35.7154 15.284 35.6958 15.2999 35.6701 15.3048C35.6469 15.3097 35.6236 15.3024 35.6004 15.3084L35.4145 15.3561C35.4108 15.3574 35.4096 15.3598 35.406 15.3611C35.4023 15.3623 35.3961 15.3611 35.3913 15.3623L35.2298 15.4063C35.2066 15.4136 35.1931 15.4295 35.1723 15.4345C35.1528 15.4418 35.1332 15.4381 35.1124 15.4467L34.8813 15.5396C34.8544 15.5494 34.8397 15.5714 34.8152 15.5824C34.792 15.5946 34.765 15.5934 34.743 15.6069L9.25665 30.3082C9.22975 30.3229 9.21629 30.3462 9.19305 30.3621C9.16859 30.3804 9.14047 30.3853 9.11723 30.4024L8.94354 30.5418C8.93498 30.5492 8.93376 30.5577 8.92519 30.565C8.91908 30.5687 8.91052 30.57 8.90319 30.5773L8.69404 30.7632C8.65613 30.7938 8.64022 30.8379 8.60843 30.8745C8.57663 30.9112 8.53504 30.9344 8.50691 30.9748L8.36871 31.184C8.35892 31.1998 8.35769 31.2158 8.34913 31.2317C8.33935 31.2475 8.32344 31.2561 8.31488 31.272L8.16322 31.5509C8.13754 31.6022 8.1351 31.6561 8.11675 31.7075C8.09718 31.76 8.06538 31.8029 8.05315 31.8591L8.00789 32.0914C8.00667 32.0951 8.00789 32.0988 8.00789 32.1037C8.00789 32.1086 8.00423 32.1111 8.003 32.1147L7.9443 32.44C7.93941 32.473 7.94919 32.5049 7.94674 32.5379C7.94307 32.5709 7.92717 32.6003 7.92717 32.6333V37.2834L7.78163 37.3152L7.66299 37.3336C7.60061 37.3434 7.54802 37.3764 7.48932 37.3948C7.43061 37.4143 7.367 37.418 7.30708 37.4485L7.08692 37.5647C7.0808 37.5684 7.07591 37.5757 7.0698 37.5794C7.06491 37.5831 7.05634 37.5831 7.05145 37.5856L2.61659 40.1393C2.59091 40.1527 2.57745 40.1784 2.55421 40.1944C2.53097 40.2102 2.5004 40.2151 2.47716 40.2347L2.30225 40.3742C2.29858 40.3765 2.29614 40.3827 2.29247 40.3864C2.29003 40.3888 2.28635 40.3888 2.2839 40.3912L2.06375 40.5747C2.02462 40.6077 2.00505 40.6542 1.97203 40.6909C1.93656 40.7276 1.89131 40.7545 1.86195 40.7973L1.73353 40.9832C1.72374 41.0003 1.72252 41.0187 1.71274 41.0358C1.70173 41.0542 1.68461 41.0627 1.67483 41.0798L1.52316 41.3587C1.50115 41.4015 1.49992 41.4468 1.4828 41.4908C1.4669 41.5348 1.43632 41.5703 1.42287 41.6155L1.3666 41.8479C1.36171 41.8675 1.36783 41.8846 1.36416 41.9042C1.36049 41.9238 1.34704 41.9372 1.34459 41.958L1.29811 42.2845C1.29567 42.3102 1.30546 42.3359 1.30301 42.3616C1.30179 42.3886 1.28711 42.4118 1.28711 42.4399V62.7784C1.28711 62.8065 1.30179 62.8285 1.30301 62.8567C1.30546 62.8823 1.29567 62.9092 1.29811 62.9349L1.34459 63.2615C1.34826 63.2823 1.36049 63.297 1.36538 63.319C1.36783 63.3348 1.36293 63.352 1.36783 63.3715L1.42409 63.6027C1.43877 63.6627 1.47179 63.7104 1.49503 63.7641C1.50848 63.7948 1.50849 63.8315 1.52439 63.862L1.67605 64.1397C1.68828 64.1604 1.7054 64.1764 1.71885 64.1984C1.72619 64.2094 1.72741 64.2241 1.73475 64.2363L1.86318 64.4234C1.90109 64.4785 1.94512 64.5225 1.99038 64.5677C2.00015 64.5787 2.00383 64.5922 2.01484 64.602L2.23499 64.8099C2.25946 64.8332 2.29124 64.8417 2.31816 64.8625C2.34139 64.8821 2.35485 64.9089 2.38175 64.9261L2.55543 65.0423C2.56766 65.0497 2.58112 65.0533 2.59213 65.0594C2.60192 65.0655 2.60558 65.0741 2.61659 65.0802L63.3067 99.2614C63.3202 99.2687 63.3336 99.2715 63.3459 99.2788C63.3532 99.2806 63.3581 99.2898 63.3654 99.2944L63.5978 99.409C63.6394 99.4302 63.6822 99.4237 63.7225 99.4375C63.7922 99.4632 63.8546 99.5035 63.9317 99.5136L64.0381 99.5283L64.1763 99.5622C64.2057 99.5696 64.2375 99.5687 64.2669 99.5732C64.2815 99.5742 64.2925 99.5843 64.3059 99.587L64.5054 99.6099C64.5481 99.6164 64.5897 99.6173 64.6325 99.6173H64.6338H64.635H64.6362H64.6374C64.6765 99.6173 64.7169 99.6164 64.7585 99.6099L64.9664 99.587C64.9787 99.5852 64.9897 99.576 65.0044 99.5742C65.0361 99.5687 65.0704 99.5705 65.1021 99.5622L65.2392 99.5292L65.348 99.5136C65.4263 99.5026 65.4874 99.4632 65.5584 99.4375C65.5988 99.4228 65.6415 99.4274 65.6819 99.409L65.9143 99.2944C65.9217 99.2898 65.9265 99.2806 65.9339 99.2788C65.9449 99.2715 65.9596 99.2687 65.973 99.2614L70.3968 96.7085C70.414 96.6975 70.4225 96.6819 70.4385 96.67C70.4617 96.6562 70.4862 96.6516 70.5082 96.6351L70.6928 96.4957C70.705 96.4865 70.7112 96.4718 70.7222 96.4618C70.7344 96.4535 70.7491 96.4498 70.7626 96.4397L70.9717 96.2554C71.0047 96.2242 71.0194 96.1838 71.0488 96.1508C71.0708 96.1269 71.1026 96.1169 71.1233 96.0902L71.2628 95.9013C71.2751 95.8857 71.2763 95.8673 71.2873 95.8499C71.3019 95.827 71.3228 95.8086 71.3362 95.7839C71.3618 95.783 71.3888 95.783 71.4157 95.7793L71.6138 95.7563C71.626 95.7545 71.6358 95.7453 71.6469 95.7435C71.6737 95.7417 71.7019 95.7426 71.7288 95.7353L71.9257 95.6903C71.9342 95.6876 71.9404 95.6811 71.9489 95.6793C71.9612 95.6756 71.9746 95.6775 71.9881 95.6729L72.1507 95.6261C72.1704 95.6206 72.1837 95.6032 72.2046 95.5986C72.2241 95.5912 72.2474 95.5931 72.2669 95.5857L72.4883 95.4922C72.5054 95.4867 72.514 95.472 72.5299 95.4646C72.558 95.4518 72.5862 95.4454 72.613 95.4316L96.8728 80.7331C96.8948 80.7184 96.9058 80.7001 96.9269 80.6854C96.9535 80.667 96.9838 80.6609 97.0095 80.6402L97.1838 80.5019C97.192 80.4946 97.1957 80.4836 97.204 80.4774C97.2132 80.4701 97.2251 80.4664 97.2315 80.4591L97.4333 80.2793L97.4406 80.272C97.5076 80.2121 97.5691 80.1435 97.6204 80.0653L97.7599 79.8573C97.7681 79.8463 97.7681 79.8341 97.7755 79.8219C97.7828 79.8096 97.7929 79.8011 97.7984 79.7901H97.9488H97.9507C98.035 79.7901 98.1204 79.7791 98.2048 79.7596L98.4029 79.7119C98.4075 79.7106 98.4111 79.7069 98.4176 79.7057C98.4249 79.7032 98.4332 79.7045 98.4423 79.702L98.6038 79.6568C98.6276 79.6507 98.6451 79.6335 98.6698 79.6238C98.6918 79.6165 98.7148 79.6201 98.7377 79.6091L98.9579 79.5161C98.9725 79.5101 98.9817 79.4966 98.9964 79.4904C99.023 79.4782 99.0523 79.4721 99.0789 79.4562L122.117 64.7353C122.139 64.7218 122.149 64.7011 122.171 64.6864C122.197 64.6693 122.227 64.6631 122.252 64.6424L122.425 64.5041C122.429 64.5017 122.43 64.4968 122.435 64.4931C122.44 64.4895 122.446 64.4883 122.451 64.4846L122.67 64.2987C122.719 64.2571 122.744 64.2008 122.785 64.1531C122.81 64.1262 122.844 64.114 122.865 64.0834L122.994 63.8975C123.002 63.8852 123.004 63.8694 123.013 63.8547C123.022 63.84 123.035 63.829 123.043 63.8118C123.066 63.8107 123.088 63.8107 123.112 63.8082L123.32 63.7862C123.336 63.7838 123.349 63.7728 123.366 63.7715C123.401 63.7654 123.435 63.7666 123.472 63.7568L123.661 63.7091C123.663 63.7079 123.665 63.7042 123.669 63.7042C123.676 63.7018 123.683 63.703 123.69 63.7018L123.852 63.6554C123.872 63.6492 123.883 63.6357 123.903 63.6309C123.923 63.6247 123.942 63.626 123.962 63.6174L124.194 63.5245C124.211 63.5183 124.22 63.5036 124.237 63.4963C124.268 63.4829 124.303 63.4756 124.334 63.4572L128.758 60.9034C128.78 60.89 128.79 60.8691 128.813 60.8545C128.838 60.8374 128.869 60.8324 128.893 60.8104L129.067 60.6723C129.07 60.6698 129.073 60.6649 129.077 60.6613C129.08 60.6576 129.086 60.6563 129.092 60.6526L129.311 60.4668C129.35 60.4325 129.37 60.3885 129.403 60.3518C129.426 60.3261 129.459 60.3164 129.481 60.287L129.621 60.1023C129.634 60.0839 129.636 60.0632 129.646 60.0436C129.672 60.0069 129.704 59.9726 129.726 59.9298L129.877 59.6277C129.893 59.5947 129.892 59.5592 129.903 59.5225C129.922 59.4736 129.952 59.4308 129.966 59.377L130.01 59.1679C130.013 59.1581 130.01 59.1496 130.012 59.1397C130.014 59.1287 130.021 59.1202 130.024 59.1092L130.083 58.7606C130.088 58.7313 130.077 58.7006 130.078 58.6713C130.082 58.6407 130.098 58.6126 130.098 58.5808V37.0376C130.098 37.0021 130.08 36.974 130.078 36.9398C130.077 36.9079 130.088 36.8761 130.082 36.8419Z" fill="#264f68"/>
</g>
<defs>
<clipPath id="clip0_103_1089">
<rect width="129.34" height="99.9862" fill="#264f68"
transform="translate(0.837891 0.130859)"/>
</clipPath>
</defs>
</svg>
