<svg width="105" height="101" viewBox="0 0 105 101" fill="none" xmlns="http://www.w3.org/2000/svg">
<g clip-path="url(#clip0_103_1020)">
<path d="M44.4004 42.0898L46.6021 43.2909H99.653V42.0898L95.7063 39.6875H48.3473L44.4004 42.0898Z" fill="#9BCFEC"/>
<path d="M81.8939 31.2792L72.0277 25.2734L62.1602 31.2792H81.8939Z" fill="#9BCFEC"/>
<path d="M95.2488 51.6992H62.0166L68.6229 55.3027H88.6425L95.2488 51.6992Z" fill="#9BCFEC"/>
<path d="M51.0068 45.6934L57.6131 49.2968H99.6534V45.6934H51.0068Z" fill="#9BCFEC"/>
<path d="M84.2385 57.7051H72.0264L73.2275 58.9063V63.7109L84.2385 57.7051Z" fill="#9BCFEC"/>
<path d="M58.2134 33.6816L52.293 37.2851H91.76L85.8399 33.6816H58.2134Z" fill="#9BCFEC"/>
<path d="M98.1469 62.8797V50.9271L99.5522 50.1212C99.5738 50.1079 99.5855 50.0899 99.6054 50.0755C99.6324 50.0563 99.6648 50.0479 99.6918 50.0275L99.8621 49.8906C99.8666 49.887 99.8693 49.8834 99.872 49.8798C99.8756 49.8761 99.8792 49.8761 99.8828 49.8725L100.099 49.6899C100.137 49.6587 100.157 49.6143 100.187 49.5782C100.213 49.5518 100.248 49.541 100.269 49.5098L100.405 49.3284C100.421 49.308 100.423 49.2875 100.434 49.2672C100.457 49.2335 100.486 49.2023 100.504 49.1638L100.654 48.8684C100.67 48.8371 100.669 48.8011 100.68 48.7699C100.699 48.7182 100.731 48.6726 100.744 48.6161L100.788 48.4107C100.791 48.4011 100.788 48.3927 100.788 48.3843C100.791 48.3735 100.798 48.3663 100.799 48.3555L100.857 48.0143C100.863 47.9843 100.85 47.9543 100.853 47.9254C100.857 47.8954 100.872 47.869 100.872 47.8378V42.8218C100.872 42.7869 100.856 42.7593 100.852 42.7269C100.849 42.6945 100.861 42.6632 100.854 42.6308L100.798 42.3113C100.798 42.3076 100.795 42.304 100.793 42.3004C100.793 42.2968 100.795 42.2932 100.793 42.2885L100.749 42.0614C100.737 42.005 100.704 41.9617 100.685 41.9089C100.666 41.8572 100.663 41.8032 100.637 41.754L100.488 41.4825C100.475 41.4572 100.452 41.4441 100.438 41.4212C100.423 41.3996 100.421 41.3756 100.406 41.354L100.269 41.1702C100.249 41.1437 100.222 41.1329 100.201 41.1077C100.178 41.0837 100.169 41.0513 100.144 41.0297L99.927 40.8243C99.9045 40.8014 99.8738 40.7955 99.8486 40.7762C99.8252 40.7546 99.8117 40.7293 99.7855 40.7113L99.6144 40.5973C99.6036 40.5901 99.5919 40.5901 99.5819 40.584C99.5711 40.5768 99.5666 40.566 99.5558 40.5612L73.1377 25.3078C73.1269 25.3018 73.1161 25.3018 73.1064 25.297C73.0968 25.291 73.092 25.2814 73.0812 25.2754L72.853 25.1624C72.8157 25.1433 72.7761 25.1444 72.7364 25.1313C72.6968 25.1169 72.6656 25.0892 72.6236 25.0772L72.4301 25.0315H72.4278L72.2488 24.9883C72.2356 24.9847 72.2211 24.9895 72.2067 24.9859L70.148 10.3607L102.215 28.8728L102.301 28.9413L102.399 29.023L102.421 29.0578L102.468 29.1455L102.483 29.214L102.519 29.4169V59.9934L102.482 60.218L102.471 60.2625L102.424 60.3561L102.421 60.3586L102.301 60.4618L102.215 60.5303L98.1469 62.8797ZM70.9527 78.5848V66.6322L72.3677 65.8057C72.3761 65.801 72.3797 65.7926 72.3893 65.7865C72.399 65.7805 72.411 65.7782 72.4218 65.7697L72.5936 65.658C72.6175 65.64 72.6308 65.6136 72.6548 65.5956C72.6788 65.5739 72.7125 65.5667 72.7341 65.5439L72.9515 65.3397C72.9791 65.3133 72.9899 65.2796 73.0139 65.2532C73.0319 65.2304 73.0584 65.2244 73.0764 65.2016L73.2121 65.0178C73.2253 65.0022 73.2278 64.983 73.2373 64.9661C73.2517 64.9433 73.2722 64.9241 73.2854 64.8989C73.3058 64.8989 73.3215 64.8989 73.3418 64.8965L73.546 64.8724C73.5605 64.8713 73.5713 64.8616 73.5857 64.8593C73.6217 64.8557 73.6541 64.8568 73.6913 64.8472L73.8271 64.8136L73.928 64.7992C74.0037 64.7884 74.0649 64.7499 74.1346 64.7247C74.1742 64.7103 74.2175 64.7151 74.2548 64.6971L74.4829 64.583C74.4913 64.5794 74.4962 64.571 74.5034 64.5674C74.5154 64.5614 74.5274 64.5589 74.5406 64.553L95.9848 52.1715V63.7602L95.9821 63.771C95.9785 63.7878 95.9857 63.8022 95.9821 63.8179C95.9803 63.8346 95.9704 63.8455 95.9695 63.8611L95.9533 63.9945L95.9452 64.0233L95.892 64.1206L95.8803 64.1373L95.7758 64.2251L95.6902 64.2935L70.9527 78.5848ZM43.7611 94.2753V79.7031L44.7245 80.264C44.7557 80.282 44.7894 80.288 44.8205 80.3024C44.8374 80.312 44.847 80.3253 44.865 80.3312L45.0932 80.4237C45.1124 80.431 45.1317 80.4285 45.1509 80.4357C45.1701 80.4418 45.1809 80.4562 45.2001 80.461L45.3599 80.5066C45.3659 80.5078 45.3718 80.5078 45.3803 80.5091C45.3839 80.5091 45.3851 80.5127 45.3899 80.5138L45.5725 80.5607C45.6626 80.5823 45.7502 80.5931 45.8391 80.5931H45.8403H46.0325H46.2391C46.3268 80.5931 46.4157 80.5823 46.5058 80.5607L46.6884 80.5138C46.692 80.5127 46.6943 80.5091 46.6979 80.5091C46.704 80.5078 46.7112 80.5078 46.7184 80.5066L46.8769 80.461C46.8974 80.455 46.9082 80.4406 46.9274 80.4357C46.9466 80.4285 46.9658 80.431 46.985 80.4237L47.2132 80.3312C47.2301 80.3253 47.2397 80.312 47.2541 80.3048C47.2865 80.2904 47.3201 80.2832 47.349 80.2664L68.7931 67.8862V79.4688L68.7847 79.5193C68.7835 79.5265 68.7859 79.5325 68.7859 79.5409C68.7835 79.5469 68.7787 79.5529 68.7787 79.5601L68.7631 79.679L68.7559 79.7114L68.6934 79.8231L68.6622 79.8713L68.5889 79.9373L68.4988 80.0094L43.7611 94.2753ZM34.8642 18.5994L34.9627 18.5586L35.0684 18.5298L35.0709 18.5285L35.1537 18.5081L35.1573 18.5069L35.1693 18.5093L35.2522 18.5298H35.2534L35.3555 18.5586L35.4083 18.5802L35.4119 18.5814L35.4155 18.5825L35.4564 18.5994L39.7049 21.0497L39.8142 21.1362L39.8153 21.1374L39.9547 21.2515L39.9787 21.284L40.076 21.4437L40.1313 21.6263L40.1685 21.7765L42.9035 41.2326L24.4935 51.8556L9.67969 43.3046V33.4996L9.71699 33.2954L9.73014 33.2282L9.77699 33.1405L9.80825 33.0949L9.88392 33.0276L9.97761 32.9519L34.8642 18.5994ZM46.3316 78.3542L46.2271 78.3962L46.1226 78.425L46.1034 78.4299H46.0325H45.9713L45.952 78.425L45.8463 78.3962L45.7418 78.3529L43.7611 77.2023V64.4845C43.7611 64.4508 43.7444 64.422 43.7419 64.3896C43.7383 64.3571 43.7491 64.326 43.7444 64.2935L43.6867 63.974C43.6867 63.9692 43.6831 63.9668 43.6818 63.962C43.6807 63.9584 43.6831 63.9548 43.6818 63.95L43.6362 63.7218C43.6254 63.6665 43.5917 63.6233 43.5737 63.5729C43.5557 63.5211 43.5534 63.4671 43.5269 63.4191L43.3791 63.1476C43.366 63.1236 43.3444 63.1092 43.33 63.0876C43.3143 63.0648 43.3119 63.0371 43.2951 63.0143L43.1582 62.8305C43.1413 62.8077 43.1161 62.7993 43.0981 62.7777C43.0813 62.7572 43.0741 62.7333 43.0548 62.7128L42.8507 62.5086C42.8206 62.4797 42.7822 62.4678 42.7498 62.4425C42.7174 62.4161 42.6957 62.3777 42.6597 62.3549L42.4759 62.2419C42.4711 62.2383 42.4639 62.2383 42.4579 62.2347C42.4531 62.2311 42.4495 62.2252 42.4435 62.2227L26.6555 53.1012L44.3293 42.9022L44.4818 42.8398C44.4854 42.8386 44.4878 42.8362 44.4903 42.8362C44.4998 42.8314 44.5095 42.8218 44.5191 42.817C44.5443 42.8062 44.5695 42.8002 44.5935 42.7882L44.6007 42.7869H44.6031L44.6644 42.8038L44.7809 42.8446L44.9527 42.9166L71.211 58.0788L71.3191 58.1641L71.4164 58.2481L71.4224 58.2542L71.4669 58.3442L71.4788 58.397L71.5149 58.6168V63.4371L71.5137 63.4491C71.5125 63.4551 71.5137 63.4599 71.5137 63.4647C71.5125 63.472 71.5089 63.4767 71.5065 63.4815L71.4777 63.6641L71.4644 63.7229L71.4356 63.7794L71.3996 63.8274L71.3155 63.9055L71.2495 63.95L69.3324 65.0719H69.3312L46.3316 78.3542ZM98.4469 42.4194L98.5081 42.4603L98.5946 42.5395L98.6234 42.5815L98.6586 42.6452L98.673 42.7125L98.709 42.9166V47.7489L98.6721 47.9699L98.6595 48.024L98.618 48.1069L98.609 48.1188L98.5099 48.2017L98.5072 48.2029L98.3982 48.2906L96.5262 49.3632L96.5244 49.3645L73.6782 62.5542V58.5328C73.6782 58.5004 73.6638 58.474 73.6602 58.4451C73.6577 58.4151 73.6686 58.3862 73.6638 58.3551L73.6061 58.0139C73.6037 58.0031 73.5977 57.9971 73.5953 57.9887C73.5929 57.9767 73.5977 57.9671 73.5953 57.9587L73.5496 57.7533C73.54 57.7088 73.5112 57.6752 73.4956 57.6331C73.48 57.5911 73.4812 57.5466 73.4607 57.5034L73.3118 57.2067C73.2974 57.1767 73.2697 57.1575 73.2506 57.1299C73.2325 57.1011 73.2289 57.0674 73.2085 57.041L73.0728 56.8596C73.0463 56.8248 73.008 56.8068 72.9803 56.7768C72.9526 56.7491 72.9382 56.7106 72.9071 56.6854L72.6909 56.5005C72.686 56.4993 72.68 56.498 72.6764 56.4944C72.6728 56.4897 72.6704 56.4849 72.6656 56.48L72.495 56.3443C72.4722 56.3263 72.4458 56.3215 72.4229 56.307C72.4001 56.2915 72.3869 56.2674 72.3617 56.253L46.794 41.4849L71.5233 27.1936L71.6506 27.1432L71.7119 27.1204L71.7743 27.1047L71.7959 27.1035H71.802L71.9209 27.1312H71.9221L71.9233 27.1324L71.9966 27.1515L72.0842 27.1948L98.4469 42.4194ZM62.0619 2.88595L62.1567 2.84751L62.2481 2.82228L62.2877 2.81148H62.3477H62.4186L62.4715 2.82468L62.5483 2.84751L62.648 2.88714L66.9409 5.38673L67.0274 5.44439L67.1511 5.5513L67.1968 5.61255L67.2713 5.72787L67.3181 5.91765V5.91885L67.3625 6.09061L67.7421 8.79199V8.7932L70.0975 25.5228L45.4908 39.7408C45.4655 39.7564 45.4511 39.7805 45.4272 39.796C45.4055 39.8129 45.3767 39.8165 45.3551 39.8333L45.1845 39.9714C45.1592 39.9919 45.1473 40.0219 45.1232 40.0435C45.1016 40.0651 45.074 40.0735 45.0536 40.0964L44.9466 40.2165L42.303 21.4173C42.3017 21.3968 42.2886 21.3824 42.2837 21.3644C42.2801 21.344 42.2861 21.326 42.2825 21.3068L42.2249 21.0774C42.2224 21.0689 42.2165 21.0641 42.2141 21.0558C42.2116 21.0461 42.2141 21.0365 42.2116 21.0293L42.1096 20.6882C42.0951 20.6425 42.0639 20.6113 42.0447 20.568C42.0255 20.5261 42.0219 20.4792 41.9979 20.4383L41.8044 20.1189C41.7936 20.1032 41.7792 20.0973 41.7697 20.0816C41.76 20.066 41.7589 20.0504 41.748 20.036L41.6123 19.8522C41.5846 19.8162 41.5438 19.7969 41.515 19.7645C41.4826 19.732 41.4645 19.6901 41.4273 19.66L41.1774 19.4558L41.1738 19.4534L41.1702 19.4498L40.9997 19.3129C40.9769 19.2937 40.9492 19.2888 40.9252 19.2721C40.9024 19.2577 40.8892 19.2324 40.8639 19.218L37.3302 17.1808L62.0619 2.88595ZM37.0467 98.1463L36.9818 98.1805C36.9771 98.1814 36.9735 98.1842 36.9699 98.1851C36.953 98.1878 36.935 98.1824 36.9182 98.186L36.7981 98.2139L36.7909 98.2148L36.7812 98.2139L36.6647 98.186C36.6467 98.1824 36.6299 98.1878 36.6119 98.1851C36.6083 98.1842 36.6047 98.1814 36.5987 98.1805L36.5339 98.1463L3.40973 79.0232L3.34847 78.9824L3.28121 78.9187L3.25358 78.8779L3.19712 78.7734L3.18631 78.7313L3.15869 78.5452V47.9146L3.18631 47.7272L3.19712 47.6853L3.25358 47.5808L3.26439 47.5651L3.34606 47.4966L3.34847 47.4954L3.45897 47.4078L7.70984 44.9598L7.7687 44.9286C7.78552 44.925 7.79993 44.9262 7.81554 44.9226L7.94887 44.8913L7.96569 44.8901L7.9837 44.8913L8.09541 44.919C8.11823 44.925 8.13985 44.9238 8.16147 44.9274L8.23114 44.961L23.9542 54.0405L41.3409 64.0833L41.4117 64.1265L41.4706 64.1866L41.5174 64.2515L41.5474 64.3067L41.5618 64.374L41.599 64.5794V77.8232V95.1609L41.5967 95.1717C41.5954 95.1789 41.5979 95.1834 41.5967 95.1897C41.5954 95.1951 41.5931 95.2005 41.5918 95.2059L41.5607 95.3852L41.5486 95.4455L41.5186 95.5032L41.4922 95.5374L41.4057 95.6149L41.3072 95.6879L37.0467 98.1463ZM104.663 29.1311L104.605 28.814C104.604 28.8091 104.602 28.8068 104.602 28.8019C104.601 28.7983 104.602 28.7935 104.602 28.7888L104.555 28.5618C104.544 28.5077 104.511 28.4656 104.493 28.414C104.475 28.3636 104.472 28.3095 104.446 28.2602L104.297 27.9852C104.288 27.9695 104.274 27.9611 104.265 27.9456C104.256 27.9299 104.255 27.9143 104.245 27.8987L104.108 27.6945C104.079 27.6513 104.035 27.626 104.002 27.5864C103.966 27.5479 103.946 27.5035 103.905 27.4686L103.69 27.2849C103.685 27.2813 103.679 27.2813 103.675 27.2765C103.671 27.2741 103.67 27.2693 103.665 27.2669L103.494 27.1299C103.472 27.1119 103.445 27.1083 103.423 27.0927C103.401 27.0759 103.386 27.0531 103.361 27.0387L70.184 7.88633C70.1636 7.87432 70.142 7.87432 70.1203 7.86351C70.0975 7.85391 70.0867 7.83709 70.0651 7.82748L69.8465 7.73498C69.8249 7.72658 69.8045 7.73018 69.7829 7.72177C69.7793 7.71937 69.7757 7.71697 69.7721 7.71697L69.4958 5.73147C69.4933 5.70985 69.4802 5.69664 69.4766 5.67622C69.4717 5.6558 69.4789 5.63898 69.473 5.61856L69.4165 5.39034V5.38915L69.324 5.02519C69.3084 4.96393 69.2712 4.9183 69.2483 4.86424C69.2243 4.80899 69.2171 4.75133 69.1823 4.69849L68.9877 4.4018C68.9805 4.39099 68.9685 4.38498 68.9613 4.37536C68.9528 4.36336 68.9516 4.35136 68.9433 4.34055L68.8063 4.15917C68.7835 4.12914 68.7487 4.11232 68.7222 4.08469C68.697 4.05706 68.6838 4.02104 68.655 3.99581L68.3931 3.76759C68.3739 3.75077 68.351 3.74717 68.3319 3.73275C68.3127 3.71834 68.303 3.69793 68.2826 3.68351L68.112 3.56941C68.1012 3.5634 68.0904 3.5634 68.0808 3.55619C68.0712 3.55018 68.0664 3.54057 68.0556 3.53456L63.6654 0.979723C63.6426 0.965309 63.6149 0.965305 63.5897 0.953294C63.5645 0.942484 63.5489 0.920868 63.5237 0.910058L63.2954 0.819975C63.2774 0.811567 63.2594 0.815168 63.2402 0.807962C63.221 0.801955 63.2102 0.788747 63.1897 0.783942L63.03 0.737095C63.024 0.734694 63.0179 0.737087 63.0132 0.735886C63.0071 0.733484 63.0023 0.727483 62.9951 0.726282L62.8125 0.681836C62.7681 0.671026 62.7249 0.68184 62.6816 0.675834C62.6372 0.671029 62.5976 0.649414 62.5519 0.649414H62.3465H62.1531C62.1075 0.649414 62.0666 0.671029 62.0222 0.675834C61.979 0.680638 61.9369 0.671026 61.8913 0.681836L61.7111 0.726282C61.7039 0.727483 61.6991 0.733484 61.6931 0.735886C61.6871 0.737087 61.6799 0.734694 61.6739 0.737095L61.5141 0.781532C61.4949 0.787538 61.4829 0.801955 61.4648 0.807962C61.4457 0.812766 61.4276 0.809166 61.4096 0.817575L61.1814 0.907656C61.1586 0.918467 61.1418 0.938883 61.1177 0.948492C61.0925 0.961704 61.0649 0.961708 61.0409 0.974921L36.0258 15.4331C36.0065 15.4452 35.9957 15.4632 35.9777 15.4764C35.9596 15.4884 35.9369 15.4908 35.92 15.504L35.7387 15.6398C35.7242 15.6506 35.7195 15.6638 35.7062 15.6746C35.6942 15.6866 35.6774 15.689 35.6654 15.6998L35.4612 15.8824C35.4335 15.9076 35.4216 15.9412 35.3975 15.9653C35.3735 15.9929 35.3398 16.0085 35.3182 16.0373L35.1813 16.2187C35.1645 16.2416 35.1609 16.268 35.1465 16.292C35.1333 16.3124 35.1117 16.3256 35.1008 16.3484C35.0756 16.3497 35.0528 16.3389 35.0288 16.3425L34.8354 16.3641C34.8101 16.3677 34.7898 16.3833 34.7669 16.388C34.7429 16.3929 34.7201 16.3857 34.6973 16.3916L34.5147 16.4385C34.5111 16.4398 34.5099 16.4421 34.5063 16.4434C34.5015 16.4445 34.4966 16.4434 34.4919 16.4445L34.3333 16.4878C34.3117 16.495 34.2973 16.5106 34.2768 16.5154C34.2576 16.5226 34.2372 16.519 34.218 16.5274L33.9898 16.6187C33.9658 16.6283 33.9489 16.6499 33.9273 16.6607C33.9033 16.6727 33.8768 16.6715 33.8541 16.6848L8.82451 31.1225C8.80049 31.137 8.78607 31.1598 8.76325 31.1754C8.73923 31.1934 8.71161 31.1982 8.68878 31.2151L8.51821 31.352C8.511 31.3592 8.50861 31.3676 8.50019 31.3748C8.49419 31.3784 8.48578 31.3797 8.47857 31.3869L8.27199 31.5694C8.23715 31.5995 8.21913 31.6427 8.18911 31.6787C8.15788 31.7148 8.11703 31.7376 8.08941 31.7772L7.95368 31.9826C7.94407 31.9982 7.94286 32.0139 7.93445 32.0294C7.92484 32.045 7.90923 32.0535 7.90082 32.0691L7.75309 32.3429C7.72666 32.3934 7.72425 32.4463 7.70624 32.4967C7.68702 32.5483 7.65579 32.5904 7.64498 32.6456L7.59933 32.8738C7.59813 32.8774 7.59933 32.881 7.59933 32.8859C7.59933 32.8907 7.59573 32.8931 7.59453 32.8967L7.53688 33.2161C7.53207 33.2486 7.54169 33.2798 7.53928 33.3123C7.53568 33.3447 7.52006 33.3735 7.52006 33.406V42.7774L7.37593 42.8085L7.26062 42.8265C7.19936 42.8362 7.14891 42.8686 7.09125 42.8866C7.03119 42.9058 6.96994 42.9094 6.91107 42.9395L6.69487 43.0536C6.68887 43.0572 6.68406 43.0644 6.67806 43.068C6.67325 43.0716 6.66484 43.0716 6.65884 43.074L2.30467 45.582C2.28065 45.5953 2.26623 45.6205 2.24341 45.6361C2.21938 45.6516 2.19056 45.6565 2.16654 45.6757L1.99597 45.8126C1.99237 45.8151 1.99117 45.821 1.98637 45.8246C1.98396 45.827 1.98036 45.827 1.97795 45.8295L1.76175 46.0096C1.72331 46.0421 1.7041 46.0877 1.67046 46.1237C1.63683 46.1597 1.59239 46.1862 1.56356 46.2282L1.43864 46.4108C1.42783 46.4277 1.42663 46.4457 1.41702 46.4624C1.40501 46.4804 1.3894 46.4889 1.37979 46.5057L1.23205 46.7795C1.20923 46.8216 1.20802 46.866 1.1924 46.9092C1.17438 46.9525 1.14556 46.9874 1.13355 47.0318L1.07589 47.26C1.07229 47.2792 1.07709 47.2961 1.07469 47.3153C1.07109 47.3345 1.05788 47.3477 1.05547 47.3682L1.00983 47.6889C1.00622 47.7141 1.01704 47.7393 1.01464 47.7645C1.01344 47.7909 0.999023 47.8137 0.999023 47.8414V78.6256C0.999023 78.6533 1.01344 78.6749 1.01464 78.7025C1.01704 78.7277 1.00622 78.7542 1.00983 78.7794L1.05547 79.1001C1.05908 79.1205 1.07109 79.1349 1.07469 79.1565C1.07829 79.1722 1.07349 79.1889 1.07709 79.2082L1.13475 79.4352C1.14917 79.4941 1.18039 79.5409 1.20442 79.5938C1.21643 79.6238 1.21644 79.6598 1.23325 79.6898L1.38099 79.9625C1.393 79.983 1.40981 79.9985 1.42302 80.0202C1.43023 80.031 1.43144 80.0454 1.43984 80.0574L1.56476 80.2411C1.602 80.2952 1.64644 80.3384 1.68968 80.3829C1.70049 80.3937 1.7029 80.4069 1.71371 80.4165L1.92992 80.6208C1.95394 80.6436 1.98516 80.6519 2.01159 80.6724C2.03441 80.6916 2.04763 80.7181 2.07405 80.7348L2.24461 80.849C2.25663 80.8562 2.26984 80.8598 2.28065 80.8658C2.29026 80.8717 2.29506 80.8802 2.30467 80.8862L35.4828 100.041C35.4936 100.048 35.5069 100.051 35.52 100.058C35.5272 100.06 35.5321 100.069 35.5393 100.073L35.7675 100.186C35.8083 100.207 35.8504 100.2 35.89 100.214C35.9585 100.239 36.0209 100.279 36.0954 100.289L36.1999 100.303L36.3368 100.336C36.3657 100.344 36.3957 100.343 36.4245 100.347C36.4389 100.348 36.4497 100.358 36.463 100.361L36.6587 100.383C36.7008 100.389 36.7416 100.39 36.7837 100.39H36.7848H36.7861H36.7873H36.7884C36.8269 100.39 36.8665 100.389 36.9073 100.383L37.1116 100.361C37.1248 100.359 37.1344 100.35 37.1476 100.348C37.18 100.343 37.2136 100.344 37.2437 100.336L37.3794 100.304L37.4863 100.289C37.562 100.278 37.6233 100.239 37.6929 100.214C37.7325 100.199 37.7746 100.204 37.8142 100.186L38.0424 100.073C38.0496 100.069 38.0545 100.06 38.0617 100.058C38.0737 100.051 38.0869 100.048 38.0989 100.041L42.4435 97.5337C42.4615 97.5229 42.4699 97.5076 42.4867 97.4959C42.5084 97.4824 42.5323 97.4779 42.5528 97.4617L42.7366 97.3247C42.7474 97.3157 42.7534 97.3013 42.7642 97.2914C42.7774 97.2833 42.7918 97.2797 42.8039 97.2698L43.008 97.0869C43.0417 97.0581 43.0561 97.0184 43.0849 96.986C43.1065 96.9626 43.1377 96.9527 43.1582 96.9266L43.2951 96.741C43.3071 96.7257 43.3083 96.7076 43.3191 96.6905C43.3336 96.668 43.3527 96.65 43.366 96.6257C43.3924 96.6248 43.4188 96.6248 43.4453 96.6212L43.6399 96.5986C43.6518 96.5968 43.6615 96.5878 43.6735 96.586C43.6987 96.5842 43.7263 96.5851 43.7516 96.5779L43.9449 96.5338C43.9545 96.5311 43.9593 96.5248 43.9689 96.523C43.9809 96.5194 43.9942 96.5212 44.0074 96.5167L44.166 96.4707C44.1863 96.4653 44.1996 96.4482 44.22 96.4437C44.2404 96.4365 44.2608 96.4383 44.2813 96.4311L44.4986 96.3392C44.5155 96.3338 44.5239 96.3194 44.5395 96.3122C44.5659 96.2996 44.5959 96.2932 44.6212 96.2797L69.6471 81.8447C69.6687 81.8303 69.6795 81.8122 69.7 81.7978C69.7264 81.7798 69.7564 81.7739 69.7816 81.7534L69.9522 81.6177C69.9606 81.6105 69.9642 81.5996 69.9726 81.5937C69.9811 81.5865 69.9919 81.5829 69.9991 81.5757L70.1973 81.3991C70.1996 81.3967 70.2032 81.3942 70.2045 81.3919C70.2705 81.333 70.3306 81.2658 70.381 81.1888L70.5191 80.9847C70.5263 80.9739 70.5264 80.9618 70.5336 80.9499C70.5408 80.9379 70.5504 80.9294 70.5564 80.9186H70.7041H70.7054C70.7882 80.9186 70.8723 80.9078 70.9552 80.8886L71.1497 80.8417C71.1558 80.8406 71.1581 80.837 71.1642 80.8357C71.1714 80.8334 71.1797 80.8345 71.1882 80.8321L71.3455 80.7877C71.3707 80.7817 71.3876 80.7649 71.4116 80.7553C71.4332 80.7481 71.456 80.7517 71.4788 80.7408L71.695 80.6496C71.7095 80.6436 71.7179 80.6303 71.7311 80.6244C71.7587 80.6123 71.7876 80.6064 71.8152 80.5907L96.8415 66.1336C96.8631 66.1205 96.8722 66.1 96.8938 66.0856C96.919 66.0688 96.9478 66.0628 96.9731 66.0424L97.1451 65.9066C97.1478 65.9043 97.1487 65.8994 97.1532 65.8958C97.1568 65.8922 97.164 65.891 97.1694 65.8874L97.3838 65.7048C97.4325 65.664 97.4577 65.6088 97.4974 65.562C97.5208 65.5355 97.555 65.5235 97.5748 65.4935L97.7027 65.3109C97.7109 65.2989 97.7118 65.2832 97.7208 65.2688C97.7298 65.2544 97.7433 65.2436 97.7505 65.2268C97.773 65.2256 97.7964 65.2256 97.8181 65.2232L98.0217 65.2016C98.0388 65.1992 98.0505 65.1884 98.0667 65.1872C98.1027 65.1812 98.1361 65.1823 98.1721 65.1728L98.3559 65.1259C98.3595 65.1247 98.3622 65.1211 98.3658 65.1211C98.373 65.1187 98.3784 65.1199 98.3874 65.1187L98.5442 65.0731C98.564 65.067 98.5757 65.0539 98.5964 65.049C98.6153 65.0431 98.6333 65.0442 98.6523 65.0359L98.8811 64.9445C98.8973 64.9386 98.9063 64.9241 98.9225 64.9169C98.954 64.9037 98.9874 64.8965 99.018 64.8785L103.362 62.3705C103.385 62.3572 103.394 62.3369 103.416 62.3225C103.441 62.3056 103.472 62.3008 103.495 62.2792L103.666 62.1435C103.67 62.141 103.672 62.1362 103.675 62.1326C103.681 62.129 103.685 62.1279 103.692 62.1243L103.906 61.9417C103.946 61.9081 103.964 61.8648 103.996 61.8288C104.02 61.8036 104.053 61.7939 104.074 61.7651L104.211 61.5837C104.223 61.5657 104.226 61.5453 104.236 61.5261C104.261 61.4901 104.292 61.4564 104.312 61.4144L104.461 61.1176C104.478 61.0852 104.477 61.0504 104.488 61.0144C104.507 60.9663 104.537 60.9243 104.549 60.8714L104.593 60.666C104.596 60.6564 104.593 60.648 104.594 60.6384C104.597 60.6276 104.604 60.6192 104.607 60.6084L104.665 60.2661C104.669 60.2372 104.657 60.2072 104.659 60.1784C104.663 60.1483 104.679 60.1208 104.679 60.0895V29.3233C104.679 29.2884 104.662 29.2608 104.659 29.2271C104.657 29.196 104.669 29.1647 104.663 29.1311Z" fill="#264f68"/>
</g>
<defs>
<clipPath id="clip0_103_1020">
<rect width="104.5" height="99.9957" fill="#264f68" transform="translate(0.257812 0.585938)"/>
</clipPath>
</defs>
</svg>
