<svg width="127" height="101" viewBox="0 0 127 101" fill="none" xmlns="http://www.w3.org/2000/svg">
<g clip-path="url(#clip0_103_989)">
<path d="M43.7275 65.8662V77.3583L47.4656 78.6043L53.6958 82.3423L54.9418 96.049L57.4338 98.5404L62.4179 96.049L124.719 59.9139L125.273 45.4625L103.259 31.7139L43.7275 65.8662Z" fill="#9BCFEC"/>
<path d="M124.306 59.6013L123.966 59.9839L58.1909 97.5318L58.0851 97.5766L57.9767 97.6056L57.9554 97.6112H57.8807H57.8197L57.7984 97.6056L57.69 97.5766L57.5791 97.5308L55.5257 96.3365V83.145C55.5257 83.1089 55.5082 83.0802 55.5045 83.0453C55.502 83.0129 55.5133 82.9806 55.507 82.9456L55.4484 82.6154C55.4484 82.6105 55.4447 82.608 55.4435 82.603C55.4422 82.5993 55.4447 82.5942 55.4435 82.5893L55.3961 82.3538C55.3849 82.2965 55.35 82.2516 55.3325 82.1993C55.3126 82.1457 55.3101 82.0896 55.2827 82.0398L55.1295 81.7569C55.117 81.7333 55.0921 81.7183 55.0771 81.6947C55.0622 81.6722 55.0597 81.6423 55.0423 81.6199L54.9002 81.4293C54.8827 81.4055 54.8578 81.3956 54.8379 81.3744C54.8192 81.3532 54.8142 81.3283 54.793 81.3071L54.5812 81.0953C54.5513 81.0654 54.5102 81.0529 54.4765 81.0255C54.4429 80.9981 54.4204 80.9595 54.3831 80.9358L54.1924 80.8174C54.1887 80.8137 54.18 80.8137 54.1737 80.81C54.1688 80.8074 54.165 80.8013 54.1588 80.7987L45.327 75.6963L45.4392 66.6476L103.593 33.4448L106.004 34.8366V34.9288L124.038 45.3481L124.112 45.3929L124.175 45.454L124.223 45.52L124.253 45.5798L124.268 45.6496L124.306 45.8627V59.6013ZM45.1911 86.832L45.2958 78.2693L53.0149 82.7288L53.0885 82.7737L53.1508 82.8348L53.1994 82.9007L53.2293 82.9606L53.2443 83.0304L53.2828 83.2434V91.5058L45.1911 86.832ZM43.3146 70.8156V88.8007L43.3122 88.8106C43.3109 88.8181 43.3134 88.8232 43.3122 88.8306C43.3109 88.8368 43.3071 88.8419 43.3059 88.8468L43.276 89.0337L43.2636 89.096L43.2324 89.1558L43.2025 89.1919L43.1141 89.2717L43.0118 89.3477L38.5922 91.8983L38.5249 91.9319C38.52 91.9332 38.5162 91.9357 38.5125 91.937C38.495 91.9394 38.4763 91.9345 38.4589 91.9382L38.3343 91.9681L38.328 91.9693L38.3168 91.9681L38.1972 91.9382C38.1773 91.9345 38.1598 91.9394 38.1411 91.937C38.1374 91.9357 38.1336 91.9332 38.1287 91.9319L38.0602 91.8983L3.69853 72.0603L3.63498 72.018L3.5652 71.9507L3.53654 71.9096L3.47798 71.8012L3.46802 71.7575L3.43936 71.5645V39.7895L3.46802 39.5939L3.47798 39.5503L3.53654 39.4419L3.54776 39.4269L3.63249 39.3559L3.63498 39.3547L3.74962 39.2638L8.15806 36.7231L8.22035 36.6907C8.23779 36.6869 8.25275 36.6882 8.26895 36.6845L8.40601 36.6533L8.42471 36.6521L8.4434 36.6533L8.55928 36.6808C8.58295 36.6869 8.60538 36.6857 8.6278 36.6895L8.70132 36.7256L25.0118 46.1431L43.0468 56.5623L43.1202 56.6071L43.1826 56.6683L43.2312 56.7342L43.2611 56.794L43.276 56.8638L43.3146 57.0769V70.8156ZM37.4521 43.5626L37.6103 43.4977C37.6141 43.4977 37.6166 43.494 37.6203 43.4928C37.629 43.4878 37.6378 43.479 37.649 43.4741C37.6752 43.4629 37.7013 43.4566 37.7262 43.4442L37.7362 43.4429L40.0102 42.0935L79.3697 19.7908L79.5005 19.7385L79.564 19.7137L79.63 19.6999L79.65 19.6974L79.6575 19.6987L79.7808 19.7273H79.7821L79.7846 19.7286L79.8606 19.7473L79.9503 19.7922L101.344 32.1465L45.4703 64.0422L45.5575 56.9785C45.5575 56.9423 45.5401 56.9137 45.5363 56.8788C45.5338 56.8464 45.545 56.814 45.5388 56.7791L45.4803 56.4489C45.4803 56.444 45.4765 56.4414 45.4752 56.4365C45.474 56.4328 45.4765 56.4277 45.4752 56.4228L45.4279 56.1873C45.4167 56.13 45.3818 56.0851 45.3644 56.0328C45.3444 55.9791 45.342 55.9231 45.3145 55.8733L45.1612 55.5904C45.1488 55.5667 45.1238 55.5518 45.1089 55.5281C45.0939 55.5057 45.0915 55.4758 45.074 55.4534L44.932 55.2627C44.9145 55.239 44.8897 55.2291 44.8697 55.2079C44.851 55.1867 44.846 55.1618 44.8248 55.1406L44.613 54.9287C44.5831 54.8988 44.542 54.8864 44.5084 54.859C44.4747 54.8316 44.4523 54.793 44.4149 54.7693L44.2243 54.6509C44.2205 54.6472 44.2118 54.6472 44.2056 54.6434C44.2005 54.6409 44.1968 54.6347 44.1906 54.6322L31.1074 47.2234L37.4521 43.5626ZM75.7088 6.1469L75.7375 5.95128L75.7475 5.90767L75.806 5.79926L75.8172 5.78431L75.9019 5.71328L75.9045 5.71204L76.019 5.62108L80.4275 3.08044L80.4898 3.04804C80.5072 3.0443 80.5222 3.04555 80.5384 3.04181L80.6755 3.01066L80.6941 3.00941L80.7128 3.01066L80.8287 3.03807C80.8524 3.04429 80.8748 3.04306 80.8972 3.04679L80.9708 3.08292L97.281 12.5004L115.316 22.9196L115.39 22.9645L115.452 23.0256L115.5 23.0916L115.53 23.1514L115.545 23.2212L115.584 23.4342V37.1729V37.8719L108.805 33.9557L108.467 33.7613L108.509 33.6953C108.498 33.689 108.486 33.689 108.476 33.6815C108.464 33.6741 108.458 33.6628 108.449 33.6579L81.043 17.8334C81.0331 17.8284 81.0219 17.8284 81.0107 17.8234C81.0007 17.8171 80.9944 17.8072 80.9845 17.801L80.749 17.6839C80.7091 17.6639 80.668 17.6652 80.6269 17.6514C80.5857 17.6353 80.5533 17.6078 80.5098 17.5966L80.3079 17.548H80.3054L80.121 17.5031C80.1061 17.4994 80.0923 17.5044 80.0774 17.5007L77.8894 18.0577L75.7088 19.295V6.1469ZM126.528 45.6646C126.526 45.6322 126.537 45.5998 126.531 45.5649L126.472 45.2347C126.472 45.2297 126.468 45.2272 126.467 45.2223C126.466 45.2185 126.468 45.2135 126.467 45.2085L126.419 44.973C126.408 44.9157 126.374 44.8709 126.356 44.8186C126.336 44.7649 126.333 44.7088 126.306 44.659L126.153 44.3762C126.141 44.3525 126.116 44.3376 126.101 44.3139C126.086 44.2915 126.083 44.2616 126.066 44.2392L125.924 44.0485C125.906 44.0248 125.881 44.0149 125.861 43.9937C125.843 43.9724 125.838 43.9476 125.817 43.9264L125.604 43.7145C125.574 43.6846 125.533 43.6722 125.5 43.6448C125.466 43.6173 125.444 43.5787 125.406 43.5551L125.216 43.4367C125.212 43.4329 125.203 43.4329 125.197 43.4292C125.192 43.4267 125.189 43.4205 125.182 43.418L117.634 39.0569L117.827 23.3358C117.827 23.2997 117.81 23.271 117.806 23.2361C117.803 23.2037 117.814 23.1714 117.809 23.1364L117.75 22.8063C117.75 22.8013 117.746 22.7988 117.745 22.7938C117.743 22.7901 117.746 22.785 117.745 22.7801L117.697 22.5446C117.687 22.4873 117.652 22.4424 117.634 22.3901C117.614 22.3365 117.611 22.2804 117.584 22.2306L117.431 21.9477C117.418 21.9241 117.394 21.9091 117.379 21.8855C117.364 21.863 117.361 21.8331 117.343 21.8107L117.201 21.6201C117.184 21.5963 117.159 21.5864 117.14 21.5652C117.121 21.544 117.115 21.5191 117.095 21.4979L116.883 21.2861C116.853 21.2562 116.812 21.2437 116.778 21.2164C116.744 21.1889 116.722 21.1503 116.684 21.1266L116.494 21.0082C116.49 21.0045 116.482 21.0045 116.475 21.0008C116.47 20.9982 116.467 20.9921 116.46 20.9895L80.8312 0.816406H80.2318L80.0836 0.850049L79.9627 0.867494C79.8992 0.877461 79.8456 0.911108 79.787 0.931044C79.726 0.95098 79.6612 0.954717 79.6001 0.985863L79.3758 1.10424C79.3709 1.10673 79.3659 1.11544 79.3584 1.11794C79.3534 1.12043 79.3447 1.12043 79.3397 1.12417L74.8204 3.72587C74.7967 3.74082 74.7817 3.76575 74.7581 3.78194C74.7344 3.79939 74.7032 3.80437 74.6796 3.82306L74.5014 3.96636C74.4976 3.96885 74.4952 3.97384 74.4915 3.97757C74.4902 3.98007 74.4864 3.98006 74.4827 3.98256L74.2584 4.1707C74.2186 4.20435 74.1986 4.25045 74.1637 4.28784C74.1289 4.32646 74.0827 4.35263 74.0528 4.39624L73.922 4.58688C73.9121 4.60308 73.9108 4.62301 73.9008 4.64046C73.8896 4.6579 73.8722 4.66788 73.8635 4.68531L73.7089 4.96816C73.6853 5.01177 73.684 5.05912 73.6666 5.10398C73.6504 5.14884 73.6192 5.18248 73.6068 5.22983L73.5482 5.46781C73.5432 5.4865 73.5482 5.5052 73.5457 5.52513C73.542 5.54382 73.5283 5.55878 73.5257 5.57997L73.4797 5.91139C73.4759 5.93881 73.4859 5.96374 73.4834 5.99114C73.4822 6.01856 73.4672 6.04223 73.4672 6.0709V20.5659L35.973 41.8293L28.8458 45.9424L8.56176 34.459H7.96243L7.81416 34.4927L7.69329 34.5102C7.62974 34.5202 7.57616 34.5538 7.5176 34.5737C7.45654 34.5936 7.39175 34.5974 7.33069 34.6286L7.10641 34.7469C7.10143 34.7494 7.09644 34.7581 7.08896 34.7606C7.08398 34.7631 7.07526 34.7631 7.07028 34.7669L2.55095 37.3686C2.52727 37.3835 2.51231 37.4084 2.48864 37.4246C2.46496 37.442 2.43381 37.4471 2.41013 37.4658L2.23196 37.609C2.22822 37.6115 2.22573 37.6165 2.222 37.6202C2.22074 37.6228 2.21701 37.6228 2.21327 37.6252L1.98898 37.8134C1.94911 37.847 1.92917 37.8931 1.89429 37.9305C1.8594 37.9691 1.81329 37.9953 1.78339 38.0389L1.65256 38.2295C1.64259 38.2457 1.64133 38.2657 1.63137 38.2831C1.62016 38.3006 1.60271 38.3106 1.59399 38.328L1.43949 38.6108C1.41581 38.6545 1.41456 38.7018 1.39713 38.7466C1.38092 38.7915 1.34977 38.8251 1.33731 38.8725L1.27875 39.1105C1.27376 39.1292 1.27875 39.1479 1.27626 39.1678C1.27252 39.1865 1.25881 39.2014 1.25632 39.2227L1.21022 39.554C1.20648 39.5815 1.21644 39.6064 1.21395 39.6339C1.21271 39.6612 1.19775 39.6849 1.19775 39.7136V71.6479C1.19775 71.6753 1.21271 71.699 1.21395 71.7264C1.21644 71.7538 1.20648 71.78 1.21022 71.8074L1.25632 72.1401C1.26006 72.16 1.27252 72.1762 1.2775 72.1974C1.28124 72.2149 1.27501 72.2323 1.27875 72.251L1.33855 72.4878C1.35226 72.5488 1.38715 72.5974 1.40958 72.6523C1.42453 72.6834 1.42453 72.7195 1.44073 72.7519L1.59523 73.0335C1.60645 73.056 1.6239 73.0721 1.63885 73.0933C1.64632 73.1058 1.64758 73.1207 1.65381 73.1319L1.78463 73.3238C1.82326 73.3799 1.86812 73.4247 1.91422 73.4709C1.92544 73.4821 1.92792 73.4945 1.93914 73.5045L2.16467 73.7163C2.18834 73.7412 2.22199 73.7487 2.24815 73.7699C2.27308 73.7911 2.28553 73.8172 2.31295 73.8359L2.48989 73.9543C2.50234 73.9606 2.51605 73.9643 2.52851 73.9705C2.53723 73.978 2.54098 73.9867 2.55095 73.9929L36.9699 93.8628C36.9823 93.8703 36.9961 93.8731 37.0085 93.8806C37.016 93.8834 37.021 93.8918 37.0285 93.8955L37.2664 94.0133C37.3075 94.0357 37.3512 94.0292 37.3923 94.0432C37.4633 94.0675 37.5269 94.1086 37.6054 94.1189L37.7138 94.1348L37.8558 94.1684C37.8857 94.1778 37.9168 94.1759 37.9467 94.1815C37.9617 94.1824 37.9729 94.1927 37.9879 94.1946L38.1897 94.217C38.2334 94.2236 38.2757 94.2245 38.3193 94.2245H38.3206H38.3219H38.3231H38.3243C38.3642 94.2245 38.4065 94.2236 38.4476 94.217L38.6595 94.1946C38.6719 94.1936 38.6831 94.1834 38.6981 94.1824C38.7305 94.1759 38.7654 94.1787 38.7978 94.1684L38.9373 94.1357L39.0483 94.1189C39.1268 94.1077 39.1903 94.0675 39.2625 94.0432C39.3037 94.0282 39.3473 94.0329 39.3884 94.0133L39.6251 93.8955C39.6326 93.8918 39.6377 93.8834 39.6451 93.8806C39.6564 93.8731 39.6713 93.8703 39.685 93.8628L44.1906 91.2616C44.2093 91.2504 44.2192 91.2354 44.2342 91.223C44.2579 91.2081 44.2828 91.203 44.3052 91.1881L44.4934 91.0448C44.5071 91.0348 44.5121 91.0212 44.5233 91.0112C44.5358 91.0012 44.5507 90.9974 44.5657 90.9875L44.7775 90.7993C44.8112 90.7694 44.8261 90.7271 44.856 90.6934C44.8797 90.6698 44.9108 90.6598 44.932 90.6311L45.074 90.4404C45.0865 90.4231 45.0878 90.4056 45.099 90.3881C45.1139 90.3633 45.1351 90.3458 45.1488 90.3196L45.1588 89.405L53.0149 93.9432L53.0885 93.9881L53.1508 94.0488L53.1994 94.1152L53.2293 94.175L53.2443 94.2441L53.2828 94.4581V96.9823L55.5257 98.9307L56.5263 99.5129C56.5574 99.5326 56.5923 99.5391 56.6247 99.5522C56.6422 99.5625 56.6521 99.5774 56.6708 99.584L56.9063 99.6802C56.9275 99.6877 56.9474 99.6849 56.9674 99.6924C56.9873 99.698 56.9985 99.712 57.0197 99.7167L57.1842 99.7643C57.1917 99.7662 57.1978 99.7662 57.2053 99.7671C57.2078 99.7671 57.2104 99.7709 57.2153 99.7718L57.4059 99.8204C57.4982 99.8447 57.5903 99.855 57.68 99.855H57.6813H57.8819H58.095H58.0963C58.1884 99.855 58.2794 99.8447 58.3729 99.8204L58.5622 99.7718C58.566 99.7709 58.5685 99.7671 58.5722 99.7671C58.5785 99.7662 58.586 99.7662 58.5934 99.7643L58.7591 99.7167C58.7778 99.7111 58.7916 99.697 58.8102 99.6924C58.8302 99.6849 58.8514 99.6877 58.8701 99.6802L59.108 99.584C59.1229 99.5774 59.1342 99.5625 59.1504 99.555C59.1815 99.541 59.2177 99.5344 59.2488 99.5157L125.649 61.6037L125.966 61.1589L126.549 59.8269V58.956V45.7643C126.549 45.7281 126.531 45.6994 126.528 45.6646Z" fill="#264f68"/>
</g>
<defs>
<clipPath id="clip0_103_989">
<rect width="126.16" height="99.9935" fill="#264f68" transform="translate(0.427734 0.0371094)"/>
</clipPath>
</defs>
</svg>
