<svg width="67" height="101" viewBox="0 0 67 101" fill="none" xmlns="http://www.w3.org/2000/svg">
<path d="M65.1997 52.1265L39.8503 37.7689V3.96976L34.2171 0.775739V0.589844H31.4005V0.777147L0.417969 18.3274V63.1267L4.64286 65.5194V87.9043H7.45946V67.115L29.9922 79.877V100.579H32.8088V81.4726L34.2171 82.2711L59.5665 67.9065V86.496H62.3831V66.3165L66.608 63.9224V52.6969L65.1997 52.1265ZM63.7914 62.1325L34.2171 78.8828L32.8088 78.0871V78.0462H32.7384L3.23456 61.334V20.1187L32.8088 3.3656L37.0337 5.75971V38.3773L10.2761 53.5348V55.5135H12.7617L38.9814 40.6616L63.7914 54.715V62.1325Z" fill="#264f68"/>
</svg>
