<svg width="137" height="100" viewBox="0 0 137 100" fill="none" xmlns="http://www.w3.org/2000/svg">
<path d="M81.4522 82.0238L81.4336 82.0052C81.4207 81.9937 81.4049 81.9909 81.3934 81.978C81.3805 81.9651 81.3748 81.9479 81.3619 81.9377L81.2831 81.8732L81.2802 81.8575C81.2788 81.8517 81.2759 81.8474 81.2745 81.8431C81.273 81.836 81.2759 81.8302 81.2745 81.8231L81.2659 81.7772V81.7657V72.5316L98.5541 82.5184C98.5714 82.5285 98.5886 82.5242 98.6058 82.5313C98.6302 82.5442 98.6431 82.5643 98.6689 82.5743L98.881 82.6646C98.9398 82.6904 98.9986 82.6876 99.0589 82.7019C99.0933 82.7134 99.1219 82.7377 99.1578 82.7478C99.1707 82.7506 99.1836 82.7492 99.195 82.7521C99.2036 82.7564 99.2094 82.7621 99.218 82.7635L99.3685 82.7922C99.4373 82.8065 99.5062 82.8123 99.5735 82.8123H99.575H99.7255H99.9075H99.9089C99.9764 82.8123 100.045 82.8051 100.114 82.7922L100.265 82.7635C100.273 82.7621 100.279 82.7564 100.287 82.7521C100.3 82.7492 100.313 82.7506 100.325 82.7478L100.445 82.7177C100.49 82.7076 100.521 82.6775 100.561 82.6618C100.593 82.6503 100.627 82.6532 100.659 82.6388L100.841 82.5471C100.854 82.5399 100.861 82.5299 100.872 82.5227C100.882 82.5156 100.894 82.5199 100.902 82.5127L101.401 82.2231V93.5145L81.4522 82.0238ZM59.0701 69.0736L59.0185 69.0349L58.9655 68.9891L58.964 68.9848C58.9626 68.979 58.9598 68.9747 58.9583 68.9704C58.9569 68.9647 58.9598 68.959 58.9583 68.9504L58.9483 68.9016V68.883V59.6475L76.2366 69.6343C76.2538 69.6443 76.2725 69.64 76.2897 69.6486C76.314 69.6615 76.3284 69.683 76.3527 69.6916L76.5621 69.7805C76.6194 69.8077 76.6796 69.8048 76.7384 69.8163C76.7742 69.8306 76.8043 69.8564 76.8416 69.8665C76.8531 69.8679 76.8631 69.8679 76.8731 69.8693C76.8789 69.8708 76.8832 69.8751 76.8903 69.8765L77.0409 69.9066C77.1112 69.9224 77.1843 69.9281 77.2531 69.9281H77.2545H77.2817L77.3319 70.0127C77.3477 70.0414 77.3763 70.0486 77.395 70.0744C77.4481 70.1475 77.4925 70.2263 77.5656 70.2851L77.7477 70.4356C77.752 70.4385 77.7563 70.4399 77.7606 70.4428C77.7634 70.4442 77.7634 70.4485 77.7663 70.4499L77.9169 70.5719C77.9398 70.5891 77.9671 70.5962 77.9914 70.6106C78.0115 70.6249 78.0215 70.645 78.043 70.6564L79.1125 71.2829V80.6432L59.0701 69.0736ZM35.5698 80.6303V69.3403L36.0687 69.6328C36.0787 69.6386 36.0917 69.6357 36.1017 69.6414C36.1146 69.65 36.1232 69.6629 36.1361 69.6701L36.3182 69.759C36.3526 69.7762 36.3913 69.7719 36.4271 69.7848C36.4787 69.8063 36.5217 69.8378 36.5776 69.8493L36.7283 69.8794L36.8788 69.9095C36.949 69.9252 37.0221 69.931 37.091 69.931H37.0924H37.2429H37.3934H37.3948C37.4536 69.931 37.5138 69.9267 37.5727 69.9166L37.7547 69.8851C37.7648 69.8837 37.7734 69.8765 37.7834 69.8736C37.8035 69.8693 37.8221 69.8722 37.8421 69.8679L37.9626 69.8364C38.0042 69.8249 38.0343 69.7991 38.073 69.7819C38.1046 69.7704 38.1404 69.7747 38.1705 69.759L38.3525 69.6701C38.3654 69.6629 38.374 69.6515 38.3855 69.6443C38.3955 69.6386 38.4056 69.6414 38.4156 69.6357L55.7341 59.6475V68.7698C55.7326 68.7798 55.7255 68.7855 55.724 68.7927L55.6939 68.9432C55.6925 68.9504 55.6954 68.9561 55.6939 68.9647C55.6925 68.969 55.6896 68.9719 55.6882 68.9776L55.6839 69.0005L55.6825 69.0034L55.6724 69.0163L55.6624 69.0278L55.6251 69.0493C55.6237 69.0493 55.6237 69.0507 55.6223 69.0521L35.5698 80.6303ZM28.2023 19.0279L28.2253 19.015L28.2396 19.0122H28.241L28.3428 18.9907L28.4203 19.0064L28.4246 19.0107L32.0847 21.1283H32.0861L32.142 21.1612L32.1564 21.1756L32.1607 21.1827C32.1635 21.1856 32.1692 21.187 32.1721 21.1928C32.1764 21.1999 32.1764 21.21 32.1821 21.2171L32.2854 21.3719L32.304 21.4279L32.3198 21.5168L34.5677 37.2869L19.5904 45.9289L7.59797 39.0101V31.1452L7.63238 30.9903C7.63525 30.9802 7.63095 30.9716 7.63381 30.9602C7.63525 30.9487 7.64241 30.9415 7.64385 30.9301L7.64672 30.9186L7.7098 30.8641L7.75568 30.8297L28.2023 19.0279ZM56.2516 2.83207V24.7841L56.2071 24.8041C56.1871 24.8142 56.1756 24.8314 56.1555 24.84C56.1355 24.8486 56.1154 24.8486 56.0953 24.86L36.711 36.051C36.6852 36.0639 36.6724 36.0883 36.6494 36.1056C36.6251 36.1214 36.5963 36.1257 36.5733 36.1429L34.443 21.1942C34.443 21.1899 34.4387 21.1856 34.4387 21.1827C34.4373 21.177 34.4402 21.1727 34.4387 21.1655L34.4086 20.9835C34.4043 20.9547 34.3857 20.9347 34.3785 20.906C34.3714 20.8773 34.3771 20.8487 34.3671 20.8214L34.2767 20.5491C34.2609 20.5031 34.2279 20.4716 34.2079 20.43C34.1864 20.3856 34.1806 20.3397 34.1534 20.2953L33.9728 20.0243L33.9714 20.0229L33.9011 19.9082C33.8709 19.8623 33.8251 19.8308 33.7907 19.7892C33.7548 19.7477 33.7319 19.6946 33.6889 19.6559L33.4796 19.4738C33.4552 19.4523 33.425 19.448 33.3992 19.4294C33.372 19.4093 33.3577 19.3835 33.329 19.3649L33.1785 19.2746C33.1756 19.2731 33.1728 19.2731 33.1714 19.2717C33.1671 19.2717 33.1656 19.2674 33.1628 19.266L30.4804 17.7147L56.2516 2.83207ZM81.4966 19.2674C81.4751 19.2774 81.4665 19.2975 81.4465 19.3104C81.4278 19.3247 81.4063 19.3262 81.3877 19.3391L81.2673 19.4294C81.2573 19.438 81.2544 19.4494 81.2444 19.4552C81.2358 19.4623 81.2243 19.4638 81.2157 19.4709L81.0035 19.6531C80.9748 19.6789 80.9633 19.7104 80.9375 19.7391C80.9132 19.762 80.8831 19.7735 80.8601 19.8036L80.7397 19.9526C80.7211 19.9784 80.7168 20.0042 80.701 20.03C80.6853 20.0559 80.6579 20.0703 80.6423 20.1004L80.4917 20.3698C80.4745 20.4014 80.4745 20.4358 80.4616 20.4673C80.4472 20.4974 80.4243 20.5204 80.4128 20.552L80.3225 20.8243V20.8257C80.3225 20.8257 80.3211 20.8257 80.3211 20.8272L80.2609 21.0093C80.2494 21.0408 80.2566 21.0752 80.248 21.1096C80.2408 21.1383 80.2208 21.1641 80.2178 21.1971L78.1104 36.1629C78.1018 36.1543 78.0918 36.15 78.0832 36.1443C78.0459 36.1156 78.0187 36.0754 77.9771 36.0525L58.564 24.8615C58.544 24.85 58.5225 24.85 58.5024 24.84C58.4823 24.8299 58.4709 24.8113 58.4494 24.8041L58.4049 24.7841V2.81199L84.1804 17.7161L81.4966 19.2674ZM103.813 32.1473C103.79 32.1616 103.78 32.1802 103.758 32.1946C103.738 32.2089 103.717 32.2118 103.697 32.2261L103.576 32.3164C103.568 32.3221 103.565 32.3322 103.558 32.3379C103.549 32.3451 103.539 32.3465 103.532 32.3537L103.321 32.5329C103.294 32.5559 103.284 32.5888 103.259 32.6132C103.235 32.639 103.205 32.6505 103.182 32.6763L103.06 32.8282C103.039 32.8526 103.034 32.8842 103.017 32.91C103 32.9387 102.973 32.953 102.957 32.9817L102.806 33.254C102.789 33.2841 102.789 33.3185 102.776 33.35C102.762 33.3802 102.739 33.4046 102.728 33.4376L102.639 33.7085V33.7099L102.58 33.8834C102.568 33.915 102.576 33.9479 102.567 33.978C102.558 34.0139 102.538 34.0411 102.534 34.0769L100.412 49.0356L100.401 49.0256C100.378 49.0084 100.351 49.0027 100.326 48.9869C100.302 48.9711 100.289 48.9482 100.263 48.9323L80.1189 37.2869L82.3282 21.5971L82.3583 21.5053L82.4156 21.3332L82.4772 21.2229L82.5863 21.1297L82.6264 21.0996L86.2249 19.0208L86.2392 19.0165H86.2406L86.3424 18.9964L86.4055 19.0079L86.4585 19.0365L106.494 30.5961L103.813 32.1473ZM59.4443 57.4511L59.2623 57.325L59.1763 57.2375C59.1691 57.2304 59.1605 57.2289 59.1533 57.2232C59.1462 57.216 59.1433 57.206 59.1361 57.2003L58.8967 56.9837L58.8422 56.9149C58.782 56.7859 58.6946 56.6712 58.5899 56.5751L58.5841 56.5665L58.5239 56.4461L58.4695 56.31L58.4551 56.1837C58.4537 56.1665 58.4436 56.1536 58.4408 56.1393C58.4379 56.1235 58.4436 56.1078 58.4408 56.0906L58.4006 55.8913V51.4843L58.4408 51.2865C58.4436 51.2707 58.4379 51.2578 58.4408 51.2463C58.4436 51.2319 58.4522 51.222 58.4537 51.2075L58.4695 51.0828L58.5268 50.9252L58.5841 50.8119L58.7333 50.5997L58.8967 50.3947L59.1361 50.1782C59.1433 50.171 59.1462 50.161 59.1533 50.1553C59.1605 50.1495 59.1691 50.1481 59.1763 50.1395L59.2336 50.0836L59.4056 49.9804C59.4071 49.979 59.407 49.979 59.4085 49.979L78.4043 38.9915L78.4789 38.9657C78.4875 38.9628 78.4918 38.9557 78.5004 38.9528C78.5104 38.9499 78.5219 38.9514 78.5319 38.9471L78.5907 38.9241L78.6021 38.9227L78.6394 38.9284L78.7412 38.9743L98.7377 50.5309L78.0502 62.4803C78.0258 62.4947 78.0129 62.519 77.99 62.5334C77.9671 62.5491 77.9398 62.5534 77.9182 62.5706L77.7677 62.691C77.7649 62.694 77.7634 62.6968 77.7606 62.6982C77.7577 62.7012 77.7534 62.7012 77.7491 62.7039L77.5671 62.8545C77.5183 62.8947 77.4925 62.9491 77.4524 62.9979C77.4136 63.0423 77.3649 63.0753 77.3333 63.1283L77.243 63.2789C77.2359 63.2918 77.2359 63.3047 77.2287 63.3162C77.223 63.3276 77.2101 63.3348 77.2043 63.3477L77.0825 63.5885C77.0696 63.6144 77.071 63.6431 77.0596 63.6689C77.0481 63.6961 77.028 63.7147 77.018 63.7434L76.9591 63.9254C76.9491 63.957 76.9549 63.9899 76.9477 64.0229C76.9405 64.056 76.919 64.0845 76.9161 64.1205L76.886 64.3627C76.8832 64.3856 76.8932 64.4057 76.8918 64.4315C76.8903 64.4544 76.8774 64.4731 76.8774 64.4974V67.5196L59.4443 57.4511ZM56.9885 26.827C57.096 26.8628 57.2064 26.8958 57.3269 26.8958C57.4473 26.8958 57.5591 26.8642 57.668 26.827L76.4359 37.6439L58.3304 48.1181C58.3276 48.1195 58.3261 48.1224 58.3232 48.1238C58.3204 48.1238 58.3189 48.1238 58.3175 48.1253L58.015 48.3059C57.9763 48.3302 57.9519 48.3675 57.9175 48.3947C57.8831 48.4234 57.8387 48.4363 57.8071 48.4707L57.6809 48.5969L57.3928 48.8564C57.3699 48.8764 57.3627 48.9037 57.3426 48.9252C57.3226 48.9037 57.314 48.8764 57.2925 48.8564L57.0043 48.5969L56.8782 48.4707C56.8466 48.4377 56.8022 48.4234 56.7677 48.3947C56.7333 48.3675 56.7089 48.3302 56.6702 48.3059L56.3678 48.1253C56.3662 48.1238 56.3649 48.1238 56.3619 48.1238C56.3592 48.1224 56.3576 48.1195 56.3549 48.1181L38.2507 37.6439L56.9885 26.827ZM37.3762 67.7548L37.3346 67.7763L37.3103 67.7806H37.2472H37.2071L37.1598 67.772L37.1411 67.7677L37.1268 67.7591L35.5698 66.8473V56.5149C35.5698 56.4906 35.5584 56.4734 35.5555 56.449C35.5555 56.4275 35.5641 56.4074 35.5612 56.3845L35.5311 56.1436C35.5268 56.1149 35.5096 56.092 35.5039 56.0648C35.4996 56.0347 35.5067 56.0089 35.4981 55.9802L35.4379 55.7694C35.425 55.7235 35.395 55.6906 35.3763 55.6504C35.3591 55.6089 35.3577 55.5644 35.3362 55.5272L35.2157 55.3164C35.2128 55.3106 35.2071 55.3092 35.2042 55.3035C35.2028 55.2992 35.2028 55.2949 35.1999 55.292L35.1096 55.1401C35.0795 55.0913 35.0322 55.0598 34.9964 55.0182C34.9577 54.9709 34.9319 54.9165 34.8831 54.8748L34.7024 54.7243C34.6996 54.7214 34.6967 54.7214 34.6938 54.72C34.691 54.7171 34.6896 54.7143 34.6867 54.7114L34.5362 54.591C34.5133 54.5738 34.4874 54.5709 34.4645 54.5537C34.4401 54.538 34.4258 54.515 34.4 54.4978L21.738 47.1733L35.967 38.9614L36.0186 38.9356L36.0845 38.9227L36.0974 38.9256L36.1563 38.9485C36.1663 38.9528 36.1763 38.9499 36.1849 38.9542C36.1935 38.9571 36.1992 38.9643 36.2078 38.9671L36.2867 38.9944L55.2781 49.9804C55.2796 49.9804 55.2796 49.9804 55.281 49.9818L55.4531 50.085L55.5104 50.1424C55.5176 50.1495 55.5262 50.151 55.5334 50.1553C55.5405 50.1624 55.5434 50.1725 55.5506 50.1796L55.7914 50.3962L55.9348 50.5739L56.0552 50.7775L56.1326 50.9295L56.2114 51.1445L56.2416 51.2592L56.2573 51.4212V55.9573L56.2401 56.1307L56.2114 56.2583L56.1369 56.4447L56.0552 56.6038L56.0337 56.6382C55.962 56.7186 55.9033 56.8046 55.8559 56.9035L55.7914 56.9837L55.5506 57.2017C55.5434 57.2073 55.5405 57.2175 55.5334 57.2246C55.5262 57.2304 55.5176 57.2318 55.5104 57.239L55.4244 57.3264L55.2423 57.4525L37.3762 67.7548ZM102.577 67.3763C102.534 67.4021 102.507 67.4422 102.468 67.4723C102.432 67.501 102.386 67.5139 102.353 67.5483L102.266 67.6357L102.12 67.7576C102.091 67.782 102.08 67.815 102.054 67.8408C102.028 67.8666 101.995 67.8795 101.972 67.9081L101.85 68.0586C101.824 68.0887 101.82 68.1289 101.799 68.159C101.776 68.1935 101.743 68.2164 101.724 68.2551L101.604 68.4959C101.576 68.5489 101.576 68.6048 101.561 68.6593C101.545 68.7053 101.516 68.7454 101.507 68.7956L101.483 68.9375L101.433 69.1454C101.421 69.187 101.433 69.23 101.427 69.273C101.421 69.3174 101.401 69.3547 101.401 69.3991V79.73L99.8416 80.6447L99.8057 80.6619L99.8014 80.6633H99.7241H99.6782L99.6495 80.6576H99.6481L99.5692 80.6246L80.7311 69.7461L80.7297 69.7446L79.1928 68.8443L79.1225 68.7884L79.1211 68.787L79.0695 68.744C79.0652 68.7368 79.058 68.7325 79.0537 68.7268C79.0466 68.7139 79.0451 68.6981 79.0365 68.6881L79.0294 68.678L79.0236 68.6451V64.5721L79.0337 64.4946L79.0365 64.4874L79.0838 64.3928L79.1197 64.3641L79.1211 64.3627L79.1913 64.3068L100.802 51.8269C100.811 51.8212 100.815 51.8112 100.824 51.8054C100.837 51.7997 100.851 51.8026 100.862 51.7968L100.864 51.7954C100.867 51.794 100.868 51.7954 100.871 51.794L101.004 51.7266H101.052H101.067C101.082 51.7323 101.096 51.7424 101.11 51.7481C101.12 51.7538 101.128 51.7624 101.138 51.7653L101.215 51.7897L115.411 59.9944L102.577 67.3763ZM129.265 43.7397C129.266 43.7411 129.266 43.7426 129.267 43.7426L129.318 43.7727L129.36 43.8587L129.365 43.873L129.376 43.9648V51.9101L117.567 58.7514L102.445 50.0105L104.646 34.4769L104.676 34.3895V34.3866C104.677 34.3852 104.679 34.3852 104.679 34.3838L104.736 34.2074L104.795 34.1027L104.911 34.0038L104.948 33.9737L108.538 31.8978L108.56 31.8935L108.663 31.8734L108.732 31.8863L108.776 31.9092L129.265 43.7397ZM29.8424 83.9607L29.7649 83.9865C29.7434 83.9936 29.7307 84.0123 29.7091 84.0194H29.656H29.6345L29.6001 84.0037C29.5901 83.9994 29.5815 84.0022 29.5715 83.9979C29.5629 83.9951 29.5571 83.9879 29.5485 83.985L29.4654 83.9578L2.41391 68.3268L2.37233 68.2938L2.30639 68.2279L2.28201 68.1978C2.28058 68.1919 2.28345 68.1849 2.28201 68.1747L2.24761 68.0142V42.9943L2.28201 42.8322C2.28345 42.8236 2.28058 42.8164 2.28201 42.8078C2.28345 42.8007 2.28918 42.7949 2.29061 42.7849L2.29492 42.762L2.30639 42.7476L2.31785 42.7376L2.35513 42.7132L2.35656 42.7118L5.82313 40.6847L5.82743 40.6832L5.92205 40.6632C5.95215 40.6573 5.97652 40.6358 6.00662 40.6272H6.01093H6.01523C6.04533 40.6373 6.06827 40.6573 6.09982 40.6632L6.19874 40.6832L19.0471 48.098C19.0485 48.0995 19.0485 48.1009 19.0499 48.1009L33.2545 56.3171L33.329 56.3773L33.3677 56.4089L33.4064 56.4791L33.4094 56.4877L33.4209 56.5751V67.4637V81.6353C33.4094 81.6783 33.4207 81.7227 33.4164 81.7657C33.4137 81.7858 33.4064 81.803 33.405 81.8202L33.362 81.9091L33.3247 81.9392L33.2588 81.9937L29.8424 83.9607ZM107.506 96.8405L107.422 96.8692C107.401 96.8764 107.388 96.8936 107.368 96.9007H107.317H107.295L107.252 96.8835C107.244 96.8807 107.235 96.8821 107.227 96.8792C107.218 96.8764 107.213 96.8706 107.206 96.8678L107.129 96.8405L103.768 94.9051L103.748 94.8865C103.737 94.8736 103.72 94.8693 103.71 94.8578C103.697 94.8464 103.691 94.832 103.679 94.8206L103.598 94.7517L103.595 94.7388C103.593 94.7345 103.591 94.7316 103.591 94.7273C103.589 94.7216 103.592 94.7173 103.591 94.713L103.56 94.561C103.559 94.5524 103.552 94.5453 103.55 94.5381V80.3436V69.5238L103.579 69.4091C103.582 69.3962 103.578 69.3848 103.581 69.3733C103.583 69.359 103.592 69.3475 103.595 69.3346L103.598 69.3231L103.679 69.2529C103.692 69.2414 103.698 69.2257 103.71 69.2156C103.721 69.2056 103.738 69.2013 103.748 69.1884L103.768 69.1683L118.101 60.922L118.104 60.9206L130.827 53.5516C130.843 53.5473 130.857 53.5502 130.873 53.543C130.877 53.5416 130.88 53.5387 130.884 53.5373C130.897 53.5344 130.912 53.5343 130.925 53.5316C130.944 53.5257 130.957 53.5114 130.976 53.5057C130.995 53.5114 131.008 53.5257 131.028 53.5316L131.11 53.5545L131.154 53.5674L134.621 55.596H134.624L134.668 55.6246L134.712 55.7121L134.724 55.8224V80.9442L134.714 81.0388L134.672 81.1135L134.628 81.1507L134.557 81.2066L107.506 96.8405ZM136.873 55.6447L136.843 55.3724C136.839 55.3321 136.815 55.2992 136.808 55.2619C136.801 55.2261 136.806 55.1874 136.793 55.1515L136.733 54.9681C136.725 54.9423 136.705 54.9279 136.697 54.9007C136.685 54.8748 136.688 54.849 136.675 54.8246L136.555 54.5838C136.547 54.5695 136.533 54.5595 136.525 54.5466C136.517 54.5322 136.517 54.5165 136.508 54.5064L136.417 54.3544C136.387 54.3057 136.34 54.2756 136.303 54.2311C136.264 54.1853 136.239 54.1308 136.19 54.0907L136.01 53.9386C135.987 53.92 135.959 53.9157 135.935 53.8985C135.911 53.8827 135.899 53.8584 135.873 53.8426L135.722 53.7523C135.721 53.7509 135.718 53.7509 135.717 53.7509C135.714 53.7494 135.714 53.7466 135.712 53.7451L132.143 51.6577C132.109 51.6376 132.069 51.6362 132.032 51.6204C131.997 51.6032 131.97 51.5774 131.931 51.5631L131.748 51.5043C131.731 51.4986 131.714 51.5029 131.697 51.4986L131.567 51.4456C131.566 51.4456 131.563 51.4441 131.563 51.4441L131.553 51.4398C131.544 51.437 131.535 51.4384 131.527 51.4355V43.9089C131.527 43.8873 131.515 43.8717 131.514 43.8486C131.512 43.8271 131.523 43.8114 131.519 43.7884L131.489 43.5175C131.485 43.4774 131.462 43.4459 131.455 43.4085C131.446 43.3684 131.454 43.3282 131.439 43.2895L131.377 43.1089C131.369 43.0846 131.348 43.0688 131.34 43.0459C131.331 43.0229 131.333 43.0014 131.323 42.9814L131.202 42.7376C131.197 42.7247 131.185 42.7175 131.18 42.7061C131.171 42.6917 131.172 42.6774 131.163 42.6631L131.075 42.5126C131.042 42.4566 130.99 42.4222 130.951 42.3749C130.912 42.329 130.884 42.2745 130.837 42.233L130.655 42.0839C130.632 42.0638 130.603 42.0581 130.581 42.0422C130.555 42.0265 130.542 42.0007 130.516 41.9849L130.366 41.8975C130.362 41.8946 130.359 41.8946 130.357 41.8932C130.355 41.8917 130.355 41.8917 130.354 41.8903L109.821 30.034C109.809 30.0269 109.796 30.0283 109.787 30.024C109.777 30.0168 109.769 30.0054 109.758 29.9996L109.576 29.9108C109.5 29.8735 109.421 29.8678 109.343 29.8477C109.309 29.8377 109.282 29.8119 109.248 29.8033C109.239 29.8004 109.231 29.8033 109.222 29.8018C109.211 29.8004 109.205 29.7918 109.194 29.7904L109.044 29.7603C109.035 29.7588 109.026 29.7617 109.02 29.7603C109.013 29.7588 109.007 29.7545 109 29.7531L108.818 29.7244C108.815 29.7244 108.811 29.7259 108.809 29.7244L108.746 29.6197C108.716 29.571 108.668 29.5409 108.633 29.4979C108.594 29.4506 108.568 29.3961 108.519 29.356L108.338 29.2039C108.316 29.1867 108.289 29.181 108.264 29.1638C108.239 29.148 108.229 29.1251 108.203 29.1079L108.052 29.0176C108.049 29.0162 108.045 29.0162 108.042 29.0147C108.039 29.0119 108.037 29.009 108.035 29.009L87.5007 17.1484C87.4921 17.1427 87.4807 17.1441 87.4721 17.1384C87.462 17.1341 87.4563 17.1241 87.4463 17.1198L87.2657 17.028C87.1854 16.9893 87.1023 16.9793 87.0176 16.9592C86.9846 16.9478 86.9574 16.9234 86.923 16.9148C86.913 16.9119 86.9029 16.9162 86.8929 16.9134C86.8829 16.9105 86.8757 16.9033 86.8657 16.9019L86.7152 16.8732C86.7094 16.8718 86.7023 16.8747 86.6965 16.8732C86.6908 16.8718 86.6865 16.8689 86.6808 16.8661L86.5502 16.8446C86.5488 16.8446 86.5474 16.8446 86.5459 16.8431L86.5001 16.836H86.4915L86.437 16.7441C86.4055 16.6911 86.3539 16.6553 86.3152 16.6094C86.275 16.5621 86.2478 16.5062 86.1991 16.4646L86.0169 16.314C85.994 16.2954 85.9668 16.2911 85.9438 16.2768C85.9223 16.2596 85.9123 16.2395 85.8894 16.2252L85.7389 16.1334C85.736 16.1306 85.7317 16.132 85.7274 16.1291C85.7231 16.1263 85.7201 16.122 85.7158 16.1191L59.4071 0.90955C59.397 0.903819 59.3855 0.903808 59.3755 0.898077C59.3655 0.893776 59.3597 0.883744 59.3497 0.878002L59.0472 0.727469C59.0056 0.705965 58.9583 0.707406 58.9167 0.694503C58.8694 0.675869 58.8307 0.645762 58.7806 0.63572L58.63 0.605613H58.6257L58.3232 0.545398C58.2888 0.538229 58.2559 0.549698 58.2215 0.54683C58.1841 0.542529 58.1511 0.523894 58.1139 0.523894H57.8731H57.8717C57.8129 0.523894 57.7541 0.551134 57.6938 0.561174C57.6107 0.574076 57.5261 0.578377 57.4516 0.609925H57.4501L57.3383 0.657224L57.2996 0.63716C57.2882 0.63286 57.2752 0.634279 57.2651 0.628548C57.2021 0.597011 57.1333 0.58985 57.0645 0.574076C56.9914 0.554005 56.9211 0.531058 56.8495 0.529625C56.8366 0.529625 56.8266 0.522461 56.8165 0.522461H56.5727C56.5355 0.522461 56.5039 0.541097 56.4681 0.543965C56.4337 0.548265 56.3993 0.536796 56.3635 0.543965L56.061 0.604172H56.0566L55.906 0.63429C55.8573 0.644322 55.8172 0.674428 55.7713 0.693073C55.7283 0.705976 55.6825 0.705965 55.6395 0.726039L55.3369 0.876572C55.3269 0.882303 55.3211 0.892346 55.3097 0.896647C55.2996 0.902378 55.2882 0.902378 55.2796 0.908109L28.9392 16.1205C28.9349 16.1234 28.9321 16.1277 28.9278 16.1306C28.9235 16.1334 28.9206 16.132 28.9163 16.1349L28.7657 16.2266C28.7299 16.2495 28.7084 16.2854 28.6754 16.3112C28.641 16.3413 28.598 16.3513 28.5665 16.3844L28.416 16.5349C28.4017 16.5492 28.3974 16.5678 28.3845 16.5836C28.37 16.5979 28.3528 16.6051 28.3399 16.6194L28.2181 16.7699C28.1995 16.7929 28.1951 16.8215 28.1808 16.8431C28.1607 16.846 28.145 16.8388 28.1249 16.8431L28.0791 16.8517L27.9744 16.8747L27.8238 16.9033C27.8224 16.9033 27.8209 16.9048 27.8209 16.9048H27.8152L27.6647 16.9363C27.616 16.9449 27.5773 16.975 27.5314 16.9922C27.4884 17.0065 27.4426 17.0065 27.398 17.0266L27.216 17.1183C27.2059 17.1226 27.2002 17.1327 27.1888 17.137C27.1787 17.1427 27.1673 17.1427 27.1587 17.1484L6.62023 29.0047C6.60015 29.0147 6.59012 29.0334 6.57149 29.0463C6.55141 29.0606 6.52848 29.0635 6.50983 29.0764L6.38941 29.1667C6.38224 29.1738 6.37938 29.181 6.3722 29.1867C6.36504 29.191 6.35643 29.1925 6.34927 29.1982L6.16863 29.3488C6.13852 29.3746 6.12418 29.4104 6.09694 29.4377C6.06971 29.4649 6.03817 29.4778 6.0138 29.5065L5.89337 29.6584C5.86899 29.6872 5.86326 29.7259 5.84319 29.756C5.82168 29.7875 5.79015 29.8104 5.7715 29.8463L5.65108 30.0885C5.62527 30.1416 5.62384 30.1975 5.60808 30.2506C5.5923 30.2964 5.56363 30.338 5.55503 30.3882L5.53065 30.5344L5.47331 30.7839C5.46328 30.824 5.47474 30.8641 5.47044 30.9043C5.46614 30.9444 5.4475 30.9817 5.4475 31.0232V38.5585L5.39876 38.5772L5.34285 38.5886C5.3199 38.5929 5.30414 38.6087 5.28264 38.6159C5.26113 38.623 5.24106 38.6173 5.21955 38.6245L5.03748 38.6832C5.00165 38.6933 4.97583 38.7205 4.94286 38.7377C4.90701 38.752 4.86688 38.7535 4.83247 38.7735L1.26269 40.861L1.26126 40.8624C1.25982 40.8624 1.25839 40.8624 1.25696 40.8638L1.10643 40.9541C1.06629 40.9785 1.04048 41.0172 1.00463 41.0444C0.970227 41.0745 0.927217 41.0846 0.895681 41.1175L0.745149 41.2681C0.730813 41.2825 0.726507 41.3025 0.713604 41.3169C0.699268 41.3312 0.682067 41.3384 0.669164 41.3527L0.544434 41.5075C0.518628 41.539 0.512895 41.5763 0.492824 41.6094C0.469886 41.6423 0.436915 41.6667 0.418277 41.7025L0.297852 41.9448C0.272046 41.9949 0.272042 42.0494 0.256271 42.1025C0.240501 42.1513 0.210397 42.1914 0.201795 42.2444L0.175988 42.3906L0.120079 42.653C0.111477 42.6917 0.122946 42.7304 0.118645 42.7691C0.114344 42.8078 0.0957031 42.8408 0.0957031 42.8795V68.1303C0.0957031 68.1676 0.114344 68.202 0.118645 68.2408C0.122946 68.278 0.111477 68.3167 0.120079 68.3554L0.175988 68.6177L0.201795 68.764C0.221866 68.8758 0.264874 68.9776 0.313618 69.0736C0.320786 69.0894 0.320789 69.1037 0.327958 69.1152L0.332256 69.1225C0.332256 69.1238 0.333688 69.1253 0.335122 69.1282L0.448383 69.3289C0.459853 69.3489 0.482786 69.3561 0.495689 69.3762C0.515761 69.4048 0.521496 69.4421 0.544434 69.4693L0.666298 69.6214C0.677767 69.6343 0.696403 69.64 0.707873 69.6529C0.722209 69.6687 0.727941 69.6887 0.742278 69.7045L0.89281 69.8564C0.908584 69.8708 0.927217 69.8751 0.944421 69.888C0.960195 69.9037 0.967356 69.9238 0.98313 69.9353L1.13366 70.0558C1.15804 70.0758 1.18671 70.083 1.21395 70.1002C1.23402 70.1131 1.24406 70.1317 1.26556 70.1446L28.4819 85.8717C28.5063 85.8846 28.5335 85.8789 28.5593 85.8918C28.5994 85.9118 28.6296 85.9419 28.6726 85.9577L28.8216 86.0079L28.955 86.0609C28.988 86.0752 29.0252 86.0709 29.0582 86.0811C29.0897 86.091 29.1141 86.1125 29.1471 86.1169L29.2977 86.147C29.3665 86.1628 29.4353 86.1685 29.5027 86.1685H29.5041H29.6546H29.8367H29.8382C29.9055 86.1685 29.9743 86.1628 30.0431 86.147L30.1936 86.1169C30.2539 86.1068 30.3012 86.0709 30.3571 86.0509C30.393 86.0351 30.4331 86.0423 30.4675 86.0222L30.5263 85.9935L30.6338 85.9563C30.6754 85.9419 30.7041 85.9118 30.7428 85.8932C30.77 85.8803 30.7987 85.886 30.8259 85.8717L34.3943 83.8145C34.4172 83.8016 34.4273 83.7828 34.4488 83.7672C34.4746 83.7499 34.5032 83.7427 34.5276 83.7255L34.6781 83.6051C34.681 83.6022 34.6824 83.5979 34.6867 83.5951C34.691 83.5922 34.6953 83.5893 34.6996 83.5865L34.8803 83.436C34.9491 83.3786 34.9906 83.304 35.0408 83.2352C35.0609 83.208 35.0896 83.1979 35.1068 83.1707L35.1698 83.0689C35.1755 83.0675 35.1813 83.0689 35.187 83.0675L35.3691 83.036C35.372 83.036 35.3735 83.0331 35.3763 83.0331C35.3864 83.0317 35.395 83.0317 35.405 83.0302L35.5555 83.0016C35.5627 83.0001 35.5684 82.9944 35.577 82.9915C35.587 82.9887 35.5985 82.9901 35.6071 82.9872L35.7276 82.9571C35.7692 82.9471 35.7993 82.9184 35.838 82.9027C35.8695 82.8912 35.9053 82.8954 35.9354 82.8811L36.1175 82.7908C36.1304 82.7836 36.1389 82.7721 36.1504 82.7664C36.1604 82.7607 36.1706 82.7635 36.1805 82.7578L56.7132 70.9001L56.7175 70.8958C56.7204 70.8944 56.7218 70.8958 56.7247 70.8944L56.8753 70.8055C56.9154 70.7797 56.9412 70.7424 56.9771 70.7138C57.0115 70.6851 57.0544 70.6736 57.086 70.6421L57.2365 70.4902C57.2537 70.473 57.2594 70.4528 57.2739 70.4342C57.2868 70.4184 57.304 70.4141 57.3169 70.4012L57.3226 70.394L57.3326 70.4055C57.3541 70.4313 57.3828 70.4399 57.4057 70.4643C57.4344 70.493 57.4473 70.5289 57.4802 70.5547L57.6608 70.7052C57.6709 70.7138 57.6824 70.7152 57.691 70.7238C57.701 70.731 57.7053 70.741 57.7139 70.7496L57.8358 70.837C57.8559 70.8514 57.8774 70.8571 57.8989 70.87C57.9132 70.8786 57.9218 70.8929 57.9347 70.9001L78.4674 82.7578C78.4774 82.7635 78.4875 82.7607 78.4975 82.7664C78.5104 82.7721 78.519 82.7836 78.5305 82.7908L78.7125 82.8811C78.7469 82.8969 78.7856 82.8926 78.8214 82.9055C78.8731 82.9256 78.9161 82.9586 78.972 82.97L79.1225 83.0016L79.273 83.0302L79.4236 83.0618C79.4466 83.0661 79.4666 83.0646 79.4896 83.0689H79.491C79.5039 83.0876 79.5068 83.1105 79.5211 83.1291L79.6415 83.2796C79.663 83.3069 79.6931 83.314 79.716 83.3384C79.7461 83.3686 79.762 83.4102 79.7964 83.4374L79.9455 83.5607L80.0272 83.6424C80.0616 83.6768 80.106 83.6911 80.1433 83.7212C80.1805 83.7499 80.2079 83.79 80.2509 83.8145L100.784 95.6391C100.794 95.6448 100.805 95.642 100.814 95.6477C100.825 95.6534 100.832 95.6678 100.844 95.6735L101.026 95.761C101.06 95.7797 101.099 95.7739 101.135 95.7883C101.186 95.8069 101.229 95.8413 101.285 95.8528L101.436 95.8814L101.586 95.913H101.594C101.594 95.913 101.594 95.913 101.595 95.913L101.745 95.9431C101.766 95.9474 101.783 95.9459 101.803 95.9488C101.806 95.9531 101.807 95.9588 101.811 95.9631C101.823 95.9789 101.826 95.999 101.84 96.0176L101.962 96.1667C101.984 96.1926 102.012 96.2026 102.035 96.2241C102.064 96.2556 102.078 96.29 102.11 96.3173L102.256 96.4391L102.343 96.5251C102.376 96.5609 102.422 96.5738 102.459 96.6025C102.497 96.6327 102.524 96.6743 102.567 96.6972L106.135 98.753C106.163 98.7702 106.191 98.7645 106.218 98.7774C106.257 98.7946 106.286 98.8261 106.327 98.839L106.469 98.8877L106.617 98.9452C106.647 98.9566 106.68 98.9538 106.71 98.9624C106.74 98.971 106.762 98.991 106.792 98.9953L106.942 99.0254C107.013 99.0398 107.086 99.0469 107.155 99.0469H107.156H107.306H107.487H107.489C107.559 99.0469 107.632 99.0398 107.701 99.0254L107.851 98.9953C107.903 98.9839 107.943 98.9552 107.993 98.9351C108.029 98.9221 108.07 98.9264 108.105 98.9092L108.171 98.8777L108.287 98.839C108.33 98.8247 108.36 98.7931 108.401 98.7745C108.427 98.7602 108.453 98.7673 108.478 98.7516L135.694 83.0259C135.716 83.013 135.726 82.9958 135.746 82.9801C135.773 82.9629 135.802 82.9557 135.826 82.9385L135.976 82.818C135.979 82.8151 135.98 82.8094 135.985 82.8065C135.989 82.8037 135.993 82.8022 135.998 82.7994L136.178 82.6503C136.247 82.5915 136.289 82.517 136.34 82.4468C136.359 82.421 136.388 82.4123 136.405 82.3836L136.497 82.2331C136.501 82.2288 136.501 82.2202 136.504 82.213C136.507 82.2087 136.513 82.2059 136.516 82.2016L136.636 81.9909C136.649 81.9665 136.647 81.9436 136.659 81.922C136.679 81.879 136.706 81.8446 136.722 81.8016L136.783 81.621C136.793 81.5851 136.788 81.5479 136.796 81.5135C136.805 81.4718 136.827 81.436 136.831 81.3958L136.861 81.1221C136.864 81.1006 136.854 81.0848 136.856 81.0619C136.857 81.0432 136.866 81.0288 136.866 81.0073V55.7608C136.866 55.7393 136.857 55.7235 136.856 55.7049C136.865 55.682 136.875 55.6648 136.873 55.6447Z" fill="#264f68"/>
</svg>
