<svg width="114" height="101" viewBox="0 0 114 101" fill="none" xmlns="http://www.w3.org/2000/svg">
<path d="M107.763 54.1025V44.4076L108.852 43.7775C108.86 43.7723 108.865 43.7632 108.875 43.7579C108.889 43.7475 108.903 43.7461 108.918 43.7357L109.067 43.6363C109.093 43.6181 109.106 43.5919 109.131 43.571C109.157 43.5527 109.189 43.5449 109.212 43.5213L109.397 43.3488C109.429 43.3214 109.442 43.2809 109.471 43.2481C109.492 43.2246 109.522 43.2168 109.542 43.1893L109.653 43.0403C109.668 43.0207 109.669 42.9985 109.683 42.9789C109.707 42.9383 109.742 42.907 109.762 42.8613L109.887 42.6142C109.902 42.5829 109.899 42.5476 109.912 42.5148C109.932 42.4665 109.962 42.4234 109.975 42.3711L110.024 42.1724C110.026 42.1606 110.024 42.1501 110.025 42.141C110.029 42.1266 110.037 42.1162 110.04 42.1045L110.091 41.8325C110.096 41.7959 110.085 41.7606 110.089 41.7227C110.092 41.6874 110.11 41.656 110.11 41.6168V37.2994C110.11 37.2616 110.092 37.2302 110.089 37.1922C110.085 37.1569 110.098 37.1204 110.091 37.0837L110.04 36.8119C110.037 36.8001 110.029 36.7896 110.025 36.7792C110.024 36.7675 110.026 36.7557 110.024 36.7452L109.975 36.5452C109.962 36.493 109.93 36.455 109.91 36.408C109.889 36.357 109.888 36.3047 109.86 36.2563L109.738 36.0342C109.73 36.021 109.72 36.0158 109.712 36.0041C109.706 35.9936 109.706 35.9805 109.698 35.9714L109.587 35.7975C109.55 35.7401 109.495 35.706 109.452 35.659C109.409 35.6119 109.381 35.5557 109.33 35.5126L109.151 35.374L109.013 35.2551C108.987 35.2328 108.953 35.2289 108.924 35.2093C108.896 35.1884 108.88 35.1597 108.851 35.1414L86.1803 22.0636C86.1699 22.057 86.1568 22.057 86.1463 22.0505C86.1359 22.0466 86.1306 22.0348 86.1189 22.0295L85.9228 21.9302C85.8928 21.9145 85.8614 21.9172 85.8313 21.9054C85.8026 21.8923 85.7804 21.8701 85.749 21.8596L85.5882 21.8099C85.5568 21.7982 85.5255 21.806 85.4954 21.7982C85.4875 21.7969 85.4811 21.793 85.4732 21.7903L83.8066 9.92821L110.865 25.5392L110.92 25.585V25.5862L110.986 25.6425L110.989 25.6451L110.99 25.6529V25.6543L111.02 25.8202V52.032L110.99 52.1981V52.1994L110.989 52.2085L110.985 52.2124L110.92 52.2687V52.2699L110.864 52.3144L107.763 54.1025ZM84.4262 67.5712V57.8814L85.5124 57.2527C85.5215 57.2474 85.5281 57.2371 85.5372 57.2318C85.5503 57.2239 85.5647 57.2214 85.5777 57.2122L85.7255 57.1141C85.7516 57.0945 85.7659 57.0684 85.7908 57.0475C85.8183 57.0253 85.8522 57.0161 85.8784 56.9926L86.064 56.8175C86.0953 56.79 86.1085 56.7494 86.1346 56.7194C86.1555 56.6959 86.1843 56.6893 86.2026 56.6632L86.3149 56.5142C86.3189 56.509 86.3189 56.5038 86.3215 56.4998L86.4679 56.4776C86.4705 56.4763 86.4732 56.4763 86.4771 56.4763L86.6379 56.4528C86.6732 56.4475 86.6992 56.4266 86.7333 56.4175C86.7751 56.4096 86.8169 56.4122 86.86 56.3965L86.9973 56.3469C87.0012 56.3455 87.0026 56.343 87.0051 56.3416C87.009 56.3403 87.0129 56.3403 87.0169 56.3391L87.2143 56.2646C87.2339 56.258 87.2457 56.2423 87.2626 56.2345C87.3045 56.2161 87.3463 56.207 87.3868 56.1848L105.412 45.7657V55.3012L105.397 55.4031L105.393 55.4215L105.374 55.4554L105.35 55.4816L105.307 55.509L84.4262 67.5712ZM61.0874 81.045V71.3553L62.1749 70.7266C62.1828 70.7213 62.1881 70.7122 62.1972 70.707C62.2089 70.6978 62.222 70.6965 62.2351 70.6874L62.3841 70.5893C62.4116 70.571 62.4259 70.5423 62.4521 70.5227C62.4782 70.5004 62.5122 70.4926 62.5371 70.4691L62.7226 70.2952C62.7527 70.2678 62.7645 70.2311 62.792 70.2011C62.8116 70.1776 62.839 70.171 62.8586 70.1449L62.971 69.9972C62.9775 69.9906 62.9775 69.9802 62.9815 69.975L63.1266 69.9541L63.1292 69.9527C63.1357 69.9514 63.1422 69.9527 63.1488 69.9514L63.3109 69.9266C63.3488 69.9213 63.3775 69.8992 63.4128 69.8887C63.4547 69.8782 63.4978 69.8809 63.5383 69.8664L63.6743 69.8155C63.6768 69.8142 63.6795 69.8115 63.6834 69.8103C63.686 69.809 63.6912 69.809 63.6951 69.8076L63.8807 69.7345C63.8978 69.7266 63.9082 69.7122 63.9239 69.707C63.9605 69.69 63.9997 69.6809 64.0376 69.66L82.0759 59.2395V68.7711C82.0759 68.7738 82.0747 68.7777 82.0747 68.7777L82.059 68.8848L82.0538 68.9032L82.042 68.9267L82.0053 68.9606L81.9766 68.9816L61.0874 81.045ZM37.7487 94.5202V82.8685L38.2023 83.1338C38.2349 83.1535 38.2716 83.1599 38.3055 83.177C38.3226 83.1834 38.3317 83.1979 38.3486 83.2044L38.5343 83.2789C38.5434 83.2829 38.5525 83.2815 38.5604 83.2854C38.5682 83.288 38.5748 83.2959 38.5839 83.2998L38.7212 83.3469C38.7604 83.3613 38.8022 83.3599 38.8427 83.3691C38.8741 83.377 38.8976 83.3966 38.9316 83.4018L39.0924 83.4266C39.0963 83.4279 39.1003 83.4266 39.1055 83.4279L39.2794 83.4515C39.3343 83.4619 39.3904 83.4645 39.4441 83.4658H39.4466H39.448H39.4493H39.4519C39.5068 83.4645 39.5603 83.4619 39.6179 83.4515L39.7904 83.4279C39.7931 83.4266 39.7983 83.4266 39.8022 83.4266L39.963 83.4018C39.9956 83.3966 40.0205 83.377 40.0532 83.3691C40.0924 83.3599 40.1342 83.3613 40.1747 83.3469L40.3107 83.2998C40.3211 83.2959 40.3264 83.288 40.3355 83.2854C40.3446 83.2815 40.3538 83.2829 40.3617 83.2789L40.5485 83.2044C40.5642 83.1966 40.5734 83.1822 40.5904 83.177C40.623 83.1599 40.6597 83.1521 40.6911 83.1351L58.7294 72.7147V82.2489L58.715 82.3038C58.7123 82.3156 58.7163 82.326 58.7137 82.3378C58.7123 82.3469 58.7032 82.356 58.7006 82.3665L58.6954 82.394L58.651 82.4398L58.6248 82.4567L37.7487 94.5202ZM30.0039 30.1978L30.0588 30.1703C30.0772 30.1664 30.0955 30.1678 30.1125 30.1639C30.1308 30.1678 30.149 30.1664 30.1674 30.1703L30.2249 30.1991L33.9149 32.3441L34.013 32.403L34.0182 32.4082L34.026 32.4212V32.4226L34.1096 32.5545L34.1449 32.6748L34.1711 32.7846L36.4847 49.3002L20.9612 58.2513L8.49128 51.0491V42.8064L8.51741 42.6521L8.53049 42.6273L8.61938 42.5436L8.65989 42.5109L30.0039 30.1978ZM53.3454 16.7226L53.3963 16.6978C53.4146 16.6925 53.4342 16.6939 53.4525 16.69C53.4708 16.6939 53.4904 16.6925 53.5074 16.6978L53.5571 16.7226L57.2118 18.8127L57.285 18.8728L57.2876 18.8742L57.3778 18.9473L57.3844 18.9566L57.455 19.0767L57.4798 19.1552L57.5111 19.2938L59.8326 35.7962L38.8506 47.9199C38.8114 47.942 38.7892 47.9787 38.7539 48.0048C38.7316 48.0218 38.7068 48.0283 38.6872 48.044L36.4965 32.3977C36.4938 32.3755 36.4795 32.3598 36.4756 32.3402C36.4729 32.318 36.4781 32.2984 36.4742 32.2775L36.4246 32.0761C36.4232 32.0696 36.4168 32.0631 36.4141 32.0552C36.4115 32.0447 36.4141 32.0369 36.4115 32.0278L36.3239 31.7324C36.3082 31.6788 36.2717 31.6369 36.2481 31.5873C36.2246 31.535 36.2193 31.4801 36.188 31.4305L36.0141 31.1572H36.0129L35.9004 30.9834C35.8664 30.9285 35.8141 30.8972 35.7723 30.8501C35.7305 30.803 35.7043 30.7468 35.6534 30.7063L35.4429 30.5337C35.422 30.5154 35.3958 30.5129 35.375 30.4972C35.3527 30.4828 35.3409 30.4592 35.3174 30.4435L35.1566 30.3442C35.1514 30.3403 35.1449 30.3403 35.1384 30.3364C35.1357 30.3337 35.1331 30.3298 35.1279 30.3286L32.4548 28.7743L53.3454 16.7226ZM63.4194 67.2967V64.2471C63.4194 64.2105 63.4023 64.1804 63.3984 64.1451C63.3945 64.1086 63.4076 64.0733 63.401 64.0367L63.3513 63.7648C63.3501 63.7596 63.3461 63.7544 63.3449 63.7478C63.3435 63.7412 63.3461 63.736 63.3449 63.7309L63.3082 63.5569C63.2964 63.5073 63.2664 63.4681 63.2481 63.4197C63.2311 63.3726 63.2312 63.323 63.2089 63.276L63.0861 63.0276C63.0756 63.0067 63.0572 62.9976 63.0468 62.9766C63.0351 62.9557 63.0351 62.9361 63.0219 62.9152L62.9096 62.7413C62.8729 62.6839 62.8168 62.6511 62.7736 62.6015C62.7318 62.5557 62.703 62.4995 62.6521 62.4603L62.4769 62.3192L62.3357 62.2015C62.3096 62.178 62.2743 62.1741 62.2455 62.1518C62.2181 62.1335 62.2024 62.1048 62.1724 62.0864L40.5799 49.6387L61.4259 37.5961L61.5357 37.5543C61.5397 37.553 61.541 37.5504 61.545 37.5504L61.5619 37.5464L61.6207 37.5557L61.673 37.5817L84.2497 50.5994L84.319 50.6583C84.3229 50.6609 84.3268 50.6622 84.3295 50.6648C84.3334 50.6661 84.3346 50.6713 84.3386 50.6752L84.3713 50.7001L84.3922 50.7367L84.4079 50.8543V55.0293L84.404 55.0659L84.3935 55.126L84.3883 55.1509L84.3726 55.1809L84.3386 55.2122L84.3098 55.2319L82.6641 56.1835L63.4194 67.2967ZM39.5865 81.0581L39.5042 81.0908L39.499 81.0921L39.4505 81.0999L39.4022 81.0921L39.397 81.0908L39.3172 81.0581L37.75 80.1497V69.3868C37.75 69.3502 37.7317 69.3174 37.7278 69.2822C37.7251 69.2469 37.7356 69.2129 37.7304 69.1777L37.6807 68.9044C37.6807 68.9044 37.6794 68.9018 37.6794 68.8992V68.8953L37.6415 68.6979C37.6297 68.6365 37.5944 68.5894 37.5748 68.5332C37.554 68.4718 37.55 68.4077 37.5173 68.3489L37.3814 68.1005C37.367 68.0744 37.3408 68.0601 37.3251 68.0339C37.3108 68.0116 37.3069 67.9842 37.2899 67.962L37.1788 67.8116C37.1618 67.7881 37.1356 67.7803 37.1187 67.7567C37.0991 67.7359 37.0925 67.7084 37.0716 67.6875L36.8991 67.5136C36.869 67.4836 36.8298 67.4718 36.7984 67.4457C36.7683 67.4195 36.7487 67.3842 36.7148 67.3633L36.567 67.2626C36.5566 67.2562 36.5435 67.2562 36.533 67.2496C36.5213 67.243 36.5148 67.2313 36.5043 67.2248L23.3194 59.6095L38.1591 51.053L38.2206 51.0217L38.2741 51.0295L38.3474 51.0648L60.911 64.0759L60.9855 64.1387C60.9894 64.1412 60.9933 64.1412 60.9972 64.1451C60.9999 64.1478 61.0012 64.1504 61.0051 64.153L61.0299 64.1726L61.0391 64.1961L61.0691 64.3608V68.4993L61.0534 68.5593C61.0509 68.5711 61.0548 68.5829 61.0521 68.5959C61.0495 68.6103 61.0404 68.6169 61.0377 68.6287L61.0325 68.6587L61.0064 68.6836L60.9646 68.7123L59.3255 69.6586L59.3228 69.66L39.5865 81.0581ZM107.589 37.1295L107.66 37.1896C107.664 37.191 107.669 37.191 107.673 37.1949C107.675 37.1974 107.676 37.2014 107.68 37.204L107.71 37.2288L107.731 37.2641L107.734 37.2733L107.757 37.4092V41.5097L107.734 41.6417L107.722 41.6796L107.708 41.707L107.683 41.7305L107.633 41.7646L106.001 42.707C106.001 42.707 106.001 42.7083 105.999 42.7083L86.758 53.8307V50.7733C86.758 50.7472 86.7437 50.7236 86.7411 50.6975C86.7411 50.67 86.7516 50.6452 86.7477 50.619L86.7124 50.3458C86.7085 50.3197 86.6928 50.3041 86.6875 50.2779C86.6835 50.2556 86.6901 50.2321 86.6849 50.2086L86.6339 50.0112C86.6208 49.9603 86.5882 49.925 86.5698 49.8779C86.549 49.8296 86.5477 49.7799 86.5228 49.7341L86.3999 49.5093C86.3921 49.4988 86.3816 49.4923 86.3751 49.4806C86.3686 49.4701 86.3673 49.4557 86.3607 49.4453L86.2496 49.2727C86.2144 49.2191 86.1607 49.1851 86.1189 49.138C86.0757 49.0897 86.0483 49.0322 85.996 48.9904L85.8105 48.8414L85.8078 48.84L85.6811 48.7329C85.6536 48.7093 85.6183 48.7028 85.5909 48.6832C85.562 48.6623 85.5438 48.6322 85.5137 48.6152L63.9226 36.1648L84.7595 24.121L84.8615 24.0843C84.868 24.0818 84.8719 24.0752 84.8784 24.074L84.9007 24.07L84.9634 24.0791L85.0366 24.1171L107.589 37.1295ZM76.7129 3.23703L76.7429 3.22005C76.7585 3.21743 76.7756 3.21742 76.7926 3.2135H76.7978H76.8043C76.8213 3.21742 76.8357 3.21743 76.8527 3.22005L76.8697 3.2305L76.871 3.2318L80.5571 5.3415L80.6211 5.39509L80.6237 5.3964C80.6264 5.39901 80.6264 5.40163 80.6289 5.40423L80.7218 5.48004L80.7466 5.51274L80.7924 5.58332L80.825 5.70097L80.8538 5.81599L81.1793 8.13222L83.1714 22.3224L62.2011 34.4446C62.171 34.4617 62.154 34.4891 62.1266 34.51C62.0979 34.5296 62.0651 34.5335 62.0391 34.5583L62.0364 34.561L59.8352 18.9213C59.8326 18.9056 59.8235 18.8951 59.8208 18.8807C59.8169 18.865 59.8235 18.8519 59.8196 18.8375L59.7711 18.614C59.7672 18.5931 59.7529 18.5801 59.7476 18.5605C59.7424 18.5409 59.7476 18.5238 59.7411 18.5069L59.6535 18.2336C59.6404 18.1905 59.6091 18.1605 59.5907 18.1213C59.5725 18.0782 59.5699 18.0324 59.5463 17.9919L59.3856 17.7199C59.3764 17.703 59.3607 17.6951 59.3503 17.6821C59.3411 17.6664 59.3398 17.6494 59.3294 17.635L59.2064 17.4611C59.1738 17.4167 59.128 17.3919 59.0902 17.354C59.0562 17.3174 59.0365 17.2716 58.9973 17.239L58.7908 17.0677L58.7882 17.0651L58.6378 16.941C58.6118 16.9187 58.5765 16.9121 58.5464 16.8913C58.5189 16.8729 58.5006 16.8429 58.4719 16.8246L55.8014 15.2979L76.7129 3.23703ZM31.6156 98.056L31.5634 98.0821C31.5503 98.0834 31.5372 98.0821 31.5229 98.0847H31.5097H31.5085C31.4941 98.0821 31.481 98.0834 31.4666 98.0821L31.417 98.056L3.05232 81.6933L2.98174 81.6345C2.97912 81.6332 2.9752 81.6332 2.97389 81.6306C2.96997 81.6267 2.96866 81.6227 2.96474 81.6202L2.93076 81.5914L2.91247 81.5587L2.89547 81.4411V55.1705L2.91247 55.0528L2.93076 55.0188L2.96474 54.9927C2.96866 54.9901 2.96997 54.9862 2.97389 54.9835C2.9752 54.9809 2.97912 54.9796 2.98174 54.977L3.05101 54.9208L6.62078 52.8569L6.70967 52.8241L6.74496 52.8111L6.77109 52.8072L6.81554 52.8137L6.85083 52.8255C6.85344 52.8268 6.85606 52.8255 6.85998 52.8268C6.85998 52.8268 6.86259 52.8294 6.86521 52.8307L6.88089 52.8373L6.89267 52.8412L20.3769 60.6277L35.2992 69.2456L35.3135 69.2574L35.3501 69.2926L35.3553 69.3005L35.3671 69.3201V69.324L35.3972 69.4914V80.8267V95.673L35.3946 95.6848C35.3933 95.6914 35.3958 95.6966 35.3946 95.7044C35.3933 95.711 35.3894 95.7162 35.388 95.724L35.3658 95.8587L35.3553 95.877L35.3501 95.8848L35.3135 95.9201L35.3031 95.9293L31.6156 98.056ZM113.353 25.4974L113.302 25.2242V25.2229L113.265 25.0255C113.253 24.9602 113.217 24.9118 113.194 24.8529C113.173 24.7941 113.17 24.7288 113.137 24.6713L113.014 24.4478C113.001 24.4269 112.982 24.4164 112.97 24.3955C112.957 24.3759 112.955 24.3524 112.941 24.3328L112.818 24.1602C112.79 24.121 112.746 24.0975 112.714 24.0622C112.683 24.0282 112.665 23.985 112.629 23.9537L112.456 23.8034C112.453 23.8007 112.449 23.8007 112.447 23.7981C112.445 23.7968 112.445 23.7942 112.443 23.7929L112.295 23.67C112.269 23.6451 112.236 23.64 112.206 23.6216C112.178 23.5995 112.159 23.5706 112.13 23.551L83.651 7.12311C83.6406 7.11789 83.6288 7.11788 83.617 7.11135C83.6066 7.10481 83.6013 7.09436 83.591 7.08912L83.3949 6.9911L83.1739 5.42255C83.17 5.39772 83.1557 5.38202 83.1518 5.3598C83.1465 5.33496 83.1543 5.31666 83.1478 5.29183L83.0969 5.09445C83.0955 5.08792 83.0903 5.08269 83.0876 5.07616C83.0876 5.06962 83.089 5.06308 83.0876 5.05656L83.0001 4.75722C82.9831 4.6997 82.9439 4.65788 82.9204 4.60298C82.8955 4.552 82.8903 4.49579 82.8577 4.44743L82.6969 4.19776C82.6916 4.18992 82.6837 4.186 82.6773 4.17946C82.672 4.17162 82.672 4.16116 82.6655 4.15331L82.5426 3.98078C82.5112 3.93895 82.4668 3.91411 82.4302 3.87751C82.3949 3.8383 82.374 3.78995 82.3308 3.75466L82.1204 3.58211L82.1151 3.57949L81.9793 3.46578C81.9531 3.44225 81.9191 3.43702 81.8904 3.41741C81.8616 3.39518 81.842 3.36513 81.8106 3.34552L78.0383 1.18614C78.0317 1.18222 78.0251 1.18223 78.0173 1.17831C78.0134 1.177 78.0095 1.17046 78.0043 1.16784L77.8187 1.06981C77.7651 1.04106 77.705 1.03844 77.6487 1.01883C77.5912 0.99792 77.5428 0.962624 77.4801 0.95086L77.4004 0.935184L77.3036 0.907729C77.2514 0.894658 77.1965 0.905112 77.1403 0.895962C77.0827 0.886811 77.0305 0.863281 76.969 0.863281H76.7978H76.6239C76.5625 0.863281 76.5102 0.886811 76.4514 0.895962C76.3952 0.905112 76.3403 0.894656 76.284 0.911649L76.1835 0.94041L76.1102 0.95479C76.0501 0.967861 76.0031 1.00053 75.9455 1.02275C75.888 1.04236 75.8266 1.04367 75.773 1.07373L75.5874 1.17307C75.5808 1.17699 75.5769 1.18222 75.5704 1.18614C75.5652 1.19007 75.5573 1.19007 75.5508 1.19138L54.0747 13.5738C54.0446 13.5921 54.0277 13.6196 54.0002 13.6404C53.9714 13.6613 53.9375 13.664 53.91 13.6888L53.7597 13.8117L53.5937 13.945C53.5414 13.9868 53.5126 14.0443 53.4695 14.0927C53.4251 14.1424 53.3702 14.1777 53.3322 14.2365L53.2682 14.3372C53.2133 14.3384 53.1636 14.3633 53.1101 14.3698C53.0525 14.3777 52.995 14.3685 52.9362 14.3868L52.8381 14.4181L52.7832 14.4261C52.7283 14.4378 52.6852 14.4705 52.6329 14.4862C52.5741 14.5058 52.5126 14.5071 52.4577 14.5345L52.2604 14.6365C52.2499 14.6417 52.2435 14.6509 52.2342 14.6561C52.2251 14.6626 52.2134 14.6613 52.2042 14.6666L30.736 27.0489C30.7072 27.066 30.6889 27.0947 30.6627 27.1156C30.634 27.1352 30.6 27.1391 30.5713 27.164L30.4288 27.2816L30.2524 27.4241C30.1987 27.4672 30.1713 27.5248 30.1269 27.5731C30.0863 27.6175 30.034 27.6502 30 27.7038L29.9282 27.8136C29.8745 27.8149 29.8262 27.8371 29.7739 27.8437C29.7164 27.8542 29.6589 27.8437 29.6027 27.862L29.5086 27.8895L29.4341 27.9038C29.3792 27.9155 29.336 27.9469 29.2838 27.9652C29.2301 27.9836 29.1765 27.9836 29.1243 28.0071L28.9269 28.1064C28.9138 28.1116 28.9086 28.1247 28.8968 28.1299C28.8863 28.1365 28.8733 28.1365 28.8628 28.143L7.39721 40.5228C7.36715 40.5411 7.34884 40.5698 7.32139 40.5921C7.29264 40.6117 7.25865 40.6169 7.2312 40.6404L7.0835 40.7633C7.07434 40.7712 7.07174 40.783 7.06259 40.7894C7.05343 40.7973 7.04037 40.7999 7.03252 40.8078L6.8456 40.9829C6.81945 41.0065 6.809 41.0418 6.78548 41.0666C6.76064 41.0927 6.73058 41.107 6.70967 41.1359L6.59724 41.2849C6.58155 41.307 6.57764 41.3332 6.56327 41.358C6.54627 41.3829 6.52144 41.3972 6.50706 41.4247L6.37111 41.6731C6.34106 41.7254 6.33844 41.7842 6.31883 41.8391C6.29792 41.8913 6.26524 41.9332 6.25217 41.9907L6.21426 42.1606C6.21164 42.1724 6.21556 42.1815 6.21426 42.1907C6.21295 42.2025 6.20642 42.2077 6.20381 42.2168L6.15413 42.5175C6.14759 42.5488 6.16066 42.5815 6.15805 42.6142C6.15544 42.6456 6.13845 42.6756 6.13845 42.7083V50.5445C6.111 50.5537 6.08355 50.5472 6.05479 50.5576L5.91755 50.606C5.91363 50.6086 5.90969 50.6125 5.90447 50.6151C5.90055 50.6164 5.89532 50.6151 5.8901 50.6178L5.69141 50.6936C5.66135 50.704 5.64304 50.7276 5.61298 50.7419C5.58422 50.7563 5.55024 50.755 5.52279 50.772L1.78833 52.9314C1.75696 52.9483 1.73866 52.9784 1.71121 52.9993C1.68376 53.0202 1.65109 53.0241 1.62364 53.0464L1.49422 53.1549H1.49292L1.30731 53.3065C1.25633 53.3483 1.22757 53.4059 1.18313 53.4542C1.1413 53.5013 1.08902 53.5314 1.05372 53.5875L0.941316 53.7613C0.933473 53.7731 0.933464 53.7862 0.926935 53.798C0.920396 53.8071 0.909945 53.8137 0.90471 53.8241L0.78054 54.0463C0.754394 54.0934 0.751776 54.1456 0.733473 54.1941C0.713867 54.2424 0.679888 54.2816 0.665516 54.3339L0.617145 54.5313C0.611917 54.5535 0.618453 54.5731 0.614532 54.5966C0.609303 54.6189 0.596234 54.6345 0.593619 54.6568L0.555713 54.9299C0.551792 54.9561 0.562247 54.9835 0.559633 55.0097C0.558326 55.0372 0.543945 55.0607 0.543945 55.0894V81.5169C0.543945 81.5443 0.558326 81.5692 0.559633 81.5953C0.562247 81.6227 0.551792 81.6489 0.555713 81.6764L0.593619 81.9496C0.596234 81.9717 0.609303 81.9913 0.614532 82.0136C0.618453 82.0345 0.611917 82.0541 0.617145 82.0737L0.665516 82.2724C0.682505 82.3391 0.717798 82.3913 0.743934 82.4489C0.759619 82.4842 0.759619 82.5207 0.777922 82.5574L0.902103 82.7795C0.909945 82.7952 0.923013 82.8057 0.930856 82.8214C0.934777 82.8293 0.934777 82.8384 0.941316 82.8476L1.05372 83.0201C1.11908 83.1207 1.20013 83.2057 1.2877 83.2802C1.29424 83.2868 1.29816 83.2959 1.30469 83.3011L1.4903 83.4515H1.49161L1.62102 83.5599C1.65108 83.5861 1.689 83.5939 1.71905 83.6162C1.7439 83.6344 1.75958 83.6606 1.78703 83.6763L30.2615 100.104C30.2759 100.111 30.2889 100.113 30.3007 100.121C30.3085 100.124 30.3137 100.133 30.3203 100.137L30.5176 100.237C30.6157 100.288 30.7203 100.316 30.8249 100.337C30.8313 100.339 30.8366 100.343 30.8431 100.344L30.9085 100.356L31.0026 100.384C31.1163 100.421 31.23 100.437 31.345 100.437H31.3464H31.5072H31.6797H31.681C31.7947 100.437 31.9097 100.421 32.0234 100.384L32.1176 100.356L32.1829 100.344C32.1895 100.343 32.1947 100.339 32.2013 100.337C32.3045 100.316 32.4077 100.288 32.5058 100.238L32.7045 100.139C32.7123 100.135 32.7163 100.125 32.7241 100.123C32.7385 100.113 32.7515 100.112 32.766 100.104L36.5004 97.9462C36.5109 97.9396 36.5161 97.9305 36.5252 97.9226C36.5369 97.9174 36.5514 97.9148 36.5631 97.9057L36.7121 97.8076C36.7448 97.7827 36.7644 97.7488 36.7958 97.7226C36.8259 97.6991 36.8651 97.6874 36.8952 97.656L37.0677 97.4822C37.0912 97.4586 37.0991 97.4285 37.12 97.4037C37.1344 97.3841 37.1579 97.3776 37.1736 97.3592L37.2859 97.2102C37.2886 97.205 37.2886 97.1998 37.2925 97.1959L37.4572 97.1697L37.4598 97.1685C37.4638 97.1671 37.4702 97.1685 37.4768 97.1671L37.6245 97.1437C37.6572 97.1371 37.682 97.1175 37.7134 97.1096C37.7552 97.1004 37.7944 97.1031 37.8363 97.0888L37.9722 97.039C37.9722 97.039 37.9748 97.0364 37.9775 97.0351C37.98 97.0339 37.9827 97.0351 37.9853 97.0339L38.1853 96.9593C38.2035 96.9528 38.2153 96.9371 38.2336 96.9293C38.2741 96.9109 38.3186 96.9004 38.3578 96.8783L59.8352 84.4697C59.8444 84.4645 59.8509 84.454 59.86 84.4475C59.8745 84.4397 59.8888 84.437 59.9019 84.4265L60.0522 84.3272C60.0848 84.305 60.1019 84.271 60.1333 84.2475C60.1607 84.2213 60.1986 84.2122 60.226 84.1848L60.3985 84.0122C60.4142 83.9965 60.4182 83.9769 60.4313 83.9625C60.4443 83.9468 60.4613 83.9429 60.4744 83.9299L60.5973 83.7809C60.6129 83.7625 60.6169 83.7403 60.6274 83.7207H60.6286L60.7921 83.6959H60.7933C60.7972 83.6946 60.8012 83.6946 60.8051 83.6946L60.9671 83.6697C61.0012 83.6632 61.0286 83.6449 61.0613 83.6358C61.1031 83.6253 61.145 83.6279 61.1881 83.6122L61.3227 83.5625C61.3306 83.5599 61.3332 83.5547 61.341 83.5521C61.3462 83.5495 61.3528 83.5508 61.3593 83.5481L61.545 83.475C61.5606 83.4672 61.5698 83.4527 61.5867 83.4475C61.622 83.4305 61.66 83.4227 61.6952 83.403L83.1726 70.9958C83.1831 70.9893 83.1883 70.9801 83.1974 70.9723C83.2106 70.9658 83.2249 70.9619 83.238 70.954L83.3857 70.8546C83.4118 70.8364 83.4249 70.809 83.4511 70.7893C83.4785 70.7671 83.5125 70.758 83.5386 70.7344L83.7243 70.5605C83.7543 70.5318 83.766 70.4952 83.7935 70.4664C83.8118 70.4429 83.838 70.4364 83.8562 70.4129L83.9687 70.2639C83.9753 70.2573 83.9753 70.2482 83.9804 70.2416L84.1243 70.2207C84.1295 70.2194 84.1334 70.2194 84.1386 70.2194L84.2994 70.1958C84.3373 70.1894 84.3674 70.1671 84.4027 70.1566C84.4458 70.1462 84.4902 70.1502 84.5334 70.1345L84.6693 70.0835C84.6732 70.0821 84.6758 70.0796 84.6797 70.0769C84.685 70.0757 84.6889 70.0769 84.6941 70.0743L84.8797 70.0011C84.8968 69.9933 84.9072 69.9789 84.9229 69.9737C84.9595 69.9566 85 69.9475 85.0366 69.9266L106.514 57.5194C106.523 57.5128 106.53 57.5037 106.539 57.4971C106.553 57.4893 106.566 57.4867 106.581 57.4775L106.73 57.3769C106.755 57.3572 106.77 57.3312 106.797 57.3116C106.821 57.2893 106.853 57.2827 106.877 57.2592L107.063 57.0867C107.096 57.0579 107.108 57.0161 107.136 56.9834C107.157 56.9599 107.189 56.9521 107.208 56.9233L107.319 56.7743C107.32 56.7717 107.32 56.7704 107.322 56.7678H107.324L107.487 56.743L107.648 56.7181C107.677 56.7129 107.702 56.6933 107.734 56.6867C107.774 56.6776 107.816 56.6802 107.856 56.6658L107.993 56.6175C107.998 56.6148 108.002 56.6096 108.008 56.607C108.012 56.607 108.018 56.607 108.024 56.6057L108.221 56.5298C108.24 56.5234 108.251 56.5077 108.268 56.5011C108.308 56.4828 108.349 56.4724 108.389 56.4514L112.124 54.2934C112.151 54.2777 112.169 54.2502 112.194 54.2319C112.226 54.2098 112.261 54.2019 112.291 54.177L112.439 54.0529C112.441 54.0515 112.441 54.049 112.444 54.0463C112.447 54.0437 112.449 54.0437 112.452 54.0411L112.626 53.8921C112.671 53.8542 112.692 53.8019 112.731 53.7561C112.757 53.7274 112.794 53.7143 112.817 53.6829L112.939 53.5091C112.95 53.4947 112.951 53.479 112.961 53.4672C112.977 53.4412 112.996 53.4255 113.01 53.3993L113.134 53.1771C113.153 53.1431 113.153 53.1052 113.166 53.0712C113.204 52.9902 113.244 52.9104 113.263 52.8202L113.298 52.6216V52.6202L113.349 52.3471C113.355 52.3118 113.345 52.2765 113.346 52.2398C113.35 52.2033 113.369 52.1706 113.369 52.134V25.7104C113.369 25.6739 113.35 25.6425 113.346 25.6058C113.347 25.5693 113.359 25.534 113.353 25.4974Z" fill="#264f68"/>
</svg>
