<svg width="91" height="101" viewBox="0 0 91 101" fill="none" xmlns="http://www.w3.org/2000/svg">
<path d="M0.0429864 74.9613L0.109468 75.3589C0.110771 75.3746 0.1212 75.3863 0.123807 75.4032C0.127718 75.4176 0.123807 75.4293 0.126414 75.4436L0.192895 75.7044C0.207235 75.7578 0.235913 75.7995 0.25677 75.8491C0.269805 75.879 0.268502 75.9116 0.284144 75.9416L0.460125 76.2714C0.47316 76.2949 0.492713 76.3131 0.505749 76.3366C0.514874 76.3483 0.516177 76.3653 0.526606 76.3783L0.679122 76.5986C0.699979 76.626 0.731264 76.6377 0.754728 76.6638C0.788621 76.7042 0.809478 76.7511 0.848584 76.7863L1.10147 77.0079C1.10408 77.0105 1.10539 77.0105 1.10799 77.0118C1.1093 77.0131 1.1106 77.0157 1.1119 77.017L1.31917 77.1943C1.34654 77.2165 1.38174 77.2243 1.40911 77.2465C1.43258 77.2634 1.44561 77.2882 1.47299 77.3025L41.1454 100.199C41.1754 100.219 41.2067 100.226 41.238 100.239C41.2536 100.244 41.2627 100.261 41.2797 100.266L41.5547 100.375C41.5821 100.387 41.6108 100.383 41.6369 100.392C41.6629 100.4 41.6799 100.416 41.706 100.422L41.852 100.456L42.0488 100.515C42.0983 100.531 42.1479 100.531 42.1961 100.538C42.2183 100.541 42.2339 100.555 42.2587 100.558L42.5011 100.579C42.5311 100.583 42.5611 100.583 42.5898 100.583H42.5924C42.6237 100.583 42.6563 100.583 42.6875 100.579L42.9144 100.557C42.9378 100.554 42.9574 100.54 42.9795 100.536C43.0265 100.528 43.0734 100.529 43.1203 100.514L43.3067 100.456L43.4632 100.424C43.4944 100.417 43.5179 100.396 43.5479 100.387C43.5766 100.377 43.6091 100.381 43.6365 100.368L43.8998 100.258C43.9142 100.25 43.9246 100.239 43.9376 100.233C43.965 100.22 43.995 100.214 44.0211 100.197L49.2236 97.1844C49.2379 97.1739 49.247 97.1596 49.2601 97.1505C49.2809 97.1387 49.3005 97.1335 49.32 97.1218L49.5299 96.968C49.5403 96.9588 49.5455 96.9471 49.5547 96.9393C49.5677 96.9289 49.582 96.9263 49.5938 96.9171L49.8467 96.6968C49.8806 96.6682 49.8962 96.6264 49.9262 96.5939C49.9457 96.5704 49.977 96.5613 49.9953 96.5352L50.1595 96.3149C50.1713 96.2992 50.1739 96.281 50.183 96.2667C50.2052 96.238 50.2286 96.2119 50.2469 96.178L50.3055 96.0685C50.3303 96.0724 50.3564 96.0724 50.3785 96.0724H50.3811H50.3837C50.4137 96.0724 50.4437 96.0724 50.4737 96.0672L50.7161 96.0464C50.7266 96.0451 50.7331 96.0398 50.7422 96.0385C50.7709 96.0346 50.7996 96.0359 50.8282 96.0294L51.0485 95.9864C51.0694 95.9812 51.0837 95.9668 51.1059 95.9603C51.1333 95.9525 51.1633 95.9564 51.1906 95.946L51.3783 95.8808C51.3875 95.8782 51.3914 95.8717 51.3992 95.8691C51.407 95.8652 51.4122 95.8678 51.4214 95.8652L51.6964 95.7557C51.7134 95.7492 51.7238 95.7322 51.7368 95.7283C51.7668 95.714 51.8007 95.7061 51.8307 95.6905L81.7525 78.421C81.7669 78.4092 81.7734 78.3962 81.789 78.3884C81.8099 78.3753 81.8281 78.3701 81.849 78.3571L82.0576 78.2046C82.0758 78.1902 82.0836 78.1733 82.098 78.159C82.1188 78.1394 82.1423 78.1342 82.1605 78.1199L82.4134 77.8774C82.4434 77.8487 82.4551 77.8083 82.4812 77.7783C82.5021 77.7535 82.5294 77.747 82.5464 77.721L82.6989 77.5007C82.7093 77.4863 82.7106 77.4733 82.7198 77.4589C82.7341 77.4355 82.751 77.4198 82.7667 77.3938L82.8253 77.2817C82.8527 77.2856 82.8827 77.2869 82.9114 77.2869C82.9453 77.2869 82.9805 77.2843 83.0131 77.2817L83.2451 77.2582C83.2516 77.2582 83.2581 77.253 83.2646 77.2517C83.2894 77.2504 83.3116 77.2504 83.335 77.2465L83.5658 77.2035C83.5723 77.2021 83.5788 77.1969 83.5853 77.1956C83.5984 77.1943 83.6088 77.1943 83.6205 77.1917L83.8082 77.1474C83.8121 77.1461 83.8147 77.1422 83.8187 77.1422C83.893 77.1226 83.9633 77.0992 84.0324 77.064L84.2971 76.931C84.3036 76.9284 84.3088 76.9206 84.3153 76.9167C84.327 76.9101 84.3388 76.9088 84.3492 76.9023L89.5621 73.9107C89.5817 73.8976 89.5908 73.882 89.6091 73.8703C89.6325 73.852 89.6612 73.8468 89.6834 73.8311L89.8802 73.676C89.8945 73.6656 89.9011 73.65 89.9128 73.6395C89.9271 73.6252 89.9454 73.6213 89.9597 73.6096L90.2126 73.3671C90.2374 73.3423 90.2465 73.3097 90.27 73.285C90.2869 73.2667 90.3104 73.2602 90.326 73.2393L90.4903 73.019C90.502 73.0047 90.5033 72.9891 90.5137 72.9721C90.5346 72.9434 90.5593 72.9174 90.5763 72.8861L90.7536 72.5563C90.7731 72.5237 90.7718 72.4859 90.7836 72.4533C90.8083 72.3946 90.8409 72.3425 90.8553 72.276L90.91 72.014C90.9113 72.0049 90.9074 71.9984 90.91 71.9918C90.9113 71.984 90.9165 71.9775 90.9178 71.9697L90.983 71.5708C90.9882 71.5434 90.9765 71.5147 90.9791 71.4887C90.9817 71.4587 90.9986 71.4326 90.9986 71.4026V34.6241C90.9986 34.5941 90.9817 34.568 90.9791 34.5393C90.9765 34.5107 90.9882 34.4833 90.983 34.4546L90.9178 34.0583C90.9165 34.0505 90.9113 34.044 90.91 34.0362C90.9074 34.0284 90.9113 34.0218 90.91 34.0153L90.8553 33.752C90.8435 33.6999 90.8122 33.6594 90.7953 33.6138C90.777 33.5682 90.7757 33.5187 90.7523 33.4743L90.5763 33.1445C90.562 33.1172 90.5398 33.1054 90.5228 33.0807C90.5085 33.0559 90.5059 33.0311 90.4916 33.0077L90.326 32.7874C90.3065 32.7652 90.2817 32.7548 90.2608 32.73C90.24 32.7079 90.2335 32.6792 90.21 32.6596L89.9584 32.4185C89.9454 32.4041 89.9284 32.4002 89.9154 32.3911C89.9011 32.3794 89.8958 32.3637 89.8828 32.352L89.686 32.1982C89.6664 32.1825 89.6416 32.1799 89.6208 32.1669C89.5973 32.1525 89.5882 32.1304 89.5647 32.1173L49.878 9.21385C49.8675 9.20733 49.8558 9.20864 49.8467 9.20342C49.8375 9.19821 49.831 9.18778 49.8206 9.18257L49.556 9.05091C49.5169 9.03135 49.4765 9.03266 49.4374 9.01962C49.4009 9.00528 49.3696 8.98051 49.3292 8.97139L49.2914 8.96096L48.9381 6.43206C48.9342 6.4112 48.9224 6.39947 48.9159 6.37862C48.9133 6.35906 48.9185 6.34212 48.9133 6.32256L48.8507 6.05924C48.8481 6.05403 48.8429 6.04882 48.8416 6.0423C48.8403 6.03578 48.8416 6.02926 48.8403 6.02144L48.7191 5.6043C48.7048 5.55738 48.6735 5.52218 48.6539 5.48047C48.6331 5.43614 48.6304 5.39052 48.6057 5.3475L48.3723 4.97208C48.3645 4.95774 48.3489 4.95122 48.3411 4.93688C48.3332 4.92254 48.3306 4.90951 48.3189 4.89517L48.1546 4.67617C48.1325 4.64619 48.0986 4.63055 48.0725 4.59926C48.0438 4.57189 48.0321 4.53669 47.9995 4.50932L47.6906 4.246C47.6802 4.23687 47.6658 4.23427 47.6567 4.22514C47.6476 4.21602 47.6411 4.20559 47.6319 4.19777L47.4234 4.04525C47.4064 4.03221 47.3882 4.03091 47.3712 4.02048C47.353 4.00745 47.3451 3.99311 47.3269 3.98268L42.0814 0.946696C42.0579 0.932357 42.0345 0.932357 42.0097 0.923232C41.9862 0.908893 41.9719 0.891946 41.9458 0.880214L41.6695 0.770716C41.6434 0.760287 41.6173 0.764198 41.5912 0.756376C41.5639 0.745948 41.5469 0.729002 41.5196 0.725091L41.3722 0.688591L41.1754 0.629931C41.1272 0.615592 41.0776 0.624717 41.0281 0.616896C40.976 0.610378 40.929 0.586914 40.8756 0.586914H40.6331H40.4024C40.3516 0.586914 40.3059 0.610378 40.2564 0.615592C40.2095 0.62211 40.1625 0.614289 40.1143 0.626021L39.9149 0.684681L39.7467 0.725091C39.718 0.731609 39.6959 0.752466 39.6672 0.760287C39.6385 0.768108 39.6098 0.765501 39.5851 0.777233L39.3204 0.886732C39.2983 0.897161 39.2866 0.912803 39.267 0.923232C39.2435 0.93366 39.2214 0.93366 39.1992 0.945392L9.2839 18.2332C9.26304 18.2449 9.25522 18.2618 9.23827 18.2736C9.22263 18.284 9.20177 18.2866 9.18483 18.2996L8.97626 18.4522C8.96453 18.4613 8.95931 18.4756 8.94888 18.4834C8.93846 18.4913 8.92412 18.4952 8.91369 18.503L8.6608 18.7233C8.63212 18.7507 8.61648 18.7872 8.59171 18.8145C8.56694 18.8419 8.53305 18.8563 8.50959 18.8849L8.34664 19.1052C8.32839 19.1287 8.32578 19.1522 8.31275 19.1769C8.29711 19.2004 8.27364 19.2134 8.26061 19.2408L8.08332 19.5706C8.05986 19.6149 8.05856 19.6619 8.04161 19.7075C8.02336 19.7557 7.99207 19.7961 7.98295 19.8483L7.9269 20.1129C7.92559 20.1207 7.9282 20.1272 7.9269 20.1337C7.92559 20.1403 7.92038 20.1468 7.91908 20.1546L7.85259 20.5522C7.84738 20.5809 7.85911 20.6082 7.8565 20.6356C7.8539 20.6643 7.83825 20.6917 7.83825 20.7216V32.1278L7.7835 32.1317C7.74961 32.1356 7.71963 32.1551 7.68574 32.1617C7.65315 32.1682 7.61795 32.1604 7.58276 32.1708L7.39635 32.2268L7.2308 32.2633C7.19951 32.2712 7.17735 32.2907 7.14607 32.2998C7.11869 32.3103 7.08871 32.3064 7.06133 32.3194L6.79671 32.4289C6.77586 32.438 6.76282 32.455 6.74066 32.4641C6.7198 32.4771 6.69764 32.4771 6.67679 32.4889L1.47299 35.5001C1.45604 35.5131 1.44561 35.5301 1.42997 35.5418C1.41302 35.5522 1.39217 35.5548 1.37522 35.5666L1.16665 35.7204C1.15492 35.7295 1.14971 35.7438 1.13928 35.7517C1.12885 35.7608 1.11451 35.7634 1.10408 35.7712L0.847281 35.9915C0.815995 36.0215 0.800353 36.0619 0.769067 36.0932C0.740389 36.1258 0.702586 36.1466 0.677818 36.1818L0.523999 36.4021C0.512267 36.4204 0.50966 36.4412 0.499231 36.4621C0.488803 36.479 0.470553 36.4895 0.460125 36.509L0.284144 36.8388C0.261984 36.8792 0.261984 36.9249 0.245038 36.9666C0.228091 37.0109 0.200717 37.0474 0.187681 37.0943L0.1212 37.3798C0.118593 37.3902 0.122503 37.398 0.119896 37.4072C0.117289 37.4163 0.110771 37.4254 0.109468 37.4345L0.04429 37.8087C0.0390758 37.8386 0.0495042 37.8699 0.0455935 37.8986C0.04429 37.9299 0.0273438 37.9573 0.0273438 37.9886V74.7893C0.0273438 74.8179 0.0429864 74.844 0.0455935 74.8714C0.0495042 74.9053 0.0390758 74.93 0.0429864 74.9613ZM40.1912 2.7821L40.3059 2.73387L40.4102 2.7091C40.418 2.7078 40.4233 2.70128 40.4311 2.69868C40.4415 2.69607 40.4519 2.69737 40.4611 2.69477L40.5484 2.67H40.6331H40.7205L40.7935 2.69085C40.8078 2.69607 40.8195 2.69346 40.8339 2.69737C40.8417 2.69998 40.8482 2.7078 40.856 2.7091L40.9655 2.73518L41.1024 2.78992L46.2332 5.75682L46.3597 5.84937L46.5565 6.01883L46.6204 6.10226L46.7546 6.32256L46.8328 6.5911L46.8785 6.7749L47.3347 10.0221L50.1699 30.2259L27.8883 43.0776L9.92525 32.7013V20.8077L9.97087 20.5222L9.99303 20.4218L10.0621 20.2889L10.1091 20.2276L10.2485 20.1051L10.3789 20.0099L40.1912 2.7821ZM88.4541 33.8863L88.5558 33.9645L88.7083 34.1105L88.7722 34.1926L88.84 34.3243L88.8634 34.4285L88.9103 34.7101V71.3192L88.8621 71.6047L88.84 71.7064L88.7709 71.8354L88.7083 71.9175L88.5493 72.07L88.4541 72.1457L83.3324 75.0826L83.2021 75.1477L83.1943 75.149V60.3068L85.0036 59.2652C85.0245 59.2535 85.0323 59.2352 85.0518 59.2235C85.0766 59.2065 85.1027 59.2013 85.1261 59.1831L85.323 59.028C85.3308 59.0227 85.3334 59.0149 85.3412 59.0097C85.349 59.0032 85.3582 59.0006 85.3647 58.9928L85.6189 58.7738C85.6528 58.7438 85.6684 58.7008 85.6997 58.6695C85.7218 58.6447 85.7505 58.6356 85.7688 58.6108L85.9343 58.3905C85.9474 58.3723 85.9487 58.3553 85.9578 58.3371C85.9826 58.3019 86.0125 58.2693 86.0347 58.2302L86.2094 57.8769C86.225 57.8495 86.2224 57.8183 86.2315 57.7909C86.2511 57.7492 86.2772 57.7114 86.2863 57.6657L86.3541 57.405C86.3593 57.3868 86.3528 57.3737 86.3567 57.3555C86.3606 57.3346 86.3723 57.3216 86.3762 57.3021L86.431 56.9279C86.4349 56.9006 86.4245 56.8784 86.4271 56.8497C86.4284 56.825 86.4414 56.8015 86.4414 56.7754V50.7699C86.4414 50.7465 86.4284 50.7256 86.4271 50.7008C86.4258 50.6761 86.4349 50.6526 86.4323 50.6291L86.3762 50.2316C86.3736 50.2107 86.3606 50.1977 86.3567 50.1755C86.3528 50.156 86.3593 50.139 86.3541 50.1168L86.2863 49.8561C86.2772 49.8131 86.2485 49.7805 86.2315 49.7401C86.2172 49.7023 86.2172 49.6593 86.1976 49.6189L86.0217 49.2904C86.0073 49.2656 85.9839 49.25 85.9695 49.2265C85.9539 49.2031 85.95 49.177 85.9356 49.1548L85.7701 48.9345C85.7531 48.9111 85.7284 48.9019 85.7088 48.8798C85.6866 48.8563 85.6814 48.8276 85.658 48.8042L85.4051 48.563C85.3907 48.55 85.3738 48.5461 85.3595 48.5343C85.3451 48.5226 85.3386 48.507 85.3269 48.4965L85.1287 48.3427C85.1079 48.3258 85.0844 48.3205 85.0636 48.3101C85.0427 48.2958 85.0323 48.2762 85.0088 48.2606L53.4093 30.0264C53.3963 30.0173 53.3819 30.0186 53.3689 30.0121C53.3584 30.0056 53.3506 29.9938 53.3402 29.9886L53.0652 29.8544C53.0391 29.8413 53.0104 29.8452 52.983 29.8335C52.957 29.8218 52.9361 29.8022 52.9087 29.7931L52.6884 29.7305C52.6715 29.724 52.6558 29.7305 52.6376 29.724C52.6206 29.7214 52.6089 29.7084 52.592 29.7058L52.3599 29.6601C52.343 29.6575 52.3286 29.664 52.3091 29.6601C52.2908 29.6588 52.2778 29.6471 52.2582 29.6445L52.1931 29.6367L49.6446 11.4886L88.4541 33.8863ZM51.5348 31.8475L51.7316 31.7471L51.7642 31.7328L51.8346 31.7185L51.9245 31.708L52.0171 31.7198L52.1383 31.7432L52.2335 31.7706L52.399 31.8501L83.8995 50.0282L83.9946 50.1038L84.1563 50.2576L84.2162 50.3372L84.2958 50.4871L84.3192 50.5705L84.3544 50.8416V56.6998L84.3192 56.9449L84.2944 57.0479L84.2097 57.2173L84.1719 57.2682L84.0194 57.4011L83.9047 57.4924L81.6365 58.7972H81.6339L54.0832 74.7045L53.9464 74.7684L53.8734 74.788L53.7404 74.8153L53.6439 74.8232L53.5514 74.8153L53.4158 74.788L53.3467 74.7697L53.2059 74.7045L50.6757 73.2445V57.8978C50.6757 57.8691 50.6588 57.8417 50.6562 57.813C50.6536 57.7844 50.6653 57.7557 50.6588 57.7257L50.5949 57.3307C50.5936 57.3229 50.5884 57.3177 50.5858 57.3086C50.5858 57.3034 50.5884 57.2955 50.5858 57.2864L50.531 57.0244C50.5206 56.9749 50.4893 56.9345 50.4724 56.8888C50.4554 56.8419 50.4541 56.7911 50.4307 56.7467L50.2547 56.4169C50.2403 56.3922 50.2182 56.3791 50.2025 56.3544C50.1869 56.3309 50.1843 56.3035 50.1673 56.2827L50.0018 56.0624C49.9809 56.0311 49.947 56.0167 49.9236 55.9881C49.8962 55.9607 49.8832 55.9229 49.8545 55.9007L49.6016 55.6804C49.5899 55.67 49.5755 55.6674 49.5638 55.657C49.5534 55.6478 49.5482 55.6348 49.5377 55.6296L49.3279 55.4758C49.3109 55.4627 49.294 55.4614 49.277 55.451C49.2575 55.438 49.2496 55.4223 49.2301 55.4106L29.9753 44.2834L51.5348 31.8475ZM50.8582 93.8473L50.6744 93.9203L50.6731 75.6509L52.1996 76.5321C52.2152 76.5412 52.2296 76.5439 52.2465 76.5517C52.2569 76.5569 52.2609 76.566 52.2713 76.5699L52.5463 76.7029C52.5776 76.7198 52.6128 76.7146 52.6454 76.725C52.6845 76.7407 52.7158 76.7668 52.7575 76.7772L52.9465 76.8215C52.9543 76.8228 52.9609 76.8228 52.9674 76.8241C52.9713 76.8241 52.9739 76.8267 52.9778 76.828L53.1968 76.8723C53.2255 76.8789 53.2568 76.8776 53.2854 76.8815C53.2959 76.8828 53.305 76.888 53.3128 76.8893L53.554 76.9128C53.5827 76.9167 53.6152 76.9167 53.6439 76.9167H53.6465C53.6765 76.9167 53.7091 76.9167 53.7378 76.9128L53.9789 76.8893C53.9894 76.888 53.9985 76.8828 54.0063 76.8815C54.035 76.8776 54.0663 76.8789 54.095 76.8723L54.314 76.828C54.3179 76.8267 54.3205 76.8241 54.3244 76.8241C54.3309 76.8228 54.3374 76.8241 54.3452 76.8215L54.5343 76.7772C54.5747 76.7668 54.6073 76.7407 54.6464 76.725C54.6777 76.7133 54.7128 76.7185 54.7454 76.7029L55.0205 76.5699C55.0296 76.566 55.0361 76.5569 55.0439 76.5517C55.0583 76.5452 55.0765 76.5412 55.0922 76.5321L81.1125 61.5086V75.8021L81.102 75.8517C81.0994 75.8634 81.1033 75.8777 81.102 75.8908C81.0994 75.9051 81.0903 75.9129 81.089 75.9273L81.0616 76.115L81.0408 76.1932L80.9574 76.3535L80.8961 76.4409L80.7605 76.5673L80.6614 76.6429L50.8582 93.8473ZM7.66097 34.3295L7.77699 34.2812L7.88909 34.2539C7.89822 34.2526 7.90604 34.246 7.91516 34.2434C7.9295 34.2395 7.94254 34.2421 7.95557 34.2369L8.07681 34.2004L8.12113 34.1965L8.1485 34.1991L8.27495 34.2369C8.28798 34.2421 8.30232 34.2395 8.31536 34.2434C8.32448 34.246 8.331 34.2526 8.34012 34.2539L8.46918 34.2825L8.47309 34.2852C8.47309 34.2852 8.47439 34.2865 8.47569 34.2865L8.4796 34.2878L8.55782 34.3217L27.3642 45.1829L48.139 57.1886L48.2589 57.276L48.4049 57.4037L48.4506 57.4663L48.5196 57.5967L48.5418 57.6944L48.59 57.9825V73.8442V94.6255L48.5822 94.6763L48.5444 94.8666V94.8706C48.5444 94.8732 48.5418 94.8732 48.5418 94.8745L48.517 95.0074L48.4519 95.13L48.4049 95.1912L48.2602 95.319L48.1364 95.4102L43.0395 98.3641L42.93 98.4097L42.8192 98.4345C42.8049 98.4371 42.7957 98.4462 42.7827 98.4501C42.7697 98.4527 42.7566 98.4488 42.7449 98.4527L42.625 98.4892L42.5898 98.4931L42.5533 98.4892L42.4333 98.4527C42.4216 98.4501 42.4099 98.4527 42.3995 98.4501C42.389 98.4475 42.3799 98.441 42.3708 98.4371L42.2626 98.411L42.127 98.3576L2.59926 75.5414L2.47021 75.4319L2.31639 75.2977L2.26946 75.2325L2.18343 75.0734L2.15996 74.9796L2.11564 74.7058V38.0811L2.15866 37.8282L2.18734 37.7005L2.26816 37.5493L2.31248 37.4841L2.43892 37.3746L2.57319 37.2755L7.66097 34.3295Z" fill="#264f68"/>
</svg>
