<svg width="150" height="100" viewBox="0 0 150 100" fill="none" xmlns="http://www.w3.org/2000/svg">
<path d="M146.859 65.3506L119.48 81.2523V77.577L119.483 77.5751L141.308 64.9559C141.308 64.9559 141.309 64.9541 141.312 64.9541L141.399 64.9208L141.417 64.9296L142.613 64.0629L143.222 62.626L145.371 47.226L145.388 47.1856C145.396 47.1664 145.392 47.1454 145.401 47.1243C145.408 47.0997 145.429 47.0804 145.434 47.0541L145.455 46.9804L145.466 46.9664L145.513 46.926C145.535 46.9085 145.545 46.8856 145.566 46.8681L146.859 46.133V65.3506ZM146.859 81.712L135.591 75.2401L146.859 68.6945V81.712ZM117.903 75.1681C117.878 75.1822 117.853 75.1839 117.829 75.2014L117.664 75.3225L117.659 75.3277L117.655 75.3296L117.492 75.4523C117.434 75.4944 117.401 75.5576 117.353 75.6085C117.301 75.6576 117.236 75.6945 117.192 75.7541L117.071 75.9155C117.048 75.9523 117.045 75.9892 117.022 76.026C117.001 76.0629 116.966 76.0839 116.946 76.1243L116.825 76.3664C116.771 76.4787 116.757 76.5962 116.731 76.7138C116.713 76.7576 116.683 76.7962 116.671 76.8435C116.666 76.8646 116.673 76.8875 116.669 76.9119C116.664 76.9348 116.65 76.9506 116.646 76.9717L116.606 77.2541C116.599 77.2909 116.613 77.3225 116.611 77.3612C116.61 77.3962 116.59 77.4277 116.59 77.4646V80.7435L98.2289 70.1576L96.6745 69.2629V69.2612L96.6727 69.2559V65.2962L96.6762 65.2944L118.501 52.6751L118.504 52.6734L118.592 52.6401L118.61 52.6488L137.659 63.7277L117.962 75.1155C117.938 75.1296 117.925 75.1541 117.903 75.1681ZM95.1552 62.8348C95.1306 62.8488 95.1183 62.8734 95.0956 62.8875C95.071 62.9014 95.0464 62.9033 95.0219 62.9208L94.8569 63.0418L94.8516 63.0488H94.8482L94.6851 63.1717C94.6272 63.2138 94.5937 63.277 94.5464 63.3277C94.4937 63.3769 94.4289 63.4138 94.3851 63.4734L94.264 63.6348C94.2411 63.6717 94.2377 63.7085 94.2148 63.7454C94.1937 63.7822 94.1587 63.8033 94.1394 63.8435L94.0183 64.0856C93.964 64.198 93.9499 64.3155 93.9236 64.433C93.9061 64.477 93.8762 64.5155 93.864 64.5629C93.8587 64.5839 93.8657 64.6067 93.8622 64.6313C93.8569 64.6541 93.8429 64.6698 93.8394 64.6909L93.799 64.9734C93.792 65.0102 93.8061 65.0418 93.8043 65.0804C93.8025 65.1155 93.7832 65.1471 93.7832 65.1839V67.5717L76.7219 57.7418L76.5798 57.6401L76.5043 57.5664C76.492 57.5523 76.4727 57.5471 76.4587 57.5348C76.4429 57.5191 76.4377 57.498 76.4236 57.4875L76.2148 57.3102L76.1674 57.2541C76.1482 57.2172 76.1236 57.1875 76.1008 57.1506L76.0727 57.098V51.3681L76.1061 51.305L76.2253 51.1839L76.4306 50.9787L76.5078 50.9172L76.7183 50.7717L95.8657 39.705L95.8779 39.698L95.892 39.705L115.557 51.0401L95.1552 62.8348ZM74.164 57.1506C74.1429 57.1875 74.1166 57.2172 74.0973 57.2541L74.0499 57.3102L73.8429 57.4875C73.8272 57.498 73.8219 57.5191 73.8061 57.5348C73.7937 57.5471 73.7745 57.5523 73.7604 57.5664L73.6851 57.6401L73.5411 57.7418L56.4815 67.5717V65.1839C56.4815 65.1471 56.464 65.1155 56.4622 65.0804C56.4587 65.0418 56.471 65.0102 56.4674 64.9734L56.4253 64.6909C56.4219 64.6698 56.4078 64.6541 56.4025 64.6313C56.399 64.6067 56.4061 64.5839 56.4008 64.5629C56.3903 64.5155 56.3587 64.477 56.3411 64.433C56.3166 64.3155 56.3026 64.198 56.2482 64.0856L56.1253 63.8435C56.1061 63.8033 56.071 63.7822 56.0499 63.7454C56.0289 63.7085 56.0253 63.6717 55.999 63.6348L55.8815 63.4734C55.8358 63.4138 55.7693 63.3769 55.72 63.3277C55.671 63.277 55.6394 63.2138 55.5815 63.1717L55.4166 63.0488H55.4131L55.4078 63.0418L55.2429 62.9208C55.2201 62.9033 55.1937 62.9014 55.1693 62.8875C55.1482 62.8734 55.1358 62.8488 55.1095 62.8348L34.7078 51.0401L54.3727 39.705L54.3868 39.698L54.4008 39.705L73.5482 50.7717L73.7552 50.9172L73.8324 50.9787L74.0394 51.1839L74.1604 51.305L74.192 51.3681V57.098L74.164 57.1506ZM53.5937 69.2559L53.592 69.2612V69.2629L52.0358 70.1576L33.6745 80.7435V77.4646C33.6745 77.4277 33.6569 77.3962 33.6552 77.3612C33.6516 77.3225 33.664 77.2909 33.6604 77.2541L33.6183 76.9717C33.6148 76.9506 33.6008 76.9348 33.5956 76.9119C33.592 76.8875 33.599 76.8646 33.5937 76.8435C33.5832 76.7962 33.5516 76.7576 33.5341 76.7138C33.5095 76.5962 33.4956 76.4787 33.4411 76.3664L33.3183 76.1243C33.299 76.0839 33.264 76.0629 33.2429 76.026C33.2219 75.9892 33.2183 75.9523 33.192 75.9155L33.0745 75.7541C33.0289 75.6945 32.9622 75.6576 32.9131 75.6085C32.864 75.5576 32.8324 75.4944 32.7745 75.4523L32.6095 75.3296L32.6061 75.3277L32.6008 75.3225L32.4358 75.2014C32.4131 75.1839 32.3868 75.1822 32.3622 75.1681C32.3411 75.1541 32.3289 75.1296 32.3025 75.1155L12.606 63.7277L31.6552 52.6488L31.6745 52.6401L31.7622 52.6734L31.764 52.6751L53.5885 65.2944L53.5937 65.2962V69.2559ZM30.7868 81.2523L3.40606 65.3506V46.133L4.7008 46.8681C4.71834 46.8856 4.72887 46.9085 4.74992 46.926L4.79904 46.9664L4.80781 46.9804L4.83062 47.0541C4.83763 47.0804 4.85694 47.0997 4.86396 47.1243C4.87273 47.1454 4.86746 47.1664 4.87623 47.1856L4.89377 47.226L7.04465 62.626L7.65167 64.0629L8.84815 64.9296L8.86746 64.9208L8.95517 64.9541L8.95694 64.9559L30.7815 77.5751L30.7868 77.577V81.2523ZM3.40606 81.712V68.6945L14.6745 75.2401L3.40606 81.712ZM23.9657 32.577L23.9832 32.5717L27.5078 34.5873C27.5253 34.605 27.5358 34.6277 27.5569 34.6454L27.6061 34.6856L27.6148 34.6997L27.6377 34.7734C27.6447 34.7997 27.664 34.8191 27.671 34.8435C27.6798 34.8646 27.6745 34.8856 27.6832 34.905L27.7008 34.9454L29.8516 50.3454L10.2938 61.726L9.76922 61.2067L7.73588 46.6523C7.72885 46.5944 7.69552 46.5435 7.67798 46.4892C7.66394 46.433 7.67097 46.3734 7.6464 46.3155L7.59377 46.177L7.52886 45.9593C7.50781 45.8839 7.46044 45.833 7.42711 45.7646C7.39729 45.6997 7.38675 45.6277 7.34815 45.5646L7.18501 45.3191C7.17623 45.305 7.16043 45.2997 7.15342 45.2875C7.14464 45.2769 7.1429 45.2629 7.13588 45.2523L7.01659 45.0892C6.97798 45.0383 6.91834 45.0085 6.87447 44.9629C6.83061 44.9191 6.8043 44.8629 6.75693 44.8243L6.61483 44.7085L6.54465 44.6401C6.49905 44.5944 6.43939 44.5787 6.39026 44.54C6.33939 44.5014 6.3043 44.4488 6.2464 44.4138L4.83237 43.605L23.9657 32.577ZM46.5535 19.5541L50.0569 21.5559C50.071 21.5698 50.0885 21.5751 50.1026 21.5875C50.1131 21.598 50.1183 21.6067 50.1306 21.6155L50.22 21.7471L50.2289 21.7716L50.2394 21.8189L52.4499 37.4681L32.5762 48.926L30.5429 34.3716C30.5358 34.3137 30.5025 34.2629 30.485 34.2085C30.471 34.1523 30.4779 34.0927 30.4535 34.0348L30.4008 33.8962L30.3358 33.6787C30.3148 33.6033 30.2674 33.5523 30.2341 33.4839C30.2043 33.4191 30.1937 33.3471 30.1552 33.2839L29.992 33.0383C29.9832 33.0243 29.9674 33.0189 29.9604 33.0067C29.9516 32.9962 29.9499 32.9822 29.9429 32.9717L29.8236 32.8084C29.785 32.7576 29.7253 32.7277 29.6815 32.6822C29.6377 32.6383 29.6114 32.5821 29.564 32.5435L29.4219 32.4277L29.3516 32.3593C29.3061 32.3138 29.2464 32.298 29.1973 32.2593C29.1464 32.2208 29.1114 32.1681 29.0535 32.133L26.8815 30.8927L46.5535 19.5541ZM74.192 3.55408V24.9243L55.1482 35.9085L53.0937 21.3418C53.092 21.3277 53.0815 21.3155 53.0798 21.3033C53.0779 21.2892 53.0832 21.2717 53.0798 21.2541L53.0394 21.0523C53.0289 21.0033 52.9973 20.9629 52.9815 20.9172C52.9657 20.8698 52.971 20.8189 52.9516 20.7734L52.8289 20.4875C52.8095 20.4418 52.7745 20.4138 52.7516 20.3734C52.7306 20.3348 52.7289 20.2892 52.7008 20.2523L52.5377 20.0067C52.5324 19.998 52.5253 19.9962 52.5201 19.9892C52.4114 19.7787 52.2674 19.5822 52.0552 19.4418L51.8095 19.2787C51.8061 19.2751 51.799 19.277 51.7937 19.2734C51.7289 19.2191 51.6798 19.1488 51.6061 19.1085L49.4306 17.8646L74.192 3.55408ZM75.1324 48.3523C75.1253 48.3506 75.1166 48.3471 75.1114 48.3418C75.0937 48.3313 75.0815 48.3085 75.0604 48.298L57.2815 38.0242L75.1324 27.7296L92.9815 38.0242L75.2043 48.298C75.1832 48.3085 75.1727 48.3313 75.1552 48.3418C75.1464 48.3471 75.1394 48.3506 75.1324 48.3523ZM100.836 17.8646L98.6587 19.1085C98.5832 19.1488 98.5358 19.2191 98.471 19.2734C98.464 19.277 98.4587 19.2751 98.4552 19.2787L98.2114 19.4418C97.9973 19.5822 97.8516 19.7787 97.7447 19.9892C97.7394 19.9962 97.7306 19.998 97.7272 20.0067L97.5621 20.2523C97.5377 20.2892 97.5341 20.3348 97.5131 20.3734C97.4903 20.4138 97.4552 20.4418 97.4358 20.4875L97.3148 20.7734C97.2937 20.8189 97.299 20.8698 97.2832 20.9172C97.2674 20.9629 97.2377 21.0033 97.2253 21.0523L97.1868 21.2541C97.1815 21.2717 97.1885 21.2892 97.1868 21.3033C97.185 21.3155 97.1745 21.3277 97.1727 21.3418L95.1183 35.9085L76.0727 24.9243V3.55408L100.836 17.8646ZM103.711 19.5541L123.383 30.8927L121.211 32.133C121.153 32.1681 121.118 32.2208 121.069 32.2593C121.018 32.298 120.959 32.3138 120.915 32.3593L120.845 32.4277L120.703 32.5435C120.653 32.5821 120.629 32.6383 120.583 32.6822C120.539 32.7277 120.48 32.7576 120.441 32.8084L120.322 32.9717C120.315 32.9822 120.311 32.9962 120.304 33.0067C120.296 33.0189 120.281 33.0243 120.275 33.0383L120.111 33.2839C120.071 33.3471 120.062 33.4191 120.031 33.4839C119.997 33.5523 119.95 33.6033 119.927 33.6787L119.864 33.8962L119.81 34.0348C119.787 34.0927 119.792 34.1523 119.778 34.2085C119.762 34.2629 119.729 34.3137 119.722 34.3716L117.688 48.926L97.8166 37.4681L100.027 21.8189L100.036 21.7716L100.045 21.7471L100.134 21.6155C100.145 21.6067 100.152 21.598 100.164 21.5875C100.178 21.5751 100.194 21.5698 100.208 21.5559L103.711 19.5541ZM126.281 32.5717L126.297 32.577L145.434 43.605L144.018 44.4138C143.96 44.4488 143.925 44.5014 143.876 44.54C143.825 44.5787 143.766 44.5944 143.722 44.6401L143.651 44.7085L143.509 44.8243C143.46 44.8629 143.435 44.9191 143.391 44.9629C143.346 45.0085 143.287 45.0383 143.249 45.0892L143.129 45.2523C143.122 45.2629 143.118 45.2769 143.112 45.2875C143.103 45.2997 143.088 45.305 143.081 45.3191L142.918 45.5646C142.878 45.6277 142.87 45.6997 142.838 45.7646C142.804 45.833 142.757 45.8839 142.734 45.9593L142.671 46.177L142.617 46.3155C142.593 46.3734 142.599 46.433 142.585 46.4892C142.57 46.5435 142.535 46.5944 142.529 46.6523L140.496 61.2067L139.971 61.726L120.415 50.3454L122.564 34.9454L122.581 34.905C122.588 34.8856 122.585 34.8646 122.594 34.8435C122.601 34.8191 122.622 34.7997 122.627 34.7734L122.648 34.6997L122.659 34.6856L122.706 34.6454C122.729 34.6277 122.738 34.605 122.759 34.5873L126.281 32.5717ZM149.733 44.2277C149.729 44.1875 149.745 44.1488 149.738 44.1085L149.696 43.8629C149.693 43.8576 149.691 43.8523 149.691 43.8471C149.687 43.8401 149.692 43.833 149.691 43.826L149.65 43.6225C149.635 43.5559 149.596 43.505 149.575 43.4418C149.554 43.3769 149.554 43.3138 149.525 43.2523L149.403 43.0085C149.309 42.8225 149.181 42.6698 149.035 42.5471C149.024 42.5348 149.022 42.5208 149.012 42.5102L148.846 42.3471C148.825 42.3242 148.796 42.3172 148.775 42.2979C148.754 42.2751 148.745 42.2454 148.724 42.2243C148.678 42.1787 148.618 42.1593 148.57 42.1208C148.518 42.0787 148.481 42.026 148.428 41.9944L127.66 30.0191C127.629 30.0033 127.596 30.0033 127.564 29.9875C127.532 29.9717 127.515 29.9471 127.481 29.9347L127.28 29.8506C127.238 29.833 127.194 29.8401 127.153 29.826C127.12 29.812 127.097 29.7856 127.064 29.7751C127.011 29.7576 126.953 29.7681 126.903 29.7559C126.862 29.7418 126.829 29.7138 126.787 29.705C126.738 29.6927 126.69 29.7067 126.643 29.6997C126.613 29.6646 126.601 29.6225 126.569 29.5892L126.446 29.4698L126.29 29.3138C126.266 29.2892 126.234 29.2804 126.208 29.2612C126.181 29.2348 126.167 29.2033 126.139 29.1839L125.978 29.0612C125.953 29.0418 125.922 29.0383 125.897 29.0208C125.869 29.0033 125.857 28.9787 125.831 28.9629L105.067 16.9945C105.055 16.9892 105.043 16.9892 105.032 16.9822C105.02 16.977 105.011 16.9629 105.003 16.9576L104.839 16.8734C104.769 16.8383 104.701 16.8401 104.629 16.8191C104.585 16.7962 104.55 16.7629 104.503 16.7471C104.487 16.7418 104.466 16.7471 104.452 16.7418C104.429 16.7348 104.417 16.7191 104.399 16.7155L104.234 16.6751C104.185 16.6646 104.139 16.677 104.09 16.6717C104.059 16.633 104.048 16.5892 104.011 16.5541L103.892 16.4383L103.745 16.2892C103.72 16.2629 103.687 16.2559 103.659 16.2313C103.631 16.2085 103.618 16.177 103.588 16.1523L103.425 16.0313C103.401 16.012 103.371 16.0085 103.343 15.9909C103.318 15.9717 103.303 15.9488 103.278 15.933L76.6535 0.548812C76.6272 0.534778 76.599 0.536533 76.5745 0.522498C76.5482 0.510217 76.5341 0.485655 76.5061 0.475129L76.2219 0.352323C76.1798 0.348813 76.1394 0.340042 76.1025 0.326008C76.092 0.322499 76.0832 0.317242 76.0727 0.313733V0.268117C76.0358 0.257591 75.999 0.247056 75.9622 0.236529C75.8798 0.211968 75.7973 0.189173 75.7148 0.166366C75.6166 0.138296 75.5183 0.152329 75.4183 0.145311L75.2779 0.124257C75.2745 0.124257 75.271 0.126011 75.264 0.124257C75.2429 0.122502 75.2183 0.131271 75.1937 0.129517H75.1815L75.1535 0.124257C75.1499 0.124257 75.1464 0.126011 75.1394 0.124257L75.1324 0.12601C75.1289 0.12601 75.1272 0.124257 75.1236 0.124257C75.1183 0.126011 75.1148 0.124257 75.1114 0.124257L75.085 0.129517H75.0693C75.0464 0.131271 75.0236 0.122502 75.0008 0.124257C74.9937 0.126011 74.9903 0.124257 74.9868 0.124257L74.8464 0.145311C74.7464 0.152329 74.6499 0.138296 74.5499 0.166366C74.4674 0.189173 74.3832 0.211968 74.3026 0.236529C74.2657 0.247056 74.2289 0.257591 74.192 0.268117V0.313733C74.1815 0.317242 74.1727 0.322499 74.1622 0.326008C74.1253 0.340042 74.0868 0.348813 74.0429 0.352323L73.7569 0.475129C73.7306 0.485655 73.7183 0.510217 73.6903 0.522498C73.664 0.536533 73.6394 0.534778 73.6114 0.548812L46.9868 15.933C46.9622 15.9488 46.9464 15.9717 46.9219 15.9909C46.8956 16.0085 46.864 16.012 46.8377 16.0313L46.6762 16.1523C46.6482 16.177 46.6341 16.2085 46.6061 16.2313C46.5779 16.2559 46.5447 16.2629 46.52 16.2892L46.3745 16.4383L46.2535 16.5541C46.2183 16.5892 46.2061 16.633 46.1745 16.6717C46.1253 16.677 46.0815 16.6646 46.0289 16.6751L45.8674 16.7155C45.8482 16.7191 45.8358 16.7348 45.8131 16.7418C45.799 16.7471 45.7798 16.7418 45.7622 16.7471C45.7166 16.7629 45.6779 16.7962 45.6377 16.8191C45.5657 16.8401 45.4956 16.8383 45.4272 16.8734L45.264 16.9576C45.2516 16.9629 45.2447 16.977 45.2324 16.9822C45.22 16.9892 45.2114 16.9892 45.199 16.9945L24.4358 28.9629C24.4078 28.9787 24.3937 29.0033 24.3693 29.0208C24.3429 29.0383 24.3114 29.0418 24.2868 29.0612L24.1253 29.1839C24.0973 29.2033 24.0851 29.2348 24.0569 29.2612C24.0289 29.2804 23.999 29.2892 23.9745 29.3138L23.8183 29.4698L23.6973 29.5892C23.6622 29.6225 23.6516 29.6646 23.6236 29.6997C23.5762 29.7067 23.5253 29.6927 23.4779 29.705C23.4341 29.7138 23.4025 29.7418 23.3622 29.7559C23.3095 29.7681 23.2552 29.7576 23.2025 29.7751C23.1674 29.7856 23.1429 29.812 23.1114 29.826C23.071 29.8401 23.0272 29.833 22.9868 29.8506L22.7832 29.9347C22.7516 29.9471 22.7306 29.9717 22.699 29.9875C22.6693 30.0033 22.6358 30.0033 22.6061 30.0191L1.83938 41.9944C1.78324 42.026 1.74641 42.0787 1.69729 42.1208C1.64641 42.1593 1.585 42.1787 1.53939 42.2243C1.52009 42.2454 1.51132 42.2751 1.49202 42.2979C1.46921 42.3172 1.43939 42.3242 1.41833 42.3471L1.25517 42.5102C1.24289 42.5208 1.24114 42.5348 1.22886 42.5471C1.08324 42.6698 0.955173 42.8225 0.862191 43.0085L0.741138 43.2523C0.711314 43.3138 0.711314 43.3769 0.692015 43.4418C0.669209 43.505 0.628859 43.5559 0.616578 43.6225L0.574469 43.826C0.572715 43.833 0.576224 43.8401 0.574469 43.8471C0.574469 43.8523 0.570963 43.8576 0.569209 43.8629L0.528867 44.1085C0.521849 44.1488 0.537637 44.1875 0.532374 44.2277C0.528865 44.2681 0.507812 44.305 0.507812 44.3471V83.3612L2.38851 85.6471L3.36219 85.0875L3.40606 85.1155V85.0629L17.5693 76.9208L30.7815 84.5927H30.785V90.3138V99.0875V99.1506H33.6745V97.3962V84.4822V83.9629L33.764 83.9348C33.8043 83.9208 33.8253 83.8927 33.8622 83.8787C33.9464 83.854 34.0289 83.8593 34.1095 83.8172L34.271 83.7366C34.2885 83.7296 34.2973 83.7138 34.3131 83.705C34.3253 83.698 34.3394 83.7033 34.3499 83.6945L51.3114 73.9172V86.8699H54.2078V72.2488L55.1131 71.726C55.1341 71.7155 55.1429 71.6945 55.1604 71.6822C55.1903 71.6681 55.22 71.6612 55.2464 71.6418L55.4114 71.5225C55.4429 71.498 55.4552 71.4646 55.4832 71.4435C55.5114 71.4191 55.5447 71.4102 55.571 71.3839L55.7358 71.2225C55.7657 71.1892 55.7779 71.1488 55.8078 71.1138C55.8289 71.0892 55.8622 71.0804 55.885 71.0506L55.9166 71.0085C55.9745 71.0014 56.0341 71.0014 56.0956 70.9839L56.2552 70.9435C56.271 70.9418 56.285 70.9277 56.3025 70.9208C56.3253 70.9138 56.3447 70.9172 56.3674 70.9102C56.4148 70.8909 56.4499 70.8576 56.4937 70.8366C56.5464 70.8172 56.6043 70.8225 56.6587 70.7962L56.8219 70.7155C56.8358 70.7067 56.8464 70.6892 56.864 70.6804C56.8762 70.6734 56.892 70.6769 56.9025 70.6698L73.9061 60.8717V74.6296H74.192H76.0727H76.3569V60.8717L93.3622 70.6698C93.3745 70.6769 93.3885 70.6734 93.4008 70.6804C93.4183 70.6892 93.4289 70.7067 93.4447 70.7155L93.6061 70.7962C93.6622 70.8225 93.7166 70.8172 93.771 70.8366C93.8166 70.8576 93.8499 70.8909 93.8973 70.9102C93.92 70.9172 93.9394 70.9138 93.964 70.9208C93.9798 70.9277 93.9937 70.9418 94.0095 70.9435L94.171 70.9839C94.2306 71.0014 94.2903 71.0014 94.3482 71.0085L94.3815 71.0506C94.4025 71.0804 94.4358 71.0892 94.4587 71.1138C94.4868 71.1488 94.499 71.1892 94.5306 71.2225L94.6937 71.3839C94.72 71.4102 94.7535 71.4191 94.7815 71.4435C94.8095 71.4646 94.8236 71.498 94.8535 71.5225L95.0183 71.6418C95.0447 71.6612 95.0727 71.6681 95.1025 71.6822C95.1219 71.6945 95.1324 71.7155 95.1499 71.726L96.0569 72.2488V86.8699H98.9516V73.9172L115.913 83.6945C115.925 83.7033 115.939 83.698 115.953 83.705C115.969 83.7138 115.975 83.7296 115.992 83.7366L116.155 83.8172C116.236 83.8593 116.32 83.854 116.403 83.8787C116.439 83.8927 116.462 83.9208 116.501 83.9348L116.59 83.9629V84.4822V97.3962V99.1506H119.481V99.0875V90.3138V84.5927H119.483L132.696 76.9208L146.859 85.0629V85.1155L146.903 85.0875L147.876 85.6471L149.757 83.3612V44.3471C149.757 44.305 149.738 44.2681 149.733 44.2277Z" fill="#264f68"/>
</svg>
