<svg width="123" height="100" viewBox="0 0 123 100" fill="none" xmlns="http://www.w3.org/2000/svg">
<path d="M72.0222 79.3713C72.0196 79.3465 72.0301 79.3269 72.0261 79.302L71.9987 79.1086C71.996 79.0903 71.9856 79.0772 71.9817 79.0589C71.9778 79.0419 71.983 79.0275 71.9791 79.0118L71.9516 78.9021C71.9425 78.8642 71.919 78.838 71.9058 78.804C71.8915 78.7662 71.8928 78.7256 71.8758 78.6903L71.7909 78.5243C71.7778 78.4969 71.7543 78.4812 71.7386 78.4564C71.7229 78.4315 71.7215 78.4041 71.7033 78.3805L71.6222 78.2707C71.617 78.2643 71.6131 78.2603 71.6078 78.2564L74.0625 68.9917L74.073 68.963C74.0782 68.9499 74.0757 68.9368 74.0809 68.9224C74.0861 68.9042 74.0992 68.8924 74.1044 68.8741L74.1188 68.8258L74.1253 68.8153L74.158 68.7878C74.1737 68.7773 74.1789 68.7591 74.1919 68.7473L78.2492 66.4299L78.1864 66.3867L120.32 42.2291V67.6899L120.318 67.6951L120.265 67.8899L72.0352 95.5675V86.3708V79.4367C72.0352 79.4132 72.0235 79.3961 72.0222 79.3713ZM67.735 97.9895L67.7323 97.9882L49.2109 87.3028L49.2095 87.3014L49.2083 87.2962V70.1433L49.2095 70.1394L49.2135 70.1367L51.5493 68.7969L56.3972 71.6033V71.751L56.5266 71.6765L60.2532 73.8345C60.2532 73.8345 60.2545 73.8345 60.2558 73.8371L60.2623 73.8397L60.2636 73.8411L70.076 79.5112V86.9367V96.6288C70.0746 96.6367 70.0707 96.6445 70.0694 96.6524L67.735 97.9895ZM70.2275 63.7869L74.5933 66.1998L73.3895 66.8899V66.9461L73.145 67.0873C73.1058 67.1095 73.0836 67.1448 73.0483 67.171C73.0143 67.1984 72.9751 67.2076 72.9437 67.2389L72.8967 67.286L72.7999 67.3631C72.7673 67.3906 72.7516 67.4284 72.7202 67.4572C72.6901 67.4886 72.6496 67.5082 72.6234 67.5435L72.5425 67.6533C72.5385 67.6611 72.5372 67.6703 72.532 67.6781C72.5268 67.6872 72.515 67.6899 72.5097 67.699L72.3999 67.8651C72.3738 67.9082 72.366 67.9578 72.345 68.0009C72.3229 68.0467 72.2901 68.082 72.2758 68.133L72.2327 68.282L72.196 68.3748C72.1803 68.4127 72.1843 68.4532 72.1751 68.4911C72.1634 68.529 72.1411 68.5617 72.1359 68.6022L69.8211 77.1022L62.7026 72.9862C62.7026 72.9862 60.759 71.8202 58.5343 70.521L70.2275 63.7869ZM71.1504 56.8032C71.1478 56.8005 71.1426 56.7992 71.1399 56.7966V50.9448L80.0582 55.8724L74.9632 58.8095L71.1504 56.8032ZM69.5976 47.7933V47.7921L69.5962 47.7882V45.106L69.5989 45.1046L84.3794 36.5589L84.3821 36.5576L84.4409 36.5354L84.4539 36.5393L99.2879 44.7975L81.9979 54.7562L70.6498 48.3999L69.5976 47.7933ZM68.5676 43.4395C68.5506 43.4499 68.5428 43.4655 68.5271 43.4748C68.5114 43.4851 68.4931 43.4865 68.4774 43.4983L68.3663 43.5793L68.3624 43.5832L68.3597 43.5845L68.2487 43.6682C68.2095 43.6956 68.1872 43.7388 68.1546 43.774C68.1218 43.8067 68.0761 43.8316 68.046 43.8708L67.965 43.9819C67.948 44.0054 67.9454 44.0316 67.9311 44.0564C67.9166 44.0812 67.8931 44.0956 67.8801 44.1218L67.799 44.2865C67.7598 44.3622 67.7507 44.4419 67.7336 44.5217C67.7218 44.5517 67.701 44.5779 67.6931 44.6093C67.6905 44.625 67.6944 44.6394 67.6918 44.6563C67.6892 44.6707 67.6787 44.6825 67.6762 44.6982L67.6487 44.8877C67.6448 44.9125 67.6539 44.9347 67.6526 44.9595C67.6513 44.9844 67.6382 45.0053 67.6382 45.0315V46.6471L56.0849 39.99L55.9869 39.9207L55.9359 39.8697C55.928 39.8606 55.9136 39.8593 55.9045 39.8501C55.894 39.8384 55.8901 39.8253 55.8796 39.8175L55.7398 39.6972L55.7085 39.6594C55.694 39.6358 55.6771 39.6136 55.6614 39.59L55.6235 39.5143C55.6169 39.5025 55.6065 39.4959 55.6012 39.4854C55.5947 39.4763 55.5947 39.4606 55.5869 39.4502L55.5529 39.3927L55.5163 39.2933L55.4889 39.194L55.4796 39.1404V36.1053L55.4901 36.0387L55.5019 35.9994L55.5032 35.9969L55.5686 35.823L55.6235 35.7132L55.6653 35.6296L55.7463 35.5485L55.8862 35.4087L55.9384 35.3681L56.081 35.2688L69.0499 27.7726L69.0577 27.7687L69.0668 27.7726L82.3861 35.4505L68.5676 43.4395ZM69.178 55.6503L55.8679 47.9764L55.8639 47.9737V47.9685L55.8365 47.8639V42.1102L67.3546 48.7462C67.3625 48.7514 67.3716 48.7489 67.3794 48.7528C67.3912 48.7593 67.3978 48.771 67.4081 48.7763L67.5206 48.8312C67.5559 48.8494 67.5938 48.8455 67.6317 48.8587C67.6605 48.873 67.6853 48.8979 67.7154 48.9083C67.7311 48.9136 67.7454 48.9109 67.7598 48.9161C67.7716 48.92 67.7807 48.9292 67.7912 48.9318L67.901 48.9592C67.9414 48.9697 67.982 48.9697 68.0212 48.9749L68.0434 49.005C68.0578 49.0233 68.0801 49.0298 68.0957 49.0469C68.1153 49.0704 68.1245 49.0979 68.1441 49.12L68.2551 49.2298C68.2735 49.2481 68.2957 49.2533 68.3153 49.269C68.3349 49.2847 68.3441 49.307 68.3637 49.3226L68.4747 49.4037C68.4931 49.4168 68.5127 49.4219 68.5323 49.4324C68.5453 49.4416 68.5519 49.4547 68.5649 49.4612L69.178 49.8167V55.6503ZM55.0209 33.6231C55.0065 33.6324 54.9934 33.6324 54.9777 33.6441L54.7843 33.78C54.7817 33.7826 54.7804 33.7878 54.7765 33.7905C54.7699 33.7931 54.7647 33.7944 54.7608 33.7971L54.651 33.8794C54.6314 33.8937 54.6235 33.9147 54.6066 33.9304C54.5895 33.9447 54.5686 33.95 54.5517 33.9657L54.5125 34.0049L54.4745 33.9682C54.4576 33.95 54.434 33.9447 54.4157 33.929C54.3987 33.9147 54.3883 33.8924 54.3687 33.8768L54.2576 33.7944L54.2497 33.7905C54.2471 33.7892 54.2458 33.7853 54.2432 33.7839L54.0523 33.6481C54.038 33.6363 54.0223 33.6349 54.0066 33.6258C53.9922 33.6167 53.9844 33.601 53.97 33.5944L41.9147 26.6251L54.4549 19.3942C54.4693 19.3955 54.4811 19.4034 54.4968 19.4034C54.5137 19.4034 54.5255 19.3942 54.5425 19.3942L67.0958 26.6342L55.0561 33.5944C55.0405 33.601 55.0326 33.6153 55.0209 33.6231ZM53.5138 39.1391L53.4955 39.2685V39.2698L53.4837 39.3535L53.4733 39.3835L53.4472 39.4241C53.3596 39.5116 53.2851 39.6162 53.2341 39.7339L53.1374 39.8175C53.1283 39.8253 53.1243 39.8371 53.1151 39.8449C53.1073 39.8554 53.0969 39.858 53.089 39.8645L53.0328 39.9207L52.9374 39.9887L41.3893 46.6457V45.0301C41.3893 45.0053 41.3788 44.987 41.3762 44.9635C41.3736 44.9387 41.3853 44.9191 41.3814 44.8929L41.3527 44.7034C41.3435 44.6419 41.3135 44.5962 41.2951 44.54C41.2795 44.4916 41.2795 44.4419 41.2559 44.3949L41.201 44.2865L41.1213 44.127L41.1187 44.123L41.1174 44.1191L41.0611 44.008C41.0494 43.9831 41.0285 43.9714 41.0141 43.9492C40.9802 43.8904 40.9344 43.8407 40.8886 43.7897C40.8508 43.7518 40.8141 43.7139 40.771 43.6839C40.7435 43.6616 40.7253 43.6302 40.6913 43.612L40.6351 43.578C40.6102 43.5545 40.5815 43.5453 40.5553 43.5257C40.52 43.4983 40.4952 43.4603 40.4573 43.4381L26.6244 35.457L39.9553 27.7713L39.9646 27.7687L39.971 27.7701L39.9737 27.7713L52.9426 35.2662L53.0838 35.3681L53.1361 35.4073L53.2498 35.5198L53.3491 35.6374L53.4171 35.7433L53.4563 35.8283L53.489 35.9119L53.4969 35.9602L53.5138 36.0975V39.1391ZM53.1609 47.9737L39.8469 55.6503V49.8167L40.4612 49.4612C40.4978 49.4403 40.5227 49.4023 40.5567 49.3763C40.5906 49.3501 40.6312 49.3383 40.6625 49.3057L40.7043 49.2638L40.7984 49.188C40.8782 49.1253 40.9317 49.0455 40.9854 48.9658C41.0258 48.9606 41.0651 48.9528 41.1056 48.941C41.1356 48.9371 41.1697 48.9371 41.201 48.9292L41.3121 48.9018C41.3984 48.8795 41.4677 48.8325 41.5395 48.792C41.5657 48.7802 41.5958 48.7867 41.6206 48.7724C41.6324 48.7671 41.6389 48.7567 41.6493 48.7501C41.6572 48.7462 41.6637 48.7475 41.6716 48.7436L53.1609 42.1245V47.9737ZM39.4352 47.7803C39.426 47.7881 39.4208 47.8025 39.4103 47.8103L25.8924 55.5065L25.8767 55.5143L25.8597 55.5065L24.98 54.9994V48.0666C24.98 48.043 24.9682 48.026 24.967 48.0012C24.9643 47.9764 24.9748 47.9568 24.9709 47.9319L24.9434 47.7384C24.9408 47.7201 24.9304 47.7071 24.9265 47.6887C24.9226 47.6718 24.9278 47.6574 24.9238 47.6417L24.8964 47.5319C24.8873 47.4941 24.8637 47.4679 24.8506 47.4339C24.8363 47.396 24.8376 47.3554 24.8206 47.3201L24.7356 47.1542C24.7212 47.1267 24.6991 47.111 24.6834 47.0862C24.6677 47.0613 24.6663 47.0339 24.6481 47.0104L24.567 46.9006C24.5526 46.881 24.5291 46.8718 24.5134 46.8522C24.4977 46.8339 24.4912 46.8118 24.4742 46.7934L24.3644 46.6836C24.3265 46.6457 24.2808 46.6287 24.2363 46.5986C24.1932 46.5686 24.1618 46.5268 24.1134 46.5032L24.0271 46.4601L15.6474 41.6161L24.5709 36.5432L24.5879 36.5367H24.5893C24.5932 36.5393 24.5984 36.5406 24.6036 36.5432C24.6114 36.5484 24.6153 36.5563 24.6232 36.5616L39.409 45.0929C39.4156 45.0968 39.4208 45.0994 39.4247 45.1034L39.4352 45.1256V47.7803ZM37.8836 56.7796L37.8797 56.7835L24.9814 64.1294V57.2514C24.9892 57.2541 24.9944 57.2527 24.9996 57.2554C25.0271 57.2698 25.0467 57.2919 25.0741 57.3037L25.2114 57.3586C25.2363 57.3691 25.2623 57.3652 25.2872 57.373C25.3055 57.3808 25.3186 57.3965 25.3368 57.4017C25.3774 57.4161 25.4179 57.4149 25.4611 57.4227C25.4846 57.4306 25.5029 57.4502 25.5277 57.4541C25.6088 57.475 25.6885 57.4828 25.7696 57.4828C25.7904 57.4828 25.81 57.4737 25.8284 57.4723C25.8466 57.4737 25.8623 57.4828 25.8794 57.4828C25.899 57.4828 25.9159 57.4723 25.9329 57.471C25.9539 57.4723 25.9708 57.4828 25.9891 57.4828C26.0571 57.4828 26.1159 57.4566 26.1786 57.4462C26.2335 57.4397 26.2884 57.4384 26.3421 57.424C26.3551 57.4213 26.3617 57.4122 26.3721 57.4083C26.3865 57.4044 26.4009 57.407 26.4126 57.4017L26.495 57.3743C26.5028 57.3717 26.508 57.3652 26.5159 57.3625C26.5237 57.36 26.5342 57.3612 26.5433 57.3573L26.6818 57.3024C26.708 57.2907 26.7276 57.2684 26.7551 57.2541C26.772 57.2463 26.7916 57.2502 26.8087 57.2397L37.8836 50.9448V56.7796ZM23.0207 55.5666V65.2587C23.0194 65.2665 23.0155 65.2744 23.0142 65.2822L20.6798 66.6194L20.6771 66.6181L2.15563 55.9326L2.15432 55.9313L2.15302 55.9261V38.7731L2.15432 38.7692L2.15824 38.7666L4.49401 37.4268L13.198 42.4643C13.198 42.4643 13.1992 42.4643 13.2005 42.467L13.2071 42.4695L13.2084 42.4709L23.0207 48.1411V55.5666ZM5.8194 30.6809C5.83117 30.6704 5.83639 30.6547 5.84816 30.6444L19.3752 22.9403L21.7503 24.3128L21.8143 24.3611L21.8352 24.3768V24.3782L21.8561 24.4788L23.3501 34.9799L13.6907 40.4815L5.8194 35.9289V30.6809ZM34.6368 14.1214L34.6486 14.1175L37.0314 15.4794C37.0471 15.4926 37.0536 15.5108 37.068 15.5226L37.1059 15.5527L37.1085 15.5566L37.1216 15.601C37.1281 15.6206 37.1399 15.6324 37.1464 15.6507C37.1516 15.6664 37.1477 15.6808 37.1543 15.6965L37.1673 15.7304L38.6549 26.2577L25.1918 34.0192L23.7906 24.1572C23.7893 24.1481 23.7815 24.1402 23.7801 24.1311C23.7788 24.1206 23.7828 24.1115 23.7801 24.0998L23.7527 23.9625C23.7501 23.9508 23.7409 23.9403 23.7396 23.9298C23.737 23.9194 23.7396 23.9076 23.737 23.8984L23.6834 23.7037C23.6664 23.6488 23.6325 23.607 23.6076 23.5573C23.5867 23.5141 23.5801 23.4645 23.5514 23.4214L23.4403 23.2553C23.435 23.2475 23.4259 23.2449 23.4207 23.2357C23.4154 23.2279 23.4142 23.2175 23.409 23.2083L23.3252 23.0985C23.2992 23.0645 23.2612 23.0462 23.2311 23.0161C23.2037 22.9874 23.1867 22.9495 23.1527 22.9234L23.0155 22.8136C23.0129 22.8122 23.0076 22.8122 23.0051 22.8097C23.0011 22.807 22.9998 22.8004 22.9958 22.7979L22.8861 22.7155C22.8704 22.7038 22.8482 22.7011 22.8299 22.6881C22.8142 22.6763 22.8024 22.6593 22.7855 22.6489L21.3189 21.8019L34.6368 14.1214ZM53.5177 3.21243V17.6714L40.4808 25.1885L39.0927 15.3383C39.0862 15.3004 39.0639 15.2703 39.0548 15.2363C39.0456 15.1946 39.0483 15.1527 39.0326 15.1122L38.9946 15.0181L38.9554 14.8769C38.9411 14.8285 38.9097 14.7919 38.8888 14.7475C38.8666 14.6991 38.86 14.6469 38.8299 14.6024L38.7201 14.4364C38.7137 14.426 38.7005 14.4221 38.6927 14.4089C38.6862 14.3998 38.6848 14.388 38.6784 14.3802L38.5947 14.2704C38.5686 14.2378 38.5319 14.2194 38.5032 14.1893C38.4757 14.1619 38.4601 14.1253 38.4274 14.1005L38.3372 14.0273L38.2966 13.9881C38.2653 13.9554 38.2261 13.9423 38.1908 13.9162C38.1542 13.8874 38.1268 13.8469 38.0849 13.8247L36.6131 12.9816L53.5177 3.21243ZM55.4796 3.19412L72.4143 12.9803L70.9412 13.8234C70.8902 13.8508 70.8576 13.8979 70.8132 13.9345C70.8093 13.9371 70.8053 13.9358 70.8027 13.9384L70.6367 14.0482C70.4929 14.1449 70.3949 14.277 70.3216 14.4207C70.3177 14.4246 70.3125 14.426 70.3099 14.4312L70.1988 14.5971C70.1805 14.6233 70.1792 14.6534 70.1648 14.6795C70.1491 14.7069 70.1256 14.7266 70.1126 14.7566L70.0315 14.9501C70.0158 14.9814 70.0197 15.0154 70.0093 15.0481C69.9988 15.0795 69.9792 15.1056 69.9714 15.1397L69.9427 15.2769C69.94 15.2887 69.9439 15.2991 69.9427 15.3095C69.9413 15.3187 69.9348 15.3265 69.9334 15.3357L68.5428 25.2029L55.4796 17.6675V3.19412ZM74.3632 14.124L87.6864 21.8044L86.2159 22.6462C86.1767 22.6685 86.1545 22.7038 86.1192 22.7299C86.0852 22.7573 86.0459 22.7665 86.0146 22.7979L85.9675 22.845L85.8709 22.922C85.8381 22.9495 85.8224 22.9874 85.7911 23.0161C85.7611 23.0475 85.7205 23.0671 85.6944 23.1024L85.6133 23.2122C85.6094 23.22 85.6081 23.2292 85.6028 23.2371C85.5964 23.2462 85.5859 23.2488 85.5807 23.258L85.4709 23.4239C85.4447 23.4671 85.4369 23.5168 85.416 23.5599C85.3937 23.6057 85.3611 23.641 85.3467 23.6919L85.3036 23.841L85.267 23.9337C85.2513 23.9716 85.2552 24.0121 85.246 24.0501C85.2342 24.088 85.2121 24.1206 85.2068 24.1611L83.8292 34.0179L70.3701 26.259L71.8666 15.6585L71.8732 15.6272L71.881 15.6102L71.9411 15.5213C71.9477 15.5161 71.9516 15.5095 71.9595 15.5017C71.9686 15.4938 71.9804 15.4899 71.9908 15.4808L74.3632 14.124ZM89.6496 22.9416L89.6614 22.9455L103.703 30.7645L101.901 31.7958C101.862 31.8181 101.84 31.8534 101.804 31.8796C101.77 31.907 101.731 31.9161 101.699 31.9475L101.652 31.9945L101.556 32.0717C101.523 32.0991 101.507 32.137 101.476 32.1658C101.447 32.1972 101.405 32.2168 101.38 32.2521L101.299 32.3619C101.295 32.3697 101.294 32.3788 101.288 32.3867C101.283 32.3958 101.271 32.3984 101.266 32.4076L101.156 32.5736C101.13 32.6168 101.122 32.6664 101.101 32.7095C101.079 32.7553 101.047 32.7906 101.032 32.8415L100.989 32.9906L100.952 33.0834C100.937 33.1212 100.941 33.1618 100.931 33.1997C100.919 33.2376 100.898 33.2702 100.892 33.3108L99.5771 42.7192L85.6761 34.9799L87.1335 24.5507L87.1439 24.5219C87.1492 24.5088 87.1465 24.4958 87.1517 24.4814C87.157 24.4631 87.1701 24.4513 87.1753 24.4331L87.1897 24.3846L87.1963 24.3742L87.2289 24.3468C87.2446 24.3363 87.2498 24.318 87.2629 24.3062L89.6496 22.9416ZM92.3579 56.0097L87.987 53.5615L101.28 45.9046L105.69 48.3593L92.3579 56.0097ZM76.5382 65.0835L72.1974 62.6523L86.0172 54.6948L90.413 57.1233L76.5382 65.0835ZM120.226 40.0227L107.67 47.2248L101.415 43.7427L102.819 33.7003L102.829 33.6716C102.835 33.6584 102.832 33.6454 102.837 33.631C102.843 33.6128 102.855 33.601 102.86 33.5827L102.875 33.5343L102.882 33.5238L102.914 33.4964C102.93 33.4859 102.935 33.4677 102.948 33.4559L105.707 31.8796L119.666 39.6528V39.7011L120.226 40.0227ZM122.28 39.9966C122.28 39.9678 122.266 39.943 122.265 39.9155C122.262 39.8881 122.27 39.8619 122.266 39.8344L122.238 39.6685C122.237 39.6646 122.234 39.6619 122.234 39.658C122.233 39.6528 122.235 39.6489 122.234 39.6437L122.208 39.5064C122.196 39.4489 122.163 39.4031 122.143 39.3496C122.12 39.296 122.114 39.2398 122.084 39.1888L122.002 39.0516C121.994 39.0398 121.979 39.0306 121.968 39.0163C121.96 39.0019 121.959 38.9874 121.948 38.9718L121.869 38.862C121.853 38.8411 121.827 38.832 121.814 38.8124C121.796 38.7928 121.79 38.7705 121.772 38.7509L121.662 38.6411C121.645 38.6267 121.623 38.6215 121.608 38.6071C121.591 38.5914 121.582 38.5718 121.564 38.5575L121.453 38.4738C121.435 38.4607 121.415 38.4581 121.395 38.4463C121.376 38.4333 121.368 38.4149 121.348 38.4045L120.972 38.1902V38.134L90.5828 21.2137C90.5632 21.2019 90.5397 21.2019 90.5188 21.1915C90.498 21.181 90.4848 21.164 90.4627 21.1549L90.3254 21.0986C90.298 21.0869 90.2679 21.0908 90.2404 21.0817C90.2182 21.0725 90.2025 21.0542 90.1803 21.0476C90.1437 21.0359 90.1058 21.0424 90.0718 21.0346C90.0431 21.0255 90.0221 21.0072 89.9921 20.9993C89.9607 20.9915 89.9267 21.0006 89.8941 20.9967C89.8745 20.9731 89.8666 20.9444 89.8444 20.9222L89.762 20.8412L89.6562 20.7366C89.6405 20.7183 89.6182 20.7131 89.6 20.6986C89.5829 20.683 89.5725 20.6608 89.5542 20.6464L89.4444 20.564C89.4274 20.551 89.4065 20.5484 89.3895 20.5366C89.3712 20.5248 89.3633 20.5079 89.3437 20.4974L75.2808 12.3908C75.2729 12.3869 75.2651 12.3869 75.2585 12.383C75.2494 12.3791 75.2442 12.3699 75.2364 12.3659L75.1266 12.3098C75.0795 12.285 75.0337 12.2862 74.9854 12.2718C74.9553 12.2575 74.9318 12.234 74.8991 12.2235C74.8874 12.2196 74.8756 12.2235 74.8639 12.2196C74.8494 12.2157 74.8403 12.2052 74.8286 12.2026L74.7188 12.1752C74.6835 12.1673 74.6534 12.1764 74.6194 12.1725C74.5998 12.1464 74.5906 12.1164 74.5658 12.0928L74.4848 12.0144L74.3867 11.915C74.3684 11.8954 74.3463 11.8902 74.3266 11.8745C74.3083 11.8601 74.2992 11.8366 74.2809 11.8209L74.1711 11.7385C74.1527 11.7255 74.1319 11.7229 74.1149 11.7111C74.0966 11.7007 74.0861 11.6824 74.0691 11.6719L56.0378 1.2531C56.0182 1.24395 55.9999 1.24525 55.9829 1.23479C55.9646 1.22565 55.9555 1.20996 55.9372 1.20342L55.7437 1.11976C55.7163 1.108 55.6889 1.11062 55.6627 1.10147C55.6352 1.09231 55.6143 1.07402 55.5855 1.06618L55.4967 1.04396L55.3163 0.992978C55.1816 0.955072 55.047 0.948541 54.9164 0.96684C54.9124 0.968147 54.9098 0.96684 54.9071 0.96684L54.7164 0.992978C54.6471 1.00343 54.5895 1.03742 54.5255 1.06226L54.4954 1.04918C54.464 1.03611 54.4287 1.04135 54.3974 1.0322C54.3647 1.02436 54.3399 1.00344 54.3046 0.996907L54.1386 0.97076C54.1321 0.969452 54.1255 0.972066 54.1177 0.97076C54.0641 0.961609 54.0092 0.973372 53.9543 0.973372C53.8758 0.974679 53.8013 0.972065 53.7256 0.991672C53.719 0.992979 53.7125 0.991671 53.706 0.992978L53.5138 1.04788C53.5033 1.05049 53.4955 1.05964 53.4864 1.06356C53.472 1.06618 53.4563 1.06094 53.442 1.06487C53.4131 1.07402 53.3896 1.09231 53.3622 1.10277C53.3334 1.11192 53.306 1.10931 53.2785 1.12108L53.089 1.20473C53.0707 1.21257 53.0602 1.22826 53.0433 1.23479C53.0263 1.24525 53.0092 1.24525 52.9923 1.2531L34.961 11.6745C34.9414 11.685 34.9322 11.702 34.9165 11.7125C34.8996 11.7242 34.8799 11.7255 34.863 11.7385L34.7518 11.8209C34.7309 11.8366 34.7218 11.8601 34.7035 11.8758C34.6852 11.8928 34.6604 11.8993 34.642 11.9176L34.5322 12.0287C34.5258 12.034 34.5258 12.0419 34.5205 12.0483C34.5074 12.0575 34.4996 12.0745 34.4905 12.0823C34.4787 12.0915 34.4656 12.0954 34.4552 12.1059C34.4329 12.1281 34.4264 12.1542 34.4094 12.1777C34.3675 12.1843 34.327 12.1921 34.2878 12.2026C34.2591 12.2065 34.2277 12.1987 34.1989 12.2065C34.1872 12.2091 34.178 12.2183 34.1675 12.2222C34.1545 12.2248 34.144 12.2222 34.131 12.2262L34.0486 12.2536C34.0356 12.2575 34.029 12.2679 34.016 12.2732C34.0042 12.2771 33.9911 12.2745 33.9807 12.2797L33.8435 12.3359C33.8212 12.3451 33.8094 12.3634 33.7872 12.3725C33.7663 12.3816 33.744 12.383 33.7232 12.3948L19.6615 20.5C19.5713 20.5523 19.5034 20.6268 19.438 20.6974C19.4171 20.7143 19.3936 20.7209 19.3765 20.7392L19.3752 20.7418C19.3726 20.7418 19.3713 20.7432 19.3713 20.7432L19.2615 20.8529C19.255 20.8594 19.2537 20.8673 19.2471 20.8738C19.2354 20.8843 19.2275 20.8974 19.2184 20.9065C19.2079 20.9143 19.1961 20.917 19.1883 20.9261C19.1661 20.9496 19.1583 20.9784 19.136 21.0032C19.0968 21.0111 19.0576 21.0176 19.0184 21.028C18.9897 21.032 18.9583 21.0241 18.9282 21.032C18.9165 21.0346 18.9086 21.0437 18.8981 21.0464C18.8877 21.0503 18.8746 21.0464 18.8642 21.0503L18.7819 21.0777C18.7662 21.0817 18.7583 21.0934 18.7466 21.0973C18.7334 21.1025 18.7217 21.1 18.7086 21.1052L18.5714 21.1614C18.5491 21.1706 18.5361 21.1888 18.5152 21.198C18.4942 21.2071 18.4721 21.2084 18.4525 21.2202L4.78941 28.9921C4.72145 29.0313 4.6757 29.0889 4.6208 29.1411C4.60773 29.149 4.59335 29.1516 4.58289 29.1607L4.44565 29.2719C4.4182 29.2941 4.40775 29.3242 4.38291 29.3477C4.35938 29.366 4.33716 29.3791 4.31625 29.4013C4.30841 29.4052 4.29925 29.4078 4.29403 29.4144C4.2509 29.4562 4.23129 29.5072 4.19862 29.5516C4.16593 29.596 4.12149 29.6327 4.09666 29.6849L4.01692 29.8509C3.99601 29.8915 3.99601 29.932 3.98425 29.9738C3.97117 30.013 3.94373 30.047 3.93458 30.0888L3.90713 30.2261C3.90713 30.2326 3.90975 30.2391 3.90713 30.2457C3.90713 30.2509 3.90321 30.2535 3.9019 30.2587L3.87445 30.4248C3.86922 30.4522 3.87968 30.4783 3.87707 30.5057C3.87445 30.5332 3.85877 30.5581 3.85877 30.5868V35.5616C3.80779 35.5799 3.7738 35.6139 3.72805 35.6374C3.698 35.6504 3.66009 35.6504 3.62872 35.6649C3.61957 35.6701 3.61435 35.6779 3.60519 35.6832C3.59604 35.6884 3.5882 35.6871 3.57774 35.6923L1.12433 37.0974C1.10472 37.1079 1.09558 37.1262 1.07859 37.1393C1.05767 37.151 1.03807 37.1537 1.01977 37.1667L0.90867 37.2503C0.890368 37.2647 0.881221 37.2843 0.86684 37.2988C0.848538 37.3144 0.827628 37.3196 0.813246 37.334L0.702147 37.4438C0.682541 37.4621 0.676003 37.4856 0.660318 37.5052C0.645939 37.5248 0.619799 37.534 0.604114 37.5549L0.52438 37.6647C0.513924 37.6804 0.512618 37.6948 0.503469 37.7091C0.493012 37.7235 0.479939 37.7326 0.470789 37.7444L0.388443 37.8816C0.35838 37.9326 0.351846 37.9889 0.330933 38.0424C0.310019 38.096 0.277342 38.1418 0.266886 38.1993L0.23813 38.3365C0.236824 38.3418 0.239437 38.3457 0.23813 38.3509C0.23813 38.3549 0.235514 38.3575 0.234206 38.3614L0.208064 38.5274C0.202836 38.5548 0.213296 38.581 0.210681 38.6085C0.208068 38.6359 0.192383 38.6607 0.192383 38.6894V56.0032C0.192383 56.0332 0.208068 56.0567 0.210681 56.0856C0.213296 56.1116 0.202836 56.1391 0.208064 56.1653L0.234206 56.3312C0.235514 56.3351 0.23813 56.3391 0.23813 56.343C0.239437 56.3469 0.236824 56.3522 0.23813 56.3574L0.266886 56.4934C0.287799 56.6084 0.330932 56.7142 0.387137 56.8083L0.388443 56.811C0.38975 56.8135 0.392367 56.8162 0.392367 56.8162L0.472096 56.9495C0.481245 56.9625 0.494321 56.9665 0.500855 56.977C0.511312 56.9939 0.513923 57.0135 0.525687 57.0292L0.606727 57.139C0.619797 57.1573 0.642021 57.1639 0.655093 57.1796C0.673391 57.2005 0.681234 57.2279 0.70084 57.2463L0.811942 57.3573C0.828931 57.3757 0.851155 57.3809 0.869448 57.3965C0.88775 57.4122 0.896907 57.4331 0.917817 57.4502L1.02892 57.5311C1.04591 57.5521 1.06813 57.5573 1.08643 57.5678C1.1008 57.5782 1.10865 57.5926 1.12303 57.6004L19.7622 68.3538C19.7779 68.3643 19.7975 68.3604 19.8157 68.3682C19.8419 68.3827 19.8602 68.4048 19.8889 68.4166L20.0262 68.4715C20.0536 68.4832 20.085 68.4793 20.1124 68.4885C20.1333 68.4964 20.1477 68.5146 20.17 68.5199C20.2066 68.5317 20.2458 68.5303 20.2811 68.5381C20.3033 68.5447 20.3176 68.5604 20.3386 68.5656C20.4196 68.5866 20.5019 68.5957 20.583 68.5957C20.6039 68.5957 20.6209 68.5866 20.6418 68.5852C20.6588 68.5866 20.6732 68.5957 20.6915 68.5957C20.7111 68.5957 20.7268 68.5852 20.7464 68.5839C20.766 68.5852 20.783 68.5957 20.8026 68.5957C20.868 68.5957 20.9241 68.5695 20.9856 68.5604C21.0418 68.5565 21.0993 68.5538 21.1542 68.5381C21.1646 68.5356 21.1725 68.5277 21.1817 68.5251C21.1934 68.5212 21.2065 68.5224 21.2182 68.5185L21.2993 68.4911C21.3594 68.4702 21.4025 68.431 21.4562 68.4023C21.4836 68.3918 21.515 68.397 21.5411 68.3813C21.5528 68.3761 21.5594 68.3656 21.5685 68.3604C21.5763 68.3565 21.5842 68.3578 21.592 68.3538L54.2092 49.6298C54.2562 49.6037 54.289 49.5579 54.3282 49.5253L54.451 49.4508C54.4719 49.4376 54.4836 49.4155 54.5059 49.3998C54.5255 49.4155 54.5373 49.4376 54.5608 49.4508L54.5987 49.4756L54.6027 49.4795C54.6353 49.5121 54.6772 49.5253 54.7124 49.554C54.7438 49.5775 54.7647 49.6102 54.8 49.6311L68.8617 57.7364C68.8786 57.7468 68.897 57.7416 68.9139 57.7507C68.9414 57.7639 68.9558 57.7847 68.9819 57.7952L69.1192 57.8514C69.1466 57.8632 69.1754 57.8592 69.2015 57.8684C69.2224 57.8776 69.2368 57.8933 69.2577 57.8997C69.2734 57.905 69.2878 57.9037 69.3035 57.9076C69.3192 57.9115 69.327 57.922 69.3388 57.9246L69.4486 57.9521C69.4786 57.9599 69.5074 57.9585 69.5388 57.9638C69.5505 57.9835 69.5714 57.9926 69.5858 58.0083C69.6315 58.0658 69.6668 58.1298 69.7256 58.1769L69.8642 58.2879L69.8668 58.2893C69.8721 58.2958 69.8734 58.3036 69.8799 58.3102C69.9099 58.3389 69.9505 58.3521 69.9831 58.3781C70.0158 58.403 70.0368 58.4357 70.0721 58.4566L72.9032 59.9963L56.5881 69.3943C55.1856 68.5905 53.8576 67.8506 53.0041 67.4232L51.8747 67.0076H50.7833C50.7532 67.0206 50.7153 67.0206 50.6839 67.035C50.6748 67.0402 50.6696 67.048 50.6604 67.0533C50.6513 67.0585 50.6434 67.0573 50.633 67.0625L48.1796 68.4676C48.16 68.478 48.1508 68.4964 48.1338 68.5094C48.113 68.5212 48.0933 68.5238 48.075 68.5369L47.9639 68.6205C47.9456 68.6349 47.9365 68.6545 47.9221 68.6689C47.9038 68.6846 47.8829 68.6898 47.8685 68.7042L47.7574 68.814C47.7378 68.8322 47.7312 68.8558 47.7155 68.8754C47.7012 68.895 47.675 68.9042 47.6594 68.9251L47.5797 69.0349C47.5692 69.0506 47.5679 69.065 47.5587 69.0793C47.5483 69.0937 47.5352 69.1028 47.526 69.1146L47.4437 69.2518C47.4136 69.3028 47.4071 69.3591 47.3861 69.4126C47.3653 69.4662 47.3326 69.512 47.3221 69.5694L47.2934 69.7067C47.292 69.712 47.2947 69.7159 47.2934 69.7211C47.2934 69.725 47.2908 69.7277 47.2895 69.7316L47.2633 69.8975C47.2581 69.925 47.2685 69.9512 47.266 69.9786C47.2633 70.0061 47.2476 70.0309 47.2476 70.0596V87.3734C47.2476 87.4034 47.2633 87.4269 47.266 87.4557C47.2685 87.4818 47.2581 87.5092 47.2633 87.5354L47.2895 87.7014C47.2908 87.7053 47.2934 87.7092 47.2934 87.7131C47.2947 87.7171 47.292 87.7224 47.2934 87.7276L47.3221 87.8635C47.343 87.9785 47.3861 88.0844 47.4424 88.1785L47.4437 88.1812C47.445 88.1837 47.4476 88.1863 47.4476 88.1863L47.5273 88.3197C47.5365 88.3327 47.5496 88.3366 47.5561 88.3471C47.5665 88.3641 47.5692 88.3837 47.5809 88.3994L47.662 88.5092C47.675 88.5275 47.6973 88.5341 47.7103 88.5498C47.7287 88.5706 47.7365 88.5981 47.7561 88.6164L47.8672 88.7275C47.8841 88.7458 47.9064 88.751 47.9247 88.7667C47.943 88.7824 47.9522 88.8033 47.9731 88.8203L48.0841 88.9013C48.1012 88.9223 48.1233 88.9275 48.1417 88.938C48.1561 88.9483 48.1639 88.9628 48.1782 88.9706L66.8174 99.7241C66.8331 99.7349 66.8527 99.731 66.8709 99.7388C66.8971 99.7525 66.9154 99.7751 66.9442 99.7868L67.0814 99.8417C67.1089 99.8535 67.1402 99.8496 67.1677 99.8584C67.1886 99.8662 67.203 99.8849 67.2252 99.8898C67.2618 99.9015 67.301 99.9006 67.3363 99.9084C67.3586 99.9153 67.3729 99.9319 67.3938 99.9358C67.4748 99.9564 67.5572 99.9662 67.6382 99.9662C67.6591 99.9662 67.6762 99.9564 67.697 99.9554C67.714 99.9564 67.7284 99.9662 67.7467 99.9662C67.7664 99.9662 67.782 99.9554 67.8017 99.9545C67.8213 99.9554 67.8382 99.9662 67.8578 99.9662C67.9232 99.9662 67.9794 99.9398 68.0408 99.9309C68.097 99.927 68.1546 99.9241 68.2095 99.9084C68.2198 99.9055 68.2277 99.8976 68.2369 99.8957C68.2487 99.8917 68.2617 99.8927 68.2735 99.8888L68.3545 99.8613C68.4146 99.8408 68.4578 99.8015 68.5114 99.7721C68.5388 99.7623 68.5702 99.7672 68.5963 99.7515C68.6081 99.7466 68.6394 99.728 68.6473 99.7241L72.0352 97.6327L120.972 69.7394V69.5826L121.349 69.3643C121.364 69.3564 121.371 69.342 121.387 69.3316C121.404 69.3211 121.426 69.3159 121.446 69.2949L121.556 69.214C121.575 69.1969 121.584 69.176 121.604 69.1603C121.621 69.1447 121.643 69.1395 121.663 69.1211L121.774 69.0101C121.791 68.9917 121.799 68.9643 121.819 68.9434C121.831 68.9277 121.853 68.9212 121.866 68.9028L121.947 68.793C121.959 68.7773 121.961 68.7577 121.971 68.7408C121.979 68.7303 121.992 68.7264 122 68.7133L122.08 68.58C122.08 68.58 122.082 68.5773 122.084 68.5748C122.084 68.5748 122.084 68.5734 122.086 68.5722C122.143 68.478 122.184 68.3722 122.208 68.2572L122.234 68.1212C122.235 68.116 122.233 68.1107 122.234 68.1068C122.234 68.1029 122.237 68.099 122.238 68.095L122.266 67.9291C122.27 67.9029 122.262 67.8754 122.265 67.8494C122.266 67.8205 122.28 67.797 122.28 67.767V39.9966Z" fill="#264f68"/>
</svg>
