<svg width="105" height="101" viewBox="0 0 105 101" fill="none" xmlns="http://www.w3.org/2000/svg">
<g clip-path="url(#clip0_103_975)">
<path d="M42.9854 41.6484L70.6812 24.79L98.377 41.6484V48.8734L71.8853 63.3234V58.5067L69.477 56.0984L42.9854 41.6484Z" fill="#ABCAE5"/>
<path d="M104.462 28.5932L104.405 28.2753C104.403 28.2705 104.401 28.2681 104.401 28.2633C104.4 28.2597 104.401 28.2549 104.401 28.25L104.354 28.0225C104.343 27.9683 104.311 27.9261 104.293 27.8743C104.273 27.8238 104.271 27.7696 104.244 27.7202L104.095 27.4445C104.086 27.4288 104.071 27.4204 104.063 27.4047C104.054 27.3891 104.053 27.3734 104.043 27.3578L103.906 27.153C103.877 27.1097 103.831 27.0844 103.799 27.0447C103.764 27.0061 103.744 26.9616 103.703 26.9267L103.487 26.7424C103.481 26.7388 103.476 26.7388 103.471 26.734C103.467 26.7316 103.467 26.7268 103.461 26.7244L103.29 26.5871C103.265 26.569 103.24 26.5654 103.219 26.5498C103.194 26.5329 103.181 26.51 103.155 26.4956L69.8968 7.29514C69.8764 7.2831 69.8547 7.2831 69.833 7.27226C69.8089 7.26263 69.8005 7.24577 69.7776 7.23614L69.5573 7.14341C69.5356 7.13499 69.5151 7.1386 69.4934 7.13017C69.4898 7.12776 69.4862 7.12535 69.4826 7.12535L69.2069 5.13487C69.2044 5.11319 69.19 5.09994 69.1864 5.07947C69.1816 5.059 69.1888 5.04214 69.1828 5.02167L69.1262 4.79288L69.0335 4.42682C69.0178 4.3654 68.9805 4.31965 68.9576 4.26546C68.9335 4.21007 68.9275 4.15227 68.8914 4.09928L68.6963 3.80185C68.6891 3.79102 68.677 3.785 68.671 3.77536C68.6614 3.76332 68.6614 3.75128 68.6517 3.74044L68.5157 3.55861C68.4916 3.52851 68.4567 3.51165 68.4314 3.48395C68.4061 3.45626 68.394 3.42013 68.3627 3.39485L68.1014 3.16726C68.081 3.1504 68.0593 3.14558 68.04 3.13234C68.0195 3.11789 68.0099 3.09742 67.9906 3.08297L67.8185 2.96857C67.8064 2.96255 67.7968 2.96255 67.7871 2.95533C67.7775 2.9493 67.7727 2.93967 67.7619 2.93365L63.3606 0.372389C63.3377 0.357939 63.3101 0.357939 63.2848 0.345897C63.2595 0.33506 63.245 0.313385 63.2185 0.302547L62.9909 0.212235C62.9717 0.203806 62.9548 0.207418 62.9344 0.200193C62.9151 0.194172 62.9055 0.180926 62.885 0.17611L62.7248 0.129147C62.7176 0.126739 62.7116 0.129147 62.7068 0.127943C62.7007 0.125535 62.6959 0.119514 62.6887 0.11831L62.5057 0.0737557C62.4611 0.0629182 62.4178 0.0737557 62.3744 0.0677349C62.3299 0.0617141 62.2901 0.0400391 62.2456 0.0400391H62.0385H61.8458C61.8 0.0400391 61.7591 0.0617141 61.7145 0.0665307C61.6724 0.0713474 61.6302 0.0617141 61.5833 0.0725515L61.4039 0.117106C61.3966 0.11831 61.3906 0.124331 61.3858 0.126739C61.3786 0.127943 61.3713 0.125535 61.3653 0.127943L61.2052 0.172497C61.1847 0.178518 61.1739 0.192968 61.1558 0.198989C61.1353 0.203806 61.1197 0.200193 61.1004 0.208622L60.8728 0.298935C60.8487 0.309772 60.8331 0.330243 60.8078 0.339876C60.7825 0.353122 60.7548 0.353122 60.7307 0.366368L35.6528 14.8609C35.6335 14.873 35.6227 14.891 35.6046 14.9043C35.5865 14.9163 35.5637 14.9187 35.5468 14.932L35.365 15.068C35.3505 15.0789 35.3457 15.0921 35.3325 15.103C35.3204 15.115 35.3036 15.1174 35.2915 15.1282L35.0868 15.3113C35.0591 15.3366 35.0471 15.3703 35.023 15.3944C34.9989 15.4221 34.9652 15.4377 34.9435 15.4666L34.8062 15.6484C34.7894 15.6713 34.7858 15.6978 34.7713 15.7219C34.7581 15.7424 34.7364 15.7556 34.7256 15.7785C34.7003 15.7797 34.6774 15.7689 34.6533 15.7725L34.4594 15.7941C34.4342 15.7978 34.4137 15.8134 34.3908 15.8182C34.3667 15.823 34.3438 15.8158 34.321 15.8218L34.1379 15.8688C34.1343 15.87 34.1331 15.8724 34.1295 15.8736C34.1247 15.8748 34.1199 15.8736 34.1151 15.8748L33.9561 15.9182C33.9344 15.9254 33.92 15.9411 33.8995 15.9459C33.8802 15.9531 33.8598 15.9495 33.8405 15.9579L33.6117 16.0494C33.5876 16.0591 33.5708 16.0807 33.5491 16.0916C33.525 16.1036 33.4985 16.1024 33.4756 16.1157L8.38323 30.5897C8.35914 30.6042 8.34469 30.6271 8.32182 30.6427C8.29773 30.6608 8.27004 30.6656 8.24716 30.6825L8.07617 30.8197C8.06894 30.827 8.06653 30.8354 8.0581 30.8426C8.05208 30.8462 8.04365 30.8474 8.03643 30.8546L7.82931 31.0377C7.79439 31.0678 7.77633 31.1111 7.74622 31.1473C7.71491 31.1834 7.67397 31.2063 7.64628 31.246L7.51021 31.4519C7.50057 31.4676 7.49937 31.4832 7.49094 31.4989C7.48131 31.5145 7.46565 31.523 7.45722 31.5386L7.30911 31.8132C7.28262 31.8637 7.28021 31.9167 7.26215 31.9673C7.24288 32.0191 7.21157 32.0612 7.20074 32.1166L7.15498 32.3442C7.15377 32.3478 7.15498 32.3514 7.15498 32.3562C7.15498 32.3611 7.15137 32.3635 7.15016 32.3671L7.09236 32.6874C7.08754 32.7199 7.09718 32.7512 7.09477 32.7837C7.09116 32.8162 7.0755 32.8451 7.0755 32.8776V42.2725L6.931 42.3039L6.8154 42.3219C6.75399 42.3316 6.70342 42.3641 6.64562 42.3821C6.58541 42.4014 6.52399 42.405 6.46499 42.4351L6.24824 42.5495C6.24222 42.5531 6.2374 42.5603 6.23138 42.564C6.22657 42.5676 6.21814 42.5676 6.21212 42.57L1.84701 45.0843C1.82293 45.0975 1.80848 45.1228 1.7856 45.1385C1.76152 45.1541 1.73262 45.1589 1.70854 45.1782L1.53754 45.3167C1.53393 45.3191 1.53273 45.3251 1.52791 45.3287C1.5255 45.3311 1.52189 45.3311 1.51948 45.3335L1.30273 45.5142C1.2642 45.5467 1.24493 45.5912 1.21121 45.6286C1.1775 45.6647 1.13294 45.6912 1.10404 45.7333L0.978811 45.9164C0.967973 45.9332 0.966769 45.9513 0.957136 45.9681C0.945094 45.9862 0.92944 45.9934 0.919807 46.0115L0.771694 46.286C0.748815 46.3282 0.747611 46.3727 0.731957 46.4161C0.713894 46.4594 0.684994 46.4932 0.672953 46.5389L0.615153 46.7677C0.61154 46.787 0.616357 46.8038 0.613948 46.8231C0.610336 46.8424 0.59709 46.8556 0.594682 46.8761L0.548923 47.1976C0.545311 47.2229 0.556148 47.2482 0.55374 47.2734C0.552536 47.2999 0.538086 47.3228 0.538086 47.3505V78.2121C0.538086 78.2386 0.552536 78.2615 0.55374 78.288C0.556148 78.3132 0.545311 78.3397 0.548923 78.365L0.594682 78.6877C0.598294 78.7082 0.610336 78.7227 0.613948 78.7443C0.617561 78.76 0.612744 78.7756 0.616357 78.7961L0.674157 79.0225C0.688607 79.0827 0.719915 79.1297 0.743998 79.1814C0.75604 79.2115 0.75604 79.2477 0.772898 79.2778L0.921011 79.5511C0.933052 79.5728 0.949911 79.5885 0.963156 79.6101C0.970381 79.621 0.971586 79.6354 0.980015 79.6475L1.10525 79.8305C1.14258 79.8847 1.18713 79.928 1.23048 79.9726C1.24132 79.9834 1.24373 79.9979 1.25456 80.0063L1.47131 80.211C1.4954 80.2351 1.52671 80.2411 1.5532 80.2628C1.57608 80.2821 1.58932 80.3073 1.61581 80.3254L1.78681 80.4398C1.79885 80.447 1.81209 80.4518 1.82293 80.4567C1.83256 80.4639 1.83738 80.4723 1.84701 80.4783L35.1085 99.6812C35.1193 99.6884 35.1326 99.6908 35.1458 99.698C35.153 99.7004 35.1579 99.7101 35.1651 99.7149L35.3939 99.8281C35.4348 99.8485 35.477 99.8425 35.5167 99.8558C35.5853 99.8799 35.648 99.9196 35.7226 99.9292L35.8274 99.9449L35.9646 99.9786C35.9935 99.9858 36.0237 99.9846 36.0526 99.9894C36.067 99.9906 36.0778 100 36.0911 100.003L36.2874 100.027C36.3295 100.032 36.3705 100.032 36.4126 100.032H36.415H36.4174C36.4559 100.032 36.4957 100.032 36.5366 100.027L36.7413 100.003C36.7546 100.001 36.7642 99.9918 36.7775 99.9906C36.81 99.9846 36.8437 99.987 36.8738 99.9786L37.0099 99.9461L37.117 99.9292C37.1929 99.9196 37.2543 99.8799 37.3242 99.8558C37.3639 99.8401 37.406 99.8449 37.4458 99.8281L37.6746 99.7149C37.6818 99.7101 37.6866 99.7004 37.6938 99.698C37.7059 99.6908 37.7191 99.6884 37.7312 99.6812L42.0866 97.1669C42.1047 97.1572 42.1131 97.1416 42.13 97.1295C42.1517 97.1151 42.1757 97.1103 42.1962 97.097L42.3804 96.9585C42.3913 96.9489 42.3973 96.9345 42.4081 96.926C42.4214 96.9164 42.4358 96.914 42.4479 96.9044L42.6526 96.7213C42.6863 96.6936 42.7007 96.6527 42.7296 96.6202C42.7513 96.5961 42.7826 96.5865 42.8031 96.5588L42.9404 96.3733C42.9524 96.3577 42.9536 96.3396 42.9645 96.3227C42.9789 96.2987 42.9982 96.2818 43.0114 96.2565C43.0379 96.2565 43.0644 96.2565 43.0909 96.2517L43.286 96.2288C43.298 96.2276 43.3077 96.218 43.3197 96.2156C43.345 96.2132 43.3727 96.2156 43.398 96.2084L43.5918 96.1638C43.6015 96.1614 43.6063 96.1542 43.6159 96.1518C43.628 96.1494 43.6412 96.1518 43.6544 96.1469L43.8134 96.1C43.8339 96.0952 43.8471 96.0771 43.8676 96.0735C43.8881 96.0651 43.9085 96.0687 43.929 96.0602L44.147 95.9687C44.1638 95.9639 44.1722 95.9495 44.1879 95.9434C44.2144 95.929 44.2445 95.923 44.2698 95.9109L69.3574 81.4393C69.3803 81.4236 69.3899 81.4067 69.4116 81.3923C69.4368 81.373 69.4682 81.367 69.4922 81.3477L69.6632 81.2117C69.6729 81.2044 69.6765 81.1924 69.6849 81.1876C69.6933 81.1792 69.7042 81.1755 69.7102 81.1683L69.9101 80.9925C69.9125 80.9901 69.9149 80.9877 69.9173 80.9853C69.9835 80.9251 70.0425 80.8588 70.0931 80.7806L70.2316 80.5759C70.2388 80.565 70.2388 80.5518 70.246 80.5409C70.2533 80.5301 70.2629 80.5205 70.2701 80.5108H70.4182C70.5025 80.5108 70.5868 80.4988 70.6699 80.4807L70.865 80.4338C70.8698 80.4326 70.8722 80.429 70.8794 80.4278C70.8867 80.4254 70.8951 80.4266 70.9035 80.4241L71.0613 80.3796C71.0866 80.3736 71.1034 80.3555 71.1287 80.3471C71.1504 80.3399 71.1721 80.3447 71.1961 80.3326L71.4129 80.2411C71.4285 80.2363 71.437 80.2218 71.449 80.2158C71.4755 80.2026 71.5068 80.1978 71.5333 80.1821L96.6221 65.69C96.6438 65.6755 96.6522 65.655 96.6751 65.6406C96.7004 65.6237 96.7293 65.6177 96.7533 65.5984L96.9268 65.4624C96.9292 65.46 96.9304 65.4552 96.9352 65.4503C96.9388 65.4479 96.9472 65.4455 96.952 65.4431L97.1676 65.2601C97.2158 65.2191 97.241 65.1637 97.2808 65.1168C97.3061 65.0915 97.3386 65.0783 97.359 65.0481L97.4855 64.8651C97.4951 64.8531 97.4951 64.8374 97.5048 64.823C97.5144 64.8085 97.5276 64.7977 97.5337 64.7808C97.5565 64.7796 97.5794 64.7796 97.6011 64.7772L97.8058 64.7543C97.8239 64.7519 97.8347 64.7423 97.8503 64.7399C97.8865 64.7351 97.9214 64.7351 97.9563 64.7254L98.1406 64.6785C98.1442 64.6773 98.1466 64.6737 98.1514 64.6737C98.1586 64.6712 98.1634 64.6724 98.1731 64.6712L98.3308 64.6255C98.3501 64.6195 98.3609 64.605 98.3826 64.6002C98.4019 64.5954 98.4199 64.5954 98.4392 64.5882L98.6668 64.4966C98.6848 64.4894 98.6921 64.475 98.7089 64.4689C98.7402 64.4545 98.7752 64.4473 98.8053 64.4316L103.16 61.9161C103.182 61.9029 103.192 61.8824 103.215 61.8679C103.24 61.8511 103.269 61.8463 103.293 61.8258L103.464 61.6897C103.469 61.6873 103.471 61.6825 103.474 61.6777C103.479 61.6753 103.483 61.6729 103.491 61.6705L103.706 61.4874C103.746 61.4537 103.764 61.4104 103.797 61.3742C103.821 61.3489 103.853 61.3393 103.874 61.3092L104.01 61.1274C104.024 61.1093 104.027 61.0901 104.035 61.0708C104.06 61.0335 104.092 60.9997 104.111 60.9576L104.26 60.6602C104.277 60.6289 104.277 60.5927 104.285 60.5566C104.306 60.5084 104.335 60.4663 104.348 60.4133L104.393 60.2074C104.395 60.1978 104.393 60.1881 104.394 60.1797C104.396 60.1701 104.403 60.1604 104.406 60.1508L104.464 59.8076C104.47 59.7787 104.456 59.7486 104.459 59.7197C104.462 59.6896 104.479 59.6619 104.479 59.6306V28.7859C104.479 28.751 104.461 28.7233 104.459 28.6896C104.456 28.6582 104.47 28.6269 104.462 28.5932ZM36.6763 97.7822L36.6113 97.8159C36.6065 97.8159 36.6029 97.8183 36.5992 97.8207C36.5824 97.8231 36.5643 97.8183 36.5475 97.8207L36.427 97.8484L36.4198 97.8508L36.4102 97.8484L36.2934 97.8207C36.2753 97.8183 36.2585 97.8231 36.2404 97.8207C36.2368 97.8183 36.2332 97.8159 36.2272 97.8159L36.1621 97.7822L2.95485 78.6107L2.89343 78.5697L2.826 78.5047L2.79831 78.465L2.74171 78.3602L2.73087 78.3181L2.70318 78.1314V47.4252L2.73087 47.2373L2.74171 47.1952L2.79831 47.0904L2.80914 47.0748L2.89103 47.0061C2.89223 47.0061 2.89223 47.0061 2.89343 47.0049L3.00422 46.917L7.26576 44.4629L7.32477 44.4316C7.34162 44.428 7.35607 44.4292 7.37173 44.4256L7.50539 44.3943L7.52225 44.3919L7.54031 44.3931L7.6523 44.4208C7.67518 44.4268 7.69685 44.4256 7.71853 44.4292L7.78837 44.4629L23.5509 53.5652L40.9812 63.6333L41.0522 63.6754L41.1113 63.7368L41.1582 63.8006L41.1883 63.8572L41.2028 63.9247L41.2401 64.1306V77.4077V94.7898L41.2377 94.7995C41.2365 94.8067 41.2389 94.8115 41.2377 94.8187C41.2365 94.8248 41.2341 94.8296 41.2329 94.8356L41.2016 95.0138L41.1895 95.0752L41.1594 95.133L41.1329 95.168L41.0462 95.2438L40.9475 95.3185L36.6763 97.7822ZM61.7543 2.2822L61.8494 2.24366L61.9397 2.21838L61.9794 2.20754H62.0409H62.1119L62.1649 2.22078L62.2408 2.24366L62.3419 2.2834L66.6456 4.78927L66.7311 4.84707L66.8551 4.95424L66.9021 5.01565L66.9767 5.13125L67.0237 5.32151L67.0683 5.49491L67.4476 8.20308V8.20429L69.8089 24.9759L45.1416 39.2296C45.1163 39.2453 45.1019 39.2694 45.0778 39.285C45.0561 39.3019 45.0272 39.3055 45.0055 39.3223L44.8345 39.4608C44.8092 39.4813 44.7972 39.5114 44.7731 39.5331C44.7514 39.5547 44.7237 39.5632 44.7033 39.5861L44.5961 39.7065L41.9457 20.8601C41.9445 20.8396 41.9313 20.8251 41.9265 20.8071C41.9229 20.7866 41.9289 20.7686 41.9253 20.7493L41.8675 20.5193C41.8651 20.5109 41.859 20.506 41.8566 20.4976C41.8542 20.488 41.8566 20.4783 41.8542 20.4711L41.7519 20.1291C41.7374 20.0834 41.7061 20.0521 41.6868 20.0087C41.6676 19.9666 41.664 19.9196 41.6399 19.8787L41.446 19.5584C41.4352 19.5427 41.4207 19.5367 41.4111 19.521C41.4015 19.5054 41.4003 19.4897 41.3894 19.4753L41.2533 19.291C41.2257 19.2549 41.1847 19.2356 41.1558 19.2031C41.1233 19.1706 41.1052 19.1285 41.0679 19.0984L40.8174 18.8937C40.8162 18.8925 40.815 18.8925 40.8138 18.8913C40.8126 18.8901 40.8114 18.8889 40.8102 18.8876L40.6392 18.7504C40.6163 18.7311 40.5886 18.7263 40.5646 18.7094C40.5417 18.695 40.5284 18.6697 40.5031 18.6552L36.9605 16.613L61.7543 2.2822ZM98.2309 41.9149L98.2923 41.9559L98.379 42.0353L98.4079 42.0775L98.4416 42.1413L98.4573 42.2087L98.4922 42.4134V47.2578L98.4548 47.4794L98.4428 47.5336L98.4007 47.6166L98.3922 47.6287L98.2923 47.7118C98.2923 47.713 98.2911 47.713 98.2899 47.713L98.1803 47.8009L96.3042 48.8774C96.3042 48.8786 96.3018 48.8774 96.3018 48.8786L73.3998 62.1003V58.0688C73.3998 58.0363 73.3853 58.0098 73.3817 57.9797C73.3793 57.9508 73.3901 57.9207 73.3853 57.8906L73.3275 57.5486C73.3251 57.5378 73.3179 57.5305 73.3155 57.5233C73.3131 57.5113 73.3179 57.5004 73.3155 57.4932L73.2709 57.2873C73.2613 57.2427 73.2324 57.209 73.2167 57.1657C73.1999 57.1235 73.2011 57.079 73.1818 57.0368L73.0325 56.7394C73.0168 56.7105 72.9903 56.69 72.9699 56.6635C72.9518 56.6346 72.9482 56.5997 72.9277 56.5744L72.7929 56.3926C72.7664 56.3589 72.7278 56.3396 72.7001 56.3095C72.6724 56.283 72.658 56.2433 72.6267 56.218L72.4099 56.0338C72.4051 56.0326 72.3979 56.0301 72.3943 56.0277C72.3907 56.0229 72.3883 56.0181 72.3834 56.0133L72.2112 55.8772C72.1884 55.858 72.1619 55.8531 72.139 55.8399C72.1161 55.823 72.1029 55.8002 72.0776 55.7857L46.4481 40.9781L71.2395 26.6509L71.3659 26.6003L71.4285 26.5762L71.4912 26.5606L71.5128 26.5594H71.5201L71.6393 26.5871C71.6393 26.5871 71.6405 26.5883 71.6417 26.5883L71.7163 26.6076L71.803 26.6509L98.2309 41.9149ZM45.9845 77.9399L45.8797 77.9821L45.775 78.0098L45.7557 78.0146H45.6847H45.6233L45.604 78.0098L45.498 77.9821L45.3933 77.9375L43.4076 76.7852V64.0366C43.4076 64.0017 43.3907 63.9728 43.3883 63.9403C43.3847 63.909 43.3956 63.8765 43.3907 63.844L43.3329 63.5237C43.3329 63.5189 43.3293 63.5164 43.3281 63.5116C43.3269 63.508 43.3293 63.5044 43.3281 63.4996L43.2824 63.2708C43.2715 63.2154 43.2378 63.1721 43.2197 63.1215C43.2017 63.0697 43.1993 63.0155 43.1728 62.9673L43.0247 62.6952C43.0114 62.6699 42.9898 62.6567 42.9753 62.6338C42.9596 62.6109 42.9572 62.5844 42.9404 62.5603L42.8031 62.3773C42.7862 62.3532 42.761 62.3448 42.7429 62.3231C42.726 62.3027 42.7188 62.2786 42.6995 62.2581L42.4948 62.0534C42.4647 62.0245 42.4262 62.0124 42.3937 61.986C42.3612 61.9607 42.3395 61.9221 42.3034 61.8993L42.1191 61.7861C42.1143 61.7812 42.1071 61.7812 42.1011 61.7788C42.0963 61.774 42.0927 61.7692 42.0866 61.7656L26.2591 52.6236L43.9772 42.399L44.1301 42.3364C44.1337 42.3352 44.1361 42.3328 44.1385 42.3328C44.1482 42.3279 44.1578 42.3183 44.1674 42.3135C44.1927 42.3027 44.218 42.2966 44.2421 42.2846L44.2493 42.2834H44.2517L44.3131 42.3002L44.4299 42.3412L44.6021 42.4134L70.9264 57.6136L71.0348 57.6991L71.1323 57.7822L71.1383 57.7894L71.1829 57.8785L71.1949 57.9327L71.2311 58.1531V62.9854L71.2299 62.9975C71.2286 63.0047 71.2299 63.0095 71.2299 63.0143C71.2286 63.0215 71.225 63.0264 71.2226 63.0312L71.1937 63.2142L71.1805 63.2732L71.1528 63.3298L71.1155 63.3792L71.0324 63.4562L70.9637 63.4996L69.0419 64.6243L45.9845 77.9399ZM34.4883 18.0351L34.5871 17.9942L34.6931 17.9653C34.6943 17.9653 34.6943 17.9641 34.6955 17.9641L34.7785 17.9436L34.7822 17.9424L34.7942 17.9448L34.8773 17.9653L34.9808 17.9942L35.0338 18.0158C35.0338 18.017 35.0362 18.0158 35.0374 18.017C35.0386 18.017 35.0398 18.0182 35.0411 18.0182L35.082 18.0351L39.3411 20.4916L39.4507 20.5783L39.4519 20.5795L39.5916 20.6939L39.6157 20.7264L39.7132 20.8866L39.7686 21.0696L39.8059 21.2201L42.5478 40.7252L24.0916 51.3748L9.24059 42.8024V32.9728L9.27792 32.7681L9.29117 32.7006L9.33813 32.6127L9.36944 32.567L9.4453 32.4995L9.53923 32.4237L34.4883 18.0351ZM43.4076 93.9V79.2922L44.3733 79.8546C44.4046 79.8726 44.4384 79.8787 44.4697 79.8919C44.4865 79.9015 44.4962 79.916 44.5142 79.9208L44.743 80.0135C44.7623 80.0208 44.7816 80.0183 44.8008 80.0256C44.8201 80.0328 44.8309 80.0472 44.8502 80.0508L45.0103 80.0954C45.0164 80.0978 45.0224 80.0978 45.0308 80.0978C45.0344 80.0978 45.0356 80.1026 45.0404 80.1026L45.2235 80.1496C45.3138 80.1725 45.4017 80.1821 45.4908 80.1821H45.6847H45.8918C45.9797 80.1821 46.0688 80.1713 46.1591 80.1496L46.3421 80.1026C46.3458 80.1026 46.3482 80.0978 46.3518 80.0978C46.3578 80.0978 46.365 80.0978 46.3723 80.0954L46.5312 80.0508C46.5517 80.0436 46.5625 80.0292 46.5818 80.0256C46.601 80.0183 46.6203 80.0208 46.6396 80.0135L46.8684 79.9208C46.8852 79.9148 46.8949 79.9003 46.9093 79.8943C46.9418 79.8799 46.9755 79.8726 47.0044 79.857L68.5012 67.4468V79.0586L68.494 79.108C68.4916 79.1164 68.494 79.1224 68.494 79.1321C68.4916 79.1369 68.4868 79.1441 68.4868 79.1513L68.4711 79.2705L68.4627 79.3019L68.4013 79.4151L68.37 79.4632L68.2953 79.5294L68.2062 79.6017L43.4076 93.9ZM70.6675 78.1712V66.1885L72.086 65.36C72.0944 65.3552 72.0981 65.3456 72.1077 65.3408C72.1173 65.3335 72.1306 65.3311 72.1402 65.3227L72.3124 65.2107C72.3377 65.1914 72.3497 65.1662 72.3738 65.1469C72.3991 65.1252 72.4328 65.1192 72.4533 65.0951L72.6724 64.8904C72.6989 64.8651 72.7098 64.8314 72.7351 64.8037C72.7531 64.782 72.7784 64.776 72.7977 64.7519L72.9337 64.5689C72.947 64.552 72.9494 64.534 72.959 64.5171C72.9735 64.493 72.9928 64.475 73.006 64.4485C73.0277 64.4485 73.0421 64.4485 73.0626 64.4461L73.2673 64.422C73.2817 64.4208 73.2926 64.4111 73.307 64.4087C73.3432 64.4051 73.3757 64.4063 73.413 64.3955L73.5491 64.363L73.6502 64.3485C73.7261 64.3365 73.7875 64.2992 73.8573 64.2727C73.8971 64.2582 73.9404 64.263 73.9778 64.245L74.2066 64.1318C74.215 64.127 74.2198 64.1185 74.227 64.1149C74.2403 64.1089 74.2523 64.1065 74.2644 64.1005L95.7635 51.6879V63.3057L95.7611 63.3166C95.7563 63.3346 95.7647 63.3479 95.7611 63.3635C95.7587 63.3816 95.7491 63.39 95.7467 63.4069L95.731 63.5405L95.7226 63.5682L95.6696 63.6658L95.6564 63.6838L95.5528 63.7705L95.4673 63.8392L70.6675 78.1712ZM97.9298 62.4279V50.444L99.3387 49.636C99.3616 49.6228 99.3724 49.6047 99.3917 49.5903C99.4194 49.571 99.4531 49.5626 99.4784 49.5421L99.6506 49.4048C99.6554 49.4012 99.6578 49.3976 99.6602 49.394C99.6626 49.3904 99.6674 49.3904 99.6698 49.3868L99.8878 49.2037C99.9263 49.1724 99.9456 49.1279 99.9769 49.0917C100.002 49.0653 100.037 49.0544 100.058 49.0231L100.194 48.8413C100.211 48.8208 100.213 48.8003 100.221 48.7799C100.245 48.7462 100.273 48.7148 100.294 48.6763L100.443 48.3801C100.46 48.3488 100.46 48.3126 100.468 48.2813C100.489 48.2296 100.52 48.1838 100.533 48.1272L100.578 47.9213C100.58 47.9117 100.578 47.9032 100.578 47.8948C100.58 47.884 100.587 47.8767 100.589 47.8659L100.646 47.5239C100.652 47.4938 100.64 47.4637 100.643 47.4348C100.646 47.4047 100.662 47.3782 100.662 47.3469V42.3183C100.662 42.2834 100.645 42.2557 100.642 42.2232C100.639 42.1907 100.651 42.1594 100.644 42.1268L100.587 41.8065C100.587 41.8029 100.584 41.7993 100.583 41.7957C100.583 41.7921 100.584 41.7885 100.583 41.7837L100.538 41.5561C100.525 41.4995 100.493 41.4561 100.473 41.4031C100.454 41.3514 100.451 41.2972 100.426 41.2478L100.277 40.9745C100.263 40.9492 100.241 40.9359 100.226 40.913C100.212 40.8914 100.209 40.8673 100.195 40.8456L100.058 40.6614C100.037 40.6349 100.011 40.624 99.9889 40.5988C99.9649 40.5735 99.9588 40.5422 99.9324 40.5205L99.7132 40.3146C99.6903 40.2917 99.6614 40.2857 99.6361 40.2664C99.612 40.2447 99.5988 40.2194 99.5723 40.2014L99.4001 40.087C99.3893 40.0798 99.3772 40.0798 99.3676 40.0737C99.358 40.0665 99.3531 40.0557 99.3423 40.0509L72.8579 24.7604C72.847 24.7543 72.8362 24.7543 72.8278 24.7495C72.8181 24.7435 72.8133 24.7339 72.8025 24.7279L72.5749 24.6147C72.5376 24.5954 72.4978 24.5966 72.4569 24.5834C72.4172 24.5689 72.3858 24.5412 72.3437 24.5292L72.1498 24.4834H72.1474L71.968 24.4401C71.956 24.4364 71.9415 24.4413 71.9259 24.4376L69.8607 9.77572L102.008 28.3343L102.093 28.403L102.191 28.4848L102.215 28.5198L102.262 28.6077L102.277 28.6763L102.312 28.8798V59.5331L102.274 59.7595L102.265 59.804L102.218 59.8979L102.215 59.9003L102.093 60.0039L102.008 60.0725L97.9298 62.4279Z" fill="#264f68"/>
</g>
<defs>
<clipPath id="clip0_103_975">
<rect width="103.94" height="99.9891" fill="#264f68" transform="translate(0.538086 0.0400391)"/>
</clipPath>
</defs>
</svg>
