<svg width="107" height="101" viewBox="0 0 107 101" fill="none" xmlns="http://www.w3.org/2000/svg">
<g clip-path="url(#clip0_103_1125)">
<path d="M13.1723 63.672C31.5514 49.5671 37.5352 64.5268 29.8417 72.2204C24.7126 77.3494 12.316 77.7768 15.7353 84.1881C17.0176 87.1801 21.2918 87.1801 23.4304 84.6156C28.132 79.4865 31.9788 75.2123 36.6804 75.6397C52.4949 77.3494 44.8014 91.4543 46.0836 95.7285C47.7933 100.432 54.632 98.7204 52.9224 93.164C52.0675 89.7446 49.9289 84.6156 52.4949 79.9139C54.6306 77.3494 58.9062 76.0686 61.0434 77.7768C66.1724 80.7703 66.1724 91.0269 72.5837 92.7365C75.5756 93.164 79.8498 90.6009 80.2773 88.0349C81.1321 84.6156 77.7127 82.4785 75.5756 81.6236C70.874 78.6317 64.8901 74.7849 65.745 67.5188C66.1724 60.68 73.866 59.8252 79.8498 61.5364C85.8337 62.8171 89.6805 65.3817 96.0918 65.3817C109.769 65.8091 104.64 56.4058 100.366 55.9784C95.237 55.551 92.245 59.3978 81.5595 58.1155C77.2853 57.6881 73.0111 57.2607 70.0192 54.2687C64.0368 47.8574 70.0192 42.301 77.2853 41.4461C84.5515 40.1639 91.3902 39.7364 96.0918 38.0268C102.929 35.8897 102.076 29.4784 99.0837 27.3427C89.6805 20.5025 83.6966 42.7284 65.3176 34.6074C62.753 33.3251 59.7611 31.188 61.4708 27.7687C62.753 23.9219 67.0272 22.2122 70.874 18.3654C79.4224 9.81704 67.0272 1.69605 62.753 9.81704C60.187 14.9461 61.8982 20.0751 55.4869 24.7767C51.6401 27.3427 46.9385 26.9138 43.0917 24.3493C36.6804 19.6477 39.6723 13.6638 36.6804 11.0993C31.1239 5.97025 24.7141 13.6638 29.8432 20.5025C32.4077 23.9219 40.0998 28.1961 31.1239 34.6074C22.5755 40.5913 14.8835 32.8977 11.4626 31.6155C8.47067 30.7606 6.33357 37.1734 11.89 37.5993C15.7368 37.5993 20.8659 37.1734 23.4304 41.4461C26.8497 47.8574 23.4304 55.551 16.5916 56.4058C13.1723 56.8333 5.48021 56.4058 2.9142 60.2526C-0.0777384 64.5268 5.0513 69.6559 13.1723 63.672Z" stroke="#ffffff" stroke-width="2.9682" stroke-miterlimit="10" stroke-linecap="round"/>
<path d="M21.2919 97.4381C20.0096 98.7203 18.3 99.1478 17.0177 97.8655C15.308 97.0107 15.308 94.8736 16.5903 93.5913C17.4451 92.309 19.5822 91.8816 20.8645 93.1639C22.1482 94.0187 22.1482 96.1558 21.2919 97.4381Z" stroke="#ffffff" stroke-width="2.9682" stroke-miterlimit="10" stroke-linecap="round"/>
<path d="M21.292 10.6723C19.5823 13.2368 16.163 13.6642 13.5985 11.5271C11.4614 9.81741 11.0339 5.97063 12.7451 3.83353C14.8807 1.26901 18.3016 0.84159 20.8661 2.97869C23.0032 4.68837 23.4306 8.53515 21.292 10.6723Z" stroke="#ffffff" stroke-width="2.9682" stroke-miterlimit="10" stroke-linecap="round"/>
<path d="M95.6643 90.5998C93.5272 93.5917 89.6804 94.0191 87.1159 91.4531C84.5499 89.3175 84.1224 85.4707 86.261 82.9047C88.3981 80.3417 92.2449 79.9142 94.8094 82.0499C97.8014 84.1884 97.8014 88.0337 95.6643 90.5998Z" stroke="#ffffff" stroke-width="2.9682" stroke-miterlimit="10" stroke-linecap="round"/>
</g>
<defs>
<clipPath id="clip0_103_1125">
<rect width="105.88" height="99.997" fill="#264f68" transform="translate(0.567871 0.125977)"/>
</clipPath>
</defs>
</svg>
