<svg width="159" height="100" viewBox="0 0 159 100" fill="none" xmlns="http://www.w3.org/2000/svg">
<path d="M155.706 80.68V80.6852L155.654 80.7355L128.754 96.2556L128.73 96.2678L128.7 96.2556L125.382 94.3526L125.336 94.3075V80.1502V69.3243L125.339 69.3087L139.636 61.0663L139.637 61.0629L139.647 61.0594C139.647 61.0594 139.649 61.0578 139.651 61.0578L152.334 53.7176L152.343 53.7193L155.652 55.6153L155.7 55.6638L155.706 55.702V80.68ZM123.692 66.9902C123.659 67.0091 123.621 67.0109 123.589 67.0334C123.549 67.0594 123.53 67.0993 123.493 67.1304C123.459 67.1581 123.417 67.1702 123.384 67.2013L123.223 67.3607C123.195 67.3867 123.187 67.4213 123.164 67.4473C123.138 67.4785 123.104 67.4905 123.081 67.5217L122.963 67.6828C122.937 67.7191 122.93 67.7624 122.908 67.8005C122.885 67.8386 122.851 67.8594 122.832 67.8992L122.712 68.1416C122.659 68.249 122.645 68.365 122.62 68.4759C122.605 68.5208 122.576 68.5572 122.563 68.6005C122.558 68.6247 122.565 68.6473 122.56 68.6698C122.556 68.694 122.541 68.7113 122.537 68.7338L122.498 69.0161C122.491 69.0525 122.505 69.0836 122.503 69.1182C122.501 69.1546 122.482 69.184 122.482 69.2221V79.319L121.159 80.067L102.366 69.2308L100.83 68.3477V68.346L100.829 68.339V64.4308L100.832 64.4292L122.373 51.9755L122.376 51.9738L122.463 51.9391L122.482 51.9478L136.08 59.8179L123.798 66.8983C123.756 66.9226 123.73 66.9624 123.692 66.9902ZM122.482 92.6452L103.095 81.4765C103.092 81.4731 103.083 81.4713 103.08 81.4661V72.9398L119.821 82.5917C119.833 82.5986 119.847 82.5934 119.859 82.6004C119.874 82.609 119.881 82.6245 119.898 82.6332L120.059 82.7129C120.139 82.7527 120.221 82.7475 120.302 82.7718C120.338 82.7874 120.361 82.8134 120.399 82.8271L120.52 82.867C120.667 82.9173 120.815 82.9414 120.958 82.9414H120.963C120.967 82.9414 120.97 82.9433 120.977 82.9433H121.176H121.339C121.493 82.9433 121.649 82.919 121.803 82.8653L121.867 82.8427L121.971 82.8151C122.028 82.8012 122.07 82.7648 122.124 82.7407C122.163 82.7251 122.21 82.732 122.25 82.7112L122.411 82.6316C122.427 82.6229 122.433 82.609 122.447 82.6021C122.458 82.5952 122.47 82.5986 122.482 82.5917V92.6452ZM99.3307 62.0032C99.3064 62.017 99.2944 62.0396 99.2719 62.0533C99.2493 62.0689 99.2233 62.0707 99.2009 62.088L99.0381 62.2058L99.0329 62.2127L99.0294 62.2144L98.8667 62.3338C98.8096 62.3772 98.7784 62.4396 98.7298 62.488C98.6797 62.5364 98.6155 62.5728 98.5706 62.6318L98.4545 62.7928C98.4285 62.8273 98.4251 62.8655 98.4044 62.9001C98.3836 62.9383 98.3489 62.959 98.3298 62.9971L98.2087 63.2377C98.155 63.3468 98.1411 63.4646 98.1168 63.5789C98.0996 63.6221 98.0684 63.662 98.058 63.7071C98.0511 63.7295 98.058 63.752 98.0563 63.7746C98.0493 63.7971 98.0355 63.8143 98.032 63.8334L97.9922 64.114C97.987 64.1486 97.9992 64.1815 97.9974 64.2178C97.9957 64.2542 97.9766 64.2837 97.9766 64.3217V66.6767L82.1066 57.5339V49.534L100.032 39.1722L100.046 39.1652L100.06 39.1722L119.469 50.3599L99.3307 62.0032ZM100.221 79.7952L80.8235 68.6126C80.8201 68.6109 80.8166 68.6091 80.8166 68.6091V68.6005L80.7786 68.4499V60.0656L97.561 69.7364C97.5732 69.7434 97.5888 69.7399 97.5992 69.7468C97.6181 69.7538 97.6268 69.771 97.6424 69.7797L97.8035 69.8594C97.8571 69.887 97.9126 69.8818 97.9662 69.8992C98.0096 69.92 98.0441 69.9545 98.0892 69.9719C98.1116 69.9788 98.1307 69.9753 98.155 69.9823C98.1706 69.9892 98.1844 70.0031 98.2 70.0065L98.3593 70.0447C98.42 70.062 98.4788 70.062 98.5342 70.0688L98.5671 70.1104C98.5879 70.1399 98.6207 70.1486 98.6433 70.1745C98.6727 70.2074 98.6831 70.249 98.7142 70.2801L98.8771 70.4412C98.9031 70.4671 98.9342 70.474 98.9636 70.4983C98.9914 70.5208 99.0035 70.5519 99.0346 70.5762L99.1957 70.694C99.2233 70.713 99.2511 70.72 99.2805 70.7356C99.2996 70.7477 99.3083 70.7667 99.3272 70.7771L100.221 71.2931V79.7952ZM78.5569 56.2699C78.5534 56.2734 78.5482 56.2768 78.5465 56.282L78.4911 56.3929C78.4686 56.4274 78.4426 56.4586 78.4253 56.4933L78.3768 56.5487L78.1725 56.7235C78.1569 56.7357 78.1517 56.7565 78.1361 56.7703C78.1241 56.7825 78.105 56.7877 78.0911 56.8014L78.0166 56.876L77.8764 56.9764L61.0385 66.6767V64.3217C61.0385 64.2837 61.0194 64.2542 61.0159 64.2178C61.0142 64.1815 61.0281 64.1486 61.0229 64.114L60.9814 63.8334C60.9779 63.8143 60.9658 63.7971 60.9606 63.7746C60.9554 63.752 60.964 63.7295 60.9571 63.7071C60.9467 63.662 60.9155 63.6221 60.8999 63.5789C60.874 63.4646 60.8601 63.3468 60.8047 63.2377L60.6853 62.9971C60.6662 62.959 60.6315 62.9383 60.6107 62.9001C60.5899 62.8655 60.5866 62.8273 60.5623 62.7928L60.4428 62.6318C60.3996 62.5728 60.3354 62.5364 60.2853 62.488C60.2385 62.4396 60.2055 62.3772 60.1484 62.3338L59.9857 62.2144L59.9822 62.2127L59.977 62.2058L59.8159 62.088C59.7918 62.0707 59.7658 62.0689 59.7432 62.0533C59.719 62.0396 59.7086 62.017 59.6827 62.0032L39.546 50.3599L58.9554 39.1722L58.9692 39.1652L58.9831 39.1722L77.8816 50.0968L78.0877 50.2405L78.1638 50.2994L78.3664 50.502L78.4859 50.6232L78.5465 50.741L78.5569 50.7617V56.2699ZM78.2348 68.4499L78.1968 68.6005V68.6091L78.1916 68.6126L58.7944 79.7952V71.2931L59.6879 70.7771C59.7068 70.7667 59.7155 70.7477 59.7346 70.7356C59.764 70.72 59.7918 70.713 59.8194 70.694L59.9805 70.5762C60.0116 70.5519 60.0237 70.5208 60.0515 70.4983C60.0792 70.474 60.112 70.4671 60.1398 70.4412L60.3009 70.2801C60.3302 70.249 60.3424 70.2074 60.3718 70.1745C60.3944 70.1486 60.4272 70.1399 60.448 70.1104L60.4792 70.0688C60.538 70.062 60.5951 70.062 60.6541 70.0447L60.8151 70.0065C60.8289 70.0031 60.8428 69.9892 60.8601 69.9823C60.8844 69.9753 60.9016 69.9788 60.9259 69.9719C60.971 69.9545 61.0055 69.92 61.0489 69.8992C61.1025 69.8818 61.158 69.887 61.2116 69.8594L61.3727 69.7797C61.3882 69.771 61.3986 69.7538 61.4142 69.7468C61.4263 69.7399 61.4419 69.7434 61.4523 69.7364L78.2348 60.0656V68.4499ZM58.1866 68.339L58.1848 68.346V68.3477L56.6489 69.2308L37.8543 80.067L36.533 79.319V69.2221C36.533 69.184 36.5141 69.1546 36.5123 69.1182C36.5106 69.0836 36.5226 69.0525 36.5174 69.0161L36.4777 68.7338C36.4742 68.7113 36.4586 68.694 36.4551 68.6698C36.4499 68.6473 36.4569 68.6247 36.4517 68.6005C36.4395 68.5572 36.4084 68.5208 36.3946 68.4759C36.3703 68.365 36.3564 68.249 36.3028 68.1416L36.1833 67.8992C36.1642 67.8594 36.1297 67.8386 36.1071 67.8005C36.0829 67.7624 36.0777 67.7191 36.0517 67.6828L35.9339 67.5217C35.9097 67.4905 35.8751 67.4785 35.8508 67.4473C35.8284 67.4213 35.8197 67.3867 35.792 67.3607L35.631 67.2013C35.598 67.1702 35.5564 67.1581 35.5219 67.1304C35.4855 67.0993 35.4664 67.0594 35.4266 67.0334C35.3937 67.0109 35.3556 67.0091 35.3227 66.9902C35.2846 66.9624 35.2586 66.9226 35.2171 66.8983L22.935 59.8179L36.533 51.9478L36.5521 51.9391L36.6387 51.9738L36.6421 51.9755L58.1831 64.4292L58.1866 64.4308V68.339ZM55.9354 81.4661C55.9302 81.4713 55.9234 81.4731 55.9199 81.4765L36.533 92.6452V82.5917C36.5452 82.5986 36.5556 82.5952 36.5677 82.6021C36.5816 82.609 36.5885 82.6229 36.6041 82.6316L36.7651 82.7112C36.805 82.732 36.8517 82.7251 36.8915 82.7407C36.9452 82.7648 36.9868 82.8012 37.0439 82.8151L37.1478 82.8427L37.2119 82.8653C37.366 82.919 37.5219 82.9433 37.6759 82.9433H37.8387H38.0378C38.043 82.9433 38.0482 82.9414 38.0517 82.9414H38.0569C38.2006 82.9414 38.3478 82.9173 38.495 82.867L38.6144 82.8271C38.6525 82.8134 38.6768 82.7874 38.7131 82.7718C38.7946 82.7475 38.8759 82.7527 38.9556 82.7129L39.1148 82.6332C39.1339 82.6245 39.1408 82.609 39.1564 82.6004C39.1703 82.5934 39.1824 82.5986 39.1946 82.5917L55.9354 72.9398V81.4661ZM33.6777 80.1502V94.3075L33.6327 94.3526L30.3132 96.2556L30.2856 96.2678L30.2613 96.2556L3.36111 80.7355L3.30918 80.6852V80.68V55.702L3.31436 55.6638L3.36287 55.6153L6.67364 53.7193L6.68056 53.7176L19.3644 61.0578L19.3679 61.0594L19.3783 61.0629L19.38 61.0663L33.6759 69.3087L33.6777 69.3243V80.1502ZM8.65111 43.8648L8.65458 43.8527L8.70132 43.806L28.9453 32.1386L28.9626 32.1334L32.4396 34.1211C32.4587 34.1385 32.469 34.1627 32.4898 34.1801L32.5366 34.2198L32.547 34.2337L32.5677 34.3065C32.5746 34.3307 32.5937 34.3497 32.6024 34.3757C32.6093 34.3965 32.6058 34.4155 32.6128 34.4346L32.6301 34.4744L34.7512 49.676L20.0796 58.1677L8.65111 51.5547V43.8648ZM51.2377 19.2832L54.6974 21.2607C54.7095 21.2728 54.7269 21.278 54.7406 21.2901C54.7529 21.3005 54.758 21.3109 54.7684 21.3196L54.8568 21.4494L54.8671 21.4737L54.8757 21.5187L57.0575 36.9662L37.4439 48.2735L35.4353 33.9081C35.4284 33.851 35.3972 33.8026 35.3781 33.7471C35.366 33.6918 35.3712 33.6328 35.3486 33.5775L35.295 33.4406L35.2327 33.2259C35.2119 33.1515 35.1634 33.0996 35.1323 33.0321C35.1011 32.9679 35.0907 32.897 35.0508 32.8347L34.8915 32.5922C34.8846 32.5801 34.869 32.5749 34.8603 32.5627C34.8534 32.5506 34.8517 32.5367 34.8447 32.5263L34.7253 32.3671C34.6872 32.3152 34.6284 32.2874 34.585 32.2406C34.5401 32.1991 34.5158 32.1437 34.469 32.1039L34.3271 31.9913L34.2595 31.9237C34.2145 31.877 34.1557 31.8632 34.1071 31.8234C34.057 31.787 34.0223 31.7334 33.9651 31.7004L31.8232 30.4762L51.2377 19.2832ZM78.5569 3.47039V24.5611L59.719 35.425L57.6931 21.0478C57.6913 21.0355 57.6809 21.0235 57.6792 21.0096C57.6775 20.9958 57.6844 20.9784 57.6792 20.9628L57.6393 20.762C57.6272 20.7135 57.5978 20.6754 57.5822 20.6287C57.5666 20.5819 57.5736 20.5335 57.551 20.4867L57.4333 20.2044C57.4126 20.1611 57.3779 20.1317 57.3554 20.0936C57.3346 20.0537 57.3328 20.0105 57.3069 19.9724L57.1441 19.7317C57.1406 19.7231 57.1337 19.7213 57.1269 19.7127C57.0211 19.5066 56.8775 19.3127 56.6679 19.1724L56.4273 19.0131C56.4221 19.0096 56.4169 19.0114 56.4117 19.0079C56.3458 18.9543 56.2991 18.8832 56.2247 18.8434L54.0775 17.6157L78.5569 3.47039ZM79.5075 27.3178L97.187 37.5133L79.6409 47.6553C79.6201 47.6657 79.6079 47.6865 79.5907 47.6968C79.5699 47.7106 79.5491 47.7106 79.5283 47.7262L79.5075 47.7418L79.4868 47.7262C79.466 47.7106 79.4452 47.7106 79.4244 47.6968C79.4072 47.6865 79.395 47.6657 79.3742 47.6553L61.8281 37.5133L79.5075 27.3178ZM102.79 18.8434C102.716 18.8832 102.669 18.9543 102.603 19.0079C102.598 19.0114 102.593 19.0096 102.588 19.0131L102.347 19.1724C102.136 19.3127 101.994 19.5066 101.887 19.7127C101.883 19.7213 101.874 19.7231 101.871 19.7317L101.708 19.9724C101.682 20.0105 101.68 20.0537 101.66 20.0936C101.636 20.1317 101.601 20.1611 101.584 20.2044L101.462 20.4867C101.441 20.5335 101.448 20.5819 101.433 20.6287C101.417 20.6754 101.386 20.7135 101.376 20.762L101.336 20.9628C101.331 20.9784 101.338 20.9958 101.336 21.0096C101.334 21.0235 101.324 21.0355 101.322 21.0478L99.2944 35.425L82.1066 25.5117V4.42275L104.938 17.6157L102.79 18.8434ZM107.777 19.2832L127.192 30.4762L125.048 31.7004C124.993 31.7334 124.958 31.787 124.908 31.8234C124.859 31.8632 124.799 31.877 124.756 31.9237L124.686 31.9913L124.546 32.1039C124.499 32.1437 124.473 32.1991 124.43 32.2406C124.387 32.2874 124.328 32.3152 124.29 32.3671L124.172 32.5263C124.163 32.5367 124.162 32.5506 124.155 32.5627C124.146 32.5749 124.13 32.5801 124.124 32.5922L123.963 32.8347C123.924 32.897 123.914 32.9679 123.885 33.0321C123.852 33.0996 123.803 33.1515 123.782 33.2259L123.72 33.4406L123.666 33.5775C123.644 33.6328 123.649 33.6918 123.635 33.7471C123.618 33.8026 123.587 33.851 123.578 33.9081L121.571 48.2735L101.958 36.9662L104.139 21.5187L104.148 21.4737L104.158 21.4494L104.245 21.3196C104.257 21.3109 104.264 21.3005 104.274 21.2901C104.288 21.278 104.304 21.2728 104.318 21.2607L107.777 19.2832ZM130.053 32.1334L130.07 32.1386L150.313 43.806L150.363 43.8527L150.364 43.8648V51.5547L138.934 58.1677L124.262 49.676L126.385 34.4744L126.402 34.4346C126.409 34.4155 126.406 34.3965 126.413 34.3757C126.42 34.3497 126.44 34.3307 126.447 34.3065L126.468 34.2337L126.479 34.2198L126.525 34.1801C126.546 34.1627 126.556 34.1385 126.576 34.1211L130.053 32.1334ZM158.552 55.4059L158.513 55.1235C158.509 55.1079 158.499 55.0959 158.498 55.0838C158.494 55.0699 158.5 55.0526 158.498 55.0352L158.456 54.8361C158.441 54.7582 158.395 54.6994 158.368 54.6283C158.334 54.5469 158.328 54.4604 158.28 54.3842L158.16 54.1851C158.146 54.1643 158.124 54.1521 158.109 54.1296C158.095 54.1089 158.093 54.0829 158.077 54.0621L157.955 53.9011C157.934 53.8734 157.903 53.863 157.88 53.8352C157.856 53.8076 157.85 53.7781 157.825 53.7521L157.667 53.5929C157.646 53.5721 157.62 53.5669 157.599 53.5495C157.581 53.5271 157.573 53.5011 157.554 53.4786C157.507 53.43 157.441 53.4076 157.391 53.3677C157.339 53.3261 157.304 53.276 157.247 53.2413L153.669 51.1963C153.641 51.1773 153.607 51.1773 153.576 51.1651C153.543 51.1462 153.523 51.1202 153.487 51.1063L153.287 51.0249C153.267 51.018 153.246 51.0215 153.225 51.0145V43.7557C153.225 43.7125 153.204 43.6778 153.199 43.6362C153.195 43.5964 153.211 43.56 153.204 43.5184L153.164 43.2761C153.16 43.2709 153.158 43.2674 153.158 43.2622C153.155 43.2553 153.159 43.2483 153.158 43.2414L153.117 43.0405C153.106 42.9748 153.064 42.9229 153.043 42.8605C153.023 42.7964 153.023 42.7359 152.994 42.6752L152.873 42.4327C152.784 42.2509 152.656 42.1003 152.511 41.9774C152.5 41.967 152.498 41.9531 152.487 41.9427L152.324 41.78C152.306 41.7574 152.276 41.7522 152.254 41.7333C152.234 41.709 152.224 41.6813 152.204 41.6605C152.16 41.6138 152.099 41.5964 152.051 41.5566C152 41.5168 151.965 41.4648 151.911 41.4337L131.414 29.6139C131.382 29.5965 131.35 29.5965 131.32 29.5809C131.289 29.5653 131.27 29.5429 131.238 29.529L131.038 29.4459C130.998 29.4286 130.955 29.4355 130.915 29.4217C130.882 29.4095 130.858 29.3818 130.825 29.3714C130.773 29.3542 130.718 29.3646 130.667 29.3523C130.625 29.3403 130.594 29.3108 130.553 29.3022C130.505 29.29 130.457 29.3039 130.41 29.297C130.381 29.264 130.37 29.2208 130.337 29.1896L130.218 29.0701L130.063 28.916C130.037 28.8935 130.007 28.8848 129.981 28.864C129.954 28.8399 129.942 28.8087 129.914 28.7879L129.755 28.6685C129.729 28.6477 129.698 28.6442 129.673 28.6269C129.647 28.6113 129.633 28.5853 129.607 28.5698L109.114 16.7569C109.102 16.7517 109.092 16.7517 109.08 16.7447C109.067 16.7395 109.061 16.7257 109.05 16.7205L108.889 16.6391C108.82 16.6027 108.752 16.6044 108.681 16.5836C108.64 16.5629 108.603 16.5283 108.558 16.5127C108.541 16.5075 108.522 16.5127 108.506 16.5075C108.486 16.5023 108.472 16.4868 108.454 16.4833L108.293 16.4417C108.243 16.4313 108.2 16.4434 108.151 16.4382C108.12 16.4018 108.108 16.3586 108.072 16.3222L107.954 16.2096L107.809 16.0625C107.784 16.0348 107.753 16.0278 107.724 16.0036C107.696 15.9829 107.684 15.9499 107.654 15.9257L107.495 15.8062C107.471 15.7872 107.44 15.7836 107.414 15.7681C107.388 15.7491 107.372 15.7248 107.348 15.7092L81.0712 0.52669C81.0435 0.511106 81.0175 0.512839 80.9932 0.498986C80.9656 0.486866 80.9534 0.464353 80.9257 0.453963L80.6435 0.332753C80.602 0.329291 80.5638 0.320635 80.5257 0.30505C80.5033 0.298123 80.4807 0.286006 80.4582 0.273886C80.3942 0.256569 80.33 0.235795 80.266 0.216747C80.1846 0.194237 80.1014 0.171726 80.0218 0.147483C79.9231 0.121509 79.8261 0.133629 79.7292 0.126703L79.589 0.107652C79.589 0.107652 79.582 0.109384 79.5768 0.107652C79.5543 0.10592 79.53 0.114576 79.5075 0.112845C79.4851 0.114576 79.4608 0.10592 79.4383 0.107652C79.4331 0.109384 79.4296 0.107652 79.4244 0.107652L79.2859 0.126703C79.189 0.133629 79.0903 0.140557 78.9933 0.147483C78.8478 0.190772 78.7024 0.232328 78.5569 0.273886C78.5344 0.286006 78.5118 0.298123 78.4894 0.30505C78.4513 0.320635 78.4115 0.329291 78.3699 0.332753L78.0894 0.453963C78.0634 0.464353 78.0495 0.486866 78.0218 0.498986C77.9976 0.512839 77.9699 0.511106 77.9439 0.52669L51.6672 15.7092C51.6412 15.7248 51.6273 15.7491 51.6013 15.7681C51.5754 15.7836 51.5442 15.7872 51.5199 15.8062L51.3589 15.9257C51.3312 15.9499 51.3173 15.9829 51.2913 16.0036C51.2637 16.0278 51.2308 16.0348 51.2048 16.0625L51.0611 16.2096L50.9433 16.3222C50.9069 16.3586 50.8948 16.4018 50.8654 16.4382C50.8152 16.4434 50.7702 16.4313 50.7217 16.4417L50.5589 16.4833C50.5433 16.4868 50.5295 16.5023 50.5087 16.5075C50.4932 16.5127 50.4741 16.5075 50.4568 16.5127C50.4117 16.5283 50.3754 16.5629 50.3321 16.5836C50.2628 16.6044 50.1936 16.6027 50.126 16.6391L49.965 16.7205C49.9546 16.7257 49.9459 16.7395 49.9355 16.7447C49.9234 16.7517 49.9113 16.7517 49.901 16.7569L29.4076 28.5698C29.3799 28.5853 29.3678 28.6113 29.3401 28.6269C29.3158 28.6442 29.2864 28.6477 29.2622 28.6685L29.1012 28.7879C29.0752 28.8087 29.0613 28.8399 29.0336 28.864C29.0077 28.8848 28.9765 28.8935 28.9522 28.916L28.798 29.0701L28.6786 29.1896C28.6457 29.2208 28.6336 29.264 28.6058 29.297C28.5574 29.3039 28.5106 29.29 28.4639 29.3022C28.4206 29.3108 28.3895 29.3403 28.3496 29.3523C28.2977 29.3646 28.2422 29.3542 28.1903 29.3714C28.1557 29.3818 28.1331 29.4095 28.1019 29.4217C28.0604 29.4355 28.0171 29.4286 27.9773 29.4459L27.7782 29.529C27.7453 29.5429 27.7262 29.5653 27.6951 29.5809C27.6656 29.5965 27.6327 29.5965 27.6016 29.6139L7.1048 41.4337C7.0494 41.4648 7.01304 41.5168 6.96455 41.5566C6.91434 41.5964 6.85547 41.6138 6.81044 41.6605C6.78966 41.6813 6.781 41.709 6.76196 41.7333C6.73944 41.7522 6.71174 41.7574 6.68924 41.78L6.52819 41.9427C6.51607 41.9531 6.51434 41.967 6.50222 41.9774C6.3585 42.1003 6.2321 42.2509 6.14032 42.4327L6.02084 42.6752C5.99314 42.7359 5.99314 42.7964 5.97236 42.8605C5.95158 42.9229 5.91002 42.9748 5.89789 43.0405L5.85634 43.2414C5.85461 43.2483 5.8598 43.2553 5.85634 43.2622C5.85634 43.2674 5.85288 43.2709 5.85114 43.2761L5.81131 43.5184C5.80439 43.56 5.81823 43.5964 5.81478 43.6362C5.81131 43.6778 5.79053 43.7125 5.79053 43.7557V51.0145C5.76975 51.0215 5.74899 51.018 5.72821 51.0249L5.52734 51.1063C5.49098 51.1202 5.4702 51.1462 5.43903 51.1651C5.40786 51.1773 5.37496 51.1773 5.34552 51.1963L1.76806 53.2413C1.71092 53.276 1.67629 53.3261 1.62608 53.3677C1.57413 53.4076 1.50832 53.43 1.46157 53.4786C1.44252 53.5011 1.43388 53.5271 1.41483 53.5495C1.39405 53.5669 1.36981 53.5721 1.34903 53.5929L1.18972 53.7521C1.16547 53.7781 1.15855 53.8076 1.13604 53.8352C1.11353 53.863 1.08063 53.8734 1.05985 53.9011L0.940372 54.0621C0.921325 54.0829 0.917854 54.1089 0.905733 54.1296C0.89188 54.1521 0.869371 54.1643 0.855518 54.1851L0.736039 54.3842C0.687555 54.4604 0.680637 54.5469 0.647737 54.6283C0.620032 54.6994 0.575007 54.7582 0.557691 54.8361L0.51786 55.0352C0.514397 55.0526 0.519592 55.0699 0.51786 55.0838C0.516128 55.0959 0.505746 55.1079 0.504015 55.1235L0.462453 55.4059C0.457258 55.4422 0.472844 55.4699 0.484965 55.5079C0.483233 55.5409 0.467645 55.5686 0.467645 55.6033V80.7995C0.467645 80.8428 0.488426 80.8739 0.490157 80.9155C0.49362 80.9554 0.47977 80.99 0.484965 81.0281L0.526527 81.2705C0.528258 81.2809 0.533449 81.2895 0.53518 81.2965C0.536911 81.3086 0.533449 81.319 0.53518 81.3294L0.575011 81.5303C0.592326 81.6082 0.632145 81.6722 0.661582 81.7433C0.678898 81.79 0.677172 81.8385 0.699682 81.8817L0.819163 82.1242C0.836478 82.1588 0.87111 82.1692 0.890158 82.2021C0.950763 82.3043 1.0027 82.4134 1.09275 82.5034C1.11179 82.519 1.1395 82.5277 1.16028 82.5449C1.17587 82.5657 1.18107 82.59 1.20011 82.6073L1.35941 82.77C1.36287 82.7718 1.3646 82.7718 1.3646 82.7718L1.36633 82.7752C1.39058 82.8012 1.42694 82.8082 1.45292 82.8323C1.55162 82.9398 1.65205 83.0453 1.78365 83.1216L28.9418 98.7924C28.9678 98.808 28.9954 98.8028 29.0214 98.8149C29.0613 98.834 29.0889 98.8669 29.1288 98.8841L29.3297 98.9656C29.3453 98.9708 29.3643 98.9691 29.3834 98.9724C29.3954 98.9795 29.4058 98.9915 29.4232 98.9984L29.5444 99.04C29.56 99.0435 29.5773 99.0418 29.5947 99.0452C29.6051 99.0487 29.6136 99.0574 29.624 99.0607L29.785 99.1023C29.9011 99.1301 30.0188 99.1439 30.1349 99.1457H30.1383H30.2993H30.4587C30.4622 99.1457 30.4656 99.1439 30.4708 99.1439H30.4726C30.5834 99.1439 30.6959 99.1318 30.8102 99.1041L30.9713 99.0626C30.985 99.0591 30.9954 99.0487 31.0093 99.0435C31.0249 99.0418 31.044 99.0418 31.0613 99.0366C31.0941 99.0296 31.1132 99.0019 31.1444 98.9898C31.1843 98.9759 31.231 98.9828 31.2707 98.9672L31.47 98.8859C31.5115 98.8685 31.5375 98.8374 31.5756 98.8184C31.6015 98.8045 31.6292 98.8132 31.6535 98.7958L35.2275 96.7457C35.2829 96.7145 35.3141 96.6643 35.3608 96.6296C35.4128 96.5899 35.4733 96.5708 35.5201 96.524C35.5408 96.5015 35.5495 96.4721 35.572 96.4478C35.5946 96.4288 35.624 96.4218 35.6482 96.3977L35.8093 96.2366L35.8128 96.2314C35.8128 96.2314 35.8145 96.2296 35.818 96.2279C35.8716 96.1708 35.8993 96.0964 35.9443 96.034C36.0102 96.027 36.0777 96.027 36.1434 96.0097C36.1798 96.0029 36.2041 95.9769 36.2369 95.9665C36.3028 95.9543 36.3686 95.9561 36.431 95.9353C36.4603 95.9249 36.4794 95.9007 36.5106 95.8867C36.5486 95.8764 36.5868 95.8799 36.6249 95.866L36.8239 95.7847C36.8621 95.7691 36.8846 95.7361 36.921 95.7188C36.9486 95.7049 36.9746 95.7136 37.0006 95.6981L57.4905 83.8869C57.5424 83.8557 57.5736 83.8089 57.6204 83.7709C57.6688 83.7345 57.7276 83.7154 57.771 83.6739C57.7814 83.6635 57.7831 83.6514 57.7918 83.6427C57.7952 83.6427 57.797 83.641 57.797 83.641L57.9961 83.4783C58.0827 83.409 58.1328 83.3154 58.1987 83.2341C58.2211 83.2082 58.2506 83.196 58.2697 83.1683C58.3129 83.1614 58.3562 83.1631 58.3996 83.151L58.5588 83.1112C58.5762 83.106 58.59 83.0921 58.6107 83.0869C58.6333 83.0817 58.6558 83.0835 58.6783 83.0748C58.7078 83.0661 58.7302 83.0401 58.7597 83.0281C58.7977 83.016 58.8393 83.0229 58.8809 83.0038L59.0801 82.9225C59.1181 82.9069 59.1406 82.8774 59.1788 82.8583C59.2029 82.8446 59.2307 82.8514 59.2549 82.8359L79.5075 71.1632L99.7602 82.8359C99.7844 82.8514 99.8121 82.8446 99.8363 82.8583C99.8745 82.8774 99.897 82.9069 99.935 82.9225L100.136 83.0038C100.176 83.0229 100.217 83.016 100.255 83.0281C100.287 83.0401 100.306 83.0661 100.337 83.0748C100.361 83.0835 100.38 83.0817 100.404 83.0869C100.425 83.0921 100.439 83.106 100.454 83.1112L100.616 83.151C100.659 83.1631 100.7 83.1614 100.745 83.1683C100.764 83.196 100.794 83.2082 100.815 83.2341C100.882 83.3154 100.934 83.409 101.019 83.4783L101.22 83.641L101.223 83.6427C101.232 83.6514 101.234 83.6635 101.244 83.6739C101.287 83.7154 101.346 83.7345 101.395 83.7709C101.441 83.8089 101.473 83.8557 101.523 83.8869L122.015 95.6981C122.041 95.7136 122.066 95.7049 122.092 95.7188C122.129 95.7361 122.153 95.7691 122.191 95.7847L122.39 95.866C122.428 95.8799 122.466 95.8764 122.505 95.8867C122.536 95.9007 122.553 95.9249 122.584 95.9353C122.648 95.9561 122.712 95.9543 122.776 95.9665C122.811 95.9769 122.837 96.0029 122.873 96.0097C122.937 96.027 123.003 96.027 123.071 96.034C123.116 96.0964 123.142 96.1708 123.199 96.2279L123.202 96.2314C123.202 96.2314 123.202 96.2348 123.206 96.2366L123.367 96.3977C123.389 96.4218 123.42 96.4288 123.443 96.4478C123.464 96.4721 123.474 96.5015 123.495 96.524C123.54 96.5708 123.601 96.5899 123.653 96.6296C123.701 96.6643 123.734 96.7145 123.786 96.7457L127.362 98.7958C127.388 98.8132 127.414 98.8045 127.44 98.8184C127.478 98.8374 127.502 98.8685 127.545 98.8859L127.744 98.9672C127.784 98.9828 127.831 98.9759 127.871 98.9898C127.9 99.0019 127.923 99.0296 127.954 99.0366C127.971 99.0418 127.99 99.0418 128.006 99.0435C128.018 99.0487 128.03 99.0591 128.044 99.0626L128.205 99.1041C128.319 99.1318 128.432 99.1439 128.543 99.1439H128.544C128.548 99.1439 128.551 99.1457 128.556 99.1457H128.716H128.875H128.88C128.996 99.1439 129.114 99.1301 129.23 99.1023L129.389 99.0607C129.401 99.0574 129.408 99.0487 129.42 99.0452C129.438 99.0418 129.455 99.0435 129.471 99.04L129.592 98.9984C129.609 98.9915 129.62 98.9795 129.632 98.9724C129.651 98.9691 129.67 98.9708 129.685 98.9656L129.885 98.8841C129.926 98.8669 129.954 98.834 129.994 98.8149C130.02 98.8028 130.047 98.808 130.072 98.7924L157.232 83.1216C157.363 83.0453 157.464 82.9398 157.563 82.8323C157.589 82.8082 157.625 82.8012 157.648 82.7752C157.651 82.7752 157.651 82.7718 157.651 82.7718C157.654 82.7718 157.654 82.77 157.654 82.77L157.815 82.6073C157.834 82.59 157.839 82.5657 157.855 82.5449C157.876 82.5277 157.903 82.519 157.921 82.5034C158.012 82.4134 158.064 82.3043 158.125 82.2021C158.145 82.1692 158.178 82.1588 158.197 82.1242L158.316 81.8817C158.339 81.8385 158.337 81.79 158.354 81.7433C158.381 81.6722 158.422 81.6082 158.441 81.5303L158.48 81.3294C158.482 81.319 158.478 81.3086 158.48 81.2965C158.482 81.2895 158.487 81.2809 158.489 81.2705L158.529 81.0281C158.535 80.99 158.521 80.9554 158.525 80.9155C158.526 80.8739 158.547 80.8428 158.547 80.7995V55.6033C158.547 55.5686 158.53 55.5409 158.529 55.5079C158.542 55.4699 158.558 55.4422 158.552 55.4059Z" fill="#264f68"/>
</svg>
