<!DOCTYPE svg PUBLIC "-//W3C//DTD SVG 1.1//EN" "http://www.w3.org/Graphics/SVG/1.1/DTD/svg11.dtd">
<!-- Uploaded to: SVG Repo, www.svgrepo.com, Transformed by: SVG Repo Mixer Tools -->
<svg fill="#264F68" height="800px" width="800px" version="1.1" id="Layer_1" xmlns="http://www.w3.org/2000/svg" xmlns:xlink="http://www.w3.org/1999/xlink" viewBox="0 0 512 512" xml:space="preserve">
<g id="SVGRepo_bgCarrier" stroke-width="0"/>
<g id="SVGRepo_tracerCarrier" stroke-linecap="round" stroke-linejoin="round"/>
<g id="SVGRepo_iconCarrier"> <g> <g> <path d="M104,388c-2.208,0-4,1.792-4,4v52H80v-52c0-2.208-1.792-4-4-4s-4,1.792-4,4v56c0,2.208,1.792,4,4,4h28 c2.208,0,4-1.792,4-4v-56C108,389.792,106.208,388,104,388z"/> </g> </g> <g> <g> <path d="M436,388c-2.208,0-4,1.792-4,4v52h-20v-52c0-2.208-1.792-4-4-4s-4,1.792-4,4v56c0,2.208,1.792,4,4,4h28 c2.208,0,4-1.792,4-4v-56C440,389.792,438.208,388,436,388z"/> </g> </g> <g> <g> <path d="M492,132h-40c-11.028,0-20,8.972-20,20c0,2.208,1.792,4,4,4s4-1.792,4-4c0-6.616,5.384-12,12-12h40 c6.616,0,12,5.384,12,12v224c0,6.616-5.384,12-12,12h-56c-2.208,0-4,1.792-4,4s1.792,4,4,4h56c11.028,0,20-8.972,20-20V152 C512,140.972,503.028,132,492,132z"/> </g> </g> <g> <g> <path d="M76,388H20c-6.616,0-12-5.384-12-12V152c0-6.616,5.384-12,12-12h40c6.616,0,12,5.384,12,12c0,2.208,1.792,4,4,4 s4-1.792,4-4c0-11.028-8.972-20-20-20H20c-11.028,0-20,8.972-20,20v224c0,11.028,8.972,20,20,20h56c2.208,0,4-1.792,4-4 S78.208,388,76,388z"/> </g> </g> <g> <g> <path d="M420,60H92c-11.028,0-20,8.972-20,20v188c0,2.208,1.792,4,4,4s4-1.792,4-4V80c0-6.616,5.384-12,12-12h328 c6.616,0,12,5.384,12,12v188c0,2.208,1.792,4,4,4s4-1.792,4-4V80C440,68.972,431.028,60,420,60z"/> </g> </g> <g> <g> <path d="M348,316H76c-2.208,0-4,1.792-4,4s1.792,4,4,4h272c2.208,0,4-1.792,4-4S350.208,316,348,316z"/> </g> </g> <g> <g> <path d="M436,316h-40c-2.208,0-4,1.792-4,4s1.792,4,4,4h40c2.208,0,4-1.792,4-4S438.208,316,436,316z"/> </g> </g> <g> <g> <path d="M420,248H92c-11.028,0-20,8.972-20,20v124c0,2.208,1.792,4,4,4h360c2.208,0,4-1.792,4-4V268 C440,256.972,431.028,248,420,248z M432,388H80V268c0-6.616,5.384-12,12-12h328c6.616,0,12,5.384,12,12V388z"/> </g> </g> <g> <g> <g> <path d="M372,80h-16c-2.208,0-4,1.792-4,4s1.792,4,4,4h16c2.208,0,4-1.792,4-4S374.208,80,372,80z"/> <path d="M416,80h-28c-2.208,0-4,1.792-4,4s1.792,4,4,4h24v16c0,2.208,1.792,4,4,4s4-1.792,4-4V84C420,81.792,418.208,80,416,80z"/> </g> </g> </g> <g> <g> <path d="M24,184c-2.208,0-4,1.792-4,4v64c0,2.208,1.792,4,4,4s4-1.792,4-4v-64C28,185.792,26.208,184,24,184z"/> </g> </g> <g> <g> <path d="M24,152c-2.208,0-4,1.792-4,4v12c0,2.208,1.792,4,4,4s4-1.792,4-4v-12C28,153.792,26.208,152,24,152z"/> </g> </g> </g>
</svg>