<svg width="113" height="90" viewBox="0 0 113 90" fill="none" xmlns="http://www.w3.org/2000/svg">
<path d="M68.0203 48.2422C68.367 48.5889 68.8218 48.7625 69.2762 48.7625C69.7306 48.7625 70.1855 48.5891 70.5322 48.2422L71.6447 47.1297L72.7571 48.2422C73.1039 48.5889 73.5587 48.7625 74.0131 48.7625C74.4675 48.7625 74.9223 48.5891 75.2691 48.2422C75.9628 47.5485 75.9628 46.4237 75.2691 45.73L74.1566 44.6175L75.2691 43.5051C75.9628 42.8114 75.9628 41.6866 75.2691 40.9929C74.5754 40.2992 73.4506 40.2992 72.7571 40.9929L71.6447 42.1054L70.5322 40.9929C69.8385 40.2992 68.7137 40.2992 68.0203 40.9929C67.3266 41.6866 67.3266 42.8114 68.0203 43.5051L69.1327 44.6175L68.0203 45.73C67.3266 46.4237 67.3266 47.5485 68.0203 48.2422Z" fill="#264f68"/>
<path d="M90.6636 26.7808L89.5511 25.6683L90.6636 24.5558C91.3573 23.8622 91.3573 22.7374 90.6636 22.0437C89.9699 21.35 88.8451 21.35 88.1517 22.0437L87.0392 23.1562L85.9267 22.0437C85.233 21.35 84.1083 21.35 83.4148 22.0437C82.7211 22.7374 82.7211 23.8622 83.4148 24.5558L84.5273 25.6683L83.4148 26.7808C82.7211 27.4745 82.7211 28.5993 83.4148 29.2929C83.7615 29.6397 84.2164 29.8133 84.6707 29.8133C85.1251 29.8133 85.58 29.6399 85.9267 29.2929L87.0392 28.1805L88.1517 29.2929C88.4984 29.6397 88.9532 29.8133 89.4076 29.8133C89.862 29.8133 90.3169 29.6399 90.6636 29.2929C91.3575 28.5993 91.3575 27.4745 90.6636 26.7808Z" fill="#264f68"/>
<path d="M83.4148 67.1894C83.7615 67.5362 84.2164 67.7097 84.6707 67.7097C85.1251 67.7097 85.58 67.5364 85.9267 67.1894L87.0392 66.077L88.1517 67.1894C88.4984 67.5362 88.9532 67.7097 89.4076 67.7097C89.862 67.7097 90.3169 67.5364 90.6636 67.1894C91.3573 66.4957 91.3573 65.371 90.6636 64.6773L89.5511 63.5648L90.6636 62.4523C91.3573 61.7586 91.3573 60.6339 90.6636 59.9402C89.9699 59.2465 88.8451 59.2465 88.1517 59.9402L87.0392 61.0527L85.9267 59.9402C85.233 59.2465 84.1083 59.2465 83.4148 59.9402C82.7211 60.6339 82.7211 61.7586 83.4148 62.4523L84.5273 63.5648L83.4148 64.6773C82.7211 65.3707 82.7211 66.4955 83.4148 67.1894Z" fill="#264f68"/>
<path d="M59.8745 22.0437C59.1809 21.35 58.0561 21.35 57.3626 22.0437L56.2501 23.1562L55.1377 22.0437C54.444 21.35 53.3192 21.35 52.6257 22.0437C51.932 22.7374 51.932 23.8622 52.6257 24.5558L53.7382 25.6683L52.6257 26.7808C51.932 27.4745 51.932 28.5993 52.6257 29.2929C52.9725 29.6397 53.4273 29.8133 53.8817 29.8133C54.3361 29.8133 54.7909 29.6399 55.1377 29.2929L56.2501 28.1805L57.3626 29.2929C57.7093 29.6397 58.1642 29.8133 58.6186 29.8133C59.073 29.8133 59.5278 29.6399 59.8745 29.2929C60.5682 28.5993 60.5682 27.4745 59.8745 26.7808L58.7621 25.6683L59.8745 24.5558C60.5682 23.8622 60.5682 22.7374 59.8745 22.0437Z" fill="#264f68"/>
<path d="M29.0855 59.9402C28.3918 59.2465 27.267 59.2465 26.5735 59.9402L25.4611 61.0527L24.3486 59.9402C23.6549 59.2465 22.5301 59.2465 21.8367 59.9402C21.143 60.6339 21.143 61.7586 21.8367 62.4523L22.9491 63.5648L21.8367 64.6773C21.143 65.371 21.143 66.4957 21.8367 67.1894C22.1834 67.5362 22.6382 67.7097 23.0926 67.7097C23.547 67.7097 24.0019 67.5364 24.3486 67.1894L25.4611 66.0769L26.5735 67.1894C26.9203 67.5362 27.3751 67.7097 27.8295 67.7097C28.2839 67.7097 28.7387 67.5364 29.0855 67.1894C29.7792 66.4957 29.7792 65.371 29.0855 64.6773L27.973 63.5648L29.0855 62.4523C29.7792 61.7586 29.7792 60.6341 29.0855 59.9402Z" fill="#264f68"/>
<path d="M42.039 10.866H84.9348C88.1354 10.866 91.3401 10.1097 94.202 8.67861L103.118 4.221C103.599 3.9804 104.074 3.83384 104.531 3.78506C105.68 3.6618 106.78 4.01446 107.629 4.77757C108.467 5.5308 108.948 6.6079 108.948 7.73313C108.948 8.34661 108.802 8.96074 108.528 9.5094L104.03 18.5057C102.598 21.3681 101.842 24.5733 101.842 27.7736V51.7217C101.842 52.7028 102.637 53.498 103.618 53.498C104.599 53.498 105.395 52.7025 105.395 51.7217V27.7731C105.395 25.1213 106.021 22.4661 107.207 20.0939L111.705 11.0976C112.225 10.0583 112.5 8.89461 112.5 7.73269C112.5 5.60089 111.59 3.5605 110.004 2.13491C108.418 0.710199 106.286 0.0237705 104.153 0.252067C103.273 0.346111 102.391 0.61198 101.529 1.04309L92.6132 5.50091C90.2419 6.68656 87.5867 7.31323 84.9348 7.31323H42.039C41.0579 7.31323 40.2627 8.10864 40.2627 9.0895C40.2627 10.0708 41.0581 10.8662 42.039 10.866Z" fill="#264f68"/>
<path d="M59.8745 59.9402C59.1809 59.2465 58.0561 59.2465 57.3626 59.9402L56.2501 61.0527L55.1377 59.9402C54.444 59.2465 53.3192 59.2465 52.6257 59.9402C51.932 60.6339 51.932 61.7586 52.6257 62.4523L53.7382 63.5648L52.6257 64.6773C51.932 65.371 51.932 66.4957 52.6257 67.1894C52.9725 67.5362 53.4273 67.7097 53.8817 67.7097C54.3361 67.7097 54.7909 67.5364 55.1377 67.1894L56.2501 66.0769L57.3626 67.1894C57.7093 67.5362 58.1642 67.7097 58.6186 67.7097C59.073 67.7097 59.5278 67.5364 59.8745 67.1894C60.5682 66.4957 60.5682 65.371 59.8745 64.6773L58.7621 63.5648L59.8745 62.4523C60.5682 61.7586 60.5682 60.6341 59.8745 59.9402Z" fill="#264f68"/>
<path d="M29.0855 22.0437C28.3918 21.35 27.267 21.35 26.5735 22.0437L25.4611 23.1562L24.3486 22.0437C23.6549 21.35 22.5301 21.35 21.8367 22.0437C21.143 22.7374 21.143 23.8622 21.8367 24.5558L22.9491 25.6683L21.8367 26.7808C21.143 27.4745 21.143 28.5993 21.8367 29.2929C22.1834 29.6397 22.6382 29.8133 23.0926 29.8133C23.547 29.8133 24.0019 29.6399 24.3486 29.2929L25.4611 28.1805L26.5735 29.2929C26.9203 29.6397 27.3751 29.8133 27.8295 29.8133C28.2839 29.8133 28.7387 29.6399 29.0855 29.2929C29.7792 28.5993 29.7792 27.4745 29.0855 26.7808L27.973 25.6683L29.0855 24.5558C29.7792 23.8622 29.7792 22.7374 29.0855 22.0437Z" fill="#264f68"/>
<path d="M111.667 78.0584L107.208 69.1388C106.022 66.7668 105.395 64.1117 105.395 61.4595V58.8272C105.395 57.8461 104.599 57.0509 103.619 57.0509C102.638 57.0509 101.842 57.8463 101.842 58.8272V61.4595C101.842 64.6601 102.599 67.865 104.03 70.7274L108.49 79.647C108.727 80.1195 108.871 80.5866 108.922 81.0346C109.058 82.2561 108.644 83.4492 107.784 84.3088C106.925 85.1684 105.73 85.5832 104.51 85.4461C104.062 85.3958 103.595 85.2507 103.123 85.0145L94.2035 80.5547C91.3411 79.1232 88.136 78.3667 84.9356 78.3667H27.565C24.3645 78.3667 21.1598 79.1232 18.2971 80.5547L9.37797 85.0145C8.90555 85.2507 8.43863 85.3958 7.99039 85.4461C6.76914 85.5834 5.5758 85.1683 4.71623 84.309C3.85688 83.4496 3.44225 82.2563 3.57892 81.0348C3.62924 80.5866 3.77426 80.1197 4.01047 79.6473L8.47027 70.7276C9.9018 67.8648 10.6583 64.6599 10.6583 61.4595V27.7731C10.6583 24.5726 9.9018 21.3676 8.47027 18.5053L3.97245 9.50874C3.69801 8.96008 3.55299 8.34594 3.55299 7.73246C3.55299 6.60723 4.03354 5.53013 4.87136 4.7769C5.72016 4.01401 6.8199 3.66201 7.96995 3.7844C8.42633 3.83318 8.90226 3.97995 9.3839 4.22099L18.2978 8.67794C21.1602 10.1095 24.3654 10.866 27.5657 10.866H34.9349C35.916 10.866 36.7112 10.0706 36.7112 9.08971C36.7112 8.10863 35.9158 7.31344 34.9349 7.31344H27.5655C24.9136 7.31344 22.2582 6.68655 19.8862 5.50069L10.9723 1.04352C10.1097 0.612192 9.22657 0.346101 8.34722 0.252058C6.21411 0.0237613 4.08144 0.71041 2.49632 2.1349C0.909672 3.56049 0 5.60088 0 7.73268C0 8.8946 0.274659 10.0583 0.794315 11.0978L5.29235 20.0941C6.47844 22.4661 7.10511 25.1215 7.10511 27.7736V61.46C7.10511 64.1119 6.47844 66.7671 5.29235 69.1392L0.832767 78.0584C0.408913 78.9061 0.14502 79.7745 0.0481203 80.64C-0.209181 82.941 0.576565 85.1941 2.20409 86.8214C3.83161 88.4487 6.08425 89.2342 8.38502 88.9771C9.2503 88.8804 10.1189 88.6163 10.9666 88.1925L19.8858 83.7327C22.2577 82.5468 24.9129 81.9199 27.565 81.9199H84.9352C87.5871 81.9199 90.2423 82.5468 92.6145 83.7327L101.534 88.1925C102.381 88.6163 103.25 88.8802 104.115 88.9773C104.402 89.0096 104.689 89.0254 104.973 89.0254C106.969 89.0254 108.872 88.2458 110.296 86.8216C111.923 85.1941 112.709 82.9412 112.452 80.6402C112.355 79.7747 112.091 78.9061 111.667 78.0584Z" fill="#264f68"/>
<path d="M37.2312 48.2402C37.5779 48.5869 38.0328 48.7605 38.4872 48.7605C38.9416 48.7605 39.3964 48.5872 39.7431 48.2402L40.8556 47.1277L41.9681 48.2402C42.3148 48.5869 42.7696 48.7605 43.224 48.7605C43.6784 48.7605 44.1333 48.5872 44.48 48.2402C45.1737 47.5465 45.1737 46.4217 44.48 45.7281L43.3675 44.6156L44.48 43.5031C45.1737 42.8094 45.1737 41.6846 44.48 40.991C43.7863 40.2973 42.6615 40.2973 41.9681 40.991L40.8556 42.1034L39.7431 40.991C39.0494 40.2973 37.9247 40.2973 37.2312 40.991C36.5375 41.6849 36.5375 42.8096 37.2312 43.5031L38.3437 44.6156L37.2312 45.7281C36.5375 46.4217 36.5375 47.5465 37.2312 48.2402Z" fill="#264f68"/>
</svg>
