<svg width="114" height="101" viewBox="0 0 114 101" fill="none" xmlns="http://www.w3.org/2000/svg">
<path d="M110.551 10.0762V98.8262H108.051C108.051 98.8262 102.98 96.3262 91.8558 96.3262C86.667 96.3262 80.7045 100.076 74.377 100.076C73.937 100.076 73.4958 100.05 73.0508 100.01V33.6999C67.6495 34.5824 62.1883 35.0424 56.7158 35.0762C51.3008 35.0462 45.8958 34.5949 40.5508 33.7274V100.012C40.1233 100.051 39.697 100.076 39.2733 100.076C32.977 100.076 27.042 96.3262 21.8683 96.3262C10.6758 96.3262 5.55078 98.8262 5.55078 98.8262H3.05078V10.0762H0.550781V0.0761719H113.051V10.0762H110.551ZM75.5508 97.4899C81.4395 97.0599 86.9895 93.8262 91.8558 93.8262C102.98 93.8262 108.051 96.3262 108.051 96.3262V23.6612C105.126 24.8824 99.8008 26.9687 93.0508 29.0299V93.8262H90.5508V29.7699C85.6145 31.1987 80.6083 32.3737 75.5508 33.2862V97.4899ZM5.55078 96.3262C5.55078 96.3262 10.6445 93.8262 21.7945 93.8262C26.6483 93.8262 32.1758 97.0674 38.0508 97.4912V33.3087C32.9933 32.3974 27.987 31.2237 23.0508 29.7924V93.8262H20.5508V29.0499C13.8008 26.9874 8.47578 24.8924 5.55078 23.6662V96.3262ZM56.8883 32.5762C78.8633 32.5762 100.801 24.2012 108.051 21.1662V10.0762H5.55078V21.1612C12.8145 24.2012 34.8558 32.5762 56.8883 32.5762ZM110.551 2.57617H3.05078V7.57617H110.551V2.57617Z" fill="#264F68"/>
</svg>
