<svg width="114" height="101" viewBox="0 0 114 101" fill="none" xmlns="http://www.w3.org/2000/svg">
<path d="M110.551 10.0762V98.8262H108.051C108.051 98.8262 102.978 96.3262 91.8558 96.3262C86.6683 96.3262 80.7045 100.076 74.3783 100.076C68.6758 100.076 62.6758 96.3262 56.6758 96.3262C50.777 96.3262 44.8808 100.076 39.2708 100.076C32.9745 100.076 27.0395 96.3262 21.8658 96.3262C10.6758 96.3262 5.55078 98.8262 5.55078 98.8262H3.05078V10.0762H0.550781V0.0761719H113.051V10.0762H110.551ZM5.55078 96.3262C5.55078 96.3262 10.6445 93.8262 21.7945 93.8262C26.6483 93.8262 32.1758 97.0674 38.0508 97.4912V35.0762H40.5508V97.4799C45.4158 97.0374 50.4745 94.3437 55.5508 93.9187V60.0762H58.0508V93.9149C63.1283 94.3274 68.1858 97.0399 73.0508 97.4812V35.0762H75.5508V97.4899C81.4395 97.0599 86.9895 93.8262 91.8558 93.8262C102.978 93.8262 108.051 96.3262 108.051 96.3262V10.0762H93.0508V93.8262H90.5508V10.0762H23.0508V93.8262H20.5508V10.0762H5.55078V96.3262ZM110.551 2.57617H3.05078V7.57617H110.551V2.57617Z" fill="#264F68"/>
</svg>
