<svg width="82" height="108" viewBox="0 0 82 108" fill="none" xmlns="http://www.w3.org/2000/svg">
<path d="M69.3752 58.0076H76.4063C79.3142 58.0076 81.6799 55.642 81.6799 52.7342C81.6799 49.8263 79.3142 47.4606 76.4063 47.4606H69.3752C66.4673 47.4606 64.1016 49.8263 64.1016 52.7342V66.7966H60.5861V9.78491C60.5861 4.38953 56.1963 0 50.8009 0H31.6991C26.3037 0 21.9142 4.38953 21.9142 9.78491V66.7966H18.3984V52.7342C18.3984 49.8263 16.0327 47.4606 13.125 47.4606H6.09371C3.18601 47.4606 0.820312 49.8263 0.820312 52.7342C0.820312 55.642 3.18601 58.0076 6.09371 58.0076H13.125C13.7413 58.0076 14.3326 57.9003 14.8829 57.7052V66.7966H14.004C9.64225 66.7966 6.09394 70.3453 6.09394 74.7069C6.09394 79.0685 9.64225 82.617 14.004 82.617H32.638C33.3389 86.0557 36.0535 88.7706 39.4925 89.4715V98.4372H16.5823V107.226H20.0978V101.953H39.4925V107.226H43.008V101.953H62.3439V107.226H65.8597V98.4372H43.0082V89.4715C46.4469 88.7706 49.1618 86.0559 49.8625 82.617H68.4964C72.858 82.617 76.4067 79.0685 76.4067 74.7069C76.4067 70.3453 72.858 66.7966 68.4964 66.7966H67.6176V57.7052C68.1676 57.9006 68.7589 58.0076 69.3752 58.0076ZM25.4297 9.78491C25.4297 6.32785 28.2422 3.51552 31.6991 3.51552H50.8009C54.2578 3.51552 57.0703 6.32808 57.0703 9.78491V66.7966H25.4297V9.78491ZM13.125 54.4919H6.09371C5.12433 54.4919 4.33584 53.7036 4.33584 52.7342C4.33584 51.7649 5.12433 50.9764 6.09371 50.9764H13.125C14.0944 50.9764 14.8829 51.7649 14.8829 52.7342C14.8829 53.7036 14.0944 54.4919 13.125 54.4919ZM41.2501 86.1325C38.9585 86.1325 37.0046 84.6629 36.2789 82.617H46.2211C45.4957 84.6631 43.5417 86.1325 41.2501 86.1325ZM68.4962 70.3126C70.9194 70.3123 72.8907 72.2837 72.8907 74.7071C72.8907 77.1301 70.9194 79.1015 68.4962 79.1015H14.004C11.581 79.1015 9.60947 77.1301 9.60947 74.7071C9.60947 72.2839 11.581 70.3126 14.004 70.3126H21.9144H60.5861H68.4962ZM67.6173 52.7345C67.6173 51.7651 68.4058 50.9766 69.3752 50.9766H76.4063C77.3757 50.9766 78.1641 51.7651 78.1641 52.7345C78.1641 53.7039 77.3757 54.4921 76.4063 54.4921H69.3752C68.4061 54.4921 67.6173 53.7039 67.6173 52.7345Z" fill="#264F68"/>
</svg>
