<?xml version="1.0" encoding="utf-8"?>
<!-- Generator: Adobe Illustrator 20.1.0, SVG Export Plug-In . SVG Version: 6.00 Build 0)  -->
<svg version="1.1" id="Ebene_1" xmlns="http://www.w3.org/2000/svg" xmlns:xlink="http://www.w3.org/1999/xlink" x="0px" y="0px"
	 viewBox="0 0 150 150" style="enable-background:new 0 0 150 150;" xml:space="preserve">
<style type="text/css">
	.st0{fill:none;stroke:#52B68D;stroke-width:3.273;stroke-miterlimit:10;}
</style>
<path class="st0" d="M104.4,38.4c0-13.7-7.7-24.9-17.3-24.9c-5.2,0-8.2,4.4-13.1,4.4c-4.9,0-7.9-4.4-13.1-4.4
	c-9.5,0-17.3,11.1-17.3,24.9v5.7h60.7V38.4z"/>
<path class="st0" d="M40,51.9h68.1c4,0,7.2-3.5,7.2-7.9H32.8C32.8,48.4,36,51.9,40,51.9z"/>
<path class="st0" d="M44.1,68.3c0,17.1,13.8,30.9,30.9,30.9c17.1,0,30.9-13.8,30.9-30.9c0-6-1.8-11.6-4.7-16.4H48.9
	C45.9,56.7,44.1,62.3,44.1,68.3z"/>
<rect x="44.1" y="32.7" class="st0" width="60.3" height="11.4"/>
<path class="st0" d="M83,59.7h-4.4h-7.3h-5.3H49.2v12.5c0,3.5,2.8,6.3,6.3,6.3H65c3.5,0,6.3-2.8,6.3-6.3v-7.3h7.3v7.3
	c0,3.5,2.8,6.3,6.3,6.3h9.6c3.5,0,6.3-2.8,6.3-6.3V59.7H83z"/>
<rect x="31.1" y="105.7" class="st0" width="87.9" height="30.8"/>
</svg>
