<?xml version="1.0" encoding="UTF-8" standalone="no"?>
<svg width="16px" height="16px" viewBox="0 0 16 16" version="1.1" xmlns="http://www.w3.org/2000/svg" xmlns:xlink="http://www.w3.org/1999/xlink" xmlns:sketch="http://www.bohemiancoding.com/sketch/ns">
    <!-- Generator: Sketch 3.2 (9961) - http://www.bohemiancoding.com/sketch -->
    <title>Fill 897</title>
    <desc>Created with Sketch.</desc>
    <defs></defs>
    <g id="Page-1" stroke="none" stroke-width="1" fill="none" fill-rule="evenodd" sketch:type="MSPage">
        <g id="Artboard-1" sketch:type="MSArtboardGroup" transform="translate(-958.000000, -314.000000)" fill="#A9A9A9">
            <g id="Group" sketch:type="MSLayerGroup" transform="translate(623.000000, 169.000000)">
                <g id="Fill-897" transform="translate(335.000000, 145.000000)" sketch:type="MSShapeGroup">
                    <path d="M8,10.2031333 C6.78533333,10.2031333 5.797,9.21446667 5.797,8.00013333 C5.797,6.78546667 6.78533333,5.7968 8,5.7968 C9.21466667,5.7968 10.203,6.78546667 10.203,8.00013333 C10.203,9.21446667 9.21466667,10.2031333 8,10.2031333 M8,0.000133333333 C3.58866667,0.000133333333 0,3.58846667 0,8.00013333 C0,12.4114667 3.58866667,16.0001333 8,16.0001333 C9.63133333,16.0001333 11.195,15.5184667 12.522,14.6078 C12.8256667,14.3994667 12.9026667,13.9841333 12.6943333,13.6808 C12.4863333,13.3768 12.0713333,13.2998 11.7676667,13.5081333 C10.6636667,14.2658 9.36066667,14.6668 8,14.6668 C4.324,14.6668 1.33333333,11.6758 1.33333333,8.00013333 C1.33333333,4.32413333 4.324,1.33346667 8,1.33346667 C11.676,1.33346667 14.6666667,4.32413333 14.6666667,8.00013333 L14.6666667,8.6378 C14.6666667,9.5008 13.9646667,10.2031333 13.1013333,10.2031333 C12.2383333,10.2031333 11.5363333,9.5008 11.5363333,8.6378 L11.5363333,8.00013333 C11.5363333,6.05013333 9.95,4.46346667 8,4.46346667 C6.05,4.46346667 4.46366667,6.05013333 4.46366667,8.00013333 C4.46366667,9.9498 6.05,11.5364667 8,11.5364667 C9.08633333,11.5364667 10.059,11.0431333 10.708,10.2698 C11.2306667,11.0334667 12.108,11.5364667 13.1013333,11.5364667 C14.6996667,11.5364667 16,10.2361333 16,8.6378 L16,8.00013333 C16,3.58846667 12.4113333,0.000133333333 8,0.000133333333"></path>
                </g>
            </g>
        </g>
    </g>
</svg>