<svg width="154" height="173" viewBox="0 0 154 173" fill="none" xmlns="http://www.w3.org/2000/svg">
<rect x="0.5" y="0.5" width="153" height="172" stroke="#264F68"/>
<path d="M31.32 85.336H40.2V86.872H31.32V85.336ZM31.512 94H29.736V77.2H41.256V78.736H31.512V94ZM44.5635 94V81.4H46.2675V94H44.5635ZM45.4275 78.616C45.0755 78.616 44.7795 78.496 44.5395 78.256C44.2995 78.016 44.1795 77.728 44.1795 77.392C44.1795 77.056 44.2995 76.776 44.5395 76.552C44.7795 76.312 45.0755 76.192 45.4275 76.192C45.7795 76.192 46.0755 76.304 46.3155 76.528C46.5555 76.752 46.6755 77.032 46.6755 77.368C46.6755 77.72 46.5555 78.016 46.3155 78.256C46.0915 78.496 45.7955 78.616 45.4275 78.616ZM49.0888 94L54.4168 87.088L54.3928 87.928L49.3288 81.4H51.2488L55.4008 86.8L54.6808 86.776L58.8328 81.4H60.7048L55.5928 88L55.6168 87.088L60.9928 94H59.0488L54.6568 88.24L55.3288 88.336L51.0088 94H49.0888ZM70.4704 94V77.2H76.7584C78.1824 77.2 79.4064 77.432 80.4304 77.896C81.4544 78.344 82.2384 79 82.7824 79.864C83.3424 80.712 83.6224 81.744 83.6224 82.96C83.6224 84.144 83.3424 85.168 82.7824 86.032C82.2384 86.88 81.4544 87.536 80.4304 88C79.4064 88.464 78.1824 88.696 76.7584 88.696H71.4544L72.2464 87.856V94H70.4704ZM72.2464 88L71.4544 87.136H76.7104C78.3904 87.136 79.6624 86.776 80.5264 86.056C81.4064 85.32 81.8464 84.288 81.8464 82.96C81.8464 81.616 81.4064 80.576 80.5264 79.84C79.6624 79.104 78.3904 78.736 76.7104 78.736H71.4544L72.2464 77.896V88ZM86.7744 94V81.4H88.4064V84.832L88.2384 84.232C88.5904 83.272 89.1824 82.544 90.0144 82.048C90.8464 81.536 91.8784 81.28 93.1104 81.28V82.936C93.0464 82.936 92.9824 82.936 92.9184 82.936C92.8544 82.92 92.7904 82.912 92.7264 82.912C91.3984 82.912 90.3584 83.32 89.6064 84.136C88.8544 84.936 88.4784 86.08 88.4784 87.568V94H86.7744ZM96.2198 94V81.4H97.9238V94H96.2198ZM97.0838 78.616C96.7318 78.616 96.4358 78.496 96.1958 78.256C95.9558 78.016 95.8358 77.728 95.8358 77.392C95.8358 77.056 95.9558 76.776 96.1958 76.552C96.4358 76.312 96.7318 76.192 97.0838 76.192C97.4358 76.192 97.7318 76.304 97.9718 76.528C98.2118 76.752 98.3318 77.032 98.3318 77.368C98.3318 77.72 98.2118 78.016 97.9718 78.256C97.7478 78.496 97.4518 78.616 97.0838 78.616ZM107.897 94.12C106.649 94.12 105.529 93.848 104.537 93.304C103.561 92.744 102.793 91.984 102.233 91.024C101.673 90.048 101.393 88.936 101.393 87.688C101.393 86.424 101.673 85.312 102.233 84.352C102.793 83.392 103.561 82.64 104.537 82.096C105.529 81.552 106.649 81.28 107.897 81.28C108.969 81.28 109.937 81.488 110.801 81.904C111.665 82.32 112.345 82.944 112.841 83.776L111.569 84.64C111.137 84 110.601 83.528 109.961 83.224C109.321 82.92 108.625 82.768 107.873 82.768C106.977 82.768 106.169 82.976 105.449 83.392C104.729 83.792 104.161 84.36 103.745 85.096C103.329 85.832 103.121 86.696 103.121 87.688C103.121 88.68 103.329 89.544 103.745 90.28C104.161 91.016 104.729 91.592 105.449 92.008C106.169 92.408 106.977 92.608 107.873 92.608C108.625 92.608 109.321 92.456 109.961 92.152C110.601 91.848 111.137 91.384 111.569 90.76L112.841 91.624C112.345 92.44 111.665 93.064 110.801 93.496C109.937 93.912 108.969 94.12 107.897 94.12ZM121.33 94.12C120.018 94.12 118.866 93.848 117.874 93.304C116.882 92.744 116.106 91.984 115.546 91.024C114.986 90.048 114.706 88.936 114.706 87.688C114.706 86.44 114.97 85.336 115.498 84.376C116.042 83.416 116.778 82.664 117.706 82.12C118.65 81.56 119.706 81.28 120.874 81.28C122.058 81.28 123.106 81.552 124.018 82.096C124.946 82.624 125.674 83.376 126.202 84.352C126.73 85.312 126.994 86.424 126.994 87.688C126.994 87.768 126.986 87.856 126.97 87.952C126.97 88.032 126.97 88.12 126.97 88.216H116.002V86.944H126.058L125.386 87.448C125.386 86.536 125.186 85.728 124.786 85.024C124.402 84.304 123.874 83.744 123.202 83.344C122.53 82.944 121.754 82.744 120.874 82.744C120.01 82.744 119.234 82.944 118.546 83.344C117.858 83.744 117.322 84.304 116.938 85.024C116.554 85.744 116.362 86.568 116.362 87.496V87.76C116.362 88.72 116.57 89.568 116.986 90.304C117.418 91.024 118.01 91.592 118.762 92.008C119.53 92.408 120.402 92.608 121.378 92.608C122.146 92.608 122.858 92.472 123.514 92.2C124.186 91.928 124.762 91.512 125.242 90.952L126.202 92.056C125.642 92.728 124.938 93.24 124.09 93.592C123.258 93.944 122.338 94.12 121.33 94.12Z" fill="#264F68"/>
</svg>
