<!DOCTYPE svg PUBLIC "-//W3C//DTD SVG 1.1//EN" "http://www.w3.org/Graphics/SVG/1.1/DTD/svg11.dtd">

<!-- Uploaded to: SVG Repo, www.svgrepo.com, Transformed by: SVG Repo Mixer Tools -->
<svg fill="#264F68" version="1.1" id="Layer_1" xmlns="http://www.w3.org/2000/svg" xmlns:xlink="http://www.w3.org/1999/xlink" viewBox="0 0 32 32" xml:space="preserve" width="800px" height="800px">

<g id="SVGRepo_bgCarrier" stroke-width="0"/>

<g id="SVGRepo_tracerCarrier" stroke-linecap="round" stroke-linejoin="round"/>

<g id="SVGRepo_iconCarrier"> <path id="stairs--up_1_" d="M1.36,31H0.64v-6c0-0.199,0.161-0.36,0.36-0.36h5.64V19c0-0.199,0.161-0.36,0.36-0.36h5.64V13 c0-0.199,0.161-0.36,0.36-0.36h5.64V7c0-0.199,0.161-0.36,0.36-0.36h5.64V1c0-0.199,0.161-0.36,0.36-0.36h6v0.72h-5.64V7 c0,0.199-0.161,0.36-0.36,0.36h-5.64V13c0,0.199-0.161,0.36-0.36,0.36h-5.64V19c0,0.199-0.161,0.36-0.36,0.36H7.36V25 c0,0.199-0.161,0.36-0.36,0.36H1.36V31z M23,20.64v0.721h5.13l-7.385,7.385l0.51,0.51l7.385-7.385V27h0.721v-6.36H23z"/> <rect id="_Transparent_Rectangle" style="fill:none;" width="32" height="32"/> </g>

</svg>