<?xml version="1.0" encoding="UTF-8" standalone="no"?>
<svg width="16px" height="16px" viewBox="0 0 16 16" version="1.1" xmlns="http://www.w3.org/2000/svg" xmlns:xlink="http://www.w3.org/1999/xlink" xmlns:sketch="http://www.bohemiancoding.com/sketch/ns">
    <!-- Generator: Sketch 3.2 (9961) - http://www.bohemiancoding.com/sketch -->
    <title>Fill 741</title>
    <desc>Created with Sketch.</desc>
    <defs></defs>
    <g id="Page-1" stroke="none" stroke-width="1" fill="none" fill-rule="evenodd" sketch:type="MSPage">
        <g id="Artboard-1" sketch:type="MSArtboardGroup" transform="translate(-958.000000, -400.000000)" fill="#A9A9A9">
            <g id="Group" sketch:type="MSLayerGroup" transform="translate(623.000000, 169.000000)">
                <g id="Fill-741" transform="translate(335.000000, 231.000000)" sketch:type="MSShapeGroup">
                    <path d="M3.66666667,11 C4.402,11 5,11.598 5,12.3333333 C5,13.0686667 4.402,13.6666667 3.66666667,13.6666667 C2.93133333,13.6666667 2.33333333,13.0686667 2.33333333,12.3333333 C2.33333333,11.598 2.93133333,11 3.66666667,11 M5,16 C7.757,16 10,13.757 10,11 C10,10.2766667 9.84733333,9.57966667 9.54633333,8.92466667 L11.4713333,7 L12.6666667,7 L12.6666667,5.80466667 L12.8046667,5.66666667 L14,5.66666667 L14,4.47133333 L14.138,4.33333333 L15.3333333,4.33333333 L15.3333333,3.138 L16,2.47133333 L16,0 L13.5286667,0 L7.075,6.45333333 C6.42033333,6.15233333 5.72333333,6 5,6 C2.243,6 0,8.243 0,11 C0,13.757 2.243,16 5,16"></path>
                </g>
            </g>
        </g>
    </g>
</svg>