<svg width="105" height="102" viewBox="0 0 105 102" fill="none" xmlns="http://www.w3.org/2000/svg">
<g clip-path="url(#clip0_104_8)">
<path d="M104.249 29.1352L104.19 28.8173C104.19 28.8125 104.187 28.8101 104.187 28.8053C104.185 28.8017 104.187 28.7968 104.187 28.792L104.14 28.5644C104.128 28.5103 104.096 28.4681 104.079 28.4163C104.058 28.3658 104.056 28.3116 104.029 28.2622L103.882 27.9864C103.873 27.9708 103.858 27.9624 103.85 27.9467C103.84 27.9311 103.84 27.9154 103.831 27.8997L103.692 27.695C103.665 27.6517 103.619 27.6264 103.586 27.5867C103.551 27.5481 103.53 27.5036 103.49 27.4686L103.273 27.2844C103.268 27.2808 103.262 27.2808 103.259 27.276C103.254 27.2736 103.253 27.2688 103.247 27.2664L103.077 27.1291C103.053 27.111 103.028 27.1074 103.005 27.0917C102.982 27.0749 102.967 27.052 102.942 27.0376L69.683 7.83713C69.6613 7.82509 69.6408 7.82509 69.6192 7.81425C69.5951 7.80462 69.5854 7.78776 69.5626 7.77813L69.3434 7.68541C69.3217 7.67698 69.3013 7.68059 69.2796 7.67216C69.2748 7.66975 69.2724 7.66734 69.2675 7.66734L68.9918 5.67686C68.9894 5.65518 68.9761 5.64194 68.9713 5.62147C68.9665 5.601 68.9737 5.58414 68.9689 5.56367L68.9123 5.33487L68.8184 4.96881C68.8039 4.9074 68.7666 4.86164 68.7425 4.80745C68.7184 4.75206 68.7124 4.69426 68.6763 4.64127L68.4812 4.34385C68.474 4.33301 68.462 4.32699 68.4559 4.31735C68.4463 4.30531 68.4451 4.29327 68.4367 4.28243L68.3006 4.1006C68.2765 4.0705 68.2416 4.05364 68.2163 4.02595C68.191 3.99825 68.1778 3.96213 68.1477 3.93684L67.8852 3.70925C67.8647 3.69239 67.843 3.68758 67.8237 3.67433C67.8033 3.65988 67.7948 3.63941 67.7744 3.62496L67.6034 3.51177C67.5913 3.50454 67.5805 3.50454 67.5709 3.49732C67.5612 3.4913 67.5564 3.48166 67.5468 3.47564L63.1444 0.914381C63.1215 0.899931 63.095 0.899931 63.0685 0.887889C63.0432 0.877052 63.0276 0.855377 63.0023 0.844539L62.7735 0.754227C62.7554 0.745798 62.7373 0.74941 62.7181 0.74339C62.6988 0.736165 62.688 0.722919 62.6675 0.718102L62.5074 0.669935C62.5013 0.668731 62.4941 0.669935 62.4893 0.669935C62.4845 0.667527 62.4797 0.661506 62.4712 0.660302L62.2894 0.614544C62.2448 0.603706 62.2003 0.614544 62.1581 0.609727C62.1172 0.602502 62.0775 0.582031 62.0329 0.582031H61.8258H61.6331C61.5862 0.582031 61.5464 0.603706 61.5019 0.608523C61.4585 0.61334 61.4164 0.602502 61.3706 0.61334L61.19 0.659098C61.1828 0.660302 61.178 0.666323 61.1719 0.668731C61.1659 0.668731 61.1587 0.667527 61.1515 0.668731L60.9901 0.71449C60.9708 0.72051 60.96 0.73496 60.9407 0.740981C60.9215 0.745798 60.9046 0.74339 60.8865 0.750614L60.6578 0.842131C60.6349 0.851764 60.618 0.872235 60.5927 0.883073C60.5674 0.896319 60.541 0.896319 60.5169 0.90836L35.4389 15.4029C35.4196 15.4149 35.4088 15.433 35.3907 15.4463C35.3727 15.4583 35.3498 15.4607 35.3329 15.474L35.1511 15.61C35.1367 15.6209 35.1318 15.6341 35.1186 15.6449C35.1066 15.657 35.0897 15.6594 35.0777 15.6702L34.8729 15.8533C34.8453 15.8786 34.8332 15.9123 34.8091 15.9364C34.785 15.964 34.7513 15.9797 34.7297 16.0086L34.5924 16.1904C34.5755 16.2133 34.5719 16.2398 34.5575 16.2639C34.5442 16.2844 34.5225 16.2976 34.5117 16.3205C34.4864 16.3217 34.4635 16.3108 34.4394 16.3145L34.2456 16.3361C34.2203 16.3397 34.1998 16.3554 34.1769 16.3602C34.1529 16.365 34.13 16.3578 34.1071 16.3638L33.9241 16.4108C33.9205 16.412 33.9192 16.4144 33.9156 16.4156C33.9108 16.4168 33.906 16.4156 33.9012 16.4168L33.7422 16.4602C33.7206 16.4674 33.7061 16.483 33.6856 16.4879C33.6664 16.4951 33.6459 16.4915 33.6266 16.4999L33.3978 16.5914C33.3738 16.6011 33.3569 16.6227 33.3352 16.6336C33.3111 16.6456 33.2847 16.6444 33.2618 16.6576L8.16936 31.1317C8.14528 31.1462 8.13083 31.1691 8.10795 31.1847C8.08387 31.2028 8.05617 31.2076 8.03329 31.2244L7.8623 31.3617C7.85507 31.3689 7.85266 31.3774 7.84424 31.3846C7.83821 31.3882 7.82979 31.3894 7.82256 31.3966L7.61544 31.5797C7.58052 31.6098 7.56246 31.6531 7.53236 31.6893C7.50105 31.7254 7.46011 31.7483 7.43241 31.788L7.29634 31.9939C7.28671 32.0096 7.2855 32.0252 7.27707 32.0409C7.26744 32.0565 7.25179 32.065 7.24336 32.0806L7.09524 32.3552C7.06875 32.4057 7.06634 32.4587 7.04828 32.5093C7.02902 32.5611 6.99771 32.6032 6.98687 32.6586L6.94111 32.8862C6.93991 32.8898 6.94111 32.8934 6.94111 32.8982C6.94111 32.9031 6.9375 32.9055 6.93629 32.9091L6.87849 33.2294C6.87368 33.2619 6.88331 33.2932 6.8809 33.3257C6.87729 33.3582 6.86164 33.3871 6.86164 33.4196V42.8145L6.71714 42.8459L6.60154 42.8639C6.54012 42.8735 6.48955 42.9061 6.43175 42.9241C6.37154 42.9434 6.31013 42.947 6.25112 42.9771L6.03437 43.0915C6.02835 43.0951 6.02354 43.1023 6.01752 43.1059C6.0127 43.1096 6.00427 43.1096 5.99825 43.112L1.63315 45.6263C1.60906 45.6395 1.59461 45.6648 1.57173 45.6805C1.54765 45.6961 1.51875 45.7009 1.49467 45.7202L1.32368 45.8587C1.32006 45.8611 1.31886 45.8671 1.31404 45.8707C1.31163 45.8731 1.30802 45.8731 1.30561 45.8755L1.08886 46.0562C1.05033 46.0887 1.03106 46.1332 0.997348 46.1706C0.963631 46.2067 0.919077 46.2332 0.890177 46.2753L0.764944 46.4583C0.754106 46.4752 0.752902 46.4933 0.743269 46.5101C0.731227 46.5282 0.715573 46.5354 0.705939 46.5535L0.557827 46.828C0.534948 46.8702 0.533744 46.9147 0.518089 46.9581C0.500027 47.0014 0.471127 47.0351 0.459085 47.0809L0.401285 47.3097C0.397673 47.329 0.40249 47.3458 0.400081 47.3651C0.396469 47.3844 0.383223 47.3976 0.380815 47.4181L0.335056 47.7396C0.331444 47.7649 0.342281 47.7902 0.339873 47.8154C0.338669 47.8419 0.324219 47.8648 0.324219 47.8925V78.7541C0.324219 78.7806 0.338669 78.8035 0.339873 78.8299C0.342281 78.8552 0.331444 78.8817 0.335056 78.907L0.380815 79.2297C0.384427 79.2502 0.396469 79.2646 0.400081 79.2863C0.403694 79.302 0.398877 79.3176 0.40249 79.3381L0.46029 79.5645C0.47474 79.6247 0.506048 79.6717 0.530131 79.7234C0.542173 79.7535 0.542173 79.7897 0.559031 79.8198L0.707144 80.0931C0.719185 80.1148 0.736044 80.1304 0.749289 80.1521C0.756514 80.163 0.757719 80.1774 0.766148 80.1895L0.891381 80.3725C0.92871 80.4267 0.973264 80.47 1.01661 80.5146C1.02745 80.5254 1.02986 80.5399 1.0407 80.5483L1.25745 80.753C1.28153 80.7771 1.31284 80.7831 1.33933 80.8048C1.36221 80.8241 1.37546 80.8493 1.40195 80.8674L1.57294 80.9818C1.58498 80.989 1.59823 80.9938 1.60906 80.9986C1.6187 81.0059 1.62351 81.0143 1.63315 81.0203L34.8946 100.223C34.9055 100.23 34.9187 100.233 34.9319 100.24C34.9392 100.242 34.944 100.252 34.9512 100.257L35.18 100.37C35.221 100.391 35.2631 100.384 35.3028 100.398C35.3715 100.422 35.4341 100.462 35.5087 100.471L35.6135 100.487L35.7508 100.521C35.7797 100.528 35.8098 100.527 35.8387 100.531C35.8531 100.533 35.864 100.542 35.8772 100.545L36.0735 100.569C36.1156 100.574 36.1566 100.576 36.1987 100.576H36.2011H36.2035C36.2421 100.576 36.2818 100.574 36.3228 100.569L36.5275 100.545C36.5407 100.543 36.5504 100.534 36.5636 100.533C36.5961 100.527 36.6298 100.529 36.6599 100.521L36.796 100.488L36.9032 100.471C36.979 100.462 37.0404 100.422 37.1103 100.398C37.15 100.382 37.1922 100.387 37.2319 100.37L37.4607 100.257C37.4679 100.252 37.4727 100.242 37.48 100.24C37.492 100.233 37.5053 100.23 37.5173 100.223L41.8728 97.7089C41.8908 97.6992 41.8993 97.6836 41.9161 97.6715C41.9378 97.6571 41.9619 97.6523 41.9823 97.639L42.1666 97.5005C42.1774 97.4909 42.1834 97.4765 42.1943 97.468C42.2075 97.4584 42.222 97.456 42.234 97.4464L42.4387 97.2633C42.4724 97.2356 42.4869 97.1947 42.5158 97.1622C42.5375 97.1381 42.5688 97.1284 42.5892 97.1008L42.7265 96.9153C42.7386 96.8997 42.7398 96.8816 42.7506 96.8647C42.7651 96.8407 42.7843 96.8238 42.7976 96.7985C42.8241 96.7985 42.8505 96.7985 42.877 96.7937L43.0721 96.7708C43.0842 96.7696 43.0938 96.76 43.1058 96.7576C43.1311 96.7552 43.1588 96.7576 43.1841 96.7503L43.378 96.7058C43.3876 96.7034 43.3924 96.6962 43.4021 96.6937C43.4141 96.6913 43.4273 96.6937 43.4406 96.6889L43.5995 96.642C43.62 96.6372 43.6333 96.6191 43.6537 96.6155C43.6742 96.607 43.6947 96.6107 43.7151 96.6022L43.9331 96.5107C43.95 96.5059 43.9584 96.4914 43.974 96.4854C44.0005 96.471 44.0306 96.465 44.0559 96.4529L69.1447 81.9812C69.1664 81.9656 69.1772 81.9487 69.1977 81.9343C69.2242 81.915 69.2543 81.909 69.2784 81.8897L69.4506 81.7537C69.4602 81.7464 69.4626 81.7344 69.4723 81.7296C69.4795 81.7211 69.4915 81.7175 69.4975 81.7103L69.6962 81.5345C69.6986 81.5321 69.7022 81.5297 69.7035 81.5273C69.7709 81.4671 69.8287 81.4008 69.8805 81.3226L70.0189 81.1179C70.0262 81.107 70.0262 81.0938 70.0334 81.0829C70.0406 81.0721 70.0502 81.0625 70.0563 81.0528H70.2044C70.2875 81.0528 70.373 81.0408 70.4561 81.0227L70.6511 80.9758C70.6572 80.9746 70.6596 80.971 70.6668 80.9697C70.674 80.9673 70.6812 80.9685 70.6909 80.9661L70.8486 80.9216C70.8739 80.9156 70.8908 80.8975 70.9148 80.8891C70.9365 80.8818 70.9594 80.8867 70.9835 80.8746L71.2002 80.7831C71.2147 80.7783 71.2243 80.7638 71.2352 80.7578C71.2628 80.7446 71.2929 80.7398 71.3194 80.7241L96.4094 66.232C96.4311 66.2175 96.4395 66.197 96.4612 66.1826C96.4865 66.1657 96.5154 66.1597 96.5407 66.1404L96.7129 66.0044C96.7153 66.002 96.7177 65.9971 96.7225 65.9923C96.7249 65.9899 96.7334 65.9875 96.7382 65.9851L96.9537 65.8021C97.0019 65.7611 97.0272 65.7057 97.0669 65.6588C97.0922 65.6335 97.1259 65.6202 97.1452 65.5901L97.2728 65.4071C97.2813 65.3951 97.2825 65.3794 97.2909 65.365C97.3005 65.3505 97.3138 65.3397 97.3198 65.3228C97.3439 65.3216 97.3668 65.3216 97.3884 65.3192L97.5931 65.2963C97.61 65.2939 97.6208 65.2843 97.6377 65.2819C97.6726 65.2771 97.7087 65.2771 97.7437 65.2674L97.9267 65.2205C97.9315 65.2193 97.9339 65.2156 97.9375 65.2156C97.9448 65.2132 97.9508 65.2144 97.9604 65.2132L98.1182 65.1675C98.1374 65.1615 98.1483 65.147 98.1699 65.1422C98.1892 65.1374 98.2061 65.1374 98.2265 65.1301L98.4541 65.0386C98.471 65.0314 98.4794 65.017 98.4963 65.0109C98.5264 64.9965 98.5625 64.9893 98.5914 64.9736L102.946 62.4581C102.97 62.4449 102.978 62.4244 103.001 62.4099C103.026 62.3931 103.056 62.3883 103.079 62.3678L103.252 62.2317C103.255 62.2293 103.258 62.2245 103.261 62.2197C103.266 62.2173 103.271 62.2149 103.278 62.2125L103.492 62.0294C103.532 61.9957 103.551 61.9524 103.584 61.9162C103.607 61.8909 103.64 61.8813 103.66 61.8512L103.797 61.6694C103.81 61.6513 103.813 61.632 103.822 61.6128C103.848 61.5754 103.88 61.5417 103.898 61.4996L104.049 61.2022C104.066 61.1708 104.064 61.1347 104.074 61.0986C104.093 61.0504 104.123 61.0083 104.135 60.9553L104.18 60.7494C104.182 60.7398 104.18 60.7301 104.182 60.7217C104.185 60.7133 104.192 60.7024 104.194 60.6928L104.251 60.3496C104.257 60.3207 104.244 60.2906 104.246 60.2617C104.251 60.2316 104.267 60.2039 104.267 60.1726V29.3279C104.267 29.293 104.249 29.2653 104.246 29.2316C104.241 29.2002 104.255 29.1689 104.249 29.1352ZM36.4624 98.3242L36.3974 98.3579C36.3926 98.3579 36.389 98.3603 36.3854 98.3627C36.3685 98.3651 36.3505 98.3603 36.3336 98.3627L36.2132 98.3904L36.206 98.3928L36.1963 98.3904L36.0795 98.3627C36.0615 98.3603 36.0446 98.3651 36.0265 98.3627C36.0229 98.3603 36.0193 98.3579 36.0133 98.3579L35.9483 98.3242L2.74098 79.1527L2.67957 79.1117L2.61213 79.0467L2.58444 79.007L2.52784 78.9022L2.51701 78.86L2.48931 78.6734V47.9672L2.51701 47.7793L2.52784 47.7372L2.58444 47.6324L2.59528 47.6168L2.67716 47.5481L2.67957 47.5469L2.79035 47.459L7.05189 45.0049L7.1109 44.9736C7.12776 44.97 7.14221 44.9712 7.15786 44.9676L7.29152 44.9363L7.30838 44.9339L7.32644 44.9351L7.43843 44.9628C7.46131 44.9688 7.48299 44.9676 7.50466 44.9712L7.5745 45.0049L23.337 54.1072L40.7673 64.1752L40.8384 64.2174L40.8974 64.2788L40.9444 64.3426L40.9745 64.3992L40.9889 64.4667L41.0262 64.6726V77.9497V95.3318L41.0238 95.3415C41.0226 95.3487 41.025 95.3535 41.0238 95.3607C41.0226 95.3668 41.0202 95.3716 41.019 95.3776L40.9877 95.5558L40.9757 95.6172L40.9456 95.675L40.9191 95.7099L40.8324 95.7858L40.7336 95.8605L36.4624 98.3242ZM61.5404 2.82419L61.6343 2.78566L61.7259 2.76037L61.7668 2.74953H61.827H61.8992L61.951 2.76278L62.0281 2.78566L62.128 2.82539L66.4317 5.33126L66.5172 5.38906L66.6425 5.49623L66.6882 5.55765L66.7629 5.67325L66.8098 5.8635L66.8544 6.0369L67.2349 8.74507V8.74628L69.5963 25.5179L44.9277 39.7716C44.9024 39.7873 44.888 39.8114 44.8639 39.827C44.8422 39.8439 44.8133 39.8475 44.7917 39.8643L44.6207 40.0028C44.5954 40.0233 44.5833 40.0534 44.5593 40.0751C44.5376 40.0967 44.5099 40.1052 44.4894 40.128L44.3822 40.2485L41.7319 21.4021C41.7307 21.3816 41.7174 21.3671 41.7126 21.3491C41.709 21.3286 41.715 21.3105 41.7114 21.2913L41.6536 21.0613C41.6512 21.0529 41.6452 21.048 41.6428 21.0396C41.6404 21.03 41.6428 21.0203 41.6404 21.0131L41.538 20.6711C41.5236 20.6254 41.4922 20.5941 41.473 20.5507C41.4537 20.5086 41.4501 20.4616 41.426 20.4207L41.2321 20.1004C41.2213 20.0847 41.2069 20.0787 41.1972 20.063C41.1876 20.0474 41.1864 20.0317 41.1756 20.0173L41.0395 19.833C41.0118 19.7969 40.9708 19.7776 40.9419 19.7451C40.9094 19.7126 40.8914 19.6705 40.854 19.6404L40.6036 19.4357L40.6 19.4333L40.5963 19.4296L40.4254 19.2924C40.4025 19.2731 40.3748 19.2683 40.3507 19.2514C40.3278 19.237 40.3146 19.2117 40.2893 19.1972L36.7466 17.155L61.5404 2.82419ZM98.0158 42.4569L98.0772 42.4978L98.1639 42.5773L98.1928 42.6195L98.2265 42.6833L98.2422 42.7507L98.2783 42.9554V47.7998L98.241 48.0214L98.2289 48.0755L98.1868 48.1586L98.1772 48.1707L98.0784 48.2538L98.076 48.255L97.9652 48.3429L96.0891 49.4194L96.0867 49.4206L73.1847 62.6423V58.6108C73.1847 58.5783 73.1702 58.5518 73.1666 58.5217C73.1642 58.4928 73.1751 58.4627 73.1702 58.4326L73.1124 58.0906C73.11 58.0798 73.104 58.0725 73.1016 58.0653C73.0992 58.0533 73.104 58.0424 73.1016 58.0352L73.0558 57.8293C73.0462 57.7847 73.0173 57.751 73.0017 57.7077C72.986 57.6643 72.986 57.621 72.9679 57.5788L72.8174 57.2814C72.803 57.2525 72.7753 57.232 72.756 57.2055C72.7367 57.1766 72.7343 57.1417 72.7139 57.1164L72.5778 56.9346C72.5525 56.9009 72.5128 56.8816 72.4863 56.8515C72.4586 56.825 72.4441 56.7853 72.4116 56.76L72.1949 56.5758C72.1901 56.5745 72.184 56.5721 72.1792 56.5697C72.1768 56.5649 72.1744 56.5601 72.1696 56.5553L71.9974 56.4192C71.9733 56.3999 71.948 56.3951 71.9239 56.3819C71.9011 56.365 71.889 56.3421 71.8625 56.3277L46.2343 41.5201L71.0256 27.1929L71.1521 27.1423L71.2135 27.1182L71.2773 27.1026L71.299 27.1014H71.305L71.4242 27.1291H71.4266V27.1303L71.5013 27.1495L71.5892 27.1929L98.0158 42.4569ZM45.7707 78.4819L45.6659 78.5241L45.5611 78.5518L45.5419 78.5566H45.4708H45.4094L45.3901 78.5518L45.2842 78.5241L45.1794 78.4795L43.1937 77.3271V64.5786C43.1937 64.5437 43.1769 64.5148 43.1745 64.4823C43.1709 64.451 43.1817 64.4185 43.1769 64.386L43.1191 64.0657C43.1191 64.0609 43.1155 64.0584 43.1143 64.0536C43.1131 64.05 43.1155 64.0464 43.1143 64.0416L43.0685 63.8128C43.0577 63.7574 43.0239 63.7141 43.0059 63.6635C42.9878 63.6117 42.9854 63.5575 42.9589 63.5093L42.8108 63.2372C42.7976 63.2119 42.7759 63.1987 42.7614 63.1758C42.7458 63.1529 42.7434 63.1264 42.7265 63.1023L42.5892 62.9193C42.5724 62.8952 42.5471 62.8868 42.529 62.8651C42.5122 62.8446 42.505 62.8206 42.4857 62.8001L42.281 62.5954C42.2509 62.5665 42.2123 62.5544 42.1798 62.5279C42.1473 62.5027 42.1256 62.4641 42.0895 62.4412L41.9053 62.3281C41.9005 62.3232 41.8932 62.3232 41.8872 62.3208C41.8824 62.316 41.8788 62.3112 41.8728 62.3076L26.0452 53.1656L43.7633 42.941L43.9162 42.8784C43.9198 42.8772 43.9223 42.8748 43.9247 42.8748C43.9343 42.8699 43.9439 42.8603 43.9536 42.8555C43.9788 42.8446 44.0041 42.8386 44.0282 42.8266L44.0354 42.8254H44.0379L44.0993 42.8422L44.2161 42.8832L44.3883 42.9554L70.7137 58.1556L70.8221 58.2411L70.9185 58.3242L70.9257 58.3314L70.9702 58.4205L70.9823 58.4747L71.0172 58.6951V63.5274V63.5394C71.0148 63.5467 71.0172 63.5515 71.0172 63.5563C71.0148 63.5635 71.0124 63.5683 71.0088 63.5732L70.9799 63.7562L70.9678 63.8152L70.9389 63.8718L70.9028 63.9212L70.8185 63.9982L70.7511 64.0416L68.8292 65.1663H68.8268L45.7707 78.4819ZM34.2745 18.5771L34.3732 18.5361L34.4792 18.5072L34.4816 18.506L34.5647 18.4856L34.5683 18.4844L34.5803 18.4868L34.6634 18.5072L34.767 18.5361L34.82 18.5578L34.8236 18.559L34.8272 18.5602L34.8681 18.5771L39.1273 21.0336L39.2368 21.1203L39.2381 21.1215L39.3777 21.2359L39.4018 21.2684L39.4994 21.4286L39.5547 21.6116L39.5921 21.7621L42.334 41.2672L23.8777 51.9168L9.02673 43.3444V33.5148L9.06406 33.3101L9.0773 33.2426L9.12426 33.1547L9.15557 33.109L9.23143 33.0415L9.32536 32.9657L34.2745 18.5771ZM43.1937 94.442V79.8342L44.1595 80.3966C44.1908 80.4146 44.2245 80.4207 44.2558 80.4339C44.2727 80.4435 44.2823 80.458 44.3004 80.4628L44.5292 80.5555C44.5484 80.5627 44.5677 80.5603 44.587 80.5676C44.6062 80.5748 44.6171 80.5892 44.6363 80.5928L44.7965 80.6374C44.8025 80.6398 44.8085 80.6398 44.817 80.6398C44.8206 80.6398 44.8218 80.6446 44.8266 80.6446L45.0096 80.6916C45.0999 80.7145 45.1878 80.7241 45.2769 80.7241H45.4708H45.6779C45.7658 80.7241 45.8549 80.7133 45.9453 80.6916L46.1283 80.6446C46.1319 80.6446 46.1343 80.6398 46.1379 80.6398C46.1439 80.6398 46.1512 80.6398 46.1584 80.6374L46.3173 80.5928C46.3378 80.5856 46.3486 80.5712 46.3679 80.5676C46.3872 80.5603 46.4064 80.5627 46.4257 80.5555L46.6545 80.4628C46.6714 80.4568 46.681 80.4423 46.6954 80.4363C46.728 80.4219 46.7617 80.4146 46.7906 80.399L68.2886 67.9876V79.5994L68.2801 79.6488C68.2789 79.6572 68.2813 79.6632 68.2813 79.6729C68.2789 79.6777 68.2741 79.6849 68.2741 79.6921L68.2572 79.8113L68.25 79.8427L68.1874 79.9558L68.1561 80.004L68.0826 80.0702L67.9923 80.1425L43.1937 94.442ZM70.4536 78.7131V66.7305L71.8734 65.902C71.8806 65.8972 71.8854 65.8876 71.895 65.8828C71.9047 65.8755 71.9167 65.8731 71.9275 65.8647L72.0997 65.7527C72.1238 65.7334 72.1371 65.7082 72.1612 65.6889C72.1852 65.6672 72.2202 65.6612 72.2406 65.6371L72.4586 65.4324C72.4851 65.4071 72.4971 65.3734 72.5212 65.3457C72.5405 65.324 72.5658 65.318 72.585 65.2939L72.7211 65.1109C72.7331 65.094 72.7355 65.076 72.7464 65.0591C72.7608 65.035 72.7801 65.017 72.7945 64.9905C72.815 64.9905 72.8295 64.9905 72.8511 64.9881L73.0558 64.964C73.0703 64.9628 73.0811 64.9531 73.0956 64.9507C73.1305 64.9471 73.1642 64.9483 73.2016 64.9375L73.3376 64.905L73.4388 64.8905C73.5146 64.8785 73.5748 64.8411 73.6459 64.8147C73.6856 64.8002 73.7278 64.805 73.7663 64.787L73.9939 64.6738C74.0035 64.669 74.0083 64.6605 74.0156 64.6569C74.0276 64.6509 74.0396 64.6485 74.0529 64.6425L95.5497 52.2335V63.8513L95.5473 63.8622C95.5424 63.8802 95.5497 63.8935 95.5473 63.9091C95.5437 63.9272 95.534 63.9356 95.5328 63.9525L95.516 64.0861L95.5087 64.1138L95.4545 64.2114L95.4425 64.2294L95.3377 64.3161L95.2522 64.3848L70.4536 78.7131ZM97.7148 62.9699V50.986L99.1236 50.178C99.1465 50.1648 99.1586 50.1467 99.1778 50.1323C99.2043 50.113 99.238 50.1046 99.2645 50.0841L99.4355 49.9468C99.4403 49.9432 99.4427 49.9396 99.4452 49.936C99.4488 49.9324 99.4524 49.9324 99.456 49.9288L99.6727 49.7457C99.7125 49.7144 99.7317 49.6699 99.7618 49.6337C99.7871 49.6072 99.8233 49.5964 99.8437 49.5651L99.9798 49.3833C99.9955 49.3628 99.9979 49.3423 100.007 49.3219C100.032 49.2881 100.059 49.2568 100.079 49.2183L100.229 48.9221C100.246 48.8908 100.245 48.8546 100.254 48.8233C100.274 48.7716 100.306 48.7258 100.318 48.6692L100.363 48.4633C100.365 48.4537 100.363 48.4452 100.363 48.4368C100.365 48.426 100.372 48.4187 100.375 48.4079L100.431 48.0659C100.439 48.0358 100.427 48.0057 100.429 47.9768C100.431 47.9467 100.448 47.9202 100.448 47.8889V42.8603C100.448 42.8254 100.431 42.7977 100.427 42.7652C100.424 42.7327 100.436 42.7014 100.429 42.6688L100.372 42.3485C100.372 42.3449 100.37 42.3413 100.368 42.3377C100.368 42.3341 100.37 42.3305 100.368 42.3257L100.323 42.0981C100.311 42.0415 100.278 41.9981 100.259 41.9451C100.24 41.8934 100.237 41.8392 100.212 41.7898L100.062 41.5165C100.048 41.4912 100.027 41.4779 100.012 41.455C99.9967 41.4334 99.9942 41.4093 99.9798 41.3876L99.8437 41.2034C99.8221 41.1769 99.7956 41.166 99.7751 41.1408C99.751 41.1155 99.7438 41.0842 99.7185 41.0625L99.4993 40.8566C99.4753 40.8337 99.4464 40.8277 99.4223 40.8084C99.397 40.7867 99.3849 40.7614 99.3572 40.7434L99.1862 40.629C99.1742 40.6218 99.1622 40.6218 99.1537 40.6157C99.1429 40.6085 99.1381 40.5977 99.1285 40.5929L72.644 25.3024C72.632 25.2963 72.6224 25.2963 72.6127 25.2915C72.6031 25.2855 72.5983 25.2759 72.5874 25.2698L72.3586 25.1567C72.3225 25.1374 72.2828 25.1386 72.2418 25.1253C72.2021 25.1109 72.1708 25.0832 72.1286 25.0712L71.9336 25.0254H71.9312L71.7529 24.982C71.7397 24.9784 71.7252 24.9833 71.7108 24.9796L69.6469 10.3177L101.794 28.8763L101.88 28.945L101.979 29.0268L102.002 29.0618L102.049 29.1497L102.063 29.2183L102.099 29.4218V60.0751L102.062 60.3014L102.051 60.346L102.004 60.4399L102.002 60.4423L101.88 60.5459L101.794 60.6145L97.7148 62.9699Z" fill="#264F68"/>
</g>
<defs>
<clipPath id="clip0_104_8">
<rect width="105" height="101" fill="white" transform="translate(0 0.5)"/>
</clipPath>
</defs>
</svg>
