<svg width="151" height="101" viewBox="0 0 151 101" fill="none" xmlns="http://www.w3.org/2000/svg">
<g clip-path="url(#clip0_116_4256)">
<path d="M71.1054 97.9245C72.9786 99.1935 76.0385 99.2149 77.9298 97.9738L147.311 52.5341C148.172 51.9694 148.651 51.232 148.657 50.4552C148.664 49.6799 148.2 48.9375 147.353 48.3646L78.891 1.90934C77.0212 0.641908 73.9612 0.622157 72.0666 1.85996L2.68564 47.2998C1.82478 47.8643 1.34579 48.6017 1.33921 49.3787C1.33262 50.1539 1.79679 50.8963 2.64285 51.4691L71.1054 97.9245ZM74.5637 99.7004C73.1415 99.7004 71.7194 99.335 70.6445 98.6059L2.18032 52.1505C1.09888 51.4164 0.507968 50.4305 0.516198 49.372C0.526074 48.3103 1.1351 47.331 2.23463 46.6116L71.6157 1.17193C73.7604 -0.237059 77.2334 -0.210722 79.3536 1.22789L147.816 47.6832C148.897 48.4174 149.489 49.4034 149.48 50.4617C149.47 51.5234 148.862 52.5027 147.762 53.2221L78.3808 98.6618C77.3223 99.3548 75.943 99.7004 74.5637 99.7004Z" fill="#264f68"/>
<path d="M78.3958 4.82227L80.4764 6.24442L77.581 8.10112L75.5005 6.67897L78.3958 4.82227Z" fill="#264f68"/>
<path d="M73.2747 8.10645L75.3552 9.5286L72.4599 11.3853L70.3794 9.96315L73.2747 8.10645Z" fill="#264f68"/>
<path d="M77.5089 8.08691L80.0964 9.85637L77.9254 11.2489L75.3379 9.48108L77.5089 8.08691Z" fill="#264f68"/>
<path d="M72.9304 4.95703L75.5179 6.7265L73.3468 8.11903L70.7593 6.34956L72.9304 4.95703Z" fill="#264f68"/>
<path d="M87.1547 10.8115L89.2352 12.2337L86.3399 14.0887L84.2593 12.6683L87.1547 10.8115Z" fill="#264f68"/>
<path d="M82.0345 14.0957L84.115 15.5179L81.2197 17.373L79.1392 15.9524L82.0345 14.0957Z" fill="#264f68"/>
<path d="M86.2687 14.0762L88.8562 15.8456L86.6852 17.2381L84.0977 15.4687L86.2687 14.0762Z" fill="#264f68"/>
<path d="M81.6902 10.9453L84.2777 12.7148L82.1066 14.1073L79.519 12.3395L81.6902 10.9453Z" fill="#264f68"/>
<path d="M95.9129 16.7988L97.9934 18.221L95.0981 20.0777L93.0176 18.6555L95.9129 16.7988Z" fill="#264f68"/>
<path d="M90.7928 20.083L92.8734 21.5052L89.978 23.3619L87.8975 21.9397L90.7928 20.083Z" fill="#264f68"/>
<path d="M95.0285 20.0635L97.6161 21.8329L95.445 23.2272L92.8574 21.4576L95.0285 20.0635Z" fill="#264f68"/>
<path d="M90.4494 16.9336L93.037 18.703L90.8659 20.0955L88.2783 18.3261L90.4494 16.9336Z" fill="#264f68"/>
<path d="M104.673 22.7891L106.754 24.2096L103.859 26.0663L101.78 24.6442L104.673 22.7891Z" fill="#264f68"/>
<path d="M99.5525 26.0732L101.633 27.4937L98.7377 29.3504L96.6572 27.9282L99.5525 26.0732Z" fill="#264f68"/>
<path d="M103.788 26.0527L106.377 27.8223L104.205 29.2148L101.617 27.4453L103.788 26.0527Z" fill="#264f68"/>
<path d="M99.2082 22.9219L101.796 24.6913L99.6246 26.0838L97.0371 24.316L99.2082 22.9219Z" fill="#264f68"/>
<path d="M113.432 28.7754L115.512 30.1975L112.619 32.0542L110.538 30.6321L113.432 28.7754Z" fill="#264f68"/>
<path d="M108.311 32.0605L110.391 33.4827L107.496 35.3394L105.416 33.9172L108.311 32.0605Z" fill="#264f68"/>
<path d="M112.547 32.041L115.136 33.8104L112.963 35.203L110.375 33.4351L112.547 32.041Z" fill="#264f68"/>
<path d="M107.968 28.9111L110.556 30.6806L108.384 32.0731L105.797 30.3037L107.968 28.9111Z" fill="#264f68"/>
<path d="M122.192 34.7637L124.273 36.1858L121.377 38.0425L119.297 36.6204L122.192 34.7637Z" fill="#264f68"/>
<path d="M117.071 38.0479L119.152 39.47L116.257 41.3267L114.178 39.9046L117.071 38.0479Z" fill="#264f68"/>
<path d="M121.306 38.0303L123.894 39.7981L121.723 41.1922L119.135 39.4228L121.306 38.0303Z" fill="#264f68"/>
<path d="M116.729 34.9004L119.316 36.6682L117.145 38.0625L114.558 36.2929L116.729 34.9004Z" fill="#264f68"/>
<path d="M130.952 40.7529L133.032 42.1751L130.137 44.0318L128.057 42.6096L130.952 40.7529Z" fill="#264f68"/>
<path d="M125.83 44.0371L127.911 45.4593L125.018 47.316L122.937 45.8938L125.83 44.0371Z" fill="#264f68"/>
<path d="M130.065 44.0176L132.654 45.787L130.481 47.1795L127.894 45.4117L130.065 44.0176Z" fill="#264f68"/>
<path d="M125.486 40.8887L128.074 42.6581L125.902 44.0506L123.315 42.2812L125.486 40.8887Z" fill="#264f68"/>
<path d="M139.712 46.7422L141.792 48.1643L138.897 50.021L136.815 48.5989L139.712 46.7422Z" fill="#264f68"/>
<path d="M134.591 50.0264L136.673 51.4485L133.776 53.3052L131.696 51.8831L134.591 50.0264Z" fill="#264f68"/>
<path d="M138.824 50.0068L141.412 51.7747L139.241 53.1689L136.654 51.3994L138.824 50.0068Z" fill="#264f68"/>
<path d="M134.245 46.876L136.835 48.6454L134.663 50.0379L132.075 48.2701L134.245 46.876Z" fill="#264f68"/>
<path d="M69.4913 10.5342L71.5719 11.9563L68.6782 13.813L66.5977 12.3909L69.4913 10.5342Z" fill="#264f68"/>
<path d="M64.3698 13.8174L66.4503 15.2395L63.5566 17.0962L61.4761 15.6741L64.3698 13.8174Z" fill="#264f68"/>
<path d="M68.6047 13.7988L71.1923 15.5682L69.0211 16.9608L66.4336 15.1914L68.6047 13.7988Z" fill="#264f68"/>
<path d="M64.0261 10.6689L66.6136 12.4367L64.4425 13.8309L61.855 12.0615L64.0261 10.6689Z" fill="#264f68"/>
<path d="M78.2496 16.5215L80.3303 17.9436L77.4366 19.8003L75.356 18.3782L78.2496 16.5215Z" fill="#264f68"/>
<path d="M73.1286 19.8047L75.2091 21.2268L72.3154 23.0835L70.2349 21.6614L73.1286 19.8047Z" fill="#264f68"/>
<path d="M77.3645 19.7881L79.952 21.5559L77.7809 22.9502L75.1934 21.1806L77.3645 19.7881Z" fill="#264f68"/>
<path d="M72.7844 16.6562L75.3719 18.4257L73.2008 19.8182L70.6133 18.0488L72.7844 16.6562Z" fill="#264f68"/>
<path d="M87.0086 22.5107L89.0891 23.9329L86.1938 25.788L84.1133 24.3674L87.0086 22.5107Z" fill="#264f68"/>
<path d="M81.8883 25.7939L83.9688 27.2161L81.0751 29.0711L78.9946 27.6489L81.8883 25.7939Z" fill="#264f68"/>
<path d="M86.1228 25.7754L88.7119 27.5449L86.5392 28.9375L83.9517 27.1679L86.1228 25.7754Z" fill="#264f68"/>
<path d="M81.5451 22.6455L84.1327 24.4133L81.9615 25.8075L79.374 24.038L81.5451 22.6455Z" fill="#264f68"/>
<path d="M95.7683 28.498L97.8489 29.9202L94.9536 31.7769L92.873 30.3547L95.7683 28.498Z" fill="#264f68"/>
<path d="M90.6476 31.7822L92.7281 33.2044L89.8344 35.0611L87.7539 33.6389L90.6476 31.7822Z" fill="#264f68"/>
<path d="M94.884 31.7646L97.4715 33.5341L95.3004 34.9266L92.7129 33.1572L94.884 31.7646Z" fill="#264f68"/>
<path d="M90.3039 28.6338L92.8915 30.4032L90.7203 31.7957L88.1328 30.0263L90.3039 28.6338Z" fill="#264f68"/>
<path d="M104.528 34.4873L106.609 35.9095L103.713 37.7644L101.633 36.3423L104.528 34.4873Z" fill="#264f68"/>
<path d="M99.4074 37.7715L101.488 39.1936L98.5942 41.0487L96.5137 39.6266L99.4074 37.7715Z" fill="#264f68"/>
<path d="M103.642 37.7529L106.23 39.5224L104.059 40.9149L101.471 39.1455L103.642 37.7529Z" fill="#264f68"/>
<path d="M99.0632 34.6221L101.652 36.3916L99.4796 37.7841L96.8921 36.0146L99.0632 34.6221Z" fill="#264f68"/>
<path d="M113.288 40.4756L115.369 41.8977L112.473 43.7544L110.393 42.3323L113.288 40.4756Z" fill="#264f68"/>
<path d="M108.167 43.7598L110.248 45.1819L107.354 47.0386L105.273 45.6165L108.167 43.7598Z" fill="#264f68"/>
<path d="M112.402 43.7412L114.99 45.509L112.818 46.9015L110.231 45.1337L112.402 43.7412Z" fill="#264f68"/>
<path d="M107.823 40.6104L110.411 42.3798L108.239 43.7723L105.652 42.0045L107.823 40.6104Z" fill="#264f68"/>
<path d="M122.046 46.4648L124.127 47.8854L121.231 49.7421L119.151 48.3199L122.046 46.4648Z" fill="#264f68"/>
<path d="M116.926 49.748L119.007 51.1686L116.113 53.0253L114.032 51.6031L116.926 49.748Z" fill="#264f68"/>
<path d="M121.16 49.7295L123.749 51.499L121.577 52.8916L118.989 51.122L121.16 49.7295Z" fill="#264f68"/>
<path d="M116.582 46.5977L119.171 48.3672L116.998 49.7613L114.411 47.9919L116.582 46.5977Z" fill="#264f68"/>
<path d="M130.807 52.4541L132.887 53.8746L129.994 55.7314L127.914 54.3092L130.807 52.4541Z" fill="#264f68"/>
<path d="M125.687 55.7373L127.767 57.1579L124.873 59.0146L122.793 57.5924L125.687 55.7373Z" fill="#264f68"/>
<path d="M129.92 55.7168L132.51 57.4863L130.337 58.8789L127.75 57.1111L129.92 55.7168Z" fill="#264f68"/>
<path d="M125.341 52.5869L127.928 54.3563L125.758 55.7489L123.17 53.9794L125.341 52.5869Z" fill="#264f68"/>
<path d="M60.5866 16.2451L62.6671 17.6673L59.7734 19.5224L57.6929 18.1002L60.5866 16.2451Z" fill="#264f68"/>
<path d="M55.4661 19.5283L57.5467 20.9505L54.6513 22.8072L52.5708 21.385L55.4661 19.5283Z" fill="#264f68"/>
<path d="M59.7004 19.5098L62.288 21.2776L60.1168 22.6718L57.5293 20.9023L59.7004 19.5098Z" fill="#264f68"/>
<path d="M55.1213 16.3799L57.7089 18.1477L55.5377 19.5402L52.9502 17.7724L55.1213 16.3799Z" fill="#264f68"/>
<path d="M69.3453 22.2324L71.426 23.6546L68.5323 25.5113L66.4517 24.0891L69.3453 22.2324Z" fill="#264f68"/>
<path d="M64.2245 25.5166L66.305 26.9388L63.4097 28.7955L61.3291 27.3733L64.2245 25.5166Z" fill="#264f68"/>
<path d="M68.4602 25.499L71.0477 27.2668L68.8766 28.6594L66.2891 26.8915L68.4602 25.499Z" fill="#264f68"/>
<path d="M63.8801 22.3672L66.4676 24.135L64.2965 25.5291L61.709 23.7597L63.8801 22.3672Z" fill="#264f68"/>
<path d="M78.1037 28.2197L80.1842 29.6419L77.2905 31.4986L75.21 30.0764L78.1037 28.2197Z" fill="#264f68"/>
<path d="M72.9843 31.5039L75.0648 32.9261L72.1695 34.7828L70.0889 33.3606L72.9843 31.5039Z" fill="#264f68"/>
<path d="M77.2185 31.4863L79.806 33.2557L77.6349 34.6483L75.0474 32.8789L77.2185 31.4863Z" fill="#264f68"/>
<path d="M72.6399 28.3564L75.2274 30.1243L73.0563 31.5168L70.4688 29.749L72.6399 28.3564Z" fill="#264f68"/>
<path d="M86.8634 34.209L88.9439 35.6311L86.0502 37.4878L83.9697 36.0657L86.8634 34.209Z" fill="#264f68"/>
<path d="M81.7425 37.4932L83.823 38.9153L80.9277 40.772L78.8472 39.3499L81.7425 37.4932Z" fill="#264f68"/>
<path d="M85.9783 37.4746L88.5674 39.2442L86.3947 40.6383L83.8071 38.8689L85.9783 37.4746Z" fill="#264f68"/>
<path d="M81.3981 34.3447L83.9856 36.1125L81.8146 37.5068L79.2271 35.7373L81.3981 34.3447Z" fill="#264f68"/>
<path d="M95.6232 40.1973L97.7037 41.6194L94.81 43.4761L92.7295 42.054L95.6232 40.1973Z" fill="#264f68"/>
<path d="M90.5022 43.4805L92.5827 44.9026L89.6874 46.7593L87.6069 45.3372L90.5022 43.4805Z" fill="#264f68"/>
<path d="M94.7364 43.4629L97.3257 45.2324L95.153 46.625L92.5654 44.8554L94.7364 43.4629Z" fill="#264f68"/>
<path d="M90.1593 40.334L92.7468 42.1018L90.5758 43.4959L87.9883 41.7265L90.1593 40.334Z" fill="#264f68"/>
<path d="M104.383 46.1865L106.463 47.6087L103.57 49.4638L101.489 48.0432L104.383 46.1865Z" fill="#264f68"/>
<path d="M99.2614 49.4697L101.342 50.8919L98.4466 52.7486L96.3677 51.3264L99.2614 49.4697Z" fill="#264f68"/>
<path d="M103.496 49.4512L106.084 51.2207L103.913 52.6132L101.325 50.8454L103.496 49.4512Z" fill="#264f68"/>
<path d="M98.9186 46.3223L101.506 48.0917L99.3351 49.4842L96.7476 47.7148L98.9186 46.3223Z" fill="#264f68"/>
<path d="M113.143 52.1748L115.223 53.597L112.33 55.4537L110.249 54.0315L113.143 52.1748Z" fill="#264f68"/>
<path d="M108.021 55.458L110.102 56.8802L107.208 58.7369L105.127 57.3147L108.021 55.458Z" fill="#264f68"/>
<path d="M112.256 55.4404L114.845 57.2099L112.674 58.6024L110.085 56.833L112.256 55.4404Z" fill="#264f68"/>
<path d="M107.677 52.3096L110.265 54.079L108.094 55.4715L105.506 53.7021L107.677 52.3096Z" fill="#264f68"/>
<path d="M121.902 58.1631L123.983 59.5852L121.089 61.4419L119.009 60.0198L121.902 58.1631Z" fill="#264f68"/>
<path d="M116.782 61.4473L118.862 62.8694L115.967 64.7261L113.886 63.304L116.782 61.4473Z" fill="#264f68"/>
<path d="M121.016 61.4277L123.604 63.1972L121.432 64.5897L118.845 62.8203L121.016 61.4277Z" fill="#264f68"/>
<path d="M116.437 58.2988L119.026 60.0684L116.854 61.4609L114.266 59.6914L116.437 58.2988Z" fill="#264f68"/>
<path d="M51.6813 21.9561L53.7619 23.3766L50.8682 25.2333L48.7876 23.8112L51.6813 21.9561Z" fill="#264f68"/>
<path d="M46.5597 25.2402L48.6402 26.6607L45.7465 28.5174L43.666 27.0952L46.5597 25.2402Z" fill="#264f68"/>
<path d="M50.7936 25.2207L53.3811 26.9901L51.2101 28.3826L48.6226 26.6132L50.7936 25.2207Z" fill="#264f68"/>
<path d="M46.2145 22.0908L48.802 23.8586L46.631 25.2529L44.0435 23.4833L46.2145 22.0908Z" fill="#264f68"/>
<path d="M60.4396 27.9434L62.5201 29.3655L59.6264 31.2222L57.5459 29.8001L60.4396 27.9434Z" fill="#264f68"/>
<path d="M55.3195 31.2275L57.4 32.6497L54.5063 34.5048L52.4258 33.0826L55.3195 31.2275Z" fill="#264f68"/>
<path d="M59.5533 31.21L62.1409 32.9778L59.9699 34.3703L57.3823 32.6025L59.5533 31.21Z" fill="#264f68"/>
<path d="M54.9742 28.0791L57.5618 29.8486L55.3908 31.2412L52.8032 29.4716L54.9742 28.0791Z" fill="#264f68"/>
<path d="M69.2 33.9316L71.2806 35.3538L68.3852 37.2105L66.3047 35.7883L69.2 33.9316Z" fill="#264f68"/>
<path d="M64.0783 37.2158L66.1589 38.638L63.2652 40.4947L61.1846 39.0725L64.0783 37.2158Z" fill="#264f68"/>
<path d="M68.3126 37.1982L70.9019 38.9677L68.7291 40.3602L66.1416 38.5908L68.3126 37.1982Z" fill="#264f68"/>
<path d="M63.734 34.0684L66.3215 35.8362L64.1505 37.2287L61.563 35.4609L63.734 34.0684Z" fill="#264f68"/>
<path d="M77.9597 39.9209L80.0404 41.3431L77.145 43.1998L75.0645 41.7776L77.9597 39.9209Z" fill="#264f68"/>
<path d="M72.838 43.2051L74.9187 44.6272L72.025 46.4823L69.9443 45.0602L72.838 43.2051Z" fill="#264f68"/>
<path d="M77.0724 43.1875L79.6616 44.9553L77.4905 46.3494L74.9014 44.58L77.0724 43.1875Z" fill="#264f68"/>
<path d="M72.4938 40.0557L75.0813 41.8251L72.9103 43.2176L70.3228 41.4482L72.4938 40.0557Z" fill="#264f68"/>
<path d="M86.7182 45.9082L88.7987 47.3304L85.9034 49.1871L83.8228 47.7649L86.7182 45.9082Z" fill="#264f68"/>
<path d="M81.5973 49.1924L83.6779 50.6145L80.7843 52.4712L78.7036 51.0491L81.5973 49.1924Z" fill="#264f68"/>
<path d="M85.8321 49.1748L88.4197 50.9442L86.2487 52.3368L83.6611 50.5673L85.8321 49.1748Z" fill="#264f68"/>
<path d="M81.2535 46.0449L83.8428 47.8143L81.67 49.2069L79.0825 47.4374L81.2535 46.0449Z" fill="#264f68"/>
<path d="M95.4779 51.8975L97.5585 53.3196L94.6632 55.1763L92.5825 53.7542L95.4779 51.8975Z" fill="#264f68"/>
<path d="M90.3571 55.1816L92.4377 56.6038L89.544 58.4588L87.4634 57.0366L90.3571 55.1816Z" fill="#264f68"/>
<path d="M94.5919 55.1641L97.1794 56.9319L95.0084 58.3244L92.4209 56.5566L94.5919 55.1641Z" fill="#264f68"/>
<path d="M90.0134 52.0322L92.6009 53.8016L90.4298 55.1942L87.8423 53.4264L90.0134 52.0322Z" fill="#264f68"/>
<path d="M104.237 57.8848L106.317 59.3069L103.422 61.1636L101.343 59.7415L104.237 57.8848Z" fill="#264f68"/>
<path d="M99.1158 61.1699L101.196 62.5921L98.3027 64.4472L96.2222 63.0266L99.1158 61.1699Z" fill="#264f68"/>
<path d="M103.35 61.1514L105.938 62.9208L103.767 64.3133L101.179 62.5439L103.35 61.1514Z" fill="#264f68"/>
<path d="M98.7707 58.0205L101.36 59.7899L99.1871 61.1825L96.5996 59.413L98.7707 58.0205Z" fill="#264f68"/>
<path d="M112.997 63.874L115.077 65.2962L112.184 67.1529L110.103 65.7307L112.997 63.874Z" fill="#264f68"/>
<path d="M107.877 67.1592L109.957 68.5813L107.063 70.4364L104.983 69.0159L107.877 67.1592Z" fill="#264f68"/>
<path d="M112.109 67.1387L114.698 68.9081L112.526 70.3006L109.938 68.5312L112.109 67.1387Z" fill="#264f68"/>
<path d="M107.53 64.0098L110.119 65.7792L107.948 67.1717L105.359 65.4023L107.53 64.0098Z" fill="#264f68"/>
<path d="M42.7755 27.667L44.856 29.0891L41.9624 30.9441L39.8818 29.522L42.7755 27.667Z" fill="#264f68"/>
<path d="M37.6554 30.9492L39.7359 32.3714L36.8422 34.2281L34.7617 32.8059L37.6554 30.9492Z" fill="#264f68"/>
<path d="M41.8893 30.9316L44.4768 32.6995L42.3058 34.0936L39.7183 32.3242L41.8893 30.9316Z" fill="#264f68"/>
<path d="M37.3102 27.8008L39.8977 29.5703L37.7267 30.9628L35.1392 29.195L37.3102 27.8008Z" fill="#264f68"/>
<path d="M51.5353 33.6543L53.6158 35.0765L50.7221 36.9314L48.6416 35.5093L51.5353 33.6543Z" fill="#264f68"/>
<path d="M46.4152 36.9385L48.4958 38.359L45.6021 40.2157L43.5215 38.7936L46.4152 36.9385Z" fill="#264f68"/>
<path d="M50.6485 36.9199L53.2361 38.6893L51.0651 40.0819L48.4775 38.3141L50.6485 36.9199Z" fill="#264f68"/>
<path d="M46.0699 33.79L48.6575 35.5579L46.4865 36.952L43.8989 35.1826L46.0699 33.79Z" fill="#264f68"/>
<path d="M60.2941 39.6426L62.3746 41.0647L59.4809 42.9214L57.4004 41.4993L60.2941 39.6426Z" fill="#264f68"/>
<path d="M55.174 42.9268L57.2546 44.3489L54.3609 46.204L52.2803 44.7819L55.174 42.9268Z" fill="#264f68"/>
<path d="M59.4083 42.9092L61.9958 44.6787L59.8248 46.0713L57.2373 44.3017L59.4083 42.9092Z" fill="#264f68"/>
<path d="M54.8298 39.7783L57.4173 41.5477L55.2462 42.9403L52.6587 41.1724L54.8298 39.7783Z" fill="#264f68"/>
<path d="M69.0534 45.6318L71.1339 47.054L68.2402 48.9091L66.1597 47.4869L69.0534 45.6318Z" fill="#264f68"/>
<path d="M63.9332 48.9141L66.0139 50.3362L63.1202 52.1929L61.0396 50.7708L63.9332 48.9141Z" fill="#264f68"/>
<path d="M68.1681 48.8965L70.7573 50.6659L68.5846 52.0584L65.9971 50.2906L68.1681 48.8965Z" fill="#264f68"/>
<path d="M63.5881 45.7666L66.1756 47.5344L64.0045 48.9285L61.417 47.1591L63.5881 45.7666Z" fill="#264f68"/>
<path d="M77.8121 51.6201L79.8928 53.0423L76.9991 54.899L74.9185 53.4768L77.8121 51.6201Z" fill="#264f68"/>
<path d="M72.6935 54.9033L74.774 56.3255L71.8803 58.1804L69.7998 56.7583L72.6935 54.9033Z" fill="#264f68"/>
<path d="M76.927 54.8857L79.5161 56.6536L77.3434 58.0477L74.7559 56.2783L76.927 54.8857Z" fill="#264f68"/>
<path d="M72.3494 51.7549L74.9369 53.5243L72.7658 54.9186L70.1782 53.149L72.3494 51.7549Z" fill="#264f68"/>
<path d="M86.5729 57.6094L88.6534 59.0315L85.7597 60.8865L83.6792 59.4643L86.5729 57.6094Z" fill="#264f68"/>
<path d="M81.4528 60.8916L83.5333 62.3138L80.6396 64.1705L78.5591 62.7483L81.4528 60.8916Z" fill="#264f68"/>
<path d="M85.6863 60.873L88.2738 62.6425L86.1027 64.035L83.5151 62.2672L85.6863 60.873Z" fill="#264f68"/>
<path d="M81.1091 57.7441L83.6966 59.5137L81.5255 60.9062L78.938 59.1367L81.1091 57.7441Z" fill="#264f68"/>
<path d="M95.3312 63.5967L97.4118 65.0188L94.5181 66.8755L92.4375 65.4534L95.3312 63.5967Z" fill="#264f68"/>
<path d="M90.2116 66.8799L92.2921 68.302L89.3984 70.1571L87.3179 68.735L90.2116 66.8799Z" fill="#264f68"/>
<path d="M94.4451 66.8633L97.0342 68.6311L94.8615 70.0254L92.2739 68.2558L94.4451 66.8633Z" fill="#264f68"/>
<path d="M89.866 63.7314L92.4535 65.501L90.2824 66.8934L87.6948 65.124L89.866 63.7314Z" fill="#264f68"/>
<path d="M104.092 69.5859L106.173 71.0081L103.279 72.8648L101.199 71.4426L104.092 69.5859Z" fill="#264f68"/>
<path d="M98.9723 72.8701L101.053 74.2923L98.1591 76.1474L96.0786 74.7252L98.9723 72.8701Z" fill="#264f68"/>
<path d="M103.205 72.8506L105.792 74.6201L103.621 76.0127L101.034 74.2431L103.205 72.8506Z" fill="#264f68"/>
<path d="M98.6257 69.7207L101.215 71.4885L99.0421 72.8827L96.4546 71.1132L98.6257 69.7207Z" fill="#264f68"/>
<path d="M33.8702 33.377L35.9508 34.7991L33.0571 36.6558L30.9766 35.2337L33.8702 33.377Z" fill="#264f68"/>
<path d="M28.7503 36.6611L30.8308 38.0833L27.9355 39.94L25.855 38.5178L28.7503 36.6611Z" fill="#264f68"/>
<path d="M32.9845 36.6416L35.572 38.411L33.401 39.8035L30.8135 38.0357L32.9845 36.6416Z" fill="#264f68"/>
<path d="M28.406 33.5117L30.9935 35.2811L28.8224 36.6737L26.2349 34.9042L28.406 33.5117Z" fill="#264f68"/>
<path d="M42.6295 39.3662L44.71 40.7884L41.8164 42.6435L39.7358 41.2213L42.6295 39.3662Z" fill="#264f68"/>
<path d="M37.5099 42.6484L39.5904 44.0706L36.6951 45.9273L34.6162 44.5051L37.5099 42.6484Z" fill="#264f68"/>
<path d="M41.7434 42.6309L44.3309 44.4004L42.1598 45.7929L39.5723 44.0234L41.7434 42.6309Z" fill="#264f68"/>
<path d="M37.1658 39.501L39.7533 41.2688L37.5822 42.6613L34.9946 40.8935L37.1658 39.501Z" fill="#264f68"/>
<path d="M51.3893 45.3535L53.4698 46.7757L50.5761 48.6308L48.4956 47.2086L51.3893 45.3535Z" fill="#264f68"/>
<path d="M46.2697 48.6377L48.3502 50.0598L45.4565 51.9148L43.376 50.4927L46.2697 48.6377Z" fill="#264f68"/>
<path d="M50.5032 48.6182L53.0923 50.3876L50.9196 51.7817L48.332 50.0123L50.5032 48.6182Z" fill="#264f68"/>
<path d="M45.9255 45.4883L48.5131 47.2577L46.3419 48.6502L43.7544 46.8808L45.9255 45.4883Z" fill="#264f68"/>
<path d="M60.1491 51.3428L62.2297 52.7649L59.336 54.62L57.2554 53.1979L60.1491 51.3428Z" fill="#264f68"/>
<path d="M55.0296 54.625L57.1101 56.0472L54.2148 57.9039L52.1343 56.4817L55.0296 54.625Z" fill="#264f68"/>
<path d="M59.2638 54.6074L61.8513 56.3768L59.6803 57.7694L57.0928 55.9999L59.2638 54.6074Z" fill="#264f68"/>
<path d="M54.6838 51.4766L57.2714 53.246L55.1002 54.6385L52.5127 52.8707L54.6838 51.4766Z" fill="#264f68"/>
<path d="M68.9078 57.3311L70.9885 58.7532L68.0948 60.6082L66.0142 59.186L68.9078 57.3311Z" fill="#264f68"/>
<path d="M63.7879 60.6152L65.8685 62.0358L62.9731 63.8925L60.8926 62.4703L63.7879 60.6152Z" fill="#264f68"/>
<path d="M68.0222 60.5947L70.6097 62.3641L68.4386 63.7567L65.8511 61.9889L68.0222 60.5947Z" fill="#264f68"/>
<path d="M63.4436 57.4658L66.0327 59.2354L63.86 60.6279L61.2725 58.8583L63.4436 57.4658Z" fill="#264f68"/>
<path d="M77.6671 63.3203L79.7478 64.7409L76.8541 66.5976L74.7734 65.1754L77.6671 63.3203Z" fill="#264f68"/>
<path d="M72.5476 66.6025L74.6283 68.0247L71.7329 69.8814L69.6523 68.4592L72.5476 66.6025Z" fill="#264f68"/>
<path d="M76.782 66.585L79.3695 68.3545L77.1984 69.747L74.6108 67.9775L76.782 66.585Z" fill="#264f68"/>
<path d="M72.2034 63.4551L74.7909 65.2229L72.6198 66.617L70.0322 64.8476L72.2034 63.4551Z" fill="#264f68"/>
<path d="M86.4259 69.3076L88.5064 70.7298L85.6127 72.5849L83.5322 71.1627L86.4259 69.3076Z" fill="#264f68"/>
<path d="M81.3061 72.5898L83.3866 74.012L80.4913 75.8687L78.4106 74.4465L81.3061 72.5898Z" fill="#264f68"/>
<path d="M85.5408 72.5723L88.1299 74.3418L85.9572 75.7343L83.3696 73.9665L85.5408 72.5723Z" fill="#264f68"/>
<path d="M80.9615 69.4434L83.5508 71.2128L81.3781 72.6053L78.7905 70.8359L80.9615 69.4434Z" fill="#264f68"/>
<path d="M95.1867 75.2969L97.2672 76.719L94.3735 78.5741L92.293 77.152L95.1867 75.2969Z" fill="#264f68"/>
<path d="M90.0673 78.5791L92.1478 80.0013L89.2525 81.858L87.1719 80.4358L90.0673 78.5791Z" fill="#264f68"/>
<path d="M94.2989 78.5615L96.8882 80.3293L94.7155 81.7235L92.1279 79.954L94.2989 78.5615Z" fill="#264f68"/>
<path d="M89.7213 75.4307L92.3088 77.2001L90.1378 78.5926L87.5503 76.8248L89.7213 75.4307Z" fill="#264f68"/>
<path d="M24.9662 39.0879L27.0467 40.51L24.1514 42.3667L22.0708 40.9446L24.9662 39.0879Z" fill="#264f68"/>
<path d="M19.8458 42.3721L21.9264 43.7942L19.0327 45.6509L16.9521 44.2288L19.8458 42.3721Z" fill="#264f68"/>
<path d="M24.0802 42.3525L26.6677 44.1221L24.4967 45.5146L21.9092 43.7451L24.0802 42.3525Z" fill="#264f68"/>
<path d="M19.5017 39.2236L22.0892 40.9915L19.9181 42.3856L17.3306 40.6162L19.5017 39.2236Z" fill="#264f68"/>
<path d="M33.726 45.0762L35.8065 46.4983L32.9112 48.355L30.8306 46.9329L33.726 45.0762Z" fill="#264f68"/>
<path d="M28.6041 48.3594L30.6847 49.7815L27.791 51.6382L25.7104 50.2161L28.6041 48.3594Z" fill="#264f68"/>
<path d="M32.8401 48.3428L35.4276 50.1106L33.2565 51.5047L30.6689 49.7353L32.8401 48.3428Z" fill="#264f68"/>
<path d="M28.26 45.2109L30.8475 46.9804L28.6764 48.3729L26.0889 46.6051L28.26 45.2109Z" fill="#264f68"/>
<path d="M42.4842 51.0654L44.5647 52.4876L41.6694 54.3443L39.5889 52.9221L42.4842 51.0654Z" fill="#264f68"/>
<path d="M37.3639 54.3486L39.4444 55.7708L36.5507 57.6259L34.4702 56.2037L37.3639 54.3486Z" fill="#264f68"/>
<path d="M41.5984 54.3301L44.1859 56.0995L42.0148 57.492L39.4272 55.7226L41.5984 54.3301Z" fill="#264f68"/>
<path d="M37.0198 51.2002L39.6073 52.968L37.4362 54.3623L34.8486 52.5927L37.0198 51.2002Z" fill="#264f68"/>
<path d="M51.2438 57.0527L53.3243 58.4749L50.429 60.3316L48.3501 58.9094L51.2438 57.0527Z" fill="#264f68"/>
<path d="M46.1237 60.3369L48.2042 61.7591L45.3105 63.6158L43.23 62.1936L46.1237 60.3369Z" fill="#264f68"/>
<path d="M50.3581 60.3193L52.9473 62.0888L50.7745 63.4813L48.187 61.7119L50.3581 60.3193Z" fill="#264f68"/>
<path d="M45.7784 57.1875L48.366 58.957L46.195 60.3496L43.6074 58.58L45.7784 57.1875Z" fill="#264f68"/>
<path d="M60.0021 63.042L62.0826 64.4641L59.1889 66.3191L57.1084 64.897L60.0021 63.042Z" fill="#264f68"/>
<path d="M54.882 66.3262L56.9626 67.7483L54.0689 69.6034L51.9883 68.1813L54.882 66.3262Z" fill="#264f68"/>
<path d="M59.1169 66.3066L61.7061 68.0761L59.5333 69.4686L56.9458 67.6992L59.1169 66.3066Z" fill="#264f68"/>
<path d="M54.5393 63.1768L57.1268 64.9462L54.9557 66.3387L52.3682 64.5693L54.5393 63.1768Z" fill="#264f68"/>
<path d="M68.7635 69.0293L70.844 70.4515L67.9487 72.3081L65.8682 70.886L68.7635 69.0293Z" fill="#264f68"/>
<path d="M63.6417 72.3135L65.7224 73.7356L62.8287 75.5923L60.748 74.1702L63.6417 72.3135Z" fill="#264f68"/>
<path d="M67.8762 72.2959L70.4637 74.0637L68.2926 75.458L65.7051 73.6884L67.8762 72.2959Z" fill="#264f68"/>
<path d="M63.2991 69.165L65.8866 70.9345L63.7155 72.327L61.1279 70.5592L63.2991 69.165Z" fill="#264f68"/>
<path d="M77.5218 75.0195L79.6024 76.4401L76.707 78.2968L74.6265 76.8746L77.5218 75.0195Z" fill="#264f68"/>
<path d="M72.4 78.3027L74.4807 79.7232L71.587 81.5799L69.5063 80.1577L72.4 78.3027Z" fill="#264f68"/>
<path d="M76.636 78.2832L79.2251 80.0526L77.0524 81.4452L74.4648 79.6757L76.636 78.2832Z" fill="#264f68"/>
<path d="M72.0572 75.1523L74.6448 76.9218L72.4738 78.316L69.8862 76.5465L72.0572 75.1523Z" fill="#264f68"/>
<path d="M86.283 81.0088L88.3636 82.4292L85.4682 84.2859L83.3877 82.8638L86.283 81.0088Z" fill="#264f68"/>
<path d="M81.1622 84.292L83.2428 85.7125L80.3491 87.5692L78.2686 86.1471L81.1622 84.292Z" fill="#264f68"/>
<path d="M85.3956 84.2715L87.9831 86.0409L85.8121 87.4334L83.2246 85.6656L85.3956 84.2715Z" fill="#264f68"/>
<path d="M80.817 81.1416L83.4063 82.9111L81.2335 84.3037L78.646 82.5341L80.817 81.1416Z" fill="#264f68"/>
<path d="M16.0612 44.7988L18.1418 46.221L15.2481 48.0761L13.1675 46.6539L16.0612 44.7988Z" fill="#264f68"/>
<path d="M10.9411 48.083L13.0216 49.5052L10.1279 51.3601L8.04736 49.938L10.9411 48.083Z" fill="#264f68"/>
<path d="M15.175 48.0635L17.7626 49.8313L15.5914 51.2254L13.0039 49.456L15.175 48.0635Z" fill="#264f68"/>
<path d="M10.5973 44.9346L13.1849 46.7024L11.0138 48.0949L8.42627 46.3271L10.5973 44.9346Z" fill="#264f68"/>
<path d="M24.82 50.7871L26.9005 52.2093L24.0068 54.066L21.9263 52.6438L24.82 50.7871Z" fill="#264f68"/>
<path d="M19.6998 54.0703L21.7804 55.4925L18.8867 57.3492L16.8062 55.927L19.6998 54.0703Z" fill="#264f68"/>
<path d="M23.9343 54.0527L26.5218 55.8205L24.3507 57.2131L21.7632 55.4453L23.9343 54.0527Z" fill="#264f68"/>
<path d="M19.3557 50.9219L21.9432 52.6913L19.7721 54.0838L17.1846 52.3144L19.3557 50.9219Z" fill="#264f68"/>
<path d="M33.5797 56.7744L35.6602 58.1966L32.7666 60.0533L30.686 58.6311L33.5797 56.7744Z" fill="#264f68"/>
<path d="M28.4581 60.0586L30.5388 61.4807L27.6451 63.3375L25.5645 61.9153L28.4581 60.0586Z" fill="#264f68"/>
<path d="M32.6931 60.041L35.2822 61.8104L33.1095 63.203L30.522 61.4335L32.6931 60.041Z" fill="#264f68"/>
<path d="M28.1155 56.9111L30.703 58.6789L28.5319 60.0715L25.9443 58.3037L28.1155 56.9111Z" fill="#264f68"/>
<path d="M42.3395 62.7637L44.42 64.1858L41.5263 66.0425L39.4458 64.6204L42.3395 62.7637Z" fill="#264f68"/>
<path d="M37.2179 66.0479L39.2985 67.47L36.4049 69.3267L34.3242 67.9045L37.2179 66.0479Z" fill="#264f68"/>
<path d="M41.4538 66.0303L44.0414 67.7981L41.8702 69.1923L39.2827 67.4228L41.4538 66.0303Z" fill="#264f68"/>
<path d="M36.8736 62.8994L39.4612 64.6672L37.2902 66.0614L34.7026 64.2919L36.8736 62.8994Z" fill="#264f68"/>
<path d="M51.0988 68.752L53.1793 70.1741L50.2856 72.0308L48.2051 70.6087L51.0988 68.752Z" fill="#264f68"/>
<path d="M45.9777 72.0352L48.0583 73.4573L45.1646 75.314L43.084 73.8919L45.9777 72.0352Z" fill="#264f68"/>
<path d="M50.2125 72.0176L52.8 73.7871L50.629 75.1796L48.0415 73.4101L50.2125 72.0176Z" fill="#264f68"/>
<path d="M45.6334 68.8887L48.2227 70.6565L46.0499 72.0506L43.4624 70.2812L45.6334 68.8887Z" fill="#264f68"/>
<path d="M59.8576 74.7402L61.9381 76.1624L59.0444 78.0175L56.9639 76.5969L59.8576 74.7402Z" fill="#264f68"/>
<path d="M54.7374 78.0244L56.8181 79.4466L53.9244 81.3015L51.8438 79.8811L54.7374 78.0244Z" fill="#264f68"/>
<path d="M58.9723 78.0059L61.5598 79.7754L59.3888 81.1679L56.8013 79.4001L58.9723 78.0059Z" fill="#264f68"/>
<path d="M54.3932 74.876L56.9807 76.6454L54.8097 78.0379L52.2222 76.2685L54.3932 74.876Z" fill="#264f68"/>
<path d="M68.6173 80.7285L70.6978 82.1507L67.8041 84.0074L65.7236 82.5852L68.6173 80.7285Z" fill="#264f68"/>
<path d="M63.4972 84.0127L65.5778 85.4348L62.6842 87.2915L60.6035 85.8694L63.4972 84.0127Z" fill="#264f68"/>
<path d="M67.7316 83.9951L70.3208 85.7645L68.1481 87.1571L65.5605 85.3876L67.7316 83.9951Z" fill="#264f68"/>
<path d="M63.1521 80.8643L65.7412 82.6338L63.5685 84.0263L60.981 82.2568L63.1521 80.8643Z" fill="#264f68"/>
<path d="M77.3781 86.7178L79.4586 88.1399L76.5649 89.9966L74.4844 88.5745L77.3781 86.7178Z" fill="#264f68"/>
<path d="M72.257 90.002L74.3376 91.4241L71.4439 93.2808L69.3633 91.8587L72.257 90.002Z" fill="#264f68"/>
<path d="M76.4905 89.9824L79.0796 91.7518L76.9069 93.1444L74.3193 91.375L76.4905 89.9824Z" fill="#264f68"/>
<path d="M71.9127 86.8525L74.5002 88.6221L72.3292 90.0146L69.7417 88.2451L71.9127 86.8525Z" fill="#264f68"/>
<path d="M76.0815 11.9434L78.1621 13.3655L74.3779 15.7917L72.2974 14.3713L76.0815 11.9434Z" fill="#264f68"/>
<path d="M84.9586 18.0107L87.0391 19.4329L83.2549 21.8607L81.1743 20.4385L84.9586 18.0107Z" fill="#264f68"/>
<path d="M93.7758 24.0391L95.8565 25.4612L92.0722 27.889L89.9917 26.4668L93.7758 24.0391Z" fill="#264f68"/>
<path d="M111.315 36.0303L113.395 37.4524L109.611 39.8803L107.53 38.4582L111.315 36.0303Z" fill="#264f68"/>
<path d="M102.472 29.9854L104.552 31.4075L100.768 33.8338L98.6875 32.4133L102.472 29.9854Z" fill="#264f68"/>
<path d="M119.985 41.957L122.065 43.3792L118.281 45.8071L116.201 44.3849L119.985 41.957Z" fill="#264f68"/>
<path d="M128.723 47.9326L130.804 49.3548L127.02 51.7826L124.938 50.3604L128.723 47.9326Z" fill="#264f68"/>
<path d="M67.3966 17.5127L69.4771 18.9348L65.6929 21.3628L63.6123 19.9406L67.3966 17.5127Z" fill="#264f68"/>
<path d="M76.2745 23.5811L78.355 25.0032L74.5709 27.431L72.4902 26.0088L76.2745 23.5811Z" fill="#264f68"/>
<path d="M85.0909 29.6084L87.1714 31.0306L83.3873 33.4585L81.3066 32.0363L85.0909 29.6084Z" fill="#264f68"/>
<path d="M102.631 41.6006L104.711 43.0227L100.927 45.4505L98.8467 44.0284L102.631 41.6006Z" fill="#264f68"/>
<path d="M93.7866 35.5547L95.8672 36.9768L92.083 39.4047L90.0024 37.9826L93.7866 35.5547Z" fill="#264f68"/>
<path d="M111.3 47.5273L113.381 48.9495L109.597 51.3774L107.516 49.9552L111.3 47.5273Z" fill="#264f68"/>
<path d="M120.039 53.502L122.12 54.9241L118.335 57.3519L116.255 55.9297L120.039 53.502Z" fill="#264f68"/>
<path d="M58.7119 23.083L60.7924 24.5052L57.0082 26.9329L54.9277 25.5108L58.7119 23.083Z" fill="#264f68"/>
<path d="M67.5893 29.1504L69.6698 30.5725L65.8857 33.0005L63.8052 31.5783L67.5893 29.1504Z" fill="#264f68"/>
<path d="M76.4057 35.1787L78.4864 36.6009L74.7021 39.0288L72.6216 37.6066L76.4057 35.1787Z" fill="#264f68"/>
<path d="M93.9458 47.1699L96.0264 48.5921L92.2421 51.0199L90.1616 49.5977L93.9458 47.1699Z" fill="#264f68"/>
<path d="M85.1016 41.124L87.1822 42.5462L83.398 44.9741L81.3174 43.5519L85.1016 41.124Z" fill="#264f68"/>
<path d="M102.615 53.0967L104.696 54.5188L100.912 56.9466L98.8311 55.5245L102.615 53.0967Z" fill="#264f68"/>
<path d="M111.354 59.0713L113.435 60.4934L109.651 62.9213L107.57 61.4992L111.354 59.0713Z" fill="#264f68"/>
<path d="M49.1578 29.21L51.2383 30.6305L47.4542 33.0583L45.3735 31.6361L49.1578 29.21Z" fill="#264f68"/>
<path d="M58.0352 35.2783L60.1158 36.7005L56.3316 39.1283L54.251 37.7061L58.0352 35.2783Z" fill="#264f68"/>
<path d="M66.8516 41.3057L68.9322 42.7278L65.148 45.1541L63.0674 43.7336L66.8516 41.3057Z" fill="#264f68"/>
<path d="M84.3917 53.2979L86.4722 54.72L82.6881 57.1462L80.6074 55.724L84.3917 53.2979Z" fill="#264f68"/>
<path d="M75.5489 47.252L77.6294 48.6725L73.8453 51.1004L71.7646 49.6783L75.5489 47.252Z" fill="#264f68"/>
<path d="M93.061 59.2246L95.1416 60.6468L91.3574 63.0747L89.2769 61.6525L93.061 59.2246Z" fill="#264f68"/>
<path d="M101.801 65.1992L103.882 66.6214L100.098 69.0477L98.0171 67.6271L101.801 65.1992Z" fill="#264f68"/>
<path d="M40.4737 34.7803L42.5542 36.2024L38.7701 38.6286L36.6895 37.2065L40.4737 34.7803Z" fill="#264f68"/>
<path d="M49.3505 40.8486L51.4311 42.2708L47.6469 44.6986L45.5664 43.2764L49.3505 40.8486Z" fill="#264f68"/>
<path d="M58.167 46.876L60.2475 48.2981L56.4633 50.726L54.3828 49.3039L58.167 46.876Z" fill="#264f68"/>
<path d="M75.7065 58.8682L77.787 60.2903L74.0029 62.7166L71.9224 61.2945L75.7065 58.8682Z" fill="#264f68"/>
<path d="M66.8637 52.8223L68.9444 54.2444L65.1601 56.6706L63.0796 55.2484L66.8637 52.8223Z" fill="#264f68"/>
<path d="M84.3761 64.7939L86.4566 66.2161L82.6724 68.6439L80.5918 67.2217L84.3761 64.7939Z" fill="#264f68"/>
<path d="M93.1163 70.7686L95.1968 72.1907L91.4127 74.6186L89.332 73.1965L93.1163 70.7686Z" fill="#264f68"/>
<path d="M31.789 40.3506L33.8695 41.7727L30.0854 44.199L28.0049 42.7769L31.789 40.3506Z" fill="#264f68"/>
<path d="M40.6655 46.418L42.7461 47.8401L38.9619 50.268L36.8813 48.8459L40.6655 46.418Z" fill="#264f68"/>
<path d="M49.4819 52.4463L51.5625 53.8684L47.7783 56.2964L45.6978 54.8742L49.4819 52.4463Z" fill="#264f68"/>
<path d="M67.0216 64.4375L69.1021 65.8597L65.3179 68.286L63.2373 66.8638L67.0216 64.4375Z" fill="#264f68"/>
<path d="M58.1777 58.3916L60.2582 59.8138L56.4741 62.2399L54.3936 60.8178L58.1777 58.3916Z" fill="#264f68"/>
<path d="M75.6909 70.3633L77.7714 71.7854L73.9873 74.2132L71.9067 72.7911L75.6909 70.3633Z" fill="#264f68"/>
<path d="M84.4301 76.3389L86.5108 77.761L82.7265 80.1889L80.646 78.7668L84.4301 76.3389Z" fill="#264f68"/>
<path d="M22.6528 46.209L24.7334 47.6295L20.9492 50.0574L18.8687 48.6353L22.6528 46.209Z" fill="#264f68"/>
<path d="M31.5299 52.2773L33.6104 53.6995L29.8262 56.1274L27.7456 54.7053L31.5299 52.2773Z" fill="#264f68"/>
<path d="M40.3463 58.3047L42.4268 59.7268L38.6427 62.1548L36.562 60.7326L40.3463 58.3047Z" fill="#264f68"/>
<path d="M57.8858 70.2969L59.9663 71.719L56.1822 74.1453L54.1016 72.7232L57.8858 70.2969Z" fill="#264f68"/>
<path d="M49.042 64.251L51.1225 65.6731L47.3383 68.0993L45.2578 66.6772L49.042 64.251Z" fill="#264f68"/>
<path d="M66.5551 76.2227L68.6358 77.6448L64.8515 80.0726L62.771 78.6504L66.5551 76.2227Z" fill="#264f68"/>
<path d="M75.2944 82.1973L77.375 83.6194L73.5908 86.0473L71.5103 84.6252L75.2944 82.1973Z" fill="#264f68"/>
</g>
<defs>
<clipPath id="clip0_116_4256">
<rect width="150.61" height="99.9952" fill="white" transform="translate(0.0678711 0.0371094)"/>
</clipPath>
</defs>
</svg>
