<svg width="151" height="101" viewBox="0 0 151 101" fill="none" xmlns="http://www.w3.org/2000/svg">
<g clip-path="url(#clip0_116_3846)">
<path d="M69.6607 7.24658C67.3974 8.80865 67.5489 11.4373 69.9997 13.1097L71.9058 11.7929C70.5462 10.8645 70.4244 9.42919 71.6359 8.59302C72.8474 7.75849 74.9395 7.83256 76.2991 8.76091L78.2051 7.44576C75.7575 5.7734 71.924 5.68452 69.6607 7.24658Z" fill="#264f68"/>
<path d="M58.6343 14.8545C56.371 16.4167 56.5225 19.0453 58.9734 20.7177L60.8795 19.4008C59.5199 18.4725 59.398 17.0371 60.6095 16.201C61.821 15.3665 63.913 15.4405 65.2727 16.3689L67.1804 15.052C64.7311 13.3814 60.8976 13.2941 58.6343 14.8545Z" fill="#264f68"/>
<path d="M47.608 22.4642C45.3446 24.0246 45.4961 26.6549 47.947 28.3256L49.8531 27.0104C48.4935 26.0804 48.3717 24.6468 49.5832 23.8106C50.7946 22.976 52.8868 23.0485 54.2479 23.9768L56.154 22.6617C53.7065 20.9893 49.8712 20.902 47.608 22.4642Z" fill="#264f68"/>
<path d="M36.5846 30.0706C34.3214 31.6326 34.4729 34.2629 36.9221 35.9336L38.8298 34.6185C37.4685 33.6901 37.3468 32.2548 38.5598 31.417C39.7714 30.5825 41.8634 30.6566 43.2231 31.5865L45.1292 30.2697C42.6815 28.599 38.848 28.5101 36.5846 30.0706Z" fill="#264f68"/>
<path d="M25.5582 37.6797C23.2948 39.2402 23.4463 41.8704 25.8972 43.5428L27.8033 42.2259C26.4437 41.2976 26.3219 39.8624 27.5334 39.0261C28.7448 38.1916 30.8368 38.2656 32.1965 39.194L34.1042 37.8773C31.6549 36.2065 27.8198 36.1193 25.5582 37.6797Z" fill="#264f68"/>
<path d="M14.5325 45.2881C12.2692 46.8502 12.4206 49.4805 14.8699 51.1512L16.7776 49.8343C15.4164 48.906 15.2945 47.4724 16.5077 46.6345C17.7191 45.8 19.8128 45.8724 21.1724 46.8024L23.0785 45.4857C20.6292 43.8149 16.7941 43.7277 14.5325 45.2881Z" fill="#264f68"/>
<path d="M74.9155 12.627L73.0094 13.9437C74.3691 14.8704 74.4908 16.3058 73.281 17.1419C72.0696 17.9781 69.9759 17.9024 68.6146 16.9756L66.7085 18.2909C69.1578 19.9615 72.993 20.0504 75.2562 18.49C77.5178 16.9263 77.3648 14.2992 74.9155 12.627Z" fill="#264f68"/>
<path d="M63.8891 20.2363L61.9815 21.5514C63.3426 22.4798 63.4645 23.9136 62.253 24.7497C61.0415 25.5858 58.9495 25.5118 57.5882 24.5851L55.6821 25.8986C58.1314 27.5709 61.9666 27.6598 64.2283 26.0978C66.4915 24.5357 66.3384 21.907 63.8891 20.2363Z" fill="#264f68"/>
<path d="M52.8633 27.8438L50.9555 29.1606C52.3167 30.0872 52.4386 31.5226 51.227 32.3587C50.0172 33.1932 47.9252 33.1192 46.5639 32.1926L44.6562 33.5061C47.1071 35.1783 50.9406 35.2672 53.2023 33.7068C55.4656 32.1448 55.3125 29.5144 52.8633 27.8438Z" fill="#264f68"/>
<path d="M41.8369 35.4531L39.9308 36.7682C41.2905 37.695 41.414 39.1302 40.2008 39.9665C38.9894 40.8026 36.8973 40.7285 35.536 39.8002L33.6299 41.1153C36.0791 42.7861 39.9144 42.875 42.1776 41.3146C44.4392 39.7524 44.2862 37.1238 41.8369 35.4531Z" fill="#264f68"/>
<path d="M30.812 43.0615L28.9042 44.3784C30.2655 45.3051 30.3873 46.7388 29.1758 47.5749C27.9644 48.4111 25.8722 48.3371 24.5111 47.4103L22.605 48.7238C25.0542 50.3962 28.8894 50.4851 31.151 48.923C33.4143 47.3609 33.2613 44.7323 30.812 43.0615Z" fill="#264f68"/>
<path d="M19.7867 50.6699L17.8789 51.9852C19.2402 52.9135 19.362 54.3471 18.1489 55.185L20.1257 56.5331C22.3891 54.9693 22.236 52.3407 19.7867 50.6699Z" fill="#264f68"/>
<path d="M80.8139 14.8524C78.5506 16.4144 78.7037 19.0448 81.153 20.7155L83.0591 19.3986C81.6995 18.4703 81.5777 17.035 82.7891 16.1988C84.0006 15.3642 86.0926 15.4383 87.4523 16.3667L89.3584 15.0515C86.9107 13.3792 83.0772 13.292 80.8139 14.8524Z" fill="#264f68"/>
<path d="M69.7898 22.4608C67.5265 24.0229 67.6779 26.6532 70.1272 28.3239L72.0332 27.0071C70.6737 26.0787 70.5518 24.6451 71.765 23.8072C72.9764 22.9727 75.0669 23.0468 76.4281 23.9751L78.3342 22.66C75.8849 20.9876 72.053 20.9003 69.7898 22.4608Z" fill="#264f68"/>
<path d="M58.7626 30.0704C56.4994 31.6308 56.6525 34.261 59.1017 35.9318L61.0078 34.6166C59.6482 33.6882 59.5264 32.253 60.7378 31.4167C61.9494 30.5822 64.0414 30.6547 65.401 31.5846L67.3087 30.2679C64.8595 28.5971 61.0259 28.51 58.7626 30.0704Z" fill="#264f68"/>
<path d="M47.7385 37.6787C45.4753 39.2391 45.6266 41.8695 48.0759 43.5418L49.9837 42.225C48.6224 41.2967 48.5023 39.8613 49.7137 39.0252C50.9251 38.1907 53.0156 38.2647 54.3768 39.1931L56.2829 37.8762C53.8354 36.2056 50.0017 36.1183 47.7385 37.6787Z" fill="#264f68"/>
<path d="M36.7121 45.2861C34.4488 46.8482 34.6003 49.4785 37.0496 51.1492L38.9557 49.8325C37.596 48.9041 37.4743 47.4704 38.6873 46.6326C39.8988 45.7981 41.9892 45.8722 43.3505 46.8005L45.2566 45.4837C42.8073 43.813 38.9737 43.7257 36.7121 45.2861Z" fill="#264f68"/>
<path d="M25.6862 52.8959C23.423 54.4563 23.5744 57.0867 26.0236 58.7574L27.9314 57.4422C26.5702 56.5123 26.45 55.0785 27.6615 54.2424C28.8746 53.4063 30.965 53.4803 32.3263 54.4087L34.2324 53.0918C31.7831 51.4212 27.9495 51.3339 25.6862 52.8959Z" fill="#264f68"/>
<path d="M86.0693 20.2344L84.1616 21.5512C85.5228 22.478 85.6446 23.9132 84.4332 24.7477C83.2234 25.584 81.1297 25.5099 79.7684 24.5832L77.8623 25.8967C80.3116 27.5691 84.1468 27.658 86.41 26.0958C88.6717 24.5338 88.5186 21.9052 86.0693 20.2344Z" fill="#264f68"/>
<path d="M75.0444 27.8418L73.1367 29.1585C74.498 30.0853 74.6197 31.5206 73.4083 32.3568C72.1969 33.1929 70.1048 33.1172 68.7435 32.1905L66.8374 33.5057C69.2867 35.1764 73.1203 35.2653 75.3835 33.7048C77.6468 32.1411 77.4937 29.5125 75.0444 27.8418Z" fill="#264f68"/>
<path d="M64.018 35.4521L62.1104 36.7673C63.4715 37.6956 63.5934 39.1294 62.382 39.9655C61.1721 40.8016 59.0784 40.726 57.7187 39.7992L55.811 41.1145C58.2603 42.7851 62.0955 42.874 64.3572 41.3136C66.6188 39.7516 66.4673 37.1228 64.018 35.4521Z" fill="#264f68"/>
<path d="M52.9922 43.0596L51.0844 44.3763C52.4456 45.303 52.5675 46.7367 51.356 47.5729C50.1445 48.4107 48.0524 48.335 46.6912 47.4082L44.7852 48.7218C47.2344 50.3942 51.0695 50.483 53.3329 48.921C55.5945 47.3589 55.4414 44.7302 52.9922 43.0596Z" fill="#264f68"/>
<path d="M41.9658 50.668L40.0597 51.9848C41.4193 52.9116 41.5411 54.3468 40.3313 55.1831C39.1199 56.0192 37.0262 55.9435 35.6649 55.0168L33.7588 56.3319C36.2081 58.0027 40.0433 58.0916 42.3065 56.5311C44.5681 54.9674 44.4151 52.3404 41.9658 50.668Z" fill="#264f68"/>
<path d="M30.9419 58.2764L29.0342 59.5931C30.3953 60.5198 30.5172 61.9552 29.304 62.7913L31.281 64.1394C33.5426 62.5757 33.3911 59.947 30.9419 58.2764Z" fill="#264f68"/>
<path d="M91.9684 22.4606C89.705 24.021 89.8565 26.6514 92.3073 28.3238L94.2134 27.0069C92.8539 26.0786 92.732 24.6432 93.9436 23.8071C95.155 22.9726 97.2471 23.0466 98.6067 23.975L100.514 22.6581C98.0651 20.9875 94.2316 20.8986 91.9684 22.4606Z" fill="#264f68"/>
<path d="M80.945 30.0684C78.6817 31.6305 78.8332 34.2592 81.2825 35.9315L83.1902 34.6147C81.8289 33.6863 81.7072 32.251 82.9202 31.4148C84.1317 30.5803 86.2237 30.6544 87.5834 31.5827L89.4895 30.2659C87.0402 28.5952 83.2066 28.508 80.945 30.0684Z" fill="#264f68"/>
<path d="M69.9176 37.6781C67.6542 39.2385 67.8057 41.8687 70.2566 43.5395L72.1626 42.2243C70.8031 41.2943 70.6812 39.8607 71.8928 39.0244C73.1042 38.1899 75.1963 38.2624 76.5575 39.1907L78.4636 37.8756C76.0143 36.2032 72.1808 36.1159 69.9176 37.6781Z" fill="#264f68"/>
<path d="M58.8921 45.285C56.6289 46.8471 56.7802 49.4774 59.2312 51.1482L61.1373 49.8329C59.7776 48.903 59.6559 47.4693 60.8673 46.6315C62.0787 45.7969 64.1709 45.871 65.5304 46.801L67.4382 45.4842C64.9873 43.8118 61.1553 43.7246 58.8921 45.285Z" fill="#264f68"/>
<path d="M47.8663 52.8936C45.603 54.454 45.7544 57.0843 48.2053 58.7566L50.1114 57.4399C48.7518 56.5115 48.63 55.0762 49.8415 54.24C51.0529 53.4055 53.1451 53.4796 54.5046 54.4079L56.4123 53.0911C53.963 51.4204 50.1279 51.3331 47.8663 52.8936Z" fill="#264f68"/>
<path d="M36.8413 60.502C34.5781 62.064 34.7295 64.6944 37.1805 66.3651L39.0865 65.0482C37.7252 64.1199 37.6034 62.6846 38.8165 61.8484C40.0297 61.0138 42.1217 61.0863 43.4814 62.0163L45.3875 60.6995C42.9382 59.0287 39.1046 58.9416 36.8413 60.502Z" fill="#264f68"/>
<path d="M97.2246 27.8408L95.3169 29.1577C96.6782 30.0843 96.7999 31.5197 95.5885 32.3558C94.3787 33.192 92.285 33.1162 90.9237 32.1896L89.0176 33.5047C91.4652 35.1754 95.3021 35.2643 97.5653 33.7039C99.8269 32.1402 99.6739 29.5132 97.2246 27.8408Z" fill="#264f68"/>
<path d="M86.1982 35.4502L84.2921 36.7653C85.6517 37.6937 85.7736 39.1274 84.5621 39.9636C83.3506 40.7997 81.2586 40.7256 79.8973 39.799L77.9912 41.1125C80.4405 42.7832 84.2757 42.8737 86.5373 41.3116C88.8006 39.7496 88.6475 37.1209 86.1982 35.4502Z" fill="#264f68"/>
<path d="M75.1733 43.0586L73.2656 44.3754C74.6269 45.3021 74.7486 46.7374 73.5372 47.5736C72.3258 48.4081 70.2337 48.334 68.8724 47.4074L66.9663 48.7209C69.4156 50.3916 73.2492 50.4821 75.5124 48.9216C77.7741 47.3596 77.6226 44.7293 75.1733 43.0586Z" fill="#264f68"/>
<path d="M64.1474 50.666L62.2398 51.9827C63.6009 52.9095 63.7228 54.3448 62.5113 55.181C61.2998 56.0171 59.2078 55.943 57.8465 55.0147L55.9404 56.3299C58.3881 58.0006 62.2249 58.0895 64.4866 56.5291C66.7498 54.967 66.5967 52.3383 64.1474 50.666Z" fill="#264f68"/>
<path d="M53.1211 58.2764L51.2134 59.5931C52.5747 60.5198 52.6964 61.9535 51.485 62.7897C50.2736 63.6259 48.1814 63.5518 46.8201 62.625L44.9141 63.9386C47.3633 65.611 51.1986 65.6998 53.4618 64.1378C55.7234 62.5757 55.5703 59.947 53.1211 58.2764Z" fill="#264f68"/>
<path d="M42.0955 65.8838L40.1895 67.1989C41.549 68.1273 41.6709 69.5609 40.4594 70.3988L42.4347 71.7468C44.6979 70.1831 44.5448 67.5544 42.0955 65.8838Z" fill="#264f68"/>
<path d="M103.124 30.0673C100.86 31.6293 101.012 34.2597 103.463 35.9303L105.369 34.6135C104.009 33.6851 103.887 32.2499 105.099 31.4136C106.31 30.5791 108.402 30.6532 109.762 31.5832L111.668 30.2664C109.22 28.594 105.387 28.5068 103.124 30.0673Z" fill="#264f68"/>
<path d="M92.0986 37.675C89.8354 39.2371 89.9869 41.8674 92.4377 43.5381L94.3438 42.223C92.9843 41.2929 92.8624 39.8593 94.0738 39.0214C95.2854 38.1869 97.3774 38.2609 98.7371 39.191L100.645 37.8742C98.1955 36.2035 94.362 36.1146 92.0986 37.675Z" fill="#264f68"/>
<path d="M81.0723 45.2852C78.8091 46.8456 78.9604 49.476 81.4114 51.1483L83.3175 49.8315C81.9578 48.9031 81.8361 47.4678 83.0475 46.6316C84.2589 45.7971 86.351 45.8712 87.7123 46.7995L89.6184 45.4827C87.1708 43.812 83.3355 43.7248 81.0723 45.2852Z" fill="#264f68"/>
<path d="M70.0476 52.8926C67.7843 54.453 67.9357 57.0834 70.385 58.7558L72.2927 57.4389C70.9315 56.5106 70.8097 55.0752 72.0228 54.2391C73.2343 53.4045 75.3264 53.4786 76.6859 54.407L78.592 53.0901C76.1444 51.4195 72.3108 51.3322 70.0476 52.8926Z" fill="#264f68"/>
<path d="M59.0215 60.5002C56.7583 62.0624 56.9096 64.6926 59.3606 66.3634L61.2667 65.0482C59.907 64.1182 59.7853 62.6846 60.9967 61.8467C62.2081 61.0122 64.3003 61.0862 65.6598 62.0146L67.5676 60.6995C65.1184 59.0287 61.2831 58.9398 59.0215 60.5002Z" fill="#264f68"/>
<path d="M47.9964 68.1103C45.733 69.6707 45.8845 72.301 48.3337 73.9733L50.2414 72.6565C48.8803 71.7281 48.7584 70.2929 49.9716 69.4566C51.183 68.6205 53.2767 68.6946 54.6363 69.6229L56.5424 68.3061C54.0931 66.637 50.258 66.5481 47.9964 68.1103Z" fill="#264f68"/>
<path d="M108.38 35.4492L106.474 36.7661C107.833 37.6927 107.953 39.1264 106.744 39.9626C105.532 40.7987 103.44 40.7246 102.079 39.798L100.173 41.1131C102.622 42.7838 106.456 42.8727 108.719 41.3107C110.982 39.7486 110.829 37.1199 108.38 35.4492Z" fill="#264f68"/>
<path d="M97.3535 43.0586L95.4458 44.3738C96.8071 45.3005 96.9272 46.7358 95.7158 47.572C94.506 48.4082 92.4139 48.3341 91.0526 47.4058L89.1465 48.7209C91.5941 50.3916 95.4294 50.4805 97.6926 48.92C99.9542 47.3564 99.8011 44.7276 97.3535 43.0586Z" fill="#264f68"/>
<path d="M86.3276 50.667L84.4199 51.9838C85.7811 52.9105 85.9013 54.3442 84.6898 55.1804C83.48 56.0165 81.3896 55.9424 80.0283 55.0141L78.1206 56.3293C80.5699 58 84.4034 58.0889 86.6667 56.5284C88.9284 54.9664 88.7769 52.3377 86.3276 50.667Z" fill="#264f68"/>
<path d="M75.3012 58.2744L73.3952 59.5913C74.7549 60.518 74.8766 61.9516 73.6652 62.7878C72.4537 63.6256 70.3616 63.55 69.0003 62.6232L67.0942 63.9383C69.5435 65.6091 73.3771 65.698 75.6404 64.1359C77.9036 62.5738 77.7505 59.9452 75.3012 58.2744Z" fill="#264f68"/>
<path d="M64.2763 65.8838L62.3685 67.1989C63.7298 68.1273 63.8517 69.5609 62.6401 70.3971C61.4287 71.2333 59.3366 71.1592 57.9754 70.2325L56.0693 71.546C58.5169 73.2168 62.3521 73.3056 64.6153 71.7452C66.877 70.1815 66.7239 67.5544 64.2763 65.8838Z" fill="#264f68"/>
<path d="M53.251 73.4902L51.3433 74.8071C52.7044 75.7337 52.8247 77.1691 51.6131 78.0052L53.5883 79.3533C55.8517 77.7897 55.6986 75.1609 53.251 73.4902Z" fill="#264f68"/>
<path d="M114.278 37.6754C112.015 39.2359 112.168 41.8662 114.617 43.5369L116.525 42.2218C115.164 41.2934 115.042 39.8581 116.254 39.0219C117.465 38.1874 119.557 38.2615 120.917 39.1898L122.824 37.873C120.377 36.2023 116.542 36.1134 114.278 37.6754Z" fill="#264f68"/>
<path d="M103.252 45.2833C100.989 46.8437 101.141 49.4739 103.592 51.1463L105.498 49.8295C104.136 48.9011 104.016 47.4659 105.228 46.6296C106.439 45.7951 108.531 45.8692 109.891 46.7975L111.799 45.4808C109.349 43.81 105.516 43.7228 103.252 45.2833Z" fill="#264f68"/>
<path d="M92.226 52.8929C89.9628 54.4533 90.1158 57.0836 92.5651 58.7543L94.4728 57.4392C93.1115 56.5091 92.9898 55.0755 94.2012 54.2393C95.4126 53.4048 97.5063 53.4772 98.866 54.4055L100.772 53.0904C98.3244 51.418 94.4892 51.3308 92.226 52.8929Z" fill="#264f68"/>
<path d="M81.2017 60.4983C78.9385 62.0603 79.0898 64.6907 81.5408 66.3613L83.4469 65.0462C82.0872 64.1161 81.9655 62.6825 83.1769 61.8446C84.3883 61.0101 86.4804 61.0842 87.84 62.0143L89.7478 60.6974C87.2985 59.0268 83.4649 58.9379 81.2017 60.4983Z" fill="#264f68"/>
<path d="M70.1763 68.1084C67.913 69.6688 68.0645 72.2992 70.5154 73.9715L72.4215 72.6547C71.0602 71.7264 70.9384 70.291 72.1515 69.4549C73.363 68.6204 75.455 68.6944 76.8147 69.6228L78.7208 68.3059C76.2731 66.6353 72.4379 66.548 70.1763 68.1084Z" fill="#264f68"/>
<path d="M59.1504 75.7168C56.8872 77.2788 57.0385 79.9092 59.4895 81.5799L61.3956 80.2631C60.0359 79.3348 59.9142 77.8994 61.1256 77.0633C62.3388 76.2288 64.4308 76.3011 65.7905 77.2312L67.6982 75.9143C65.2473 74.2437 61.4136 74.1564 59.1504 75.7168Z" fill="#264f68"/>
<path d="M119.534 43.0566L117.626 44.3718C118.987 45.3001 119.107 46.7337 117.898 47.57C116.686 48.4061 114.594 48.3321 113.233 47.4037L111.327 48.7188C113.776 50.3896 117.61 50.4785 119.873 48.9181C122.136 47.3543 121.983 44.7273 119.534 43.0566Z" fill="#264f68"/>
<path d="M108.509 50.665L106.601 51.9819C107.962 52.9086 108.082 54.3423 106.871 55.1784C105.661 56.0147 103.569 55.9406 102.208 55.0138L100.302 56.3274C102.749 57.9997 106.585 58.0886 108.846 56.5265C111.109 54.9645 110.956 52.3358 108.509 50.665Z" fill="#264f68"/>
<path d="M97.4824 58.2725L95.5747 59.5892C96.936 60.5159 97.0561 61.9513 95.8447 62.7874C94.6349 63.622 92.5428 63.5479 91.1832 62.6211L89.2754 63.9364C91.7247 65.607 95.5583 65.6959 97.8215 64.1355C100.083 62.5718 99.9317 59.9431 97.4824 58.2725Z" fill="#264f68"/>
<path d="M86.4565 65.8818L84.5487 67.1987C85.91 68.1253 86.0319 69.5591 84.8203 70.3952C83.6089 71.2313 81.5168 71.1573 80.1556 70.2306L78.2495 71.5442C80.6988 73.2148 84.5323 73.3037 86.7955 71.7433C89.0589 70.1813 88.9058 67.5525 86.4565 65.8818Z" fill="#264f68"/>
<path d="M75.4302 73.4902L73.5241 74.8071C74.8838 75.7338 75.0055 77.1675 73.7941 78.0036C72.5826 78.8398 70.4905 78.7658 69.1292 77.839L67.2231 79.1542C69.6724 80.8249 73.506 80.9138 75.7693 79.3517C78.0325 77.7897 77.8794 75.161 75.4302 73.4902Z" fill="#264f68"/>
<path d="M64.4062 81.0977L62.4985 82.4145C63.8598 83.3413 63.9799 84.7749 62.7685 85.611L64.7437 86.9591C67.007 85.3971 66.8539 82.7684 64.4062 81.0977Z" fill="#264f68"/>
<path d="M125.433 45.2829C123.17 46.8433 123.323 49.4736 125.773 51.1443L127.679 49.8276C126.319 48.8992 126.198 47.4655 127.409 46.6293C128.62 45.7948 130.711 45.8673 132.071 46.7972L133.977 45.4804C131.531 43.8097 127.696 43.7208 125.433 45.2829Z" fill="#264f68"/>
<path d="M114.409 52.8903C112.146 54.4507 112.298 57.0811 114.747 58.7517L116.653 57.4366C115.293 56.5067 115.172 55.0729 116.385 54.2368C117.596 53.4022 119.686 53.4747 121.048 54.4031L122.954 53.0878C120.506 51.4171 116.671 51.3283 114.409 52.8903Z" fill="#264f68"/>
<path d="M103.382 60.4991C101.119 62.0611 101.27 64.6897 103.721 66.3621L105.627 65.0453C104.267 64.1169 104.146 62.6817 105.357 61.8454C106.568 61.0109 108.661 61.085 110.02 62.0133L111.928 60.6966C109.48 59.0258 105.645 58.9387 103.382 60.4991Z" fill="#264f68"/>
<path d="M92.3567 68.1069C90.0934 69.669 90.2448 72.2992 92.6941 73.97L94.6002 72.6532C93.2406 71.7248 93.1204 70.2912 94.3319 69.4533C95.5433 68.6188 97.6337 68.6929 98.995 69.6212L100.901 68.3044C98.4534 66.6353 94.6199 66.5464 92.3567 68.1069Z" fill="#264f68"/>
<path d="M81.3307 75.7144C79.0675 77.2765 79.219 79.9068 81.6682 81.5776L83.5759 80.2607C82.2146 79.3324 82.0945 77.8987 83.3059 77.0625C84.5175 76.228 86.6095 76.3004 87.9692 77.2288L89.8752 75.9136C87.4276 74.2429 83.5923 74.1557 81.3307 75.7144Z" fill="#264f68"/>
<path d="M70.3059 83.3245C68.0426 84.8849 68.194 87.5151 70.6433 89.1859L72.5494 87.8707C71.1898 86.9423 71.068 85.5071 72.2811 84.6708C73.4942 83.8363 75.5847 83.9088 76.9458 84.8371L78.8519 83.5203C76.4027 81.8512 72.5691 81.764 70.3059 83.3245Z" fill="#264f68"/>
<path d="M130.688 50.6631L128.78 51.9782C130.142 52.9066 130.263 54.3402 129.052 55.1765C127.842 56.0126 125.748 55.9385 124.387 55.0118L122.481 56.3253C124.93 57.9977 128.766 58.0866 131.028 56.5245C133.29 54.9624 133.137 52.3337 130.688 50.6631Z" fill="#264f68"/>
<path d="M79.8397 9.22852L77.9336 10.5453C80.3829 12.2144 84.2165 12.3033 86.4797 10.7428L84.5045 9.39641C83.2931 10.2309 81.201 10.1552 79.8397 9.22852Z" fill="#264f68"/>
<path d="M90.995 16.8359L89.0889 18.1512C91.5381 19.8218 95.3716 19.9107 97.6349 18.3487L95.6597 17.0022C94.4482 17.8368 92.3561 17.7627 90.995 16.8359Z" fill="#264f68"/>
<path d="M102.149 24.4424L100.241 25.7592C102.692 27.4283 106.526 27.5172 108.789 25.9568L106.812 24.6103C105.602 25.4448 103.51 25.3691 102.149 24.4424Z" fill="#264f68"/>
<path d="M113.304 32.0508L111.398 33.3659C113.847 35.0366 117.681 35.1254 119.942 33.5634L117.967 32.2169C116.757 33.0515 114.664 32.9774 113.304 32.0508Z" fill="#264f68"/>
<path d="M124.46 39.6572L122.553 40.9741C125.003 42.6431 128.836 42.732 131.098 41.1716L129.122 39.8251C127.912 40.6596 125.819 40.584 124.46 39.6572Z" fill="#264f68"/>
<path d="M142.254 48.7779L140.278 47.4316C139.066 48.2661 136.975 48.192 135.613 47.2637L133.707 48.5804C136.156 50.2528 139.989 50.3401 142.254 48.7779Z" fill="#264f68"/>
<path d="M119.662 58.2705L117.756 59.5874C119.115 60.514 119.237 61.9493 118.026 62.7855C116.814 63.6217 114.722 63.5459 113.361 62.6193L111.455 63.9344C113.904 65.6051 117.739 65.694 120.001 64.1336C122.264 62.5699 122.113 59.9429 119.662 58.2705Z" fill="#264f68"/>
<path d="M108.637 65.8789L106.729 67.1958C108.09 68.1224 108.212 69.5577 107 70.3939C105.789 71.2301 103.697 71.1543 102.336 70.2277L100.43 71.5428C102.879 73.2135 106.714 73.3024 108.976 71.742C111.237 70.1799 111.086 67.5513 108.637 65.8789Z" fill="#264f68"/>
<path d="M97.6103 73.4883L95.7027 74.8051C97.0639 75.7318 97.1857 77.1655 95.9742 78.0016C94.7628 78.8395 92.6707 78.7637 91.3094 77.8371L89.4033 79.1506C91.8526 80.8229 95.6878 80.9117 97.9511 79.3497C100.213 77.7877 100.06 75.1589 97.6103 73.4883Z" fill="#264f68"/>
<path d="M86.584 81.0967L84.6763 82.4134C86.0374 83.3401 86.1593 84.7755 84.9479 85.6116C83.7363 86.4478 81.6443 86.3721 80.283 85.4454L78.377 86.7606C80.8262 88.4313 84.6615 88.5201 86.9247 86.9597C89.1863 85.396 89.0348 82.7689 86.584 81.0967Z" fill="#264f68"/>
<path d="M75.5599 88.7041L73.6538 90.021C75.0135 90.9476 75.1352 92.3829 73.9238 93.2191L75.899 94.5671C78.1622 93.0035 78.0109 90.3765 75.5599 88.7041Z" fill="#264f68"/>
<path d="M71.5166 97.9245C73.3897 99.1935 76.4497 99.2149 78.3409 97.9738L147.722 52.5341C148.583 51.9694 149.062 51.232 149.068 50.4552C149.075 49.6799 148.611 48.9375 147.764 48.3646L79.3021 1.90934C77.4323 0.641908 74.3724 0.622157 72.4778 1.85996L3.09677 47.2998C2.2359 47.8643 1.75692 48.6017 1.75033 49.3787C1.74375 50.1539 2.20793 50.8963 3.05397 51.4691L71.5166 97.9245ZM74.9748 99.7004C73.5526 99.7004 72.1305 99.335 71.0556 98.6059L2.59144 52.1505C1.51001 51.4164 0.9191 50.4305 0.927331 49.372C0.937207 48.3103 1.54623 47.331 2.64577 46.6116L72.0268 1.17193C74.1715 -0.237059 77.6447 -0.210722 79.7647 1.22789L148.227 47.6832C149.309 48.4174 149.9 49.4034 149.891 50.4617C149.881 51.5234 149.273 52.5027 148.173 53.2221L78.7919 98.6618C77.7336 99.3548 76.3541 99.7004 74.9748 99.7004Z" fill="#264f68"/>
</g>
<defs>
<clipPath id="clip0_116_3846">
<rect width="150.61" height="99.9952" fill="white" transform="translate(0.0678711 0.0371094)"/>
</clipPath>
</defs>
</svg>
