<svg width="150" height="101" viewBox="0 0 150 101" fill="none" xmlns="http://www.w3.org/2000/svg">
<path d="M7.94727 49.1974L76.8465 5.52246L79.0431 6.98415L10.1422 50.6607L7.94727 49.1974Z" fill="#264f68"/>
<path d="M81.2016 21.4162L66.6319 30.6546L63.7037 28.7019L78.275 19.4668L81.2016 21.4162ZM47.0512 39.2588L61.6225 30.0222L64.5491 31.9733L49.9779 41.2099L47.0512 39.2588ZM30.3987 49.8159L44.97 40.5775L47.8967 42.5286L33.3254 51.7653L30.3987 49.8159ZM19.3654 56.8088L28.3176 51.1345L31.2442 53.0855L22.2936 58.7599L24.4903 60.2232L93.3894 16.5467L91.1945 15.0818L83.2828 20.096L80.3562 18.1465L88.2663 13.1323L86.0696 11.6689L17.1704 55.3439L19.3654 56.8088Z" fill="#264f68"/>
<path d="M26.5278 61.5829L95.4271 17.9062L97.6237 19.3696L28.7245 63.0462L26.5278 61.5829Z" fill="#264f68"/>
<path d="M101.696 35.076L87.1245 44.3128L84.1963 42.3601L98.7677 33.1249L101.696 35.076ZM67.5454 52.9186L82.1152 43.6802L85.0434 45.6313L70.472 54.8697L67.5454 52.9186ZM50.8913 63.474L65.4626 54.2373L68.3909 56.1884L53.8195 65.4251L50.8913 63.474ZM39.8595 70.4686L48.8101 64.7927L51.7384 66.7453L42.7878 72.4181L44.9828 73.8814L113.884 30.2064L111.687 28.7415L103.777 33.7558L100.849 31.8047L108.759 26.7905L106.564 25.3271L37.6646 69.0037L39.8595 70.4686Z" fill="#264f68"/>
<path d="M47.0234 75.2404L115.923 31.5654L118.119 33.0287L49.22 76.7037L47.0234 75.2404Z" fill="#264f68"/>
<path d="M122.19 48.7337L107.619 57.9721L104.692 56.0193L119.262 46.7842L122.19 48.7337ZM88.04 66.5763L102.611 57.3395L105.538 59.2906L90.9666 68.5274L88.04 66.5763ZM71.3859 77.1333L85.9572 67.8949L88.8854 69.846L74.3141 79.0828L71.3859 77.1333ZM60.3541 84.1263L69.3047 78.4518L72.2329 80.4029L63.2824 86.0774L65.4773 87.5407L134.378 43.864L132.181 42.3991L124.272 47.4134L121.343 45.4639L129.254 40.4496L127.058 38.9863L58.1592 82.6613L60.3541 84.1263Z" fill="#264f68"/>
<path d="M67.5181 88.9002L136.417 45.2236L138.614 46.6869L69.7146 90.3635L67.5181 88.9002Z" fill="#264f68"/>
<path d="M12.9331 52.5207L81.8323 8.8457L84.029 10.309L15.1297 53.984L12.9331 52.5207Z" fill="#264f68"/>
<path d="M33.4287 66.1806L102.328 22.5039L104.525 23.9672L35.6253 67.6439L33.4287 66.1806Z" fill="#264f68"/>
<path d="M53.9219 79.8406L122.821 36.1641L125.018 37.6274L56.1184 81.3023L53.9219 79.8406Z" fill="#264f68"/>
<path d="M72.5054 92.2238L141.405 48.5488L143.601 50.0106L74.702 93.6871L72.5054 92.2238Z" fill="#264f68"/>
<path d="M71.5638 97.6868C73.4141 98.9403 76.4367 98.9614 78.3048 97.7356L146.839 52.8509C147.688 52.2932 148.162 51.5648 148.168 50.7974C148.175 50.0316 147.717 49.2982 146.88 48.7324L79.2543 2.84465C77.4073 1.59271 74.3847 1.5732 72.5133 2.79587L3.97993 47.6806C3.12958 48.2382 2.65645 48.9666 2.64994 49.7341C2.64344 50.4999 3.10195 51.2331 3.93766 51.7989L71.5638 97.6868ZM74.9798 99.441C73.575 99.441 72.1703 99.0801 71.1085 98.3599L3.48077 52.472C2.41256 51.7468 1.82887 50.773 1.837 49.7275C1.84675 48.6788 2.44834 47.7114 3.53444 47.0008L72.0678 2.11625C74.1863 0.724478 77.6171 0.750494 79.7112 2.17154L147.337 48.0593C148.405 48.7845 148.99 49.7585 148.981 50.8039C148.971 51.8526 148.37 52.8199 147.284 53.5305L78.7503 98.4151C77.7049 99.0996 76.3423 99.441 74.9798 99.441Z" fill="#264f68"/>
</svg>
