<svg width="151" height="101" viewBox="0 0 151 101" fill="none" xmlns="http://www.w3.org/2000/svg">
<g clip-path="url(#clip0_116_3419)">
<path d="M71.1054 98.3747C72.9786 99.6437 76.0385 99.6651 77.9298 98.424L147.311 52.9843C148.172 52.4196 148.651 51.6822 148.657 50.9054C148.664 50.1301 148.2 49.3877 147.353 48.8148L78.891 2.35953C77.0212 1.0921 73.9612 1.07235 72.0666 2.31015L2.68564 47.75C1.82478 48.3145 1.34579 49.0519 1.33921 49.8289C1.33262 50.6041 1.79679 51.3465 2.64285 51.9193L71.1054 98.3747ZM74.5637 100.151C73.1415 100.151 71.7194 99.7852 70.6445 99.0561L2.18032 52.6007C1.09888 51.8665 0.507968 50.8807 0.516198 49.8222C0.526074 48.7605 1.1351 47.7812 2.23463 47.0618L71.6157 1.62212C73.7604 0.213136 77.2334 0.239473 79.3536 1.67809L147.816 48.1334C148.897 48.8676 149.489 49.8536 149.48 50.9119C149.47 51.9736 148.862 52.9529 147.762 53.6723L78.3808 99.112C77.3223 99.805 75.943 100.151 74.5637 100.151Z" fill="#264f68"/>
<path d="M78.3958 5.27246L80.4764 6.69461L77.581 8.55131L75.5005 7.12916L78.3958 5.27246Z" fill="#264f68"/>
<path d="M73.2747 8.55664L75.3552 9.97879L72.4599 11.8355L70.3794 10.4133L73.2747 8.55664Z" fill="#264f68"/>
<path d="M77.5089 8.53711L80.0964 10.3066L77.9254 11.6991L75.3379 9.93128L77.5089 8.53711Z" fill="#264f68"/>
<path d="M72.9304 5.40723L75.5179 7.1767L73.3468 8.56922L70.7593 6.79975L72.9304 5.40723Z" fill="#264f68"/>
<path d="M87.1547 11.2617L89.2352 12.6839L86.3399 14.5389L84.2593 13.1185L87.1547 11.2617Z" fill="#264f68"/>
<path d="M82.0345 14.5459L84.115 15.9681L81.2197 17.8231L79.1392 16.4026L82.0345 14.5459Z" fill="#264f68"/>
<path d="M86.2687 14.5264L88.8562 16.2958L86.6852 17.6883L84.0977 15.9189L86.2687 14.5264Z" fill="#264f68"/>
<path d="M81.6902 11.3955L84.2777 13.165L82.1066 14.5575L79.519 12.7897L81.6902 11.3955Z" fill="#264f68"/>
<path d="M95.9129 17.249L97.9934 18.6712L95.0981 20.5279L93.0176 19.1057L95.9129 17.249Z" fill="#264f68"/>
<path d="M90.7928 20.5332L92.8734 21.9554L89.978 23.8121L87.8975 22.3899L90.7928 20.5332Z" fill="#264f68"/>
<path d="M95.0285 20.5137L97.6161 22.2831L95.445 23.6773L92.8574 21.9078L95.0285 20.5137Z" fill="#264f68"/>
<path d="M90.4494 17.3838L93.037 19.1532L90.8659 20.5457L88.2783 18.7763L90.4494 17.3838Z" fill="#264f68"/>
<path d="M104.673 23.2393L106.754 24.6598L103.859 26.5165L101.78 25.0944L104.673 23.2393Z" fill="#264f68"/>
<path d="M99.5525 26.5234L101.633 27.9439L98.7377 29.8006L96.6572 28.3784L99.5525 26.5234Z" fill="#264f68"/>
<path d="M103.788 26.5029L106.377 28.2725L104.205 29.665L101.617 27.8955L103.788 26.5029Z" fill="#264f68"/>
<path d="M99.2082 23.3721L101.796 25.1415L99.6246 26.534L97.0371 24.7662L99.2082 23.3721Z" fill="#264f68"/>
<path d="M113.432 29.2256L115.512 30.6477L112.619 32.5044L110.538 31.0823L113.432 29.2256Z" fill="#264f68"/>
<path d="M108.311 32.5107L110.391 33.9329L107.496 35.7896L105.416 34.3674L108.311 32.5107Z" fill="#264f68"/>
<path d="M112.547 32.4912L115.136 34.2606L112.963 35.6532L110.375 33.8853L112.547 32.4912Z" fill="#264f68"/>
<path d="M107.968 29.3613L110.556 31.1307L108.384 32.5233L105.797 30.7539L107.968 29.3613Z" fill="#264f68"/>
<path d="M122.192 35.2139L124.273 36.636L121.377 38.4927L119.297 37.0706L122.192 35.2139Z" fill="#264f68"/>
<path d="M117.071 38.498L119.152 39.9202L116.257 41.7769L114.178 40.3547L117.071 38.498Z" fill="#264f68"/>
<path d="M121.306 38.4805L123.894 40.2483L121.723 41.6424L119.135 39.873L121.306 38.4805Z" fill="#264f68"/>
<path d="M116.729 35.3506L119.316 37.1184L117.145 38.5127L114.558 36.7431L116.729 35.3506Z" fill="#264f68"/>
<path d="M130.952 41.2031L133.032 42.6253L130.137 44.482L128.057 43.0598L130.952 41.2031Z" fill="#264f68"/>
<path d="M125.83 44.4873L127.911 45.9095L125.018 47.7662L122.937 46.344L125.83 44.4873Z" fill="#264f68"/>
<path d="M130.065 44.4678L132.654 46.2372L130.481 47.6297L127.894 45.8619L130.065 44.4678Z" fill="#264f68"/>
<path d="M125.486 41.3389L128.074 43.1083L125.902 44.5008L123.315 42.7314L125.486 41.3389Z" fill="#264f68"/>
<path d="M139.712 47.1924L141.792 48.6145L138.897 50.4712L136.815 49.0491L139.712 47.1924Z" fill="#264f68"/>
<path d="M134.591 50.4766L136.673 51.8987L133.776 53.7554L131.696 52.3333L134.591 50.4766Z" fill="#264f68"/>
<path d="M138.824 50.457L141.412 52.2248L139.241 53.6191L136.654 51.8496L138.824 50.457Z" fill="#264f68"/>
<path d="M134.245 47.3262L136.835 49.0956L134.663 50.4881L132.075 48.7203L134.245 47.3262Z" fill="#264f68"/>
<path d="M69.4913 10.9844L71.5719 12.4065L68.6782 14.2632L66.5977 12.8411L69.4913 10.9844Z" fill="#264f68"/>
<path d="M64.3698 14.2676L66.4503 15.6897L63.5566 17.5464L61.4761 16.1243L64.3698 14.2676Z" fill="#264f68"/>
<path d="M68.6047 14.249L71.1923 16.0184L69.0211 17.411L66.4336 15.6415L68.6047 14.249Z" fill="#264f68"/>
<path d="M64.0261 11.1191L66.6136 12.8869L64.4425 14.2811L61.855 12.5117L64.0261 11.1191Z" fill="#264f68"/>
<path d="M78.2496 16.9717L80.3303 18.3938L77.4366 20.2505L75.356 18.8284L78.2496 16.9717Z" fill="#264f68"/>
<path d="M73.1286 20.2549L75.2091 21.677L72.3154 23.5337L70.2349 22.1116L73.1286 20.2549Z" fill="#264f68"/>
<path d="M77.3645 20.2383L79.952 22.0061L77.7809 23.4004L75.1934 21.6308L77.3645 20.2383Z" fill="#264f68"/>
<path d="M72.7844 17.1064L75.3719 18.8759L73.2008 20.2684L70.6133 18.499L72.7844 17.1064Z" fill="#264f68"/>
<path d="M87.0086 22.9609L89.0891 24.3831L86.1938 26.2382L84.1133 24.8176L87.0086 22.9609Z" fill="#264f68"/>
<path d="M81.8883 26.2441L83.9688 27.6663L81.0751 29.5213L78.9946 28.0991L81.8883 26.2441Z" fill="#264f68"/>
<path d="M86.1228 26.2256L88.7119 27.9951L86.5392 29.3877L83.9517 27.6181L86.1228 26.2256Z" fill="#264f68"/>
<path d="M81.5451 23.0957L84.1327 24.8635L81.9615 26.2576L79.374 24.4882L81.5451 23.0957Z" fill="#264f68"/>
<path d="M95.7683 28.9482L97.8489 30.3704L94.9536 32.2271L92.873 30.8049L95.7683 28.9482Z" fill="#264f68"/>
<path d="M90.6476 32.2324L92.7281 33.6546L89.8344 35.5113L87.7539 34.0891L90.6476 32.2324Z" fill="#264f68"/>
<path d="M94.884 32.2148L97.4715 33.9843L95.3004 35.3768L92.7129 33.6074L94.884 32.2148Z" fill="#264f68"/>
<path d="M90.3039 29.084L92.8915 30.8534L90.7203 32.2459L88.1328 30.4765L90.3039 29.084Z" fill="#264f68"/>
<path d="M104.528 34.9375L106.609 36.3597L103.713 38.2146L101.633 36.7925L104.528 34.9375Z" fill="#264f68"/>
<path d="M99.4074 38.2217L101.488 39.6438L98.5942 41.4989L96.5137 40.0768L99.4074 38.2217Z" fill="#264f68"/>
<path d="M103.642 38.2031L106.23 39.9725L104.059 41.3651L101.471 39.5957L103.642 38.2031Z" fill="#264f68"/>
<path d="M99.0632 35.0723L101.652 36.8418L99.4796 38.2343L96.8921 36.4648L99.0632 35.0723Z" fill="#264f68"/>
<path d="M113.288 40.9258L115.369 42.3479L112.473 44.2046L110.393 42.7825L113.288 40.9258Z" fill="#264f68"/>
<path d="M108.167 44.21L110.248 45.6321L107.354 47.4888L105.273 46.0667L108.167 44.21Z" fill="#264f68"/>
<path d="M112.402 44.1914L114.99 45.9592L112.818 47.3517L110.231 45.5839L112.402 44.1914Z" fill="#264f68"/>
<path d="M107.823 41.0605L110.411 42.83L108.239 44.2225L105.652 42.4547L107.823 41.0605Z" fill="#264f68"/>
<path d="M122.046 46.915L124.127 48.3356L121.231 50.1923L119.151 48.7701L122.046 46.915Z" fill="#264f68"/>
<path d="M116.926 50.1982L119.007 51.6188L116.113 53.4755L114.032 52.0533L116.926 50.1982Z" fill="#264f68"/>
<path d="M121.16 50.1797L123.749 51.9492L121.577 53.3418L118.989 51.5722L121.16 50.1797Z" fill="#264f68"/>
<path d="M116.582 47.0479L119.171 48.8174L116.998 50.2115L114.411 48.4421L116.582 47.0479Z" fill="#264f68"/>
<path d="M130.807 52.9043L132.887 54.3248L129.994 56.1815L127.914 54.7594L130.807 52.9043Z" fill="#264f68"/>
<path d="M125.687 56.1875L127.767 57.608L124.873 59.4647L122.793 58.0426L125.687 56.1875Z" fill="#264f68"/>
<path d="M129.92 56.167L132.51 57.9365L130.337 59.3291L127.75 57.5612L129.92 56.167Z" fill="#264f68"/>
<path d="M125.341 53.0371L127.928 54.8065L125.758 56.1991L123.17 54.4296L125.341 53.0371Z" fill="#264f68"/>
<path d="M60.5866 16.6953L62.6671 18.1175L59.7734 19.9726L57.6929 18.5504L60.5866 16.6953Z" fill="#264f68"/>
<path d="M55.4661 19.9785L57.5467 21.4007L54.6513 23.2574L52.5708 21.8352L55.4661 19.9785Z" fill="#264f68"/>
<path d="M59.7004 19.96L62.288 21.7278L60.1168 23.122L57.5293 21.3525L59.7004 19.96Z" fill="#264f68"/>
<path d="M55.1213 16.8301L57.7089 18.5979L55.5377 19.9904L52.9502 18.2226L55.1213 16.8301Z" fill="#264f68"/>
<path d="M69.3453 22.6826L71.426 24.1048L68.5323 25.9615L66.4517 24.5393L69.3453 22.6826Z" fill="#264f68"/>
<path d="M64.2245 25.9668L66.305 27.389L63.4097 29.2457L61.3291 27.8235L64.2245 25.9668Z" fill="#264f68"/>
<path d="M68.4602 25.9492L71.0477 27.717L68.8766 29.1096L66.2891 27.3417L68.4602 25.9492Z" fill="#264f68"/>
<path d="M63.8801 22.8174L66.4676 24.5852L64.2965 25.9793L61.709 24.2099L63.8801 22.8174Z" fill="#264f68"/>
<path d="M78.1037 28.6699L80.1842 30.0921L77.2905 31.9488L75.21 30.5266L78.1037 28.6699Z" fill="#264f68"/>
<path d="M72.9843 31.9541L75.0648 33.3763L72.1695 35.233L70.0889 33.8108L72.9843 31.9541Z" fill="#264f68"/>
<path d="M77.2185 31.9365L79.806 33.7059L77.6349 35.0985L75.0474 33.329L77.2185 31.9365Z" fill="#264f68"/>
<path d="M72.6399 28.8066L75.2274 30.5745L73.0563 31.967L70.4688 30.1992L72.6399 28.8066Z" fill="#264f68"/>
<path d="M86.8634 34.6592L88.9439 36.0813L86.0502 37.938L83.9697 36.5159L86.8634 34.6592Z" fill="#264f68"/>
<path d="M81.7425 37.9434L83.823 39.3655L80.9277 41.2222L78.8472 39.8001L81.7425 37.9434Z" fill="#264f68"/>
<path d="M85.9783 37.9248L88.5674 39.6943L86.3947 41.0885L83.8071 39.3191L85.9783 37.9248Z" fill="#264f68"/>
<path d="M81.3981 34.7949L83.9856 36.5627L81.8146 37.957L79.2271 36.1874L81.3981 34.7949Z" fill="#264f68"/>
<path d="M95.6232 40.6475L97.7037 42.0696L94.81 43.9263L92.7295 42.5042L95.6232 40.6475Z" fill="#264f68"/>
<path d="M90.5022 43.9307L92.5827 45.3528L89.6874 47.2095L87.6069 45.7874L90.5022 43.9307Z" fill="#264f68"/>
<path d="M94.7364 43.9131L97.3257 45.6826L95.153 47.0752L92.5654 45.3056L94.7364 43.9131Z" fill="#264f68"/>
<path d="M90.1593 40.7842L92.7468 42.552L90.5758 43.9461L87.9883 42.1767L90.1593 40.7842Z" fill="#264f68"/>
<path d="M104.383 46.6367L106.463 48.0589L103.57 49.914L101.489 48.4934L104.383 46.6367Z" fill="#264f68"/>
<path d="M99.2614 49.9199L101.342 51.3421L98.4466 53.1988L96.3677 51.7766L99.2614 49.9199Z" fill="#264f68"/>
<path d="M103.496 49.9014L106.084 51.6709L103.913 53.0634L101.325 51.2956L103.496 49.9014Z" fill="#264f68"/>
<path d="M98.9186 46.7725L101.506 48.5419L99.3351 49.9344L96.7476 48.165L98.9186 46.7725Z" fill="#264f68"/>
<path d="M113.143 52.625L115.223 54.0472L112.33 55.9039L110.249 54.4817L113.143 52.625Z" fill="#264f68"/>
<path d="M108.021 55.9082L110.102 57.3304L107.208 59.1871L105.127 57.7649L108.021 55.9082Z" fill="#264f68"/>
<path d="M112.256 55.8906L114.845 57.66L112.674 59.0526L110.085 57.2831L112.256 55.8906Z" fill="#264f68"/>
<path d="M107.677 52.7598L110.265 54.5292L108.094 55.9217L105.506 54.1523L107.677 52.7598Z" fill="#264f68"/>
<path d="M121.902 58.6133L123.983 60.0354L121.089 61.8921L119.009 60.47L121.902 58.6133Z" fill="#264f68"/>
<path d="M116.782 61.8975L118.862 63.3196L115.967 65.1763L113.886 63.7542L116.782 61.8975Z" fill="#264f68"/>
<path d="M121.016 61.8779L123.604 63.6474L121.432 65.0399L118.845 63.2705L121.016 61.8779Z" fill="#264f68"/>
<path d="M116.437 58.749L119.026 60.5186L116.854 61.9111L114.266 60.1415L116.437 58.749Z" fill="#264f68"/>
<path d="M51.6813 22.4062L53.7619 23.8268L50.8682 25.6835L48.7876 24.2613L51.6813 22.4062Z" fill="#264f68"/>
<path d="M46.5597 25.6904L48.6402 27.1109L45.7465 28.9676L43.666 27.5454L46.5597 25.6904Z" fill="#264f68"/>
<path d="M50.7936 25.6709L53.3811 27.4403L51.2101 28.8328L48.6226 27.0634L50.7936 25.6709Z" fill="#264f68"/>
<path d="M46.2145 22.541L48.802 24.3088L46.631 25.7031L44.0435 23.9335L46.2145 22.541Z" fill="#264f68"/>
<path d="M60.4396 28.3936L62.5201 29.8157L59.6264 31.6724L57.5459 30.2503L60.4396 28.3936Z" fill="#264f68"/>
<path d="M55.3195 31.6777L57.4 33.0999L54.5063 34.955L52.4258 33.5328L55.3195 31.6777Z" fill="#264f68"/>
<path d="M59.5533 31.6602L62.1409 33.428L59.9699 34.8205L57.3823 33.0527L59.5533 31.6602Z" fill="#264f68"/>
<path d="M54.9742 28.5293L57.5618 30.2988L55.3908 31.6914L52.8032 29.9218L54.9742 28.5293Z" fill="#264f68"/>
<path d="M69.2 34.3818L71.2806 35.804L68.3852 37.6607L66.3047 36.2385L69.2 34.3818Z" fill="#264f68"/>
<path d="M64.0783 37.666L66.1589 39.0882L63.2652 40.9449L61.1846 39.5227L64.0783 37.666Z" fill="#264f68"/>
<path d="M68.3126 37.6484L70.9019 39.4179L68.7291 40.8104L66.1416 39.041L68.3126 37.6484Z" fill="#264f68"/>
<path d="M63.734 34.5186L66.3215 36.2864L64.1505 37.6789L61.563 35.9111L63.734 34.5186Z" fill="#264f68"/>
<path d="M77.9597 40.3711L80.0404 41.7932L77.145 43.65L75.0645 42.2278L77.9597 40.3711Z" fill="#264f68"/>
<path d="M72.838 43.6553L74.9187 45.0774L72.025 46.9325L69.9443 45.5104L72.838 43.6553Z" fill="#264f68"/>
<path d="M77.0724 43.6377L79.6616 45.4055L77.4905 46.7996L74.9014 45.0302L77.0724 43.6377Z" fill="#264f68"/>
<path d="M72.4938 40.5059L75.0813 42.2753L72.9103 43.6678L70.3228 41.8984L72.4938 40.5059Z" fill="#264f68"/>
<path d="M86.7182 46.3584L88.7987 47.7806L85.9034 49.6372L83.8228 48.2151L86.7182 46.3584Z" fill="#264f68"/>
<path d="M81.5973 49.6426L83.6779 51.0647L80.7843 52.9214L78.7036 51.4993L81.5973 49.6426Z" fill="#264f68"/>
<path d="M85.8321 49.625L88.4197 51.3944L86.2487 52.7869L83.6611 51.0175L85.8321 49.625Z" fill="#264f68"/>
<path d="M81.2535 46.4951L83.8428 48.2645L81.67 49.6571L79.0825 47.8876L81.2535 46.4951Z" fill="#264f68"/>
<path d="M95.4779 52.3477L97.5585 53.7698L94.6632 55.6265L92.5825 54.2044L95.4779 52.3477Z" fill="#264f68"/>
<path d="M90.3571 55.6318L92.4377 57.054L89.544 58.909L87.4634 57.4868L90.3571 55.6318Z" fill="#264f68"/>
<path d="M94.5919 55.6143L97.1794 57.3821L95.0084 58.7746L92.4209 57.0068L94.5919 55.6143Z" fill="#264f68"/>
<path d="M90.0134 52.4824L92.6009 54.2518L90.4298 55.6444L87.8423 53.8766L90.0134 52.4824Z" fill="#264f68"/>
<path d="M104.237 58.335L106.317 59.7571L103.422 61.6138L101.343 60.1917L104.237 58.335Z" fill="#264f68"/>
<path d="M99.1158 61.6201L101.196 63.0423L98.3027 64.8974L96.2222 63.4768L99.1158 61.6201Z" fill="#264f68"/>
<path d="M103.35 61.6016L105.938 63.371L103.767 64.7635L101.179 62.9941L103.35 61.6016Z" fill="#264f68"/>
<path d="M98.7707 58.4707L101.36 60.2401L99.1871 61.6327L96.5996 59.8632L98.7707 58.4707Z" fill="#264f68"/>
<path d="M112.997 64.3242L115.077 65.7464L112.184 67.6031L110.103 66.1809L112.997 64.3242Z" fill="#264f68"/>
<path d="M107.877 67.6094L109.957 69.0315L107.063 70.8866L104.983 69.4661L107.877 67.6094Z" fill="#264f68"/>
<path d="M112.109 67.5889L114.698 69.3583L112.526 70.7508L109.938 68.9814L112.109 67.5889Z" fill="#264f68"/>
<path d="M107.53 64.46L110.119 66.2294L107.948 67.6219L105.359 65.8525L107.53 64.46Z" fill="#264f68"/>
<path d="M42.7755 28.1172L44.856 29.5393L41.9624 31.3943L39.8818 29.9722L42.7755 28.1172Z" fill="#264f68"/>
<path d="M37.6554 31.3994L39.7359 32.8216L36.8422 34.6783L34.7617 33.2561L37.6554 31.3994Z" fill="#264f68"/>
<path d="M41.8893 31.3818L44.4768 33.1497L42.3058 34.5438L39.7183 32.7744L41.8893 31.3818Z" fill="#264f68"/>
<path d="M37.3102 28.251L39.8977 30.0205L37.7267 31.413L35.1392 29.6452L37.3102 28.251Z" fill="#264f68"/>
<path d="M51.5353 34.1045L53.6158 35.5266L50.7221 37.3816L48.6416 35.9595L51.5353 34.1045Z" fill="#264f68"/>
<path d="M46.4152 37.3887L48.4958 38.8092L45.6021 40.6659L43.5215 39.2438L46.4152 37.3887Z" fill="#264f68"/>
<path d="M50.6485 37.3701L53.2361 39.1395L51.0651 40.5321L48.4775 38.7642L50.6485 37.3701Z" fill="#264f68"/>
<path d="M46.0699 34.2402L48.6575 36.0081L46.4865 37.4022L43.8989 35.6328L46.0699 34.2402Z" fill="#264f68"/>
<path d="M60.2941 40.0928L62.3746 41.5149L59.4809 43.3716L57.4004 41.9495L60.2941 40.0928Z" fill="#264f68"/>
<path d="M55.174 43.377L57.2546 44.7991L54.3609 46.6542L52.2803 45.232L55.174 43.377Z" fill="#264f68"/>
<path d="M59.4083 43.3594L61.9958 45.1289L59.8248 46.5214L57.2373 44.7519L59.4083 43.3594Z" fill="#264f68"/>
<path d="M54.8298 40.2285L57.4173 41.9979L55.2462 43.3905L52.6587 41.6226L54.8298 40.2285Z" fill="#264f68"/>
<path d="M69.0534 46.082L71.1339 47.5042L68.2402 49.3593L66.1597 47.9371L69.0534 46.082Z" fill="#264f68"/>
<path d="M63.9332 49.3643L66.0139 50.7864L63.1202 52.6431L61.0396 51.221L63.9332 49.3643Z" fill="#264f68"/>
<path d="M68.1681 49.3467L70.7573 51.1161L68.5846 52.5086L65.9971 50.7408L68.1681 49.3467Z" fill="#264f68"/>
<path d="M63.5881 46.2168L66.1756 47.9846L64.0045 49.3787L61.417 47.6093L63.5881 46.2168Z" fill="#264f68"/>
<path d="M77.8121 52.0703L79.8928 53.4925L76.9991 55.3492L74.9185 53.927L77.8121 52.0703Z" fill="#264f68"/>
<path d="M72.6935 55.3535L74.774 56.7757L71.8803 58.6306L69.7998 57.2085L72.6935 55.3535Z" fill="#264f68"/>
<path d="M76.927 55.3359L79.5161 57.1038L77.3434 58.4979L74.7559 56.7285L76.927 55.3359Z" fill="#264f68"/>
<path d="M72.3494 52.2051L74.9369 53.9745L72.7658 55.3688L70.1782 53.5992L72.3494 52.2051Z" fill="#264f68"/>
<path d="M86.5729 58.0596L88.6534 59.4817L85.7597 61.3367L83.6792 59.9145L86.5729 58.0596Z" fill="#264f68"/>
<path d="M81.4528 61.3418L83.5333 62.764L80.6396 64.6206L78.5591 63.1985L81.4528 61.3418Z" fill="#264f68"/>
<path d="M85.6863 61.3232L88.2738 63.0927L86.1027 64.4852L83.5151 62.7174L85.6863 61.3232Z" fill="#264f68"/>
<path d="M81.1091 58.1943L83.6966 59.9639L81.5255 61.3564L78.938 59.5869L81.1091 58.1943Z" fill="#264f68"/>
<path d="M95.3312 64.0469L97.4118 65.469L94.5181 67.3257L92.4375 65.9036L95.3312 64.0469Z" fill="#264f68"/>
<path d="M90.2116 67.3301L92.2921 68.7522L89.3984 70.6073L87.3179 69.1852L90.2116 67.3301Z" fill="#264f68"/>
<path d="M94.4451 67.3135L97.0342 69.0813L94.8615 70.4755L92.2739 68.706L94.4451 67.3135Z" fill="#264f68"/>
<path d="M89.866 64.1816L92.4535 65.9512L90.2824 67.3436L87.6948 65.5742L89.866 64.1816Z" fill="#264f68"/>
<path d="M104.092 70.0361L106.173 71.4583L103.279 73.315L101.199 71.8928L104.092 70.0361Z" fill="#264f68"/>
<path d="M98.9723 73.3203L101.053 74.7425L98.1591 76.5976L96.0786 75.1754L98.9723 73.3203Z" fill="#264f68"/>
<path d="M103.205 73.3008L105.792 75.0703L103.621 76.4628L101.034 74.6933L103.205 73.3008Z" fill="#264f68"/>
<path d="M98.6257 70.1709L101.215 71.9387L99.0421 73.3328L96.4546 71.5634L98.6257 70.1709Z" fill="#264f68"/>
<path d="M33.8702 33.8271L35.9508 35.2493L33.0571 37.106L30.9766 35.6838L33.8702 33.8271Z" fill="#264f68"/>
<path d="M28.7503 37.1113L30.8308 38.5335L27.9355 40.3902L25.855 38.968L28.7503 37.1113Z" fill="#264f68"/>
<path d="M32.9845 37.0918L35.572 38.8612L33.401 40.2537L30.8135 38.4859L32.9845 37.0918Z" fill="#264f68"/>
<path d="M28.406 33.9619L30.9935 35.7313L28.8224 37.1239L26.2349 35.3544L28.406 33.9619Z" fill="#264f68"/>
<path d="M42.6295 39.8164L44.71 41.2386L41.8164 43.0937L39.7358 41.6715L42.6295 39.8164Z" fill="#264f68"/>
<path d="M37.5099 43.0986L39.5904 44.5208L36.6951 46.3775L34.6162 44.9553L37.5099 43.0986Z" fill="#264f68"/>
<path d="M41.7434 43.0811L44.3309 44.8506L42.1598 46.2431L39.5723 44.4736L41.7434 43.0811Z" fill="#264f68"/>
<path d="M37.1658 39.9512L39.7533 41.719L37.5822 43.1115L34.9946 41.3437L37.1658 39.9512Z" fill="#264f68"/>
<path d="M51.3893 45.8037L53.4698 47.2259L50.5761 49.081L48.4956 47.6588L51.3893 45.8037Z" fill="#264f68"/>
<path d="M46.2697 49.0879L48.3502 50.51L45.4565 52.365L43.376 50.9429L46.2697 49.0879Z" fill="#264f68"/>
<path d="M50.5032 49.0684L53.0923 50.8378L50.9196 52.2319L48.332 50.4625L50.5032 49.0684Z" fill="#264f68"/>
<path d="M45.9255 45.9385L48.5131 47.7079L46.3419 49.1004L43.7544 47.331L45.9255 45.9385Z" fill="#264f68"/>
<path d="M60.1491 51.793L62.2297 53.2151L59.336 55.0702L57.2554 53.6481L60.1491 51.793Z" fill="#264f68"/>
<path d="M55.0296 55.0752L57.1101 56.4973L54.2148 58.3541L52.1343 56.9319L55.0296 55.0752Z" fill="#264f68"/>
<path d="M59.2638 55.0576L61.8513 56.827L59.6803 58.2196L57.0928 56.4501L59.2638 55.0576Z" fill="#264f68"/>
<path d="M54.6838 51.9268L57.2714 53.6962L55.1002 55.0887L52.5127 53.3209L54.6838 51.9268Z" fill="#264f68"/>
<path d="M68.9078 57.7812L70.9885 59.2034L68.0948 61.0584L66.0142 59.6362L68.9078 57.7812Z" fill="#264f68"/>
<path d="M63.7879 61.0654L65.8685 62.486L62.9731 64.3427L60.8926 62.9205L63.7879 61.0654Z" fill="#264f68"/>
<path d="M68.0222 61.0449L70.6097 62.8143L68.4386 64.2069L65.8511 62.4391L68.0222 61.0449Z" fill="#264f68"/>
<path d="M63.4436 57.916L66.0327 59.6856L63.86 61.0781L61.2725 59.3085L63.4436 57.916Z" fill="#264f68"/>
<path d="M77.6671 63.7705L79.7478 65.1911L76.8541 67.0478L74.7734 65.6256L77.6671 63.7705Z" fill="#264f68"/>
<path d="M72.5476 67.0527L74.6283 68.4749L71.7329 70.3316L69.6523 68.9094L72.5476 67.0527Z" fill="#264f68"/>
<path d="M76.782 67.0352L79.3695 68.8047L77.1984 70.1972L74.6108 68.4277L76.782 67.0352Z" fill="#264f68"/>
<path d="M72.2034 63.9053L74.7909 65.6731L72.6198 67.0672L70.0322 65.2978L72.2034 63.9053Z" fill="#264f68"/>
<path d="M86.4259 69.7578L88.5064 71.18L85.6127 73.0351L83.5322 71.6129L86.4259 69.7578Z" fill="#264f68"/>
<path d="M81.3061 73.04L83.3866 74.4622L80.4913 76.3189L78.4106 74.8967L81.3061 73.04Z" fill="#264f68"/>
<path d="M85.5408 73.0225L88.1299 74.792L85.9572 76.1845L83.3696 74.4167L85.5408 73.0225Z" fill="#264f68"/>
<path d="M80.9615 69.8936L83.5508 71.663L81.3781 73.0555L78.7905 71.2861L80.9615 69.8936Z" fill="#264f68"/>
<path d="M95.1867 75.7471L97.2672 77.1692L94.3735 79.0243L92.293 77.6022L95.1867 75.7471Z" fill="#264f68"/>
<path d="M90.0673 79.0293L92.1478 80.4515L89.2525 82.3081L87.1719 80.886L90.0673 79.0293Z" fill="#264f68"/>
<path d="M94.2989 79.0117L96.8882 80.7795L94.7155 82.1737L92.1279 80.4042L94.2989 79.0117Z" fill="#264f68"/>
<path d="M89.7213 75.8809L92.3088 77.6503L90.1378 79.0428L87.5503 77.275L89.7213 75.8809Z" fill="#264f68"/>
<path d="M24.9662 39.5381L27.0467 40.9602L24.1514 42.8169L22.0708 41.3948L24.9662 39.5381Z" fill="#264f68"/>
<path d="M19.8458 42.8223L21.9264 44.2444L19.0327 46.1011L16.9521 44.679L19.8458 42.8223Z" fill="#264f68"/>
<path d="M24.0802 42.8027L26.6677 44.5723L24.4967 45.9648L21.9092 44.1953L24.0802 42.8027Z" fill="#264f68"/>
<path d="M19.5017 39.6738L22.0892 41.4416L19.9181 42.8358L17.3306 41.0664L19.5017 39.6738Z" fill="#264f68"/>
<path d="M33.726 45.5264L35.8065 46.9485L32.9112 48.8052L30.8306 47.3831L33.726 45.5264Z" fill="#264f68"/>
<path d="M28.6041 48.8096L30.6847 50.2317L27.791 52.0884L25.7104 50.6663L28.6041 48.8096Z" fill="#264f68"/>
<path d="M32.8401 48.793L35.4276 50.5608L33.2565 51.9549L30.6689 50.1855L32.8401 48.793Z" fill="#264f68"/>
<path d="M28.26 45.6611L30.8475 47.4306L28.6764 48.8231L26.0889 47.0553L28.26 45.6611Z" fill="#264f68"/>
<path d="M42.4842 51.5156L44.5647 52.9378L41.6694 54.7945L39.5889 53.3723L42.4842 51.5156Z" fill="#264f68"/>
<path d="M37.3639 54.7988L39.4444 56.221L36.5507 58.0761L34.4702 56.6539L37.3639 54.7988Z" fill="#264f68"/>
<path d="M41.5984 54.7803L44.1859 56.5497L42.0148 57.9422L39.4272 56.1728L41.5984 54.7803Z" fill="#264f68"/>
<path d="M37.0198 51.6504L39.6073 53.4182L37.4362 54.8125L34.8486 53.0429L37.0198 51.6504Z" fill="#264f68"/>
<path d="M51.2438 57.5029L53.3243 58.9251L50.429 60.7818L48.3501 59.3596L51.2438 57.5029Z" fill="#264f68"/>
<path d="M46.1237 60.7871L48.2042 62.2093L45.3105 64.066L43.23 62.6438L46.1237 60.7871Z" fill="#264f68"/>
<path d="M50.3581 60.7695L52.9473 62.539L50.7745 63.9315L48.187 62.1621L50.3581 60.7695Z" fill="#264f68"/>
<path d="M45.7784 57.6377L48.366 59.4072L46.195 60.7998L43.6074 59.0302L45.7784 57.6377Z" fill="#264f68"/>
<path d="M60.0021 63.4922L62.0826 64.9143L59.1889 66.7693L57.1084 65.3472L60.0021 63.4922Z" fill="#264f68"/>
<path d="M54.882 66.7764L56.9626 68.1985L54.0689 70.0536L51.9883 68.6315L54.882 66.7764Z" fill="#264f68"/>
<path d="M59.1169 66.7568L61.7061 68.5263L59.5333 69.9188L56.9458 68.1494L59.1169 66.7568Z" fill="#264f68"/>
<path d="M54.5393 63.627L57.1268 65.3964L54.9557 66.7889L52.3682 65.0195L54.5393 63.627Z" fill="#264f68"/>
<path d="M68.7635 69.4795L70.844 70.9016L67.9487 72.7583L65.8682 71.3362L68.7635 69.4795Z" fill="#264f68"/>
<path d="M63.6417 72.7637L65.7224 74.1858L62.8287 76.0425L60.748 74.6204L63.6417 72.7637Z" fill="#264f68"/>
<path d="M67.8762 72.7461L70.4637 74.5139L68.2926 75.9082L65.7051 74.1386L67.8762 72.7461Z" fill="#264f68"/>
<path d="M63.2991 69.6152L65.8866 71.3847L63.7155 72.7772L61.1279 71.0094L63.2991 69.6152Z" fill="#264f68"/>
<path d="M77.5218 75.4697L79.6024 76.8903L76.707 78.747L74.6265 77.3248L77.5218 75.4697Z" fill="#264f68"/>
<path d="M72.4 78.7529L74.4807 80.1734L71.587 82.0301L69.5063 80.6079L72.4 78.7529Z" fill="#264f68"/>
<path d="M76.636 78.7334L79.2251 80.5028L77.0524 81.8953L74.4648 80.1259L76.636 78.7334Z" fill="#264f68"/>
<path d="M72.0572 75.6025L74.6448 77.372L72.4738 78.7662L69.8862 76.9967L72.0572 75.6025Z" fill="#264f68"/>
<path d="M86.283 81.459L88.3636 82.8794L85.4682 84.7361L83.3877 83.314L86.283 81.459Z" fill="#264f68"/>
<path d="M81.1622 84.7422L83.2428 86.1627L80.3491 88.0194L78.2686 86.5973L81.1622 84.7422Z" fill="#264f68"/>
<path d="M85.3956 84.7217L87.9831 86.4911L85.8121 87.8836L83.2246 86.1158L85.3956 84.7217Z" fill="#264f68"/>
<path d="M80.817 81.5918L83.4063 83.3613L81.2335 84.7539L78.646 82.9843L80.817 81.5918Z" fill="#264f68"/>
<path d="M16.0612 45.249L18.1418 46.6712L15.2481 48.5263L13.1675 47.1041L16.0612 45.249Z" fill="#264f68"/>
<path d="M10.9411 48.5332L13.0216 49.9554L10.1279 51.8103L8.04736 50.3882L10.9411 48.5332Z" fill="#264f68"/>
<path d="M15.175 48.5137L17.7626 50.2815L15.5914 51.6756L13.0039 49.9062L15.175 48.5137Z" fill="#264f68"/>
<path d="M10.5973 45.3848L13.1849 47.1526L11.0138 48.5451L8.42627 46.7773L10.5973 45.3848Z" fill="#264f68"/>
<path d="M24.82 51.2373L26.9005 52.6595L24.0068 54.5162L21.9263 53.094L24.82 51.2373Z" fill="#264f68"/>
<path d="M19.6998 54.5205L21.7804 55.9427L18.8867 57.7994L16.8062 56.3772L19.6998 54.5205Z" fill="#264f68"/>
<path d="M23.9343 54.5029L26.5218 56.2707L24.3507 57.6633L21.7632 55.8955L23.9343 54.5029Z" fill="#264f68"/>
<path d="M19.3557 51.3721L21.9432 53.1415L19.7721 54.534L17.1846 52.7646L19.3557 51.3721Z" fill="#264f68"/>
<path d="M33.5797 57.2246L35.6602 58.6468L32.7666 60.5035L30.686 59.0813L33.5797 57.2246Z" fill="#264f68"/>
<path d="M28.4581 60.5088L30.5388 61.9309L27.6451 63.7876L25.5645 62.3655L28.4581 60.5088Z" fill="#264f68"/>
<path d="M32.6931 60.4912L35.2822 62.2606L33.1095 63.6532L30.522 61.8837L32.6931 60.4912Z" fill="#264f68"/>
<path d="M28.1155 57.3613L30.703 59.1291L28.5319 60.5217L25.9443 58.7539L28.1155 57.3613Z" fill="#264f68"/>
<path d="M42.3395 63.2139L44.42 64.636L41.5263 66.4927L39.4458 65.0706L42.3395 63.2139Z" fill="#264f68"/>
<path d="M37.2179 66.498L39.2985 67.9202L36.4049 69.7769L34.3242 68.3547L37.2179 66.498Z" fill="#264f68"/>
<path d="M41.4538 66.4805L44.0414 68.2483L41.8702 69.6425L39.2827 67.873L41.4538 66.4805Z" fill="#264f68"/>
<path d="M36.8736 63.3496L39.4612 65.1174L37.2902 66.5116L34.7026 64.7421L36.8736 63.3496Z" fill="#264f68"/>
<path d="M51.0988 69.2021L53.1793 70.6243L50.2856 72.481L48.2051 71.0589L51.0988 69.2021Z" fill="#264f68"/>
<path d="M45.9777 72.4854L48.0583 73.9075L45.1646 75.7642L43.084 74.3421L45.9777 72.4854Z" fill="#264f68"/>
<path d="M50.2125 72.4678L52.8 74.2373L50.629 75.6298L48.0415 73.8603L50.2125 72.4678Z" fill="#264f68"/>
<path d="M45.6334 69.3389L48.2227 71.1067L46.0499 72.5008L43.4624 70.7314L45.6334 69.3389Z" fill="#264f68"/>
<path d="M59.8576 75.1904L61.9381 76.6126L59.0444 78.4677L56.9639 77.0471L59.8576 75.1904Z" fill="#264f68"/>
<path d="M54.7374 78.4746L56.8181 79.8968L53.9244 81.7517L51.8438 80.3313L54.7374 78.4746Z" fill="#264f68"/>
<path d="M58.9723 78.4561L61.5598 80.2256L59.3888 81.6181L56.8013 79.8503L58.9723 78.4561Z" fill="#264f68"/>
<path d="M54.3932 75.3262L56.9807 77.0956L54.8097 78.4881L52.2222 76.7187L54.3932 75.3262Z" fill="#264f68"/>
<path d="M68.6173 81.1787L70.6978 82.6009L67.8041 84.4576L65.7236 83.0354L68.6173 81.1787Z" fill="#264f68"/>
<path d="M63.4972 84.4629L65.5778 85.885L62.6842 87.7417L60.6035 86.3196L63.4972 84.4629Z" fill="#264f68"/>
<path d="M67.7316 84.4453L70.3208 86.2147L68.1481 87.6073L65.5605 85.8378L67.7316 84.4453Z" fill="#264f68"/>
<path d="M63.1521 81.3145L65.7412 83.084L63.5685 84.4765L60.981 82.707L63.1521 81.3145Z" fill="#264f68"/>
<path d="M77.3781 87.168L79.4586 88.5901L76.5649 90.4468L74.4844 89.0247L77.3781 87.168Z" fill="#264f68"/>
<path d="M72.257 90.4521L74.3376 91.8743L71.4439 93.731L69.3633 92.3088L72.257 90.4521Z" fill="#264f68"/>
<path d="M76.4905 90.4326L79.0796 92.202L76.9069 93.5946L74.3193 91.8251L76.4905 90.4326Z" fill="#264f68"/>
<path d="M71.9127 87.3027L74.5002 89.0723L72.3292 90.4648L69.7417 88.6953L71.9127 87.3027Z" fill="#264f68"/>
<path d="M76.0815 12.3936L78.1621 13.8157L74.3779 16.2419L72.2974 14.8215L76.0815 12.3936Z" fill="#264f68"/>
<path d="M84.9586 18.4609L87.0391 19.8831L83.2549 22.3109L81.1743 20.8887L84.9586 18.4609Z" fill="#264f68"/>
<path d="M93.7758 24.4893L95.8565 25.9114L92.0722 28.3392L89.9917 26.917L93.7758 24.4893Z" fill="#264f68"/>
<path d="M111.315 36.4805L113.395 37.9026L109.611 40.3305L107.53 38.9084L111.315 36.4805Z" fill="#264f68"/>
<path d="M102.472 30.4355L104.552 31.8577L100.768 34.284L98.6875 32.8635L102.472 30.4355Z" fill="#264f68"/>
<path d="M119.985 42.4072L122.065 43.8294L118.281 46.2573L116.201 44.8351L119.985 42.4072Z" fill="#264f68"/>
<path d="M128.723 48.3828L130.804 49.805L127.02 52.2327L124.938 50.8106L128.723 48.3828Z" fill="#264f68"/>
<path d="M67.3966 17.9629L69.4771 19.385L65.6929 21.813L63.6123 20.3908L67.3966 17.9629Z" fill="#264f68"/>
<path d="M76.2745 24.0312L78.355 25.4534L74.5709 27.8812L72.4902 26.459L76.2745 24.0312Z" fill="#264f68"/>
<path d="M85.0909 30.0586L87.1714 31.4807L83.3873 33.9087L81.3066 32.4865L85.0909 30.0586Z" fill="#264f68"/>
<path d="M102.631 42.0508L104.711 43.4729L100.927 45.9007L98.8467 44.4786L102.631 42.0508Z" fill="#264f68"/>
<path d="M93.7866 36.0049L95.8672 37.427L92.083 39.8549L90.0024 38.4328L93.7866 36.0049Z" fill="#264f68"/>
<path d="M111.3 47.9775L113.381 49.3997L109.597 51.8276L107.516 50.4054L111.3 47.9775Z" fill="#264f68"/>
<path d="M120.039 53.9521L122.12 55.3743L118.335 57.8021L116.255 56.3799L120.039 53.9521Z" fill="#264f68"/>
<path d="M58.7119 23.5332L60.7924 24.9554L57.0082 27.3831L54.9277 25.961L58.7119 23.5332Z" fill="#264f68"/>
<path d="M67.5893 29.6006L69.6698 31.0227L65.8857 33.4506L63.8052 32.0285L67.5893 29.6006Z" fill="#264f68"/>
<path d="M76.4057 35.6289L78.4864 37.0511L74.7021 39.479L72.6216 38.0568L76.4057 35.6289Z" fill="#264f68"/>
<path d="M93.9458 47.6201L96.0264 49.0423L92.2421 51.4701L90.1616 50.0479L93.9458 47.6201Z" fill="#264f68"/>
<path d="M85.1016 41.5742L87.1822 42.9964L83.398 45.4243L81.3174 44.0021L85.1016 41.5742Z" fill="#264f68"/>
<path d="M102.615 53.5469L104.696 54.969L100.912 57.3968L98.8311 55.9747L102.615 53.5469Z" fill="#264f68"/>
<path d="M111.354 59.5215L113.435 60.9436L109.651 63.3715L107.57 61.9494L111.354 59.5215Z" fill="#264f68"/>
<path d="M49.1578 29.6602L51.2383 31.0807L47.4542 33.5085L45.3735 32.0863L49.1578 29.6602Z" fill="#264f68"/>
<path d="M58.0352 35.7285L60.1158 37.1507L56.3316 39.5785L54.251 38.1563L58.0352 35.7285Z" fill="#264f68"/>
<path d="M66.8516 41.7559L68.9322 43.178L65.148 45.6043L63.0674 44.1838L66.8516 41.7559Z" fill="#264f68"/>
<path d="M84.3917 53.748L86.4722 55.1702L82.6881 57.5964L80.6074 56.1742L84.3917 53.748Z" fill="#264f68"/>
<path d="M75.5489 47.7021L77.6294 49.1227L73.8453 51.5506L71.7646 50.1285L75.5489 47.7021Z" fill="#264f68"/>
<path d="M93.061 59.6748L95.1416 61.097L91.3574 63.5249L89.2769 62.1027L93.061 59.6748Z" fill="#264f68"/>
<path d="M101.801 65.6494L103.882 67.0716L100.098 69.4979L98.0171 68.0773L101.801 65.6494Z" fill="#264f68"/>
<path d="M40.4737 35.2305L42.5542 36.6526L38.7701 39.0788L36.6895 37.6566L40.4737 35.2305Z" fill="#264f68"/>
<path d="M49.3505 41.2988L51.4311 42.721L47.6469 45.1488L45.5664 43.7266L49.3505 41.2988Z" fill="#264f68"/>
<path d="M58.167 47.3262L60.2475 48.7483L56.4633 51.1762L54.3828 49.7541L58.167 47.3262Z" fill="#264f68"/>
<path d="M75.7065 59.3184L77.787 60.7405L74.0029 63.1668L71.9224 61.7447L75.7065 59.3184Z" fill="#264f68"/>
<path d="M66.8637 53.2725L68.9444 54.6946L65.1601 57.1208L63.0796 55.6986L66.8637 53.2725Z" fill="#264f68"/>
<path d="M84.3761 65.2441L86.4566 66.6663L82.6724 69.0941L80.5918 67.6719L84.3761 65.2441Z" fill="#264f68"/>
<path d="M93.1163 71.2188L95.1968 72.6409L91.4127 75.0688L89.332 73.6467L93.1163 71.2188Z" fill="#264f68"/>
<path d="M31.789 40.8008L33.8695 42.2229L30.0854 44.6492L28.0049 43.2271L31.789 40.8008Z" fill="#264f68"/>
<path d="M40.6655 46.8682L42.7461 48.2903L38.9619 50.7182L36.8813 49.2961L40.6655 46.8682Z" fill="#264f68"/>
<path d="M49.4819 52.8965L51.5625 54.3186L47.7783 56.7465L45.6978 55.3244L49.4819 52.8965Z" fill="#264f68"/>
<path d="M67.0216 64.8877L69.1021 66.3098L65.3179 68.7361L63.2373 67.314L67.0216 64.8877Z" fill="#264f68"/>
<path d="M58.1777 58.8418L60.2582 60.2639L56.4741 62.6901L54.3936 61.268L58.1777 58.8418Z" fill="#264f68"/>
<path d="M75.6909 70.8135L77.7714 72.2356L73.9873 74.6634L71.9067 73.2413L75.6909 70.8135Z" fill="#264f68"/>
<path d="M84.4301 76.7891L86.5108 78.2112L82.7265 80.6391L80.646 79.217L84.4301 76.7891Z" fill="#264f68"/>
<path d="M22.6528 46.6592L24.7334 48.0797L20.9492 50.5076L18.8687 49.0855L22.6528 46.6592Z" fill="#264f68"/>
<path d="M31.5299 52.7275L33.6104 54.1497L29.8262 56.5776L27.7456 55.1554L31.5299 52.7275Z" fill="#264f68"/>
<path d="M40.3463 58.7549L42.4268 60.177L38.6427 62.6049L36.562 61.1828L40.3463 58.7549Z" fill="#264f68"/>
<path d="M57.8858 70.7471L59.9663 72.1692L56.1822 74.5955L54.1016 73.1734L57.8858 70.7471Z" fill="#264f68"/>
<path d="M49.042 64.7012L51.1225 66.1233L47.3383 68.5495L45.2578 67.1274L49.042 64.7012Z" fill="#264f68"/>
<path d="M66.5551 76.6729L68.6358 78.095L64.8515 80.5228L62.771 79.1006L66.5551 76.6729Z" fill="#264f68"/>
<path d="M75.2944 82.6475L77.375 84.0696L73.5908 86.4975L71.5103 85.0754L75.2944 82.6475Z" fill="#264f68"/>
</g>
<defs>
<clipPath id="clip0_116_3419">
<rect width="150.61" height="99.9952" fill="white" transform="translate(0.0678711 0.487305)"/>
</clipPath>
</defs>
</svg>
