<svg width="151" height="101" viewBox="0 0 151 101" fill="none" xmlns="http://www.w3.org/2000/svg">
<g clip-path="url(#clip0_116_3737)">
<path d="M11.9064 49.9887L23.1256 42.5273C23.6638 42.1702 23.6687 41.5875 23.1372 41.227C22.6055 40.8648 21.7397 40.8616 21.2015 41.2188L9.9822 48.6801C9.44395 49.0373 9.43901 49.62 9.97067 49.9822C10.5023 50.3426 11.3698 50.3458 11.9064 49.9887Z" fill="#264f68"/>
<path d="M29.0066 36.0276L24.8586 38.7863C24.3221 39.1435 24.3172 39.7245 24.8487 40.0866C25.3804 40.4487 26.2479 40.452 26.7845 40.0932L30.9308 37.3361C31.469 36.979 31.474 36.3963 30.9423 36.0341C30.4107 35.6736 29.5432 35.6704 29.0066 36.0276Z" fill="#264f68"/>
<path d="M52.0618 20.6954L40.8425 28.1568C40.3043 28.5139 40.2994 29.0966 40.8311 29.4587C41.3626 29.8191 42.2301 29.8225 42.7668 29.4653L53.986 22.004C54.5242 21.6467 54.5292 21.064 53.9975 20.7035C53.4658 20.3415 52.5984 20.3381 52.0618 20.6954Z" fill="#264f68"/>
<path d="M34.7781 34.7768L38.9243 32.0198C39.4625 31.6625 39.4675 31.0798 38.9359 30.7178C38.4042 30.3573 37.5384 30.3539 37.0002 30.7112L32.8538 33.4682C32.3172 33.8271 32.3122 34.4081 32.844 34.7703C33.3739 35.1307 34.2414 35.1357 34.7781 34.7768Z" fill="#264f68"/>
<path d="M33.2968 38.9433L22.0759 46.4047C21.5394 46.762 21.5344 47.3446 22.066 47.7067C22.5977 48.0672 23.4635 48.0705 24.0017 47.7133L35.2209 40.2519C35.7592 39.8948 35.7641 39.3121 35.2308 38.9516C34.7008 38.5895 33.8334 38.5862 33.2968 38.9433Z" fill="#264f68"/>
<path d="M16.1969 52.904L20.3449 50.1452C20.8815 49.7881 20.8865 49.2054 20.3548 48.8449C19.8231 48.4829 18.9557 48.4795 18.4191 48.8384L14.2727 51.5954C13.7345 51.9526 13.7295 52.5352 14.2612 52.8975C14.7929 53.2579 15.6603 53.2611 16.1969 52.904Z" fill="#264f68"/>
<path d="M39.069 37.6923L50.2882 30.2326C50.8265 29.8754 50.8314 29.2911 50.2997 28.9307C49.768 28.5702 48.9006 28.5668 48.364 28.924L37.1448 36.3854C36.6065 36.7426 36.6016 37.3253 37.1333 37.6858C37.6649 38.0479 38.5324 38.0512 39.069 37.6923Z" fill="#264f68"/>
<path d="M56.3512 23.6123L52.2048 26.3711C51.6666 26.7282 51.6617 27.3109 52.1934 27.6714C52.7249 28.0335 53.5924 28.0368 54.1291 27.6797L58.2753 24.9209C58.8135 24.5638 58.8185 23.9811 58.2869 23.6206C57.7552 23.2584 56.8877 23.2552 56.3512 23.6123Z" fill="#264f68"/>
<path d="M20.4877 55.8197L31.7069 48.3583C32.2451 48.0012 32.2501 47.4185 31.7184 47.058C31.1867 46.696 30.3193 46.6926 29.781 47.0498L18.5618 54.5111C18.0252 54.8684 18.0203 55.4511 18.552 55.8132C19.0819 56.1736 19.9494 56.177 20.4877 55.8197Z" fill="#264f68"/>
<path d="M37.5876 41.8595L33.4412 44.6167C32.9046 44.9754 32.8997 45.5565 33.4314 45.9186C33.9613 46.2808 34.8288 46.284 35.3655 45.9253L39.5134 43.1681C40.0499 42.811 40.0549 42.2283 39.5233 41.8662C38.9932 41.5057 38.1258 41.5024 37.5876 41.8595Z" fill="#264f68"/>
<path d="M60.6418 26.5274L49.4226 33.9888C48.8844 34.3459 48.8794 34.9286 49.4111 35.2891C49.9427 35.6512 50.8102 35.6545 51.3485 35.2974L62.5661 27.836C63.1043 27.4787 63.1092 26.896 62.5775 26.5356C62.0476 26.1735 61.1801 26.1702 60.6418 26.5274Z" fill="#264f68"/>
<path d="M43.3594 40.6088L47.5058 37.8518C48.0424 37.4945 48.0474 36.9119 47.5157 36.5498C46.9857 36.1893 46.1182 36.186 45.5816 36.5432L41.4353 39.3019C40.8971 39.6591 40.8921 40.2401 41.4237 40.6023C41.9538 40.9644 42.8212 40.9677 43.3594 40.6088Z" fill="#264f68"/>
<path d="M41.8784 44.7754L30.6575 52.2367C30.1209 52.594 30.116 53.1767 30.6477 53.5388C31.1794 53.8992 32.0451 53.9026 32.5834 53.5453L43.8026 46.0839C44.3392 45.7268 44.3442 45.1441 43.8125 44.7836C43.2825 44.4215 42.415 44.4182 41.8784 44.7754Z" fill="#264f68"/>
<path d="M24.777 58.7353L28.9234 55.9765C29.4616 55.6194 29.4665 55.0367 28.9332 54.6762C28.4031 54.3141 27.5358 54.3108 26.9991 54.6679L22.8528 57.4267C22.3146 57.7838 22.3096 58.3665 22.8413 58.727C23.373 59.0892 24.2404 59.0924 24.777 58.7353Z" fill="#264f68"/>
<path d="M47.649 43.5244L58.8682 36.0647C59.4064 35.7058 59.4114 35.1231 58.8798 34.7627C58.3481 34.4022 57.4806 34.3989 56.9441 34.7561L45.7249 42.2175C45.1866 42.5746 45.1817 43.1557 45.7133 43.5178C46.245 43.8799 47.1125 43.8832 47.649 43.5244Z" fill="#264f68"/>
<path d="M64.9324 29.4433L60.7845 32.2021C60.2479 32.5592 60.2429 33.1419 60.7746 33.5024C61.3063 33.8646 62.1737 33.8678 62.7103 33.5107L66.8567 30.7519C67.3949 30.3948 67.3999 29.8121 66.8681 29.4516C66.3364 29.0895 65.4691 29.0862 64.9324 29.4433Z" fill="#264f68"/>
<path d="M29.0676 61.6508L40.2868 54.1894C40.825 53.8323 40.8299 53.2496 40.2982 52.8891C39.7667 52.527 38.8992 52.5237 38.3625 52.8808L27.1433 60.3422C26.6051 60.6995 26.6001 61.2821 27.1318 61.6426C27.6635 62.0047 28.5309 62.008 29.0676 61.6508Z" fill="#264f68"/>
<path d="M46.169 47.6917L42.0227 50.4487C41.4845 50.8076 41.4795 51.3885 42.0111 51.7507C42.5428 52.1128 43.4103 52.1162 43.9468 51.7573L48.0932 49.0003C48.6314 48.643 48.6364 48.0603 48.1047 47.6982C47.5731 47.3377 46.7056 47.3344 46.169 47.6917Z" fill="#264f68"/>
<path d="M69.2229 32.3596L58.0037 39.821C57.4654 40.1781 57.4605 40.7608 57.9921 41.1213C58.5238 41.4835 59.3913 41.4867 59.9278 41.1295L71.147 33.6682C71.6853 33.311 71.6902 32.7283 71.1586 32.3661C70.6269 32.0057 69.7594 32.0025 69.2229 32.3596Z" fill="#264f68"/>
<path d="M51.9395 46.4399L56.0875 43.6828C56.6241 43.3257 56.629 42.743 56.0973 42.3808C55.5658 42.0203 54.6983 42.0171 54.1616 42.3742L50.0154 45.1313C49.4772 45.4901 49.4722 46.0712 50.0038 46.4333C50.5355 46.7954 51.403 46.7987 51.9395 46.4399Z" fill="#264f68"/>
<path d="M50.4583 50.6064L39.239 58.0678C38.7008 58.425 38.6959 59.0077 39.2274 59.3682C39.7591 59.7303 40.6249 59.7336 41.1631 59.3764L52.3824 51.915C52.9206 51.5578 52.9255 50.9752 52.394 50.6147C51.8623 50.2526 50.9965 50.2493 50.4583 50.6064Z" fill="#264f68"/>
<path d="M33.3582 64.5673L37.5045 61.8086C38.0412 61.4514 38.0461 60.8687 37.5144 60.5082C36.9844 60.1461 36.1169 60.1428 35.5803 60.5001L31.4323 63.2587C30.8958 63.616 30.8909 64.1987 31.4225 64.5591C31.9526 64.9212 32.8199 64.9245 33.3582 64.5673Z" fill="#264f68"/>
<path d="M56.2305 49.356L67.4497 41.8964C67.988 41.5375 67.9929 40.9548 67.4613 40.5943C66.9296 40.2322 66.0622 40.2305 65.5239 40.5878L54.3064 48.0474C53.7682 48.4063 53.7632 48.9874 54.2948 49.3495C54.8249 49.7115 55.6923 49.7149 56.2305 49.356Z" fill="#264f68"/>
<path d="M73.5132 35.2746L69.367 38.0333C68.8304 38.3905 68.8254 38.9732 69.3571 39.3336C69.8871 39.6958 70.7546 39.6991 71.2911 39.3403L75.4375 36.5832C75.9757 36.226 75.9806 35.6433 75.4489 35.2812C74.919 34.9208 74.0515 34.9174 73.5132 35.2746Z" fill="#264f68"/>
<path d="M37.6491 67.4828L48.8683 60.0214C49.4066 59.6643 49.4115 59.0816 48.8798 58.7211C48.3481 58.359 47.4807 58.3557 46.9441 58.7129L35.7249 66.1742C35.1866 66.5315 35.1817 67.1142 35.7134 67.4747C36.245 67.8367 37.1125 67.8401 37.6491 67.4828Z" fill="#264f68"/>
<path d="M54.7493 53.5227L50.6014 56.2797C50.0647 56.6386 50.0598 57.2197 50.5915 57.5817C51.1232 57.9438 51.9906 57.9456 52.5272 57.5883L56.6736 54.8313C57.2118 54.4741 57.2167 53.8914 56.685 53.5292C56.1533 53.1688 55.286 53.1655 54.7493 53.5227Z" fill="#264f68"/>
<path d="M77.8039 38.1916L66.5847 45.653C66.0465 46.0101 66.0415 46.5928 66.5732 46.9533C67.105 47.3155 67.9723 47.3187 68.509 46.9616L79.7282 39.5002C80.2664 39.1431 80.2713 38.5604 79.7396 38.1982C79.2081 37.8377 78.3406 37.8345 77.8039 38.1916Z" fill="#264f68"/>
<path d="M60.5212 52.2719L64.6675 49.5148C65.2057 49.1577 65.2107 48.575 64.679 48.2129C64.1473 47.8524 63.2799 47.8491 62.7433 48.2062L58.5969 50.9634C58.0587 51.3221 58.0538 51.9032 58.5855 52.2653C59.1172 52.6275 59.9845 52.6307 60.5212 52.2719Z" fill="#264f68"/>
<path d="M59.0395 56.4385L47.8187 63.8999C47.282 64.2571 47.2771 64.8397 47.8088 65.2002C48.3404 65.5623 49.2063 65.5656 49.7445 65.2085L60.9637 57.7471C61.502 57.3899 61.5069 56.8072 60.9752 56.4467C60.4435 56.0846 59.5761 56.0813 59.0395 56.4385Z" fill="#264f68"/>
<path d="M41.9395 70.3993L46.0875 67.6407C46.6241 67.2834 46.629 66.7007 46.0973 66.3403C45.5658 65.9782 44.6983 65.9748 44.1616 66.3321L40.0154 69.0907C39.4772 69.448 39.4722 70.0307 40.0038 70.3912C40.5355 70.7533 41.403 70.7566 41.9395 70.3993Z" fill="#264f68"/>
<path d="M64.8117 55.1878L76.0309 47.728C76.5691 47.3691 76.5741 46.7865 76.0424 46.426C75.5108 46.0639 74.6449 46.0606 74.1067 46.4194L62.8875 53.8792C62.3492 54.238 62.3443 54.819 62.876 55.1811C63.4077 55.5433 64.2751 55.5465 64.8117 55.1878Z" fill="#264f68"/>
<path d="M82.0948 41.1067L77.9485 43.8653C77.4103 44.2226 77.4053 44.8036 77.937 45.1658C78.4687 45.5279 79.3361 45.5312 79.8727 45.1723L84.0191 42.4153C84.5573 42.058 84.5623 41.4753 84.0305 41.1133C83.4988 40.7528 82.6315 40.7494 82.0948 41.1067Z" fill="#264f68"/>
<path d="M46.2303 73.3151L57.4496 65.8538C57.9878 65.4965 57.9927 64.9138 57.461 64.5517C56.9295 64.1913 56.062 64.1879 55.5237 64.5452L44.3045 72.0066C43.7679 72.3637 43.7629 72.9464 44.2946 73.3069C44.8246 73.6689 45.6921 73.6723 46.2303 73.3151Z" fill="#264f68"/>
<path d="M63.3302 59.3547L59.1838 62.1118C58.6473 62.4706 58.6424 63.0516 59.1739 63.4137C59.704 63.7742 60.5714 63.7775 61.108 63.4204L65.256 60.6632C65.7926 60.3045 65.7976 59.7234 65.2659 59.3613C64.7359 59.0008 63.8684 58.9975 63.3302 59.3547Z" fill="#264f68"/>
<path d="M86.384 44.0226L75.1648 51.484C74.6266 51.8413 74.6216 52.4239 75.1533 52.7844C75.685 53.1465 76.5524 53.1498 77.0906 52.7926L88.3082 45.3312C88.8465 44.9741 88.8514 44.3914 88.3197 44.0293C87.7898 43.6688 86.9223 43.6655 86.384 44.0226Z" fill="#264f68"/>
<path d="M69.1022 58.104L73.2484 55.3469C73.7851 54.9897 73.79 54.407 73.2583 54.0449C72.7283 53.6844 71.8609 53.6811 71.3243 54.0384L67.178 56.7954C66.6397 57.1543 66.6348 57.7352 67.1665 58.0974C67.6965 58.4595 68.564 58.4611 69.1022 58.104Z" fill="#264f68"/>
<path d="M67.621 62.2707L56.4002 69.7321C55.8636 70.0892 55.8587 70.6719 56.3902 71.0324C56.9219 71.3946 57.7878 71.3978 58.3261 71.0407L69.5453 63.5793C70.0818 63.2222 70.0867 62.6395 69.555 62.2773C69.0251 61.9168 68.1576 61.9136 67.621 62.2707Z" fill="#264f68"/>
<path d="M50.5206 76.2304L54.6669 73.4717C55.2052 73.1145 55.2101 72.5318 54.6784 72.1714C54.1468 71.8092 53.2793 71.806 52.7427 72.1631L48.5965 74.9219C48.0582 75.279 48.0533 75.8617 48.5849 76.2222C49.1166 76.5842 49.9841 76.5876 50.5206 76.2304Z" fill="#264f68"/>
<path d="M73.3927 61.0197L84.612 53.5601C85.1502 53.2012 85.1551 52.6185 84.6234 52.258C84.0917 51.8959 83.2244 51.8926 82.6877 52.2515L71.4685 59.7111C70.9303 60.07 70.9253 60.6511 71.457 61.0131C71.9886 61.3752 72.8561 61.377 73.3927 61.0197Z" fill="#264f68"/>
<path d="M90.675 46.9387L86.5271 49.6958C85.9906 50.0546 85.9856 50.6356 86.5172 50.9978C87.0489 51.3599 87.9164 51.3632 88.4529 51.0044L92.5993 48.2473C93.1375 47.8901 93.1424 47.3074 92.6107 46.9453C92.0792 46.5848 91.2117 46.5815 90.675 46.9387Z" fill="#264f68"/>
<path d="M54.8112 79.1469L66.0304 71.6855C66.5687 71.3284 66.5736 70.7457 66.0419 70.3852C65.5103 70.0231 64.6428 70.0198 64.1062 70.3769L52.887 77.8383C52.3487 78.1956 52.3438 78.7782 52.8755 79.1403C53.4072 79.5008 54.2746 79.5041 54.8112 79.1469Z" fill="#264f68"/>
<path d="M71.9126 65.1867L67.7664 67.9454C67.2281 68.3026 67.2232 68.8837 67.7548 69.2458C68.2865 69.608 69.154 69.6112 69.6905 69.2524L73.8368 66.4953C74.3751 66.1381 74.38 65.5554 73.8483 65.1934C73.3167 64.8329 72.4492 64.8295 71.9126 65.1867Z" fill="#264f68"/>
<path d="M94.9665 49.8545L83.7473 57.3159C83.2091 57.673 83.2041 58.2557 83.7358 58.6179C84.2674 58.9784 85.1349 58.9816 85.6716 58.6245L96.8908 51.1631C97.429 50.8059 97.4339 50.2233 96.9022 49.8628C96.3705 49.5006 95.5032 49.4974 94.9665 49.8545Z" fill="#264f68"/>
<path d="M77.6838 63.9377L81.8317 61.1789C82.3682 60.8218 82.3732 60.2391 81.8416 59.8769C81.3099 59.5164 80.4424 59.5132 79.9059 59.8703L75.7595 62.6291C75.2213 62.9862 75.2164 63.5689 75.7481 63.9294C76.2796 64.2915 77.1471 64.2948 77.6838 63.9377Z" fill="#264f68"/>
<path d="M76.2019 68.1024L64.9827 75.5638C64.4444 75.921 64.4395 76.5036 64.9712 76.8641C65.5028 77.2263 66.3687 77.2295 66.9069 76.8724L78.1261 69.411C78.6644 69.0539 78.6693 68.4712 78.1376 68.109C77.6059 67.7485 76.7401 67.7436 76.2019 68.1024Z" fill="#264f68"/>
<path d="M59.1024 82.0624L63.2486 79.3037C63.7853 78.9465 63.7902 78.3638 63.2585 78.0034C62.7285 77.6413 61.861 77.6379 61.3245 77.9951L57.1766 80.7538C56.6399 81.111 56.635 81.6937 57.1667 82.0541C57.6967 82.4164 58.5642 82.4196 59.1024 82.0624Z" fill="#264f68"/>
<path d="M81.9742 66.8517L93.1934 59.3904C93.7316 59.0332 93.7366 58.4505 93.205 58.09C92.6733 57.728 91.8058 57.7246 91.2676 58.0835L80.0501 65.5431C79.5118 65.902 79.5069 66.4831 80.0385 66.8452C80.5686 67.2057 81.4359 67.209 81.9742 66.8517Z" fill="#264f68"/>
<path d="M99.256 52.7698L95.1097 55.5268C94.573 55.8857 94.5681 56.4667 95.0998 56.8288C95.6298 57.1909 96.4973 57.1942 97.0339 56.8354L101.18 54.0783C101.718 53.7212 101.723 53.1385 101.192 52.7763C100.662 52.4158 99.7943 52.4126 99.256 52.7698Z" fill="#264f68"/>
<path d="M63.3913 84.9782L74.6105 77.5168C75.1487 77.1597 75.1537 76.577 74.622 76.2148C74.0904 75.8543 73.2229 75.8511 72.6863 76.2082L61.4671 83.6696C60.9288 84.0267 60.9239 84.6094 61.4556 84.9699C61.9873 85.3321 62.8546 85.3353 63.3913 84.9782Z" fill="#264f68"/>
<path d="M80.493 71.0181L76.345 73.7751C75.8084 74.1322 75.8035 74.7149 76.3352 75.0771C76.8669 75.4376 77.7342 75.4408 78.2709 75.0837L82.4172 72.3267C82.9555 71.9678 82.9604 71.3867 82.4287 71.0246C81.897 70.6625 81.0296 70.6592 80.493 71.0181Z" fill="#264f68"/>
<path d="M103.547 55.6858L92.3274 63.1472C91.7892 63.5043 91.7842 64.087 92.3158 64.4475C92.8475 64.8096 93.715 64.8129 94.2515 64.454L105.471 56.9944C106.009 56.6371 106.014 56.0544 105.482 55.6924C104.951 55.3319 104.083 55.3285 103.547 55.6858Z" fill="#264f68"/>
<path d="M86.2637 69.7677L90.4101 67.0106C90.9483 66.6518 90.9533 66.0707 90.4216 65.7086C89.89 65.3464 89.0225 65.3448 88.4859 65.702L84.3396 68.4591C83.8014 68.8163 83.7964 69.399 84.328 69.761C84.8597 70.1215 85.7272 70.1249 86.2637 69.7677Z" fill="#264f68"/>
<path d="M84.7836 73.9337L73.5628 81.395C73.0262 81.7522 73.0212 82.3349 73.5529 82.6969C74.0846 83.0574 74.9504 83.0608 75.4886 82.7036L86.7079 75.2422C87.2461 74.885 87.251 74.3023 86.7177 73.9418C86.1878 73.5797 85.3203 73.5764 84.7836 73.9337Z" fill="#264f68"/>
<path d="M67.6833 87.8945L71.8312 85.1357C72.3677 84.7786 72.3727 84.1959 71.8411 83.8354C71.3094 83.4732 70.4419 83.47 69.9054 83.8272L65.759 86.5859C65.2208 86.9431 65.2159 87.5257 65.7476 87.8878C66.2791 88.2483 67.1466 88.2516 67.6833 87.8945Z" fill="#264f68"/>
<path d="M90.5553 72.6836L101.775 65.2238C102.313 64.8667 102.318 64.2823 101.786 63.9218C101.254 63.5613 100.389 63.5581 99.8503 63.9153L88.6311 71.3766C88.0929 71.7338 88.0879 72.3149 88.6196 72.6769C89.1513 73.0391 90.0187 73.0424 90.5553 72.6836Z" fill="#264f68"/>
<path d="M107.839 58.6025L103.693 61.3613C103.154 61.7184 103.149 62.3011 103.681 62.6616C104.213 63.0238 105.08 63.027 105.617 62.6698L109.763 59.9111C110.301 59.5539 110.306 58.9713 109.775 58.6108C109.243 58.2487 108.376 58.2454 107.839 58.6025Z" fill="#264f68"/>
<path d="M71.974 90.8099L83.1932 83.3486C83.7315 82.9914 83.7364 82.4088 83.2047 82.0483C82.6731 81.6862 81.8056 81.6829 81.2674 82.04L70.0482 89.5014C69.5115 89.8586 69.5066 90.4413 70.0383 90.8018C70.5683 91.1639 71.4357 91.1672 71.974 90.8099Z" fill="#264f68"/>
<path d="M89.0738 76.8499L84.9275 79.6069C84.391 79.9658 84.386 80.5467 84.9176 80.9089C85.4477 81.271 86.3151 81.2744 86.8517 80.9155L90.9996 78.1585C91.5363 77.8012 91.5412 77.2185 91.0095 76.8564C90.4795 76.4959 89.6121 76.4926 89.0738 76.8499Z" fill="#264f68"/>
<path d="M112.128 61.5176L100.909 68.979C100.371 69.3361 100.366 69.9188 100.897 70.2793C101.429 70.6415 102.297 70.6447 102.835 70.2875L114.052 62.8262C114.591 62.469 114.595 61.8863 114.064 61.5259C113.534 61.1637 112.666 61.1604 112.128 61.5176Z" fill="#264f68"/>
<path d="M94.8464 75.5991L98.9927 72.8419C99.5292 72.4848 99.5342 71.9021 99.0026 71.54C98.4725 71.1796 97.6051 71.1762 97.0685 71.5334L92.9221 74.2921C92.3839 74.6493 92.3789 75.2303 92.9107 75.5924C93.4406 75.9546 94.3081 75.9578 94.8464 75.5991Z" fill="#264f68"/>
<path d="M93.3647 79.7654L82.1439 87.2268C81.6072 87.584 81.6023 88.1667 82.134 88.5272C82.6656 88.8893 83.5315 88.8926 84.0697 88.5338L95.2889 81.074C95.8254 80.7169 95.8304 80.1342 95.2988 79.7721C94.7687 79.4116 93.9013 79.4067 93.3647 79.7654Z" fill="#264f68"/>
<path d="M78.4846 89.6593L74.3383 92.4181C73.8 92.7752 73.7968 93.3563 74.3284 93.7184C74.8585 94.0806 75.7259 94.0838 76.2625 93.7251L80.4088 90.9679C80.9471 90.6108 80.952 90.0281 80.4203 89.666C79.8886 89.3055 79.0212 89.3022 78.4846 89.6593Z" fill="#264f68"/>
<path d="M57.8893 19.4087L69.1085 11.9489C69.6468 11.5901 69.6517 11.0074 69.12 10.6469C68.5883 10.2848 67.7226 10.2815 67.1843 10.6387L55.9651 18.1001C55.4269 18.4589 55.4219 19.0399 55.9536 19.4021C56.4836 19.7642 57.3511 19.7658 57.8893 19.4087Z" fill="#264f68"/>
<path d="M72.7682 9.51458L76.9162 6.75586C77.4528 6.39868 77.4578 5.81599 76.9261 5.45551C76.3944 5.09339 75.527 5.0901 74.9903 5.44728L70.844 8.206C70.3058 8.56318 70.3008 9.14586 70.8325 9.50634C71.3642 9.86847 72.23 9.87176 72.7682 9.51458Z" fill="#264f68"/>
<path d="M79.281 8.36329L68.0618 15.8246C67.5235 16.1819 67.5186 16.7646 68.0503 17.1267C68.582 17.4871 69.4494 17.4905 69.986 17.1332L81.2052 9.67187C81.7435 9.31469 81.7484 8.732 81.2167 8.37153C80.6851 8.00941 79.8176 8.00611 79.281 8.36329Z" fill="#264f68"/>
<path d="M62.1799 22.3237L66.3261 19.5667C66.8643 19.2078 66.8693 18.6267 66.3377 18.2646C65.806 17.9041 64.9385 17.9008 64.402 18.2581L60.2556 21.0151C59.7174 21.374 59.7124 21.9549 60.2441 22.3171C60.7757 22.6776 61.6432 22.6808 62.1799 22.3237Z" fill="#264f68"/>
<path d="M66.4703 25.2394L77.6895 17.7781C78.2277 17.4209 78.2327 16.8382 77.7011 16.4777C77.1694 16.1157 76.3019 16.1123 75.7654 16.4712L64.5462 23.9308C64.0079 24.2897 64.003 24.8708 64.5346 25.2329C65.0663 25.5934 65.9338 25.5967 66.4703 25.2394Z" fill="#264f68"/>
<path d="M83.571 11.2793L79.4247 14.038C78.8864 14.3953 78.8832 14.978 79.4148 15.3384C79.9449 15.7005 80.8123 15.7039 81.3489 15.3466L85.4953 12.588C86.0335 12.2307 86.0384 11.648 85.5067 11.2875C84.975 10.9254 84.1093 10.9221 83.571 11.2793Z" fill="#264f68"/>
<path d="M87.8611 14.1953L76.6419 21.6566C76.1036 22.0139 76.0987 22.5966 76.6304 22.9571C77.1621 23.3192 78.0294 23.3225 78.5677 22.9652L89.7869 15.5039C90.3235 15.1467 90.3285 14.564 89.7968 14.2035C89.2668 13.8415 88.3993 13.8381 87.8611 14.1953Z" fill="#264f68"/>
<path d="M70.7613 28.1563L74.9076 25.3992C75.4443 25.0404 75.4492 24.4594 74.9175 24.0972C74.3875 23.7351 73.52 23.7335 72.9834 24.0907L68.8372 26.8477C68.2989 27.205 68.294 27.7876 68.8256 28.1497C69.3557 28.5102 70.223 28.5135 70.7613 28.1563Z" fill="#264f68"/>
<path d="M75.0519 31.0714L86.2711 23.6101C86.8094 23.2529 86.8143 22.6702 86.2826 22.3098C85.751 21.9477 84.8836 21.9444 84.3469 22.3032L73.1277 29.7629C72.5895 30.1201 72.5845 30.7028 73.1162 31.0649C73.6479 31.4254 74.5153 31.4287 75.0519 31.0714Z" fill="#264f68"/>
<path d="M92.152 17.1113L88.0056 19.8701C87.4674 20.2272 87.4624 20.8099 87.9941 21.1704C88.5257 21.5325 89.3932 21.5358 89.9299 21.1787L94.0761 18.4199C94.6143 18.0628 94.6193 17.4801 94.0877 17.1196C93.556 16.7574 92.6885 16.7542 92.152 17.1113Z" fill="#264f68"/>
<path d="M96.4421 20.0273L85.2229 27.4887C84.6847 27.8459 84.6797 28.4286 85.2114 28.7891C85.743 29.1512 86.6105 29.1545 87.1471 28.7973L98.3663 21.3359C98.9046 20.9787 98.9095 20.3961 98.3778 20.0356C97.8479 19.6735 96.9804 19.6702 96.4421 20.0273Z" fill="#264f68"/>
<path d="M79.3414 33.988L83.4893 31.2309C84.026 30.8721 84.0309 30.2911 83.4992 29.929C82.9676 29.5668 82.1001 29.5636 81.5635 29.9223L77.4173 32.6795C76.879 33.0366 76.8741 33.6193 77.4057 33.9814C77.9374 34.3419 78.8049 34.3452 79.3414 33.988Z" fill="#264f68"/>
<path d="M83.633 36.9038L94.8522 29.4424C95.3904 29.0852 95.3954 28.5025 94.8637 28.142C94.3321 27.7799 93.4646 27.7766 92.9264 28.1339L81.7088 35.5952C81.1705 35.9524 81.1656 36.5351 81.6973 36.8971C82.2272 37.2576 83.0947 37.261 83.633 36.9038Z" fill="#264f68"/>
<path d="M100.733 22.9434L96.5867 25.7021C96.0501 26.0593 96.0452 26.642 96.5769 27.0024C97.1068 27.3645 97.9743 27.3678 98.511 27.0107L102.659 24.2519C103.195 23.8948 103.2 23.3121 102.669 22.9516C102.139 22.5894 101.271 22.5862 100.733 22.9434Z" fill="#264f68"/>
<path d="M105.024 25.8587L93.8045 33.32C93.2662 33.6772 93.2613 34.2599 93.7929 34.6203C94.3246 34.9824 95.1921 34.9858 95.7286 34.6286L106.948 27.1672C107.486 26.81 107.491 26.2273 106.959 25.8652C106.428 25.5047 105.56 25.5014 105.024 25.8587Z" fill="#264f68"/>
<path d="M87.9225 39.819L92.0689 37.062C92.6071 36.7031 92.6121 36.122 92.0804 35.76C91.5486 35.3979 90.6813 35.3946 90.1446 35.7534L85.9983 38.5105C85.4601 38.8676 85.4551 39.4503 85.9868 39.8125C86.5185 40.173 87.3859 40.1762 87.9225 39.819Z" fill="#264f68"/>
<path d="M92.213 42.7348L103.432 35.2734C103.971 34.9163 103.975 34.3336 103.444 33.9731C102.912 33.6109 102.045 33.6077 101.508 33.9649L90.2888 41.4262C89.7506 41.7834 89.7456 42.3661 90.2773 42.7283C90.8089 43.0887 91.6764 43.0919 92.213 42.7348Z" fill="#264f68"/>
<path d="M109.314 28.7746L105.167 31.5334C104.629 31.8905 104.626 32.4732 105.158 32.8337C105.688 33.1958 106.555 33.1991 107.092 32.8402L111.238 30.0832C111.776 29.7261 111.781 29.1434 111.249 28.7812C110.719 28.4207 109.852 28.4175 109.314 28.7746Z" fill="#264f68"/>
<path d="M113.604 31.6907L102.385 39.1521C101.846 39.5092 101.841 40.0919 102.373 40.4524C102.905 40.8145 103.772 40.8178 104.31 40.4606L115.53 32.9993C116.066 32.642 116.071 32.0593 115.539 31.6972C115.009 31.3368 114.142 31.3334 113.604 31.6907Z" fill="#264f68"/>
<path d="M96.5036 45.6511L100.65 42.8923C101.186 42.5352 101.191 41.9541 100.66 41.592C100.13 41.2299 99.2622 41.2266 98.7257 41.5855L94.5794 44.3425C94.0411 44.6996 94.0362 45.2823 94.5679 45.6445C95.0979 46.005 95.9653 46.0082 96.5036 45.6511Z" fill="#264f68"/>
<path d="M100.795 48.5666L112.015 41.1069C112.553 40.7481 112.558 40.1654 112.026 39.805C111.495 39.4427 110.627 39.4395 110.091 39.7983L98.8714 47.258C98.3331 47.6169 98.3282 48.1979 98.8598 48.5601C99.3915 48.9222 100.259 48.9238 100.795 48.5666Z" fill="#264f68"/>
<path d="M117.896 34.6065L113.749 37.3652C113.211 37.7224 113.206 38.3051 113.738 38.6656C114.27 39.0277 115.137 39.031 115.674 38.6737L119.82 35.9151C120.358 35.5578 120.363 34.9751 119.831 34.6147C119.3 34.2526 118.432 34.2493 117.896 34.6065Z" fill="#264f68"/>
<path d="M122.185 37.5227L110.966 44.9841C110.427 45.3412 110.422 45.9239 110.954 46.2844C111.486 46.6466 112.353 46.6498 112.891 46.2926L124.109 38.8313C124.647 38.4741 124.652 37.8914 124.121 37.5292C123.59 37.1687 122.723 37.1655 122.185 37.5227Z" fill="#264f68"/>
<path d="M105.085 51.4831L109.233 48.7245C109.77 48.3672 109.775 47.7845 109.243 47.424C108.711 47.0619 107.844 47.0586 107.307 47.4175L103.161 50.1745C102.623 50.5318 102.618 51.1145 103.149 51.4766C103.681 51.837 104.549 51.8404 105.085 51.4831Z" fill="#264f68"/>
<path d="M109.376 54.3988L120.595 46.9375C121.133 46.5803 121.138 45.9976 120.606 45.6371C120.075 45.2751 119.207 45.2717 118.669 45.6289L107.451 53.0902C106.913 53.4475 106.908 54.0302 107.44 54.3923C107.97 54.7528 108.837 54.7561 109.376 54.3988Z" fill="#264f68"/>
<path d="M126.475 40.4387L122.329 43.1958C121.793 43.5546 121.788 44.1356 122.319 44.4978C122.85 44.8599 123.718 44.8632 124.253 44.5044L128.401 41.7473C128.938 41.3901 128.943 40.8074 128.411 40.4453C127.882 40.0848 127.014 40.0815 126.475 40.4387Z" fill="#264f68"/>
<path d="M130.768 43.3536L119.548 50.815C119.01 51.1721 119.005 51.7548 119.537 52.1169C120.068 52.4773 120.936 52.4807 121.472 52.1235L132.691 44.6622C133.229 44.3049 133.234 43.7222 132.703 43.3617C132.171 42.9997 131.303 42.9963 130.768 43.3536Z" fill="#264f68"/>
<path d="M113.666 57.3146L117.813 54.5574C118.351 54.1987 118.356 53.6176 117.824 53.2555C117.292 52.8933 116.425 52.8917 115.888 53.2489L111.742 56.006C111.204 56.3631 111.199 56.9458 111.73 57.3079C112.262 57.6684 113.13 57.6717 113.666 57.3146Z" fill="#264f68"/>
<path d="M117.957 60.2298L129.177 52.7684C129.715 52.4111 129.72 51.8285 129.188 51.468C128.656 51.1059 127.789 51.1026 127.252 51.4614L116.033 58.9212C115.495 59.2783 115.49 59.861 116.021 60.2231C116.553 60.5836 117.421 60.5869 117.957 60.2298Z" fill="#264f68"/>
<path d="M135.057 46.2705L130.911 49.0293C130.372 49.3864 130.37 49.9691 130.901 50.3296C131.432 50.6917 132.298 50.695 132.835 50.3379L136.982 47.5791C137.52 47.222 137.525 46.6393 136.993 46.2788C136.464 45.9166 135.596 45.9134 135.057 46.2705Z" fill="#264f68"/>
<path d="M139.347 49.1857L128.128 56.6471C127.59 57.0043 127.585 57.587 128.117 57.9475C128.648 58.3096 129.514 58.3129 130.053 57.9541L141.272 50.4943C141.81 50.1371 141.815 49.5545 141.283 49.1924C140.751 48.8319 139.884 48.8286 139.347 49.1857Z" fill="#264f68"/>
<path d="M124.469 59.0793L120.323 61.838C119.785 62.1952 119.78 62.7762 120.312 63.1383C120.844 63.5005 121.711 63.5037 122.248 63.145L126.394 60.3878C126.932 60.0307 126.937 59.448 126.405 59.0859C125.874 58.7255 125.006 58.7221 124.469 59.0793Z" fill="#264f68"/>
<path d="M108.43 69.7442L97.2112 77.2055C96.6729 77.5627 96.668 78.1453 97.1997 78.5076C97.7314 78.868 98.5988 78.8712 99.1354 78.5141L110.355 71.0527C110.893 70.6956 110.898 70.1129 110.366 69.7524C109.835 69.3902 108.967 69.387 108.43 69.7442Z" fill="#264f68"/>
<path d="M116.419 64.4339L112.271 67.1909C111.735 67.5498 111.73 68.1307 112.261 68.4929C112.793 68.8534 113.66 68.8566 114.197 68.4995L118.343 65.7424C118.882 65.3836 118.887 64.8025 118.355 64.4404C117.823 64.0799 116.956 64.0766 116.419 64.4339Z" fill="#264f68"/>
<path d="M71.5166 97.9245C73.3897 99.1935 76.4497 99.2149 78.3409 97.9738L147.722 52.5341C148.583 51.9694 149.062 51.232 149.068 50.4552C149.075 49.6799 148.611 48.9375 147.764 48.3646L79.3021 1.90934C77.4323 0.641908 74.3724 0.622157 72.4778 1.85996L3.09677 47.2998C2.2359 47.8643 1.75692 48.6017 1.75033 49.3787C1.74375 50.1539 2.20793 50.8963 3.05397 51.4691L71.5166 97.9245ZM74.9748 99.7004C73.5526 99.7004 72.1305 99.335 71.0556 98.6059L2.59144 52.1505C1.51001 51.4164 0.9191 50.4305 0.927331 49.372C0.937207 48.3103 1.54623 47.331 2.64577 46.6116L72.0268 1.17193C74.1715 -0.237059 77.6447 -0.210722 79.7647 1.22789L148.227 47.6832C149.309 48.4174 149.9 49.4034 149.891 50.4617C149.881 51.5234 149.273 52.5027 148.173 53.2221L78.7919 98.6618C77.7336 99.3548 76.3541 99.7004 74.9748 99.7004Z" fill="#264f68"/>
</g>
<defs>
<clipPath id="clip0_116_3737">
<rect width="150.61" height="99.9952" fill="white" transform="translate(0.0678711 0.0371094)"/>
</clipPath>
</defs>
</svg>
