<svg width="151" height="101" viewBox="0 0 151 101" fill="none" xmlns="http://www.w3.org/2000/svg">
<g clip-path="url(#clip0_116_2901)">
<path d="M11.9064 50.4389L23.1256 42.9775C23.6638 42.6204 23.6687 42.0377 23.1372 41.6772C22.6055 41.315 21.7397 41.3118 21.2015 41.669L9.9822 49.1303C9.44395 49.4875 9.43901 50.0702 9.97067 50.4324C10.5023 50.7928 11.3698 50.796 11.9064 50.4389Z" fill="#264f68"/>
<path d="M29.0066 36.4778L24.8586 39.2365C24.3221 39.5937 24.3172 40.1747 24.8487 40.5368C25.3804 40.8989 26.2479 40.9022 26.7845 40.5434L30.9308 37.7863C31.469 37.4292 31.474 36.8465 30.9423 36.4843C30.4107 36.1238 29.5432 36.1206 29.0066 36.4778Z" fill="#264f68"/>
<path d="M52.0618 21.1456L40.8425 28.6069C40.3043 28.9641 40.2994 29.5468 40.8311 29.9089C41.3626 30.2693 42.2301 30.2727 42.7668 29.9155L53.986 22.4542C54.5242 22.0969 54.5292 21.5142 53.9975 21.1537C53.4658 20.7916 52.5984 20.7883 52.0618 21.1456Z" fill="#264f68"/>
<path d="M34.7781 35.227L38.9243 32.47C39.4625 32.1127 39.4675 31.53 38.9359 31.1679C38.4042 30.8075 37.5384 30.8041 37.0002 31.1614L32.8538 33.9184C32.3172 34.2773 32.3122 34.8583 32.844 35.2205C33.3739 35.5809 34.2414 35.5859 34.7781 35.227Z" fill="#264f68"/>
<path d="M33.2968 39.3935L22.0759 46.8549C21.5394 47.2122 21.5344 47.7948 22.066 48.1569C22.5977 48.5174 23.4635 48.5207 24.0017 48.1635L35.2209 40.7021C35.7592 40.345 35.7641 39.7623 35.2308 39.4018C34.7008 39.0397 33.8334 39.0364 33.2968 39.3935Z" fill="#264f68"/>
<path d="M16.1969 53.3542L20.3449 50.5954C20.8815 50.2383 20.8865 49.6556 20.3548 49.2951C19.8231 48.933 18.9557 48.9297 18.4191 49.2886L14.2727 52.0456C13.7345 52.4028 13.7295 52.9854 14.2612 53.3476C14.7929 53.7081 15.6603 53.7113 16.1969 53.3542Z" fill="#264f68"/>
<path d="M39.069 38.1425L50.2882 30.6828C50.8265 30.3256 50.8314 29.7413 50.2997 29.3809C49.768 29.0204 48.9006 29.017 48.364 29.3742L37.1448 36.8356C36.6065 37.1928 36.6016 37.7755 37.1333 38.136C37.6649 38.4981 38.5324 38.5014 39.069 38.1425Z" fill="#264f68"/>
<path d="M56.3512 24.0625L52.2048 26.8213C51.6666 27.1784 51.6617 27.7611 52.1934 28.1216C52.7249 28.4837 53.5924 28.487 54.1291 28.1298L58.2753 25.3711C58.8135 25.0139 58.8185 24.4313 58.2869 24.0708C57.7552 23.7086 56.8877 23.7054 56.3512 24.0625Z" fill="#264f68"/>
<path d="M20.4877 56.2699L31.7069 48.8085C32.2451 48.4514 32.2501 47.8687 31.7184 47.5082C31.1867 47.1462 30.3193 47.1428 29.781 47.5L18.5618 54.9613C18.0252 55.3186 18.0203 55.9013 18.552 56.2634C19.0819 56.6238 19.9494 56.6272 20.4877 56.2699Z" fill="#264f68"/>
<path d="M37.5876 42.3097L33.4412 45.0669C32.9046 45.4256 32.8997 46.0067 33.4314 46.3688C33.9613 46.731 34.8288 46.7342 35.3655 46.3755L39.5134 43.6183C40.0499 43.2612 40.0549 42.6785 39.5233 42.3164C38.9932 41.9559 38.1258 41.9526 37.5876 42.3097Z" fill="#264f68"/>
<path d="M60.6418 26.9776L49.4226 34.439C48.8844 34.7961 48.8794 35.3788 49.4111 35.7393C49.9427 36.1014 50.8102 36.1047 51.3485 35.7476L62.5661 28.2862C63.1043 27.9289 63.1092 27.3462 62.5775 26.9858C62.0476 26.6237 61.1801 26.6203 60.6418 26.9776Z" fill="#264f68"/>
<path d="M43.3594 41.059L47.5058 38.302C48.0424 37.9447 48.0474 37.3621 47.5157 37C46.9857 36.6395 46.1182 36.6362 45.5816 36.9934L41.4353 39.7521C40.8971 40.1093 40.8921 40.6903 41.4237 41.0525C41.9538 41.4146 42.8212 41.4179 43.3594 41.059Z" fill="#264f68"/>
<path d="M41.8784 45.2256L30.6575 52.6869C30.1209 53.0442 30.116 53.6269 30.6477 53.989C31.1794 54.3494 32.0451 54.3528 32.5834 53.9955L43.8026 46.5341C44.3392 46.177 44.3442 45.5943 43.8125 45.2338C43.2825 44.8717 42.415 44.8684 41.8784 45.2256Z" fill="#264f68"/>
<path d="M24.777 59.1855L28.9234 56.4267C29.4616 56.0696 29.4665 55.4869 28.9332 55.1264C28.4031 54.7643 27.5358 54.761 26.9991 55.1181L22.8528 57.8769C22.3146 58.234 22.3096 58.8167 22.8413 59.1772C23.373 59.5394 24.2404 59.5426 24.777 59.1855Z" fill="#264f68"/>
<path d="M47.649 43.9745L58.8682 36.5149C59.4064 36.156 59.4114 35.5733 58.8798 35.2129C58.3481 34.8524 57.4806 34.8491 56.9441 35.2063L45.7249 42.6677C45.1866 43.0248 45.1817 43.6059 45.7133 43.968C46.245 44.3301 47.1125 44.3334 47.649 43.9745Z" fill="#264f68"/>
<path d="M64.9324 29.8935L60.7845 32.6523C60.2479 33.0094 60.2429 33.5921 60.7746 33.9526C61.3063 34.3148 62.1737 34.318 62.7103 33.9609L66.8567 31.2021C67.3949 30.845 67.3999 30.2623 66.8681 29.9018C66.3364 29.5397 65.4691 29.5364 64.9324 29.8935Z" fill="#264f68"/>
<path d="M29.0676 62.101L40.2868 54.6396C40.825 54.2825 40.8299 53.6998 40.2982 53.3393C39.7667 52.9772 38.8992 52.9739 38.3625 53.331L27.1433 60.7924C26.6051 61.1497 26.6001 61.7323 27.1318 62.0928C27.6635 62.4549 28.5309 62.4582 29.0676 62.101Z" fill="#264f68"/>
<path d="M46.169 48.1419L42.0227 50.8989C41.4845 51.2578 41.4795 51.8387 42.0111 52.2009C42.5428 52.563 43.4103 52.5664 43.9468 52.2075L48.0932 49.4505C48.6314 49.0932 48.6364 48.5105 48.1047 48.1484C47.5731 47.7879 46.7056 47.7846 46.169 48.1419Z" fill="#264f68"/>
<path d="M69.2229 32.8098L58.0037 40.2712C57.4654 40.6283 57.4605 41.211 57.9921 41.5715C58.5238 41.9337 59.3913 41.9369 59.9278 41.5797L71.147 34.1184C71.6853 33.7612 71.6902 33.1785 71.1586 32.8163C70.6269 32.4559 69.7594 32.4527 69.2229 32.8098Z" fill="#264f68"/>
<path d="M51.9395 46.89L56.0875 44.133C56.6241 43.7759 56.629 43.1932 56.0973 42.831C55.5658 42.4705 54.6983 42.4673 54.1616 42.8244L50.0154 45.5815C49.4772 45.9403 49.4722 46.5214 50.0038 46.8835C50.5355 47.2456 51.403 47.2489 51.9395 46.89Z" fill="#264f68"/>
<path d="M50.4583 51.0566L39.239 58.518C38.7008 58.8752 38.6959 59.4579 39.2274 59.8184C39.7591 60.1805 40.6249 60.1838 41.1631 59.8266L52.3824 52.3652C52.9206 52.008 52.9255 51.4254 52.394 51.0649C51.8623 50.7028 50.9965 50.6995 50.4583 51.0566Z" fill="#264f68"/>
<path d="M33.3582 65.0175L37.5045 62.2588C38.0412 61.9016 38.0461 61.3189 37.5144 60.9584C36.9844 60.5963 36.1169 60.593 35.5803 60.9503L31.4323 63.7089C30.8958 64.0662 30.8909 64.6489 31.4225 65.0093C31.9526 65.3714 32.8199 65.3747 33.3582 65.0175Z" fill="#264f68"/>
<path d="M56.2305 49.8062L67.4497 42.3466C67.988 41.9877 67.9929 41.405 67.4613 41.0445C66.9296 40.6824 66.0622 40.6807 65.5239 41.038L54.3064 48.4976C53.7682 48.8565 53.7632 49.4376 54.2948 49.7997C54.8249 50.1617 55.6923 50.1651 56.2305 49.8062Z" fill="#264f68"/>
<path d="M73.5132 35.7248L69.367 38.4835C68.8304 38.8407 68.8254 39.4234 69.3571 39.7838C69.8871 40.146 70.7546 40.1492 71.2911 39.7905L75.4375 37.0333C75.9757 36.6762 75.9806 36.0935 75.4489 35.7314C74.919 35.371 74.0515 35.3676 73.5132 35.7248Z" fill="#264f68"/>
<path d="M37.6491 67.933L48.8683 60.4716C49.4066 60.1145 49.4115 59.5318 48.8798 59.1713C48.3481 58.8092 47.4807 58.8059 46.9441 59.1631L35.7249 66.6244C35.1866 66.9817 35.1817 67.5644 35.7134 67.9249C36.245 68.2869 37.1125 68.2903 37.6491 67.933Z" fill="#264f68"/>
<path d="M54.7493 53.9729L50.6014 56.7299C50.0647 57.0888 50.0598 57.6699 50.5915 58.0319C51.1232 58.394 51.9906 58.3958 52.5272 58.0385L56.6736 55.2815C57.2118 54.9243 57.2167 54.3416 56.685 53.9794C56.1533 53.6189 55.286 53.6157 54.7493 53.9729Z" fill="#264f68"/>
<path d="M77.8039 38.6418L66.5847 46.1032C66.0465 46.4603 66.0415 47.043 66.5732 47.4035C67.105 47.7657 67.9723 47.7689 68.509 47.4118L79.7282 39.9504C80.2664 39.5933 80.2713 39.0106 79.7396 38.6484C79.2081 38.2879 78.3406 38.2847 77.8039 38.6418Z" fill="#264f68"/>
<path d="M60.5212 52.7221L64.6675 49.965C65.2057 49.6078 65.2107 49.0252 64.679 48.6631C64.1473 48.3026 63.2799 48.2993 62.7433 48.6564L58.5969 51.4136C58.0587 51.7723 58.0538 52.3534 58.5855 52.7155C59.1172 53.0777 59.9845 53.0809 60.5212 52.7221Z" fill="#264f68"/>
<path d="M59.0395 56.8887L47.8187 64.3501C47.282 64.7073 47.2771 65.2899 47.8088 65.6504C48.3404 66.0125 49.2063 66.0158 49.7445 65.6587L60.9637 58.1973C61.502 57.8401 61.5069 57.2574 60.9752 56.8969C60.4435 56.5348 59.5761 56.5315 59.0395 56.8887Z" fill="#264f68"/>
<path d="M41.9395 70.8495L46.0875 68.0909C46.6241 67.7336 46.629 67.1509 46.0973 66.7904C45.5658 66.4284 44.6983 66.425 44.1616 66.7823L40.0154 69.5409C39.4772 69.8982 39.4722 70.4809 40.0038 70.8414C40.5355 71.2034 41.403 71.2068 41.9395 70.8495Z" fill="#264f68"/>
<path d="M64.8117 55.638L76.0309 48.1782C76.5691 47.8193 76.5741 47.2367 76.0424 46.8762C75.5108 46.5141 74.6449 46.5108 74.1067 46.8696L62.8875 54.3294C62.3492 54.6881 62.3443 55.2692 62.876 55.6313C63.4077 55.9935 64.2751 55.9967 64.8117 55.638Z" fill="#264f68"/>
<path d="M82.0948 41.5569L77.9485 44.3155C77.4103 44.6728 77.4053 45.2538 77.937 45.616C78.4687 45.9781 79.3361 45.9814 79.8727 45.6225L84.0191 42.8655C84.5573 42.5082 84.5623 41.9255 84.0305 41.5635C83.4988 41.203 82.6315 41.1996 82.0948 41.5569Z" fill="#264f68"/>
<path d="M46.2303 73.7653L57.4496 66.304C57.9878 65.9467 57.9927 65.364 57.461 65.0019C56.9295 64.6415 56.062 64.6381 55.5237 64.9954L44.3045 72.4568C43.7679 72.8139 43.7629 73.3966 44.2946 73.7571C44.8246 74.1191 45.6921 74.1225 46.2303 73.7653Z" fill="#264f68"/>
<path d="M63.3302 59.8049L59.1838 62.562C58.6473 62.9207 58.6424 63.5018 59.1739 63.8639C59.704 64.2244 60.5714 64.2277 61.108 63.8706L65.256 61.1134C65.7926 60.7547 65.7976 60.1736 65.2659 59.8115C64.7359 59.451 63.8684 59.4477 63.3302 59.8049Z" fill="#264f68"/>
<path d="M86.384 44.4728L75.1648 51.9342C74.6266 52.2915 74.6216 52.8741 75.1533 53.2346C75.685 53.5967 76.5524 53.6 77.0906 53.2428L88.3082 45.7814C88.8465 45.4243 88.8514 44.8416 88.3197 44.4795C87.7898 44.119 86.9223 44.1157 86.384 44.4728Z" fill="#264f68"/>
<path d="M69.1022 58.5542L73.2484 55.7971C73.7851 55.4399 73.79 54.8572 73.2583 54.4951C72.7283 54.1346 71.8609 54.1313 71.3243 54.4886L67.178 57.2456C66.6397 57.6044 66.6348 58.1854 67.1665 58.5476C67.6965 58.9097 68.564 58.9113 69.1022 58.5542Z" fill="#264f68"/>
<path d="M67.621 62.7209L56.4002 70.1823C55.8636 70.5394 55.8587 71.1221 56.3902 71.4826C56.9219 71.8448 57.7878 71.848 58.3261 71.4909L69.5453 64.0295C70.0818 63.6724 70.0867 63.0897 69.555 62.7275C69.0251 62.367 68.1576 62.3638 67.621 62.7209Z" fill="#264f68"/>
<path d="M50.5206 76.6806L54.6669 73.9219C55.2052 73.5647 55.2101 72.982 54.6784 72.6216C54.1468 72.2594 53.2793 72.2562 52.7427 72.6133L48.5965 75.372C48.0582 75.7292 48.0533 76.3119 48.5849 76.6724C49.1166 77.0344 49.9841 77.0378 50.5206 76.6806Z" fill="#264f68"/>
<path d="M73.3927 61.4699L84.612 54.0102C85.1502 53.6514 85.1551 53.0687 84.6234 52.7082C84.0917 52.3461 83.2244 52.3428 82.6877 52.7017L71.4685 60.1613C70.9303 60.5202 70.9253 61.1013 71.457 61.4633C71.9886 61.8254 72.8561 61.8272 73.3927 61.4699Z" fill="#264f68"/>
<path d="M90.675 47.3889L86.5271 50.146C85.9906 50.5048 85.9856 51.0858 86.5172 51.448C87.0489 51.8101 87.9164 51.8134 88.4529 51.4545L92.5993 48.6975C93.1375 48.3403 93.1424 47.7576 92.6107 47.3955C92.0792 47.035 91.2117 47.0317 90.675 47.3889Z" fill="#264f68"/>
<path d="M54.8112 79.5971L66.0304 72.1357C66.5687 71.7785 66.5736 71.1959 66.0419 70.8354C65.5103 70.4733 64.6428 70.47 64.1062 70.8271L52.887 78.2885C52.3487 78.6457 52.3438 79.2284 52.8755 79.5905C53.4072 79.951 54.2746 79.9543 54.8112 79.5971Z" fill="#264f68"/>
<path d="M71.9126 65.6369L67.7664 68.3956C67.2281 68.7528 67.2232 69.3339 67.7548 69.6959C68.2865 70.0582 69.154 70.0614 69.6905 69.7026L73.8368 66.9455C74.3751 66.5883 74.38 66.0056 73.8483 65.6435C73.3167 65.2831 72.4492 65.2797 71.9126 65.6369Z" fill="#264f68"/>
<path d="M94.9665 50.3047L83.7473 57.7661C83.2091 58.1232 83.2041 58.7059 83.7358 59.0681C84.2674 59.4286 85.1349 59.4318 85.6716 59.0746L96.8908 51.6133C97.429 51.2561 97.4339 50.6734 96.9022 50.313C96.3705 49.9508 95.5032 49.9476 94.9665 50.3047Z" fill="#264f68"/>
<path d="M77.6838 64.3879L81.8317 61.6291C82.3682 61.272 82.3732 60.6893 81.8416 60.3271C81.3099 59.9666 80.4424 59.9634 79.9059 60.3205L75.7595 63.0793C75.2213 63.4364 75.2164 64.0191 75.7481 64.3796C76.2796 64.7417 77.1471 64.745 77.6838 64.3879Z" fill="#264f68"/>
<path d="M76.2019 68.5526L64.9827 76.014C64.4444 76.3711 64.4395 76.9538 64.9712 77.3143C65.5028 77.6765 66.3687 77.6797 66.9069 77.3226L78.1261 69.8612C78.6644 69.5041 78.6693 68.9214 78.1376 68.5592C77.6059 68.1987 76.7401 68.1938 76.2019 68.5526Z" fill="#264f68"/>
<path d="M59.1024 82.5126L63.2486 79.7539C63.7853 79.3967 63.7902 78.814 63.2585 78.4535C62.7285 78.0915 61.861 78.0881 61.3245 78.4453L57.1766 81.204C56.6399 81.5612 56.635 82.1439 57.1667 82.5043C57.6967 82.8665 58.5642 82.8698 59.1024 82.5126Z" fill="#264f68"/>
<path d="M81.9742 67.3019L93.1934 59.8405C93.7316 59.4834 93.7366 58.9007 93.205 58.5402C92.6733 58.1782 91.8058 58.1748 91.2676 58.5337L80.0501 65.9933C79.5118 66.3522 79.5069 66.9333 80.0385 67.2954C80.5686 67.6558 81.4359 67.6592 81.9742 67.3019Z" fill="#264f68"/>
<path d="M99.256 53.22L95.1097 55.977C94.573 56.3358 94.5681 56.9169 95.0998 57.279C95.6298 57.6411 96.4973 57.6444 97.0339 57.2856L101.18 54.5285C101.718 54.1714 101.723 53.5887 101.192 53.2265C100.662 52.866 99.7943 52.8628 99.256 53.22Z" fill="#264f68"/>
<path d="M63.3913 85.4284L74.6105 77.967C75.1487 77.6099 75.1537 77.0272 74.622 76.665C74.0904 76.3045 73.2229 76.3013 72.6863 76.6584L61.4671 84.1198C60.9288 84.4769 60.9239 85.0596 61.4556 85.4201C61.9873 85.7823 62.8546 85.7855 63.3913 85.4284Z" fill="#264f68"/>
<path d="M80.493 71.4683L76.345 74.2253C75.8084 74.5824 75.8035 75.1651 76.3352 75.5273C76.8669 75.8878 77.7342 75.891 78.2709 75.5339L82.4172 72.7769C82.9555 72.418 82.9604 71.8369 82.4287 71.4748C81.897 71.1127 81.0296 71.1094 80.493 71.4683Z" fill="#264f68"/>
<path d="M103.547 56.136L92.3274 63.5974C91.7892 63.9545 91.7842 64.5372 92.3158 64.8977C92.8475 65.2598 93.715 65.2631 94.2515 64.9042L105.471 57.4446C106.009 57.0873 106.014 56.5046 105.482 56.1426C104.951 55.7821 104.083 55.7787 103.547 56.136Z" fill="#264f68"/>
<path d="M86.2637 70.2179L90.4101 67.4608C90.9483 67.102 90.9533 66.5209 90.4216 66.1588C89.89 65.7966 89.0225 65.795 88.4859 66.1522L84.3396 68.9093C83.8014 69.2665 83.7964 69.8492 84.328 70.2112C84.8597 70.5717 85.7272 70.575 86.2637 70.2179Z" fill="#264f68"/>
<path d="M84.7836 74.3839L73.5628 81.8452C73.0262 82.2024 73.0212 82.7851 73.5529 83.1471C74.0846 83.5076 74.9504 83.511 75.4886 83.1538L86.7079 75.6924C87.2461 75.3352 87.251 74.7525 86.7177 74.392C86.1878 74.0299 85.3203 74.0266 84.7836 74.3839Z" fill="#264f68"/>
<path d="M67.6833 88.3447L71.8312 85.5859C72.3677 85.2288 72.3727 84.6461 71.8411 84.2856C71.3094 83.9234 70.4419 83.9202 69.9054 84.2774L65.759 87.0361C65.2208 87.3933 65.2159 87.9759 65.7476 88.338C66.2791 88.6985 67.1466 88.7018 67.6833 88.3447Z" fill="#264f68"/>
<path d="M90.5553 73.1338L101.775 65.674C102.313 65.3169 102.318 64.7325 101.786 64.372C101.254 64.0115 100.389 64.0083 99.8503 64.3655L88.6311 71.8268C88.0929 72.184 88.0879 72.7651 88.6196 73.1271C89.1513 73.4893 90.0187 73.4925 90.5553 73.1338Z" fill="#264f68"/>
<path d="M107.839 59.0527L103.693 61.8115C103.154 62.1686 103.149 62.7513 103.681 63.1118C104.213 63.474 105.08 63.4772 105.617 63.12L109.763 60.3613C110.301 60.0041 110.306 59.4214 109.775 59.061C109.243 58.6989 108.376 58.6956 107.839 59.0527Z" fill="#264f68"/>
<path d="M71.974 91.2601L83.1932 83.7988C83.7315 83.4416 83.7364 82.8589 83.2047 82.4985C82.6731 82.1364 81.8056 82.1331 81.2674 82.4902L70.0482 89.9516C69.5115 90.3088 69.5066 90.8915 70.0383 91.252C70.5683 91.6141 71.4357 91.6174 71.974 91.2601Z" fill="#264f68"/>
<path d="M89.0738 77.3001L84.9275 80.0571C84.391 80.416 84.386 80.9969 84.9176 81.3591C85.4477 81.7212 86.3151 81.7246 86.8517 81.3657L90.9996 78.6087C91.5363 78.2514 91.5412 77.6687 91.0095 77.3066C90.4795 76.9461 89.6121 76.9428 89.0738 77.3001Z" fill="#264f68"/>
<path d="M112.128 61.9678L100.909 69.4292C100.371 69.7863 100.366 70.369 100.897 70.7295C101.429 71.0917 102.297 71.0949 102.835 70.7377L114.052 63.2764C114.591 62.9192 114.595 62.3365 114.064 61.9761C113.534 61.6139 112.666 61.6106 112.128 61.9678Z" fill="#264f68"/>
<path d="M94.8464 76.0493L98.9927 73.2921C99.5292 72.935 99.5342 72.3523 99.0026 71.9902C98.4725 71.6298 97.6051 71.6264 97.0685 71.9836L92.9221 74.7423C92.3839 75.0995 92.3789 75.6805 92.9107 76.0426C93.4406 76.4048 94.3081 76.408 94.8464 76.0493Z" fill="#264f68"/>
<path d="M93.3647 80.2156L82.1439 87.677C81.6072 88.0342 81.6023 88.6169 82.134 88.9774C82.6656 89.3395 83.5315 89.3428 84.0697 88.984L95.2889 81.5242C95.8254 81.1671 95.8304 80.5844 95.2988 80.2223C94.7687 79.8618 93.9013 79.8569 93.3647 80.2156Z" fill="#264f68"/>
<path d="M78.4846 90.1095L74.3383 92.8683C73.8 93.2254 73.7968 93.8065 74.3284 94.1686C74.8585 94.5308 75.7259 94.534 76.2625 94.1753L80.4088 91.4181C80.9471 91.061 80.952 90.4783 80.4203 90.1162C79.8886 89.7557 79.0212 89.7524 78.4846 90.1095Z" fill="#264f68"/>
<path d="M57.8893 19.8588L69.1085 12.3991C69.6468 12.0403 69.6517 11.4576 69.12 11.0971C68.5883 10.735 67.7226 10.7317 67.1843 11.0889L55.9651 18.5503C55.4269 18.9091 55.4219 19.4901 55.9536 19.8523C56.4836 20.2144 57.3511 20.216 57.8893 19.8588Z" fill="#264f68"/>
<path d="M72.7682 9.96477L76.9162 7.20605C77.4528 6.84887 77.4578 6.26618 76.9261 5.90571C76.3944 5.54359 75.527 5.54029 74.9903 5.89747L70.844 8.65619C70.3058 9.01337 70.3008 9.59606 70.8325 9.95654C71.3642 10.3187 72.23 10.322 72.7682 9.96477Z" fill="#264f68"/>
<path d="M79.281 8.81349L68.0618 16.2748C67.5235 16.6321 67.5186 17.2148 68.0503 17.5769C68.582 17.9373 69.4494 17.9407 69.986 17.5834L81.2052 10.1221C81.7435 9.76489 81.7484 9.1822 81.2167 8.82172C80.6851 8.4596 79.8176 8.45631 79.281 8.81349Z" fill="#264f68"/>
<path d="M62.1799 22.7739L66.3261 20.0169C66.8643 19.658 66.8693 19.0769 66.3377 18.7148C65.806 18.3543 64.9385 18.351 64.402 18.7083L60.2556 21.4653C59.7174 21.8242 59.7124 22.4051 60.2441 22.7673C60.7757 23.1278 61.6432 23.131 62.1799 22.7739Z" fill="#264f68"/>
<path d="M66.4703 25.6896L77.6895 18.2282C78.2277 17.8711 78.2327 17.2884 77.7011 16.9279C77.1694 16.5659 76.3019 16.5625 75.7654 16.9214L64.5462 24.381C64.0079 24.7399 64.003 25.321 64.5346 25.6831C65.0663 26.0435 65.9338 26.0469 66.4703 25.6896Z" fill="#264f68"/>
<path d="M83.571 11.7295L79.4247 14.4882C78.8864 14.8455 78.8832 15.4282 79.4148 15.7886C79.9449 16.1507 80.8123 16.154 81.3489 15.7968L85.4953 13.0381C86.0335 12.6809 86.0384 12.0982 85.5067 11.7377C84.975 11.3756 84.1093 11.3723 83.571 11.7295Z" fill="#264f68"/>
<path d="M87.8611 14.6455L76.6419 22.1068C76.1036 22.4641 76.0987 23.0468 76.6304 23.4073C77.1621 23.7694 78.0294 23.7727 78.5677 23.4154L89.7869 15.9541C90.3235 15.5969 90.3285 15.0142 89.7968 14.6537C89.2668 14.2917 88.3993 14.2883 87.8611 14.6455Z" fill="#264f68"/>
<path d="M70.7613 28.6065L74.9076 25.8494C75.4443 25.4906 75.4492 24.9096 74.9175 24.5474C74.3875 24.1853 73.52 24.1837 72.9834 24.5409L68.8372 27.2979C68.2989 27.6552 68.294 28.2378 68.8256 28.5999C69.3557 28.9604 70.223 28.9637 70.7613 28.6065Z" fill="#264f68"/>
<path d="M75.0519 31.5216L86.2711 24.0603C86.8094 23.7031 86.8143 23.1204 86.2826 22.76C85.751 22.3979 84.8836 22.3946 84.3469 22.7534L73.1277 30.2131C72.5895 30.5703 72.5845 31.153 73.1162 31.5151C73.6479 31.8756 74.5153 31.8789 75.0519 31.5216Z" fill="#264f68"/>
<path d="M92.152 17.5615L88.0056 20.3203C87.4674 20.6774 87.4624 21.2601 87.9941 21.6206C88.5257 21.9827 89.3932 21.986 89.9299 21.6289L94.0761 18.8701C94.6143 18.513 94.6193 17.9303 94.0877 17.5698C93.556 17.2076 92.6885 17.2044 92.152 17.5615Z" fill="#264f68"/>
<path d="M96.4421 20.4775L85.2229 27.9389C84.6847 28.2961 84.6797 28.8788 85.2114 29.2393C85.743 29.6014 86.6105 29.6047 87.1471 29.2475L98.3663 21.7861C98.9046 21.4289 98.9095 20.8463 98.3778 20.4858C97.8479 20.1237 96.9804 20.1204 96.4421 20.4775Z" fill="#264f68"/>
<path d="M79.3414 34.4382L83.4893 31.6811C84.026 31.3223 84.0309 30.7413 83.4992 30.3792C82.9676 30.017 82.1001 30.0138 81.5635 30.3725L77.4173 33.1297C76.879 33.4868 76.8741 34.0695 77.4057 34.4316C77.9374 34.792 78.8049 34.7954 79.3414 34.4382Z" fill="#264f68"/>
<path d="M83.633 37.354L94.8522 29.8926C95.3904 29.5354 95.3954 28.9527 94.8637 28.5922C94.3321 28.2301 93.4646 28.2268 92.9264 28.5841L81.7088 36.0454C81.1705 36.4026 81.1656 36.9853 81.6973 37.3473C82.2272 37.7078 83.0947 37.7111 83.633 37.354Z" fill="#264f68"/>
<path d="M100.733 23.3936L96.5867 26.1523C96.0501 26.5095 96.0452 27.0922 96.5769 27.4526C97.1068 27.8147 97.9743 27.818 98.511 27.4609L102.659 24.7021C103.195 24.345 103.2 23.7623 102.669 23.4018C102.139 23.0396 101.271 23.0364 100.733 23.3936Z" fill="#264f68"/>
<path d="M105.024 26.3089L93.8045 33.7702C93.2662 34.1274 93.2613 34.7101 93.7929 35.0705C94.3246 35.4326 95.1921 35.436 95.7286 35.0788L106.948 27.6174C107.486 27.2602 107.491 26.6775 106.959 26.3154C106.428 25.9549 105.56 25.9516 105.024 26.3089Z" fill="#264f68"/>
<path d="M87.9225 40.2692L92.0689 37.5122C92.6071 37.1533 92.6121 36.5722 92.0804 36.2102C91.5486 35.8481 90.6813 35.8448 90.1446 36.2036L85.9983 38.9606C85.4601 39.3178 85.4551 39.9005 85.9868 40.2627C86.5185 40.6232 87.3859 40.6264 87.9225 40.2692Z" fill="#264f68"/>
<path d="M92.213 43.185L103.432 35.7236C103.971 35.3665 103.975 34.7838 103.444 34.4233C102.912 34.0611 102.045 34.0579 101.508 34.4151L90.2888 41.8764C89.7506 42.2336 89.7456 42.8162 90.2773 43.1785C90.8089 43.5389 91.6764 43.5421 92.213 43.185Z" fill="#264f68"/>
<path d="M109.314 29.2248L105.167 31.9836C104.629 32.3407 104.626 32.9234 105.158 33.2839C105.688 33.646 106.555 33.6493 107.092 33.2904L111.238 30.5334C111.776 30.1763 111.781 29.5936 111.249 29.2314C110.719 28.8709 109.852 28.8677 109.314 29.2248Z" fill="#264f68"/>
<path d="M113.604 32.1409L102.385 39.6023C101.846 39.9594 101.841 40.5421 102.373 40.9026C102.905 41.2646 103.772 41.268 104.31 40.9108L115.53 33.4495C116.066 33.0922 116.071 32.5095 115.539 32.1474C115.009 31.787 114.142 31.7836 113.604 32.1409Z" fill="#264f68"/>
<path d="M96.5036 46.1013L100.65 43.3425C101.186 42.9854 101.191 42.4043 100.66 42.0422C100.13 41.6801 99.2622 41.6768 98.7257 42.0357L94.5794 44.7927C94.0411 45.1498 94.0362 45.7325 94.5679 46.0947C95.0979 46.4552 95.9653 46.4584 96.5036 46.1013Z" fill="#264f68"/>
<path d="M100.795 49.0168L112.015 41.5571C112.553 41.1983 112.558 40.6156 112.026 40.2551C111.495 39.8929 110.627 39.8897 110.091 40.2485L98.8714 47.7082C98.3331 48.0671 98.3282 48.6481 98.8598 49.0103C99.3915 49.3724 100.259 49.374 100.795 49.0168Z" fill="#264f68"/>
<path d="M117.896 35.0567L113.749 37.8153C113.211 38.1726 113.206 38.7553 113.738 39.1158C114.27 39.4779 115.137 39.4812 115.674 39.1239L119.82 36.3653C120.358 36.008 120.363 35.4253 119.831 35.0649C119.3 34.7028 118.432 34.6994 117.896 35.0567Z" fill="#264f68"/>
<path d="M122.185 37.9729L110.966 45.4342C110.427 45.7914 110.422 46.3741 110.954 46.7346C111.486 47.0968 112.353 47.1 112.891 46.7428L124.109 39.2815C124.647 38.9243 124.652 38.3416 124.121 37.9794C123.59 37.6189 122.723 37.6157 122.185 37.9729Z" fill="#264f68"/>
<path d="M105.085 51.9333L109.233 49.1747C109.77 48.8174 109.775 48.2347 109.243 47.8742C108.711 47.5121 107.844 47.5088 107.307 47.8677L103.161 50.6247C102.623 50.982 102.618 51.5647 103.149 51.9267C103.681 52.2872 104.549 52.2906 105.085 51.9333Z" fill="#264f68"/>
<path d="M109.376 54.849L120.595 47.3876C121.133 47.0305 121.138 46.4478 120.606 46.0873C120.075 45.7253 119.207 45.7219 118.669 46.0791L107.451 53.5404C106.913 53.8977 106.908 54.4804 107.44 54.8425C107.97 55.2029 108.837 55.2063 109.376 54.849Z" fill="#264f68"/>
<path d="M126.475 40.8889L122.329 43.646C121.793 44.0048 121.788 44.5858 122.319 44.948C122.85 45.3101 123.718 45.3134 124.253 44.9545L128.401 42.1975C128.938 41.8403 128.943 41.2576 128.411 40.8955C127.882 40.535 127.014 40.5317 126.475 40.8889Z" fill="#264f68"/>
<path d="M130.768 43.8038L119.548 51.2652C119.01 51.6223 119.005 52.205 119.537 52.5671C120.068 52.9275 120.936 52.9309 121.472 52.5737L132.691 45.1124C133.229 44.7551 133.234 44.1724 132.703 43.8119C132.171 43.4499 131.303 43.4465 130.768 43.8038Z" fill="#264f68"/>
<path d="M113.666 57.7648L117.813 55.0076C118.351 54.6489 118.356 54.0678 117.824 53.7057C117.292 53.3435 116.425 53.3419 115.888 53.699L111.742 56.4562C111.204 56.8133 111.199 57.396 111.73 57.7581C112.262 58.1186 113.13 58.1219 113.666 57.7648Z" fill="#264f68"/>
<path d="M117.957 60.68L129.177 53.2186C129.715 52.8613 129.72 52.2786 129.188 51.9182C128.656 51.5561 127.789 51.5528 127.252 51.9116L116.033 59.3714C115.495 59.7285 115.49 60.3112 116.021 60.6733C116.553 61.0338 117.421 61.0371 117.957 60.68Z" fill="#264f68"/>
<path d="M135.057 46.7207L130.911 49.4795C130.372 49.8366 130.37 50.4193 130.901 50.7798C131.432 51.1419 132.298 51.1452 132.835 50.7881L136.982 48.0293C137.52 47.6722 137.525 47.0895 136.993 46.729C136.464 46.3668 135.596 46.3636 135.057 46.7207Z" fill="#264f68"/>
<path d="M139.347 49.6359L128.128 57.0973C127.59 57.4545 127.585 58.0372 128.117 58.3977C128.648 58.7598 129.514 58.7631 130.053 58.4042L141.272 50.9445C141.81 50.5873 141.815 50.0047 141.283 49.6426C140.751 49.2821 139.884 49.2788 139.347 49.6359Z" fill="#264f68"/>
<path d="M124.469 59.5295L120.323 62.2882C119.785 62.6454 119.78 63.2264 120.312 63.5885C120.844 63.9507 121.711 63.9539 122.248 63.5952L126.394 60.838C126.932 60.4809 126.937 59.8982 126.405 59.5361C125.874 59.1757 125.006 59.1723 124.469 59.5295Z" fill="#264f68"/>
<path d="M108.43 70.1943L97.2112 77.6557C96.6729 78.0129 96.668 78.5955 97.1997 78.9577C97.7314 79.3182 98.5988 79.3214 99.1354 78.9643L110.355 71.5029C110.893 71.1458 110.898 70.5631 110.366 70.2026C109.835 69.8404 108.967 69.8372 108.43 70.1943Z" fill="#264f68"/>
<path d="M116.419 64.8841L112.271 67.6411C111.735 68 111.73 68.5809 112.261 68.9431C112.793 69.3036 113.66 69.3068 114.197 68.9497L118.343 66.1926C118.882 65.8338 118.887 65.2527 118.355 64.8906C117.823 64.5301 116.956 64.5268 116.419 64.8841Z" fill="#264f68"/>
<path d="M71.5166 98.3747C73.3897 99.6437 76.4497 99.6651 78.3409 98.424L147.722 52.9843C148.583 52.4196 149.062 51.6822 149.068 50.9054C149.075 50.1301 148.611 49.3877 147.764 48.8148L79.3021 2.35953C77.4323 1.0921 74.3724 1.07235 72.4778 2.31015L3.09677 47.75C2.2359 48.3145 1.75692 49.0519 1.75033 49.8289C1.74375 50.6041 2.20793 51.3465 3.05397 51.9193L71.5166 98.3747ZM74.9748 100.151C73.5526 100.151 72.1305 99.7852 71.0556 99.0561L2.59144 52.6007C1.51001 51.8665 0.9191 50.8807 0.927331 49.8222C0.937207 48.7605 1.54623 47.7812 2.64577 47.0618L72.0268 1.62212C74.1715 0.213136 77.6447 0.239473 79.7647 1.67809L148.227 48.1334C149.309 48.8676 149.9 49.8536 149.891 50.9119C149.881 51.9736 149.273 52.9529 148.173 53.6723L78.7919 99.112C77.7336 99.805 76.3541 100.151 74.9748 100.151Z" fill="#264f68"/>
</g>
<defs>
<clipPath id="clip0_116_2901">
<rect width="150.61" height="99.9952" fill="white" transform="translate(0.0678711 0.487305)"/>
</clipPath>
</defs>
</svg>
