<svg width="151" height="101" viewBox="0 0 151 101" fill="none" xmlns="http://www.w3.org/2000/svg">
<g clip-path="url(#clip0_116_3328)">
<path d="M69.6607 7.69678C67.3974 9.25885 67.5489 11.8875 69.9997 13.5599L71.9058 12.2431C70.5462 11.3147 70.4244 9.87939 71.6359 9.04322C72.8474 8.20869 74.9395 8.28276 76.2991 9.21111L78.2051 7.89595C75.7575 6.2236 71.924 6.13472 69.6607 7.69678Z" fill="#00C2A7"/>
<path d="M58.6343 15.3047C56.371 16.8668 56.5225 19.4955 58.9734 21.1679L60.8795 19.851C59.5199 18.9227 59.398 17.4873 60.6095 16.6512C61.821 15.8167 63.913 15.8907 65.2727 16.8191L67.1804 15.5022C64.7311 13.8316 60.8976 13.7443 58.6343 15.3047Z" fill="#00C2A7"/>
<path d="M47.608 22.9144C45.3446 24.4748 45.4961 27.1051 47.947 28.7758L49.8531 27.4606C48.4935 26.5306 48.3717 25.097 49.5832 24.2607C50.7946 23.4262 52.8868 23.4987 54.2479 24.427L56.154 23.1119C53.7065 21.4395 49.8712 21.3522 47.608 22.9144Z" fill="#00C2A7"/>
<path d="M36.5846 30.5207C34.3214 32.0828 34.4729 34.7131 36.9221 36.3838L38.8298 35.0687C37.4685 34.1403 37.3468 32.705 38.5598 31.8672C39.7714 31.0327 41.8634 31.1068 43.2231 32.0367L45.1292 30.7199C42.6815 29.0492 38.848 28.9603 36.5846 30.5207Z" fill="#00C2A7"/>
<path d="M25.5582 38.1299C23.2948 39.6904 23.4463 42.3206 25.8972 43.993L27.8033 42.6761C26.4437 41.7478 26.3219 40.3126 27.5334 39.4763C28.7448 38.6418 30.8368 38.7158 32.1965 39.6442L34.1042 38.3275C31.6549 36.6567 27.8198 36.5695 25.5582 38.1299Z" fill="#00C2A7"/>
<path d="M14.5325 45.7383C12.2692 47.3004 12.4206 49.9307 14.8699 51.6014L16.7776 50.2845C15.4164 49.3562 15.2945 47.9226 16.5077 47.0847C17.7191 46.2502 19.8128 46.3226 21.1724 47.2526L23.0785 45.9359C20.6292 44.2651 16.7941 44.1779 14.5325 45.7383Z" fill="#00C2A7"/>
<path d="M74.9155 13.0771L73.0094 14.3939C74.3691 15.3206 74.4908 16.756 73.281 17.5921C72.0696 18.4282 69.9759 18.3526 68.6146 17.4258L66.7085 18.7411C69.1578 20.4117 72.993 20.5006 75.2562 18.9402C77.5178 17.3764 77.3648 14.7494 74.9155 13.0771Z" fill="#00C2A7"/>
<path d="M63.8891 20.6865L61.9815 22.0016C63.3426 22.93 63.4645 24.3638 62.253 25.1999C61.0415 26.036 58.9495 25.9619 57.5882 25.0353L55.6821 26.3488C58.1314 28.0211 61.9666 28.11 64.2283 26.548C66.4915 24.9859 66.3384 22.3572 63.8891 20.6865Z" fill="#00C2A7"/>
<path d="M52.8633 28.2939L50.9555 29.6108C52.3167 30.5374 52.4386 31.9728 51.227 32.8089C50.0172 33.6434 47.9252 33.5694 46.5639 32.6427L44.6562 33.9563C47.1071 35.6285 50.9406 35.7174 53.2023 34.157C55.4656 32.595 55.3125 29.9646 52.8633 28.2939Z" fill="#00C2A7"/>
<path d="M41.8369 35.9033L39.9308 37.2184C41.2905 38.1452 41.414 39.5804 40.2008 40.4167C38.9894 41.2528 36.8973 41.1787 35.536 40.2504L33.6299 41.5655C36.0791 43.2363 39.9144 43.3252 42.1776 41.7648C44.4392 40.2026 44.2862 37.574 41.8369 35.9033Z" fill="#00C2A7"/>
<path d="M30.812 43.5117L28.9042 44.8286C30.2655 45.7553 30.3873 47.1889 29.1758 48.0251C27.9644 48.8613 25.8722 48.7873 24.5111 47.8605L22.605 49.174C25.0542 50.8464 28.8894 50.9353 31.151 49.3732C33.4143 47.8111 33.2613 45.1825 30.812 43.5117Z" fill="#00C2A7"/>
<path d="M19.7867 51.1201L17.8789 52.4354C19.2402 53.3637 19.362 54.7973 18.1489 55.6352L20.1257 56.9833C22.3891 55.4195 22.236 52.7909 19.7867 51.1201Z" fill="#00C2A7"/>
<path d="M80.8139 15.3026C78.5506 16.8646 78.7037 19.495 81.153 21.1657L83.0591 19.8488C81.6995 18.9205 81.5777 17.4852 82.7891 16.649C84.0006 15.8144 86.0926 15.8885 87.4523 16.8169L89.3584 15.5017C86.9107 13.8294 83.0772 13.7422 80.8139 15.3026Z" fill="#00C2A7"/>
<path d="M69.7898 22.911C67.5265 24.4731 67.6779 27.1033 70.1272 28.7741L72.0332 27.4573C70.6737 26.5289 70.5518 25.0953 71.765 24.2574C72.9764 23.4229 75.0669 23.497 76.4281 24.4253L78.3342 23.1102C75.8849 21.4378 72.053 21.3505 69.7898 22.911Z" fill="#00C2A7"/>
<path d="M58.7626 30.5206C56.4994 32.081 56.6525 34.7112 59.1017 36.382L61.0078 35.0668C59.6482 34.1384 59.5264 32.7032 60.7378 31.8669C61.9494 31.0324 64.0414 31.1049 65.401 32.0348L67.3087 30.7181C64.8595 29.0473 61.0259 28.9601 58.7626 30.5206Z" fill="#00C2A7"/>
<path d="M47.7385 38.1289C45.4753 39.6893 45.6266 42.3197 48.0759 43.992L49.9837 42.6752C48.6224 41.7469 48.5023 40.3115 49.7137 39.4754C50.9251 38.6409 53.0156 38.7149 54.3768 39.6433L56.2829 38.3264C53.8354 36.6558 50.0017 36.5685 47.7385 38.1289Z" fill="#00C2A7"/>
<path d="M36.7121 45.7363C34.4488 47.2984 34.6003 49.9287 37.0496 51.5994L38.9557 50.2827C37.596 49.3543 37.4743 47.9206 38.6873 47.0828C39.8988 46.2483 41.9892 46.3224 43.3505 47.2507L45.2566 45.9339C42.8073 44.2632 38.9737 44.1759 36.7121 45.7363Z" fill="#00C2A7"/>
<path d="M25.6862 53.3461C23.423 54.9065 23.5744 57.5369 26.0236 59.2076L27.9314 57.8924C26.5702 56.9625 26.45 55.5287 27.6615 54.6926C28.8746 53.8565 30.965 53.9305 32.3263 54.8589L34.2324 53.542C31.7831 51.8714 27.9495 51.7841 25.6862 53.3461Z" fill="#00C2A7"/>
<path d="M86.0693 20.6846L84.1616 22.0014C85.5228 22.9282 85.6446 24.3634 84.4332 25.1979C83.2234 26.0342 81.1297 25.9601 79.7684 25.0334L77.8623 26.3469C80.3116 28.0193 84.1468 28.1082 86.41 26.546C88.6717 24.984 88.5186 22.3554 86.0693 20.6846Z" fill="#00C2A7"/>
<path d="M75.0444 28.292L73.1367 29.6087C74.498 30.5355 74.6197 31.9708 73.4083 32.807C72.1969 33.6431 70.1048 33.5674 68.7435 32.6407L66.8374 33.9559C69.2867 35.6266 73.1203 35.7155 75.3835 34.155C77.6468 32.5913 77.4937 29.9627 75.0444 28.292Z" fill="#00C2A7"/>
<path d="M64.018 35.9023L62.1104 37.2175C63.4715 38.1458 63.5934 39.5796 62.382 40.4157C61.1721 41.2518 59.0784 41.1762 57.7187 40.2494L55.811 41.5647C58.2603 43.2353 62.0955 43.3242 64.3572 41.7638C66.6188 40.2018 66.4673 37.573 64.018 35.9023Z" fill="#00C2A7"/>
<path d="M52.9922 43.5098L51.0844 44.8265C52.4456 45.7532 52.5675 47.1869 51.356 48.0231C50.1445 48.8609 48.0524 48.7852 46.6912 47.8584L44.7852 49.172C47.2344 50.8443 51.0695 50.9332 53.3329 49.3712C55.5945 47.8091 55.4414 45.1804 52.9922 43.5098Z" fill="#00C2A7"/>
<path d="M41.9658 51.1182L40.0597 52.435C41.4193 53.3618 41.5411 54.797 40.3313 55.6333C39.1199 56.4694 37.0262 56.3937 35.6649 55.467L33.7588 56.7821C36.2081 58.4529 40.0433 58.5418 42.3065 56.9813C44.5681 55.4176 44.4151 52.7906 41.9658 51.1182Z" fill="#00C2A7"/>
<path d="M30.9419 58.7266L29.0342 60.0433C30.3953 60.97 30.5172 62.4054 29.304 63.2415L31.281 64.5896C33.5426 63.0259 33.3911 60.3972 30.9419 58.7266Z" fill="#00C2A7"/>
<path d="M91.9684 22.9108C89.705 24.4712 89.8565 27.1016 92.3073 28.774L94.2134 27.4571C92.8539 26.5288 92.732 25.0934 93.9436 24.2573C95.155 23.4227 97.2471 23.4968 98.6067 24.4252L100.514 23.1083C98.0651 21.4377 94.2316 21.3488 91.9684 22.9108Z" fill="#00C2A7"/>
<path d="M80.945 30.5186C78.6817 32.0807 78.8332 34.7094 81.2825 36.3817L83.1902 35.0649C81.8289 34.1365 81.7072 32.7012 82.9202 31.865C84.1317 31.0305 86.2237 31.1046 87.5834 32.0329L89.4895 30.7161C87.0402 29.0454 83.2066 28.9581 80.945 30.5186Z" fill="#00C2A7"/>
<path d="M69.9176 38.1283C67.6542 39.6887 67.8057 42.3189 70.2566 43.9897L72.1626 42.6745C70.8031 41.7445 70.6812 40.3109 71.8928 39.4746C73.1042 38.6401 75.1963 38.7126 76.5575 39.6409L78.4636 38.3258C76.0143 36.6534 72.1808 36.5661 69.9176 38.1283Z" fill="#00C2A7"/>
<path d="M58.8921 45.7352C56.6289 47.2973 56.7802 49.9276 59.2312 51.5983L61.1373 50.2831C59.7776 49.3531 59.6559 47.9195 60.8673 47.0817C62.0787 46.2471 64.1709 46.3212 65.5304 47.2512L67.4382 45.9344C64.9873 44.262 61.1553 44.1748 58.8921 45.7352Z" fill="#00C2A7"/>
<path d="M47.8663 53.3438C45.603 54.9042 45.7544 57.5345 48.2053 59.2068L50.1114 57.8901C48.7518 56.9617 48.63 55.5264 49.8415 54.6902C51.0529 53.8557 53.1451 53.9298 54.5046 54.8581L56.4123 53.5413C53.963 51.8706 50.1279 51.7833 47.8663 53.3438Z" fill="#00C2A7"/>
<path d="M36.8413 60.9522C34.5781 62.5142 34.7295 65.1446 37.1805 66.8153L39.0865 65.4984C37.7252 64.5701 37.6034 63.1348 38.8165 62.2986C40.0297 61.464 42.1217 61.5365 43.4814 62.4665L45.3875 61.1497C42.9382 59.4789 39.1046 59.3918 36.8413 60.9522Z" fill="#00C2A7"/>
<path d="M97.2246 28.291L95.3169 29.6079C96.6782 30.5345 96.7999 31.9699 95.5885 32.806C94.3787 33.6422 92.285 33.5664 90.9237 32.6398L89.0176 33.9549C91.4652 35.6256 95.3021 35.7145 97.5653 34.1541C99.8269 32.5904 99.6739 29.9634 97.2246 28.291Z" fill="#00C2A7"/>
<path d="M86.1982 35.9004L84.2921 37.2155C85.6517 38.1439 85.7736 39.5776 84.5621 40.4138C83.3506 41.2499 81.2586 41.1758 79.8973 40.2492L77.9912 41.5627C80.4405 43.2334 84.2757 43.3239 86.5373 41.7618C88.8006 40.1998 88.6475 37.5711 86.1982 35.9004Z" fill="#00C2A7"/>
<path d="M75.1733 43.5088L73.2656 44.8256C74.6269 45.7523 74.7486 47.1876 73.5372 48.0238C72.3258 48.8583 70.2337 48.7842 68.8724 47.8576L66.9663 49.1711C69.4156 50.8418 73.2492 50.9323 75.5124 49.3718C77.7741 47.8098 77.6226 45.1794 75.1733 43.5088Z" fill="#00C2A7"/>
<path d="M64.1474 51.1162L62.2398 52.4329C63.6009 53.3597 63.7228 54.795 62.5113 55.6312C61.2998 56.4673 59.2078 56.3932 57.8465 55.4649L55.9404 56.7801C58.3881 58.4508 62.2249 58.5397 64.4866 56.9793C66.7498 55.4172 66.5967 52.7885 64.1474 51.1162Z" fill="#00C2A7"/>
<path d="M53.1211 58.7266L51.2134 60.0433C52.5747 60.97 52.6964 62.4037 51.485 63.2399C50.2736 64.0761 48.1814 64.002 46.8201 63.0752L44.9141 64.3888C47.3633 66.0611 51.1986 66.15 53.4618 64.588C55.7234 63.0259 55.5703 60.3972 53.1211 58.7266Z" fill="#00C2A7"/>
<path d="M42.0955 66.334L40.1895 67.6491C41.549 68.5775 41.6709 70.0111 40.4594 70.849L42.4347 72.197C44.6979 70.6333 44.5448 68.0046 42.0955 66.334Z" fill="#00C2A7"/>
<path d="M103.124 30.5175C100.86 32.0795 101.012 34.7098 103.463 36.3805L105.369 35.0637C104.009 34.1353 103.887 32.7001 105.099 31.8638C106.31 31.0293 108.402 31.1034 109.762 32.0334L111.668 30.7166C109.22 29.0442 105.387 28.957 103.124 30.5175Z" fill="#00C2A7"/>
<path d="M92.0986 38.1252C89.8354 39.6873 89.9869 42.3176 92.4377 43.9883L94.3438 42.6732C92.9843 41.7431 92.8624 40.3095 94.0738 39.4716C95.2854 38.6371 97.3774 38.7111 98.7371 39.6412L100.645 38.3244C98.1955 36.6537 94.362 36.5648 92.0986 38.1252Z" fill="#00C2A7"/>
<path d="M81.0723 45.7354C78.8091 47.2958 78.9604 49.9262 81.4114 51.5985L83.3175 50.2817C81.9578 49.3533 81.8361 47.918 83.0475 47.0818C84.2589 46.2473 86.351 46.3214 87.7123 47.2497L89.6184 45.9329C87.1708 44.2622 83.3355 44.1749 81.0723 45.7354Z" fill="#00C2A7"/>
<path d="M70.0476 53.3428C67.7843 54.9032 67.9357 57.5336 70.385 59.206L72.2927 57.8891C70.9315 56.9608 70.8097 55.5254 72.0228 54.6893C73.2343 53.8547 75.3264 53.9288 76.6859 54.8572L78.592 53.5403C76.1444 51.8696 72.3108 51.7824 70.0476 53.3428Z" fill="#00C2A7"/>
<path d="M59.0215 60.9504C56.7583 62.5126 56.9096 65.1428 59.3606 66.8136L61.2667 65.4984C59.907 64.5684 59.7853 63.1348 60.9967 62.2969C62.2081 61.4624 64.3003 61.5364 65.6598 62.4648L67.5676 61.1497C65.1184 59.4789 61.2831 59.39 59.0215 60.9504Z" fill="#00C2A7"/>
<path d="M47.9964 68.5605C45.733 70.1209 45.8845 72.7512 48.3337 74.4235L50.2414 73.1067C48.8803 72.1783 48.7584 70.7431 49.9716 69.9068C51.183 69.0707 53.2767 69.1448 54.6363 70.0731L56.5424 68.7563C54.0931 67.0872 50.258 66.9983 47.9964 68.5605Z" fill="#00C2A7"/>
<path d="M108.38 35.8994L106.474 37.2163C107.833 38.1429 107.953 39.5766 106.744 40.4128C105.532 41.2489 103.44 41.1748 102.079 40.2482L100.173 41.5633C102.622 43.234 106.456 43.3229 108.719 41.7609C110.982 40.1988 110.829 37.5701 108.38 35.8994Z" fill="#00C2A7"/>
<path d="M97.3535 43.5088L95.4458 44.824C96.8071 45.7507 96.9272 47.186 95.7158 48.0221C94.506 48.8584 92.4139 48.7843 91.0526 47.856L89.1465 49.1711C91.5941 50.8418 95.4294 50.9306 97.6926 49.3702C99.9542 47.8066 99.8011 45.1778 97.3535 43.5088Z" fill="#00C2A7"/>
<path d="M86.3276 51.1172L84.4199 52.434C85.7811 53.3607 85.9013 54.7944 84.6898 55.6306C83.48 56.4667 81.3896 56.3926 80.0283 55.4643L78.1206 56.7795C80.5699 58.4502 84.4034 58.5391 86.6667 56.9786C88.9284 55.4166 88.7769 52.7878 86.3276 51.1172Z" fill="#00C2A7"/>
<path d="M75.3012 58.7246L73.3952 60.0415C74.7549 60.9682 74.8766 62.4018 73.6652 63.238C72.4537 64.0758 70.3616 64.0002 69.0003 63.0734L67.0942 64.3885C69.5435 66.0593 73.3771 66.1482 75.6404 64.5861C77.9036 63.024 77.7505 60.3954 75.3012 58.7246Z" fill="#00C2A7"/>
<path d="M64.2763 66.334L62.3685 67.6491C63.7298 68.5775 63.8517 70.0111 62.6401 70.8473C61.4287 71.6835 59.3366 71.6094 57.9754 70.6827L56.0693 71.9962C58.5169 73.667 62.3521 73.7558 64.6153 72.1954C66.877 70.6317 66.7239 68.0046 64.2763 66.334Z" fill="#00C2A7"/>
<path d="M53.251 73.9404L51.3433 75.2573C52.7044 76.1839 52.8247 77.6193 51.6131 78.4554L53.5883 79.8035C55.8517 78.2399 55.6986 75.6111 53.251 73.9404Z" fill="#00C2A7"/>
<path d="M114.278 38.1256C112.015 39.6861 112.168 42.3164 114.617 43.9871L116.525 42.672C115.164 41.7436 115.042 40.3082 116.254 39.4721C117.465 38.6376 119.557 38.7117 120.917 39.64L122.824 38.3232C120.377 36.6525 116.542 36.5636 114.278 38.1256Z" fill="#00C2A7"/>
<path d="M103.252 45.7335C100.989 47.2939 101.141 49.9241 103.592 51.5965L105.498 50.2797C104.136 49.3513 104.016 47.9161 105.228 47.0798C106.439 46.2453 108.531 46.3194 109.891 47.2477L111.799 45.931C109.349 44.2602 105.516 44.173 103.252 45.7335Z" fill="#00C2A7"/>
<path d="M92.226 53.3431C89.9628 54.9035 90.1158 57.5338 92.5651 59.2045L94.4728 57.8894C93.1115 56.9593 92.9898 55.5257 94.2012 54.6895C95.4126 53.855 97.5063 53.9273 98.866 54.8557L100.772 53.5406C98.3244 51.8682 94.4892 51.781 92.226 53.3431Z" fill="#00C2A7"/>
<path d="M81.2017 60.9485C78.9385 62.5105 79.0898 65.1409 81.5408 66.8115L83.4469 65.4964C82.0872 64.5663 81.9655 63.1327 83.1769 62.2948C84.3883 61.4603 86.4804 61.5344 87.84 62.4645L89.7478 61.1476C87.2985 59.4769 83.4649 59.3881 81.2017 60.9485Z" fill="#00C2A7"/>
<path d="M70.1763 68.5586C67.913 70.119 68.0645 72.7494 70.5154 74.4217L72.4215 73.1049C71.0602 72.1766 70.9384 70.7412 72.1515 69.9051C73.363 69.0706 75.455 69.1446 76.8147 70.073L78.7208 68.7561C76.2731 67.0855 72.4379 66.9982 70.1763 68.5586Z" fill="#00C2A7"/>
<path d="M59.1504 76.167C56.8872 77.729 57.0385 80.3594 59.4895 82.03L61.3956 80.7133C60.0359 79.785 59.9142 78.3496 61.1256 77.5135C62.3388 76.679 64.4308 76.7513 65.7905 77.6814L67.6982 76.3645C65.2473 74.6939 61.4136 74.6066 59.1504 76.167Z" fill="#00C2A7"/>
<path d="M119.534 43.5068L117.626 44.822C118.987 45.7503 119.107 47.1839 117.898 48.0202C116.686 48.8563 114.594 48.7823 113.233 47.8539L111.327 49.169C113.776 50.8398 117.61 50.9287 119.873 49.3683C122.136 47.8045 121.983 45.1775 119.534 43.5068Z" fill="#00C2A7"/>
<path d="M108.509 51.1152L106.601 52.4321C107.962 53.3588 108.082 54.7925 106.871 55.6286C105.661 56.4649 103.569 56.3908 102.208 55.464L100.302 56.7776C102.749 58.4499 106.585 58.5388 108.846 56.9767C111.109 55.4147 110.956 52.786 108.509 51.1152Z" fill="#00C2A7"/>
<path d="M97.4824 58.7227L95.5747 60.0394C96.936 60.9661 97.0561 62.4015 95.8447 63.2376C94.6349 64.0721 92.5428 63.9981 91.1832 63.0713L89.2754 64.3866C91.7247 66.0572 95.5583 66.1461 97.8215 64.5857C100.083 63.022 99.9317 60.3933 97.4824 58.7227Z" fill="#00C2A7"/>
<path d="M86.4565 66.332L84.5487 67.6489C85.91 68.5755 86.0319 70.0093 84.8203 70.8454C83.6089 71.6815 81.5168 71.6075 80.1556 70.6808L78.2495 71.9943C80.6988 73.665 84.5323 73.7539 86.7955 72.1935C89.0589 70.6314 88.9058 68.0027 86.4565 66.332Z" fill="#00C2A7"/>
<path d="M75.4302 73.9404L73.5241 75.2573C74.8838 76.184 75.0055 77.6177 73.7941 78.4538C72.5826 79.29 70.4905 79.216 69.1292 78.2892L67.2231 79.6044C69.6724 81.2751 73.506 81.364 75.7693 79.8019C78.0325 78.2399 77.8794 75.6112 75.4302 73.9404Z" fill="#00C2A7"/>
<path d="M64.4062 81.5479L62.4985 82.8647C63.8598 83.7915 63.9799 85.2251 62.7685 86.0612L64.7437 87.4093C67.007 85.8473 66.8539 83.2186 64.4062 81.5479Z" fill="#00C2A7"/>
<path d="M125.433 45.7331C123.17 47.2935 123.323 49.9238 125.773 51.5945L127.679 50.2778C126.319 49.3494 126.198 47.9157 127.409 47.0795C128.62 46.245 130.711 46.3175 132.071 47.2474L133.977 45.9306C131.531 44.2599 127.696 44.171 125.433 45.7331Z" fill="#00C2A7"/>
<path d="M114.409 53.3405C112.146 54.9009 112.298 57.5313 114.747 59.2019L116.653 57.8868C115.293 56.9569 115.172 55.5231 116.385 54.687C117.596 53.8524 119.686 53.9249 121.048 54.8532L122.954 53.538C120.506 51.8673 116.671 51.7785 114.409 53.3405Z" fill="#00C2A7"/>
<path d="M103.382 60.9493C101.119 62.5113 101.27 65.1399 103.721 66.8123L105.627 65.4955C104.267 64.5671 104.146 63.1319 105.357 62.2956C106.568 61.4611 108.661 61.5352 110.02 62.4635L111.928 61.1468C109.48 59.476 105.645 59.3889 103.382 60.9493Z" fill="#00C2A7"/>
<path d="M92.3567 68.5571C90.0934 70.1192 90.2448 72.7494 92.6941 74.4202L94.6002 73.1034C93.2406 72.175 93.1204 70.7414 94.3319 69.9035C95.5433 69.069 97.6337 69.1431 98.995 70.0714L100.901 68.7546C98.4534 67.0855 94.6199 66.9966 92.3567 68.5571Z" fill="#00C2A7"/>
<path d="M81.3307 76.1646C79.0675 77.7267 79.219 80.357 81.6682 82.0278L83.5759 80.7109C82.2146 79.7826 82.0945 78.3489 83.3059 77.5127C84.5175 76.6781 86.6095 76.7506 87.9692 77.679L89.8752 76.3638C87.4276 74.6931 83.5923 74.6059 81.3307 76.1646Z" fill="#00C2A7"/>
<path d="M70.3059 83.7747C68.0426 85.3351 68.194 87.9653 70.6433 89.6361L72.5494 88.3209C71.1898 87.3925 71.068 85.9573 72.2811 85.121C73.4942 84.2865 75.5847 84.359 76.9458 85.2873L78.8519 83.9705C76.4027 82.3014 72.5691 82.2142 70.3059 83.7747Z" fill="#00C2A7"/>
<path d="M130.688 51.1133L128.78 52.4284C130.142 53.3568 130.263 54.7904 129.052 55.6266C127.842 56.4628 125.748 56.3887 124.387 55.462L122.481 56.7755C124.93 58.4479 128.766 58.5368 131.028 56.9747C133.29 55.4126 133.137 52.7839 130.688 51.1133Z" fill="#00C2A7"/>
<path d="M79.8397 9.67871L77.9336 10.9955C80.3829 12.6646 84.2165 12.7535 86.4797 11.193L84.5045 9.8466C83.2931 10.6811 81.201 10.6054 79.8397 9.67871Z" fill="#00C2A7"/>
<path d="M90.995 17.2861L89.0889 18.6014C91.5381 20.272 95.3716 20.3609 97.6349 18.7989L95.6597 17.4524C94.4482 18.2869 92.3561 18.2129 90.995 17.2861Z" fill="#00C2A7"/>
<path d="M102.149 24.8926L100.241 26.2094C102.692 27.8785 106.526 27.9674 108.789 26.4069L106.812 25.0605C105.602 25.895 103.51 25.8193 102.149 24.8926Z" fill="#00C2A7"/>
<path d="M113.304 32.501L111.398 33.8161C113.847 35.4868 117.681 35.5756 119.942 34.0136L117.967 32.6671C116.757 33.5017 114.664 33.4276 113.304 32.501Z" fill="#00C2A7"/>
<path d="M124.46 40.1074L122.553 41.4243C125.003 43.0933 128.836 43.1822 131.098 41.6218L129.122 40.2753C127.912 41.1098 125.819 41.0342 124.46 40.1074Z" fill="#00C2A7"/>
<path d="M142.254 49.2281L140.278 47.8818C139.066 48.7163 136.975 48.6422 135.613 47.7139L133.707 49.0306C136.156 50.703 139.989 50.7903 142.254 49.2281Z" fill="#00C2A7"/>
<path d="M119.662 58.7207L117.756 60.0376C119.115 60.9642 119.237 62.3995 118.026 63.2357C116.814 64.0719 114.722 63.9961 113.361 63.0695L111.455 64.3846C113.904 66.0553 117.739 66.1442 120.001 64.5838C122.264 63.0201 122.113 60.3931 119.662 58.7207Z" fill="#00C2A7"/>
<path d="M108.637 66.3291L106.729 67.646C108.09 68.5726 108.212 70.0079 107 70.8441C105.789 71.6803 103.697 71.6045 102.336 70.6779L100.43 71.993C102.879 73.6637 106.714 73.7526 108.976 72.1921C111.237 70.6301 111.086 68.0015 108.637 66.3291Z" fill="#00C2A7"/>
<path d="M97.6103 73.9385L95.7027 75.2553C97.0639 76.1819 97.1857 77.6157 95.9742 78.4518C94.7628 79.2897 92.6707 79.2139 91.3094 78.2873L89.4033 79.6008C91.8526 81.2731 95.6878 81.3619 97.9511 79.7999C100.213 78.2379 100.06 75.6091 97.6103 73.9385Z" fill="#00C2A7"/>
<path d="M86.584 81.5469L84.6763 82.8636C86.0374 83.7903 86.1593 85.2257 84.9479 86.0618C83.7363 86.898 81.6443 86.8223 80.283 85.8956L78.377 87.2108C80.8262 88.8815 84.6615 88.9703 86.9247 87.4099C89.1863 85.8462 89.0348 83.2191 86.584 81.5469Z" fill="#00C2A7"/>
<path d="M75.5599 89.1543L73.6538 90.4712C75.0135 91.3978 75.1352 92.8331 73.9238 93.6693L75.899 95.0173C78.1622 93.4537 78.0109 90.8267 75.5599 89.1543Z" fill="#00C2A7"/>
<path d="M71.5166 98.3747C73.3897 99.6437 76.4497 99.6651 78.3409 98.424L147.722 52.9843C148.583 52.4196 149.062 51.6822 149.068 50.9054C149.075 50.1301 148.611 49.3877 147.764 48.8148L79.3021 2.35953C77.4323 1.0921 74.3724 1.07235 72.4778 2.31015L3.09677 47.75C2.2359 48.3145 1.75692 49.0519 1.75033 49.8289C1.74375 50.6041 2.20793 51.3465 3.05397 51.9193L71.5166 98.3747ZM74.9748 100.151C73.5526 100.151 72.1305 99.7852 71.0556 99.0561L2.59144 52.6007C1.51001 51.8665 0.9191 50.8807 0.927331 49.8222C0.937207 48.7605 1.54623 47.7812 2.64577 47.0618L72.0268 1.62212C74.1715 0.213136 77.6447 0.239473 79.7647 1.67809L148.227 48.1334C149.309 48.8676 149.9 49.8536 149.891 50.9119C149.881 51.9736 149.273 52.9529 148.173 53.6723L78.7919 99.112C77.7336 99.805 76.3541 100.151 74.9748 100.151Z" fill="#00C2A7"/>
</g>
<defs>
<clipPath id="clip0_116_3328">
<rect width="150.61" height="99.9952" fill="white" transform="translate(0.0678711 0.487305)"/>
</clipPath>
</defs>
</svg>
