<svg width="137" height="101" viewBox="0 0 137 101" fill="none" xmlns="http://www.w3.org/2000/svg">
<g clip-path="url(#clip0_113_2164)">
<path d="M132.747 36.3434L132.695 36.7359L132.662 36.8563L132.549 37.073L132.46 37.1879L132.229 37.4101L132.09 37.5193C118.218 45.5247 58.0497 81.306 44.1794 89.3115C42.8665 89.2986 41.5517 89.2855 40.2388 89.2726C26.3889 81.282 18.0963 76.9912 4.24641 69.0005L4.10752 68.8912L3.87604 68.669L3.78715 68.5543L3.67419 68.3376L3.64086 68.2172L3.589 67.8246V66.621V64.769V58.008L3.64086 57.6155L3.67419 57.4951L3.78715 57.2802L3.87604 57.1635L4.10752 56.9413L4.24641 56.8322C18.0963 48.8414 78.2402 13.0714 92.0901 5.07884C93.403 5.06588 94.7179 5.05477 96.0308 5.04181C109.901 13.0454 118.218 17.3454 132.09 25.3509L132.229 25.4602L132.46 25.6824L132.549 25.7991L132.662 26.0138L132.695 26.1342L132.747 26.5268V33.2879V35.1397V36.3434ZM132.695 44.1434L132.662 44.2636L132.549 44.4803L132.46 44.5952L132.229 44.8174L132.09 44.9267C118.218 52.9322 58.0497 88.7133 44.1794 96.7188C42.8665 96.7059 41.5517 96.6929 40.2388 96.6799C26.3889 88.6893 18.0963 84.3986 4.24641 76.4078L4.10752 76.2987L3.87604 76.0764L3.78715 75.9616L3.67419 75.7449L3.64086 75.6245L3.589 75.232V72.1005C16.9278 79.8004 24.7111 83.7949 38.0499 91.493C39.035 91.993 40.4832 92.5466 42.2424 92.5466C44.1054 92.5466 45.559 91.9281 46.435 91.493C49.4701 89.9911 110.64 53.7025 132.747 40.6323V43.7507L132.695 44.1434ZM135.74 26.3213C135.738 26.286 135.753 26.2546 135.747 26.2175L135.668 25.6435C135.662 25.6138 135.644 25.5916 135.64 25.5657C135.634 25.536 135.642 25.5082 135.636 25.4805L135.54 25.0991C135.525 25.038 135.484 24.9916 135.46 24.936C135.438 24.8787 135.438 24.8157 135.408 24.7602L135.155 24.2824C135.134 24.2471 135.101 24.2249 135.079 24.1916C135.058 24.1564 135.051 24.1176 135.029 24.086L134.792 23.7676C134.766 23.7342 134.729 23.7213 134.703 23.688C134.671 23.6546 134.66 23.612 134.629 23.5824L134.26 23.2324C134.242 23.212 134.216 23.2083 134.194 23.1916C134.175 23.1731 134.166 23.1509 134.147 23.1342L133.86 22.9102C133.83 22.888 133.794 22.8805 133.766 22.8638C133.734 22.8435 133.718 22.812 133.686 22.7935C111.868 9.89362 101.364 4.38255 98.2863 2.85849C97.4105 2.42516 95.9568 1.80664 94.0939 1.80664C92.3346 1.80664 90.8864 2.3585 89.9013 2.85849C76.2496 10.7381 16.3019 46.3952 2.65013 54.2747C2.6168 54.2933 2.60198 54.3247 2.57051 54.3451C2.54087 54.3618 2.50569 54.3691 2.47605 54.3913L2.18903 54.6155C2.17051 54.6322 2.16125 54.6544 2.14272 54.6729C2.1205 54.6895 2.09457 54.6933 2.07605 54.7136L1.70754 55.0636C1.67606 55.0933 1.66495 55.1358 1.63347 55.1691C1.60754 55.2024 1.57051 55.2155 1.54458 55.2488L1.3057 55.5673C1.28533 55.5988 1.27792 55.6377 1.25755 55.6729C1.23533 55.7062 1.202 55.7284 1.18163 55.7635L0.926073 56.2413C0.898295 56.2969 0.898294 56.3599 0.876072 56.4173C0.851998 56.4729 0.811258 56.5191 0.796445 56.5802L0.700145 56.9617C0.692738 56.9895 0.701999 57.0173 0.696443 57.0469C0.690888 57.0728 0.674223 57.0951 0.668667 57.1247L0.589039 57.6988C0.583484 57.7358 0.598295 57.7673 0.596443 57.8024C0.594591 57.8377 0.574219 57.8691 0.574219 57.9044V64.769V66.621V67.9301V75.3376C0.574219 75.3709 0.594591 75.4023 0.596443 75.4376C0.598295 75.4727 0.583484 75.5042 0.589039 75.5412L0.668667 76.1171C0.674223 76.1449 0.690888 76.1671 0.696443 76.1949C0.701999 76.2227 0.692738 76.2505 0.700145 76.2782L0.796445 76.6598C0.811258 76.7227 0.851998 76.7671 0.876072 76.8227C0.898294 76.882 0.898295 76.9431 0.926073 76.9987L1.18163 77.4764C1.202 77.5116 1.23533 77.5338 1.25755 77.5689C1.27792 77.6023 1.28533 77.6412 1.3057 77.6727L1.54458 77.9911C1.57051 78.0245 1.60754 78.0393 1.63347 78.0709C1.66495 78.1042 1.67606 78.1467 1.70754 78.1764L2.07605 78.5264C2.09457 78.5467 2.1205 78.5504 2.14272 78.5671C2.16125 78.5875 2.17051 78.6078 2.18903 78.6245L2.47605 78.8486C2.50569 78.8709 2.54087 78.8782 2.57051 78.8967C2.60198 78.9153 2.6168 78.9467 2.65013 78.9671C16.3019 86.8448 24.3981 91.0208 38.0499 98.9003C39.035 99.4003 40.4832 99.954 42.2424 99.954C44.1054 99.954 45.559 99.3354 46.435 98.9003C49.5127 97.3763 111.868 60.3839 133.686 47.4858C133.718 47.4656 133.734 47.434 133.766 47.4156C133.794 47.397 133.83 47.3896 133.86 47.3674L134.147 47.1433C134.166 47.1267 134.175 47.1063 134.194 47.0858C134.216 47.0692 134.242 47.0656 134.26 47.0452L134.629 46.6952C134.66 46.6656 134.671 46.6229 134.703 46.5896C134.729 46.5581 134.766 46.5434 134.792 46.51L135.029 46.1914C135.051 46.16 135.058 46.1211 135.079 46.0878C135.101 46.0525 135.134 46.0303 135.155 45.9952L135.408 45.5174C135.438 45.4618 135.438 45.4007 135.46 45.3414C135.484 45.2859 135.525 45.2414 135.54 45.1785L135.636 44.797C135.642 44.7692 135.634 44.7414 135.64 44.7136C135.644 44.6859 135.662 44.6636 135.668 44.6359L135.747 44.06C135.753 44.0229 135.738 43.9914 135.74 43.9563C135.742 43.9211 135.762 43.8896 135.762 43.8563V36.449V35.1397V33.2879V26.4231C135.762 26.388 135.742 26.3564 135.74 26.3213Z" fill="#264F68"/>
<path fill-rule="evenodd" clip-rule="evenodd" d="M23.6843 53.8691L23.1305 53.5469L21.4343 54.5506L20.051 53.7469L19.3732 54.1469L20.7546 54.9506L19.0583 55.9542L19.6102 56.2764L21.3083 55.2728L22.6917 56.0764L23.3694 55.6764L21.9879 54.8709L23.6843 53.8691Z" fill="#264F68"/>
<path fill-rule="evenodd" clip-rule="evenodd" d="M36.9599 61.5839L36.4062 61.2617L34.7099 62.2655L33.3266 61.4617L32.6488 61.8617L34.0302 62.6655L32.334 63.6691L32.8858 63.9913L34.584 62.9877L35.9673 63.7913L36.6451 63.3913L35.2635 62.5857L36.9599 61.5839Z" fill="#264F68"/>
<path fill-rule="evenodd" clip-rule="evenodd" d="M30.3265 57.7265L29.7729 57.4043L28.0747 58.408L26.6932 57.6043L26.0136 58.0043L27.3969 58.808L25.6987 59.8118L26.2525 60.134L27.9507 59.1303L29.332 59.934L30.0118 59.534L28.6284 58.7285L30.3265 57.7265Z" fill="#264F68"/>
<path fill-rule="evenodd" clip-rule="evenodd" d="M50.2354 69.2988L49.6836 68.9766L47.9854 69.9802L46.6021 69.1766L45.9243 69.5766L47.3059 70.3802L45.6096 71.3839L46.1632 71.7061L47.8596 70.7024L49.2429 71.5061L49.9207 71.1061L48.5392 70.3006L50.2354 69.2988Z" fill="#264F68"/>
<path fill-rule="evenodd" clip-rule="evenodd" d="M43.6021 65.4414L43.0485 65.1191L41.3503 66.1229L39.9688 65.3191L39.2892 65.7191L40.6725 66.5229L38.9744 67.5266L39.5281 67.8488L41.2263 66.8451L42.6077 67.6488L43.2874 67.2488L41.9041 66.4433L43.6021 65.4414Z" fill="#264F68"/>
<path fill-rule="evenodd" clip-rule="evenodd" d="M31.8348 49.0548L31.281 48.7344L29.5828 49.7363L28.2015 48.9344L27.5217 49.3344L28.9051 50.1381L27.207 51.1399L27.7606 51.4621L29.4588 50.4603L30.8421 51.2621L31.5199 50.8621L30.1366 50.0585L31.8348 49.0548Z" fill="#264F68"/>
<path fill-rule="evenodd" clip-rule="evenodd" d="M45.1104 56.7705L44.5567 56.4502L42.8604 57.452L41.4771 56.6502L40.7974 57.0502L42.1807 57.8538L40.4827 58.8557L41.0363 59.178L42.7345 58.176L44.1178 58.978L44.7955 58.578L43.4122 57.7742L45.1104 56.7705Z" fill="#264F68"/>
<path fill-rule="evenodd" clip-rule="evenodd" d="M38.4754 52.9132L37.9218 52.5928L36.2236 53.5946L34.8403 52.7928L34.1625 53.1928L35.5458 53.9965L33.8477 54.9983L34.4014 55.3205L36.0976 54.3187L37.481 55.1205L38.1607 54.7205L36.7774 53.9168L38.4754 52.9132Z" fill="#264F68"/>
<path fill-rule="evenodd" clip-rule="evenodd" d="M58.3863 64.4845L57.8325 64.1641L56.1363 65.1659L54.753 64.3641L54.0733 64.7641L55.4566 65.5678L53.7585 66.5696L54.3122 66.8918L56.0103 65.89L57.3937 66.6918L58.0714 66.2918L56.6881 65.4881L58.3863 64.4845Z" fill="#264F68"/>
<path fill-rule="evenodd" clip-rule="evenodd" d="M51.751 60.628L51.1974 60.3076L49.4992 61.3094L48.1159 60.5076L47.4381 60.9076L48.8215 61.7114L47.1233 62.7132L47.677 63.0354L49.3733 62.0336L50.7566 62.8354L51.4363 62.4354L50.053 61.6316L51.751 60.628Z" fill="#264F68"/>
<path fill-rule="evenodd" clip-rule="evenodd" d="M39.9837 44.2431L39.43 43.9209L37.7318 44.9246L36.3504 44.1209L35.6707 44.5209L37.054 45.3246L35.356 46.3284L35.9096 46.6506L37.6077 45.6469L38.9893 46.4506L39.6688 46.0506L38.2855 45.2451L39.9837 44.2431Z" fill="#264F68"/>
<path fill-rule="evenodd" clip-rule="evenodd" d="M53.2593 51.958L52.7056 51.6357L51.0074 52.6395L49.626 51.8357L48.9463 52.2357L50.3296 53.0395L48.6316 54.0432L49.1852 54.3654L50.8834 53.3617L52.2649 54.1654L52.9445 53.7654L51.5611 52.9599L53.2593 51.958Z" fill="#264F68"/>
<path fill-rule="evenodd" clip-rule="evenodd" d="M46.6223 48.1005L46.0685 47.7783L44.3723 48.7821L42.989 47.9783L42.3112 48.3783L43.6927 49.1821L41.9963 50.1857L42.5483 50.5079L44.2463 49.5043L45.6296 50.3079L46.3074 49.9079L44.926 49.1023L46.6223 48.1005Z" fill="#264F68"/>
<path fill-rule="evenodd" clip-rule="evenodd" d="M66.535 59.6718L65.9812 59.3496L64.283 60.3534L62.9017 59.5496L62.2219 59.9496L63.6053 60.7533L61.9072 61.7571L62.4608 62.0793L64.159 61.0756L65.5405 61.8793L66.2201 61.4793L64.8368 60.6738L66.535 59.6718Z" fill="#264F68"/>
<path fill-rule="evenodd" clip-rule="evenodd" d="M59.8982 55.8154L59.3462 55.4932L57.6482 56.4968L56.2648 55.6932L55.5871 56.0932L56.9685 56.8968L55.2722 57.9005L55.826 58.2227L57.5222 57.219L58.9055 58.0227L59.5833 57.6227L58.2018 56.8172L59.8982 55.8154Z" fill="#264F68"/>
<path fill-rule="evenodd" clip-rule="evenodd" d="M48.1324 39.4306L47.5786 39.1084L45.8805 40.1102L44.4971 39.3084L43.8194 39.7084L45.2027 40.512L43.5046 41.5139L44.0582 41.8362L45.7546 40.8342L47.1379 41.6362L47.8175 41.2362L46.4342 40.4324L48.1324 39.4306Z" fill="#264F68"/>
<path fill-rule="evenodd" clip-rule="evenodd" d="M61.4081 47.1455L60.8545 46.8232L59.1563 47.8252L57.773 47.0232L57.0952 47.4232L58.4786 48.227L56.7805 49.2288L57.3341 49.551L59.0304 48.5492L60.4138 49.351L61.0934 48.951L59.7101 48.1474L61.4081 47.1455Z" fill="#264F68"/>
<path fill-rule="evenodd" clip-rule="evenodd" d="M54.7676 43.288L54.2139 42.9658L52.5177 43.9676L51.1343 43.1658L50.4548 43.5658L51.8381 44.3696L50.1399 45.3714L50.6936 45.6936L52.3917 44.6918L53.775 45.4936L54.4528 45.0936L53.0695 44.2898L54.7676 43.288Z" fill="#264F68"/>
<path fill-rule="evenodd" clip-rule="evenodd" d="M74.6836 54.8585L74.13 54.5381L72.4319 55.5399L71.0485 54.7381L70.3708 55.1381L71.7541 55.9418L70.0559 56.9436L70.6096 57.2658L72.3059 56.264L73.6892 57.0658L74.3689 56.6658L72.9856 55.8621L74.6836 54.8585Z" fill="#264F68"/>
<path fill-rule="evenodd" clip-rule="evenodd" d="M68.0433 51.0029L67.4895 50.6807L65.7933 51.6825L64.41 50.8807L63.7304 51.2807L65.1137 52.0844L63.4155 53.0862L63.9693 53.4084L65.6673 52.4066L67.0506 53.2084L67.7284 52.8084L66.3451 52.0047L68.0433 51.0029Z" fill="#264F68"/>
<path fill-rule="evenodd" clip-rule="evenodd" d="M56.2793 34.6171L55.7255 34.2949L54.0293 35.2985L52.6459 34.4949L51.9682 34.8949L53.3497 35.7005L51.6533 36.7023L52.2053 37.0245L53.9033 36.0207L55.2866 36.8245L55.9644 36.4245L54.583 35.6207L56.2793 34.6171Z" fill="#264F68"/>
<path fill-rule="evenodd" clip-rule="evenodd" d="M69.5551 42.332L69.0014 42.0098L67.3052 43.0134L65.9218 42.2098L65.2441 42.6098L66.6256 43.4153L64.9292 44.4171L65.4829 44.7393L67.1792 43.7356L68.5625 44.5393L69.2403 44.1393L67.8589 43.3356L69.5551 42.332Z" fill="#264F68"/>
<path fill-rule="evenodd" clip-rule="evenodd" d="M62.9163 38.4746L62.3626 38.1523L60.6645 39.1561L59.283 38.3523L58.6034 38.7523L59.9868 39.5579L58.2886 40.5598L58.8423 40.882L60.5404 39.8783L61.9219 40.682L62.6015 40.282L61.2181 39.4783L62.9163 38.4746Z" fill="#264F68"/>
<path fill-rule="evenodd" clip-rule="evenodd" d="M82.8308 50.0468L82.279 49.7246L80.5808 50.7282L79.1975 49.9246L78.5197 50.3246L79.9012 51.1302L78.2048 52.1319L78.7586 52.4542L80.4548 51.4504L81.8381 52.2542L82.5159 51.8542L81.1345 51.0504L82.8308 50.0468Z" fill="#264F68"/>
<path fill-rule="evenodd" clip-rule="evenodd" d="M76.1922 46.1894L75.6384 45.8672L73.9403 46.8709L72.5589 46.0672L71.8792 46.4672L73.2625 47.2727L71.5645 48.2745L72.1181 48.5968L73.8162 47.5931L75.1978 48.3968L75.8773 47.9968L74.494 47.1931L76.1922 46.1894Z" fill="#264F68"/>
<path fill-rule="evenodd" clip-rule="evenodd" d="M64.43 29.8046L63.8764 29.4824L62.18 30.4842L60.7967 29.6824L60.1171 30.0824L61.5004 30.8862L59.8022 31.8898L60.356 32.2102L62.0542 31.2084L63.4375 32.0102L64.1153 31.6102L62.7319 30.8064L64.43 29.8046Z" fill="#264F68"/>
<path fill-rule="evenodd" clip-rule="evenodd" d="M77.7056 37.5195L77.152 37.1973L75.4556 38.1991L74.0723 37.3973L73.3927 37.7973L74.7761 38.601L73.0779 39.6046L73.6316 39.925L75.3298 38.9232L76.7131 39.725L77.3909 39.325L76.0076 38.5213L77.7056 37.5195Z" fill="#264F68"/>
<path fill-rule="evenodd" clip-rule="evenodd" d="M71.0652 33.6621L70.5115 33.3398L68.8133 34.3416L67.43 33.5398L66.7522 33.9398L68.1355 34.7434L66.4375 35.7472L66.9911 36.0675L68.6875 35.0657L70.0708 35.8675L70.7504 35.4676L69.3671 34.6639L71.0652 33.6621Z" fill="#264F68"/>
<path fill-rule="evenodd" clip-rule="evenodd" d="M90.9815 45.2343L90.4279 44.9121L88.7315 45.9139L87.3482 45.1121L86.6686 45.5121L88.0519 46.3157L86.3538 47.3194L86.9075 47.6399L88.6057 46.6379L89.989 47.4399L90.6668 47.0399L89.2835 46.2361L90.9815 45.2343Z" fill="#264F68"/>
<path fill-rule="evenodd" clip-rule="evenodd" d="M84.3409 41.3769L83.7871 41.0547L82.089 42.0566L80.7056 41.2547L80.0279 41.6547L81.4112 42.4584L79.7131 43.4622L80.2667 43.7824L81.9631 42.7806L83.3464 43.5824L84.026 43.1824L82.6427 42.3788L84.3409 41.3769Z" fill="#264F68"/>
<path fill-rule="evenodd" clip-rule="evenodd" d="M72.5787 24.9902L72.0251 24.668L70.3269 25.6717L68.9454 24.868L68.2658 25.268L69.6491 26.0735L67.9509 27.0754L68.5047 27.3977L70.2029 26.3939L71.5842 27.1977L72.2639 26.7977L70.8806 25.9939L72.5787 24.9902Z" fill="#264F68"/>
<path fill-rule="evenodd" clip-rule="evenodd" d="M85.8545 32.705L85.3008 32.3828L83.6028 33.3866L82.2212 32.5828L81.5417 32.9828L82.925 33.7884L81.2268 34.7903L81.7806 35.1125L83.4786 34.1088L84.8601 34.9125L85.5397 34.5125L84.1564 33.7088L85.8545 32.705Z" fill="#264F68"/>
<path fill-rule="evenodd" clip-rule="evenodd" d="M79.212 28.8476L78.6584 28.5254L76.962 29.529L75.5787 28.7254L74.9009 29.1254L76.2824 29.9309L74.5862 30.9327L75.138 31.255L76.8362 30.2512L78.2195 31.055L78.8973 30.655L77.5157 29.8512L79.212 28.8476Z" fill="#264F68"/>
<path fill-rule="evenodd" clip-rule="evenodd" d="M99.1302 40.4199L98.5764 40.0977L96.8784 41.1014L95.4969 40.2977L94.8173 40.6977L96.2006 41.5032L94.5024 42.505L95.0562 42.8272L96.7542 41.8236L98.1358 42.6272L98.8153 42.2272L97.432 41.4236L99.1302 40.4199Z" fill="#264F68"/>
<path fill-rule="evenodd" clip-rule="evenodd" d="M92.4879 36.5625L91.9361 36.2402L90.2379 37.2438L88.8546 36.4402L88.1768 36.8402L89.5583 37.6458L87.8621 38.6476L88.4157 38.9698L90.112 37.9661L91.4954 38.7698L92.1731 38.3698L90.7916 37.5661L92.4879 36.5625Z" fill="#264F68"/>
<path fill-rule="evenodd" clip-rule="evenodd" d="M80.7276 20.1777L80.1738 19.8555L78.4758 20.8573L77.0925 20.0555L76.4147 20.4555L77.798 21.2591L76.0999 22.2628L76.6536 22.5832L78.3498 21.5813L79.7332 22.3832L80.4127 21.9832L79.0294 21.1795L80.7276 20.1777Z" fill="#264F68"/>
<path fill-rule="evenodd" clip-rule="evenodd" d="M94.0032 27.8925L93.4495 27.5703L91.7514 28.5722L90.3681 27.7703L89.6903 28.1703L91.0737 28.9741L89.3755 29.9778L89.9292 30.2981L91.6255 29.2963L93.0088 30.0981L93.6884 29.6981L92.305 28.8945L94.0032 27.8925Z" fill="#264F68"/>
<path fill-rule="evenodd" clip-rule="evenodd" d="M87.3626 24.0351L86.809 23.7129L85.1126 24.7147L83.7294 23.9129L83.0497 24.3129L84.433 25.1166L82.7349 26.1202L83.2886 26.4406L84.9868 25.4388L86.3701 26.2406L87.0479 25.8407L85.6646 25.0369L87.3626 24.0351Z" fill="#264F68"/>
<path fill-rule="evenodd" clip-rule="evenodd" d="M107.279 35.6074L106.725 35.2852L105.027 36.2871L103.644 35.4852L102.966 35.8852L104.35 36.6889L102.651 37.6926L103.205 38.0129L104.903 37.0111L106.285 37.8129L106.964 37.4129L105.581 36.6093L107.279 35.6074Z" fill="#264F68"/>
<path fill-rule="evenodd" clip-rule="evenodd" d="M100.638 31.75L100.085 31.4277L98.3885 32.4295L97.0052 31.6277L96.3256 32.0277L97.7089 32.8315L96.0107 33.8351L96.5645 34.1555L98.2627 33.1537L99.646 33.9555L100.324 33.5555L98.9404 32.7518L100.638 31.75Z" fill="#264F68"/>
<path fill-rule="evenodd" clip-rule="evenodd" d="M88.8747 15.3642L88.321 15.042L86.6247 16.0456L85.2414 15.2438L84.5636 15.642L85.945 16.4475L84.2488 17.4493L84.8006 17.7716L86.4988 16.7678L87.8821 17.5716L88.5599 17.1716L87.1783 16.3678L88.8747 15.3642Z" fill="#264F68"/>
<path fill-rule="evenodd" clip-rule="evenodd" d="M102.15 23.0791L101.598 22.7568L99.9004 23.7604L98.517 22.9586L97.8393 23.3568L99.2206 24.1624L97.5244 25.1642L98.0782 25.4864L99.7744 24.4827L101.158 25.2864L101.835 24.8864L100.454 24.0827L102.15 23.0791Z" fill="#264F68"/>
<path fill-rule="evenodd" clip-rule="evenodd" d="M95.5115 19.2216L94.9579 18.8994L93.2597 19.9032L91.8782 19.1014L91.1986 19.4994L92.582 20.305L90.8838 21.3069L91.4375 21.6291L93.1357 20.6254L94.5171 21.4291L95.1968 21.0291L93.8135 20.2254L95.5115 19.2216Z" fill="#264F68"/>
<path fill-rule="evenodd" clip-rule="evenodd" d="M115.426 30.7939L114.874 30.4717L113.176 31.4753L111.793 30.6735L111.115 31.0717L112.496 31.8772L110.8 32.879L111.354 33.2012L113.05 32.1975L114.433 33.0012L115.111 32.6012L113.73 31.7975L115.426 30.7939Z" fill="#264F68"/>
<path fill-rule="evenodd" clip-rule="evenodd" d="M108.787 26.9365L108.234 26.6143L106.535 27.618L105.154 26.8161L104.474 27.2143L105.858 28.0198L104.159 29.0216L104.713 29.3438L106.411 28.3402L107.793 29.1438L108.472 28.7438L107.089 27.9402L108.787 26.9365Z" fill="#264F68"/>
<path fill-rule="evenodd" clip-rule="evenodd" d="M97.0198 10.5517L96.4661 10.2295L94.7699 11.2313L93.3865 10.4295L92.7068 10.8295L94.0901 11.6332L92.3921 12.6369L92.9457 12.9572L94.6439 11.9554L96.0272 12.7572L96.705 12.3591L95.3216 11.5536L97.0198 10.5517Z" fill="#264F68"/>
<path fill-rule="evenodd" clip-rule="evenodd" d="M110.295 18.2666L109.742 17.9443L108.045 18.9461L106.662 18.1443L105.982 18.5443L107.366 19.3479L105.668 20.3517L106.221 20.6721L107.92 19.6702L109.303 20.4721L109.981 20.0739L108.597 19.2684L110.295 18.2666Z" fill="#264F68"/>
<path fill-rule="evenodd" clip-rule="evenodd" d="M103.66 14.4091L103.107 14.0869L101.408 15.0888L100.025 14.2869L99.3473 14.6869L100.731 15.4906L99.0325 16.4944L99.5862 16.8146L101.282 15.8128L102.666 16.6146L103.345 16.2166L101.962 15.411L103.66 14.4091Z" fill="#264F68"/>
<path fill-rule="evenodd" clip-rule="evenodd" d="M123.571 25.9814L123.018 25.6592L121.321 26.661L119.938 25.8592L119.258 26.2592L120.642 27.0628L118.944 28.0665L119.497 28.3869L121.195 27.385L122.579 28.1869L123.256 27.7887L121.873 26.9832L123.571 25.9814Z" fill="#264F68"/>
<path fill-rule="evenodd" clip-rule="evenodd" d="M116.936 22.124L116.382 21.8018L114.684 22.8037L113.301 22.0018L112.623 22.4018L114.007 23.2055L112.308 24.2092L112.862 24.5295L114.558 23.5277L115.942 24.3295L116.621 23.9315L115.238 23.1259L116.936 22.124Z" fill="#264F68"/>
<path fill-rule="evenodd" clip-rule="evenodd" d="M15.5372 58.6816L14.9834 58.3613L13.2853 59.3631L11.902 58.5613L11.2242 58.9613L12.6075 59.7649L10.9094 60.7669L11.4631 61.0891L13.1594 60.0871L14.5427 60.8891L15.2223 60.4891L13.839 59.6853L15.5372 58.6816Z" fill="#264F68"/>
<path fill-rule="evenodd" clip-rule="evenodd" d="M28.8128 66.3964L28.2591 66.0762L26.561 67.078L25.1777 66.2762L24.4999 66.6762L25.8832 67.4798L24.1851 68.4817L24.7388 68.8039L26.435 67.802L27.8184 68.6039L28.4979 68.2039L27.1146 67.4002L28.8128 66.3964Z" fill="#264F68"/>
<path fill-rule="evenodd" clip-rule="evenodd" d="M22.1778 62.5392L21.624 62.2188L19.9278 63.2207L18.5445 62.4187L17.8648 62.8187L19.2481 63.6225L17.55 64.6243L18.1037 64.9465L19.8018 63.9447L21.1852 64.7465L21.8629 64.3465L20.4796 63.5429L22.1778 62.5392Z" fill="#264F68"/>
<path fill-rule="evenodd" clip-rule="evenodd" d="M42.0887 74.1113L41.5349 73.791L39.8369 74.7928L38.4536 73.991L37.7758 74.3891L39.1591 75.1946L37.4609 76.1966L38.0147 76.5186L39.7109 75.5168L41.0942 76.3188L41.7738 75.9188L40.3905 75.115L42.0887 74.1113Z" fill="#264F68"/>
<path fill-rule="evenodd" clip-rule="evenodd" d="M35.4534 70.254L34.8998 69.9336L33.2034 70.9354L31.8203 70.1336L31.1405 70.5336L32.5239 71.3373L30.8257 72.3391L31.3794 72.6613L33.0776 71.6596L34.4609 72.4614L35.1387 72.0614L33.7554 71.2576L35.4534 70.254Z" fill="#264F68"/>
</g>
<defs>
<clipPath id="clip0_113_2164">
<rect width="136.11" height="99.9992" fill="white" transform="translate(0.574219 0.78125)"/>
</clipPath>
</defs>
</svg>
