<svg width="141" height="101" viewBox="0 0 141 101" fill="none" xmlns="http://www.w3.org/2000/svg">
<g clip-path="url(#clip0_113_2232)">
<path d="M137.719 42.4755L137.67 42.8333L137.64 42.9431L137.538 43.1405L137.457 43.2451L137.245 43.4476L137.119 43.5472C124.477 50.8431 69.6419 83.4526 57.0011 90.7485C55.8046 90.7366 54.6063 90.7248 53.4097 90.7131C40.7875 83.4306 16.3532 69.3941 3.73096 62.1118L3.60439 62.0122L3.39342 61.8097L3.31241 61.705L3.20947 61.5075L3.17909 61.3979L3.13182 61.0401V59.9431V58.2554V52.0937L3.17909 51.7358L3.20947 51.6262L3.31241 51.4304L3.39342 51.3241L3.60439 51.1216L3.73096 51.0219C16.3532 43.7396 71.1659 11.1402 83.7881 3.85618C84.9846 3.84435 86.1829 3.83423 87.3795 3.82242C100.02 11.1166 124.477 25.1616 137.119 32.4575L137.245 32.5569L137.457 32.7595L137.538 32.8658L137.64 33.0616L137.67 33.1713L137.719 33.5291V39.6908V41.3786V42.4755ZM137.67 49.584L137.64 49.6938L137.538 49.8912L137.457 49.9959L137.245 50.1984L137.119 50.2979C124.477 57.5938 69.6419 90.2033 57.0011 97.4992C55.8046 97.4874 54.6063 97.4755 53.4097 97.4638C40.7875 90.1814 16.3532 76.1449 3.73096 68.8625L3.60439 68.7629L3.39342 68.5604L3.31241 68.4558L3.20947 68.2584L3.17909 68.1486L3.13182 67.7908V64.937C15.2883 71.9544 39.2585 85.7209 51.4149 92.7365C52.3127 93.1922 53.6325 93.6969 55.2359 93.6969C56.9336 93.6969 58.2585 93.1332 59.0567 92.7365C61.8229 91.3678 117.571 58.2959 137.719 46.3842V49.2263L137.67 49.584ZM140.445 33.3417C140.444 33.3097 140.458 33.281 140.453 33.2473L140.379 32.724C140.374 32.6971 140.358 32.6768 140.354 32.6531C140.349 32.6262 140.356 32.6009 140.351 32.5756L140.263 32.2278C140.25 32.1722 140.212 32.13 140.191 32.0794C140.17 32.0271 140.17 31.9696 140.144 31.919L139.912 31.4836C139.893 31.4516 139.863 31.4313 139.843 31.4009C139.825 31.3689 139.817 31.3335 139.797 31.3047L139.582 31.0145C139.558 30.9841 139.524 30.9722 139.501 30.9418C139.472 30.9115 139.462 30.8727 139.432 30.8456L139.097 30.5267C139.081 30.5082 139.057 30.5048 139.036 30.4896C139.02 30.4727 139.011 30.4525 138.994 30.4373L138.732 30.233C138.706 30.2127 138.672 30.206 138.646 30.1909C138.617 30.1722 138.602 30.1436 138.574 30.1267C118.689 18.3702 92.24 3.2216 89.4351 1.83263C88.6369 1.43771 87.312 0.874023 85.6142 0.874023C84.0109 0.874023 82.6911 1.37696 81.7933 1.83263C69.3517 9.01374 14.7178 41.5102 2.27618 48.6913C2.2458 48.7081 2.2323 48.7368 2.20361 48.7555C2.1766 48.7706 2.14454 48.7774 2.11753 48.7976L1.85595 49.0018C1.83907 49.017 1.83063 49.0372 1.81374 49.0542C1.79349 49.0694 1.76986 49.0727 1.75299 49.0913L1.41714 49.4102C1.38845 49.4372 1.37832 49.4761 1.34963 49.5064C1.326 49.5368 1.29226 49.5486 1.26863 49.579L1.05092 49.8693C1.03236 49.8979 1.0256 49.9334 1.00704 49.9638C0.986787 49.9959 0.956409 50.0162 0.937844 50.0482L0.704943 50.4836C0.679627 50.5342 0.679626 50.5916 0.659374 50.644C0.637434 50.6946 0.600306 50.7368 0.586805 50.7925L0.499041 51.1402C0.492291 51.1655 0.500731 51.1908 0.495668 51.2178C0.490605 51.2414 0.475417 51.2617 0.470354 51.2886L0.397784 51.8118C0.392721 51.8456 0.406219 51.8743 0.404531 51.9063C0.402844 51.9383 0.384277 51.9671 0.384277 51.9991V58.2554V59.9431V61.1363V67.887C0.384277 67.9174 0.402844 67.9461 0.404531 67.9781C0.406219 68.0103 0.392721 68.0389 0.397784 68.0727L0.470354 68.5976C0.475417 68.6229 0.490605 68.6432 0.495668 68.6685C0.500731 68.6938 0.492291 68.7191 0.499041 68.7444L0.586805 69.092C0.600306 69.1495 0.637434 69.19 0.659374 69.2406C0.679626 69.2945 0.679627 69.3502 0.704943 69.4009L0.937844 69.8363C0.956409 69.8684 0.986787 69.8887 1.00704 69.9207C1.0256 69.9511 1.03236 69.9865 1.05092 70.0153L1.26863 70.3055C1.29226 70.3359 1.326 70.3494 1.34963 70.378C1.37832 70.4084 1.38845 70.4473 1.41714 70.4742L1.75299 70.7932C1.76986 70.8118 1.79349 70.8152 1.81374 70.8304C1.83063 70.8489 1.83907 70.8675 1.85595 70.8827L2.11753 71.0869C2.14454 71.1071 2.1766 71.1139 2.20361 71.1308C2.2323 71.1476 2.2458 71.1763 2.27618 71.195C14.7178 78.3744 38.9733 92.3062 51.4149 99.4874C52.3127 99.943 53.6325 100.448 55.2359 100.448C56.9336 100.448 58.2585 99.8839 59.0567 99.4874C61.8616 98.0983 118.689 64.3851 138.574 52.6303C138.602 52.6117 138.617 52.5831 138.646 52.5662C138.672 52.5493 138.706 52.5426 138.732 52.5224L138.994 52.3181C139.011 52.3029 139.02 52.2844 139.036 52.2658C139.057 52.2506 139.081 52.2472 139.097 52.2287L139.432 51.9097C139.462 51.8827 139.472 51.8439 139.501 51.8135C139.524 51.7848 139.558 51.7713 139.582 51.7409L139.797 51.4507C139.817 51.4219 139.825 51.3865 139.843 51.3561C139.863 51.3241 139.893 51.3038 139.912 51.2718L140.144 50.8364C140.17 50.7857 140.17 50.73 140.191 50.676C140.212 50.6254 140.25 50.5849 140.263 50.5275L140.351 50.1798C140.356 50.1545 140.349 50.1292 140.354 50.1039C140.358 50.0786 140.374 50.0583 140.379 50.033L140.453 49.5081C140.458 49.4744 140.444 49.4457 140.445 49.4137C140.448 49.3815 140.465 49.3529 140.465 49.3225V42.5717V41.3786V39.6908V33.4346C140.465 33.4025 140.448 33.3739 140.445 33.3417Z" fill="#264F68"/>
<path fill-rule="evenodd" clip-rule="evenodd" d="M28.1321 51.573L27.6275 51.2793L26.0799 52.1941L24.8208 51.4633L24.2015 51.8261L25.4622 52.5602L23.9146 53.4734L24.4192 53.767L25.9669 52.8523L27.2276 53.5848L27.8453 53.2202L26.5846 52.4877L28.1321 51.573Z" fill="#264F68"/>
<path fill-rule="evenodd" clip-rule="evenodd" d="M22.0803 48.0583L21.5757 47.7646L20.0281 48.6794L18.7674 47.9486L18.1497 48.3115L19.4087 49.0456L17.8628 49.9586L18.3675 50.2523L19.9133 49.3376L21.174 50.07L21.7934 49.7054L20.5327 48.9731L22.0803 48.0583Z" fill="#264F68"/>
<path fill-rule="evenodd" clip-rule="evenodd" d="M40.2312 58.6042L39.7267 58.3105L38.1807 59.2253L36.92 58.4946L36.3006 58.8574L37.5613 59.5915L36.0137 60.5046L36.5183 60.7983L38.066 59.8835L39.3267 60.616L39.9444 60.2515L38.6837 59.519L40.2312 58.6042Z" fill="#264F68"/>
<path fill-rule="evenodd" clip-rule="evenodd" d="M34.1792 55.0886L33.6745 54.7949L32.127 55.7097L30.8663 54.9788L30.2486 55.3417L31.5093 56.0759L29.9617 56.9889L30.4663 57.2825L32.0122 56.3679L33.2729 57.1003L33.8923 56.7357L32.6315 56.0033L34.1792 55.0886Z" fill="#264F68"/>
<path fill-rule="evenodd" clip-rule="evenodd" d="M52.3301 65.6355L51.8255 65.3418L50.2795 66.2566L49.0188 65.5258L48.3995 65.8886L49.6602 66.6228L48.1125 67.5359L48.6172 67.8295L50.1649 66.9148L51.4256 67.6473L52.0433 67.2827L50.7826 66.5502L52.3301 65.6355Z" fill="#264F68"/>
<path fill-rule="evenodd" clip-rule="evenodd" d="M46.2781 62.1198L45.7734 61.8262L44.2258 62.7408L42.9651 62.0101L42.3474 62.373L43.6081 63.1071L42.0605 64.0201L42.5651 64.3138L44.1111 63.399L45.3718 64.1315L45.9911 63.767L44.7304 63.0345L46.2781 62.1198Z" fill="#264F68"/>
<path fill-rule="evenodd" clip-rule="evenodd" d="M64.429 72.6657L63.9244 72.3721L62.3784 73.2868L61.1177 72.556L60.4984 72.9189L61.7591 73.653L60.2114 74.566L60.7161 74.8597L62.2637 73.945L63.5244 74.6774L64.1421 74.3129L62.8831 73.5805L64.429 72.6657Z" fill="#264F68"/>
<path fill-rule="evenodd" clip-rule="evenodd" d="M58.3772 69.1511L57.8725 68.8574L56.3249 69.7721L55.0642 69.0413L54.4465 69.4042L55.7072 70.1384L54.1597 71.0514L54.6642 71.345L56.2119 70.4303L57.4709 71.1628L58.0902 70.7982L56.8295 70.0657L58.3772 69.1511Z" fill="#264F68"/>
<path fill-rule="evenodd" clip-rule="evenodd" d="M35.5586 47.1872L35.0541 46.8936L33.5064 47.8065L32.2474 47.0758L31.628 47.4404L32.8887 48.1727L31.3411 49.0875L31.8457 49.3795L33.3934 48.4664L34.6523 49.1972L35.2718 48.8344L34.0111 48.1002L35.5586 47.1872Z" fill="#264F68"/>
<path fill-rule="evenodd" clip-rule="evenodd" d="M29.5051 43.6726L29.0005 43.3789L27.4545 44.2919L26.1938 43.5612L25.5761 43.9257L26.8352 44.6581L25.2893 45.5729L25.7922 45.8665L27.3398 44.9517L28.6005 45.6826L29.2182 45.3197L27.9592 44.5856L29.5051 43.6726Z" fill="#264F68"/>
<path fill-rule="evenodd" clip-rule="evenodd" d="M47.6575 54.2185L47.1529 53.9248L45.6053 54.8378L44.3462 54.1071L43.7269 54.4716L44.9876 55.204L43.4399 56.1188L43.9446 56.4108L45.4923 55.4976L46.7512 56.2285L47.3707 55.8656L46.1099 55.1315L47.6575 54.2185Z" fill="#264F68"/>
<path fill-rule="evenodd" clip-rule="evenodd" d="M41.6039 50.7028L41.0994 50.4092L39.5534 51.3222L38.2927 50.5914L37.675 50.956L38.9341 51.6885L37.3882 52.6031L37.8911 52.8951L39.4387 51.9821L40.6994 52.7129L41.3171 52.35L40.0581 51.6158L41.6039 50.7028Z" fill="#264F68"/>
<path fill-rule="evenodd" clip-rule="evenodd" d="M59.7566 61.2497L59.2521 60.9561L57.7044 61.8692L56.4454 61.1383L55.826 61.5029L57.0867 62.2354L55.5391 63.1501L56.0437 63.442L57.5914 62.529L58.8503 63.2597L59.4698 62.897L58.2091 62.1628L59.7566 61.2497Z" fill="#264F68"/>
<path fill-rule="evenodd" clip-rule="evenodd" d="M53.7028 57.7341L53.1999 57.4404L51.6523 58.3534L50.3916 57.6227L49.7739 57.9872L51.0329 58.7197L49.4871 59.6344L49.9916 59.9264L51.5376 59.0134L52.7983 59.7441L53.416 59.3812L52.1569 58.6471L53.7028 57.7341Z" fill="#264F68"/>
<path fill-rule="evenodd" clip-rule="evenodd" d="M71.8555 68.28L71.3508 67.9863L69.8033 68.8994L68.5442 68.1686L67.9249 68.5331L69.1856 69.2656L67.6379 70.1804L68.1426 70.4723L69.6901 69.5593L70.9492 70.29L71.5685 69.9273L70.3078 69.1931L71.8555 68.28Z" fill="#264F68"/>
<path fill-rule="evenodd" clip-rule="evenodd" d="M65.8019 64.7653L65.2991 64.4717L63.7514 65.3847L62.4907 64.654L61.873 65.0185L63.1321 65.751L61.5862 66.6656L62.0907 66.9576L63.6367 66.0446L64.8974 66.7754L65.5151 66.4125L64.2561 65.6783L65.8019 64.7653Z" fill="#264F68"/>
<path fill-rule="evenodd" clip-rule="evenodd" d="M42.9851 42.7998L42.4806 42.5078L40.9329 43.4209L39.6722 42.6901L39.0545 43.053L40.3152 43.7871L38.7676 44.7001L39.2722 44.9938L40.8181 44.0808L42.0788 44.8115L42.6983 44.447L41.4376 43.7146L42.9851 42.7998Z" fill="#264F68"/>
<path fill-rule="evenodd" clip-rule="evenodd" d="M36.9334 39.2852L36.4287 38.9932L34.881 39.9063L33.6221 39.1754L33.0026 39.5383L34.2633 40.2725L32.7158 41.1855L33.2204 41.4791L34.768 40.5661L36.0287 41.2969L36.6464 40.9323L35.3857 40.1999L36.9334 39.2852Z" fill="#264F68"/>
<path fill-rule="evenodd" clip-rule="evenodd" d="M55.084 49.8311L54.5793 49.5391L53.0318 50.4521L51.7711 49.7213L51.1534 50.0842L52.4141 50.8184L50.8665 51.7314L51.3711 52.025L52.917 51.112L54.1777 51.8428L54.797 51.4782L53.5363 50.7457L55.084 49.8311Z" fill="#264F68"/>
<path fill-rule="evenodd" clip-rule="evenodd" d="M49.0322 46.3153L48.5276 46.0234L46.9817 46.9364L45.721 46.2057L45.1015 46.5685L46.3622 47.3026L44.8147 48.2157L45.3192 48.5094L46.8669 47.5963L48.1276 48.3271L48.7453 47.9626L47.4846 47.2301L49.0322 46.3153Z" fill="#264F68"/>
<path fill-rule="evenodd" clip-rule="evenodd" d="M67.1831 56.8623L66.6784 56.5703L65.1309 57.4833L63.8702 56.7526L63.2525 57.1155L64.5132 57.8496L62.9656 58.7626L63.4702 59.0563L65.0161 58.1433L66.2768 58.874L66.8962 58.5095L65.6355 57.777L67.1831 56.8623Z" fill="#264F68"/>
<path fill-rule="evenodd" clip-rule="evenodd" d="M61.1311 53.3466L60.6264 53.0547L59.0806 53.9677L57.8199 53.237L57.2004 53.5997L58.4611 54.3339L56.9136 55.247L57.4181 55.5407L58.9658 54.6275L60.2265 55.3584L60.8442 54.9938L59.5835 54.2613L61.1311 53.3466Z" fill="#264F68"/>
<path fill-rule="evenodd" clip-rule="evenodd" d="M79.282 63.8926L78.7773 63.6006L77.2298 64.5136L75.9691 63.7829L75.3514 64.1457L76.6121 64.8799L75.0645 65.7929L75.5691 66.0866L77.1166 65.1736L78.3757 65.9043L78.995 65.5397L77.7343 64.8072L79.282 63.8926Z" fill="#264F68"/>
<path fill-rule="evenodd" clip-rule="evenodd" d="M73.2301 60.378L72.7256 60.0859L71.1796 60.9991L69.919 60.2682L69.2995 60.6311L70.5602 61.3652L69.0127 62.2782L69.5172 62.5719L71.0649 61.6589L72.3256 62.3896L72.9433 62.0251L71.6826 61.2927L73.2301 60.378Z" fill="#264F68"/>
<path fill-rule="evenodd" clip-rule="evenodd" d="M50.41 38.4148L49.9053 38.1211L48.3594 39.0359L47.0987 38.3034L46.481 38.6679L47.74 39.4004L46.1941 40.3152L46.697 40.6088L48.2446 39.6941L49.5053 40.4248L50.123 40.062L48.864 39.3279L50.41 38.4148Z" fill="#264F68"/>
<path fill-rule="evenodd" clip-rule="evenodd" d="M44.3599 34.8991L43.8552 34.6055L42.3076 35.5202L41.0486 34.7877L40.4292 35.1523L41.6899 35.8848L40.1423 36.7994L40.6469 37.0931L42.1945 36.1784L43.4536 36.9092L44.0729 36.5463L42.8122 35.8121L44.3599 34.8991Z" fill="#264F68"/>
<path fill-rule="evenodd" clip-rule="evenodd" d="M62.5089 45.446L62.0042 45.1523L60.4583 46.067L59.1976 45.3346L58.5799 45.6992L59.8388 46.4315L58.293 47.3463L58.7959 47.64L60.3435 46.7252L61.6042 47.456L62.2219 47.0931L60.9628 46.359L62.5089 45.446Z" fill="#264F68"/>
<path fill-rule="evenodd" clip-rule="evenodd" d="M56.4586 41.9304L55.9541 41.6367L54.4064 42.5515L53.1475 41.819L52.528 42.1835L53.7887 42.916L52.2412 43.8307L52.7457 44.1243L54.2934 43.2097L55.5525 43.9404L56.1718 43.5775L54.9111 42.8434L56.4586 41.9304Z" fill="#264F68"/>
<path fill-rule="evenodd" clip-rule="evenodd" d="M74.608 52.4763L74.105 52.1826L72.5574 53.0973L71.2967 52.3649L70.679 52.7294L71.938 53.4618L70.3921 54.3766L70.8967 54.6702L72.4426 53.7555L73.7033 54.4863L74.321 54.1234L73.062 53.3893L74.608 52.4763Z" fill="#264F68"/>
<path fill-rule="evenodd" clip-rule="evenodd" d="M68.5576 48.9616L68.0531 48.668L66.5054 49.5827L65.2464 48.8502L64.627 49.2148L65.8877 49.9473L64.3401 50.8621L64.8447 51.1557L66.3924 50.2409L67.6513 50.9717L68.2708 50.6089L67.0101 49.8747L68.5576 48.9616Z" fill="#264F68"/>
<path fill-rule="evenodd" clip-rule="evenodd" d="M86.7068 59.5075L86.2038 59.2139L84.6563 60.1286L83.3956 59.3961L82.7779 59.7607L84.0368 60.4932L82.491 61.4078L82.9956 61.7015L84.5415 60.7868L85.8022 61.5176L86.4199 61.1547L85.1608 60.4205L86.7068 59.5075Z" fill="#264F68"/>
<path fill-rule="evenodd" clip-rule="evenodd" d="M80.6565 55.9919L80.152 55.6982L78.6043 56.6129L77.3453 55.8805L76.7259 56.2451L77.9866 56.9774L76.439 57.8922L76.9436 58.1859L78.4913 57.2711L79.7502 58.0019L80.3697 57.639L79.109 56.9049L80.6565 55.9919Z" fill="#264F68"/>
<path fill-rule="evenodd" clip-rule="evenodd" d="M57.8333 34.0272L57.3286 33.7354L55.7811 34.6483L54.522 33.9176L53.9027 34.2822L55.1634 35.0145L53.6157 35.9277L54.1204 36.2213L55.6679 35.3082L56.9286 36.039L57.5463 35.6745L56.2856 34.942L57.8333 34.0272Z" fill="#264F68"/>
<path fill-rule="evenodd" clip-rule="evenodd" d="M51.7861 30.5117L51.2816 30.2197L49.7339 31.1327L48.4732 30.402L47.8556 30.7665L49.1146 31.499L47.5686 32.412L48.0733 32.7057L49.6191 31.7927L50.8798 32.5234L51.4993 32.1589L50.2386 31.4264L51.7861 30.5117Z" fill="#264F68"/>
<path fill-rule="evenodd" clip-rule="evenodd" d="M69.9321 41.0586L69.4275 40.7666L67.8816 41.6796L66.6209 40.9489L66.0014 41.3134L67.2621 42.0459L65.7146 42.9589L66.2191 43.2526L67.7668 42.3396L69.0275 43.0703L69.6452 42.7058L68.3845 41.9733L69.9321 41.0586Z" fill="#264F68"/>
<path fill-rule="evenodd" clip-rule="evenodd" d="M63.885 37.5429L63.3805 37.251L61.8328 38.164L60.5721 37.4332L59.9544 37.7978L61.2151 38.5302L59.6675 39.4433L60.1721 39.7369L61.718 38.8238L62.9787 39.5547L63.5982 39.1901L62.3375 38.4576L63.885 37.5429Z" fill="#264F68"/>
<path fill-rule="evenodd" clip-rule="evenodd" d="M82.031 48.0899L81.5263 47.7979L79.9805 48.711L78.7198 47.9801L78.1003 48.343L79.361 49.0772L77.8135 49.9902L78.318 50.2838L79.8657 49.3708L81.1264 50.1015L81.7441 49.737L80.4834 49.0046L82.031 48.0899Z" fill="#264F68"/>
<path fill-rule="evenodd" clip-rule="evenodd" d="M75.9841 44.5742L75.4796 44.2822L73.9319 45.1952L72.6712 44.4645L72.0536 44.8274L73.3143 45.5615L71.7666 46.4745L72.2713 46.7682L73.8171 45.8552L75.0778 46.5859L75.6973 46.2214L74.4366 45.4889L75.9841 44.5742Z" fill="#264F68"/>
<path fill-rule="evenodd" clip-rule="evenodd" d="M94.1301 55.1201L93.6255 54.8281L92.0796 55.7412L90.8189 55.0104L90.1994 55.3733L91.4601 56.1074L89.9126 57.0204L90.4171 57.3141L91.9648 56.4011L93.2255 57.1318L93.8432 56.7673L92.5841 56.0349L94.1301 55.1201Z" fill="#264F68"/>
<path fill-rule="evenodd" clip-rule="evenodd" d="M88.083 51.6044L87.5785 51.3125L86.0308 52.2255L84.7701 51.4948L84.1524 51.8575L85.4131 52.5917L83.8655 53.5048L84.3701 53.7985L85.9178 52.8853L87.1767 53.6162L87.7962 53.2517L86.5355 52.5192L88.083 51.6044Z" fill="#264F68"/>
<path fill-rule="evenodd" clip-rule="evenodd" d="M65.2598 29.6423L64.7551 29.3486L63.2075 30.2633L61.9485 29.5309L61.3291 29.8954L62.5898 30.6278L61.0422 31.5426L61.5468 31.8362L63.0944 30.9215L64.3535 31.654L64.9728 31.2894L63.7121 30.5553L65.2598 29.6423Z" fill="#264F68"/>
<path fill-rule="evenodd" clip-rule="evenodd" d="M59.211 26.1267L58.7063 25.833L57.1605 26.7478L55.8998 26.0153L55.2821 26.3798L56.5411 27.1123L54.9951 28.0271L55.4981 28.3207L57.0457 27.406L58.3064 28.1385L58.9241 27.7739L57.6651 27.0398L59.211 26.1267Z" fill="#264F68"/>
<path fill-rule="evenodd" clip-rule="evenodd" d="M77.3586 36.6726L76.854 36.3789L75.3063 37.2935L74.0474 36.5612L73.4279 36.9257L74.6886 37.6581L73.1411 38.5729L73.6456 38.8665L75.1933 37.9517L76.4524 38.6842L77.0717 38.3197L75.811 37.5856L77.3586 36.6726Z" fill="#264F68"/>
<path fill-rule="evenodd" clip-rule="evenodd" d="M71.3099 33.1569L70.8052 32.8633L69.2593 33.7781L67.9986 33.0456L67.3809 33.4101L68.64 34.1426L67.094 35.0574L67.597 35.351L69.1445 34.4362L70.4052 35.1687L71.0229 34.8042L69.764 34.0701L71.3099 33.1569Z" fill="#264F68"/>
<path fill-rule="evenodd" clip-rule="evenodd" d="M89.4575 43.7038L88.9529 43.4102L87.4052 44.3248L86.1463 43.5924L85.5268 43.957L86.7875 44.6893L85.24 45.6041L85.7445 45.8978L87.2922 44.983L88.5512 45.7155L89.1706 45.351L87.9099 44.6168L89.4575 43.7038Z" fill="#264F68"/>
<path fill-rule="evenodd" clip-rule="evenodd" d="M83.409 40.1882L82.9061 39.8945L81.3585 40.8093L80.0978 40.0768L79.4801 40.4413L80.7391 41.1738L79.1931 42.0885L79.6978 42.3821L81.2437 41.4675L82.5044 42.1999L83.1221 41.8353L81.8631 41.1012L83.409 40.1882Z" fill="#264F68"/>
<path fill-rule="evenodd" clip-rule="evenodd" d="M101.557 50.7341L101.052 50.4404L99.5043 51.3552L98.2454 50.6227L97.6259 50.9872L98.8866 51.7197L97.3391 52.6344L97.8436 52.928L99.3913 52.0134L100.65 52.7458L101.27 52.3812L100.009 51.6471L101.557 50.7341Z" fill="#264F68"/>
<path fill-rule="evenodd" clip-rule="evenodd" d="M95.5079 47.2194L95.0049 46.9258L93.4573 47.8404L92.1966 47.1081L91.5789 47.4726L92.8379 48.205L91.292 49.1197L91.7967 49.4134L93.3425 48.4986L94.6032 49.2311L95.2209 48.8666L93.9619 48.1324L95.5079 47.2194Z" fill="#264F68"/>
<path fill-rule="evenodd" clip-rule="evenodd" d="M72.6863 25.2539L72.1816 24.9619L70.634 25.8749L69.3733 25.1442L68.7556 25.5087L70.0163 26.2412L68.4688 27.1542L68.9733 27.4479L70.5193 26.5349L71.78 27.2656L72.3993 26.9011L71.1386 26.1686L72.6863 25.2539Z" fill="#264F68"/>
<path fill-rule="evenodd" clip-rule="evenodd" d="M66.6392 21.7392L66.1346 21.4473L64.587 22.3603L63.3279 21.6295L62.7086 21.9941L63.9693 22.7264L62.4216 23.6396L62.9263 23.9332L64.4739 23.0201L65.7346 23.751L66.3523 23.3864L65.0916 22.6539L66.6392 21.7392Z" fill="#264F68"/>
<path fill-rule="evenodd" clip-rule="evenodd" d="M84.7852 32.2852L84.2805 31.9932L82.7328 32.9062L81.4721 32.1754L80.8545 32.54L82.1152 33.2725L80.5676 34.1855L81.0722 34.4791L82.6182 33.5661L83.8789 34.2969L84.4982 33.9323L83.2375 33.1998L84.7852 32.2852Z" fill="#264F68"/>
<path fill-rule="evenodd" clip-rule="evenodd" d="M78.738 28.7694L78.2334 28.4775L76.6875 29.3905L75.4268 28.6598L74.8075 29.0243L76.0682 29.7567L74.5205 30.6698L75.0252 30.9635L76.5727 30.0504L77.8334 30.7812L78.4511 30.4167L77.1904 29.6842L78.738 28.7694Z" fill="#264F68"/>
<path fill-rule="evenodd" clip-rule="evenodd" d="M96.884 39.3163L96.3795 39.0244L94.8319 39.9374L93.5712 39.2067L92.9535 39.5712L94.2142 40.3036L92.6665 41.2167L93.1712 41.5104L94.717 40.5973L95.9779 41.3281L96.5972 40.9636L95.3365 40.2311L96.884 39.3163Z" fill="#264F68"/>
<path fill-rule="evenodd" clip-rule="evenodd" d="M90.8372 35.8008L90.3325 35.5088L88.7866 36.4219L87.5259 35.6911L86.9066 36.0556L88.1673 36.7881L86.6196 37.7011L87.1243 37.9948L88.6718 37.0818L89.9325 37.8125L90.5502 37.4479L89.2895 36.7156L90.8372 35.8008Z" fill="#264F68"/>
<path fill-rule="evenodd" clip-rule="evenodd" d="M108.983 46.3476L108.478 46.0557L106.931 46.9687L105.67 46.2379L105.052 46.6025L106.313 47.3348L104.765 48.248L105.27 48.5416L106.818 47.6285L108.077 48.3594L108.696 47.9948L107.435 47.2623L108.983 46.3476Z" fill="#264F68"/>
<path fill-rule="evenodd" clip-rule="evenodd" d="M102.936 42.832L102.431 42.54L100.885 43.4532L99.6248 42.7223L99.0055 43.0868L100.266 43.8193L98.7185 44.7323L99.2232 45.026L100.771 44.113L102.031 44.8437L102.649 44.4792L101.39 43.7468L102.936 42.832Z" fill="#264F68"/>
<path fill-rule="evenodd" clip-rule="evenodd" d="M80.1109 20.8689L79.6062 20.5752L78.0604 21.49L76.7997 20.7575L76.182 21.122L77.441 21.8545L75.895 22.7693L76.398 23.0629L77.9456 22.1482L79.2063 22.8807L79.824 22.5161L78.565 21.782L80.1109 20.8689Z" fill="#264F68"/>
<path fill-rule="evenodd" clip-rule="evenodd" d="M74.0657 17.3532L73.561 17.0596L72.0135 17.9743L70.7544 17.2418L70.1351 17.6064L71.3958 18.3389L69.8481 19.2535L70.3528 19.5472L71.9003 18.6325L73.1594 19.3649L73.7787 19.0004L72.518 18.2662L74.0657 17.3532Z" fill="#264F68"/>
<path fill-rule="evenodd" clip-rule="evenodd" d="M92.2098 27.8991L91.7069 27.6055L90.1592 28.5202L88.8985 27.7877L88.2808 28.1523L89.5399 28.8848L87.9939 29.7995L88.4986 30.0931L90.0444 29.1784L91.3051 29.9109L91.9228 29.5464L90.6639 28.8122L92.2098 27.8991Z" fill="#264F68"/>
<path fill-rule="evenodd" clip-rule="evenodd" d="M86.1646 24.3845L85.6599 24.0908L84.1124 25.0055L82.8533 24.2731L82.234 24.6376L83.4947 25.37L81.947 26.2848L82.4517 26.5784L83.9992 25.6637L85.2583 26.3962L85.8776 26.0316L84.6169 25.2975L86.1646 24.3845Z" fill="#264F68"/>
<path fill-rule="evenodd" clip-rule="evenodd" d="M104.309 34.9304L103.806 34.6367L102.258 35.5515L100.998 34.819L100.38 35.1835L101.639 35.916L100.093 36.8307L100.598 37.1243L102.144 36.2097L103.404 36.9421L104.022 36.5775L102.763 35.8434L104.309 34.9304Z" fill="#264F68"/>
<path fill-rule="evenodd" clip-rule="evenodd" d="M98.2634 31.4148L97.7588 31.1211L96.2112 32.0357L94.9522 31.3034L94.3328 31.6679L95.5936 32.4003L94.0459 33.315L94.5506 33.6087L96.0981 32.6939L97.3571 33.4264L97.9765 33.0619L96.7158 32.3277L98.2634 31.4148Z" fill="#264F68"/>
<path fill-rule="evenodd" clip-rule="evenodd" d="M116.408 41.9616L115.905 41.668L114.357 42.5827L113.097 41.8502L112.479 42.2148L113.738 42.9473L112.192 43.8619L112.697 44.1556L114.242 43.2409L115.503 43.9733L116.121 43.6088L114.862 42.8746L116.408 41.9616Z" fill="#264F68"/>
<path fill-rule="evenodd" clip-rule="evenodd" d="M110.363 38.446L109.858 38.1523L108.31 39.0671L107.051 38.3346L106.432 38.6992L107.693 39.4317L106.145 40.3464L106.65 40.6401L108.197 39.7253L109.456 40.4578L110.076 40.0933L108.815 39.3591L110.363 38.446Z" fill="#264F68"/>
<path fill-rule="evenodd" clip-rule="evenodd" d="M87.5391 16.4831L87.0345 16.1895L85.4885 17.1025L84.2278 16.3717L83.6085 16.7363L84.8692 17.4686L83.3215 18.3818L83.8262 18.6754L85.3738 17.7623L86.6346 18.4931L87.2522 18.1286L85.9915 17.3961L87.5391 16.4831Z" fill="#264F68"/>
<path fill-rule="evenodd" clip-rule="evenodd" d="M81.4922 12.9675L80.9875 12.6738L79.44 13.5868L78.1793 12.8561L77.5616 13.2206L78.8205 13.9531L77.2747 14.8661L77.7793 15.1598L79.3252 14.2468L80.5859 14.9775L81.2052 14.613L79.9445 13.8805L81.4922 12.9675Z" fill="#264F68"/>
<path fill-rule="evenodd" clip-rule="evenodd" d="M99.6379 23.5134L99.1334 23.2197L97.5874 24.1328L96.3267 23.402L95.7074 23.7665L96.9681 24.499L95.4204 25.412L95.9251 25.7057L97.4727 24.7927L98.7334 25.5234L99.3511 25.1589L98.0904 24.4265L99.6379 23.5134Z" fill="#264F68"/>
<path fill-rule="evenodd" clip-rule="evenodd" d="M93.5911 19.9987L93.0864 19.7051L91.5389 20.6181L90.2782 19.8873L89.6605 20.2519L90.9212 20.9844L89.3735 21.8974L89.8782 22.191L91.4241 21.278L92.6848 22.0088L93.3041 21.6442L92.0434 20.9117L93.5911 19.9987Z" fill="#264F68"/>
<path fill-rule="evenodd" clip-rule="evenodd" d="M111.737 30.543L111.233 30.251L109.687 31.1641L108.426 30.4332L107.806 30.7978L109.067 31.5303L107.52 32.4433L108.024 32.7369L109.572 31.8239L110.833 32.5547L111.45 32.1901L110.19 31.4578L111.737 30.543Z" fill="#264F68"/>
<path fill-rule="evenodd" clip-rule="evenodd" d="M105.69 27.029L105.185 26.7354L103.638 27.6483L102.377 26.9176L101.759 27.2822L103.02 28.0147L101.472 28.9277L101.977 29.2213L103.523 28.3083L104.784 29.039L105.403 28.6745L104.142 27.942L105.69 27.029Z" fill="#264F68"/>
<path fill-rule="evenodd" clip-rule="evenodd" d="M123.836 37.5742L123.331 37.2822L121.785 38.1952L120.525 37.4645L119.905 37.829L121.166 38.5615L119.618 39.4745L120.123 39.7682L121.671 38.8552L122.931 39.5859L123.549 39.2214L122.29 38.4889L123.836 37.5742Z" fill="#264F68"/>
<path fill-rule="evenodd" clip-rule="evenodd" d="M117.789 34.0585L117.284 33.7666L115.737 34.6796L114.476 33.9489L113.858 34.3134L115.119 35.0458L113.572 35.9589L114.076 36.2526L115.624 35.3394L116.883 36.0703L117.502 35.7058L116.241 34.9733L117.789 34.0585Z" fill="#264F68"/>
<path fill-rule="evenodd" clip-rule="evenodd" d="M94.9656 12.0954L94.461 11.8018L92.9134 12.7165L91.6543 11.984L91.035 12.3486L92.2957 13.0827L90.748 13.9957L91.2527 14.2894L92.8004 13.3747L94.0593 14.1071L94.6788 13.7426L93.4181 13.0101L94.9656 12.0954Z" fill="#264F68"/>
<path fill-rule="evenodd" clip-rule="evenodd" d="M88.9169 8.57979L88.4124 8.28613L86.8664 9.20086L85.6057 8.4684L84.988 8.83294L86.2471 9.56709L84.7012 10.4801L85.2041 10.7738L86.7517 9.85906L88.0124 10.5915L88.6301 10.227L87.3711 9.49452L88.9169 8.57979Z" fill="#264F68"/>
<path fill-rule="evenodd" clip-rule="evenodd" d="M107.064 19.1267L106.56 18.833L105.012 19.7477L103.753 19.0153L103.134 19.3798L104.395 20.114L102.847 21.027L103.352 21.3206L104.899 20.4058L106.158 21.1383L106.778 20.7738L105.517 20.0413L107.064 19.1267Z" fill="#264F68"/>
<path fill-rule="evenodd" clip-rule="evenodd" d="M101.016 15.611L100.511 15.3174L98.9653 16.2322L97.7046 15.4997L97.0869 15.8642L98.3459 16.5983L96.8 17.5115L97.3029 17.8051L98.8506 16.8903L100.111 17.6228L100.729 17.2583L99.4699 16.5258L101.016 15.611Z" fill="#264F68"/>
<path fill-rule="evenodd" clip-rule="evenodd" d="M119.164 26.1569L118.659 25.8633L117.111 26.7779L115.852 26.0456L115.233 26.4101L116.494 27.1442L114.946 28.0572L115.451 28.3509L116.998 27.4361L118.257 28.1686L118.877 27.8041L117.616 27.0716L119.164 26.1569Z" fill="#264F68"/>
<path fill-rule="evenodd" clip-rule="evenodd" d="M113.115 22.6423L112.612 22.3486L111.064 23.2634L109.803 22.5309L109.186 22.8954L110.445 23.6296L108.899 24.5426L109.403 24.8362L110.949 23.9216L112.21 24.654L112.828 24.2894L111.569 23.5571L113.115 22.6423Z" fill="#264F68"/>
<path fill-rule="evenodd" clip-rule="evenodd" d="M131.262 33.1882L130.758 32.8945L129.21 33.8093L127.951 33.0768L127.332 33.4413L128.592 34.1755L127.044 35.0885L127.549 35.3821L129.098 34.4675L130.358 35.1999L130.976 34.8353L129.715 34.1012L131.262 33.1882Z" fill="#264F68"/>
<path fill-rule="evenodd" clip-rule="evenodd" d="M125.214 29.6726L124.711 29.3789L123.163 30.2937L121.903 29.5612L121.285 29.9257L122.544 30.6599L120.998 31.5729L121.503 31.8665L123.049 30.9519L124.309 31.6842L124.927 31.3197L123.668 30.5873L125.214 29.6726Z" fill="#264F68"/>
<path fill-rule="evenodd" clip-rule="evenodd" d="M20.704 55.9607L20.1995 55.667L18.6535 56.5801L17.3928 55.8493L16.7751 56.2138L18.0342 56.9463L16.4883 57.8611L16.9912 58.153L18.5388 57.24L19.7995 57.9707L20.4172 57.6079L19.1582 56.8738L20.704 55.9607Z" fill="#264F68"/>
<path fill-rule="evenodd" clip-rule="evenodd" d="M14.6538 52.445L14.1491 52.1514L12.6016 53.0644L11.3426 52.3336L10.7232 52.6982L11.9839 53.4305L10.4363 54.3453L10.9409 54.6373L12.4885 53.7242L13.7475 54.4551L14.3668 54.0922L13.1061 53.358L14.6538 52.445Z" fill="#264F68"/>
<path fill-rule="evenodd" clip-rule="evenodd" d="M32.803 62.9919L32.2984 62.6982L30.7525 63.6112L29.4918 62.8805L28.8741 63.2451L30.1332 63.9775L28.5872 64.8922L29.0902 65.1842L30.6377 64.2712L31.8984 65.0019L32.5161 64.639L31.2572 63.9049L32.803 62.9919Z" fill="#264F68"/>
<path fill-rule="evenodd" clip-rule="evenodd" d="M26.7527 59.4763L26.248 59.1826L24.7005 60.0956L23.4414 59.3649L22.8221 59.7294L24.0828 60.4618L22.5352 61.3766L23.0398 61.6686L24.5873 60.7555L25.8464 61.4863L26.4657 61.1234L25.205 60.3893L26.7527 59.4763Z" fill="#264F68"/>
<path fill-rule="evenodd" clip-rule="evenodd" d="M44.9019 70.0222L44.399 69.7285L42.8514 70.6415L41.5907 69.9108L40.973 70.2753L42.232 71.0078L40.686 71.9225L41.1907 72.2145L42.7366 71.3015L43.9973 72.0322L44.615 71.6693L43.356 70.9352L44.9019 70.0222Z" fill="#264F68"/>
<path fill-rule="evenodd" clip-rule="evenodd" d="M38.8516 66.5075L38.3469 66.2139L36.7994 67.1269L35.5403 66.3961L34.921 66.7607L36.1817 67.4931L34.634 68.4078L35.1387 68.6997L36.6862 67.7867L37.9453 68.5174L38.5646 68.1547L37.3039 67.4205L38.8516 66.5075Z" fill="#264F68"/>
<path fill-rule="evenodd" clip-rule="evenodd" d="M57.0008 77.0534L56.4979 76.7598L54.9503 77.6728L53.6896 76.942L53.0719 77.3066L54.3309 78.0389L52.7849 78.9537L53.2896 79.2457L54.8355 78.3326L56.0962 79.0635L56.7138 78.7006L55.4549 77.9664L57.0008 77.0534Z" fill="#264F68"/>
<path fill-rule="evenodd" clip-rule="evenodd" d="M50.9507 73.5378L50.446 73.2441L48.8985 74.1573L47.6394 73.4264L47.0201 73.791L48.2808 74.5235L46.7332 75.4382L47.2378 75.7301L48.7853 74.8171L50.0444 75.5478L50.6637 75.1851L49.403 74.4509L50.9507 73.5378Z" fill="#264F68"/>
</g>
<defs>
<clipPath id="clip0_113_2232">
<rect width="140.5" height="99.9955" fill="white" transform="translate(0.384277 0.783203)"/>
</clipPath>
</defs>
</svg>
