<svg width="145" height="101" viewBox="0 0 145 101" fill="none" xmlns="http://www.w3.org/2000/svg">
<g clip-path="url(#clip0_113_2333)">
<path d="M140.823 47.8377L140.781 48.1626L140.753 48.2622L140.659 48.4415L140.585 48.5365L140.394 48.7204L140.279 48.8108C128.8 55.4357 79.0073 85.0463 67.5291 91.6713C66.4425 91.6605 65.3545 91.6498 64.2679 91.6391C52.8065 85.0264 15.2945 63.0859 3.8331 56.4733L3.71816 56.3828L3.5266 56.1989L3.45304 56.1039L3.35956 55.9246L3.33198 55.825L3.28906 55.5001V54.5039V52.9715V47.3764L3.33198 47.0515L3.35956 46.952L3.45304 46.7742L3.5266 46.6776L3.71816 46.4937L3.8331 46.4033C15.2945 39.7906 65.0664 10.1893 76.5278 3.57509C77.6143 3.56435 78.7024 3.55516 79.7889 3.54443C91.2672 10.1678 128.8 32.116 140.279 38.7409L140.394 38.8313L140.585 39.0152L140.659 39.1117L140.753 39.2895L140.781 39.3892L140.823 39.714V45.3091V46.8416V47.8377ZM140.781 54.2925L140.753 54.3921L140.659 54.5714L140.585 54.6665L140.394 54.8504L140.279 54.9407C128.8 61.5656 79.0073 91.1762 67.5291 97.8011C66.4425 97.7905 65.3545 97.7797 64.2679 97.769C52.8065 91.1564 15.2945 69.2158 3.8331 62.6031L3.71816 62.5127L3.5266 62.3288L3.45304 62.2339L3.35956 62.0546L3.33198 61.9549L3.28906 61.63V59.0386C14.3276 65.4107 51.4181 87.106 62.4566 93.4764C63.2719 93.8902 64.4702 94.3485 65.9261 94.3485C67.4678 94.3485 68.6708 93.8367 69.3957 93.4764C71.9074 92.2336 122.529 62.2032 140.823 51.3869V53.9677L140.781 54.2925ZM143.3 39.5439C143.298 39.5148 143.31 39.4887 143.306 39.4581L143.24 38.983C143.236 38.9585 143.219 38.9401 143.217 38.9186C143.213 38.8941 143.218 38.8712 143.214 38.8482L143.134 38.5324C143.122 38.4819 143.088 38.4436 143.068 38.3976C143.049 38.3502 143.049 38.298 143.025 38.252L142.815 37.8566C142.799 37.8275 142.771 37.8092 142.753 37.7816C142.736 37.7525 142.73 37.7203 142.711 37.6942L142.515 37.4307C142.493 37.4031 142.463 37.3923 142.441 37.3647C142.415 37.3371 142.406 37.3019 142.38 37.2773L142.075 36.9877C142.06 36.9709 142.038 36.9678 142.02 36.954C142.005 36.9387 141.997 36.9204 141.982 36.9066L141.744 36.7211C141.72 36.7027 141.688 36.6966 141.666 36.6828C141.64 36.6659 141.626 36.6399 141.6 36.6245C123.545 25.9493 84.2024 2.99887 81.6555 1.73764C80.9307 1.37904 79.7276 0.867188 78.186 0.867188C76.7301 0.867188 75.5317 1.32387 74.7164 1.73764C63.419 8.25834 13.8095 37.7663 2.5121 44.2869C2.48452 44.3022 2.47226 44.3283 2.44621 44.3452C2.42168 44.359 2.39257 44.3651 2.36804 44.3835L2.13052 44.5689C2.11519 44.5827 2.10753 44.6011 2.0922 44.6165C2.07381 44.6303 2.05235 44.6332 2.03703 44.6501L1.73207 44.9398C1.70601 44.9643 1.69682 44.9995 1.67077 45.0271C1.64931 45.0547 1.61867 45.0654 1.59721 45.093L1.39953 45.3567C1.38267 45.3826 1.37654 45.4148 1.35968 45.444C1.34129 45.4716 1.3137 45.49 1.29685 45.5191L1.08536 45.9144C1.06238 45.9604 1.06238 46.0125 1.04399 46.0601C1.02406 46.106 0.990351 46.1443 0.978092 46.1949L0.898399 46.5106C0.892269 46.5336 0.899933 46.5566 0.895336 46.5811C0.890739 46.6026 0.876947 46.6209 0.87235 46.6454L0.806454 47.1205C0.801857 47.1511 0.814113 47.1772 0.812581 47.2063C0.811048 47.2354 0.794189 47.2615 0.794189 47.2906V52.9715V54.5039V55.5874V61.7173C0.794189 61.7449 0.811048 61.771 0.812581 61.8001C0.814113 61.8293 0.801857 61.8553 0.806454 61.8859L0.87235 62.3626C0.876947 62.3856 0.890739 62.404 0.895336 62.4269C0.899933 62.4499 0.892269 62.4729 0.898399 62.4959L0.978092 62.8115C0.990351 62.8637 1.02406 62.9005 1.04399 62.9465C1.06238 62.9954 1.06238 63.046 1.08536 63.092L1.29685 63.4873C1.3137 63.5165 1.34129 63.5349 1.35968 63.564C1.37654 63.5916 1.38267 63.6238 1.39953 63.6499L1.59721 63.9134C1.61867 63.941 1.64931 63.9533 1.67077 63.9793C1.69682 64.0069 1.70601 64.0421 1.73207 64.0666L2.03703 64.3563C2.05235 64.3732 2.07381 64.3763 2.0922 64.3901C2.10753 64.4068 2.11519 64.4237 2.13052 64.4375L2.36804 64.6229C2.39257 64.6413 2.42168 64.6475 2.44621 64.6628C2.47226 64.6781 2.48452 64.7042 2.5121 64.7211C13.8095 71.2402 51.1591 93.0857 62.4566 99.6064C63.2719 100.02 64.4702 100.478 65.9261 100.478C67.4678 100.478 68.6708 99.9665 69.3957 99.6064C71.9427 98.3451 123.545 67.7324 141.6 57.0586C141.626 57.0417 141.64 57.0158 141.666 57.0004C141.688 56.9851 141.72 56.979 141.744 56.9606L141.982 56.7751C141.997 56.7613 142.005 56.7445 142.02 56.7276C142.038 56.7138 142.06 56.7107 142.075 56.6939L142.38 56.4043C142.406 56.3797 142.415 56.3445 142.441 56.3169C142.463 56.2909 142.493 56.2786 142.515 56.251L142.711 55.9874C142.73 55.9613 142.736 55.9292 142.753 55.9016C142.771 55.8725 142.799 55.8541 142.815 55.825L143.025 55.4296C143.049 55.3837 143.049 55.3331 143.068 55.284C143.088 55.238 143.122 55.2013 143.134 55.1492L143.214 54.8335C143.218 54.8105 143.213 54.7875 143.217 54.7645C143.219 54.7415 143.236 54.7231 143.24 54.7001L143.306 54.2235C143.31 54.1929 143.298 54.1668 143.3 54.1378C143.301 54.1086 143.318 54.0826 143.318 54.055V47.925V46.8416V45.3091V39.6282C143.318 39.599 143.301 39.5731 143.3 39.5439Z" fill="#264F68"/>
<path fill-rule="evenodd" clip-rule="evenodd" d="M45.6055 67.3184L45.1474 67.0518L43.7421 67.8823L42.5973 67.2173L42.0364 67.5483L43.1812 68.2133L41.7759 69.0439L42.2341 69.3106L43.6378 68.48L44.7827 69.1451L45.3451 68.8141L44.2003 68.1474L45.6055 67.3184Z" fill="#264F68"/>
<path fill-rule="evenodd" clip-rule="evenodd" d="M40.1104 64.126L39.6522 63.8594L38.247 64.69L37.1037 64.0249L36.5413 64.3559L37.6861 65.021L36.2808 65.8517L36.739 66.1183L38.1442 65.2877L39.289 65.9528L39.8499 65.6218L38.7051 64.9552L40.1104 64.126Z" fill="#264F68"/>
<path fill-rule="evenodd" clip-rule="evenodd" d="M56.5919 73.7022L56.1337 73.4355L54.7284 74.2662L53.5837 73.6011L53.0228 73.9321L54.1675 74.5972L52.7622 75.4279L53.2205 75.6945L54.6242 74.8639L55.7689 75.529L56.3314 75.198L55.1867 74.5314L56.5919 73.7022Z" fill="#264F68"/>
<path fill-rule="evenodd" clip-rule="evenodd" d="M51.0965 70.5098L50.6383 70.2432L49.2345 71.0738L48.0898 70.4087L47.5274 70.7397L48.6722 71.4048L47.2668 72.2353L47.7251 72.502L49.1303 71.6715L50.2751 72.3365L50.836 72.0055L49.6912 71.3388L51.0965 70.5098Z" fill="#264F68"/>
<path fill-rule="evenodd" clip-rule="evenodd" d="M67.5782 80.087L67.1201 79.8203L65.7147 80.651L64.57 79.9858L64.0091 80.3168L65.1539 80.982L63.7485 81.8126L64.2068 82.0793L65.6105 81.2486L66.7553 81.9138L67.3178 81.5827L66.173 80.9161L67.5782 80.087Z" fill="#264F68"/>
<path fill-rule="evenodd" clip-rule="evenodd" d="M62.0828 76.8946L61.6246 76.6279L60.2209 77.4586L59.0761 76.7934L58.5137 77.1245L59.6585 77.7896L58.2532 78.6201L58.7114 78.8868L60.1166 78.0562L61.2614 78.7213L61.8223 78.3902L60.6775 77.7236L62.0828 76.8946Z" fill="#264F68"/>
<path fill-rule="evenodd" clip-rule="evenodd" d="M52.3477 63.3345L51.8895 63.0693L50.4857 63.8984L49.341 63.2348L48.7801 63.5659L49.9234 64.231L48.5195 65.06L48.9763 65.3267L50.3815 64.4976L51.5263 65.1612L52.0871 64.8302L50.944 64.165L52.3477 63.3345Z" fill="#264F68"/>
<path fill-rule="evenodd" clip-rule="evenodd" d="M46.8538 60.1436L46.3956 59.877L44.9904 60.706L43.8471 60.0425L43.2847 60.3735L44.4295 61.0386L43.0242 61.8676L43.4824 62.1343L44.8876 61.3053L46.0309 61.9688L46.5933 61.6378L45.4485 60.9726L46.8538 60.1436Z" fill="#264F68"/>
<path fill-rule="evenodd" clip-rule="evenodd" d="M63.334 69.7182L62.8758 69.4531L61.4721 70.2822L60.3273 69.6186L59.7664 69.9497L60.9097 70.6147L59.5059 71.4438L59.9626 71.7105L61.3678 70.8813L62.5126 71.545L63.0735 71.2139L61.9303 70.5488L63.334 69.7182Z" fill="#264F68"/>
<path fill-rule="evenodd" clip-rule="evenodd" d="M57.8402 66.5259L57.3819 66.2607L55.9766 67.0899L54.8334 66.4262L54.2709 66.7573L55.4157 67.4224L54.0105 68.2514L54.4686 68.5181L55.874 67.6891L57.0172 68.3526L57.5796 68.0216L56.4348 67.3565L57.8402 66.5259Z" fill="#264F68"/>
<path fill-rule="evenodd" clip-rule="evenodd" d="M74.3204 76.1029L73.8637 75.8379L72.4584 76.6669L71.3136 76.0034L70.7527 76.3344L71.896 76.9994L70.4922 77.8286L70.9504 78.0952L72.3542 77.2661L73.4989 77.9297L74.0598 77.5987L72.9166 76.9336L74.3204 76.1029Z" fill="#264F68"/>
<path fill-rule="evenodd" clip-rule="evenodd" d="M68.8265 72.9107L68.3682 72.6455L66.9629 73.4745L65.8198 72.811L65.2573 73.142L66.402 73.8072L64.9968 74.6362L65.455 74.9029L66.8603 74.0738L68.0035 74.7373L68.5659 74.4063L67.4212 73.7412L68.8265 72.9107Z" fill="#264F68"/>
<path fill-rule="evenodd" clip-rule="evenodd" d="M59.0926 59.3516L58.6345 59.085L57.2292 59.9155L56.0859 59.2505L55.5235 59.5815L56.6683 60.2481L55.2629 61.0771L55.7212 61.3438L57.1265 60.5132L58.2713 61.1783L58.8322 60.8473L57.6874 60.1821L59.0926 59.3516Z" fill="#264F68"/>
<path fill-rule="evenodd" clip-rule="evenodd" d="M53.5975 56.1602L53.1392 55.8936L51.7339 56.7242L50.5892 56.0591L50.0283 56.3901L51.1715 57.0567L49.7678 57.8857L50.226 58.1524L51.6298 57.3219L52.7745 57.9869L53.3369 57.6559L52.1922 56.9908L53.5975 56.1602Z" fill="#264F68"/>
<path fill-rule="evenodd" clip-rule="evenodd" d="M70.0789 65.7364L69.6208 65.4697L68.217 66.3004L67.0722 65.6352L66.5098 65.9662L67.6546 66.6329L66.2493 67.4619L66.7075 67.7286L68.1128 66.898L69.2576 67.5631L69.8185 67.232L68.6737 66.5654L70.0789 65.7364Z" fill="#264F68"/>
<path fill-rule="evenodd" clip-rule="evenodd" d="M64.5836 62.544L64.1253 62.2773L62.72 63.108L61.5752 62.4428L61.0144 62.7739L62.1591 63.4405L60.7539 64.2695L61.212 64.5362L62.6159 63.7057L63.7606 64.3707L64.323 64.0397L63.1783 63.3746L64.5836 62.544Z" fill="#264F68"/>
<path fill-rule="evenodd" clip-rule="evenodd" d="M81.0653 72.1202L80.607 71.8535L79.2033 72.684L78.0585 72.019L77.4962 72.35L78.6409 73.0167L77.2356 73.8457L77.6939 74.1124L79.0991 73.2817L80.2438 73.9468L80.8047 73.6158L79.6599 72.9492L81.0653 72.1202Z" fill="#264F68"/>
<path fill-rule="evenodd" clip-rule="evenodd" d="M75.5699 68.9278L75.1116 68.6611L73.7063 69.4918L72.5616 68.8266L72.0007 69.1577L73.1454 69.8243L71.7402 70.6534L72.1984 70.9201L73.6022 70.0894L74.747 70.7546L75.3093 70.4236L74.1646 69.7569L75.5699 68.9278Z" fill="#264F68"/>
<path fill-rule="evenodd" clip-rule="evenodd" d="M65.8363 55.3702L65.378 55.1035L63.9728 55.9327L62.8295 55.269L62.2672 55.6L63.4119 56.2652L62.0066 57.0958L62.4648 57.3609L63.87 56.5318L65.0133 57.1954L65.5757 56.8643L64.4309 56.1993L65.8363 55.3702Z" fill="#264F68"/>
<path fill-rule="evenodd" clip-rule="evenodd" d="M60.3393 52.1778L59.8812 51.9111L58.4773 52.7402L57.3326 52.0766L56.7717 52.4077L57.9149 53.0727L56.5112 53.9033L56.9679 54.1685L58.3732 53.3393L59.518 54.003L60.0788 53.672L58.9356 53.0068L60.3393 52.1778Z" fill="#264F68"/>
<path fill-rule="evenodd" clip-rule="evenodd" d="M76.8226 61.754L76.3643 61.4873L74.9591 62.3163L73.8159 61.6528L73.2535 61.9838L74.3982 62.6488L72.9929 63.4795L73.4512 63.7446L74.8564 62.9155L75.9997 63.5791L76.562 63.2481L75.4173 62.583L76.8226 61.754Z" fill="#264F68"/>
<path fill-rule="evenodd" clip-rule="evenodd" d="M71.3256 58.5616L70.8675 58.2949L69.4637 59.1241L68.3189 58.4604L67.758 58.7914L68.9013 59.4566L67.4976 60.2872L67.9542 60.5523L69.3595 59.7232L70.5043 60.3868L71.0652 60.0557L69.9219 59.3907L71.3256 58.5616Z" fill="#264F68"/>
<path fill-rule="evenodd" clip-rule="evenodd" d="M87.8087 68.1387L87.3504 67.8721L85.9452 68.7011L84.8019 68.0376L84.2396 68.3686L85.3843 69.0337L83.979 69.8643L84.4373 70.1294L85.8425 69.3004L86.9857 69.9639L87.5481 69.6329L86.4033 68.9678L87.8087 68.1387Z" fill="#264F68"/>
<path fill-rule="evenodd" clip-rule="evenodd" d="M82.3119 64.9463L81.8553 64.6797L80.45 65.5087L79.3052 64.8452L78.7443 65.1762L79.8876 65.8413L78.4839 66.6719L78.942 66.937L80.3457 66.108L81.4905 66.7715L82.0514 66.4405L80.9082 65.7754L82.3119 64.9463Z" fill="#264F68"/>
<path fill-rule="evenodd" clip-rule="evenodd" d="M72.5797 51.3858L72.1214 51.1191L70.7162 51.9498L69.5714 51.2846L69.0106 51.6157L70.1553 52.2823L68.75 53.1114L69.2083 53.3781L70.612 52.5474L71.7567 53.2126L72.3191 52.8816L71.1743 52.2164L72.5797 51.3858Z" fill="#264F68"/>
<path fill-rule="evenodd" clip-rule="evenodd" d="M67.0844 48.1934L66.6263 47.9268L65.221 48.7574L64.0778 48.0923L63.5153 48.4233L64.6601 49.0899L63.2549 49.9189L63.713 50.1856L65.1183 49.3551L66.2631 50.0201L66.824 49.6891L65.6792 49.024L67.0844 48.1934Z" fill="#264F68"/>
<path fill-rule="evenodd" clip-rule="evenodd" d="M83.566 57.7696L83.1077 57.5029L81.7025 58.3336L80.5578 57.6684L79.9969 57.9995L81.1417 58.6661L79.7363 59.4951L80.1946 59.7618L81.5983 58.9312L82.7431 59.5963L83.3054 59.2652L82.1607 58.6002L83.566 57.7696Z" fill="#264F68"/>
<path fill-rule="evenodd" clip-rule="evenodd" d="M78.0706 54.5782L77.6125 54.3115L76.2087 55.1422L75.0639 54.477L74.5015 54.808L75.6463 55.4747L74.241 56.3037L74.6992 56.5704L76.1045 55.7398L77.2493 56.4049L77.8102 56.0738L76.6654 55.4088L78.0706 54.5782Z" fill="#264F68"/>
<path fill-rule="evenodd" clip-rule="evenodd" d="M94.5523 64.1543L94.0941 63.8877L92.6889 64.7182L91.5441 64.0532L90.9832 64.3842L92.128 65.0508L90.7227 65.8799L91.1809 66.1465L92.5846 65.3159L93.7294 65.981L94.2918 65.65L93.147 64.9849L94.5523 64.1543Z" fill="#264F68"/>
<path fill-rule="evenodd" clip-rule="evenodd" d="M89.057 60.962L88.5988 60.6953L87.195 61.526L86.0502 60.8608L85.4879 61.1918L86.6326 61.8585L85.2273 62.6876L85.6855 62.9543L87.0909 62.1236L88.2356 62.7888L88.7965 62.4577L87.6518 61.7926L89.057 60.962Z" fill="#264F68"/>
<path fill-rule="evenodd" clip-rule="evenodd" d="M79.3218 47.4034L78.8636 47.1367L77.4599 47.9658L76.3151 47.3022L75.7542 47.6332L76.8974 48.2983L75.4937 49.1289L75.9503 49.3941L77.3556 48.5649L78.5004 49.2286L79.0613 48.8975L77.918 48.2324L79.3218 47.4034Z" fill="#264F68"/>
<path fill-rule="evenodd" clip-rule="evenodd" d="M73.828 44.211L73.3698 43.9443L71.9645 44.7735L70.8212 44.1098L70.2589 44.4409L71.4036 45.106L69.9983 45.9366L70.4565 46.2017L71.8619 45.3726L73.005 46.0362L73.5675 45.7052L72.4228 45.0401L73.828 44.211Z" fill="#264F68"/>
<path fill-rule="evenodd" clip-rule="evenodd" d="M90.308 53.7881L89.8514 53.5215L88.4461 54.3505L87.3013 53.687L86.7404 54.018L87.8837 54.683L86.48 55.5137L86.9381 55.7788L88.3419 54.9497L89.4867 55.6133L90.0476 55.2823L88.9043 54.6172L90.308 53.7881Z" fill="#264F68"/>
<path fill-rule="evenodd" clip-rule="evenodd" d="M84.814 50.5958L84.3559 50.3291L82.9506 51.1581L81.8073 50.4946L81.2449 50.8256L82.3897 51.4908L80.9844 52.3213L81.4426 52.5864L82.8479 51.7574L83.9911 52.4209L84.5536 52.0899L83.4088 51.4248L84.814 50.5958Z" fill="#264F68"/>
<path fill-rule="evenodd" clip-rule="evenodd" d="M101.294 60.1719L100.837 59.9053L99.4322 60.7344L98.2874 60.0708L97.7265 60.4018L98.8698 61.0669L97.4661 61.8976L97.9242 62.1626L99.328 61.3336L100.473 61.9971L101.034 61.6661L99.8904 61.0011L101.294 60.1719Z" fill="#264F68"/>
<path fill-rule="evenodd" clip-rule="evenodd" d="M95.8004 56.9795L95.3422 56.7129L93.9369 57.5419L92.7936 56.8784L92.2313 57.2094L93.376 57.8745L91.9707 58.7051L92.4289 58.9702L93.8343 58.1412L94.9774 58.8047L95.5399 58.4737L94.3952 57.8086L95.8004 56.9795Z" fill="#264F68"/>
<path fill-rule="evenodd" clip-rule="evenodd" d="M86.0623 43.419L85.6041 43.1523L84.2004 43.983L83.0556 43.3193L82.4931 43.6489L83.6379 44.3155L82.2327 45.1445L82.6908 45.4112L84.0961 44.5807L85.2409 45.2457L85.8018 44.9147L84.657 44.2496L86.0623 43.419Z" fill="#264F68"/>
<path fill-rule="evenodd" clip-rule="evenodd" d="M80.5714 40.2276L80.1132 39.9609L78.7079 40.7916L77.5631 40.1281L77.0023 40.4575L78.1455 41.1241L76.7417 41.9532L77.1999 42.2199L78.6037 41.3892L79.7484 42.0544L80.3109 41.7234L79.1662 41.0582L80.5714 40.2276Z" fill="#264F68"/>
<path fill-rule="evenodd" clip-rule="evenodd" d="M34.6195 60.9336L34.1612 60.667L32.7559 61.4975L31.6111 60.8325L31.0502 61.1635L32.1935 61.8285L30.7898 62.6592L31.2479 62.9258L32.6518 62.0952L33.7965 62.7603L34.3589 62.4293L33.2141 61.7627L34.6195 60.9336Z" fill="#264F68"/>
<path fill-rule="evenodd" clip-rule="evenodd" d="M29.1241 57.7413L28.6659 57.4746L27.2606 58.3052L26.1174 57.6401L25.555 57.9711L26.6998 58.6363L25.2944 59.4669L25.7527 59.7336L27.1579 58.9029L28.3027 59.5681L28.8635 59.237L27.7188 58.5704L29.1241 57.7413Z" fill="#264F68"/>
<path fill-rule="evenodd" clip-rule="evenodd" d="M41.3614 56.9512L40.9031 56.6846L39.4994 57.5137L38.3547 56.8501L37.7938 57.1811L38.937 57.8462L37.5332 58.6753L37.99 58.9419L39.3952 58.1129L40.5399 58.7764L41.1008 58.4454L39.9577 57.7804L41.3614 56.9512Z" fill="#264F68"/>
<path fill-rule="evenodd" clip-rule="evenodd" d="M35.8675 53.7588L35.4093 53.4922L34.0041 54.3212L32.8593 53.6577L32.2984 53.9887L33.4432 54.6537L32.0378 55.4829L32.4961 55.7495L33.9013 54.9204L35.0446 55.584L35.607 55.253L34.4622 54.5879L35.8675 53.7588Z" fill="#264F68"/>
<path fill-rule="evenodd" clip-rule="evenodd" d="M48.1065 52.9668L47.6484 52.7002L46.2431 53.5308L45.0998 52.8657L44.5374 53.1967L45.6822 53.8633L44.2769 54.6925L44.7351 54.9591L46.1404 54.1285L47.2852 54.7936L47.8461 54.4626L46.7013 53.7975L48.1065 52.9668Z" fill="#264F68"/>
<path fill-rule="evenodd" clip-rule="evenodd" d="M42.6096 49.7754L42.1529 49.5088L40.7476 50.3393L39.6028 49.6743L39.0419 50.0053L40.1852 50.6719L38.7815 51.501L39.2396 51.7676L40.6435 50.937L41.7882 51.6021L42.3491 51.2711L41.2058 50.606L42.6096 49.7754Z" fill="#264F68"/>
<path fill-rule="evenodd" clip-rule="evenodd" d="M54.8499 48.9854L54.3918 48.7188L52.9865 49.5479L51.8432 48.8843L51.2808 49.2153L52.4256 49.8804L51.0203 50.7111L51.4785 50.9761L52.8838 50.1471L54.027 50.8106L54.5895 50.4796L53.4447 49.8145L54.8499 48.9854Z" fill="#264F68"/>
<path fill-rule="evenodd" clip-rule="evenodd" d="M49.3546 45.793L48.8963 45.5264L47.4926 46.3554L46.3478 45.6919L45.7853 46.0229L46.9301 46.688L45.5249 47.5186L45.983 47.7837L47.3884 46.9547L48.5331 47.6182L49.094 47.2872L47.9507 46.6221L49.3546 45.793Z" fill="#264F68"/>
<path fill-rule="evenodd" clip-rule="evenodd" d="M61.5936 45.002L61.1353 44.7354L59.7301 45.5659L58.5854 44.9009L58.0245 45.2319L59.1676 45.8985L57.7639 46.7275L58.2222 46.9942L59.6259 46.1635L60.7706 46.8287L61.333 46.4977L60.1883 45.8325L61.5936 45.002Z" fill="#264F68"/>
<path fill-rule="evenodd" clip-rule="evenodd" d="M56.0982 41.8096L55.64 41.543L54.2347 42.3736L53.0915 41.7085L52.529 42.0395L53.6738 42.7061L52.2686 43.5352L52.7267 43.8018L54.132 42.9713L55.2768 43.6363L55.8377 43.3053L54.6929 42.6403L56.0982 41.8096Z" fill="#264F68"/>
<path fill-rule="evenodd" clip-rule="evenodd" d="M68.3355 41.0186L67.8772 40.752L66.4735 41.581L65.3288 40.9175L64.7679 41.2485L65.911 41.9135L64.5073 42.7441L64.964 43.0093L66.3693 42.1801L67.514 42.8438L68.0749 42.5128L66.9317 41.8476L68.3355 41.0186Z" fill="#264F68"/>
<path fill-rule="evenodd" clip-rule="evenodd" d="M62.8416 37.8272L62.3835 37.5605L60.9782 38.3897L59.8334 37.7261L59.2725 38.0571L60.4173 38.7222L59.012 39.5528L59.4702 39.8179L60.8755 38.9889L62.0187 39.6524L62.5812 39.3214L61.4364 38.6563L62.8416 37.8272Z" fill="#264F68"/>
<path fill-rule="evenodd" clip-rule="evenodd" d="M75.076 37.0352L74.6178 36.7686L73.2124 37.5992L72.0693 36.9356L71.5068 37.2651L72.6515 37.9317L71.2463 38.7607L71.7045 39.0274L73.1098 38.1969L74.2546 38.8619L74.8154 38.5309L73.6707 37.8658L75.076 37.0352Z" fill="#264F68"/>
<path fill-rule="evenodd" clip-rule="evenodd" d="M69.585 33.8428L69.1269 33.5762L67.7216 34.4067L66.5768 33.7432L66.0159 34.0727L67.1592 34.7393L65.7554 35.5684L66.2136 35.835L67.6173 35.0044L68.7621 35.6695L69.323 35.3385L68.1798 34.6734L69.585 33.8428Z" fill="#264F68"/>
<path fill-rule="evenodd" clip-rule="evenodd" d="M97.0487 49.8038L96.5904 49.5371L95.1867 50.3676L94.0419 49.7041L93.4794 50.0336L94.6242 50.7003L93.219 51.5293L93.6771 51.7959L95.0825 50.9653L96.2272 51.6304L96.7881 51.2994L95.6433 50.6343L97.0487 49.8038Z" fill="#264F68"/>
<path fill-rule="evenodd" clip-rule="evenodd" d="M91.5577 46.6114L91.0996 46.3447L89.6942 47.1754L88.5495 46.5118L87.9886 46.8413L89.1333 47.5079L87.728 48.337L88.1863 48.6037L89.59 47.773L90.7348 48.4382L91.2973 48.1072L90.1525 47.442L91.5577 46.6114Z" fill="#264F68"/>
<path fill-rule="evenodd" clip-rule="evenodd" d="M108.035 56.1885L107.577 55.9219L106.173 56.7524L105.028 56.0889L104.466 56.4184L105.611 57.085L104.205 57.9141L104.663 58.1807L106.069 57.3501L107.214 58.0152L107.774 57.6842L106.63 57.0191L108.035 56.1885Z" fill="#264F68"/>
<path fill-rule="evenodd" clip-rule="evenodd" d="M102.544 52.9961L102.086 52.7295L100.681 53.5601L99.5358 52.8966L98.9749 53.226L100.12 53.8926L98.7144 54.7218L99.1726 54.9884L100.576 54.1578L101.721 54.8229L102.283 54.4919L101.139 53.8268L102.544 52.9961Z" fill="#264F68"/>
<path fill-rule="evenodd" clip-rule="evenodd" d="M92.8057 39.4366L92.3475 39.1699L90.9422 39.999L89.799 39.3354L89.2365 39.6664L90.3813 40.3316L88.9761 41.1621L89.4342 41.4273L90.8395 40.5982L91.9828 41.2618L92.5452 40.9322L91.4004 40.2656L92.8057 39.4366Z" fill="#264F68"/>
<path fill-rule="evenodd" clip-rule="evenodd" d="M87.3135 36.2452L86.8553 35.9785L85.4516 36.8075L84.3068 36.144L83.7459 36.475L84.8891 37.1401L83.4854 37.9707L83.942 38.2359L85.3473 37.4067L86.4921 38.0703L87.053 37.7408L85.9097 37.0742L87.3135 36.2452Z" fill="#264F68"/>
<path fill-rule="evenodd" clip-rule="evenodd" d="M103.792 45.8213L103.334 45.5547L101.929 46.3838L100.785 45.7202L100.223 46.0512L101.368 46.7163L99.9624 47.547L100.421 47.812L101.826 46.983L102.969 47.6465L103.532 47.3171L102.387 46.6505L103.792 45.8213Z" fill="#264F68"/>
<path fill-rule="evenodd" clip-rule="evenodd" d="M98.2996 42.629L97.8414 42.3623L96.4376 43.1913L95.2929 42.5278L94.732 42.8588L95.8751 43.5238L94.4714 44.3545L94.9281 44.6196L96.3334 43.7905L97.4782 44.4541L98.0391 44.1246L96.8958 43.458L98.2996 42.629Z" fill="#264F68"/>
<path fill-rule="evenodd" clip-rule="evenodd" d="M114.778 52.2061L114.32 51.9395L112.915 52.7685L111.772 52.105L111.209 52.436L112.354 53.1011L110.949 53.9316L111.407 54.1968L112.812 53.3678L113.955 54.0313L114.518 53.7018L113.373 53.0351L114.778 52.2061Z" fill="#264F68"/>
<path fill-rule="evenodd" clip-rule="evenodd" d="M109.286 49.0137L108.829 48.7471L107.424 49.5761L106.279 48.9126L105.718 49.2436L106.861 49.9087L105.458 50.7393L105.916 51.0044L107.32 50.1754L108.464 50.8389L109.025 50.5094L107.882 49.8428L109.286 49.0137Z" fill="#264F68"/>
<path fill-rule="evenodd" clip-rule="evenodd" d="M99.5492 35.4532L99.091 35.1865L97.6857 36.0172L96.5409 35.3536L95.98 35.683L97.1248 36.3497L95.7195 37.1788L96.1777 37.4455L97.5814 36.6163L98.7262 37.28L99.2887 36.949L98.1439 36.2838L99.5492 35.4532Z" fill="#264F68"/>
<path fill-rule="evenodd" clip-rule="evenodd" d="M94.0584 32.2608L93.6002 31.9941L92.195 32.8248L91.0517 32.1611L90.4893 32.4907L91.6341 33.1573L90.2288 33.9863L90.687 34.253L92.0922 33.4239L93.237 34.0875L93.7979 33.7565L92.6531 33.0914L94.0584 32.2608Z" fill="#264F68"/>
<path fill-rule="evenodd" clip-rule="evenodd" d="M110.535 41.837L110.077 41.5703L108.672 42.401L107.527 41.7374L106.966 42.0668L108.111 42.7335L106.706 43.5626L107.164 43.8293L108.568 42.9986L109.713 43.6638L110.275 43.3327L109.13 42.6676L110.535 41.837Z" fill="#264F68"/>
<path fill-rule="evenodd" clip-rule="evenodd" d="M105.045 38.6456L104.587 38.3789L103.183 39.2094L102.038 38.5459L101.476 38.8754L102.62 39.5421L101.215 40.3711L101.673 40.6377L103.079 39.8071L104.223 40.4722L104.784 40.1412L103.639 39.4761L105.045 38.6456Z" fill="#264F68"/>
<path fill-rule="evenodd" clip-rule="evenodd" d="M121.522 48.2217L121.063 47.9551L119.659 48.7856L118.514 48.1221L117.953 48.4516L119.098 49.1182L117.692 49.9473L118.151 50.2139L119.555 49.3833L120.699 50.0484L121.261 49.7174L120.116 49.0523L121.522 48.2217Z" fill="#264F68"/>
<path fill-rule="evenodd" clip-rule="evenodd" d="M116.031 45.0293L115.573 44.7627L114.169 45.5933L113.024 44.9297L112.462 45.2592L113.607 45.9258L112.201 46.7549L112.66 47.0215L114.065 46.191L115.21 46.856L115.771 46.525L114.626 45.86L116.031 45.0293Z" fill="#264F68"/>
<path fill-rule="evenodd" clip-rule="evenodd" d="M106.291 31.4708L105.833 31.2041L104.429 32.0331L103.285 31.3696L102.724 31.7006L103.867 32.3658L102.463 33.1963L102.92 33.4629L104.325 32.6324L105.47 33.2959L106.031 32.9664L104.888 32.2998L106.291 31.4708Z" fill="#264F68"/>
<path fill-rule="evenodd" clip-rule="evenodd" d="M100.802 28.2784L100.344 28.0117L98.9384 28.8422L97.7951 28.1772L97.2327 28.5082L98.3775 29.1733L96.9722 30.0039L97.4304 30.2706L98.8356 29.4399L99.9789 30.1036L100.541 29.774L99.3965 29.1074L100.802 28.2784Z" fill="#264F68"/>
<path fill-rule="evenodd" clip-rule="evenodd" d="M117.277 37.8555L116.821 37.5889L115.416 38.4179L114.271 37.7544L113.71 38.0854L114.853 38.7504L113.449 39.5811L113.908 39.8477L115.311 39.0171L116.457 39.6807L117.018 39.3512L115.874 38.6846L117.277 37.8555Z" fill="#264F68"/>
<path fill-rule="evenodd" clip-rule="evenodd" d="M111.788 34.6631L111.33 34.3965L109.925 35.2256L108.781 34.562L108.219 34.893L109.364 35.5581L107.958 36.3888L108.417 36.6554L109.822 35.8248L110.965 36.4883L111.528 36.1589L110.383 35.4923L111.788 34.6631Z" fill="#264F68"/>
<path fill-rule="evenodd" clip-rule="evenodd" d="M128.264 44.2393L127.808 43.9727L126.402 44.8017L125.257 44.1382L124.696 44.4692L125.84 45.1342L124.436 45.9648L124.894 46.23L126.298 45.4009L127.442 46.0645L128.003 45.735L126.861 45.0683L128.264 44.2393Z" fill="#264F68"/>
<path fill-rule="evenodd" clip-rule="evenodd" d="M122.774 41.0469L122.316 40.7803L120.911 41.6094L119.768 40.9458L119.206 41.2768L120.35 41.9419L118.945 42.7726L119.403 43.0392L120.808 42.2086L121.952 42.8721L122.514 42.5427L121.369 41.8761L122.774 41.0469Z" fill="#264F68"/>
<path fill-rule="evenodd" clip-rule="evenodd" d="M113.036 27.4868L112.578 27.2217L111.174 28.0507L110.029 27.3872L109.467 27.7167L110.612 28.3833L109.207 29.2124L109.665 29.479L111.07 28.65L112.215 29.3135L112.776 28.9825L111.631 28.3174L113.036 27.4868Z" fill="#264F68"/>
<path fill-rule="evenodd" clip-rule="evenodd" d="M107.545 24.2953L107.087 24.0303L105.682 24.8593L104.537 24.1958L103.976 24.5252L105.121 25.1918L103.716 26.021L104.174 26.2876L105.578 25.4585L106.723 26.1221L107.285 25.7911L106.14 25.126L107.545 24.2953Z" fill="#264F68"/>
<path fill-rule="evenodd" clip-rule="evenodd" d="M81.8197 33.0528L81.3614 32.7861L79.9561 33.6153L78.8129 32.9516L78.2504 33.2827L79.3952 33.9478L77.99 34.7784L78.4481 35.0435L79.8534 34.2144L80.9967 34.878L81.5591 34.5486L80.4143 33.8819L81.8197 33.0528Z" fill="#264F68"/>
<path fill-rule="evenodd" clip-rule="evenodd" d="M76.3272 29.8604L75.869 29.5938L74.4652 30.4228L73.3205 29.7593L72.7596 30.0903L73.9029 30.7554L72.499 31.5859L72.9558 31.8511L74.361 31.0221L75.5058 31.6856L76.0666 31.3561L74.9235 30.6894L76.3272 29.8604Z" fill="#264F68"/>
<path fill-rule="evenodd" clip-rule="evenodd" d="M88.5631 29.0684L88.1049 28.8018L86.6996 29.6323L85.5549 28.9688L84.994 29.2983L86.1372 29.9649L84.7334 30.7939L85.1917 31.0606L86.5954 30.2316L87.7402 30.8951L88.3026 30.5641L87.1579 29.8989L88.5631 29.0684Z" fill="#264F68"/>
<path fill-rule="evenodd" clip-rule="evenodd" d="M83.0721 25.8765L82.6139 25.6113L81.2086 26.4405L80.0654 25.7768L79.503 26.1064L80.6478 26.773L79.2424 27.602L79.7007 27.8687L81.1059 27.0396L82.2507 27.7032L82.8115 27.3721L81.6668 26.7071L83.0721 25.8765Z" fill="#264F68"/>
<path fill-rule="evenodd" clip-rule="evenodd" d="M95.305 25.086L94.8467 24.8193L93.443 25.65L92.2983 24.9848L91.7374 25.3159L92.8806 25.981L91.4768 26.8115L91.9336 27.0782L93.3388 26.2476L94.4835 26.9112L95.0444 26.5817L93.9013 25.915L95.305 25.086Z" fill="#264F68"/>
<path fill-rule="evenodd" clip-rule="evenodd" d="M89.8158 21.8946L89.3575 21.6279L87.9523 22.4585L86.8075 21.7934L86.2466 22.1245L87.3914 22.7895L85.9861 23.6201L86.4443 23.8868L87.8495 23.0561L88.9928 23.7198L89.5552 23.3902L88.4104 22.7236L89.8158 21.8946Z" fill="#264F68"/>
<path fill-rule="evenodd" clip-rule="evenodd" d="M102.05 21.103L101.592 20.8379L100.187 21.667L99.0434 21.0034L98.481 21.3329L99.6258 21.9995L98.2205 22.8286L98.6787 23.0952L100.084 22.2662L101.229 22.9297L101.79 22.5987L100.645 21.9337L102.05 21.103Z" fill="#264F68"/>
<path fill-rule="evenodd" clip-rule="evenodd" d="M96.5592 17.9106L96.1009 17.6455L94.6956 18.4745L93.5508 17.811L92.9899 18.1404L94.1332 18.8071L92.7295 19.6362L93.1876 19.9029L94.5915 19.0737L95.7362 19.7373L96.2986 19.4063L95.1538 18.7412L96.5592 17.9106Z" fill="#264F68"/>
<path fill-rule="evenodd" clip-rule="evenodd" d="M23.6315 54.5499L23.1749 54.2832L21.7696 55.1138L20.6248 54.4487L20.0639 54.7797L21.2072 55.4449L19.8035 56.2754L20.2616 56.542L21.6654 55.7115L22.8102 56.3765L23.3711 56.0455L22.2278 55.3789L23.6315 54.5499Z" fill="#264F68"/>
<path fill-rule="evenodd" clip-rule="evenodd" d="M18.1378 51.3575L17.6795 51.0908L16.2743 51.9215L15.131 51.2563L14.5687 51.5873L15.7134 52.2525L14.3081 53.0831L14.7664 53.3498L16.1716 52.5191L17.3148 53.1843L17.8772 52.8532L16.7325 52.1866L18.1378 51.3575Z" fill="#264F68"/>
<path fill-rule="evenodd" clip-rule="evenodd" d="M30.3765 50.5665L29.9184 50.2998L28.5146 51.1288L27.3699 50.4653L26.8074 50.7963L27.9522 51.4615L26.5469 52.2905L27.0051 52.5571L28.4104 51.7281L29.5552 52.3916L30.1161 52.0606L28.9728 51.3955L30.3765 50.5665Z" fill="#264F68"/>
<path fill-rule="evenodd" clip-rule="evenodd" d="M24.8814 47.375L24.4232 47.1084L23.018 47.9374L21.8732 47.2739L21.3123 47.6049L22.4571 48.2699L21.0518 49.0991L21.51 49.3657L22.9152 48.5366L24.0585 49.2002L24.6209 48.8692L23.4761 48.2041L24.8814 47.375Z" fill="#264F68"/>
<path fill-rule="evenodd" clip-rule="evenodd" d="M37.1202 46.5831L36.6621 46.3164L35.2567 47.147L34.1135 46.4819L33.5511 46.8129L34.6958 47.4796L33.2905 48.3087L33.7488 48.5754L35.1541 47.7447L36.2973 48.4099L36.8597 48.0788L35.715 47.4137L37.1202 46.5831Z" fill="#264F68"/>
<path fill-rule="evenodd" clip-rule="evenodd" d="M31.6233 43.3907L31.1666 43.124L29.7614 43.9547L28.6166 43.2895L28.0557 43.6206L29.1989 44.2872L27.7952 45.1162L28.2534 45.3829L29.6571 44.5523L30.8019 45.2174L31.3628 44.8863L30.2195 44.2213L31.6233 43.3907Z" fill="#264F68"/>
<path fill-rule="evenodd" clip-rule="evenodd" d="M43.8636 42.6006L43.4055 42.334L42.0001 43.1631L40.8554 42.4995L40.2945 42.8305L41.4393 43.4956L40.0339 44.3263L40.4922 44.5913L41.8975 43.7623L43.0407 44.4258L43.6032 44.0948L42.4584 43.4298L43.8636 42.6006Z" fill="#264F68"/>
<path fill-rule="evenodd" clip-rule="evenodd" d="M38.3685 39.4092L37.9102 39.1426L36.5065 39.9716L35.3618 39.3081L34.7993 39.6391L35.944 40.3042L34.5388 41.1348L34.997 41.3999L36.4023 40.5709L37.547 41.2344L38.1079 40.9034L36.9632 40.2383L38.3685 39.4092Z" fill="#264F68"/>
<path fill-rule="evenodd" clip-rule="evenodd" d="M50.6058 38.6172L50.149 38.3506L48.7438 39.1811L47.599 38.5161L47.0381 38.8471L48.1813 39.5137L46.7776 40.3428L47.2358 40.6094L48.6395 39.7788L49.7843 40.4439L50.3452 40.1129L49.2019 39.4478L50.6058 38.6172Z" fill="#264F68"/>
<path fill-rule="evenodd" clip-rule="evenodd" d="M45.1119 35.4249L44.6536 35.1582L43.2483 35.9888L42.1052 35.3237L41.5427 35.6547L42.6874 36.3214L41.2822 37.1505L41.7404 37.4172L43.1457 36.5865L44.289 37.2516L44.8513 36.9206L43.7066 36.2555L45.1119 35.4249Z" fill="#264F68"/>
<path fill-rule="evenodd" clip-rule="evenodd" d="M57.3463 34.6348L56.888 34.3682L55.4843 35.1972L54.3395 34.5337L53.7772 34.8647L54.9219 35.5298L53.5166 36.3603L53.9748 36.6255L55.3801 35.7965L56.5248 36.46L57.0857 36.129L55.9426 35.4638L57.3463 34.6348Z" fill="#264F68"/>
<path fill-rule="evenodd" clip-rule="evenodd" d="M51.8554 31.4424L51.3973 31.1758L49.992 32.0048L48.8472 31.3413L48.2863 31.6723L49.4311 32.3373L48.0259 33.168L48.484 33.433L49.8893 32.604L51.0326 33.2675L51.595 32.9366L50.4502 32.2715L51.8554 31.4424Z" fill="#264F68"/>
<path fill-rule="evenodd" clip-rule="evenodd" d="M64.0897 30.6504L63.6314 30.3838L62.2261 31.2144L61.083 30.5509L60.5205 30.8803L61.6652 31.5469L60.26 32.3761L60.7181 32.6427L62.1235 31.8121L63.2667 32.4772L63.8291 32.1462L62.6844 31.4811L64.0897 30.6504Z" fill="#264F68"/>
<path fill-rule="evenodd" clip-rule="evenodd" d="M58.5975 27.459L58.1408 27.1924L56.7355 28.0229L55.5907 27.3594L55.0298 27.6889L56.1731 28.3555L54.7693 29.1846L55.2275 29.4512L56.6312 28.6206L57.776 29.2857L58.3369 28.9547L57.1937 28.2896L58.5975 27.459Z" fill="#264F68"/>
<path fill-rule="evenodd" clip-rule="evenodd" d="M12.6455 48.1651L12.1888 47.8984L10.7836 48.7291L9.6388 48.0639L9.07791 48.395L10.2211 49.0601L8.81738 49.8906L9.2756 50.1573L10.6793 49.3267L11.8241 49.9918L12.385 49.6608L11.2418 48.9941L12.6455 48.1651Z" fill="#264F68"/>
<path fill-rule="evenodd" clip-rule="evenodd" d="M19.3905 44.1827L18.9322 43.916L17.5285 44.7452L16.3837 44.0815L15.8212 44.4125L16.966 45.0777L15.5608 45.9067L16.0189 46.1734L17.4242 45.3443L18.569 46.0079L19.1299 45.6768L17.9851 45.0118L19.3905 44.1827Z" fill="#264F68"/>
<path fill-rule="evenodd" clip-rule="evenodd" d="M26.1339 40.1983L25.6757 39.9316L24.2704 40.7623L23.1271 40.0971L22.5648 40.4282L23.7095 41.0948L22.3042 41.9239L22.7624 42.1906L24.1678 41.3599L25.3109 42.0251L25.8734 41.6941L24.7287 41.0289L26.1339 40.1983Z" fill="#264F68"/>
<path fill-rule="evenodd" clip-rule="evenodd" d="M32.8775 36.2168L32.4194 35.9502L31.0141 36.7792L29.8693 36.1157L29.3084 36.4467L30.4532 37.1117L29.0479 37.9424L29.5061 38.2075L30.9098 37.3784L32.0546 38.042L32.6171 37.711L31.4723 37.0459L32.8775 36.2168Z" fill="#264F68"/>
<path fill-rule="evenodd" clip-rule="evenodd" d="M39.6194 32.2325L39.1628 31.9658L37.7575 32.7963L36.6127 32.1313L36.0518 32.4623L37.1951 33.129L35.7913 33.958L36.2495 34.2247L37.6532 33.394L38.798 34.0592L39.3589 33.7281L38.2157 33.063L39.6194 32.2325Z" fill="#264F68"/>
<path fill-rule="evenodd" clip-rule="evenodd" d="M46.3599 28.2501L45.9017 27.9834L44.498 28.8124L43.3532 28.1489L42.7908 28.4799L43.9356 29.1451L42.5303 29.9756L42.9885 30.2407L44.3937 29.4117L45.5385 30.0752L46.0994 29.7457L44.9546 29.0791L46.3599 28.2501Z" fill="#264F68"/>
<path fill-rule="evenodd" clip-rule="evenodd" d="M53.1036 24.2667L52.6453 24L51.2401 24.8306L50.0969 24.1671L49.5345 24.4965L50.6793 25.1632L49.2739 25.9923L49.7322 26.259L51.1374 25.4283L52.2807 26.0934L52.843 25.7624L51.6983 25.0973L53.1036 24.2667Z" fill="#264F68"/>
<path fill-rule="evenodd" clip-rule="evenodd" d="M70.8333 26.668L70.3751 26.4014L68.9698 27.2305L67.825 26.5669L67.2641 26.8979L68.4089 27.563L67.0037 28.3937L67.4618 28.6587L68.8671 27.8297L70.0104 28.4932L70.5728 28.1638L69.428 27.4972L70.8333 26.668Z" fill="#264F68"/>
<path fill-rule="evenodd" clip-rule="evenodd" d="M65.3424 23.4756L64.8842 23.209L63.4804 24.038L62.3356 23.3745L61.7733 23.7055L62.918 24.3706L61.5127 25.2012L61.9709 25.4663L63.3763 24.6373L64.521 25.3008L65.0819 24.9713L63.9387 24.3047L65.3424 23.4756Z" fill="#264F68"/>
<path fill-rule="evenodd" clip-rule="evenodd" d="M77.5751 22.6841L77.1185 22.4189L75.7132 23.248L74.5684 22.5845L74.0075 22.914L75.1508 23.5806L73.7471 24.4096L74.2052 24.6763L75.609 23.8473L76.7538 24.5108L77.3147 24.1798L76.1714 23.5146L77.5751 22.6841Z" fill="#264F68"/>
<path fill-rule="evenodd" clip-rule="evenodd" d="M72.0858 19.4926L71.6275 19.2275L70.2223 20.0566L69.079 19.393L68.5167 19.7225L69.6614 20.3891L68.2561 21.2182L68.7144 21.4849L70.1196 20.6557L71.2628 21.3194L71.8252 20.9884L70.6804 20.3232L72.0858 19.4926Z" fill="#264F68"/>
<path fill-rule="evenodd" clip-rule="evenodd" d="M84.3201 18.7022L83.862 18.4355L82.4582 19.2661L81.3134 18.6011L80.751 18.9321L81.8958 19.5971L80.4905 20.4277L80.9487 20.6944L82.354 19.8637L83.4988 20.5274L84.0597 20.1979L82.9164 19.5312L84.3201 18.7022Z" fill="#264F68"/>
<path fill-rule="evenodd" clip-rule="evenodd" d="M78.8294 15.5098L78.3712 15.2432L76.966 16.0738L75.8212 15.4087L75.2603 15.7397L76.4051 16.4048L74.9998 17.2355L75.458 17.5021L76.8632 16.6715L78.0065 17.335L78.5689 17.0056L77.4241 16.339L78.8294 15.5098Z" fill="#264F68"/>
<path fill-rule="evenodd" clip-rule="evenodd" d="M91.0638 14.7183L90.6057 14.4531L89.2003 15.2823L88.0571 14.6186L87.4947 14.9482L88.6395 15.6148L87.2341 16.4438L87.6924 16.7105L89.0977 15.8814L90.2425 16.545L90.8034 16.2139L89.6586 15.5489L91.0638 14.7183Z" fill="#264F68"/>
<path fill-rule="evenodd" clip-rule="evenodd" d="M85.5713 11.5268L85.1146 11.2617L83.7094 12.0908L82.5646 11.4272L82.0037 11.7567L83.1469 12.4234L81.7432 13.2524L82.2014 13.5191L83.6051 12.69L84.7499 13.3536L85.3108 13.0225L84.1675 12.3574L85.5713 11.5268Z" fill="#264F68"/>
<path fill-rule="evenodd" clip-rule="evenodd" d="M59.847 20.2842L59.3888 20.0176L57.9834 20.8466L56.8387 20.1831L56.2778 20.5141L57.4225 21.1791L56.0173 22.0098L56.4755 22.2749L57.8808 21.4458L59.0241 22.1094L59.5864 21.7799L58.4417 21.1133L59.847 20.2842Z" fill="#264F68"/>
<path fill-rule="evenodd" clip-rule="evenodd" d="M66.589 16.3003L66.1324 16.0352L64.7271 16.8642L63.5823 16.2007L63.0214 16.5302L64.1647 17.1968L62.761 18.0258L63.2191 18.2925L64.6229 17.4635L65.7677 18.127L66.3286 17.796L65.1853 17.1308L66.589 16.3003Z" fill="#264F68"/>
<path fill-rule="evenodd" clip-rule="evenodd" d="M73.3341 12.3184L72.8759 12.0518L71.4721 12.8823L70.3274 12.2173L69.765 12.5483L70.9097 13.2133L69.5044 14.044L69.9626 14.3106L71.368 13.48L72.5127 14.1436L73.0736 13.8141L71.9289 13.1475L73.3341 12.3184Z" fill="#264F68"/>
<path fill-rule="evenodd" clip-rule="evenodd" d="M80.0775 8.33348L79.6193 8.06836L78.214 8.89744L77.0707 8.23387L76.5084 8.56335L77.6531 9.22998L76.2478 10.0591L76.706 10.3257L78.1114 9.49663L79.2545 10.1602L79.817 9.82918L78.6723 9.16409L80.0775 8.33348Z" fill="#264F68"/>
<path fill-rule="evenodd" clip-rule="evenodd" d="M124.023 33.8716L123.564 33.6064L122.161 34.4355L121.016 33.772L120.453 34.1015L121.598 34.7681L120.193 35.5971L120.651 35.8638L122.056 35.0348L123.201 35.6983L123.762 35.3673L122.617 34.7021L124.023 33.8716Z" fill="#264F68"/>
<path fill-rule="evenodd" clip-rule="evenodd" d="M118.531 30.6791L118.074 30.4141L116.668 31.2431L115.523 30.5796L114.963 30.909L116.107 31.5756L114.702 32.4048L115.16 32.6714L116.564 31.8423L117.708 32.5059L118.271 32.1749L117.127 31.5097L118.531 30.6791Z" fill="#264F68"/>
<path fill-rule="evenodd" clip-rule="evenodd" d="M135.008 40.2564L134.551 39.9912L133.146 40.8202L132.002 40.1567L131.44 40.4862L132.584 41.1529L131.179 41.9819L131.637 42.2486L133.043 41.4195L134.188 42.0831L134.749 41.752L133.604 41.0869L135.008 40.2564Z" fill="#264F68"/>
<path fill-rule="evenodd" clip-rule="evenodd" d="M129.518 37.064L129.059 36.7988L127.655 37.628L126.51 36.9643L125.949 37.2939L127.094 37.9605L125.688 38.7895L126.147 39.0562L127.55 38.2271L128.695 38.8907L129.257 38.5596L128.112 37.8946L129.518 37.064Z" fill="#264F68"/>
</g>
<defs>
<clipPath id="clip0_113_2333">
<rect width="143.67" height="99.9943" fill="white" transform="translate(0.794189 0.78418)"/>
</clipPath>
</defs>
</svg>
