<svg width="131" height="101" viewBox="0 0 131 101" fill="none" xmlns="http://www.w3.org/2000/svg">
<g clip-path="url(#clip0_113_2106)">
<path d="M126.575 40.7897L126.517 41.2313L126.479 41.3668L126.352 41.6105L126.252 41.7397L125.992 41.9897L125.835 42.1126C110.229 51.1188 63.3729 78.873 47.7689 87.8793C46.2917 87.8648 44.8126 87.8501 43.3354 87.8355C27.7542 78.846 20.5084 74.0188 4.92715 65.0293L4.7709 64.9063L4.51048 64.6563L4.41048 64.5272L4.2834 64.2835L4.2459 64.148L4.18757 63.7063V62.3523V60.2688V52.6626L4.2459 52.221L4.2834 52.0855L4.41048 51.8438L4.51048 51.7126L4.7709 51.4626L4.92715 51.3397C20.5084 42.3501 67.3376 14.6085 82.9189 5.6168C84.3959 5.6022 85.8751 5.58972 87.3521 5.57514C102.956 14.5793 110.229 19.4168 125.835 28.423L125.992 28.546L126.252 28.796L126.352 28.9272L126.479 29.1688L126.517 29.3043L126.575 29.746V37.3522V39.4355V40.7897ZM126.517 49.5647L126.479 49.7001L126.352 49.9438L126.252 50.073L125.992 50.323L125.835 50.446C110.229 59.4522 63.3729 87.2063 47.7689 96.2126C46.2917 96.198 44.8126 96.1835 43.3354 96.1688C27.7542 87.1793 20.5084 82.3522 4.92715 73.3626L4.7709 73.2397L4.51048 72.9897L4.41048 72.8605L4.2834 72.6168L4.2459 72.4813L4.18757 72.0397V68.5168C19.1939 77.1793 25.8667 81.673 40.8729 90.3335C41.9814 90.896 43.6104 91.5188 45.5896 91.5188C47.6854 91.5188 49.3209 90.823 50.3064 90.3335C53.7209 88.6438 101.704 60.3188 126.575 45.6147V49.123L126.517 49.5647ZM129.942 29.5147C129.94 29.4751 129.956 29.4397 129.95 29.398L129.86 28.7522C129.854 28.7188 129.833 28.6938 129.829 28.6647C129.823 28.6313 129.831 28.6001 129.825 28.5688L129.717 28.1397C129.7 28.071 129.654 28.0188 129.627 27.9563C129.602 27.8918 129.602 27.821 129.569 27.7585L129.283 27.221C129.26 27.1813 129.223 27.1563 129.198 27.1188C129.175 27.0793 129.167 27.0355 129.142 27.0001L128.875 26.6418C128.846 26.6043 128.804 26.5897 128.775 26.5522C128.74 26.5147 128.727 26.4668 128.692 26.4335L128.277 26.0397C128.256 26.0168 128.227 26.0126 128.202 25.9938C128.181 25.973 128.171 25.948 128.15 25.9293L127.827 25.6772C127.794 25.6522 127.752 25.6438 127.721 25.6251C127.685 25.6022 127.667 25.5668 127.631 25.546C103.085 11.0335 93.3521 4.83347 89.8896 3.11887C88.9042 2.63137 87.2689 1.93555 85.1729 1.93555C83.1939 1.93555 81.5647 2.55637 80.4564 3.11887C65.0979 11.9835 18.4896 39.598 3.13132 48.4626C3.09382 48.4835 3.07715 48.5188 3.04173 48.5418C3.0084 48.5605 2.96882 48.5688 2.93548 48.5938L2.61257 48.846C2.59174 48.8647 2.58132 48.8897 2.56048 48.9105C2.53548 48.9293 2.50632 48.9335 2.48548 48.9563L2.0709 49.3501C2.03548 49.3835 2.02299 49.4313 1.98757 49.4688C1.9584 49.5063 1.91674 49.521 1.88757 49.5585L1.61882 49.9168C1.5959 49.9522 1.58756 49.996 1.56465 50.0335C1.53965 50.073 1.50215 50.098 1.47923 50.1376L1.19174 50.6751C1.16049 50.7376 1.16049 50.8085 1.13549 50.873C1.1084 50.9355 1.06256 50.9876 1.0459 51.0563L0.937567 51.4855C0.929233 51.5168 0.939652 51.548 0.933402 51.5813C0.927152 51.6105 0.908396 51.6355 0.902146 51.6688L0.812564 52.3148C0.806314 52.3563 0.822984 52.3918 0.820901 52.4313C0.818817 52.471 0.795898 52.5063 0.795898 52.546V60.2688V62.3523V63.8251V72.1585C0.795898 72.196 0.818817 72.2313 0.820901 72.271C0.822984 72.3105 0.806314 72.346 0.812564 72.3876L0.902146 73.0355C0.908396 73.0668 0.927152 73.0918 0.933402 73.123C0.939652 73.1543 0.929233 73.1855 0.937567 73.2168L1.0459 73.646C1.06256 73.7168 1.1084 73.7668 1.13549 73.8293C1.16049 73.896 1.16049 73.9648 1.19174 74.0273L1.47923 74.5648C1.50215 74.6043 1.53965 74.6293 1.56465 74.6688C1.58756 74.7063 1.5959 74.7501 1.61882 74.7855L1.88757 75.1438C1.91674 75.1813 1.9584 75.198 1.98757 75.2335C2.02299 75.271 2.03548 75.3188 2.0709 75.3522L2.48548 75.746C2.50632 75.7688 2.53548 75.773 2.56048 75.7918C2.58132 75.8148 2.59174 75.8376 2.61257 75.8563L2.93548 76.1085C2.96882 76.1335 3.0084 76.1418 3.04173 76.1626C3.07715 76.1835 3.09382 76.2188 3.13132 76.2418C18.4896 85.1043 25.5146 89.8022 40.8729 98.6668C41.9814 99.2293 43.6104 99.8522 45.5896 99.8522C47.6854 99.8522 49.3209 99.1563 50.3064 98.6668C53.7689 96.9522 103.085 67.8355 127.631 53.3251C127.667 53.3022 127.685 53.2668 127.721 53.246C127.752 53.2251 127.794 53.2168 127.827 53.1918L128.15 52.9398C128.171 52.921 128.181 52.898 128.202 52.8751C128.227 52.8563 128.256 52.8523 128.277 52.8293L128.692 52.4355C128.727 52.4023 128.74 52.3543 128.775 52.3168C128.804 52.2813 128.846 52.2648 128.875 52.2273L129.142 51.8688C129.167 51.8335 129.175 51.7897 129.198 51.7522C129.223 51.7126 129.26 51.6876 129.283 51.648L129.569 51.1105C129.602 51.048 129.602 50.9793 129.627 50.9126C129.654 50.8501 129.7 50.8001 129.717 50.7293L129.825 50.3001C129.831 50.2688 129.823 50.2376 129.829 50.2063C129.833 50.1751 129.854 50.1501 129.86 50.1188L129.95 49.471C129.956 49.4293 129.94 49.3938 129.942 49.3543C129.944 49.3147 129.967 49.2793 129.967 49.2418V40.9085V39.4355V37.3522V29.6293C129.967 29.5897 129.944 29.5543 129.942 29.5147Z" fill="#264F68"/>
<path fill-rule="evenodd" clip-rule="evenodd" d="M24.5079 48.84L23.885 48.4795L21.9746 49.6067L20.4205 48.7045L19.6558 49.1545L21.2121 50.0587L19.3018 51.1857L19.9246 51.5482L21.835 50.4212L23.3913 51.3232L24.1538 50.8732L22.5975 49.9692L24.5079 48.84Z" fill="#264F68"/>
<path fill-rule="evenodd" clip-rule="evenodd" d="M39.4431 57.5195L38.8203 57.1592L36.9118 58.2862L35.3556 57.3842L34.591 57.8342L36.1473 58.7382L34.2368 59.8654L34.8598 60.2279L36.7703 59.1007L38.3265 60.0029L39.089 59.5529L37.5328 58.6487L39.4431 57.5195Z" fill="#264F68"/>
<path fill-rule="evenodd" clip-rule="evenodd" d="M31.9729 53.1798L31.3499 52.8193L29.4396 53.9464L27.8833 53.0443L27.1208 53.4943L28.6771 54.3986L26.7666 55.5256L27.3896 55.8881L29.2979 54.7611L30.8541 55.6631L31.6186 55.2131L30.0624 54.3089L31.9729 53.1798Z" fill="#264F68"/>
<path fill-rule="evenodd" clip-rule="evenodd" d="M54.3786 66.1984L53.7558 65.8379L51.8474 66.9649L50.2911 66.0629L49.5266 66.5129L51.0828 67.4171L49.1724 68.5441L49.7953 68.9066L51.7058 67.7796L53.2621 68.6816L54.0246 68.2316L52.4683 67.3274L54.3786 66.1984Z" fill="#264F68"/>
<path fill-rule="evenodd" clip-rule="evenodd" d="M46.9079 61.8585L46.2849 61.498L44.3746 62.6251L42.8184 61.723L42.0559 62.173L43.6121 63.0773L41.7017 64.2043L42.3246 64.5668L44.2329 63.4398L45.7892 64.3418L46.5537 63.8918L44.9974 62.9876L46.9079 61.8585Z" fill="#264F68"/>
<path fill-rule="evenodd" clip-rule="evenodd" d="M33.6755 43.426L33.0527 43.0635L31.1422 44.1927L29.588 43.2885L28.8235 43.7385L30.3797 44.6427L28.4692 45.7719L29.0922 46.1344L31.0027 45.0052L32.5567 45.9094L33.3214 45.4594L31.7652 44.5532L33.6755 43.426Z" fill="#264F68"/>
<path fill-rule="evenodd" clip-rule="evenodd" d="M48.6105 52.1047L47.9877 51.7422L46.0773 52.8714L44.523 51.9672L43.7585 52.4172L45.3148 53.3214L43.4043 54.4506L44.0273 54.8131L45.9377 53.6839L47.4918 54.5881L48.2565 54.1381L46.7002 53.2319L48.6105 52.1047Z" fill="#264F68"/>
<path fill-rule="evenodd" clip-rule="evenodd" d="M41.1381 47.7658L40.5153 47.4033L38.6069 48.5325L37.0506 47.6283L36.2881 48.0783L37.8424 48.9825L35.9341 50.1116L36.5549 50.4741L38.4653 49.345L40.0216 50.2491L40.7841 49.7991L39.2299 48.8929L41.1381 47.7658Z" fill="#264F68"/>
<path fill-rule="evenodd" clip-rule="evenodd" d="M63.5461 60.7844L62.9233 60.4219L61.0128 61.5511L59.4586 60.6469L58.6941 61.0969L60.2503 62.0011L58.3398 63.1303L58.9628 63.4928L60.8733 62.3636L62.4273 63.2678L63.192 62.8178L61.6358 61.9116L63.5461 60.7844Z" fill="#264F68"/>
<path fill-rule="evenodd" clip-rule="evenodd" d="M56.0732 56.4445L55.4524 56.082L53.5419 57.2111L51.9857 56.307L51.2232 56.757L52.7774 57.6611L50.8691 58.7903L51.4919 59.1528L53.4004 58.0236L54.9566 58.9278L55.7191 58.4778L54.1649 57.5716L56.0732 56.4445Z" fill="#264F68"/>
<path fill-rule="evenodd" clip-rule="evenodd" d="M42.843 38.0129L42.2202 37.6504L40.3097 38.7774L38.7534 37.8754L37.9909 38.3254L39.5472 39.2295L37.6367 40.3566L38.2597 40.7191L40.168 39.592L41.7242 40.4941L42.4889 40.0441L40.9327 39.1399L42.843 38.0129Z" fill="#264F68"/>
<path fill-rule="evenodd" clip-rule="evenodd" d="M57.778 46.6916L57.1552 46.3291L55.2447 47.4563L53.6885 46.5541L52.926 47.0041L54.4822 47.9083L52.5718 49.0354L53.1947 49.3979L55.103 48.2708L56.6593 49.1729L57.424 48.7229L55.8677 47.8188L57.778 46.6916Z" fill="#264F68"/>
<path fill-rule="evenodd" clip-rule="evenodd" d="M50.3078 42.3518L49.6848 41.9893L47.7766 43.1163L46.2203 42.2143L45.4556 42.6643L47.0119 43.5685L45.1016 44.6955L45.7244 45.058L47.6348 43.931L49.1911 44.833L49.9536 44.383L48.3973 43.4788L50.3078 42.3518Z" fill="#264F68"/>
<path fill-rule="evenodd" clip-rule="evenodd" d="M72.7136 55.3683L72.0906 55.0078L70.1803 56.1348L68.624 55.2328L67.8615 55.6828L69.4178 56.587L67.5073 57.7141L68.1303 58.0766L70.0386 56.9495L71.5948 57.8516L72.3594 57.4016L70.8031 56.4973L72.7136 55.3683Z" fill="#264F68"/>
<path fill-rule="evenodd" clip-rule="evenodd" d="M65.2429 51.0314L64.6199 50.6689L62.7116 51.796L61.1554 50.8939L60.3907 51.3439L61.9469 52.2482L60.0366 53.3752L60.6594 53.7377L62.5699 52.6107L64.1261 53.5127L64.8887 53.0627L63.3324 52.1585L65.2429 51.0314Z" fill="#264F68"/>
<path fill-rule="evenodd" clip-rule="evenodd" d="M52.0084 32.5969L51.3855 32.2344L49.4772 33.3634L47.9209 32.4594L47.1584 32.9094L48.7125 33.8156L46.8042 34.9427L47.425 35.3052L49.3355 34.1759L50.8917 35.0802L51.6542 34.6302L50.1 33.7259L52.0084 32.5969Z" fill="#264F68"/>
<path fill-rule="evenodd" clip-rule="evenodd" d="M66.9435 41.2756L66.3205 40.9131L64.4122 42.0421L62.856 41.1381L62.0935 41.5881L63.6475 42.4943L61.7393 43.6214L62.3622 43.9839L64.2705 42.8546L65.8268 43.7589L66.5893 43.3089L65.035 42.4046L66.9435 41.2756Z" fill="#264F68"/>
<path fill-rule="evenodd" clip-rule="evenodd" d="M59.4753 36.9367L58.8523 36.5742L56.9419 37.7034L55.3878 36.7992L54.6231 37.2492L56.1794 38.1555L54.269 39.2827L54.8919 39.6452L56.8023 38.5159L58.3565 39.4202L59.1211 38.9702L57.5648 38.0659L59.4753 36.9367Z" fill="#264F68"/>
<path fill-rule="evenodd" clip-rule="evenodd" d="M81.879 49.9553L81.2581 49.5928L79.3478 50.7218L77.7915 49.8178L77.029 50.2678L78.5831 51.174L76.6748 52.3011L77.2978 52.6636L79.2061 51.5343L80.7623 52.4386L81.5248 51.9886L79.9706 51.0843L81.879 49.9553Z" fill="#264F68"/>
<path fill-rule="evenodd" clip-rule="evenodd" d="M74.4104 45.6154L73.7875 45.2529L71.8771 46.3821L70.323 45.4779L69.5583 45.9279L71.1146 46.8342L69.2041 47.9612L69.8271 48.3237L71.7375 47.1946L73.2918 48.0987L74.0563 47.6487L72.5 46.7446L74.4104 45.6154Z" fill="#264F68"/>
<path fill-rule="evenodd" clip-rule="evenodd" d="M61.1721 27.1828L60.5491 26.8203L58.6408 27.9473L57.0846 27.0453L56.32 27.4953L57.8763 28.3995L55.9658 29.5286L56.5888 29.8891L58.4991 28.762L60.0553 29.6641L60.8178 29.2141L59.2616 28.3098L61.1721 27.1828Z" fill="#264F68"/>
<path fill-rule="evenodd" clip-rule="evenodd" d="M76.1071 35.8615L75.4842 35.499L73.5759 36.6261L72.0196 35.724L71.2551 36.174L72.8114 37.0782L70.9009 38.2073L71.5238 38.5678L73.4342 37.4407L74.9904 38.3428L75.7529 37.8928L74.1967 36.9886L76.1071 35.8615Z" fill="#264F68"/>
<path fill-rule="evenodd" clip-rule="evenodd" d="M68.6423 31.5227L68.0195 31.1602L66.109 32.2872L64.5528 31.3852L63.7903 31.8352L65.3465 32.7392L63.436 33.8684L64.059 34.2287L65.9673 33.1017L67.5235 34.0037L68.2882 33.5539L66.732 32.6497L68.6423 31.5227Z" fill="#264F68"/>
<path fill-rule="evenodd" clip-rule="evenodd" d="M91.0427 44.5412L90.4197 44.1787L88.5114 45.3057L86.9552 44.4037L86.1905 44.8537L87.7467 45.7578L85.8364 46.887L86.4592 47.2475L88.3697 46.1203L89.926 47.0225L90.6885 46.5725L89.1322 45.6682L91.0427 44.5412Z" fill="#264F68"/>
<path fill-rule="evenodd" clip-rule="evenodd" d="M83.5778 40.2014L82.955 39.8389L81.0446 40.9661L79.4883 40.0639L78.7258 40.5139L80.2821 41.4181L78.3716 42.5473L78.9946 42.9076L80.9028 41.7806L82.4591 42.6826L83.2238 42.2326L81.6675 41.3286L83.5778 40.2014Z" fill="#264F68"/>
<path fill-rule="evenodd" clip-rule="evenodd" d="M70.3396 21.7668L69.7166 21.4043L67.8061 22.5335L66.2521 21.6293L65.4874 22.0793L67.0436 22.9855L65.1333 24.1127L65.7561 24.4752L67.6666 23.346L69.2208 24.2502L69.9853 23.8002L68.4291 22.896L70.3396 21.7668Z" fill="#264F68"/>
<path fill-rule="evenodd" clip-rule="evenodd" d="M85.2746 30.4455L84.6516 30.083L82.7412 31.2122L81.1871 30.308L80.4224 30.758L81.9787 31.6643L80.0684 32.7914L80.6912 33.1539L82.6016 32.0247L84.1559 32.9289L84.9204 32.4789L83.3641 31.5747L85.2746 30.4455Z" fill="#264F68"/>
<path fill-rule="evenodd" clip-rule="evenodd" d="M77.8077 26.1066L77.1848 25.7441L75.2765 26.8732L73.7202 25.9691L72.9577 26.4191L74.5119 27.3254L72.6035 28.4524L73.2245 28.8149L75.1348 27.6857L76.691 28.5899L77.4535 28.1399L75.8995 27.2357L77.8077 26.1066Z" fill="#264F68"/>
<path fill-rule="evenodd" clip-rule="evenodd" d="M100.21 39.1252L99.5872 38.7627L97.6767 39.8919L96.1227 38.9877L95.358 39.4377L96.9142 40.3439L95.0039 41.471L95.6267 41.8335L97.5372 40.7044L99.0914 41.6085L99.8559 41.1585L98.2997 40.2544L100.21 39.1252Z" fill="#264F68"/>
<path fill-rule="evenodd" clip-rule="evenodd" d="M92.7433 34.7854L92.1225 34.4229L90.212 35.5519L88.6558 34.6479L87.8933 35.0979L89.4475 36.0041L87.5391 37.1311L88.162 37.4936L90.0703 36.3644L91.6266 37.2686L92.3891 36.8186L90.835 35.9144L92.7433 34.7854Z" fill="#264F68"/>
<path fill-rule="evenodd" clip-rule="evenodd" d="M79.507 16.3527L78.8841 15.9902L76.9736 17.1173L75.4173 16.2152L74.6548 16.6653L76.2111 17.5694L74.3008 18.6986L74.9236 19.0591L76.832 17.9319L78.3883 18.8341L79.1528 18.3841L77.5966 17.4798L79.507 16.3527Z" fill="#264F68"/>
<path fill-rule="evenodd" clip-rule="evenodd" d="M94.4421 25.0314L93.8191 24.6689L91.9086 25.7961L90.3524 24.8939L89.5899 25.3439L91.1462 26.2482L89.2358 27.3774L89.8586 27.7377L91.7671 26.6107L93.3233 27.5127L94.0879 27.0627L92.5316 26.1586L94.4421 25.0314Z" fill="#264F68"/>
<path fill-rule="evenodd" clip-rule="evenodd" d="M86.9772 20.6926L86.3544 20.3301L84.446 21.4571L82.8897 20.5551L82.1252 21.0051L83.6815 21.9093L81.771 23.0384L82.394 23.3988L84.3044 22.2718L85.8607 23.1738L86.6232 22.7238L85.0669 21.8196L86.9772 20.6926Z" fill="#264F68"/>
<path fill-rule="evenodd" clip-rule="evenodd" d="M109.378 33.7111L108.755 33.3486L106.844 34.4758L105.288 33.5736L104.525 34.0236L106.082 34.9279L104.171 36.0571L104.794 36.4174L106.705 35.2904L108.259 36.1924L109.023 35.7424L107.467 34.8383L109.378 33.7111Z" fill="#264F68"/>
<path fill-rule="evenodd" clip-rule="evenodd" d="M101.913 29.3713L101.29 29.0088L99.3815 30.1358L97.8253 29.2338L97.0608 29.6838L98.617 30.588L96.7065 31.7171L97.3295 32.0775L99.2398 30.9505L100.796 31.8525L101.559 31.4025L100.002 30.4983L101.913 29.3713Z" fill="#264F68"/>
<path fill-rule="evenodd" clip-rule="evenodd" d="M88.6723 10.9367L88.0495 10.5742L86.1411 11.7034L84.5848 10.8013L83.8223 11.2492L85.3765 12.1555L83.4683 13.2825L84.089 13.645L85.9995 12.5159L87.5558 13.42L88.3183 12.97L86.764 12.0659L88.6723 10.9367Z" fill="#264F68"/>
<path fill-rule="evenodd" clip-rule="evenodd" d="M103.607 19.6164L102.987 19.2539L101.076 20.383L99.5199 19.4809L98.7574 19.9289L100.312 20.8352L98.4033 21.9622L99.0261 22.3247L100.934 21.1955L102.491 22.0997L103.253 21.6497L101.699 20.7455L103.607 19.6164Z" fill="#264F68"/>
<path fill-rule="evenodd" clip-rule="evenodd" d="M96.1447 15.2766L95.5218 14.9141L93.6114 16.0432L92.0572 15.1411L91.2927 15.5891L92.8489 16.4953L90.9385 17.6225L91.5614 17.985L93.4718 16.8557L95.026 17.76L95.7905 17.31L94.2343 16.4057L96.1447 15.2766Z" fill="#264F68"/>
<path fill-rule="evenodd" clip-rule="evenodd" d="M118.543 28.2951L117.922 27.9326L116.011 29.0617L114.455 28.1596L113.693 28.6076L115.247 29.5139L113.338 30.6409L113.961 31.0034L115.87 29.8742L117.426 30.7784L118.188 30.3284L116.634 29.4242L118.543 28.2951Z" fill="#264F68"/>
<path fill-rule="evenodd" clip-rule="evenodd" d="M111.08 23.9553L110.457 23.5928L108.547 24.722L106.993 23.8198L106.228 24.2678L107.784 25.174L105.874 26.3011L106.497 26.6636L108.407 25.5345L109.962 26.4386L110.726 25.9886L109.17 25.0845L111.08 23.9553Z" fill="#264F68"/>
<path fill-rule="evenodd" clip-rule="evenodd" d="M15.3384 54.2561L14.7155 53.8936L12.8072 55.0228L11.2509 54.1186L10.4884 54.5686L12.0426 55.4728L10.1343 56.6018L10.7551 56.9643L12.6655 55.8353L14.2218 56.7393L14.9843 56.2893L13.4301 55.3831L15.3384 54.2561Z" fill="#264F68"/>
<path fill-rule="evenodd" clip-rule="evenodd" d="M30.2739 62.9348L29.6511 62.5723L27.7426 63.7015L26.1864 62.7973L25.4239 63.2473L26.9781 64.1515L25.0698 65.2806L25.6906 65.643L27.6011 64.514L29.1573 65.418L29.9198 64.9681L28.3656 64.0618L30.2739 62.9348Z" fill="#264F68"/>
<path fill-rule="evenodd" clip-rule="evenodd" d="M22.8049 58.5949L22.1819 58.2324L20.2716 59.3616L18.7174 58.4574L17.9529 58.9074L19.5091 59.8116L17.5986 60.9409L18.2216 61.3034L20.1319 60.1741L21.6861 61.0784L22.4507 60.6284L20.8944 59.7221L22.8049 58.5949Z" fill="#264F68"/>
<path fill-rule="evenodd" clip-rule="evenodd" d="M45.2089 71.6145L44.5882 71.252L42.6777 72.381L41.1214 71.4769L40.3589 71.927L41.9132 72.831L40.0049 73.9602L40.6277 74.3227L42.536 73.1935L44.0922 74.0977L44.8547 73.6477L43.3007 72.7415L45.2089 71.6145Z" fill="#264F68"/>
<path fill-rule="evenodd" clip-rule="evenodd" d="M37.7404 67.2746L37.1175 66.9121L35.2071 68.0413L33.6529 67.1371L32.8884 67.5871L34.4446 68.4913L32.5342 69.6205L33.1571 69.983L35.0675 68.8538L36.6217 69.758L37.3862 69.308L35.83 68.4018L37.7404 67.2746Z" fill="#264F68"/>
</g>
<defs>
<clipPath id="clip0_113_2106">
<rect width="129.688" height="100" fill="white" transform="translate(0.795898 0.78125)"/>
</clipPath>
</defs>
</svg>
