<svg width="31" height="24" viewBox="0 0 31 24" fill="none" xmlns="http://www.w3.org/2000/svg">
<path d="M15.3595 22.2831C20.9916 22.2831 25.5572 17.7174 25.5572 12.0854C25.5572 6.45337 20.9916 1.8877 15.3595 1.8877C9.72747 1.8877 5.1618 6.45337 5.1618 12.0854C5.1618 17.7174 9.72747 22.2831 15.3595 22.2831Z" fill="black"/>
<path d="M18.5721 11.5952C18.5141 11.5672 18.456 11.5413 18.3959 11.5154C18.2922 9.60583 17.2494 8.51318 15.4974 8.50177C15.4891 8.50177 15.4818 8.50177 15.4735 8.50177C14.4255 8.50177 13.5547 8.94858 13.0177 9.76236L13.9807 10.4227C14.3809 9.81523 15.0102 9.68565 15.4735 9.68565C15.4787 9.68565 15.4839 9.68565 15.4891 9.68565C16.0655 9.6898 16.5009 9.8567 16.7829 10.1843C16.9881 10.4227 17.125 10.7513 17.1923 11.167C16.6813 11.08 16.1277 11.053 15.5368 11.0872C13.8709 11.1836 12.801 12.155 12.8725 13.5037C12.9088 14.1879 13.2499 14.7778 13.8325 15.1624C14.3249 15.4879 14.9594 15.6465 15.6197 15.6102C16.4905 15.5625 17.1737 15.2298 17.6505 14.6223C18.0123 14.1609 18.2414 13.5628 18.343 12.8091C18.7577 13.06 19.0656 13.3897 19.2356 13.7857C19.5248 14.4595 19.5414 15.5667 18.6385 16.4686C17.8475 17.2596 16.8959 17.6017 15.458 17.612C13.8636 17.6006 12.6569 17.0885 11.8732 16.0923C11.1392 15.1593 10.7598 13.8106 10.7453 12.0845C10.7598 10.3584 11.1392 9.01078 11.8732 8.07674C12.6569 7.07946 13.8636 6.56839 15.458 6.55698C17.0648 6.56942 18.2912 7.08257 19.106 8.084C19.5051 8.57538 19.8058 9.19323 20.0048 9.91372L21.1338 9.61205C20.8932 8.72569 20.5149 7.96167 19.9996 7.32826C18.9557 6.04383 17.4297 5.38555 15.4621 5.37207H15.4538C13.4904 5.38555 11.981 6.04591 10.9671 7.33552C10.0652 8.48311 9.59978 10.0785 9.58319 12.0793V12.0845V12.0897C9.59874 14.0905 10.0642 15.6869 10.9671 16.8335C11.981 18.1221 13.4904 18.7835 15.4538 18.7969H15.4621C17.2069 18.7845 18.4374 18.3284 19.4512 17.3155C20.7771 15.9907 20.7367 14.331 20.3003 13.3109C19.9872 12.5811 19.389 11.9871 18.5721 11.5952ZM15.5585 14.4284C14.8287 14.4699 14.0699 14.1423 14.0326 13.4405C14.0046 12.9201 14.4027 12.3395 15.6031 12.2701C15.741 12.2618 15.8758 12.2587 16.0074 12.2587C16.4439 12.2587 16.8513 12.3012 17.2224 12.382C17.0845 14.1081 16.2739 14.389 15.5585 14.4284Z" fill="white"/>
</svg>
