<svg width="86" height="101" viewBox="0 0 86 101" fill="none" xmlns="http://www.w3.org/2000/svg">
<g clip-path="url(#clip0_111_1649)">
<path d="M0.258797 77.2298L0.319009 77.5899C0.32019 77.604 0.329635 77.6147 0.331997 77.63C0.335538 77.643 0.331997 77.6536 0.334358 77.6666L0.394571 77.9027C0.407558 77.9511 0.433532 77.9889 0.452422 78.0338C0.464229 78.0609 0.463048 78.0905 0.477216 78.1176L0.636602 78.4163C0.648409 78.4376 0.666119 78.4541 0.677925 78.4753C0.686189 78.486 0.68737 78.5013 0.696815 78.5131L0.834951 78.7127C0.853841 78.7374 0.882176 78.7481 0.903428 78.7717C0.934125 78.8083 0.953015 78.8508 0.988434 78.8827L1.21748 79.0834C1.21984 79.0857 1.22102 79.0857 1.22338 79.0869C1.22456 79.0881 1.22574 79.0905 1.22692 79.0916L1.41465 79.2522C1.43944 79.2723 1.47132 79.2794 1.49611 79.2994C1.51736 79.3148 1.52917 79.3372 1.55396 79.3502L37.4857 100.088C37.5128 100.106 37.5411 100.112 37.5695 100.124C37.5837 100.128 37.5919 100.144 37.6073 100.148L37.8564 100.248C37.8812 100.258 37.9071 100.255 37.9308 100.263C37.9544 100.27 37.9697 100.284 37.9933 100.29L38.1256 100.321L38.3038 100.374C38.3487 100.388 38.3936 100.388 38.4373 100.395C38.4573 100.398 38.4715 100.411 38.4939 100.413L38.7135 100.432C38.7407 100.435 38.7678 100.435 38.7938 100.435H38.7962C38.8245 100.435 38.854 100.435 38.8824 100.432L39.0902 100.413C39.1114 100.411 39.1291 100.398 39.1492 100.394C39.1917 100.387 39.2342 100.388 39.2767 100.374L39.4455 100.322L39.5872 100.292C39.6155 100.287 39.6368 100.268 39.6639 100.259C39.6899 100.25 39.7194 100.253 39.7442 100.242L39.9827 100.143C39.9957 100.135 40.0051 100.125 40.017 100.12C40.0418 100.108 40.0689 100.102 40.0925 100.087L44.8045 97.3585C44.8175 97.3491 44.8257 97.3361 44.8375 97.3278C44.8564 97.3172 44.8741 97.3125 44.8918 97.3019L45.0819 97.1626C45.0914 97.1543 45.0961 97.1437 45.1043 97.1366C45.1162 97.1271 45.1291 97.1248 45.1398 97.1165L45.3688 96.917C45.3995 96.891 45.4137 96.8532 45.4408 96.8237C45.4585 96.8025 45.4869 96.7942 45.5034 96.7706L45.6522 96.5711C45.6628 96.5569 45.6652 96.5404 45.6734 96.5274C45.6935 96.5014 45.7147 96.4778 45.7313 96.4471L45.7844 96.3479C45.8068 96.3514 45.8304 96.3515 45.8505 96.3515H45.8517H45.8552C45.8824 96.3515 45.9095 96.3515 45.9367 96.3467L46.1563 96.3278C46.1657 96.3267 46.1716 96.3219 46.1799 96.3208C46.2059 96.3172 46.2319 96.3184 46.2578 96.3125L46.4574 96.2735C46.4763 96.2688 46.4892 96.2558 46.5093 96.2499C46.5341 96.2428 46.5613 96.2464 46.5861 96.2369L46.7561 96.1779C46.7643 96.1755 46.7679 96.1696 46.775 96.1673C46.782 96.1637 46.7868 96.1661 46.795 96.1637L47.0441 96.0646C47.0595 96.0587 47.0689 96.0433 47.0807 96.0398C47.1079 96.0268 47.1386 96.0197 47.1658 96.0055L74.2662 80.3644C74.2792 80.3537 74.2851 80.3419 74.2993 80.3349C74.3182 80.3231 74.3347 80.3183 74.3536 80.3065L74.5425 80.1684C74.559 80.1554 74.5661 80.14 74.5791 80.1271C74.598 80.1094 74.6192 80.1046 74.6358 80.0916L74.8648 79.872C74.892 79.8461 74.9026 79.8095 74.9262 79.7823C74.9451 79.7599 74.9699 79.754 74.9852 79.7304L75.1234 79.5308C75.1328 79.5179 75.134 79.5061 75.1423 79.4931C75.1553 79.4718 75.1706 79.4576 75.1848 79.434L75.2379 79.3325C75.2627 79.336 75.2898 79.3372 75.3158 79.3372C75.3465 79.3372 75.3784 79.3349 75.4079 79.3325L75.6181 79.3112C75.624 79.3112 75.6299 79.3065 75.6358 79.3053C75.6582 79.3042 75.6783 79.3042 75.6995 79.3006L75.9085 79.2616C75.9144 79.2605 75.9203 79.2557 75.9262 79.2546C75.938 79.2534 75.9475 79.2534 75.9581 79.251L76.1281 79.2109C76.1317 79.2097 76.134 79.2062 76.1376 79.2062C76.2048 79.1884 76.2686 79.1672 76.3312 79.1353L76.5709 79.0149C76.5768 79.0125 76.5815 79.0055 76.5874 79.0019C76.598 78.996 76.6086 78.9948 76.6181 78.9889L81.3395 76.2794C81.3572 76.2675 81.3654 76.2534 81.382 76.2427C81.4032 76.2262 81.4292 76.2215 81.4493 76.2073L81.6275 76.0668C81.6405 76.0574 81.6464 76.0432 81.6571 76.0338C81.6701 76.0208 81.6866 76.0172 81.6996 76.0066L81.9286 75.787C81.951 75.7646 81.9593 75.7351 81.9806 75.7126C81.9959 75.6961 82.0172 75.6902 82.0313 75.6713L82.1801 75.4718C82.1907 75.4588 82.1919 75.4446 82.2013 75.4293C82.2202 75.4033 82.2427 75.3797 82.258 75.3514L82.4186 75.0527C82.4363 75.0231 82.4351 74.9889 82.4457 74.9594C82.4682 74.9063 82.4977 74.859 82.5107 74.7988L82.5603 74.5615C82.5614 74.5532 82.5579 74.5473 82.5603 74.5414C82.5614 74.5344 82.5662 74.5285 82.5673 74.5214L82.6264 74.1601C82.6311 74.1353 82.6205 74.1093 82.6228 74.0857C82.6252 74.0586 82.6405 74.0349 82.6405 74.0078V40.6971C82.6405 40.67 82.6252 40.6464 82.6228 40.6204C82.6205 40.5944 82.6311 40.5696 82.6264 40.5436L82.5673 40.1847C82.5662 40.1776 82.5614 40.1717 82.5603 40.1646C82.5579 40.1576 82.5614 40.1517 82.5603 40.1458L82.5107 39.9073C82.5 39.86 82.4717 39.8234 82.4564 39.7821C82.4398 39.7408 82.4386 39.6959 82.4174 39.6558L82.258 39.3571C82.245 39.3323 82.225 39.3217 82.2096 39.2992C82.1966 39.2768 82.1943 39.2544 82.1813 39.2331L82.0313 39.0336C82.0136 39.0135 81.9912 39.0041 81.9723 38.9816C81.9534 38.9616 81.9475 38.9356 81.9262 38.9179L81.6948 38.6995C81.683 38.6865 81.6677 38.6829 81.6559 38.6747C81.6429 38.6641 81.6382 38.6499 81.6264 38.6393L81.4481 38.4999C81.4304 38.4858 81.4079 38.4834 81.3891 38.4716C81.3678 38.4586 81.3595 38.4385 81.3383 38.4267L45.3948 17.6828C45.3853 17.6769 45.3747 17.6781 45.3664 17.6734C45.3582 17.6687 45.3523 17.6592 45.3428 17.6545L45.1032 17.5353C45.0677 17.5176 45.0311 17.5187 44.9957 17.5069C44.9627 17.4939 44.9343 17.4715 44.8977 17.4632L44.8635 17.4538L44.5435 15.1633C44.54 15.1445 44.5294 15.1338 44.5235 15.1149C44.5211 15.0972 44.5258 15.0819 44.5211 15.0642L44.4644 14.8257C44.4621 14.821 44.4574 14.8162 44.4562 14.8103C44.455 14.8044 44.4562 14.7985 44.455 14.7914L44.3452 14.4136C44.3322 14.3711 44.3039 14.3393 44.2862 14.3015C44.2673 14.2613 44.2649 14.22 44.2425 14.1811L44.0311 13.841C44.0241 13.828 44.0099 13.8221 44.0028 13.8092C43.9957 13.7962 43.9934 13.7844 43.9827 13.7714L43.8328 13.5718C43.8127 13.5447 43.782 13.5305 43.7584 13.5022C43.7324 13.4774 43.7218 13.4455 43.6923 13.4207L43.4125 13.1822C43.403 13.174 43.3901 13.1716 43.3818 13.1633C43.3735 13.1551 43.3676 13.1456 43.3594 13.1385L43.1705 13.0004C43.1551 12.9886 43.1386 12.9874 43.1232 12.978C43.1067 12.9662 43.0996 12.9532 43.0831 12.9437L38.3322 10.194C38.3109 10.181 38.2897 10.181 38.2672 10.1728C38.246 10.1598 38.233 10.1444 38.2094 10.1338L37.9591 10.0346C37.9355 10.0252 37.9119 10.0287 37.8883 10.0216C37.8635 10.0122 37.8481 9.99685 37.8233 9.99331L37.6899 9.96025L37.5116 9.90712C37.4679 9.89414 37.4231 9.9024 37.3782 9.89532C37.331 9.88824 37.2885 9.86816 37.2401 9.86816H37.0217H36.8127C36.7666 9.86816 36.7253 9.88942 36.6805 9.89414C36.638 9.90004 36.5955 9.89296 36.5518 9.90358L36.3711 9.95671L36.2188 9.99449C36.1929 10.0004 36.1728 10.0193 36.1468 10.0264C36.1208 10.0335 36.0949 10.0311 36.0724 10.0417L35.8328 10.1409C35.8127 10.1503 35.8021 10.1645 35.7844 10.174C35.7631 10.1834 35.743 10.1834 35.723 10.194L8.62838 25.8517C8.60949 25.8623 8.6024 25.8777 8.58705 25.8883C8.57289 25.8978 8.554 25.9001 8.53865 25.9119L8.34974 26.0501C8.33912 26.0583 8.3344 26.0713 8.32495 26.0784C8.31551 26.0855 8.30252 26.089 8.29307 26.0961L8.06403 26.2956C8.03805 26.3204 8.02389 26.3535 8.00145 26.3783C7.97902 26.4031 7.94833 26.4161 7.92707 26.442L7.77949 26.6416C7.76296 26.6628 7.7606 26.6841 7.7488 26.7065C7.73463 26.7278 7.71338 26.7396 7.70157 26.7643L7.541 27.0619C7.51975 27.102 7.51857 27.1445 7.50322 27.1858C7.48669 27.2295 7.45836 27.2661 7.45009 27.3133L7.39933 27.553C7.39815 27.5601 7.40051 27.566 7.39933 27.5719C7.39815 27.579 7.39342 27.5849 7.39224 27.592L7.33203 27.9521C7.32731 27.9781 7.33793 28.0028 7.33557 28.0276C7.33321 28.0536 7.31904 28.0784 7.31904 28.1056V38.4362L7.26946 38.4397C7.23876 38.4433 7.2116 38.461 7.18091 38.4669C7.15139 38.4728 7.11951 38.4657 7.08764 38.4751L6.9188 38.5259L6.76886 38.559C6.74053 38.5661 6.72046 38.5838 6.69212 38.592C6.66733 38.6015 6.64017 38.5979 6.61538 38.6097L6.37571 38.7089C6.35682 38.7172 6.34501 38.7325 6.32494 38.7408C6.30605 38.7526 6.28598 38.7526 6.26709 38.7632L1.55396 41.4905C1.53861 41.5023 1.52917 41.5177 1.515 41.5283C1.49965 41.5377 1.48076 41.5401 1.46541 41.5507L1.27651 41.69C1.26589 41.6983 1.26116 41.7113 1.25172 41.7184C1.24227 41.7266 1.22929 41.729 1.21984 41.7361L0.989615 41.9356C0.961279 41.9628 0.947112 41.9994 0.918776 42.0277C0.892802 42.0572 0.858563 42.0761 0.836131 42.108L0.696815 42.3075C0.686189 42.324 0.683828 42.3429 0.674383 42.3618C0.664938 42.3772 0.648409 42.3866 0.638964 42.4043L0.479577 42.703C0.459506 42.7396 0.459506 42.781 0.444158 42.8187C0.428809 42.8589 0.404016 42.8919 0.392209 42.9344L0.331997 43.193C0.329635 43.2024 0.333177 43.2095 0.330816 43.2178C0.328455 43.2261 0.322551 43.2343 0.321371 43.2426L0.262339 43.5814C0.257616 43.6086 0.267061 43.6369 0.263519 43.6629C0.259977 43.6912 0.244629 43.7148 0.244629 43.7444V77.0751C0.244629 77.1011 0.258797 77.1247 0.261158 77.1495C0.2647 77.179 0.255255 77.2026 0.258797 77.2298ZM36.6214 11.8564L36.7253 11.8127L36.8198 11.7903C36.8269 11.7891 36.8316 11.7832 36.8387 11.7808C36.8481 11.7784 36.8576 11.7796 36.8658 11.7773L36.9449 11.7548H37.0217H37.1008L37.1669 11.7737C37.1799 11.7784 37.1905 11.7761 37.2035 11.7796C37.2106 11.782 37.2165 11.7891 37.2236 11.7903L37.3227 11.8139L37.4455 11.8646L42.0925 14.5518L42.2071 14.6356L42.3853 14.7891L42.4432 14.8646L42.566 15.063L42.6368 15.3062L42.6781 15.4727L43.0914 18.4137L45.6592 36.7124L25.4785 48.3524L9.20925 38.9545V28.1823L9.25058 27.9237L9.27065 27.8328L9.33322 27.7124L9.37572 27.6569L9.50205 27.5459L9.62012 27.4597L36.6214 11.8564ZM80.3336 40.0277L80.4257 40.0985L80.5638 40.2308L80.6216 40.3051L80.683 40.4244L80.7043 40.5188L80.7468 40.7739V73.931L80.7031 74.1896L80.683 74.2817L80.6205 74.3986L80.5638 74.473L80.4197 74.6111L80.3336 74.6796L75.6948 77.3396L75.5768 77.3986L75.5697 77.3998V63.957L77.2084 63.0136C77.2273 63.003 77.2344 62.9865 77.2521 62.9759C77.2745 62.9605 77.2981 62.9558 77.3194 62.9393L77.4977 62.7988C77.5047 62.794 77.5071 62.787 77.5142 62.7822C77.5213 62.7763 77.5295 62.774 77.5354 62.7669L77.7657 62.5685C77.7964 62.5414 77.8105 62.5024 77.8389 62.4741C77.8589 62.4516 77.8849 62.4434 77.9014 62.421L78.0514 62.2214C78.0632 62.2049 78.0644 62.1896 78.0726 62.173C78.0951 62.1411 78.1222 62.1116 78.1423 62.0762L78.3005 61.7563C78.3147 61.7315 78.3123 61.7031 78.3206 61.6783C78.3383 61.6405 78.3619 61.6063 78.3701 61.565L78.4315 61.3289C78.4363 61.3123 78.4304 61.3005 78.4339 61.284C78.4374 61.2651 78.4481 61.2533 78.4516 61.2356L78.4977 60.8956C78.5012 60.8708 78.4918 60.8507 78.4941 60.8247C78.4953 60.8023 78.5071 60.781 78.5071 60.7574V55.3182C78.5071 55.297 78.4953 55.2781 78.4941 55.2556C78.4929 55.2332 78.5012 55.2119 78.4988 55.1907L78.4481 54.8306C78.4457 54.8117 78.4339 54.7999 78.4304 54.7798C78.4268 54.7621 78.4327 54.7468 78.428 54.7267L78.3666 54.4906C78.3583 54.4516 78.3324 54.4221 78.317 54.3855C78.304 54.3513 78.304 54.3123 78.2863 54.2757L78.1269 53.9782C78.114 53.9557 78.0927 53.9416 78.0797 53.9203C78.0655 53.8991 78.062 53.8755 78.049 53.8554L77.8991 53.6559C77.8837 53.6346 77.8613 53.6263 77.8436 53.6063C77.8235 53.585 77.8188 53.559 77.7975 53.5378L77.5685 53.3194C77.5555 53.3076 77.5402 53.304 77.5272 53.2934C77.5142 53.2828 77.5083 53.2686 77.4977 53.2592L77.3182 53.1198C77.2993 53.1045 77.2781 53.0998 77.2592 53.0903C77.2403 53.0773 77.2308 53.0596 77.2096 53.0455L48.5931 36.5318C48.5813 36.5235 48.5684 36.5247 48.5565 36.5188C48.5471 36.5129 48.54 36.5023 48.5306 36.4976L48.2815 36.376C48.2578 36.3642 48.2319 36.3677 48.2071 36.3571C48.1835 36.3465 48.1646 36.3287 48.1398 36.3205L47.9403 36.2638C47.9249 36.2579 47.9107 36.2638 47.8942 36.2579C47.8789 36.2555 47.8682 36.2437 47.8529 36.2414L47.6427 36.2001C47.6274 36.1977 47.6144 36.2036 47.5967 36.2001C47.5802 36.1989 47.5684 36.1882 47.5506 36.1859L47.4916 36.1788L45.1846 19.7395L80.3336 40.0277ZM46.8954 38.1824L47.0737 38.0914L47.1032 38.0785L47.1669 38.0655L47.2484 38.056L47.3322 38.0666L47.442 38.0879L47.5282 38.1127L47.6782 38.1847L76.2084 54.6488L76.2946 54.7173L76.441 54.8566L76.4953 54.9286L76.5673 55.0644L76.5886 55.1399L76.6204 55.3855V60.6913L76.5886 60.9133L76.5661 61.0065L76.4894 61.16L76.4552 61.2061L76.317 61.3265L76.2131 61.4091L74.1588 62.591H74.1564L49.2035 76.9984L49.0796 77.0562L49.0135 77.0739L48.893 77.0987L48.8057 77.1058L48.7218 77.0987L48.5991 77.0739L48.5365 77.0574L48.409 76.9984L46.1173 75.676V61.7751C46.1173 61.7492 46.102 61.7244 46.0996 61.6984C46.0973 61.6724 46.1079 61.6465 46.102 61.6193L46.0441 61.2616C46.043 61.2545 46.0382 61.2498 46.0359 61.2415C46.0359 61.2368 46.0382 61.2297 46.0359 61.2214L45.9863 60.9841C45.9768 60.9393 45.9485 60.9026 45.9332 60.8613C45.9178 60.8188 45.9166 60.7728 45.8954 60.7326L45.736 60.4339C45.723 60.4115 45.7029 60.3997 45.6888 60.3773C45.6746 60.356 45.6722 60.3312 45.6569 60.3123L45.507 60.1128C45.4881 60.0845 45.4574 60.0715 45.4361 60.0455C45.4113 60.0207 45.3995 59.9865 45.3735 59.9664L45.1445 59.7669C45.1339 59.7574 45.1209 59.7551 45.1103 59.7456C45.1008 59.7374 45.0961 59.7255 45.0866 59.7208L44.8966 59.5815C44.8812 59.5697 44.8659 59.5685 44.8505 59.5591C44.8328 59.5473 44.8257 59.5331 44.808 59.5225L27.3687 49.4445L46.8954 38.1824ZM46.2826 94.3349L46.1162 94.401L46.115 77.8543L47.4975 78.6524C47.5117 78.6607 47.5247 78.6631 47.54 78.6701C47.5495 78.6749 47.553 78.6831 47.5624 78.6867L47.8116 78.8071C47.8399 78.8225 47.8718 78.8177 47.9013 78.8272C47.9367 78.8413 47.965 78.865 48.0028 78.8744L48.174 78.9145C48.1811 78.9157 48.187 78.9157 48.1929 78.9169C48.1965 78.9169 48.1988 78.9193 48.2024 78.9204L48.4007 78.9606C48.4267 78.9665 48.455 78.9653 48.481 78.9689C48.4904 78.97 48.4987 78.9748 48.5058 78.9759L48.7242 78.9972C48.7502 79.0007 48.7797 79.0007 48.8057 79.0007H48.808C48.8352 79.0007 48.8647 79.0007 48.8907 78.9972L49.1091 78.9759C49.1185 78.9748 49.1268 78.97 49.1339 78.9689C49.1599 78.9653 49.1882 78.9665 49.2142 78.9606L49.4125 78.9204C49.4161 78.9193 49.4184 78.9169 49.422 78.9169C49.4279 78.9157 49.4338 78.9169 49.4408 78.9145L49.612 78.8744C49.6486 78.865 49.6782 78.8413 49.7136 78.8272C49.7419 78.8166 49.7738 78.8213 49.8033 78.8071L50.0524 78.6867C50.0607 78.6831 50.0666 78.6749 50.0737 78.6701C50.0867 78.6642 50.1032 78.6607 50.1174 78.6524L73.6842 65.0455V77.9913L73.6747 78.0361C73.6724 78.0468 73.6759 78.0598 73.6747 78.0716C73.6724 78.0845 73.6641 78.0916 73.6629 78.1046L73.6381 78.2746L73.6192 78.3467L73.5437 78.4919L73.4882 78.571L73.3654 78.6855L73.2757 78.754L46.2826 94.3349ZM7.15848 40.4291L7.26355 40.3854L7.36509 40.3606C7.37335 40.3595 7.38044 40.3536 7.3887 40.3512C7.40169 40.3476 7.41349 40.35 7.4253 40.3453L7.5351 40.3122L7.57524 40.3087L7.60004 40.311L7.71456 40.3453C7.72637 40.35 7.73935 40.3476 7.75116 40.3512C7.75942 40.3536 7.76533 40.3595 7.77359 40.3606L7.89047 40.3866L7.89402 40.389C7.89402 40.389 7.8952 40.3902 7.89638 40.3902L7.89992 40.3913L7.97076 40.422L25.0039 50.2592L43.8198 61.1329L43.9284 61.212L44.0607 61.3277L44.102 61.3843L44.1646 61.5024L44.1846 61.591L44.2283 61.8519V76.218V95.0398L44.2212 95.0858L44.187 95.2582V95.2617C44.187 95.2641 44.1846 95.2641 44.1846 95.2653L44.1622 95.3857L44.1032 95.4967L44.0607 95.5522L43.9296 95.6679L43.8174 95.7505L39.2011 98.4258L39.102 98.4672L39.0016 98.4896C38.9886 98.492 38.9804 98.5002 38.9685 98.5038C38.9567 98.5061 38.9449 98.5026 38.9343 98.5061L38.8257 98.5392L38.7938 98.5427L38.7608 98.5392L38.6521 98.5061C38.6415 98.5038 38.6309 98.5061 38.6214 98.5038C38.612 98.5014 38.6037 98.4955 38.5955 98.492L38.4975 98.4684L38.3747 98.4199L2.57404 77.7551L2.45715 77.656L2.31784 77.5344L2.27534 77.4753L2.19741 77.3313L2.17616 77.2463L2.13602 76.9984V43.827L2.17498 43.598L2.20095 43.4823L2.27415 43.3453L2.3143 43.2863L2.42882 43.1871L2.55043 43.0974L7.15848 40.4291Z" fill="#264F68"/>
<path d="M85.278 7.29686C85.0017 5.89662 84.2461 4.68409 83.1493 3.85174C82.8908 3.65694 82.5519 3.60617 82.2485 3.72069C80.5035 4.37122 79.5696 3.98397 78.9793 2.9025C78.827 2.62269 78.7113 2.31691 78.6345 2.00758C78.5873 1.82694 78.5625 1.68998 78.5578 1.63213C78.5188 1.28856 78.2945 0.992224 77.9734 0.863533C76.6097 0.309812 75.0879 0.309812 73.7231 0.863533C73.4019 0.992224 73.1776 1.28856 73.1386 1.63213C73.1316 1.69116 73.1091 1.82694 73.0619 2.00758C72.984 2.31691 72.8695 2.62269 72.7172 2.9025C72.1268 3.98397 71.1929 4.37122 69.448 3.72069C69.1445 3.60617 68.8057 3.65694 68.5471 3.85174C67.4503 4.68409 66.6959 5.89662 66.4267 7.25435C66.3606 7.60264 66.4562 7.9167 66.6746 8.1363C68.6664 10.1505 68.6664 14.1151 66.6746 16.1304C66.4562 16.3512 66.3606 16.6653 66.4184 16.9699C66.6947 18.3701 67.4491 19.5815 68.5471 20.415C68.7998 20.6074 69.1327 20.6594 69.4338 20.5531C69.5235 20.5212 69.7124 20.4658 69.9792 20.4079C70.847 20.2202 71.7561 20.1836 72.5731 20.389C73.6534 20.6594 74.4669 21.3253 74.9769 22.5378C75.3004 23.3087 76.3937 23.3087 76.7184 22.5378C77.2296 21.3253 78.0419 20.6594 79.1221 20.389C79.9391 20.1824 80.8482 20.219 81.716 20.4079C81.9828 20.4658 82.1717 20.5212 82.2615 20.5531C82.5625 20.6594 82.8943 20.6074 83.1481 20.415C84.2461 19.5815 84.9994 18.3701 85.2686 17.0124C85.3347 16.6653 85.2391 16.35 85.0206 16.1304C83.0289 14.1163 83.0289 10.1517 85.0206 8.1363C85.2402 7.91552 85.3359 7.60264 85.278 7.29686ZM83.3122 17.0537C83.1257 17.6452 82.7951 18.1824 82.3512 18.6121C82.278 18.5956 82.2013 18.5791 82.1198 18.559C80.9911 18.3146 79.8046 18.2674 78.6629 18.5543C77.5436 18.8365 76.5838 19.4197 75.8494 20.3264C75.115 19.4197 74.1552 18.8365 73.0347 18.5543C71.8942 18.2674 70.7077 18.3146 69.579 18.559C69.4975 18.5791 69.4196 18.5956 69.3476 18.6121C68.9049 18.1824 68.5743 17.6464 68.3866 17.0525C70.6168 14.3677 70.6168 9.89664 68.3866 7.21185C68.5707 6.62861 68.8954 6.09851 69.3299 5.66875C71.703 6.36179 73.4208 5.55659 74.376 3.80333C74.6345 3.33226 74.801 2.86472 74.9037 2.45504C75.5235 2.29447 76.1741 2.29447 76.7939 2.45504C76.8978 2.86472 77.0643 3.33108 77.3228 3.80333C78.2792 5.55659 79.997 6.36179 82.3689 5.66875C82.8022 6.09614 83.1269 6.62743 83.3122 7.21303C81.0832 9.89782 81.0832 14.3677 83.3122 17.0537Z" fill="#264F68"/>
</g>
<defs>
<clipPath id="clip0_111_1649">
<rect width="85.05" height="99.9875" fill="white" transform="translate(0.244629 0.446777)"/>
</clipPath>
</defs>
</svg>
