<svg width="103" height="101" viewBox="0 0 103 101" fill="none" xmlns="http://www.w3.org/2000/svg">
<g clip-path="url(#clip0_111_1547)">
<path d="M102.62 32.4564L102.564 32.1518C102.563 32.1472 102.561 32.1449 102.561 32.1403C102.56 32.1368 102.561 32.1322 102.561 32.1276L102.516 31.9096C102.506 31.8577 102.474 31.8173 102.457 31.7677C102.438 31.7193 102.435 31.6674 102.411 31.6201L102.268 31.3559C102.26 31.3409 102.245 31.3328 102.237 31.319C102.229 31.3028 102.228 31.289 102.218 31.274L102.087 31.0779C102.06 31.0364 102.016 31.011 101.984 30.9729C101.951 30.9372 101.931 30.8945 101.892 30.8599L101.685 30.6846C101.681 30.6799 101.674 30.6799 101.67 30.6753C101.666 30.673 101.665 30.6684 101.66 30.6661L101.496 30.5346C101.473 30.5173 101.449 30.5138 101.427 30.5C101.405 30.4827 101.392 30.4619 101.367 30.4481L69.5082 12.0554C69.4886 12.0438 69.4679 12.0438 69.4471 12.0323C69.4252 12.0231 69.4148 12.0081 69.3941 11.9988L69.1841 11.91C69.1622 11.902 69.1437 11.9054 69.1218 11.8973C69.1184 11.895 69.1149 11.8927 69.1114 11.8927L68.8461 9.98597C68.8438 9.96405 68.8311 9.95252 68.8277 9.93291C68.8231 9.91215 68.83 9.89715 68.8242 9.87754L68.7723 9.65837L68.6835 9.30771C68.6685 9.24772 68.6327 9.20504 68.6108 9.15314C68.5866 9.09892 68.5808 9.04355 68.5462 8.9928L68.3594 8.70788C68.3524 8.6975 68.3409 8.69173 68.3351 8.68366C68.3271 8.67097 68.3259 8.65943 68.3167 8.65021L68.1863 8.47603C68.1633 8.44834 68.131 8.43104 68.1056 8.40451C68.0814 8.37798 68.0687 8.34337 68.041 8.31915L67.7884 8.10114C67.7699 8.08383 67.7491 8.08037 67.7295 8.06768C67.7122 8.05269 67.703 8.03192 67.6822 8.01924L67.5184 7.90965C67.5081 7.90273 67.4965 7.90273 67.4884 7.89581C67.4792 7.89004 67.4746 7.88081 67.4642 7.87505L63.2481 5.42153C63.2262 5.40769 63.1997 5.40769 63.1755 5.39615C63.1512 5.38577 63.1363 5.36616 63.1109 5.35463L62.8929 5.26927C62.8744 5.26119 62.8583 5.26465 62.8398 5.25773C62.8202 5.25081 62.811 5.23812 62.7902 5.23351L62.6368 5.18852C62.631 5.18621 62.6253 5.18852 62.6206 5.18737C62.6149 5.18506 62.6103 5.17929 62.6033 5.17814L62.4303 5.13661C62.3876 5.12623 62.3461 5.13661 62.3046 5.13085C62.2619 5.12623 62.225 5.10547 62.1811 5.10547H61.9839H61.797C61.7532 5.10547 61.714 5.12739 61.6713 5.13085C61.6298 5.13546 61.5894 5.12623 61.5467 5.13661L61.3737 5.17929C61.3668 5.18045 61.3622 5.18621 61.3564 5.18852C61.3506 5.18967 61.3425 5.18737 61.3368 5.18967L61.1834 5.23235C61.1649 5.23812 61.1534 5.25196 61.1361 5.25773C61.1176 5.26235 61.1003 5.25773 61.083 5.26696L60.8638 5.35232C60.8419 5.36386 60.8269 5.38231 60.8027 5.39154C60.7785 5.40538 60.7519 5.40538 60.73 5.41692L36.7059 19.3029C36.6874 19.3144 36.677 19.3306 36.6597 19.3444C36.6424 19.3559 36.6205 19.3582 36.6044 19.3698L36.4302 19.5001C36.4163 19.5105 36.4117 19.5232 36.399 19.5336C36.3875 19.5451 36.3714 19.5474 36.3598 19.5578L36.1637 19.7331C36.1372 19.7574 36.1257 19.7897 36.1026 19.8116C36.0795 19.8381 36.0472 19.8531 36.0265 19.8819L35.895 20.055C35.8788 20.078 35.8753 20.1023 35.8615 20.1265C35.8488 20.1461 35.8281 20.1576 35.8177 20.1807C35.7934 20.1818 35.7715 20.1715 35.7485 20.1749L35.5627 20.1957C35.5385 20.1992 35.5189 20.2153 35.497 20.2199C35.4739 20.2245 35.452 20.2176 35.4301 20.2234L35.2548 20.2684C35.2513 20.2695 35.2501 20.2718 35.2467 20.273C35.2421 20.2741 35.2375 20.273 35.2328 20.2741L35.0806 20.3157C35.0598 20.3226 35.046 20.3376 35.0264 20.341C35.0079 20.348 34.9883 20.3445 34.9698 20.3537L34.7507 20.4402C34.7276 20.4506 34.7115 20.4702 34.6907 20.4806C34.6676 20.4921 34.6422 20.491 34.6203 20.5048L10.5823 34.3689C10.5593 34.3839 10.5454 34.4046 10.5235 34.4196C10.5004 34.4381 10.4739 34.4427 10.452 34.4577L10.2882 34.5892C10.2813 34.5961 10.279 34.6042 10.2709 34.6111C10.2651 34.6146 10.257 34.6157 10.2501 34.6226L10.0517 34.798C10.0183 34.8268 10.001 34.8695 9.97212 34.9029C9.94213 34.9376 9.90291 34.9606 9.87638 34.9975L9.74603 35.1948C9.7368 35.2109 9.73565 35.2248 9.72757 35.2398C9.71835 35.2559 9.70335 35.264 9.69528 35.2778L9.55455 35.542C9.52917 35.5904 9.52686 35.6412 9.50956 35.6896C9.49111 35.7392 9.46111 35.7785 9.45073 35.8327L9.4069 36.0507C9.40575 36.0541 9.4069 36.0576 9.4069 36.0622C9.4069 36.0668 9.40344 36.0703 9.40228 36.0738L9.34692 36.3806C9.3423 36.4117 9.35153 36.4417 9.34922 36.4729C9.34576 36.504 9.33077 36.5317 9.33077 36.5628V45.5625L9.19235 45.5925L9.08161 45.6098C9.02278 45.6191 8.97433 45.6502 8.91896 45.6675C8.86129 45.6871 8.80246 45.6906 8.74594 45.7183L8.53831 45.829C8.53254 45.8325 8.52792 45.8394 8.52216 45.8428C8.51754 45.8463 8.50947 45.8463 8.5037 45.8486L4.32223 48.2571C4.29915 48.2698 4.28531 48.294 4.2634 48.309C4.24033 48.3252 4.21264 48.3298 4.18957 48.3471L4.02577 48.4786C4.02231 48.4809 4.02116 48.4867 4.01654 48.4901C4.01424 48.4925 4.01078 48.4925 4.00847 48.4948L3.80084 48.6678C3.76393 48.6978 3.74547 48.7416 3.71317 48.7774C3.68087 48.812 3.63819 48.8373 3.61051 48.8777L3.49054 49.0531C3.48016 49.0692 3.47901 49.0854 3.46978 49.1027C3.45825 49.12 3.44325 49.1269 3.43402 49.1442L3.29214 49.4072C3.27022 49.4476 3.26907 49.4902 3.25407 49.5318C3.23677 49.5721 3.20909 49.6056 3.19755 49.6494L3.14218 49.8686C3.13872 49.887 3.14334 49.902 3.14103 49.9217C3.13757 49.9401 3.12488 49.9516 3.12257 49.9724L3.07874 50.2804C3.07528 50.3046 3.08566 50.3288 3.08336 50.3531C3.0822 50.3773 3.06836 50.4004 3.06836 50.4257V79.9879C3.06836 80.0144 3.0822 80.0352 3.08336 80.0617C3.08566 80.086 3.07528 80.1113 3.07874 80.1344L3.12257 80.4435C3.12603 80.4631 3.13757 80.4758 3.14103 80.4977C3.14449 80.5127 3.13988 80.5289 3.14334 80.5474L3.19871 80.7642C3.21255 80.8219 3.24254 80.8669 3.26561 80.9176C3.27714 80.9453 3.27714 80.9811 3.29329 81.0099L3.43518 81.2718C3.44671 81.2914 3.46286 81.3064 3.47555 81.3271C3.48247 81.3375 3.48362 81.3513 3.4917 81.3629L3.61166 81.5394C3.64742 81.5913 3.6901 81.6328 3.73163 81.6743C3.74201 81.6859 3.74432 81.6986 3.7547 81.7066L3.96233 81.9027C3.9854 81.9258 4.01539 81.9327 4.04077 81.9523C4.06269 81.9719 4.07537 81.9962 4.10075 82.0123L4.26455 82.123C4.27608 82.13 4.28877 82.1334 4.29915 82.1392C4.30838 82.145 4.313 82.153 4.32223 82.16L36.1845 100.554C36.1949 100.561 36.2076 100.563 36.2202 100.571C36.2272 100.573 36.2318 100.582 36.2387 100.586L36.4579 100.695C36.4971 100.715 36.5375 100.708 36.5755 100.721C36.6413 100.745 36.7013 100.783 36.7728 100.793L36.8731 100.806L37.0046 100.839C37.0323 100.846 37.0612 100.845 37.0888 100.849C37.1027 100.85 37.1131 100.861 37.1258 100.863L37.3138 100.885C37.3541 100.891 37.3934 100.892 37.4337 100.892H37.436H37.4372C37.4741 100.892 37.5133 100.891 37.5525 100.885L37.7486 100.863C37.7613 100.862 37.7706 100.851 37.7833 100.85C37.8144 100.845 37.8467 100.847 37.8755 100.839L38.0059 100.809L38.1085 100.793C38.1812 100.782 38.24 100.745 38.3069 100.721C38.345 100.706 38.3854 100.711 38.4234 100.695L38.6426 100.586C38.6495 100.582 38.6542 100.573 38.6611 100.571C38.6726 100.563 38.6853 100.561 38.6968 100.554L42.8691 98.1465C42.8864 98.1361 42.8945 98.1222 42.9106 98.1095C42.9314 98.0969 42.9544 98.0922 42.9741 98.0784L43.1505 97.9469C43.1609 97.9377 43.1667 97.9238 43.1771 97.9146C43.1898 97.9065 43.2036 97.9031 43.2151 97.8938L43.4112 97.7185C43.4435 97.692 43.4574 97.6528 43.4851 97.6216C43.5058 97.5985 43.5358 97.5893 43.5554 97.5639L43.6869 97.3863C43.6985 97.3713 43.6996 97.3551 43.71 97.3378C43.7238 97.3159 43.7423 97.2986 43.755 97.2756C43.7804 97.2744 43.8057 97.2744 43.8311 97.2709L44.018 97.2479C44.0295 97.2467 44.0387 97.2375 44.0503 97.2363C44.0745 97.234 44.101 97.2352 44.1253 97.2283L44.311 97.1856C44.3202 97.1833 44.3248 97.1775 44.334 97.1752C44.3456 97.1717 44.3583 97.174 44.3709 97.1694L44.5232 97.1256C44.5428 97.1198 44.5555 97.1025 44.5751 97.0991C44.5947 97.0921 44.6143 97.0945 44.6339 97.0875L44.8427 96.9987C44.8589 96.9941 44.867 96.9803 44.882 96.9745C44.9073 96.9618 44.9362 96.9549 44.9604 96.9433L68.9938 83.0805C69.0145 83.0655 69.0238 83.0493 69.0445 83.0355C69.0688 83.017 69.0988 83.0113 69.1218 82.9928L69.2868 82.8624C69.2948 82.8555 69.2983 82.8451 69.3064 82.8394C69.3145 82.8313 69.3248 82.8278 69.3318 82.8209L69.5209 82.6525C69.5244 82.6502 69.5279 82.6479 69.529 82.6456C69.5925 82.5879 69.649 82.5245 69.6974 82.4506L69.8301 82.2546C69.837 82.243 69.837 82.2315 69.8439 82.2211C69.8508 82.2107 69.8612 82.2003 69.867 82.1911H70.0089H70.01C70.0885 82.1911 70.1704 82.1807 70.25 82.1634L70.4368 82.1184C70.4426 82.1173 70.4449 82.1138 70.4507 82.1115C70.4576 82.1092 70.4657 82.1115 70.4737 82.108L70.6248 82.0665C70.6491 82.0596 70.6652 82.0435 70.6894 82.0354C70.7102 82.0285 70.7321 82.0319 70.754 82.0215L70.9617 81.9339C70.9767 81.9281 70.9847 81.9143 70.9963 81.9096C71.0228 81.8981 71.0505 81.8923 71.077 81.8785L95.1104 67.9949C95.1312 67.9822 95.1404 67.9626 95.1612 67.9487C95.1854 67.9314 95.2131 67.9256 95.2373 67.9072L95.4023 67.7768C95.4046 67.7745 95.4057 67.7699 95.4103 67.7665C95.4138 67.763 95.4207 67.7618 95.4253 67.7584L95.6329 67.583C95.6791 67.5438 95.7033 67.4908 95.7414 67.4458C95.7645 67.4216 95.7968 67.41 95.8164 67.38L95.9375 67.2047C95.9456 67.1932 95.9467 67.1793 95.9548 67.1643C95.9652 67.1505 95.9779 67.1401 95.9836 67.1251C96.0067 67.124 96.0275 67.124 96.0482 67.1216L96.2455 67.0997C96.2616 67.0974 96.272 67.087 96.287 67.0859C96.3216 67.0801 96.355 67.0813 96.3897 67.072L96.565 67.0271C96.5685 67.0259 96.5708 67.0224 96.5742 67.0224C96.5811 67.019 96.5881 67.0201 96.5961 67.019L96.7472 66.9763C96.7657 66.9694 96.7772 66.9567 96.7968 66.9521C96.8153 66.9463 96.8326 66.9475 96.8511 66.9394L97.0702 66.8517C97.0864 66.846 97.0944 66.8321 97.1106 66.8252C97.1394 66.8125 97.1729 66.8056 97.2006 66.7894L101.373 64.3809C101.396 64.3671 101.404 64.3486 101.425 64.3348C101.449 64.3175 101.478 64.3128 101.501 64.2932L101.665 64.1629C101.668 64.1606 101.67 64.156 101.674 64.1525C101.68 64.149 101.684 64.1479 101.69 64.1444L101.897 63.9691C101.935 63.9368 101.952 63.8953 101.983 63.8607C102.005 63.8364 102.037 63.8272 102.056 63.7984L102.187 63.6254C102.2 63.6069 102.202 63.5884 102.211 63.57C102.236 63.5354 102.266 63.5019 102.284 63.4616L102.427 63.1766C102.444 63.1466 102.442 63.112 102.453 63.0774C102.471 63.0325 102.5 62.9921 102.511 62.9413L102.554 62.7441C102.556 62.7337 102.554 62.7256 102.555 62.7175C102.557 62.7072 102.564 62.6991 102.567 62.6887L102.622 62.36C102.627 62.3334 102.615 62.3034 102.617 62.2769C102.621 62.2481 102.636 62.2215 102.636 62.1915V32.6409C102.636 32.6086 102.62 32.5809 102.617 32.5486C102.615 32.5198 102.626 32.4898 102.62 32.4564ZM37.6852 98.7347L37.6229 98.767C37.6183 98.7682 37.6148 98.7705 37.6114 98.7717C37.5952 98.774 37.5779 98.7694 37.5618 98.7728L37.4464 98.7993L37.4395 98.8005L37.4303 98.7993L37.3184 98.7728C37.3011 98.7694 37.2849 98.774 37.2676 98.7717C37.2642 98.7705 37.2607 98.7682 37.2549 98.767L37.1927 98.7347L5.38345 80.3697L5.32463 80.3305L5.26003 80.2694L5.2335 80.2301L5.17928 80.1298L5.1689 80.0894L5.14237 79.9118V50.4961L5.1689 50.3162L5.17928 50.2758L5.2335 50.1754L5.24388 50.1604L5.32232 50.0935C5.32347 50.0935 5.32347 50.0935 5.32463 50.0924L5.43075 50.0093L9.51302 47.6585L9.56954 47.6285C9.58569 47.625 9.59953 47.6262 9.61453 47.6227L9.74257 47.5927L9.75872 47.5916L9.77602 47.5927L9.8833 47.6192C9.90522 47.625 9.92598 47.6239 9.94674 47.6273L10.0136 47.6596L25.1131 56.379L41.8102 66.0235L41.8782 66.065L41.9347 66.1227L41.9797 66.185L42.0086 66.2381L42.0224 66.3038L42.0582 66.5011V79.2185V95.8694L42.0559 95.8798C42.0547 95.8867 42.057 95.8913 42.0559 95.8971C42.0547 95.9029 42.0524 95.9075 42.0512 95.9144L42.0213 96.0851L42.0097 96.1428L41.9809 96.1993L41.9555 96.2316L41.8724 96.3055L41.7779 96.3758L37.6852 98.7347ZM61.7094 7.2533L61.8005 7.21639L61.8882 7.19217L61.9262 7.18179H61.9839H62.0508L62.1016 7.19448L62.1754 7.21639L62.2711 7.25446L66.3926 9.65491L66.4757 9.71028L66.5956 9.81294L66.6395 9.87293L66.711 9.98366L66.756 10.1659L66.7987 10.3309L67.162 12.9251L69.4252 28.9924L45.7955 42.6453C45.7713 42.6615 45.7575 42.6834 45.7344 42.6995C45.7136 42.7157 45.6859 42.7191 45.6652 42.7341L45.5014 42.8668C45.4772 42.8864 45.4656 42.9152 45.4426 42.936C45.4218 42.9579 45.3953 42.9648 45.3757 42.9879L45.273 43.1033L42.7341 25.0497C42.733 25.0301 42.7203 25.0174 42.7157 24.9989C42.7122 24.9793 42.718 24.962 42.7145 24.9435L42.6591 24.7244C42.6568 24.7151 42.6511 24.7105 42.6488 24.7025C42.6465 24.6932 42.6488 24.684 42.6465 24.6771L42.5484 24.3506C42.5346 24.3068 42.5046 24.2768 42.4861 24.2341C42.4665 24.1926 42.4642 24.1488 42.4411 24.1096L42.2554 23.8016C42.245 23.7866 42.2312 23.7808 42.222 23.767C42.2127 23.7508 42.2116 23.737 42.2012 23.7231L42.0709 23.5466C42.0443 23.512 42.0051 23.4936 41.9774 23.4624C41.9463 23.4324 41.929 23.3909 41.8932 23.3621L41.6533 23.166C41.6521 23.1648 41.651 23.1648 41.6498 23.1637C41.6487 23.1625 41.6475 23.1614 41.6464 23.1602L41.4826 23.0287C41.4606 23.0103 41.4341 23.0056 41.411 22.9895C41.3891 22.9757 41.3764 22.9526 41.3522 22.9376L37.9586 20.9824L61.7094 7.2533ZM96.6515 45.2188L96.7103 45.258L96.7934 45.333L96.8199 45.3734L96.8534 45.4345L96.8672 45.5002L96.9018 45.6963V50.3358L96.8661 50.5492L96.8545 50.6011L96.8141 50.6807L96.8061 50.6922L96.7103 50.7706C96.7103 50.7718 96.7092 50.7718 96.708 50.7718L96.6031 50.856L94.8059 51.8872C94.8059 51.8884 94.8047 51.8872 94.8036 51.8884L72.865 64.5539V60.692C72.865 60.6608 72.8511 60.6355 72.8477 60.6078C72.8454 60.5789 72.8557 60.5513 72.8511 60.5213L72.7958 60.1937C72.7934 60.1833 72.7865 60.1775 72.7842 60.1694C72.7819 60.1579 72.7865 60.1487 72.7842 60.1406L72.7404 59.9434C72.7312 59.9007 72.7046 59.8695 72.6885 59.828C72.6735 59.7876 72.6746 59.7449 72.6562 59.7034L72.5131 59.4185C72.4981 59.3908 72.4728 59.3712 72.4543 59.3458C72.4359 59.3181 72.4324 59.2859 72.4139 59.2605L72.2836 59.0863C72.2582 59.054 72.2213 59.0355 72.1948 59.0079C72.1694 58.9813 72.1544 58.9433 72.1244 58.9202L71.9156 58.7425C71.911 58.7414 71.9052 58.7402 71.9018 58.7368C71.8983 58.7322 71.896 58.7275 71.8914 58.7229L71.7264 58.5926C71.7045 58.5753 71.6792 58.5707 71.6572 58.5568C71.6342 58.5418 71.6226 58.5199 71.5984 58.5049L47.0471 44.3202L70.7956 30.5969L70.9178 30.5484L70.9767 30.5254L71.0367 30.5104L71.0574 30.5092H71.0643L71.1785 30.5346H71.1797C71.1797 30.5346 71.1797 30.5358 71.1808 30.5358L71.2512 30.5554L71.3354 30.5969L96.6515 45.2188ZM46.6018 79.7284L46.5015 79.7687L46.4011 79.7953L46.3827 79.7999H46.3146H46.2558L46.2373 79.7953L46.1358 79.7687L46.0355 79.7272L44.1333 78.6221V66.4088C44.1333 66.3765 44.1172 66.3488 44.1149 66.3176C44.1114 66.2865 44.1218 66.2565 44.1172 66.2254L44.0618 65.9185C44.0618 65.9139 44.0583 65.9105 44.0572 65.9058C44.056 65.9024 44.0583 65.8989 44.0572 65.8943L44.0134 65.6763C44.003 65.6221 43.9707 65.5817 43.9534 65.5333C43.9361 65.4837 43.9338 65.4306 43.9084 65.3845L43.7665 65.1238C43.7538 65.1007 43.7331 65.0869 43.7192 65.0661C43.7042 65.043 43.7019 65.0176 43.6858 64.9946L43.5543 64.8192C43.5381 64.7962 43.5139 64.7892 43.4966 64.7685C43.4804 64.7477 43.4735 64.7258 43.4551 64.705L43.259 64.5089C43.2301 64.4824 43.1932 64.4709 43.1621 64.4455C43.1309 64.4201 43.1102 64.3832 43.0756 64.3613L42.8991 64.2529C42.8945 64.2494 42.8875 64.2494 42.8818 64.2459C42.8772 64.2425 42.8737 64.2367 42.8679 64.2344L27.7073 55.4758L44.6801 45.6825L44.8266 45.6214C44.83 45.6202 44.8324 45.6179 44.8347 45.6179C44.8439 45.6133 44.8531 45.6041 44.8623 45.5994C44.8866 45.5891 44.9108 45.5821 44.9339 45.5718L44.9408 45.5706H44.9431L45.0019 45.5879L45.1138 45.626L45.2788 45.6963L70.4957 60.2571L70.5995 60.3378L70.6929 60.4186L70.6987 60.4244L70.7413 60.5109L70.7529 60.5616L70.7875 60.7739V65.4029L70.7863 65.4145C70.7852 65.4202 70.7863 65.4248 70.7863 65.4294C70.7852 65.4375 70.7817 65.4421 70.7794 65.4467L70.7517 65.6209L70.739 65.6786L70.7114 65.7328L70.6779 65.779L70.5972 65.8528L70.5337 65.8955L68.6916 66.974L46.6018 79.7284ZM35.5904 22.3435L35.685 22.3043L35.7865 22.2778C35.7877 22.2778 35.7877 22.2766 35.7888 22.2766L35.8684 22.2559L35.8719 22.2547L35.8834 22.257L35.963 22.2778L36.0622 22.3043L36.113 22.3262C36.113 22.3274 36.1153 22.3262 36.1164 22.3274C36.1176 22.3274 36.1187 22.3285 36.1199 22.3285L36.1591 22.3447L40.2391 24.6978L40.344 24.7809L40.3452 24.782L40.479 24.8916L40.5032 24.9228L40.5967 25.0762L40.6497 25.2504L40.6855 25.3946L43.312 44.0791L25.6322 54.2808L11.4048 46.0689V36.6528L11.4405 36.4567L11.4532 36.391L11.4982 36.3079L11.5282 36.2641L11.6009 36.1983L11.6908 36.1257L35.5904 22.3435ZM44.1345 95.0181V81.0238L45.0596 81.5624C45.0896 81.5797 45.1219 81.5867 45.1519 81.5994C45.168 81.6086 45.1773 81.6213 45.1946 81.6259L45.4137 81.7147C45.4322 81.7216 45.4506 81.7193 45.4691 81.7274C45.4875 81.7332 45.4979 81.747 45.5164 81.7516L45.6698 81.7954C45.6756 81.7966 45.6813 81.7966 45.6894 81.7978C45.6929 81.7978 45.694 81.8012 45.6986 81.8024L45.874 81.8474C45.9605 81.8681 46.0447 81.8785 46.1301 81.8785H46.3158H46.5142C46.5984 81.8785 46.6837 81.867 46.7702 81.8474L46.9456 81.8024C46.949 81.8012 46.9514 81.7978 46.9548 81.7978C46.9606 81.7966 46.9675 81.7966 46.9744 81.7954L47.1267 81.7516C47.1463 81.7458 47.1567 81.732 47.1751 81.7274C47.1936 81.7193 47.212 81.7216 47.2305 81.7147L47.4497 81.6259C47.4658 81.6201 47.475 81.6074 47.4889 81.6017C47.52 81.5878 47.5523 81.5797 47.58 81.5647L68.1725 69.6755V80.7988L68.1644 80.8461C68.1633 80.853 68.1656 80.8588 68.1656 80.868C68.1633 80.8738 68.1586 80.8796 68.1586 80.8865L68.1436 81.0007L68.1367 81.0318L68.0756 81.1391L68.0468 81.1852L67.9752 81.2498L67.8899 81.319L44.1345 95.0181ZM70.2476 79.9498V68.4712L71.6065 67.6776C71.6146 67.673 71.618 67.6649 71.6272 67.6592C71.6376 67.6534 71.6492 67.6511 71.6584 67.6419L71.8233 67.5346C71.8476 67.5173 71.8591 67.4919 71.8833 67.4746C71.9064 67.4539 71.9387 67.4469 71.9583 67.425L72.1682 67.2289C72.1936 67.2035 72.204 67.1712 72.2282 67.1459C72.2455 67.124 72.2709 67.1193 72.2882 67.0963L72.4185 66.9198C72.4312 66.9048 72.4335 66.8875 72.4428 66.8702C72.4578 66.8483 72.4762 66.831 72.4889 66.8056C72.5097 66.8056 72.5235 66.8056 72.5431 66.8033L72.7392 66.7802C72.7542 66.7779 72.7635 66.7687 72.7773 66.7664C72.8119 66.7629 72.8442 66.7641 72.8788 66.7548L73.0091 66.7225L73.106 66.7087C73.1787 66.6983 73.2375 66.6614 73.3045 66.6372C73.3425 66.6222 73.384 66.6268 73.421 66.6106L73.639 66.5011C73.647 66.4976 73.6517 66.4884 73.6597 66.4849C73.6713 66.4791 73.6828 66.4768 73.6943 66.4711L94.2891 54.5807V65.7086L94.2868 65.719C94.2833 65.7363 94.2903 65.749 94.2868 65.764C94.2845 65.7813 94.2741 65.7905 94.273 65.8055L94.258 65.9335L94.2499 65.9612L94.1991 66.0535L94.1876 66.0708L94.0872 66.155L94.0054 66.2208L70.2476 79.9498ZM96.3631 64.8677V53.3891L97.7127 52.6151C97.7335 52.6013 97.745 52.5851 97.7635 52.5713C97.79 52.5517 97.8212 52.5447 97.8465 52.5251L98.0103 52.3936C98.015 52.3902 98.0173 52.3867 98.0196 52.3832C98.0242 52.3798 98.0276 52.3798 98.0311 52.3763L98.2387 52.201C98.2757 52.1721 98.2941 52.1283 98.3241 52.0937C98.3483 52.0683 98.3818 52.058 98.4014 52.028L98.5317 51.8538C98.5467 51.8342 98.549 51.8146 98.5594 51.795C98.5813 51.7627 98.609 51.7315 98.6275 51.6958L98.7705 51.412C98.7867 51.382 98.7855 51.3462 98.7959 51.3174C98.8143 51.2678 98.8455 51.224 98.857 51.1698L98.8997 50.9725C98.902 50.9621 98.8997 50.954 98.8997 50.9471C98.902 50.9367 98.9089 50.9298 98.9101 50.9194L98.9654 50.593C98.9712 50.5642 98.9597 50.5342 98.962 50.5076C98.9654 50.4788 98.9804 50.4534 98.9804 50.4234V45.6064C98.9804 45.5729 98.9643 45.5464 98.9608 45.5152C98.9585 45.4841 98.9701 45.4541 98.9631 45.423L98.9089 45.1161C98.9089 45.1127 98.9055 45.1092 98.9043 45.1046C98.9043 45.1011 98.9055 45.0977 98.9043 45.0931L98.8616 44.8762C98.8501 44.822 98.8189 44.7805 98.8005 44.7297C98.7809 44.6801 98.7786 44.6282 98.7543 44.5809L98.6113 44.319C98.5975 44.2948 98.5767 44.2821 98.5629 44.2602C98.5479 44.2383 98.5456 44.2164 98.5329 44.1956L98.4014 44.0191C98.3818 43.9938 98.3552 43.9834 98.3356 43.9592C98.3137 43.9349 98.3056 43.9049 98.2814 43.8842L98.0726 43.6869C98.0496 43.665 98.0207 43.6592 97.9977 43.6408C97.9734 43.62 97.9619 43.5958 97.9365 43.5785L97.7716 43.4678C97.7612 43.4608 97.7496 43.4608 97.7416 43.4551C97.73 43.4482 97.7254 43.4378 97.7162 43.4332L72.3447 28.7859C72.3344 28.7801 72.324 28.7801 72.3159 28.7755C72.3055 28.7697 72.3009 28.7605 72.2917 28.7536L72.0737 28.6452C72.0379 28.6267 71.9998 28.6279 71.9606 28.6163C71.9225 28.6013 71.8926 28.5759 71.8522 28.5633L71.6665 28.5194H71.6642L71.4934 28.479C71.4796 28.4756 71.4669 28.4802 71.4531 28.4767L69.4748 14.4304L100.27 32.2083L100.352 32.2753L100.447 32.3525L100.468 32.386L100.513 32.4702L100.528 32.5359L100.562 32.7309V62.0946L100.527 62.3115L100.516 62.353L100.471 62.443L100.468 62.4453L100.352 62.5445L100.27 62.6114L96.3631 64.8677Z" fill="#264F68"/>
<path d="M19.3546 7.58447C19.0835 6.21641 18.3476 5.03175 17.2748 4.21853C17.0234 4.0282 16.6911 3.9786 16.3958 4.09049C14.691 4.72607 13.7785 4.34772 13.2029 3.2911C13.0541 3.01772 12.9422 2.71896 12.865 2.41674C12.8188 2.24026 12.7957 2.10645 12.79 2.04993C12.7519 1.7131 12.5327 1.42357 12.219 1.29784C10.8855 0.756841 9.39865 0.756841 8.06635 1.29784C7.75144 1.42357 7.53343 1.7131 7.49536 2.04877C7.48844 2.10645 7.46537 2.2391 7.42038 2.41559C7.34195 2.71781 7.23121 3.01657 7.08241 3.28995C6.50565 4.34656 5.59322 4.72492 3.88949 4.08933C3.59304 3.9786 3.26083 4.0282 3.00936 4.21853C1.93775 5.03175 1.20066 6.2164 0.93881 7.54294C0.874214 7.88323 0.967648 8.19006 1.18105 8.40461C3.12471 10.3725 3.12471 14.246 1.18105 16.215C0.967648 16.4307 0.874214 16.7376 0.930736 17.0352C1.20066 18.4032 1.9366 19.5867 3.00936 20.4011C3.25621 20.5891 3.58266 20.6399 3.87565 20.5361C3.96331 20.5049 4.14903 20.4507 4.40857 20.3942C5.2564 20.2108 6.14345 20.175 6.94283 20.3757C7.99829 20.6399 8.79306 21.2905 9.29138 22.4751C9.60859 23.2284 10.6756 23.2284 10.9928 22.4751C11.4923 21.2905 12.287 20.6399 13.3425 20.3757C14.1407 20.1739 15.0278 20.2096 15.8768 20.3942C16.1363 20.4507 16.322 20.5049 16.4097 20.5361C16.7027 20.6399 17.028 20.5891 17.276 20.4011C18.3476 19.5867 19.0847 18.4032 19.3465 17.0767C19.4111 16.7376 19.3165 16.4296 19.1043 16.215C17.1595 14.2471 17.1595 10.3737 19.1043 8.40461C19.3165 8.18891 19.4111 7.88323 19.3546 7.58447ZM17.434 17.1171C17.2518 17.695 16.9288 18.2198 16.4951 18.6397C16.4235 18.6236 16.3486 18.6074 16.2678 18.5878C15.1651 18.349 14.0069 18.3029 12.8915 18.5832C11.7968 18.86 10.8602 19.4299 10.1427 20.3158C9.42519 19.4299 8.48738 18.86 7.3927 18.5843C6.27841 18.304 5.11913 18.3502 4.01638 18.589C3.93678 18.6086 3.86065 18.6247 3.79029 18.6409C3.35657 18.221 3.03474 17.6973 2.85018 17.1171C5.02916 14.494 5.02916 10.1257 2.85018 7.50257C3.03012 6.93273 3.34849 6.41481 3.77298 5.99493C6.09039 6.67204 7.7699 5.88535 8.70309 4.17238C8.95455 3.71098 9.1195 3.25534 9.21871 2.85508C9.8243 2.6982 10.4599 2.6982 11.0655 2.85508C11.1658 3.25534 11.3296 3.71098 11.5823 4.17238C12.5154 5.88535 14.1938 6.67204 16.5124 5.99493C16.9357 6.4125 17.2529 6.93158 17.434 7.50372C15.255 10.1257 15.255 14.4928 17.434 17.1171Z" fill="#264F68"/>
</g>
<defs>
<clipPath id="clip0_111_1547">
<rect width="101.72" height="99.9978" fill="white" transform="translate(0.914551 0.891602)"/>
</clipPath>
</defs>
</svg>
