<!DOCTYPE svg PUBLIC "-//W3C//DTD SVG 1.1//EN" "http://www.w3.org/Graphics/SVG/1.1/DTD/svg11.dtd">
<!-- Uploaded to: SVG Repo, www.svgrepo.com, Transformed by: SVG Repo Mixer Tools -->
<svg height="800px" width="800px" version="1.1" id="Layer_1" xmlns="http://www.w3.org/2000/svg" xmlns:xlink="http://www.w3.org/1999/xlink" viewBox="0 0 503.467 503.467" xml:space="preserve" fill="#000000">
<g id="SVGRepo_bgCarrier" stroke-width="0"/>
<g id="SVGRepo_tracerCarrier" stroke-linecap="round" stroke-linejoin="round"/>
<g id="SVGRepo_iconCarrier"> <g transform="translate(15 1)"> <path style="fill:#F2EDDA;" d="M347.667,327.533c9.387,0,17.067,7.68,17.067,17.067s-7.68,17.067-17.067,17.067H125.8 c-9.387,0-17.067-7.68-17.067-17.067c0-4.267,1.707-8.533,5.12-11.947c3.413-3.413,7.68-5.12,11.947-5.12h110.933H347.667z M347.667,259.267c2.56,20.48-15.36,34.133-34.133,34.133h-153.6c-18.773,0-36.693-13.653-34.133-34.133L142.867,37.4 c2.56-19.627,15.36-34.133,34.133-34.133h119.467c18.773,0,32.427,15.36,34.133,34.133L347.667,259.267z"/> <path style="fill:#264F68;" d="M270.867,225.133c5.12,0,8.533-3.413,8.533-8.533c0-5.12-3.413-8.533-8.533-8.533 c-5.12,0-8.533,3.413-8.533,8.533C262.333,221.72,265.747,225.133,270.867,225.133z M270.867,156.867 c5.12,0,8.533-3.413,8.533-8.533s-3.413-8.533-8.533-8.533c-5.12,0-8.533,3.413-8.533,8.533S265.747,156.867,270.867,156.867z M270.867,88.6c5.12,0,8.533-3.413,8.533-8.533c0-5.12-3.413-8.533-8.533-8.533c-5.12,0-8.533,3.413-8.533,8.533 C262.333,85.187,265.747,88.6,270.867,88.6z M202.6,88.6c5.12,0,8.533-3.413,8.533-8.533c0-5.12-3.413-8.533-8.533-8.533 c-5.12,0-8.533,3.413-8.533,8.533C194.067,85.187,197.48,88.6,202.6,88.6z M202.6,156.867c5.12,0,8.533-3.413,8.533-8.533 s-3.413-8.533-8.533-8.533c-5.12,0-8.533,3.413-8.533,8.533S197.48,156.867,202.6,156.867z M202.6,225.133 c5.12,0,8.533-3.413,8.533-8.533c0-5.12-3.413-8.533-8.533-8.533c-5.12,0-8.533,3.413-8.533,8.533 C194.067,221.72,197.48,225.133,202.6,225.133z"/> <path style="fill:#264F68;" d="M236.733,464.067c9.387,0,17.067,7.68,17.067,17.067s-7.68,17.067-17.067,17.067 s-17.067-7.68-17.067-17.067S227.347,464.067,236.733,464.067z M159.933,464.067c9.387,0,17.067,7.68,17.067,17.067 s-7.68,17.067-17.067,17.067c-9.387,0-17.067-7.68-17.067-17.067S150.547,464.067,159.933,464.067z M313.533,464.067 c9.387,0,17.067,7.68,17.067,17.067s-7.68,17.067-17.067,17.067s-17.067-7.68-17.067-17.067S304.147,464.067,313.533,464.067z"/> </g> <path style="fill:#264F68;" d="M328.533,503.467c-11.947,0-21.333-9.387-21.333-21.333c0-4.267,1.707-8.533,3.413-11.947 L256,415.573V460.8c9.387,1.707,17.067,10.24,17.067,21.333c0,11.947-9.387,21.333-21.333,21.333 c-11.947,0-21.333-9.387-21.333-21.333c0-10.24,7.68-18.773,17.067-21.333v-45.227l-54.613,54.613 c2.56,3.413,3.413,7.68,3.413,11.947c0,11.947-9.387,21.333-21.333,21.333c-11.947,0-21.333-9.387-21.333-21.333 s9.387-21.333,21.333-21.333c4.267,0,8.533,1.707,11.947,3.413l60.587-60.587v-15.36c0-2.56,1.707-4.267,4.267-4.267 c2.56,0,4.267,1.707,4.267,4.267v15.36l60.587,60.587c3.413-2.56,7.68-3.413,11.947-3.413c11.947,0,21.333,9.387,21.333,21.333 S340.48,503.467,328.533,503.467z M328.533,469.333c-6.827,0-12.8,5.973-12.8,12.8s5.973,12.8,12.8,12.8s12.8-5.973,12.8-12.8 S335.36,469.333,328.533,469.333z M251.733,469.333c-6.827,0-12.8,5.973-12.8,12.8s5.973,12.8,12.8,12.8 c6.827,0,12.8-5.973,12.8-12.8S258.56,469.333,251.733,469.333z M174.933,469.333c-6.827,0-12.8,5.973-12.8,12.8 s5.973,12.8,12.8,12.8c6.827,0,12.8-5.973,12.8-12.8S181.76,469.333,174.933,469.333z M362.667,366.933H140.8 c-10.24,0-18.773-7.68-20.48-17.067h-13.653c-12.8,0-21.333-8.533-21.333-21.333V230.4h-12.8c-2.56,0-4.267-1.707-4.267-4.267 s1.707-4.267,4.267-4.267h34.133c2.56,0,4.267,1.707,4.267,4.267s-1.707,4.267-4.267,4.267h-12.8v98.133 c0,8.533,4.267,12.8,12.8,12.8h13.653c1.707-9.387,10.24-17.067,20.48-17.067h106.667V320c0-2.56,1.707-4.267,4.267-4.267 c2.56,0,4.267,1.707,4.267,4.267v4.267h106.667c10.24,0,18.773,7.68,21.333,17.067h12.8c8.533,0,12.8-4.267,12.8-12.8V230.4h-12.8 c-2.56,0-4.267-1.707-4.267-4.267s1.707-4.267,4.267-4.267h34.133c2.56,0,4.267,1.707,4.267,4.267s-1.707,4.267-4.267,4.267h-12.8 v98.133c0,12.8-8.533,21.333-21.333,21.333H384C381.44,359.253,372.907,366.933,362.667,366.933z M140.8,332.8 c-6.827,0-12.8,5.973-12.8,12.8c0,6.827,5.973,12.8,12.8,12.8h221.867c6.827,0,12.8-5.973,12.8-12.8c0-6.827-5.973-12.8-12.8-12.8 H140.8z M328.533,298.667h-153.6c-11.947,0-23.04-5.12-29.867-12.8c-5.973-6.827-9.387-16.213-8.533-25.6L153.6,38.4 C156.16,15.36,171.52,0,192,0h119.467c20.48,0,36.693,16.213,38.4,38.4l17.067,221.867c0.853,9.387-1.707,18.773-8.533,25.6 C351.573,293.547,340.48,298.667,328.533,298.667z M192,8.533c-16.213,0-27.307,11.947-29.867,30.72L145.067,261.12 c-0.853,7.68,1.707,14.507,5.973,19.627c5.973,5.973,14.507,10.24,23.893,10.24h153.6c9.387,0,17.92-3.413,23.893-10.24 c5.12-5.12,6.827-11.947,5.973-19.627l0,0L341.333,39.253c-1.707-17.067-14.507-29.867-29.867-29.867H192V8.533z M285.867,230.4 c-6.827,0-12.8-5.973-12.8-12.8c0-6.827,5.973-12.8,12.8-12.8c6.827,0,12.8,5.973,12.8,12.8 C298.667,224.427,292.693,230.4,285.867,230.4z M285.867,213.333c-2.56,0-4.267,1.707-4.267,4.267c0,2.56,1.707,4.267,4.267,4.267 s4.267-1.707,4.267-4.267C290.133,215.04,288.427,213.333,285.867,213.333z M217.6,230.4c-6.827,0-12.8-5.973-12.8-12.8 c0-6.827,5.973-12.8,12.8-12.8c6.827,0,12.8,5.973,12.8,12.8C230.4,224.427,224.427,230.4,217.6,230.4z M217.6,213.333 c-2.56,0-4.267,1.707-4.267,4.267c0,2.56,1.707,4.267,4.267,4.267s4.267-1.707,4.267-4.267 C221.867,215.04,220.16,213.333,217.6,213.333z M285.867,162.133c-6.827,0-12.8-5.973-12.8-12.8c0-6.827,5.973-12.8,12.8-12.8 c6.827,0,12.8,5.973,12.8,12.8C298.667,156.16,292.693,162.133,285.867,162.133z M285.867,145.067c-2.56,0-4.267,1.707-4.267,4.267 s1.707,4.267,4.267,4.267s4.267-1.707,4.267-4.267S288.427,145.067,285.867,145.067z M217.6,162.133c-6.827,0-12.8-5.973-12.8-12.8 c0-6.827,5.973-12.8,12.8-12.8c6.827,0,12.8,5.973,12.8,12.8C230.4,156.16,224.427,162.133,217.6,162.133z M217.6,145.067 c-2.56,0-4.267,1.707-4.267,4.267s1.707,4.267,4.267,4.267s4.267-1.707,4.267-4.267S220.16,145.067,217.6,145.067z M285.867,93.867 c-6.827,0-12.8-5.973-12.8-12.8c0-6.827,5.973-12.8,12.8-12.8c6.827,0,12.8,5.973,12.8,12.8 C298.667,87.893,292.693,93.867,285.867,93.867z M285.867,76.8c-2.56,0-4.267,1.707-4.267,4.267c0,2.56,1.707,4.267,4.267,4.267 s4.267-1.707,4.267-4.267C290.133,78.507,288.427,76.8,285.867,76.8z M217.6,93.867c-6.827,0-12.8-5.973-12.8-12.8 c0-6.827,5.973-12.8,12.8-12.8c6.827,0,12.8,5.973,12.8,12.8C230.4,87.893,224.427,93.867,217.6,93.867z M217.6,76.8 c-2.56,0-4.267,1.707-4.267,4.267c0,2.56,1.707,4.267,4.267,4.267s4.267-1.707,4.267-4.267C221.867,78.507,220.16,76.8,217.6,76.8z"/> </g>
</svg>