<svg width="103" height="101" viewBox="0 0 103 101" fill="none" xmlns="http://www.w3.org/2000/svg">
<g clip-path="url(#clip0_111_1604)">
<path d="M44.748 44.4514L71.2788 28.3022L97.8095 44.4514V51.3725L72.4323 65.2146V60.6005L70.1253 58.2935L44.748 44.4514Z" fill="#ABCAE5"/>
<path d="M102.62 32.0062L102.564 31.7016C102.563 31.697 102.561 31.6947 102.561 31.6901C102.56 31.6866 102.561 31.682 102.561 31.6774L102.516 31.4594C102.506 31.4075 102.474 31.3671 102.457 31.3175C102.438 31.2691 102.435 31.2172 102.411 31.1699L102.268 30.9057C102.26 30.8907 102.245 30.8826 102.237 30.8688C102.229 30.8526 102.228 30.8388 102.218 30.8238L102.087 30.6277C102.06 30.5862 102.016 30.5608 101.984 30.5227C101.951 30.487 101.931 30.4443 101.892 30.4097L101.685 30.2344C101.681 30.2297 101.674 30.2298 101.67 30.2251C101.666 30.2228 101.665 30.2182 101.66 30.2159L101.496 30.0844C101.473 30.0671 101.449 30.0636 101.427 30.0498C101.405 30.0325 101.392 30.0117 101.367 29.9979L69.5082 11.6052C69.4886 11.5936 69.4679 11.5936 69.4471 11.5821C69.4252 11.5729 69.4148 11.5579 69.3941 11.5487L69.1841 11.4598C69.1622 11.4518 69.1437 11.4552 69.1218 11.4471C69.1184 11.4448 69.1149 11.4425 69.1114 11.4425L68.8461 9.53578C68.8438 9.51386 68.8311 9.50232 68.8277 9.48271C68.8231 9.46195 68.83 9.44696 68.8242 9.42735L68.7723 9.20818L68.6835 8.85751C68.6685 8.79753 68.6327 8.75485 68.6108 8.70294C68.5866 8.64873 68.5808 8.59336 68.5462 8.5426L68.3594 8.25769C68.3524 8.2473 68.3409 8.24154 68.3351 8.23346C68.3271 8.22077 68.3259 8.20924 68.3167 8.20001L68.1863 8.02583C68.1633 7.99815 68.131 7.98084 68.1056 7.95431C68.0814 7.92778 68.0687 7.89318 68.041 7.86895L67.7884 7.65094C67.7699 7.63364 67.7491 7.63018 67.7295 7.61749C67.7122 7.60249 67.703 7.58173 67.6822 7.56904L67.5184 7.45946C67.5081 7.45254 67.4965 7.45254 67.4884 7.44561C67.4792 7.43985 67.4746 7.43062 67.4642 7.42485L63.2481 4.97134C63.2262 4.95749 63.1997 4.95749 63.1755 4.94596C63.1512 4.93558 63.1363 4.91597 63.1109 4.90443L62.8929 4.81907C62.8744 4.811 62.8583 4.81446 62.8398 4.80754C62.8202 4.80062 62.811 4.78793 62.7902 4.78331L62.6368 4.73833C62.631 4.73602 62.6253 4.73833 62.6206 4.73717C62.6149 4.73487 62.6103 4.7291 62.6033 4.72794L62.4303 4.68642C62.3876 4.67604 62.3461 4.68642 62.3046 4.68065C62.2619 4.67604 62.225 4.65527 62.1811 4.65527H61.9839H61.797C61.7532 4.65527 61.714 4.67719 61.6713 4.68065C61.6298 4.68526 61.5894 4.67604 61.5467 4.68642L61.3737 4.7291C61.3668 4.73025 61.3622 4.73602 61.3564 4.73833C61.3506 4.73948 61.3425 4.73717 61.3368 4.73948L61.1834 4.78216C61.1649 4.78793 61.1534 4.80177 61.1361 4.80754C61.1176 4.81215 61.1003 4.80754 61.083 4.81676L60.8638 4.90212C60.8419 4.91366 60.8269 4.93212 60.8027 4.94134C60.7785 4.95519 60.7519 4.95519 60.73 4.96672L36.7059 18.8527C36.6874 18.8642 36.677 18.8804 36.6597 18.8942C36.6424 18.9057 36.6205 18.908 36.6044 18.9196L36.4302 19.0499C36.4163 19.0603 36.4117 19.073 36.399 19.0834C36.3875 19.0949 36.3714 19.0972 36.3598 19.1076L36.1637 19.2829C36.1372 19.3072 36.1257 19.3395 36.1026 19.3614C36.0795 19.3879 36.0472 19.4029 36.0265 19.4317L35.895 19.6048C35.8788 19.6278 35.8753 19.6521 35.8615 19.6763C35.8488 19.6959 35.8281 19.7074 35.8177 19.7305C35.7934 19.7317 35.7715 19.7213 35.7485 19.7247L35.5627 19.7455C35.5385 19.749 35.5189 19.7651 35.497 19.7697C35.4739 19.7743 35.452 19.7674 35.4301 19.7732L35.2548 19.8182C35.2513 19.8193 35.2501 19.8216 35.2467 19.8228C35.2421 19.8239 35.2375 19.8228 35.2328 19.8239L35.0806 19.8655C35.0598 19.8724 35.046 19.8874 35.0264 19.8908C35.0079 19.8978 34.9883 19.8943 34.9698 19.9035L34.7507 19.99C34.7276 20.0004 34.7115 20.02 34.6907 20.0304C34.6676 20.0419 34.6422 20.0408 34.6203 20.0546L10.5823 33.9187C10.5593 33.9337 10.5454 33.9544 10.5235 33.9694C10.5004 33.9879 10.4739 33.9925 10.452 34.0075L10.2882 34.139C10.2813 34.1459 10.279 34.154 10.2709 34.1609C10.2651 34.1644 10.257 34.1655 10.2501 34.1725L10.0517 34.3478C10.0183 34.3766 10.001 34.4193 9.97212 34.4528C9.94213 34.4874 9.90291 34.5104 9.87638 34.5473L9.74603 34.7446C9.7368 34.7607 9.73565 34.7746 9.72757 34.7896C9.71835 34.8057 9.70335 34.8138 9.69528 34.8276L9.55455 35.0918C9.52917 35.1402 9.52686 35.191 9.50956 35.2394C9.49111 35.289 9.46111 35.3283 9.45073 35.3825L9.4069 35.6005C9.40575 35.604 9.4069 35.6074 9.4069 35.612C9.4069 35.6166 9.40344 35.6201 9.40228 35.6236L9.34692 35.9304C9.3423 35.9615 9.35153 35.9915 9.34922 36.0227C9.34576 36.0538 9.33077 36.0815 9.33077 36.1127V45.1123L9.19235 45.1423L9.08161 45.1596C9.02278 45.1689 8.97433 45.2 8.91896 45.2173C8.86129 45.2369 8.80246 45.2404 8.74594 45.2681L8.53831 45.3788C8.53254 45.3823 8.52792 45.3892 8.52216 45.3926C8.51754 45.3961 8.50947 45.3961 8.5037 45.3984L4.32223 47.8069C4.29915 47.8196 4.28531 47.8439 4.2634 47.8588C4.24033 47.875 4.21264 47.8796 4.18957 47.8969L4.02577 48.0284C4.02231 48.0307 4.02116 48.0365 4.01654 48.04C4.01424 48.0423 4.01078 48.0423 4.00847 48.0446L3.80084 48.2176C3.76393 48.2476 3.74547 48.2914 3.71317 48.3272C3.68087 48.3618 3.63819 48.3872 3.61051 48.4275L3.49054 48.6029C3.48016 48.619 3.47901 48.6352 3.46978 48.6525C3.45825 48.6698 3.44325 48.6767 3.43402 48.694L3.29214 48.957C3.27022 48.9974 3.26907 49.04 3.25407 49.0816C3.23677 49.1219 3.20909 49.1554 3.19755 49.1992L3.14218 49.4184C3.13872 49.4369 3.14334 49.4518 3.14103 49.4715C3.13757 49.4899 3.12488 49.5014 3.12257 49.5222L3.07874 49.8302C3.07528 49.8544 3.08566 49.8786 3.08336 49.9029C3.0822 49.9271 3.06836 49.9502 3.06836 49.9755V79.5377C3.06836 79.5642 3.0822 79.585 3.08336 79.6115C3.08566 79.6358 3.07528 79.6611 3.07874 79.6842L3.12257 79.9933C3.12603 80.0129 3.13757 80.0256 3.14103 80.0476C3.14449 80.0626 3.13988 80.0787 3.14334 80.0972L3.19871 80.314C3.21255 80.3717 3.24254 80.4167 3.26561 80.4674C3.27714 80.4951 3.27714 80.5309 3.29329 80.5597L3.43518 80.8216C3.44671 80.8412 3.46286 80.8562 3.47555 80.8769C3.48247 80.8873 3.48362 80.9012 3.4917 80.9127L3.61166 81.0892C3.64742 81.1411 3.6901 81.1826 3.73163 81.2241C3.74201 81.2357 3.74432 81.2484 3.7547 81.2564L3.96233 81.4525C3.9854 81.4756 4.01539 81.4825 4.04077 81.5021C4.06269 81.5217 4.07537 81.546 4.10075 81.5621L4.26455 81.6729C4.27608 81.6798 4.28877 81.6832 4.29915 81.689C4.30838 81.6948 4.313 81.7028 4.32223 81.7098L36.1845 100.104C36.1949 100.111 36.2076 100.113 36.2202 100.121C36.2272 100.123 36.2318 100.131 36.2387 100.136L36.4579 100.244C36.4971 100.265 36.5375 100.258 36.5755 100.271C36.6413 100.295 36.7013 100.333 36.7728 100.342L36.8731 100.356L37.0046 100.389C37.0323 100.395 37.0612 100.394 37.0888 100.399C37.1027 100.4 37.1131 100.41 37.1258 100.413L37.3138 100.435C37.3541 100.44 37.3934 100.442 37.4337 100.442H37.436H37.4372C37.4741 100.442 37.5133 100.44 37.5525 100.435L37.7486 100.413C37.7613 100.412 37.7706 100.401 37.7833 100.4C37.8144 100.394 37.8467 100.397 37.8755 100.389L38.0059 100.359L38.1085 100.342C38.1812 100.332 38.24 100.295 38.3069 100.271C38.345 100.256 38.3854 100.261 38.4234 100.244L38.6426 100.136C38.6495 100.131 38.6542 100.123 38.6611 100.121C38.6726 100.113 38.6853 100.111 38.6968 100.104L42.8691 97.6963C42.8864 97.6859 42.8945 97.672 42.9106 97.6593C42.9314 97.6467 42.9544 97.642 42.9741 97.6282L43.1505 97.4967C43.1609 97.4875 43.1667 97.4736 43.1771 97.4644C43.1898 97.4563 43.2036 97.4529 43.2151 97.4436L43.4112 97.2683C43.4435 97.2418 43.4574 97.2026 43.4851 97.1714C43.5058 97.1483 43.5358 97.1391 43.5554 97.1137L43.6869 96.9361C43.6985 96.9211 43.6996 96.905 43.71 96.8876C43.7238 96.8657 43.7423 96.8484 43.755 96.8254C43.7804 96.8242 43.8057 96.8242 43.8311 96.8207L44.018 96.7977C44.0295 96.7965 44.0387 96.7873 44.0503 96.7861C44.0745 96.7838 44.101 96.785 44.1253 96.7781L44.311 96.7354C44.3202 96.7331 44.3248 96.7273 44.334 96.725C44.3456 96.7215 44.3583 96.7238 44.3709 96.7192L44.5232 96.6754C44.5428 96.6696 44.5555 96.6523 44.5751 96.6489C44.5947 96.642 44.6143 96.6443 44.6339 96.6373L44.8427 96.5485C44.8589 96.5439 44.867 96.5301 44.882 96.5243C44.9073 96.5116 44.9362 96.5047 44.9604 96.4931L68.9938 82.6303C69.0145 82.6153 69.0238 82.5991 69.0445 82.5853C69.0688 82.5668 69.0988 82.5611 69.1218 82.5426L69.2868 82.4122C69.2948 82.4053 69.2983 82.395 69.3064 82.3892C69.3145 82.3811 69.3248 82.3776 69.3318 82.3707L69.5209 82.2023C69.5244 82.2 69.5279 82.1977 69.529 82.1954C69.5925 82.1377 69.649 82.0743 69.6974 82.0005L69.8301 81.8044C69.837 81.7928 69.837 81.7813 69.8439 81.7709C69.8508 81.7605 69.8612 81.7501 69.867 81.7409H70.0089H70.01C70.0885 81.7409 70.1704 81.7305 70.25 81.7132L70.4368 81.6682C70.4426 81.6671 70.4449 81.6636 70.4507 81.6613C70.4576 81.659 70.4657 81.6613 70.4737 81.6579L70.6248 81.6163C70.6491 81.6094 70.6652 81.5933 70.6894 81.5852C70.7102 81.5783 70.7321 81.5817 70.754 81.5713L70.9617 81.4837C70.9767 81.4779 70.9847 81.4641 70.9963 81.4594C71.0228 81.4479 71.0505 81.4421 71.077 81.4283L95.1104 67.5447C95.1312 67.532 95.1404 67.5124 95.1612 67.4985C95.1854 67.4812 95.2131 67.4754 95.2373 67.457L95.4023 67.3266C95.4046 67.3243 95.4057 67.3197 95.4103 67.3163C95.4138 67.3128 95.4207 67.3116 95.4253 67.3082L95.6329 67.1329C95.6791 67.0936 95.7033 67.0406 95.7414 66.9956C95.7645 66.9714 95.7968 66.9598 95.8164 66.9298L95.9375 66.7545C95.9456 66.743 95.9467 66.7291 95.9548 66.7141C95.9652 66.7003 95.9779 66.6899 95.9836 66.6749C96.0067 66.6738 96.0275 66.6738 96.0482 66.6715L96.2455 66.6495C96.2616 66.6472 96.272 66.6368 96.287 66.6357C96.3216 66.6299 96.355 66.6311 96.3897 66.6218L96.565 66.5769C96.5685 66.5757 96.5708 66.5723 96.5742 66.5723C96.5811 66.5688 96.5881 66.5699 96.5961 66.5688L96.7472 66.5261C96.7657 66.5192 96.7772 66.5065 96.7968 66.5019C96.8153 66.4961 96.8326 66.4973 96.8511 66.4892L97.0702 66.4015C97.0864 66.3958 97.0944 66.3819 97.1106 66.375C97.1394 66.3623 97.1729 66.3554 97.2006 66.3392L101.373 63.9307C101.396 63.9169 101.404 63.8984 101.425 63.8846C101.449 63.8673 101.478 63.8627 101.501 63.843L101.665 63.7127C101.668 63.7104 101.67 63.7058 101.674 63.7023C101.68 63.6989 101.684 63.6977 101.69 63.6942L101.897 63.5189C101.935 63.4866 101.952 63.4451 101.983 63.4105C102.005 63.3863 102.037 63.377 102.056 63.3482L102.187 63.1752C102.2 63.1567 102.202 63.1382 102.211 63.1198C102.236 63.0852 102.266 63.0517 102.284 63.0114L102.427 62.7264C102.444 62.6964 102.442 62.6618 102.453 62.6272C102.471 62.5823 102.5 62.5419 102.511 62.4911L102.554 62.2939C102.556 62.2835 102.554 62.2754 102.555 62.2673C102.557 62.257 102.564 62.2489 102.567 62.2385L102.622 61.9098C102.627 61.8832 102.615 61.8532 102.617 61.8267C102.621 61.7979 102.636 61.7713 102.636 61.7413V32.1907C102.636 32.1584 102.62 32.1307 102.617 32.0984C102.615 32.0696 102.626 32.0396 102.62 32.0062ZM37.6852 98.2846L37.6229 98.3168C37.6183 98.318 37.6148 98.3203 37.6114 98.3215C37.5952 98.3238 37.5779 98.3192 37.5618 98.3226L37.4464 98.3492L37.4395 98.3503L37.4303 98.3492L37.3184 98.3226C37.3011 98.3192 37.2849 98.3238 37.2676 98.3215C37.2642 98.3203 37.2607 98.318 37.2549 98.3168L37.1927 98.2846L5.38345 79.9195L5.32463 79.8803L5.26003 79.8192L5.2335 79.7799L5.17928 79.6796L5.1689 79.6392L5.14237 79.4616V50.0459L5.1689 49.866L5.17928 49.8256L5.2335 49.7252L5.24388 49.7102L5.32232 49.6433C5.32347 49.6433 5.32347 49.6433 5.32463 49.6422L5.43075 49.5591L9.51302 47.2083L9.56954 47.1783C9.58569 47.1748 9.59953 47.176 9.61453 47.1725L9.74257 47.1425L9.75872 47.1414L9.77602 47.1425L9.8833 47.169C9.90522 47.1748 9.92598 47.1737 9.94674 47.1771L10.0136 47.2094L25.1131 55.9288L41.8102 65.5733L41.8782 65.6148L41.9347 65.6725L41.9797 65.7348L42.0086 65.7879L42.0224 65.8536L42.0582 66.0509V78.7683V95.4192L42.0559 95.4296C42.0547 95.4365 42.057 95.4411 42.0559 95.4469C42.0547 95.4527 42.0524 95.4573 42.0512 95.4642L42.0213 95.6349L42.0097 95.6926L41.9809 95.7491L41.9555 95.7814L41.8724 95.8553L41.7779 95.9256L37.6852 98.2846ZM61.7094 6.80311L61.8005 6.7662L61.8882 6.74197L61.9262 6.73159H61.9839H62.0508L62.1016 6.74428L62.1754 6.7662L62.2711 6.80426L66.3926 9.20472L66.4757 9.26009L66.5956 9.36275L66.6395 9.42273L66.711 9.53347L66.756 9.71572L66.7987 9.88067L67.162 12.4749L69.4252 28.5422L45.7955 42.1951C45.7713 42.2113 45.7575 42.2332 45.7344 42.2493C45.7136 42.2655 45.6859 42.2689 45.6652 42.2839L45.5014 42.4166C45.4772 42.4362 45.4656 42.465 45.4426 42.4858C45.4218 42.5077 45.3953 42.5146 45.3757 42.5377L45.273 42.6531L42.7341 24.5995C42.733 24.5799 42.7203 24.5672 42.7157 24.5487C42.7122 24.5291 42.718 24.5118 42.7145 24.4933L42.6591 24.2742C42.6568 24.2649 42.6511 24.2603 42.6488 24.2523C42.6465 24.243 42.6488 24.2338 42.6465 24.2269L42.5484 23.9004C42.5346 23.8566 42.5046 23.8266 42.4861 23.7839C42.4665 23.7424 42.4642 23.6986 42.4411 23.6594L42.2554 23.3514C42.245 23.3364 42.2312 23.3306 42.222 23.3168C42.2127 23.3006 42.2116 23.2868 42.2012 23.2729L42.0709 23.0964C42.0443 23.0618 42.0051 23.0434 41.9774 23.0122C41.9463 22.9822 41.929 22.9407 41.8932 22.9119L41.6533 22.7158C41.6521 22.7146 41.651 22.7146 41.6498 22.7135C41.6487 22.7123 41.6475 22.7112 41.6464 22.71L41.4826 22.5785C41.4606 22.5601 41.4341 22.5554 41.411 22.5393C41.3891 22.5255 41.3764 22.5024 41.3522 22.4874L37.9586 20.5322L61.7094 6.80311ZM96.6515 44.7686L96.7103 44.8078L96.7934 44.8828L96.8199 44.9232L96.8534 44.9843L96.8672 45.0501L96.9018 45.2461V49.8856L96.8661 50.099L96.8545 50.1509L96.8141 50.2305L96.8061 50.242L96.7103 50.3204C96.7103 50.3216 96.7092 50.3216 96.708 50.3216L96.6031 50.4058L94.8059 51.437C94.8059 51.4382 94.8047 51.437 94.8036 51.4382L72.865 64.1037V60.2418C72.865 60.2106 72.8511 60.1853 72.8477 60.1576C72.8454 60.1287 72.8557 60.1011 72.8511 60.0711L72.7958 59.7435C72.7934 59.7331 72.7865 59.7273 72.7842 59.7192C72.7819 59.7077 72.7865 59.6985 72.7842 59.6904L72.7404 59.4932C72.7312 59.4505 72.7046 59.4193 72.6885 59.3778C72.6735 59.3374 72.6746 59.2948 72.6562 59.2532L72.5131 58.9683C72.4981 58.9406 72.4728 58.921 72.4543 58.8956C72.4359 58.868 72.4324 58.8357 72.4139 58.8103L72.2836 58.6361C72.2582 58.6038 72.2213 58.5853 72.1948 58.5577C72.1694 58.5311 72.1544 58.4931 72.1244 58.47L71.9156 58.2924C71.911 58.2912 71.9052 58.29 71.9018 58.2866C71.8983 58.282 71.896 58.2774 71.8914 58.2727L71.7264 58.1424C71.7045 58.1251 71.6792 58.1205 71.6572 58.1066C71.6342 58.0916 71.6226 58.0697 71.5984 58.0547L47.0471 43.87L70.7956 30.1467L70.9178 30.0982L70.9767 30.0752L71.0367 30.0602L71.0574 30.059H71.0643L71.1785 30.0844H71.1797C71.1797 30.0844 71.1797 30.0856 71.1808 30.0856L71.2512 30.1052L71.3354 30.1467L96.6515 44.7686ZM46.6018 79.2782L46.5015 79.3185L46.4011 79.3451L46.3827 79.3497H46.3146H46.2558L46.2373 79.3451L46.1358 79.3185L46.0355 79.277L44.1333 78.172V65.9586C44.1333 65.9263 44.1172 65.8986 44.1149 65.8675C44.1114 65.8363 44.1218 65.8063 44.1172 65.7752L44.0618 65.4683C44.0618 65.4637 44.0583 65.4603 44.0572 65.4557C44.056 65.4522 44.0583 65.4487 44.0572 65.4441L44.0134 65.2261C44.003 65.1719 43.9707 65.1315 43.9534 65.0831C43.9361 65.0335 43.9338 64.9804 43.9084 64.9343L43.7665 64.6736C43.7538 64.6505 43.7331 64.6367 43.7192 64.6159C43.7042 64.5928 43.7019 64.5674 43.6858 64.5444L43.5543 64.369C43.5381 64.346 43.5139 64.3391 43.4966 64.3183C43.4804 64.2975 43.4735 64.2756 43.4551 64.2548L43.259 64.0588C43.2301 64.0322 43.1932 64.0207 43.1621 63.9953C43.1309 63.9699 43.1102 63.933 43.0756 63.9111L42.8991 63.8027C42.8945 63.7992 42.8875 63.7992 42.8818 63.7957C42.8772 63.7923 42.8737 63.7865 42.8679 63.7842L27.7073 55.0256L44.6801 45.2323L44.8266 45.1712C44.83 45.17 44.8324 45.1677 44.8347 45.1677C44.8439 45.1631 44.8531 45.1539 44.8623 45.1493C44.8866 45.1389 44.9108 45.132 44.9339 45.1216L44.9408 45.1204H44.9431L45.0019 45.1377L45.1138 45.1758L45.2788 45.2461L70.4957 59.8069L70.5995 59.8877L70.6929 59.9684L70.6987 59.9742L70.7413 60.0607L70.7529 60.1114L70.7875 60.3237V64.9527L70.7863 64.9643C70.7852 64.97 70.7863 64.9746 70.7863 64.9793C70.7852 64.9873 70.7817 64.9919 70.7794 64.9966L70.7517 65.1707L70.739 65.2284L70.7114 65.2826L70.6779 65.3288L70.5972 65.4026L70.5337 65.4453L68.6916 66.5238L46.6018 79.2782ZM35.5904 21.8933L35.685 21.8541L35.7865 21.8276C35.7877 21.8276 35.7877 21.8264 35.7888 21.8264L35.8684 21.8057L35.8719 21.8045L35.8834 21.8068L35.963 21.8276L36.0622 21.8541L36.113 21.876C36.113 21.8772 36.1153 21.876 36.1164 21.8772C36.1176 21.8772 36.1187 21.8783 36.1199 21.8783L36.1591 21.8945L40.2391 24.2476L40.344 24.3307L40.3452 24.3319L40.479 24.4414L40.5032 24.4726L40.5967 24.626L40.6497 24.8002L40.6855 24.9444L43.312 43.6289L25.6322 53.8306L11.4048 45.6187V36.2026L11.4405 36.0065L11.4532 35.9408L11.4982 35.8577L11.5282 35.8139L11.6009 35.7481L11.6908 35.6755L35.5904 21.8933ZM44.1345 94.5679V80.5736L45.0596 81.1122C45.0896 81.1295 45.1219 81.1365 45.1519 81.1492C45.168 81.1584 45.1773 81.1711 45.1946 81.1757L45.4137 81.2645C45.4322 81.2714 45.4506 81.2691 45.4691 81.2772C45.4875 81.283 45.4979 81.2968 45.5164 81.3014L45.6698 81.3453C45.6756 81.3464 45.6813 81.3464 45.6894 81.3476C45.6929 81.3476 45.694 81.351 45.6986 81.3522L45.874 81.3972C45.9605 81.4179 46.0447 81.4283 46.1301 81.4283H46.3158H46.5142C46.5984 81.4283 46.6837 81.4168 46.7702 81.3972L46.9456 81.3522C46.949 81.351 46.9514 81.3476 46.9548 81.3476C46.9606 81.3464 46.9675 81.3464 46.9744 81.3453L47.1267 81.3014C47.1463 81.2957 47.1567 81.2818 47.1751 81.2772C47.1936 81.2691 47.212 81.2714 47.2305 81.2645L47.4497 81.1757C47.4658 81.1699 47.475 81.1572 47.4889 81.1515C47.52 81.1376 47.5523 81.1295 47.58 81.1145L68.1725 69.2253V80.3486L68.1644 80.3959C68.1633 80.4028 68.1656 80.4086 68.1656 80.4178C68.1633 80.4236 68.1586 80.4294 68.1586 80.4363L68.1436 80.5505L68.1367 80.5816L68.0756 80.6889L68.0468 80.735L67.9752 80.7996L67.8899 80.8689L44.1345 94.5679ZM70.2476 79.4996V68.0211L71.6065 67.2274C71.6146 67.2228 71.618 67.2148 71.6272 67.209C71.6376 67.2032 71.6492 67.2009 71.6584 67.1917L71.8233 67.0844C71.8476 67.0671 71.8591 67.0417 71.8833 67.0244C71.9064 67.0037 71.9387 66.9967 71.9583 66.9748L72.1682 66.7787C72.1936 66.7533 72.204 66.7211 72.2282 66.6957C72.2455 66.6738 72.2709 66.6691 72.2882 66.6461L72.4185 66.4696C72.4312 66.4546 72.4335 66.4373 72.4428 66.42C72.4578 66.3981 72.4762 66.3808 72.4889 66.3554C72.5097 66.3554 72.5235 66.3554 72.5431 66.3531L72.7392 66.33C72.7542 66.3277 72.7635 66.3185 72.7773 66.3162C72.8119 66.3127 72.8442 66.3139 72.8788 66.3046L73.0091 66.2723L73.106 66.2585C73.1787 66.2481 73.2375 66.2112 73.3045 66.187C73.3425 66.172 73.384 66.1766 73.421 66.1604L73.639 66.0509C73.647 66.0474 73.6517 66.0382 73.6597 66.0347C73.6713 66.0289 73.6828 66.0266 73.6943 66.0209L94.2891 54.1305V65.2584L94.2868 65.2688C94.2833 65.2861 94.2903 65.2988 94.2868 65.3138C94.2845 65.3311 94.2741 65.3403 94.273 65.3553L94.258 65.4833L94.2499 65.511L94.1991 65.6033L94.1876 65.6206L94.0872 65.7048L94.0054 65.7706L70.2476 79.4996ZM96.3631 64.4175V52.9389L97.7127 52.1649C97.7335 52.1511 97.745 52.1349 97.7635 52.1211C97.79 52.1015 97.8212 52.0945 97.8465 52.0749L98.0103 51.9434C98.015 51.94 98.0173 51.9365 98.0196 51.933C98.0242 51.9296 98.0276 51.9296 98.0311 51.9261L98.2387 51.7508C98.2757 51.722 98.2941 51.6781 98.3241 51.6435C98.3483 51.6181 98.3818 51.6078 98.4014 51.5778L98.5317 51.4036C98.5467 51.384 98.549 51.3644 98.5594 51.3448C98.5813 51.3125 98.609 51.2813 98.6275 51.2456L98.7705 50.9618C98.7867 50.9318 98.7855 50.896 98.7959 50.8672C98.8143 50.8176 98.8455 50.7738 98.857 50.7196L98.8997 50.5223C98.902 50.5119 98.8997 50.5038 98.8997 50.4969C98.902 50.4865 98.9089 50.4796 98.9101 50.4692L98.9654 50.1428C98.9712 50.114 98.9597 50.084 98.962 50.0574C98.9654 50.0286 98.9804 50.0032 98.9804 49.9732V45.1562C98.9804 45.1227 98.9643 45.0962 98.9608 45.065C98.9585 45.0339 98.9701 45.0039 98.9631 44.9728L98.9089 44.6659C98.9089 44.6625 98.9055 44.659 98.9043 44.6544C98.9043 44.6509 98.9055 44.6475 98.9043 44.6429L98.8616 44.426C98.8501 44.3718 98.8189 44.3303 98.8005 44.2795C98.7809 44.2299 98.7786 44.178 98.7543 44.1307L98.6113 43.8689C98.5975 43.8446 98.5767 43.8319 98.5629 43.81C98.5479 43.7881 98.5456 43.7662 98.5329 43.7454L98.4014 43.5689C98.3818 43.5436 98.3552 43.5332 98.3356 43.509C98.3137 43.4847 98.3056 43.4547 98.2814 43.434L98.0726 43.2367C98.0496 43.2148 98.0207 43.209 97.9977 43.1906C97.9734 43.1698 97.9619 43.1456 97.9365 43.1283L97.7716 43.0176C97.7612 43.0106 97.7496 43.0106 97.7416 43.0049C97.73 42.998 97.7254 42.9876 97.7162 42.983L72.3447 28.3357C72.3344 28.3299 72.324 28.3299 72.3159 28.3253C72.3055 28.3195 72.3009 28.3103 72.2917 28.3034L72.0737 28.195C72.0379 28.1765 71.9998 28.1777 71.9606 28.1661C71.9225 28.1511 71.8926 28.1257 71.8522 28.1131L71.6665 28.0692H71.6642L71.4934 28.0289C71.4796 28.0254 71.4669 28.03 71.4531 28.0265L69.4748 13.9803L100.27 31.7582L100.352 31.8251L100.447 31.9023L100.468 31.9358L100.513 32.02L100.528 32.0858L100.562 32.2807V61.6445L100.527 61.8613L100.516 61.9028L100.471 61.9928L100.468 61.9951L100.352 62.0943L100.27 62.1612L96.3631 64.4175Z" fill="#264F68"/>
<path d="M19.3546 7.13427C19.0835 5.76621 18.3476 4.58155 17.2748 3.76833C17.0234 3.578 16.6911 3.5284 16.3958 3.64029C14.691 4.27587 13.7785 3.89752 13.2029 2.84091C13.0541 2.56753 12.9422 2.26877 12.865 1.96655C12.8188 1.79006 12.7957 1.65625 12.79 1.59973C12.7519 1.26291 12.5327 0.973374 12.219 0.847642C10.8855 0.306645 9.39865 0.306645 8.06635 0.847642C7.75144 0.973374 7.53343 1.26291 7.49536 1.59858C7.48844 1.65625 7.46537 1.78891 7.42038 1.96539C7.34195 2.26761 7.23121 2.56637 7.08241 2.83975C6.50565 3.89637 5.59322 4.27472 3.88949 3.63914C3.59304 3.5284 3.26083 3.578 3.00936 3.76833C1.93775 4.58155 1.20066 5.76621 0.93881 7.09275C0.874214 7.43303 0.967648 7.73987 1.18105 7.95442C3.12471 9.92231 3.12471 13.7958 1.18105 15.7648C0.967648 15.9805 0.874214 16.2874 0.930736 16.585C1.20066 17.953 1.9366 19.1365 3.00936 19.9509C3.25621 20.1389 3.58266 20.1897 3.87565 20.0859C3.96331 20.0547 4.14903 20.0005 4.40857 19.944C5.2564 19.7606 6.14345 19.7248 6.94283 19.9256C7.99829 20.1897 8.79306 20.8403 9.29138 22.0249C9.60859 22.7782 10.6756 22.7782 10.9928 22.0249C11.4923 20.8403 12.287 20.1897 13.3425 19.9256C14.1407 19.7237 15.0278 19.7594 15.8768 19.944C16.1363 20.0005 16.322 20.0547 16.4097 20.0859C16.7027 20.1897 17.028 20.1389 17.276 19.9509C18.3476 19.1365 19.0847 17.953 19.3465 16.6265C19.4111 16.2874 19.3165 15.9794 19.1043 15.7648C17.1595 13.7969 17.1595 9.92346 19.1043 7.95442C19.3165 7.73871 19.4111 7.43303 19.3546 7.13427ZM17.434 16.6669C17.2518 17.2448 16.9288 17.7696 16.4951 18.1895C16.4235 18.1734 16.3486 18.1572 16.2678 18.1376C15.1651 17.8988 14.0069 17.8527 12.8915 18.133C11.7968 18.4098 10.8602 18.9797 10.1427 19.8656C9.42519 18.9797 8.48738 18.4098 7.3927 18.1341C6.27841 17.8538 5.11913 17.9 4.01638 18.1388C3.93678 18.1584 3.86065 18.1745 3.79029 18.1907C3.35657 17.7708 3.03474 17.2471 2.85018 16.6669C5.02916 14.0438 5.02916 9.67546 2.85018 7.05237C3.03012 6.48254 3.34849 5.96461 3.77298 5.54474C6.09039 6.22185 7.7699 5.43515 8.70309 3.72219C8.95455 3.26079 9.1195 2.80515 9.21871 2.40488C9.8243 2.248 10.4599 2.248 11.0655 2.40488C11.1658 2.80515 11.3296 3.26079 11.5823 3.72219C12.5154 5.43515 14.1938 6.22185 16.5124 5.54474C16.9357 5.96231 17.2529 6.48139 17.434 7.05353C15.255 9.67546 15.255 14.0426 17.434 16.6669Z" fill="#264F68"/>
</g>
<defs>
<clipPath id="clip0_111_1604">
<rect width="101.72" height="99.9978" fill="white" transform="translate(0.914551 0.441406)"/>
</clipPath>
</defs>
</svg>
