<svg width="115" height="101" viewBox="0 0 115 101" fill="none" xmlns="http://www.w3.org/2000/svg">
<g clip-path="url(#clip0_111_1561)">
<path d="M114.859 26.497L114.808 26.2258L114.772 26.0298C114.76 25.9649 114.724 25.9169 114.702 25.8585C114.679 25.7989 114.676 25.734 114.644 25.6769L114.522 25.455C114.509 25.4342 114.491 25.4251 114.479 25.4031C114.466 25.3836 114.463 25.3603 114.45 25.3408L114.328 25.1695C114.301 25.1306 114.256 25.1072 114.225 25.0722C114.193 25.0385 114.176 24.9956 114.14 24.9645L113.969 24.8153C113.966 24.8127 113.962 24.8127 113.96 24.8101C113.958 24.8088 113.959 24.8062 113.956 24.8049L113.809 24.6829C113.782 24.657 113.75 24.6531 113.722 24.6349C113.694 24.6128 113.674 24.5843 113.644 24.5648L85.3747 8.25772C85.363 8.25252 85.3513 8.25252 85.3396 8.24604C85.3292 8.23955 85.3241 8.22917 85.3137 8.22268L85.119 8.12666L84.901 6.56952C84.8958 6.54357 84.8816 6.52929 84.8777 6.50723C84.8725 6.48128 84.8803 6.46441 84.8738 6.43846L84.8232 6.24382C84.8219 6.23733 84.8167 6.23214 84.8141 6.22565C84.8141 6.21787 84.8154 6.21138 84.8141 6.20489L84.7284 5.90774C84.7103 5.85064 84.6727 5.80912 84.648 5.75462C84.6233 5.70401 84.6194 5.64821 84.5857 5.6002L84.4261 5.35236C84.4209 5.34457 84.4131 5.34068 84.4053 5.33419C84.4002 5.32641 84.4002 5.31603 84.3937 5.30824L84.2717 5.13566C84.2405 5.09543 84.1964 5.06948 84.1601 5.03315C84.1251 4.99551 84.1043 4.9475 84.0615 4.91117L83.8526 4.73988C83.8513 4.73859 83.8487 4.73859 83.8474 4.73729L83.7124 4.6244C83.6852 4.60104 83.6514 4.59585 83.6242 4.57639C83.5969 4.55433 83.5762 4.52448 83.545 4.50502L79.7988 2.36136C79.7923 2.35747 79.7858 2.35747 79.7781 2.35357C79.7729 2.35228 79.7703 2.34579 79.7651 2.34319L79.5795 2.24587C79.5263 2.21732 79.4666 2.21473 79.4108 2.19526C79.3537 2.1745 79.3057 2.13947 79.2434 2.12779L79.163 2.11092L79.067 2.08367C79.0164 2.07069 78.9606 2.08107 78.9048 2.07199C78.849 2.06291 78.7958 2.03955 78.7348 2.03955H78.5648H78.3922C78.3312 2.03955 78.2793 2.06421 78.2209 2.07199C78.1651 2.08107 78.1106 2.07069 78.0548 2.08756L77.9549 2.11611L77.8822 2.13038C77.8213 2.14336 77.7758 2.1758 77.7187 2.19786C77.6617 2.21732 77.6007 2.21862 77.5475 2.24847L77.3619 2.34709C77.3554 2.35098 77.3515 2.35617 77.345 2.36006C77.3398 2.36395 77.3308 2.36395 77.3256 2.36525L56.0045 14.6575C55.9746 14.677 55.9578 14.703 55.9305 14.725C55.902 14.7458 55.8682 14.7484 55.841 14.773L55.6917 14.895L55.527 15.0274C55.4751 15.0689 55.4465 15.126 55.4037 15.174C55.3596 15.2233 55.3051 15.2583 55.2674 15.3167L55.2038 15.4154C55.1493 15.4179 55.1 15.4426 55.0468 15.4478C54.9897 15.4556 54.9327 15.4465 54.8743 15.4647L54.7769 15.4958L54.7224 15.5036C54.6679 15.5153 54.6251 15.5477 54.5732 15.5633C54.5148 15.584 54.4538 15.5853 54.3993 15.6113L54.2034 15.7125C54.193 15.7177 54.1865 15.7268 54.1774 15.732C54.1684 15.7398 54.1567 15.7372 54.1476 15.7436L32.8356 28.0359C32.807 28.0528 32.7889 28.0814 32.7629 28.1021C32.7344 28.1216 32.7006 28.1268 32.6721 28.1501L32.5306 28.2669L32.3555 28.4084C32.3023 28.4512 32.275 28.5083 32.2309 28.5563C32.1907 28.5991 32.1388 28.6328 32.105 28.686L32.0337 28.795C31.9805 28.7963 31.9324 28.8184 31.8805 28.8249C31.8235 28.8353 31.7664 28.8249 31.7106 28.8431L31.6171 28.8703L31.5432 28.8859C31.4887 28.8976 31.4458 28.9274 31.3939 28.9469C31.3407 28.965 31.2875 28.965 31.2356 28.9884L31.0397 29.0857C31.0267 29.0909 31.0215 29.1052 31.0098 29.1104C30.9995 29.1169 30.9865 29.1169 30.9761 29.1233L9.67448 41.4143C9.64464 41.4338 9.62647 41.4611 9.59922 41.4844C9.57067 41.5039 9.53694 41.5091 9.50969 41.5311L9.36306 41.6544C9.35397 41.6622 9.35138 41.6739 9.34229 41.6803C9.33321 41.6881 9.32023 41.6907 9.31245 41.6998L9.12689 41.8737C9.10094 41.897 9.09056 41.9321 9.0672 41.9554C9.04254 41.9827 9.0127 41.9957 8.99194 42.0255L8.88034 42.1721C8.86477 42.1955 8.86088 42.2202 8.8466 42.2461C8.82974 42.2708 8.80508 42.2837 8.79081 42.3123L8.65586 42.5575C8.62601 42.6094 8.62341 42.6678 8.60395 42.7236C8.58319 42.7742 8.55075 42.8158 8.53777 42.8729L8.50014 43.0415C8.49755 43.0545 8.50144 43.0636 8.50014 43.0714C8.49884 43.0831 8.49236 43.0883 8.48976 43.0973L8.44045 43.3958C8.43396 43.4269 8.44694 43.4594 8.44434 43.4918C8.44175 43.5217 8.42488 43.5528 8.42488 43.584V51.3631C8.39763 51.3722 8.37038 51.3657 8.34183 51.3774L8.20558 51.4241C8.20169 51.428 8.1978 51.4319 8.19261 51.4345C8.18871 51.4358 8.18352 51.4345 8.17833 51.4371L7.9811 51.5111C7.95125 51.5215 7.93308 51.5448 7.90324 51.5591C7.87469 51.5734 7.84095 51.5721 7.8137 51.5889L4.10642 53.7313C4.07528 53.7482 4.05711 53.778 4.02986 53.7988C4.00261 53.8208 3.97017 53.8247 3.94292 53.8455L3.81446 53.9532L3.6289 54.1037C3.57829 54.1452 3.54975 54.2023 3.50563 54.2503C3.4641 54.297 3.4122 54.3269 3.37716 54.3827L3.26557 54.5553C3.25778 54.5682 3.25778 54.5812 3.25129 54.5916C3.24481 54.6007 3.23443 54.6072 3.22924 54.6189L3.10596 54.8395C3.08001 54.8862 3.07741 54.9368 3.05925 54.9848C3.03978 55.0328 3.00605 55.0717 2.99177 55.1236L2.94376 55.3183C2.93857 55.3416 2.94506 55.3598 2.94116 55.3844C2.93597 55.4065 2.923 55.4208 2.9204 55.4441L2.88277 55.7153C2.87888 55.7413 2.88926 55.7685 2.88667 55.7945C2.88537 55.8217 2.87109 55.8451 2.87109 55.8749V82.1101C2.87109 82.1374 2.88537 82.162 2.88667 82.188C2.88926 82.2152 2.87888 82.2412 2.88277 82.2697L2.9204 82.5409C2.923 82.563 2.93597 82.5824 2.94116 82.6045C2.94506 82.6253 2.93857 82.6447 2.94376 82.6642L2.99177 82.8614C3.00864 82.9276 3.04368 82.9795 3.06963 83.0366C3.0852 83.0716 3.0852 83.108 3.10337 83.1443L3.22664 83.3649C3.23443 83.3805 3.2474 83.3921 3.25519 83.4064C3.25908 83.4142 3.25908 83.4233 3.26557 83.4324L3.37716 83.6049C3.44204 83.7036 3.5225 83.7892 3.60944 83.8619C3.61592 83.8697 3.61982 83.8787 3.6263 83.8839L3.81057 84.0319H3.81186L3.94033 84.1409C3.97017 84.1668 4.0078 84.1733 4.03765 84.1967C4.0623 84.2148 4.07787 84.2395 4.10512 84.2564L32.3723 100.562C32.3866 100.569 32.3996 100.571 32.4113 100.58C32.4191 100.583 32.4242 100.592 32.4307 100.596L32.6267 100.695C32.724 100.745 32.8278 100.774 32.9316 100.794C32.9381 100.796 32.9433 100.801 32.9498 100.802L33.0147 100.814L33.1081 100.841C33.221 100.877 33.3339 100.893 33.4481 100.893H33.609H33.7803H33.7815C33.8944 100.893 34.0086 100.877 34.1215 100.841L34.215 100.814L34.2798 100.802C34.2863 100.801 34.2915 100.796 34.298 100.794C34.4005 100.772 34.503 100.745 34.6003 100.696L34.7976 100.597C34.8054 100.593 34.8093 100.584 34.817 100.582C34.8313 100.571 34.8443 100.57 34.8586 100.562L38.5658 98.4211C38.5762 98.4146 38.5814 98.4042 38.5905 98.3964C38.6022 98.3913 38.6165 98.3887 38.6281 98.3796L38.7761 98.2823C38.8085 98.2576 38.828 98.2239 38.8591 98.1992C38.889 98.1745 38.9279 98.1642 38.9577 98.1317L39.129 97.9591C39.1524 97.9358 39.1602 97.9059 39.1809 97.8813C39.1952 97.8605 39.2186 97.854 39.2341 97.8372L39.3457 97.6892C39.3483 97.6841 39.3483 97.6789 39.3522 97.675L39.5157 97.6477C39.517 97.6477 39.517 97.6464 39.5183 97.6464C39.5222 97.6451 39.5287 97.6464 39.5352 97.6451L39.6818 97.6218C39.7142 97.6153 39.7389 97.5945 39.77 97.588C39.8116 97.5789 39.8505 97.5815 39.892 97.5673L40.027 97.518C40.0283 97.5167 40.0296 97.5154 40.0322 97.5141C40.0347 97.5128 40.0373 97.5141 40.0399 97.5128L40.2385 97.4388C40.2566 97.431 40.2683 97.4154 40.2865 97.409C40.3267 97.3908 40.3708 97.3804 40.4098 97.3584L61.7308 85.0401C61.7399 85.0349 61.7464 85.0245 61.7568 85.0181C61.7698 85.0103 61.784 85.0077 61.797 84.996L61.9462 84.8987C61.9787 84.8753 61.9956 84.8429 62.028 84.8182C62.0552 84.7923 62.0916 84.7832 62.1188 84.7559L62.2914 84.5846C62.307 84.5691 62.3096 84.5496 62.3226 84.5353C62.3355 84.5198 62.3511 84.5159 62.3641 84.5029L62.4874 84.3563C62.5042 84.3368 62.5068 84.316 62.5159 84.2966H62.5185L62.6807 84.2706C62.6859 84.2693 62.6885 84.2693 62.6937 84.2693L62.8533 84.2447C62.8883 84.2369 62.9156 84.2187 62.9467 84.2109C62.9895 84.2006 63.0298 84.2032 63.0739 84.1863L63.2088 84.1383C63.2166 84.1357 63.2192 84.1292 63.227 84.1266C63.2322 84.124 63.2387 84.1253 63.2452 84.1227L63.4307 84.05C63.4463 84.0422 63.4554 84.028 63.4709 84.0228C63.506 84.0059 63.5449 83.9981 63.5787 83.98L84.8997 71.663C84.9101 71.6565 84.9153 71.6474 84.9257 71.6384C84.9387 71.6319 84.9529 71.628 84.9659 71.6202L85.1125 71.5216C85.1385 71.5034 85.1502 71.4762 85.1761 71.4567C85.2034 71.4346 85.2371 71.4256 85.2631 71.4022L85.4473 71.2296C85.4772 71.2011 85.4902 71.1647 85.5174 71.1362C85.5356 71.1128 85.5615 71.1076 85.5797 71.083L85.6913 70.9351C85.6978 70.9286 85.6978 70.9195 85.7043 70.913L85.8457 70.8922C85.8509 70.8909 85.8548 70.8909 85.86 70.8909L86.0196 70.8663C86.0572 70.8598 86.0871 70.839 86.1221 70.8273C86.1649 70.817 86.2077 70.8209 86.2519 70.8053L86.3868 70.7547C86.3907 70.7534 86.3933 70.7508 86.3972 70.7482C86.4037 70.7469 86.4063 70.7482 86.4115 70.7456L86.597 70.6729C86.6139 70.6638 86.6243 70.6496 86.6398 70.6457C86.6749 70.6288 86.7164 70.6197 86.7514 70.599L108.074 58.282C108.083 58.2755 108.089 58.2664 108.1 58.26C108.113 58.2522 108.127 58.2496 108.14 58.2405L108.288 58.1406C108.315 58.1198 108.327 58.0952 108.354 58.0757C108.379 58.0523 108.411 58.0471 108.435 58.0238L108.62 57.8512C108.653 57.824 108.666 57.7811 108.694 57.75C108.715 57.7253 108.745 57.7189 108.765 57.689L108.876 57.5424C108.877 57.5398 108.877 57.5385 108.878 57.5359H108.881L109.042 57.5099L109.201 57.4853C109.231 57.4801 109.256 57.4593 109.287 57.4541C109.326 57.4451 109.369 57.4477 109.409 57.4334L109.544 57.3854C109.552 57.3828 109.554 57.3776 109.56 57.375C109.565 57.375 109.57 57.375 109.575 57.3737L109.772 57.2971C109.791 57.2906 109.801 57.2751 109.818 57.2699C109.858 57.2504 109.9 57.2413 109.937 57.2206L113.646 55.0782C113.673 55.0626 113.69 55.0354 113.716 55.0172C113.747 54.9952 113.782 54.9874 113.812 54.9627L113.958 54.8395C113.961 54.8382 113.961 54.8356 113.964 54.833C113.966 54.8304 113.969 54.8304 113.971 54.8265L114.144 54.6798C114.188 54.6422 114.21 54.5903 114.248 54.5449C114.274 54.5176 114.311 54.5034 114.334 54.4722L114.455 54.2996C114.466 54.2841 114.468 54.2698 114.476 54.2581C114.492 54.2309 114.511 54.2166 114.527 54.1906L114.649 53.97C114.668 53.9363 114.668 53.8974 114.68 53.8649C114.718 53.7832 114.758 53.7053 114.776 53.6158L114.81 53.4186L114.86 53.1461C114.868 53.1123 114.858 53.076 114.858 53.0397C114.856 53.0098 114.875 52.9774 114.875 52.9397V26.7085C114.875 26.6734 114.856 26.641 114.851 26.6047C114.854 26.5696 114.864 26.5346 114.859 26.497ZM33.7167 98.5288L33.6648 98.5547C33.6518 98.556 33.6388 98.5547 33.6245 98.5573H33.6116C33.5973 98.5547 33.583 98.556 33.5687 98.5547L33.5194 98.5288L5.36121 82.284L5.29114 82.2269C5.28855 82.2256 5.28466 82.2256 5.28336 82.223C5.27946 82.2191 5.27817 82.2152 5.27427 82.2126L5.24054 82.1841L5.22237 82.1529L5.2055 82.0361V55.9554L5.22237 55.8386L5.24054 55.8049L5.27427 55.7789C5.27817 55.7763 5.27946 55.7724 5.28336 55.7698C5.28466 55.7672 5.28855 55.7659 5.29114 55.7634L5.35992 55.7076L8.9037 53.6586L8.99194 53.6262L9.02697 53.6132L9.05293 53.6093L9.09704 53.6158L9.13208 53.6275C9.13468 53.6288 9.13727 53.6275 9.14116 53.6288C9.14246 53.6301 9.14376 53.6314 9.14635 53.6327L9.16192 53.6392L9.1736 53.6431L22.5598 61.3729L37.3733 69.9294L37.3876 69.9411L37.424 69.9761L37.4291 69.9839L37.4408 70.0034V70.0073L37.4707 70.1733V81.4263V96.1645L37.4681 96.1762C37.4668 96.1827 37.4694 96.1879 37.4681 96.197C37.4668 96.2035 37.4629 96.2087 37.4616 96.2164L37.4395 96.3501L37.4291 96.3696L37.424 96.3774L37.3876 96.4111L37.3772 96.4215L33.7167 98.5288ZM78.4856 4.39991L78.5155 4.38174C78.5311 4.37915 78.5466 4.37915 78.5635 4.37526H78.5687H78.5765C78.5933 4.37915 78.6063 4.37915 78.6245 4.38174L78.6401 4.39342L78.6426 4.39472L82.3019 6.48777L82.3655 6.54097C82.3655 6.54227 82.3681 6.54227 82.3681 6.54227C82.3707 6.54487 82.3707 6.54746 82.3733 6.55006L82.4641 6.62662L82.4901 6.65906L82.5355 6.72913L82.5679 6.84591L82.5952 6.9601L82.9183 9.25947L84.8959 23.3451L64.0782 35.3791C64.0484 35.396 64.0302 35.4233 64.003 35.444C63.9744 35.4635 63.942 35.4674 63.916 35.492L63.9134 35.4946L61.7282 19.9687C61.7257 19.9518 61.7153 19.9414 61.7127 19.9285C61.7101 19.9129 61.7153 19.8999 61.7127 19.8856L61.6647 19.6637C61.6595 19.643 61.6465 19.63 61.6413 19.6105C61.6361 19.5911 61.6413 19.5742 61.6335 19.5573L61.5479 19.2861C61.5349 19.2433 61.5038 19.2135 61.4843 19.1745C61.4661 19.1317 61.4635 19.0863 61.4415 19.0461L61.2819 18.7762C61.2715 18.758 61.2559 18.7502 61.2468 18.7385C61.2378 18.723 61.2365 18.7061 61.2261 18.6918L61.1041 18.5192C61.0717 18.4751 61.0249 18.4505 60.9873 18.4128C60.9549 18.3765 60.9341 18.3311 60.8965 18.2986L60.6915 18.1287L60.6889 18.1261L60.5396 18.0015C60.5137 17.9794 60.4786 17.9742 60.4488 17.9522C60.4216 17.934 60.4034 17.9055 60.3748 17.886L57.7238 16.3704L78.4856 4.39991ZM109.137 38.0457L109.208 38.1054C109.212 38.1067 109.218 38.1067 109.221 38.1106C109.224 38.1132 109.224 38.1171 109.229 38.1197L109.257 38.1456L109.279 38.1807L109.282 38.1898L109.305 38.3247V42.3953L109.282 42.5277L109.269 42.5653L109.256 42.5926L109.23 42.6159L109.179 42.6497L107.56 43.5852C107.56 43.5865 107.56 43.5865 107.557 43.5865L88.4578 54.6292V51.5928C88.4578 51.5669 88.4422 51.5448 88.4396 51.5176C88.4396 51.4903 88.45 51.4657 88.4461 51.4397L88.4124 51.1685C88.4072 51.1413 88.3916 51.127 88.3864 51.0997C88.3825 51.0777 88.389 51.0556 88.3838 51.031L88.3332 50.8363C88.3203 50.7857 88.2878 50.7507 88.2696 50.7027C88.2489 50.6546 88.2463 50.6053 88.2229 50.5599L88.0997 50.3367C88.0919 50.3264 88.0815 50.3199 88.0763 50.3095C88.0685 50.2991 88.0672 50.2835 88.0607 50.2744L87.9504 50.1032C87.9167 50.05 87.8635 50.0162 87.8194 49.9695C87.7778 49.9215 87.7506 49.8644 87.6974 49.8229L87.5131 49.6749C87.5118 49.6749 87.5118 49.6737 87.5105 49.6737L87.3847 49.5672C87.3574 49.5439 87.3211 49.5374 87.2951 49.5179C87.2666 49.4972 87.2484 49.4673 87.2173 49.4505L65.7833 37.0907L86.4686 25.1345L86.5698 25.0981C86.575 25.0956 86.5801 25.0891 86.5866 25.0878L86.6087 25.0839L86.6723 25.093L86.7437 25.1306L109.137 38.0457ZM41.6295 81.6546L41.5478 81.6858L41.5426 81.6871L41.4946 81.6949L41.4466 81.6871L41.4414 81.6858L41.3622 81.6546L39.8064 80.7528V70.0682C39.8064 70.0332 39.7882 69.9995 39.7843 69.9644C39.7817 69.9307 39.7921 69.8957 39.7869 69.8606L39.7376 69.5894C39.7376 69.5881 39.7363 69.5868 39.7363 69.5842V69.5803L39.6987 69.3857C39.687 69.3234 39.652 69.278 39.6325 69.2222C39.6117 69.1612 39.6078 69.0963 39.5754 69.0379L39.4404 68.7927C39.4262 68.7654 39.4002 68.7525 39.3846 68.7252C39.3704 68.7032 39.3665 68.6772 39.3496 68.6538L39.2393 68.5046C39.2224 68.4813 39.1965 68.4748 39.1796 68.4501C39.1602 68.4294 39.1537 68.4034 39.1329 68.3813L38.9616 68.2088C38.9318 68.1789 38.8928 68.1672 38.8617 68.1413C38.8319 68.114 38.8124 68.0803 38.7787 68.0595L38.632 67.9596C38.6216 67.9531 38.6087 67.9531 38.5983 67.9466C38.5866 67.9402 38.5801 67.9285 38.5697 67.922L25.4807 60.3621L40.2125 51.8679L40.2735 51.8368L40.3267 51.8446L40.3994 51.8796L62.7975 64.796L62.8727 64.8583C62.8766 64.8609 62.8818 64.8609 62.8844 64.8648C62.887 64.8674 62.8896 64.87 62.8922 64.8726L62.9182 64.8934L62.9272 64.9167L62.9558 65.0802V69.1885L62.9402 69.2482C62.9376 69.2598 62.9428 69.2715 62.9402 69.2845C62.9376 69.2975 62.9272 69.3052 62.9247 69.3156L62.9195 69.3455L62.8935 69.3701L62.8507 69.3987L61.2235 70.3382C61.2235 70.3394 61.2235 70.3394 61.2209 70.3394L41.6295 81.6546ZM65.2889 67.9934V64.966C65.2889 64.9297 65.2707 64.8998 65.2681 64.8648C65.263 64.8285 65.2759 64.7934 65.2707 64.7571L65.2201 64.4872C65.2201 64.482 65.2149 64.4768 65.2149 64.4703C65.2123 64.4639 65.2149 64.4587 65.2149 64.4522L65.1773 64.2796C65.1669 64.2303 65.1371 64.1926 65.1189 64.1446C65.1007 64.0979 65.1007 64.0486 65.08 64.0019L64.9567 63.7554C64.9463 63.7346 64.9295 63.7268 64.9191 63.706C64.9061 63.684 64.9061 63.6658 64.8931 63.6438L64.7815 63.4712C64.7465 63.4141 64.6907 63.3829 64.6466 63.3336C64.6051 63.2882 64.5752 63.2324 64.5246 63.1935L64.352 63.0546L64.2119 62.9366C64.1846 62.9132 64.1496 62.9093 64.1223 62.8873C64.0951 62.8691 64.0795 62.8418 64.0497 62.8224L42.6144 50.4665L63.3087 38.5116L63.4177 38.4701C63.4229 38.4688 63.4229 38.4662 63.4281 38.4662L63.4437 38.4623L63.5021 38.4714L63.5553 38.4973L85.9664 51.4202L86.0352 51.4786C86.0403 51.4812 86.0429 51.4838 86.0455 51.4864C86.0507 51.4877 86.052 51.4929 86.0559 51.4968L86.0884 51.5215L86.1091 51.5578L86.1247 51.6746V55.8192L86.1208 55.8542L86.1104 55.91L86.1052 55.9359L86.0884 55.9645L86.0559 55.9956L86.0287 56.0151L84.3937 56.961L65.2889 67.9934ZM55.2882 17.7874L55.3388 17.7627C55.357 17.7575 55.3764 17.7588 55.3946 17.7549C55.4128 17.7588 55.4322 17.7575 55.4491 17.7627L55.4984 17.7874L59.1265 19.8636L59.1992 19.9233C59.2005 19.9246 59.2005 19.9246 59.2018 19.9246L59.2913 19.9972L59.2978 20.0063L59.3692 20.127L59.3925 20.2048L59.425 20.3424L61.7282 36.7248L40.899 48.7588C40.86 48.7822 40.838 48.8172 40.8029 48.8432C40.7809 48.86 40.7562 48.8665 40.7368 48.8808L38.562 33.3484C38.5594 33.3263 38.5451 33.3107 38.5412 33.2913C38.5386 33.2692 38.5438 33.2498 38.5399 33.229L38.4906 33.0292C38.4893 33.0227 38.4828 33.0162 38.4802 33.0084C38.4776 32.998 38.4802 32.9889 38.4776 32.9811L38.3907 32.6879C38.3751 32.6347 38.3388 32.5932 38.3154 32.5439C38.2921 32.4919 38.2869 32.4374 38.2557 32.3881L38.0831 32.1169L37.9702 31.9444C37.9365 31.8899 37.8846 31.86 37.8431 31.812C37.8016 31.7653 37.7756 31.7095 37.725 31.6693L37.5161 31.498C37.4953 31.4798 37.4694 31.4759 37.4486 31.4616C37.4265 31.4474 37.4149 31.4253 37.3915 31.4084L37.2319 31.3098C37.2267 31.3059 37.2202 31.3059 37.2137 31.302C37.2111 31.2994 37.2085 31.2955 37.2034 31.2943L34.5497 29.7527L55.2882 17.7874ZM32.1167 31.1645L32.1712 31.1372C32.1894 31.1333 32.2075 31.1346 32.2244 31.1308C32.2426 31.1346 32.2607 31.1333 32.2789 31.1372L32.336 31.1658L35.9992 33.2952L36.0965 33.3536L36.1017 33.3588L36.1095 33.373V33.3743L36.1925 33.5054L36.2276 33.6248L36.2535 33.7338L38.5516 50.1291L23.1411 59.0165L10.7619 51.8666V43.6826L10.7878 43.5294L10.8008 43.5048L10.889 43.4217L10.9293 43.3906L32.1167 31.1645ZM39.8051 95.0188V83.4518L40.2553 83.7152C40.2878 83.7347 40.3241 83.7412 40.3579 83.7581C40.3747 83.7646 40.3838 83.7788 40.4007 83.7853L40.5849 83.8593C40.594 83.8632 40.6031 83.8619 40.6109 83.8658C40.6187 83.8684 40.6252 83.8774 40.6342 83.8813L40.7705 83.9281C40.8094 83.9423 40.8509 83.941 40.8912 83.9501C40.9223 83.9579 40.9457 83.9774 40.9794 83.9826L41.139 84.0072C41.1429 84.0085 41.1468 84.0072 41.152 84.0085L41.3246 84.0319C41.3791 84.0435 41.4349 84.0461 41.4881 84.0474H41.4907H41.4933H41.4959C41.5504 84.0461 41.6036 84.0435 41.6607 84.0319L41.8319 84.0085C41.8345 84.0072 41.8397 84.0072 41.8436 84.0072L42.0032 83.9826C42.0357 83.9774 42.0603 83.9566 42.0928 83.9501C42.1317 83.941 42.1745 83.9423 42.2134 83.9281L42.3484 83.8813C42.3588 83.8774 42.364 83.8684 42.373 83.8658C42.3821 83.8619 42.3912 83.8632 42.399 83.8593L42.5846 83.7853C42.6001 83.7775 42.6092 83.7633 42.6261 83.7581C42.6585 83.7399 42.6949 83.7321 42.726 83.7165L60.6331 73.3707V82.8355L60.6175 82.89C60.6149 82.9029 60.6201 82.9133 60.6175 82.9237C60.6149 82.9328 60.6058 82.9419 60.6032 82.9523L60.598 82.9795L60.5539 83.0249L60.528 83.0418L39.8051 95.0188ZM62.974 81.6404V72.0212L64.0536 71.3983C64.0614 71.3931 64.0666 71.384 64.0756 71.3775C64.0886 71.3685 64.1016 71.3672 64.1133 71.3581L64.2612 71.2607C64.2884 71.2426 64.3027 71.2153 64.3287 71.1946C64.3546 71.1725 64.3884 71.166 64.4117 71.1414L64.5973 70.9688C64.6271 70.9415 64.6375 70.9052 64.666 70.8754C64.6868 70.852 64.7128 70.8468 64.7322 70.8196L64.8438 70.6729C64.8516 70.6664 64.8516 70.6561 64.8542 70.6509L64.9982 70.6301C65.0008 70.6301 65.0008 70.6288 65.0008 70.6288C65.0086 70.6275 65.0138 70.6288 65.0216 70.6275L65.1825 70.6016C65.2188 70.5964 65.2487 70.5743 65.2824 70.5652C65.3252 70.5536 65.3668 70.5561 65.4083 70.5419L65.5432 70.4913C65.5458 70.49 65.5484 70.4874 65.551 70.4861C65.5536 70.4848 65.5601 70.4848 65.564 70.4835L65.7496 70.4108C65.7651 70.4017 65.7755 70.3875 65.7911 70.3836C65.8274 70.3667 65.8663 70.3576 65.904 70.3369L83.8123 59.9923V69.4545C83.8123 69.4571 83.8097 69.4597 83.8097 69.461L83.7942 69.5674L83.789 69.5855L83.776 69.6102L83.741 69.6426L83.7137 69.6647L62.974 81.6404ZM86.1416 68.2659V58.6466L87.2212 58.0225C87.229 58.0173 87.2367 58.0069 87.2458 58.0017C87.2588 57.9939 87.2731 57.9914 87.2848 57.9823L87.4314 57.885C87.4586 57.8655 87.4716 57.8395 87.4976 57.8188C87.5248 57.7954 87.5586 57.7876 87.5832 57.7643L87.7688 57.5904C87.7986 57.5631 87.8116 57.5216 87.8388 57.4931C87.8609 57.4684 87.8882 57.4632 87.9063 57.4373L88.0179 57.2893C88.0231 57.2842 88.0231 57.279 88.0257 57.2751L88.1697 57.2517C88.1723 57.2504 88.1749 57.2504 88.1788 57.2504L88.3384 57.2271C88.3722 57.2219 88.3994 57.1998 88.4331 57.192C88.4734 57.1842 88.5162 57.1868 88.559 57.1713L88.694 57.122C88.6992 57.1207 88.7005 57.1181 88.703 57.1168C88.7069 57.1155 88.7108 57.1155 88.7147 57.1142L88.9094 57.0389C88.9301 57.0324 88.9418 57.0168 88.9574 57.0104C89.0002 56.9909 89.0404 56.9831 89.082 56.961L106.976 46.6178V56.0839L106.959 56.1864L106.957 56.2045L106.937 56.237L106.912 56.2642L106.871 56.2915L86.1416 68.2659ZM109.31 54.8952V45.2708L110.391 44.6454C110.399 44.6402 110.404 44.6311 110.415 44.6259C110.428 44.6143 110.442 44.6143 110.456 44.6026L110.604 44.5053C110.63 44.4858 110.642 44.4611 110.668 44.4391C110.694 44.4209 110.725 44.4131 110.75 44.3898L110.934 44.2185C110.965 44.1912 110.978 44.151 111.006 44.1186C111.027 44.0952 111.057 44.0887 111.078 44.0602L111.189 43.9135C111.204 43.8928 111.205 43.872 111.217 43.8513C111.243 43.8123 111.275 43.7799 111.296 43.7345L111.42 43.4905C111.436 43.4594 111.433 43.423 111.446 43.3919C111.467 43.3439 111.497 43.3011 111.51 43.2492L111.558 43.0532C111.561 43.0402 111.558 43.0299 111.558 43.0221C111.563 43.0078 111.571 42.9974 111.573 42.9857L111.624 42.7158C111.631 42.6808 111.619 42.6445 111.621 42.6068C111.624 42.5731 111.644 42.5407 111.644 42.5017V38.2157C111.644 38.1781 111.624 38.1469 111.621 38.1093C111.619 38.0756 111.632 38.0379 111.624 38.0016L111.573 37.7317C111.571 37.72 111.563 37.7097 111.558 37.7006C111.558 37.6876 111.561 37.6759 111.558 37.6668L111.51 37.4683C111.497 37.4164 111.464 37.3801 111.444 37.3333C111.423 37.2827 111.422 37.2308 111.396 37.1828L111.272 36.9622C111.265 36.9492 111.256 36.9441 111.248 36.9324C111.24 36.922 111.24 36.909 111.232 36.9012L111.123 36.7287C111.087 36.6716 111.032 36.6378 110.988 36.5911C110.944 36.5444 110.917 36.4886 110.866 36.4458L110.689 36.3095L110.552 36.1914C110.526 36.1681 110.493 36.1642 110.464 36.146C110.437 36.124 110.421 36.0967 110.391 36.0773L87.8829 23.0881C87.8726 23.0817 87.8596 23.0817 87.8505 23.0752C87.8401 23.0713 87.8349 23.0596 87.8233 23.0544L87.6299 22.9558C87.6014 22.9402 87.5689 22.9428 87.5404 22.9311C87.5105 22.9169 87.4898 22.8961 87.4586 22.8857L87.299 22.8364C87.2679 22.8247 87.2367 22.8325 87.2069 22.8247C87.1991 22.8221 87.1926 22.8182 87.1835 22.8156L85.5304 11.0411L112.392 26.5372L112.447 26.5826L112.512 26.6397L112.514 26.6423L112.516 26.6501L112.545 26.8162V52.8385L112.516 53.0033L112.514 53.0137L112.51 53.0176L112.447 53.0734L112.391 53.1188L109.31 54.8952Z" fill="#00C2A7"/>
<path d="M21.4283 8.42003C21.1233 6.88106 20.2954 5.54841 19.0887 4.63359C18.8058 4.41949 18.4321 4.36369 18.0999 4.48956C16.182 5.20454 15.1556 4.77893 14.5081 3.59031C14.3407 3.28278 14.2148 2.9467 14.1279 2.60672C14.076 2.40819 14.05 2.25766 14.0435 2.19408C14.0007 1.81518 13.7542 1.48948 13.4012 1.34804C11.9012 0.739456 10.2286 0.739456 8.72981 1.34804C8.37557 1.48948 8.13032 1.81518 8.0875 2.19278C8.07971 2.25766 8.05376 2.40689 8.00315 2.60542C7.91491 2.9454 7.79034 3.28148 7.62295 3.58902C6.97414 4.77763 5.94773 5.20325 4.03116 4.48826C3.69767 4.36369 3.32396 4.41949 3.04108 4.63359C1.83559 5.54841 1.00642 6.88106 0.711861 8.37332C0.639194 8.75611 0.744301 9.10128 0.984359 9.34264C3.17084 11.5564 3.17084 15.9138 0.984359 18.1288C0.744301 18.3714 0.639194 18.7166 0.702777 19.0514C1.00642 20.5903 1.8343 21.9217 3.04108 22.8378C3.31877 23.0493 3.68599 23.1064 4.01558 22.9896C4.1142 22.9546 4.32312 22.8936 4.61508 22.83C5.56883 22.6237 6.56669 22.5835 7.46594 22.8093C8.65326 23.1064 9.54731 23.8383 10.1079 25.1709C10.4647 26.0183 11.665 26.0183 12.0219 25.1709C12.5837 23.8383 13.4778 23.1064 14.6651 22.8093C15.563 22.5822 16.5609 22.6224 17.516 22.83C17.8079 22.8936 18.0168 22.9546 18.1155 22.9896C18.445 23.1064 18.811 23.0493 19.09 22.8378C20.2954 21.9217 21.1246 20.5903 21.4192 19.0981C21.4918 18.7166 21.3854 18.3701 21.1467 18.1288C18.9589 15.915 18.9589 11.5577 21.1467 9.34264C21.3854 9.09998 21.4918 8.75611 21.4283 8.42003ZM19.2677 19.1435C19.0627 19.7936 18.6994 20.384 18.2115 20.8564C18.131 20.8382 18.0467 20.82 17.9558 20.798C16.7153 20.5294 15.4125 20.4775 14.1577 20.7928C12.9263 21.1042 11.8726 21.7452 11.0655 22.7418C10.2584 21.7452 9.20344 21.1042 7.97201 20.7941C6.71851 20.4788 5.41441 20.5307 4.17389 20.7993C4.08436 20.8213 3.99872 20.8395 3.91956 20.8577C3.43166 20.3853 3.06962 19.7962 2.86201 19.1435C5.3132 16.1927 5.3132 11.2787 2.86201 8.3279C3.06443 7.68688 3.42258 7.10425 3.9001 6.63192C6.507 7.39362 8.39633 6.50865 9.4461 4.58169C9.72898 4.06264 9.91454 3.55009 10.0261 3.09982C10.7074 2.92334 11.4224 2.92334 12.1036 3.09982C12.2165 3.55009 12.4008 4.06264 12.6849 4.58169C13.7347 6.50865 15.6227 7.39362 18.2309 6.63192C18.7072 7.10166 19.064 7.68558 19.2677 8.3292C16.8165 11.2787 16.8165 16.1914 19.2677 19.1435Z" fill="#00C2A7"/>
</g>
<defs>
<clipPath id="clip0_111_1561">
<rect width="114.19" height="99.9993" fill="white" transform="translate(0.68457 0.891113)"/>
</clipPath>
</defs>
</svg>
