<svg width="103" height="101" viewBox="0 0 103 101" fill="none" xmlns="http://www.w3.org/2000/svg">
<g clip-path="url(#clip0_111_1634)">
<path d="M10.1426 35.2232V45.6046L11.2961 46.7581L43.594 65.2141V79.0561L45.901 80.2096L97.8084 51.3721V44.4511L71.2779 28.3022L67.8174 9.84623L64.357 6.38574H60.8965L10.1426 35.2232Z" fill="#ABCAE5"/>
<path d="M102.619 32.0063L102.564 31.7018C102.563 31.6972 102.561 31.6949 102.561 31.6903C102.559 31.6868 102.561 31.6822 102.561 31.6776L102.516 31.4596C102.505 31.4077 102.474 31.3673 102.457 31.3177C102.437 31.2693 102.435 31.2173 102.411 31.1701L102.268 30.9059C102.259 30.8909 102.244 30.8828 102.236 30.869C102.228 30.8528 102.227 30.839 102.218 30.824L102.086 30.6279C102.06 30.5864 102.016 30.561 101.984 30.5229C101.95 30.4872 101.931 30.4445 101.891 30.4099L101.685 30.2346C101.68 30.2299 101.673 30.23 101.67 30.2253C101.665 30.223 101.664 30.2184 101.66 30.2161L101.496 30.0846C101.473 30.0673 101.449 30.0638 101.427 30.05C101.405 30.0327 101.392 30.0119 101.367 29.9981L69.5082 11.6056C69.4886 11.594 69.4678 11.594 69.4471 11.5825C69.4252 11.5733 69.4148 11.5583 69.394 11.5491L69.1841 11.4602C69.1622 11.4522 69.1437 11.4556 69.1218 11.4476C69.1183 11.4452 69.1149 11.4429 69.1114 11.4429L68.8461 9.53621C68.8438 9.51429 68.8311 9.50276 68.8276 9.48315C68.823 9.46238 68.83 9.44739 68.8242 9.42778L68.7711 9.20862L68.6823 8.85795C68.6673 8.79797 68.6316 8.75529 68.6096 8.70338C68.5854 8.64917 68.5796 8.5938 68.545 8.54305L68.3593 8.25813C68.3524 8.24775 68.3409 8.24198 68.3351 8.23391C68.327 8.22122 68.3259 8.20969 68.3166 8.20046L68.1863 8.02628C68.1632 7.9986 68.1309 7.98129 68.1056 7.95476C68.0813 7.92823 68.0686 7.89363 68.041 7.86941L67.7883 7.65139C67.7699 7.63409 67.7491 7.63063 67.7295 7.61794C67.7111 7.60295 67.7018 7.58218 67.6822 7.5695L67.5184 7.45991C67.508 7.45299 67.4965 7.45299 67.4884 7.44607C67.4792 7.4403 67.4746 7.43108 67.4642 7.42531L63.2482 4.97182C63.2263 4.95798 63.1997 4.95798 63.1755 4.94644C63.1513 4.93606 63.1363 4.91645 63.1109 4.90492L62.8929 4.81956C62.8744 4.81148 62.8583 4.81494 62.8398 4.80802C62.8202 4.8011 62.811 4.78841 62.7902 4.7838L62.638 4.73997C62.6322 4.73766 62.6264 4.73997 62.6218 4.73881C62.6161 4.73651 62.6114 4.73074 62.6045 4.72959L62.4292 4.68691C62.3865 4.67652 62.345 4.68691 62.3035 4.68114C62.2608 4.67652 62.2239 4.65576 62.18 4.65576H61.9828H61.7959C61.7521 4.65576 61.7129 4.67768 61.6702 4.68114C61.6287 4.68575 61.5883 4.67652 61.5456 4.68691L61.3726 4.72959C61.3657 4.73074 61.3611 4.73651 61.3553 4.73881C61.3495 4.73997 61.3414 4.73766 61.3357 4.73997L61.1823 4.78265C61.1638 4.78841 61.1523 4.80226 61.135 4.80802C61.1165 4.81264 61.0992 4.80802 61.0819 4.81725L60.8627 4.90261C60.8408 4.91415 60.8258 4.9326 60.8016 4.94183C60.7774 4.95567 60.7509 4.95567 60.7289 4.96721L36.705 18.853C36.6854 18.8645 36.6762 18.8807 36.6589 18.8945C36.6405 18.9061 36.6197 18.9084 36.6035 18.9199L36.4294 19.0503C36.4155 19.0606 36.4109 19.0733 36.3982 19.0837C36.3867 19.0952 36.3717 19.0975 36.3602 19.1079L36.1629 19.2833C36.1375 19.3075 36.126 19.3398 36.1018 19.3617C36.0787 19.3882 36.0464 19.4032 36.0268 19.4321L35.8953 19.6051C35.878 19.6282 35.8745 19.6524 35.8618 19.6766C35.8492 19.6962 35.8295 19.7077 35.818 19.7308C35.7938 19.732 35.7719 19.7216 35.7488 19.725L35.5631 19.7458C35.5389 19.7493 35.5193 19.7654 35.4973 19.77C35.4731 19.7747 35.4524 19.7677 35.4293 19.7735L35.2551 19.8185C35.2516 19.8196 35.2493 19.8219 35.2459 19.8231C35.2413 19.8243 35.2366 19.8231 35.232 19.8243L35.0798 19.8658C35.059 19.8727 35.0452 19.8877 35.0256 19.8912C35.0059 19.8981 34.9875 19.8946 34.969 19.9038L34.7499 19.9904C34.7268 20.0007 34.7107 20.0203 34.6899 20.0307C34.6657 20.0423 34.6414 20.0411 34.6184 20.055L10.5829 33.9188C10.5599 33.9338 10.546 33.9546 10.5241 33.9696C10.5011 33.988 10.4745 33.9927 10.4526 34.0077L10.2877 34.1392C10.2807 34.1461 10.2784 34.1542 10.2704 34.1611C10.2646 34.1645 10.2554 34.1657 10.2484 34.1726L10.05 34.3479C10.0166 34.3768 9.99928 34.4195 9.9716 34.4529C9.9416 34.4875 9.90123 34.5106 9.87585 34.5475L9.74551 34.7447C9.73628 34.7609 9.73513 34.7747 9.7259 34.7897C9.71667 34.8059 9.70168 34.8139 9.69476 34.8278L9.55403 35.0919C9.52865 35.1404 9.52635 35.1911 9.50904 35.2396C9.49174 35.2892 9.4606 35.3284 9.45021 35.3826L9.40638 35.6006C9.40523 35.6041 9.40638 35.6076 9.40638 35.6122C9.40638 35.6168 9.40292 35.6202 9.40177 35.6237L9.3464 35.9305C9.34063 35.9617 9.35101 35.9917 9.34871 36.0228C9.34409 36.054 9.3291 36.0816 9.3291 36.1128V45.1124L9.19068 45.1424L9.0811 45.1597C9.02227 45.1689 8.97382 45.2 8.91845 45.2173C8.85962 45.237 8.8008 45.2404 8.74543 45.2681L8.5378 45.3788C8.53203 45.3823 8.52626 45.3892 8.5205 45.3927C8.51588 45.3961 8.50781 45.3961 8.50204 45.3984L4.32061 47.8069C4.29639 47.8196 4.2837 47.8439 4.26178 47.8588C4.23756 47.875 4.21103 47.8796 4.18796 47.8969L4.02416 48.0284C4.0207 48.0307 4.01955 48.0365 4.01493 48.04C4.01263 48.0423 4.00801 48.0423 4.00571 48.0446L3.79808 48.2176C3.76117 48.2476 3.74271 48.2914 3.71041 48.3272C3.67927 48.3618 3.63659 48.3871 3.60775 48.4275L3.48779 48.6029C3.47625 48.619 3.4751 48.6352 3.46587 48.6525C3.45434 48.6698 3.44049 48.6767 3.43011 48.694L3.28939 48.957C3.26632 48.9974 3.26516 49.04 3.25132 49.0816C3.23286 49.1219 3.20633 49.1554 3.1948 49.1992L3.13828 49.4184C3.13482 49.4368 3.13943 49.4518 3.13712 49.4714C3.13366 49.4899 3.12097 49.5014 3.11867 49.5222L3.07483 49.8302C3.07137 49.8544 3.08176 49.8786 3.07945 49.9029C3.0783 49.9271 3.06445 49.9501 3.06445 49.9755V79.5373C3.06445 79.5639 3.0783 79.5846 3.07945 79.6112C3.08176 79.6354 3.07137 79.6608 3.07483 79.6838L3.11867 79.993C3.12213 80.0126 3.13366 80.0253 3.13712 80.0472C3.14058 80.0622 3.13597 80.0783 3.13943 80.0968L3.19595 80.3136C3.20979 80.3713 3.23863 80.4163 3.26285 80.4671C3.27439 80.4948 3.27439 80.5305 3.29054 80.5593L3.43242 80.8212C3.44395 80.8408 3.45895 80.8558 3.47164 80.8766C3.47971 80.8869 3.47971 80.9008 3.48894 80.9123L3.6089 81.0888C3.64466 81.1407 3.68734 81.1822 3.72887 81.2238C3.73925 81.2353 3.74156 81.248 3.75194 81.2561L3.96072 81.4522C3.98379 81.4752 4.01378 81.4821 4.038 81.5018C4.06107 81.5214 4.07261 81.5456 4.09799 81.5617L4.26294 81.6725C4.27447 81.6794 4.28716 81.6829 4.29639 81.6886C4.30562 81.6944 4.31138 81.7025 4.32061 81.7094L36.1825 100.103C36.1929 100.11 36.2056 100.112 36.2183 100.12C36.2252 100.123 36.2298 100.131 36.2367 100.135L36.4559 100.244C36.494 100.265 36.5343 100.258 36.5736 100.27C36.6393 100.295 36.6993 100.333 36.7708 100.342L36.8712 100.356L37.0027 100.388C37.0292 100.395 37.0592 100.394 37.0869 100.398C37.1007 100.399 37.1111 100.41 37.1238 100.412L37.3106 100.434C37.351 100.44 37.3902 100.441 37.4306 100.441H37.4318H37.4341C37.471 100.441 37.5102 100.44 37.5494 100.434L37.7455 100.412C37.7593 100.411 37.7686 100.401 37.7801 100.399C37.8113 100.394 37.8447 100.396 37.8724 100.388L38.0027 100.358L38.1054 100.342C38.1781 100.331 38.2369 100.295 38.3038 100.27C38.3419 100.255 38.3822 100.26 38.4215 100.244L38.6395 100.135C38.6464 100.131 38.651 100.123 38.6579 100.12C38.6706 100.112 38.6821 100.11 38.6937 100.103L42.8659 97.6957C42.8832 97.6853 42.8901 97.6715 42.9074 97.6588C42.9282 97.6461 42.9512 97.6415 42.9708 97.6276L43.1473 97.4961C43.1577 97.4869 43.1635 97.4731 43.1727 97.4639C43.1866 97.4558 43.1992 97.4523 43.2108 97.4431L43.4069 97.2678C43.4392 97.2412 43.453 97.202 43.4807 97.1709C43.5015 97.1478 43.5314 97.1386 43.5511 97.1132L43.6826 96.9355C43.6941 96.9206 43.6952 96.9044 43.7056 96.8871C43.7206 96.8652 43.7379 96.8479 43.7506 96.8248C43.776 96.8237 43.8014 96.8237 43.8267 96.8202L44.0136 96.7971C44.0251 96.796 44.0344 96.7868 44.0459 96.7856C44.0701 96.7833 44.0967 96.7844 44.1197 96.7775L44.3054 96.7348C44.3147 96.7325 44.3193 96.7268 44.3285 96.7245C44.3412 96.721 44.3527 96.7233 44.3654 96.7187L44.5177 96.6749C44.5384 96.6691 44.55 96.6518 44.5696 96.6483C44.5904 96.6414 44.6088 96.6437 44.6296 96.6368L44.8384 96.548C44.8545 96.5434 44.8626 96.5295 44.8776 96.5238C44.9018 96.5111 44.9318 96.5041 44.9549 96.4926L68.9938 82.6299C69.0145 82.6149 69.0237 82.5987 69.0445 82.5849C69.0687 82.5664 69.0987 82.5607 69.1218 82.5422L69.2867 82.4119C69.2948 82.4049 69.2983 82.3946 69.3064 82.3888C69.3144 82.3807 69.3248 82.3773 69.3317 82.3703L69.5209 82.2019C69.5244 82.1996 69.5278 82.1973 69.529 82.195C69.5924 82.1373 69.6489 82.0739 69.6974 82.0001L69.83 81.804C69.837 81.7924 69.837 81.7809 69.8439 81.7705C69.8508 81.7601 69.8612 81.7498 69.8669 81.7405H70.0088C70.0873 81.7405 70.1692 81.7301 70.2488 81.7128L70.4356 81.6679C70.4414 81.6667 70.4437 81.6632 70.4495 81.6609C70.4564 81.6586 70.4645 81.6609 70.4725 81.6575L70.6236 81.616C70.6479 81.609 70.664 81.5929 70.6882 81.5848C70.709 81.5779 70.7309 81.5813 70.7528 81.571L70.9605 81.4833C70.9755 81.4775 70.9835 81.4637 70.9951 81.4591C71.0216 81.4475 71.0493 81.4418 71.0758 81.4279L95.1089 67.5444C95.1297 67.5317 95.1389 67.5121 95.1597 67.4983C95.1839 67.481 95.2116 67.4752 95.2358 67.4568L95.4008 67.3264C95.4031 67.3241 95.4042 67.3195 95.4088 67.316C95.4123 67.3126 95.4192 67.3114 95.4238 67.308L95.6315 67.1326C95.6776 67.0934 95.7018 67.0404 95.7399 66.9954C95.763 66.9711 95.7953 66.9596 95.8149 66.9296L95.936 66.7543C95.9441 66.7428 95.9452 66.7289 95.9533 66.7139C95.9637 66.7001 95.9764 66.6897 95.9821 66.6747C96.0052 66.6735 96.026 66.6735 96.0467 66.6712L96.244 66.6493C96.2601 66.647 96.2705 66.6366 96.2855 66.6355C96.3201 66.6297 96.3535 66.6309 96.3882 66.6216L96.5635 66.5767C96.5669 66.5755 96.5693 66.572 96.5727 66.572C96.5796 66.5686 96.5866 66.5697 96.5946 66.5686L96.7457 66.5259C96.7642 66.519 96.7757 66.5063 96.7953 66.5017C96.8138 66.4959 96.8311 66.4971 96.8496 66.489L97.0687 66.4013C97.0849 66.3956 97.0929 66.3817 97.1091 66.3748C97.1379 66.3621 97.1714 66.3552 97.1991 66.339L101.371 63.9305C101.394 63.9167 101.402 63.8982 101.423 63.8844C101.447 63.8671 101.476 63.8625 101.499 63.8429L101.663 63.7125C101.667 63.7102 101.669 63.7056 101.672 63.7021C101.678 63.6987 101.683 63.6975 101.688 63.6941L101.895 63.5187C101.933 63.4864 101.95 63.4449 101.981 63.4103C102.003 63.3861 102.036 63.3769 102.054 63.348L102.186 63.175C102.198 63.1565 102.201 63.1381 102.21 63.1196C102.234 63.085 102.264 63.0516 102.283 63.0112L102.426 62.7263C102.443 62.6963 102.441 62.6617 102.451 62.6271C102.469 62.5821 102.498 62.5417 102.51 62.491L102.552 62.2937C102.555 62.2833 102.552 62.2753 102.554 62.2672C102.556 62.2568 102.563 62.2487 102.565 62.2383L102.62 61.9096C102.625 61.8831 102.614 61.8531 102.616 61.8265C102.619 61.7977 102.634 61.7712 102.634 61.7412V32.1909C102.634 32.1586 102.618 32.1309 102.616 32.0986C102.614 32.0698 102.625 32.0398 102.619 32.0063ZM37.6855 98.284L37.6232 98.3163C37.6186 98.3174 37.6152 98.3197 37.6117 98.3209C37.5944 98.3232 37.5782 98.3186 37.5621 98.3221L37.4456 98.3486L37.4387 98.3497L37.4294 98.3486L37.3176 98.3221C37.2991 98.3186 37.2841 98.3232 37.2656 98.3209C37.2622 98.3197 37.2587 98.3174 37.253 98.3163L37.1907 98.284L5.38298 79.9192L5.32415 79.8799L5.25956 79.8188L5.23303 79.7796L5.17881 79.6792L5.16843 79.6389L5.1419 79.4612V50.0459L5.16843 49.8659L5.17881 49.8256L5.23303 49.7252L5.24341 49.7102L5.32185 49.6433C5.323 49.6433 5.323 49.6433 5.32415 49.6422L5.43028 49.5591L9.5125 47.2083L9.56902 47.1783C9.58633 47.1748 9.59902 47.176 9.61401 47.1725L9.74205 47.1425L9.7582 47.1414L9.7755 47.1425L9.88393 47.1691C9.90585 47.1748 9.92661 47.1737 9.94737 47.1771L10.0143 47.2094L25.1147 55.9287L41.8116 65.5731L41.8796 65.6146L41.9362 65.6723L41.9811 65.7346L42.01 65.7877L42.0238 65.8534L42.0596 66.0507V78.768V95.4187L42.0573 95.4291C42.0561 95.436 42.0584 95.4406 42.0573 95.4464C42.0561 95.4521 42.0538 95.4568 42.0527 95.4637L42.0227 95.6344L42.0111 95.6921L41.9835 95.7486L41.9581 95.7809L41.875 95.8547L41.7804 95.9251L37.6855 98.284ZM61.7083 6.80357L61.7994 6.76666L61.8871 6.74244L61.9251 6.73206H61.9828H62.0508L62.1016 6.74475L62.1754 6.76666L62.2712 6.80473L66.3926 9.20516L66.4757 9.26052L66.5956 9.36318L66.6395 9.42317L66.711 9.5339L66.756 9.71615L66.7986 9.8811L67.162 12.4753L69.4252 28.5424L45.7946 42.1952C45.7704 42.2113 45.7565 42.2332 45.7335 42.2494C45.7116 42.2655 45.685 42.269 45.6631 42.284L45.4993 42.4166C45.4751 42.4363 45.4636 42.4651 45.4393 42.4859C45.4186 42.5078 45.392 42.5147 45.3724 42.5378L45.2698 42.6531L42.7309 24.5997C42.7298 24.5801 42.7171 24.5674 42.7125 24.549C42.709 24.5294 42.7148 24.5121 42.7113 24.4936L42.6559 24.2744C42.6536 24.2652 42.6467 24.2606 42.6444 24.2525C42.6421 24.2433 42.6444 24.2341 42.6421 24.2272L42.5441 23.9007C42.5302 23.8569 42.5002 23.8269 42.4818 23.7842C42.4668 23.7427 42.4645 23.6989 42.4402 23.6596L42.2545 23.3516C42.2441 23.3367 42.2303 23.3309 42.2222 23.317C42.2118 23.3009 42.2107 23.2871 42.2003 23.2732L42.07 23.0967C42.0446 23.0621 42.0042 23.0437 41.9765 23.0125C41.9465 22.9825 41.9281 22.941 41.8935 22.9122L41.6536 22.7161C41.6524 22.7149 41.6512 22.7149 41.6501 22.7138C41.6489 22.7126 41.6478 22.7115 41.6455 22.7103L41.4817 22.5788C41.4598 22.5603 41.4332 22.5557 41.4102 22.5396C41.3871 22.5257 41.3756 22.5027 41.3502 22.4877L37.9577 20.5325L61.7083 6.80357ZM96.65 44.7686L96.7088 44.8079L96.7919 44.8828L96.8184 44.9232L96.8519 44.9843L96.8657 45.0501L96.9003 45.2462V49.8855L96.8645 50.0989L96.853 50.1509L96.8126 50.2304L96.8046 50.242L96.7088 50.3204C96.7088 50.3216 96.7077 50.3216 96.7065 50.3216L96.6016 50.4058L94.8044 51.437C94.8044 51.4382 94.8032 51.437 94.8021 51.4382L72.8637 64.1036V60.2416C72.8637 60.2105 72.8499 60.1851 72.8464 60.1574C72.8441 60.1286 72.8545 60.1009 72.8499 60.0709L72.7945 59.7433C72.7922 59.733 72.7853 59.7272 72.783 59.7191C72.7807 59.7076 72.7853 59.6983 72.783 59.6903L72.7392 59.493C72.7299 59.4503 72.7034 59.4192 72.6872 59.3777C72.6722 59.3373 72.6734 59.2946 72.655 59.2531L72.5119 58.9682C72.4969 58.9405 72.4715 58.9209 72.4531 58.8955C72.4346 58.8678 72.4312 58.8355 72.4127 58.8102L72.2824 58.636C72.257 58.6037 72.2201 58.5852 72.1936 58.5575C72.1682 58.531 72.1532 58.4929 72.1232 58.4699L71.9144 58.2922C71.9098 58.2911 71.904 58.2899 71.9006 58.2865C71.8971 58.2819 71.8948 58.2772 71.8902 58.2726L71.7252 58.1423C71.7033 58.125 71.6779 58.1204 71.656 58.1065C71.6329 58.0915 71.6214 58.0696 71.5972 58.0546L47.0462 43.8701L70.7944 30.1469L70.9166 30.0985L70.9755 30.0754L71.0354 30.0604L71.0562 30.0592H71.0631L71.1773 30.0846H71.1785C71.1785 30.0846 71.1785 30.0858 71.1796 30.0858L71.25 30.1054L71.3342 30.1469L96.65 44.7686ZM46.6021 79.2778L46.5017 79.3182L46.4002 79.3447L46.3817 79.3493H46.3137H46.2537L46.2352 79.3447L46.1337 79.3182L46.0334 79.2767L44.1313 78.1716V65.9584C44.1313 65.9261 44.1151 65.8984 44.1128 65.8673C44.1094 65.8361 44.1197 65.8061 44.1151 65.775L44.0597 65.4681C44.0597 65.4635 44.0563 65.4601 44.0551 65.4555C44.054 65.452 44.0563 65.4485 44.0551 65.4439L44.0113 65.2259C44.0009 65.1717 43.9686 65.1313 43.9513 65.0829C43.9329 65.0333 43.9306 64.9802 43.9063 64.9341L43.7645 64.6734C43.7506 64.6503 43.731 64.6365 43.7172 64.6157C43.701 64.5926 43.6987 64.5673 43.6837 64.5442L43.5522 64.3689C43.5361 64.3458 43.5118 64.3389 43.4945 64.3181C43.4784 64.2973 43.4715 64.2754 43.453 64.2547L43.2569 64.0586C43.2292 64.032 43.1912 64.0205 43.16 63.9951C43.1289 63.9697 43.1081 63.9328 43.0735 63.9109L42.8982 63.8025C42.8936 63.799 42.8855 63.799 42.8797 63.7956C42.8751 63.7921 42.8716 63.7863 42.8659 63.784L27.7066 55.0255L44.6803 45.2323L44.8268 45.1712C44.8303 45.17 44.8326 45.1677 44.8349 45.1677C44.8441 45.1631 44.8534 45.1539 44.8614 45.1493C44.8857 45.1389 44.9099 45.132 44.9341 45.1216L44.941 45.1204H44.9433L45.0022 45.1378L45.1152 45.1758L45.2802 45.2462L70.4968 59.8068L70.6006 59.8875L70.694 59.9683L70.6998 59.974L70.7424 60.0605L70.754 60.1113L70.7886 60.3235V64.9525L70.7874 64.9641C70.7863 64.9698 70.7874 64.9744 70.7874 64.9791C70.7863 64.9871 70.7828 64.9917 70.7805 64.9964L70.7528 65.1705L70.7401 65.2282L70.7125 65.2824L70.679 65.3286L70.5983 65.4024L70.5348 65.4451L68.6927 66.5236L46.6021 79.2778ZM35.5896 21.8936L35.6842 21.8544L35.7869 21.8279C35.788 21.8279 35.788 21.8267 35.7892 21.8267L35.8676 21.806L35.8711 21.8048L35.8838 21.8071L35.9622 21.8279L36.0614 21.8544L36.1122 21.8763C36.1122 21.8775 36.1145 21.8763 36.1168 21.8775C36.1168 21.8775 36.1191 21.8786 36.1202 21.8786L36.1583 21.8948L40.2382 24.2479L40.3432 24.331L40.3443 24.3321L40.4781 24.4417L40.5024 24.4728L40.5958 24.6263L40.6489 24.8004L40.6835 24.9446L43.31 43.629L25.6303 53.8305L11.4042 45.6188V36.2028L11.44 36.0067L11.4527 35.9409L11.4977 35.8579L11.5277 35.814L11.6003 35.7483L11.6903 35.6756L35.5896 21.8936ZM44.1336 94.5674V80.5732L45.0598 81.1119C45.0887 81.1292 45.1221 81.1361 45.151 81.1488C45.1683 81.158 45.1763 81.1707 45.1936 81.1753L45.4128 81.2641C45.4313 81.2711 45.4497 81.2688 45.4682 81.2768C45.4866 81.2826 45.497 81.2964 45.5155 81.301L45.6689 81.3449C45.6746 81.346 45.6804 81.346 45.6896 81.3472C45.6931 81.3472 45.6943 81.3506 45.6989 81.3518L45.8742 81.3968C45.9596 81.4175 46.0438 81.4279 46.1303 81.4279H46.316H46.5144C46.5986 81.4279 46.6828 81.4164 46.7705 81.3968L46.9458 81.3518C46.9493 81.3506 46.9516 81.3472 46.955 81.3472C46.9608 81.346 46.9677 81.346 46.9746 81.3449L47.1281 81.301C47.1477 81.2953 47.1569 81.2814 47.1765 81.2768C47.195 81.2688 47.2123 81.2711 47.2319 81.2641L47.4499 81.1753C47.4672 81.1695 47.4753 81.1569 47.4891 81.1511C47.5202 81.1373 47.5525 81.1292 47.5802 81.1142L68.1725 69.2251V80.3483L68.1644 80.3967C68.1632 80.4036 68.1655 80.4094 68.1655 80.4186C68.1632 80.4244 68.1586 80.4302 68.1586 80.4371L68.1436 80.5513L68.1367 80.5824L68.0756 80.6897L68.0467 80.7358L67.9752 80.8004L67.8899 80.8696L44.1336 94.5674ZM70.2464 79.4993V68.0208L71.6053 67.2272C71.6133 67.2226 71.6168 67.2145 71.626 67.2088C71.6364 67.203 71.6479 67.2007 71.6572 67.1915L71.8221 67.0842C71.8464 67.0669 71.8579 67.0415 71.8821 67.0242C71.9052 67.0034 71.9375 66.9965 71.9571 66.9746L72.167 66.7785C72.1924 66.7531 72.2028 66.7208 72.227 66.6955C72.2443 66.6735 72.2697 66.6689 72.287 66.6459L72.4173 66.4694C72.43 66.4544 72.4323 66.4371 72.4416 66.4198C72.4565 66.3979 72.475 66.3806 72.4877 66.3552C72.5085 66.3552 72.5223 66.3552 72.5419 66.3529L72.738 66.3298C72.753 66.3275 72.7622 66.3183 72.7761 66.316C72.8107 66.3125 72.843 66.3137 72.8776 66.3044L73.0079 66.2721L73.1048 66.2583C73.1775 66.2479 73.2363 66.211 73.3032 66.1868C73.3413 66.1718 73.3828 66.1764 73.4197 66.1602L73.6377 66.0507C73.6458 66.0472 73.6504 66.038 73.6585 66.0345C73.67 66.0287 73.6816 66.0264 73.6931 66.0207L94.2876 54.1304V65.2582L94.2853 65.2686C94.2819 65.2859 94.2888 65.2986 94.2853 65.3136C94.283 65.3309 94.2726 65.3401 94.2715 65.3551L94.2553 65.4878L94.2473 65.5154L94.1965 65.6077L94.185 65.625L94.0846 65.7092L94.0027 65.775L70.2464 79.4993ZM96.3616 64.4173V52.9389L97.7112 52.1649C97.732 52.151 97.7435 52.1349 97.762 52.121C97.7885 52.1014 97.8196 52.0945 97.845 52.0749L98.0088 51.9434C98.0134 51.9399 98.0157 51.9365 98.0181 51.933C98.0227 51.9295 98.0261 51.9295 98.0296 51.9261L98.2372 51.7508C98.2741 51.7219 98.2926 51.6781 98.3226 51.6435C98.3468 51.6181 98.3802 51.6077 98.3999 51.5777L98.5302 51.4035C98.5452 51.3839 98.5475 51.3643 98.5579 51.3447C98.5798 51.3124 98.6075 51.2813 98.6259 51.2455L98.769 50.9618C98.7851 50.9318 98.784 50.896 98.7944 50.8672C98.8128 50.8176 98.8439 50.7737 98.8555 50.7195L98.8982 50.5223C98.9005 50.5119 98.8982 50.5038 98.8982 50.4969C98.9005 50.4865 98.9074 50.4796 98.9086 50.4692L98.9639 50.1428C98.9697 50.1139 98.9582 50.0839 98.9605 50.0574C98.9639 50.0286 98.9789 50.0032 98.9789 49.9732V45.1562C98.9789 45.1228 98.9628 45.0962 98.9593 45.0651C98.957 45.0339 98.9685 45.0039 98.9616 44.9728L98.9074 44.666C98.9074 44.6625 98.9039 44.659 98.9028 44.6544C98.9028 44.651 98.9039 44.6475 98.9028 44.6429L98.8601 44.426C98.8486 44.3718 98.8174 44.3303 98.799 44.2796C98.7794 44.2299 98.7771 44.178 98.7528 44.1307L98.6098 43.8689C98.5959 43.8447 98.5752 43.832 98.5613 43.8101C98.5463 43.7882 98.544 43.7662 98.5314 43.7455L98.3999 43.569C98.3802 43.5436 98.3537 43.5332 98.3341 43.509C98.3122 43.4848 98.3041 43.4548 98.2799 43.434L98.0723 43.2368C98.0492 43.2149 98.0204 43.2091 97.9973 43.1906C97.9731 43.1699 97.9615 43.1457 97.9361 43.1284L97.7712 43.0176C97.7608 43.0107 97.7493 43.0107 97.7412 43.0049C97.7297 42.998 97.7251 42.9876 97.7158 42.983L72.3447 28.3359C72.3343 28.3301 72.3239 28.3301 72.3158 28.3255C72.3054 28.3198 72.3008 28.3105 72.2916 28.3036L72.0736 28.1952C72.0378 28.1767 71.9998 28.1779 71.9605 28.1663C71.9225 28.1513 71.8925 28.126 71.8521 28.1133L71.6664 28.0695H71.6641L71.4934 28.0291C71.4795 28.0256 71.4669 28.0302 71.453 28.0268L69.4748 13.9806L100.27 31.7583L100.352 31.8252L100.446 31.9025L100.468 31.936L100.513 32.0202L100.528 32.0859L100.562 32.2809V61.6443L100.527 61.8612L100.515 61.9027L100.47 61.9927L100.468 61.995L100.352 62.0942L100.27 62.1611L96.3616 64.4173Z" fill="#264F68"/>
<path d="M19.3544 7.13469C19.0834 5.76664 18.3474 4.582 17.2747 3.76878C17.0221 3.57845 16.691 3.52885 16.3946 3.64074C14.6897 4.27632 13.7773 3.89797 13.2017 2.84137C13.0529 2.56799 12.941 2.26923 12.8637 1.96702C12.8176 1.79053 12.7934 1.65673 12.7887 1.60021C12.753 1.26338 12.5327 0.973857 12.2189 0.848125C10.8866 0.307135 9.39977 0.307135 8.06632 0.848125C7.75257 0.973857 7.53341 1.26338 7.49534 1.59905C7.48842 1.65673 7.4665 1.78938 7.42152 1.96586C7.34193 2.26808 7.23234 2.56684 7.08354 2.84021C6.50679 3.89682 5.59438 4.27517 3.88951 3.63959C3.59306 3.52885 3.26085 3.57845 3.00939 3.76878C1.93894 4.582 1.20071 5.76664 0.938862 7.09316C0.873112 7.43344 0.966546 7.74027 1.1811 7.95482C3.12474 9.92269 3.12474 13.7961 1.1811 15.7652C0.966546 15.9809 0.873112 16.2877 0.930787 16.5853C1.19955 17.9533 1.93664 19.1368 3.00939 19.9512C3.25624 20.1392 3.58268 20.19 3.87567 20.0862C3.96333 20.055 4.14904 20.0008 4.40858 19.9443C5.2564 19.7609 6.14344 19.7251 6.94282 19.9258C7.99827 20.19 8.79303 20.8405 9.29134 22.0252C9.60739 22.7784 10.6744 22.7784 10.9927 22.0252C11.4922 20.8405 12.287 20.19 13.3424 19.9258C14.1395 19.724 15.0277 19.7597 15.8767 19.9443C16.1362 20.0008 16.3219 20.055 16.4096 20.0862C16.7026 20.19 17.0267 20.1392 17.2758 19.9512C18.3474 19.1368 19.0834 17.9533 19.3464 16.6268C19.411 16.2877 19.3164 15.9797 19.1041 15.7652C17.1582 13.7973 17.1582 9.92384 19.1041 7.95482C19.3164 7.73912 19.411 7.43344 19.3544 7.13469ZM17.4339 16.6672C17.2516 17.2451 16.9286 17.7699 16.4949 18.1898C16.4234 18.1737 16.3484 18.1575 16.2688 18.1379C15.1661 17.8991 14.008 17.853 12.8914 18.1333C11.7979 18.4101 10.8601 18.9799 10.1426 19.8658C9.42514 18.9799 8.48735 18.4101 7.39268 18.1344C6.2784 17.8541 5.11914 17.9003 4.01639 18.139C3.9368 18.1587 3.86067 18.1748 3.79031 18.191C3.35659 17.7711 3.03477 17.2474 2.85136 16.6672C5.03032 14.0441 5.03032 9.67584 2.85136 7.05279C3.03015 6.48296 3.34967 5.96504 3.77416 5.54517C6.09153 6.22227 7.77103 5.43558 8.70305 3.72264C8.95567 3.2624 9.11946 2.80561 9.21867 2.40535C9.82425 2.24847 10.4598 2.24847 11.0654 2.40535C11.1669 2.80561 11.3296 3.26124 11.5822 3.72264C12.5165 5.43558 14.1949 6.22227 16.5122 5.54517C16.9356 5.96273 17.2528 6.48181 17.4339 7.05394C15.2561 9.67584 15.2561 14.043 17.4339 16.6672Z" fill="#264F68"/>
</g>
<defs>
<clipPath id="clip0_111_1634">
<rect width="101.72" height="99.9967" fill="white" transform="translate(0.914551 0.441895)"/>
</clipPath>
</defs>
</svg>
