<svg width="141" height="101" viewBox="0 0 141 101" fill="none" xmlns="http://www.w3.org/2000/svg">
<g clip-path="url(#clip0_111_1575)">
<path d="M136.859 57.6687L136.83 57.3989C136.825 57.3589 136.802 57.3247 136.795 57.289C136.789 57.2533 136.795 57.2148 136.78 57.1791L136.723 56.9963C136.715 56.9692 136.693 56.9564 136.686 56.9293C136.673 56.9021 136.676 56.8779 136.665 56.8522L136.545 56.6123C136.536 56.5981 136.522 56.5881 136.515 56.5766C136.508 56.5624 136.508 56.5467 136.498 56.5367L136.408 56.3868C136.378 56.3382 136.331 56.3068 136.295 56.2626C136.256 56.2183 136.231 56.1641 136.184 56.1227L136.002 55.9728C135.979 55.9528 135.952 55.9485 135.928 55.9328C135.904 55.9171 135.894 55.8928 135.867 55.8771L135.718 55.7872C135.715 55.7872 135.713 55.7872 135.713 55.7872C135.71 55.7844 135.71 55.7815 135.707 55.7801L132.152 53.7016C132.119 53.6816 132.079 53.6801 132.044 53.6659C132.008 53.6487 131.979 53.623 131.942 53.6088L131.761 53.5502C131.743 53.5445 131.727 53.5488 131.71 53.5445L131.58 53.4917C131.578 53.4917 131.577 53.4903 131.577 53.4903L131.564 53.486C131.555 53.4831 131.547 53.4846 131.538 53.4817V45.9871C131.538 45.9642 131.527 45.9499 131.526 45.9271C131.524 45.9043 131.534 45.89 131.531 45.8671L131.501 45.5973C131.496 45.5588 131.473 45.526 131.467 45.4888C131.458 45.4503 131.466 45.4089 131.451 45.3704L131.39 45.1905C131.381 45.1662 131.361 45.1519 131.353 45.1277C131.344 45.1048 131.346 45.0848 131.336 45.0634L131.216 44.8207C131.209 44.8079 131.197 44.8008 131.191 44.7908C131.183 44.7751 131.186 44.7608 131.176 44.7479L131.087 44.598C131.054 44.5424 131.003 44.5081 130.962 44.461C130.925 44.4153 130.897 44.3611 130.85 44.3197L130.669 44.1712C130.646 44.1512 130.618 44.1455 130.593 44.1298C130.568 44.1141 130.556 44.0898 130.529 44.0741L130.381 43.9856C130.378 43.9828 130.373 43.9828 130.371 43.9813C130.371 43.9799 130.371 43.9799 130.368 43.9785L109.924 32.1712C109.911 32.1641 109.9 32.1655 109.89 32.1612C109.88 32.1541 109.872 32.1426 109.861 32.1369L109.68 32.047C109.604 32.0113 109.525 32.0056 109.447 31.9842C109.416 31.9742 109.387 31.9499 109.354 31.9414C109.344 31.9385 109.336 31.9414 109.327 31.9399C109.317 31.9385 109.309 31.9285 109.3 31.9271L109.15 31.8971C109.141 31.8957 109.133 31.8985 109.124 31.8971C109.119 31.8957 109.113 31.8914 109.104 31.89L108.923 31.86C108.92 31.86 108.917 31.8614 108.915 31.86L108.852 31.7572C108.822 31.7087 108.775 31.6773 108.739 31.6344C108.7 31.5888 108.675 31.5345 108.626 31.4931L108.446 31.3432C108.423 31.3247 108.396 31.3189 108.372 31.3032C108.348 31.2875 108.336 31.2647 108.311 31.2476L108.162 31.1576C108.158 31.1562 108.154 31.1562 108.151 31.1548C108.148 31.1519 108.146 31.1491 108.144 31.1491L87.6982 19.3375C87.6896 19.3318 87.6782 19.3332 87.6696 19.3275C87.6582 19.3232 87.6525 19.3118 87.644 19.3075L87.4627 19.2176C87.3827 19.179 87.3013 19.169 87.2157 19.1491C87.1843 19.1362 87.1557 19.1134 87.1229 19.1048C87.1115 19.1019 87.1015 19.1062 87.0929 19.1034C87.0844 19.1005 87.0758 19.0934 87.0644 19.0919L86.9159 19.062C86.9102 19.0605 86.9031 19.0634 86.8973 19.062C86.8916 19.0605 86.8859 19.0577 86.8802 19.0548L86.7517 19.0334C86.7489 19.0334 86.7489 19.0334 86.746 19.032L86.7018 19.0234H86.6932L86.6375 18.9335C86.6075 18.8807 86.5547 18.845 86.5176 18.7993C86.4762 18.7522 86.4505 18.6965 86.4006 18.6537L86.2193 18.5052C86.1964 18.4852 86.1693 18.481 86.1465 18.4681C86.125 18.451 86.1165 18.431 86.0936 18.4167L85.9437 18.3268C85.9409 18.3239 85.9352 18.3254 85.9323 18.3225C85.9266 18.3196 85.9238 18.3154 85.9209 18.3111L59.7239 3.16759C59.7139 3.16188 59.7024 3.16188 59.6925 3.15617C59.6825 3.15189 59.6768 3.14047 59.6668 3.13476L59.3655 2.98629C59.3241 2.96488 59.277 2.96488 59.2356 2.95346C59.1885 2.9349 59.15 2.90492 59.1 2.89493L58.9501 2.86495H58.9458L58.6446 2.80499C58.6104 2.79786 58.5775 2.80928 58.5433 2.80642C58.5062 2.80214 58.4733 2.78215 58.4362 2.78215H58.1964C58.1378 2.78215 58.0779 2.8107 58.0179 2.81927C57.9351 2.83212 57.8509 2.8364 57.7767 2.86781L57.6639 2.91491L57.6254 2.8935C57.6139 2.88922 57.6011 2.89065 57.5911 2.88494C57.5283 2.85496 57.4598 2.84782 57.3912 2.83069C57.3184 2.8107 57.2485 2.78929 57.1771 2.78786C57.1643 2.78786 57.1543 2.7793 57.1443 2.7793H56.9016C56.8645 2.7793 56.8331 2.79928 56.7974 2.80214C56.7631 2.80642 56.7289 2.795 56.6932 2.80214L56.392 2.86352H56.3877L56.2378 2.89207C56.1892 2.90207 56.1493 2.93205 56.1036 2.9506C56.0608 2.96488 56.0151 2.96488 55.9723 2.98344L55.671 3.1319C55.661 3.13761 55.6553 3.14903 55.6439 3.15332C55.6339 3.15903 55.6225 3.15903 55.6139 3.16474L29.3855 18.3139C29.3812 18.3168 29.3784 18.3211 29.3741 18.3239C29.3698 18.3268 29.3669 18.3254 29.3627 18.3282L29.2128 18.4181C29.1771 18.4424 29.1557 18.4767 29.1228 18.5038C29.0886 18.5338 29.0457 18.5423 29.0143 18.5766L28.8644 18.7251C28.8502 18.7408 28.8459 18.7579 28.833 18.7736C28.8188 18.7879 28.8016 18.7964 28.7888 18.8093L28.6674 18.9578C28.6489 18.982 28.6446 19.0092 28.6303 19.032C28.6103 19.0348 28.5946 19.0277 28.5746 19.032L28.529 19.0406L28.4248 19.0634L28.2749 19.0934C28.2734 19.0934 28.272 19.0948 28.272 19.0948H28.2663L28.1164 19.1248C28.0679 19.1333 28.0293 19.1633 27.9836 19.1805C27.9408 19.1947 27.8951 19.1947 27.8509 19.2147L27.6696 19.3047C27.6596 19.3089 27.6539 19.3189 27.6425 19.3246C27.6325 19.3304 27.621 19.3304 27.6125 19.3361L7.16135 31.1419C7.14136 31.1519 7.13137 31.1719 7.11281 31.1833C7.09282 31.1976 7.06998 31.2005 7.05142 31.2133L6.93151 31.3047C6.92437 31.3118 6.92152 31.3189 6.91438 31.3247C6.90724 31.3289 6.89868 31.3304 6.89154 31.3361L6.71167 31.486C6.68169 31.5117 6.66741 31.5474 6.64029 31.5745C6.61317 31.603 6.58176 31.6145 6.55749 31.6444L6.43758 31.7943C6.41331 31.8243 6.4076 31.8614 6.38761 31.8914C6.3662 31.9214 6.33479 31.9456 6.31624 31.9813L6.19632 32.2226C6.17062 32.2754 6.1692 32.3311 6.15349 32.3839C6.13779 32.4296 6.10924 32.4724 6.10067 32.5209L6.07641 32.668L6.0193 32.9164C6.00931 32.9563 6.02073 32.9963 6.01645 33.0363C6.01217 33.0763 5.99361 33.1134 5.99361 33.1548V40.658L5.94507 40.6766L5.8894 40.6866C5.86656 40.6908 5.85085 40.7065 5.82944 40.7137C5.80803 40.7208 5.78804 40.7151 5.76663 40.7222L5.58533 40.7793C5.54964 40.7893 5.52394 40.8165 5.49111 40.8336C5.45542 40.8479 5.41545 40.8493 5.38119 40.8693L1.82658 42.9478L1.82515 42.9492C1.82372 42.9492 1.8223 42.9492 1.82087 42.9507L1.67098 43.0406C1.631 43.0663 1.60531 43.1034 1.56962 43.1305C1.53536 43.1605 1.49253 43.1691 1.46113 43.2033L1.31123 43.3532C1.29696 43.3675 1.29267 43.3861 1.27983 43.4003C1.26555 43.416 1.24842 43.4232 1.23557 43.436L1.11138 43.5916C1.08568 43.623 1.07997 43.6616 1.05998 43.693C1.03714 43.7258 1.00431 43.7501 0.98575 43.7858L0.865836 44.027C0.84014 44.077 0.84014 44.1312 0.824437 44.1841C0.808734 44.2312 0.778755 44.2726 0.77019 44.3254L0.744494 44.471L0.688819 44.7337C0.680254 44.7708 0.691674 44.8108 0.687392 44.8493C0.683109 44.8864 0.664551 44.9207 0.664551 44.9578V70.1013C0.664551 70.1384 0.683109 70.1727 0.687392 70.2112C0.691674 70.2483 0.680254 70.2869 0.688819 70.3254L0.744494 70.5867L0.77019 70.7337C0.790175 70.845 0.833002 70.945 0.881539 71.042C0.888677 71.0577 0.888677 71.072 0.895814 71.0834L0.900097 71.0906C0.900097 71.092 0.901525 71.0934 0.902952 71.0963L1.01573 71.2962C1.02715 71.3176 1.04999 71.3247 1.06284 71.3433C1.08282 71.3732 1.08853 71.4089 1.11138 71.4361L1.23272 71.5859C1.24414 71.5988 1.2627 71.6045 1.27412 71.6173C1.28839 71.6331 1.2941 71.6516 1.30838 71.6687L1.45827 71.8186C1.47397 71.8329 1.49253 71.8372 1.50966 71.85C1.52537 71.8657 1.5325 71.8843 1.54821 71.8957L1.6981 72.0156C1.72237 72.037 1.75092 72.0442 1.77804 72.0599C1.79803 72.0727 1.80802 72.0913 1.82943 72.1041L28.9301 87.7673C28.9544 87.7801 28.9815 87.7744 29.0072 87.7887C29.0472 87.8087 29.0771 87.8372 29.12 87.8543L29.2684 87.9043L29.4012 87.9557C29.434 87.9714 29.4712 87.9671 29.504 87.9771C29.5354 87.9871 29.5597 88.0071 29.5925 88.0114L29.7424 88.0414C29.8109 88.0571 29.8794 88.0628 29.9465 88.0628H29.948H30.0978H30.2791C30.3462 88.0628 30.4162 88.0571 30.4847 88.0414L30.6346 88.0114C30.6946 88.0014 30.7417 87.9671 30.7973 87.9457C30.833 87.93 30.873 87.9371 30.9073 87.9172L30.9658 87.8872L31.0729 87.8515C31.1143 87.8358 31.1428 87.8072 31.1814 87.7887C31.2085 87.7744 31.237 87.7801 31.2642 87.7658L34.8173 85.7173C34.8402 85.7044 34.8502 85.6859 34.8716 85.6702C34.8973 85.6531 34.9258 85.6459 34.9501 85.6288L35.1 85.5089C35.1028 85.506 35.1043 85.5017 35.1086 85.4989C35.1128 85.496 35.1171 85.4932 35.1214 85.4903L35.3013 85.3404C35.3698 85.2833 35.4112 85.2091 35.4612 85.1406C35.4812 85.1134 35.5097 85.1034 35.5268 85.0763L35.5896 84.975C35.5954 84.9735 35.6011 84.975 35.6068 84.9735L35.7881 84.9436C35.7909 84.9436 35.7924 84.9407 35.7952 84.9407C35.8052 84.9393 35.8138 84.9393 35.8238 84.9379L35.9737 84.9079C35.9808 84.9064 35.9865 84.9007 35.9951 84.8979C36.0051 84.895 36.0165 84.8965 36.0251 84.8936L36.145 84.8636C36.1864 84.8536 36.2163 84.8265 36.2549 84.8108C36.2863 84.798 36.322 84.8022 36.352 84.788L36.5333 84.698C36.5461 84.6895 36.5547 84.678 36.5661 84.6723C36.5761 84.6666 36.5861 84.6695 36.5961 84.6638L57.0415 72.8565L57.0458 72.8522C57.0486 72.8493 57.0501 72.8522 57.0529 72.8493L57.2028 72.7608C57.2428 72.7351 57.2685 72.698 57.3042 72.6695C57.3384 72.6409 57.3812 72.6309 57.4127 72.5981L57.5625 72.4482C57.5797 72.4296 57.5854 72.4111 57.5997 72.3925C57.6125 72.3754 57.6296 72.3711 57.6425 72.3597L57.6482 72.3525L57.6582 72.364C57.6796 72.3911 57.7082 72.3982 57.731 72.4225C57.7595 72.4525 57.7724 72.4867 57.8052 72.5124L57.9851 72.6609C57.9951 72.6695 58.0065 72.6709 58.0151 72.6809C58.0251 72.688 58.0294 72.698 58.0379 72.7066L58.1593 72.7951C58.1793 72.8094 58.2007 72.8151 58.2221 72.8265C58.2364 72.8351 58.2449 72.8493 58.2578 72.8565L78.7032 84.6638C78.7132 84.6695 78.7232 84.6666 78.7332 84.6723C78.7432 84.678 78.7546 84.6895 78.7646 84.698L78.9459 84.788C78.9801 84.8037 79.0201 84.7994 79.0544 84.8137C79.1058 84.8336 79.1472 84.8651 79.2028 84.8779L79.3527 84.9079L79.5026 84.9379L79.6511 84.9678C79.6754 84.9721 79.6939 84.9707 79.7168 84.975C79.7296 84.9949 79.7339 85.0164 79.7482 85.0349L79.8681 85.1848C79.8909 85.2119 79.9209 85.2177 79.9437 85.2434C79.9737 85.2733 79.988 85.3147 80.0251 85.3404L80.1736 85.4646L80.2549 85.546C80.2878 85.5788 80.3335 85.5945 80.3706 85.6245C80.4077 85.6545 80.4348 85.693 80.4776 85.7173L100.923 97.4918C100.933 97.4975 100.944 97.4946 100.953 97.5003C100.966 97.506 100.972 97.5203 100.983 97.526L101.164 97.6145C101.199 97.6331 101.239 97.6274 101.273 97.6417C101.326 97.6602 101.367 97.6945 101.423 97.7059L101.573 97.7359L101.721 97.7658H101.728L101.878 97.7958C101.9 97.8001 101.917 97.7987 101.937 97.8015C101.939 97.8058 101.939 97.8115 101.945 97.8158C101.957 97.8315 101.959 97.8515 101.974 97.8701L102.097 98.0185C102.116 98.0442 102.145 98.0528 102.169 98.0742C102.198 98.1056 102.211 98.1413 102.244 98.167L102.391 98.2883L102.478 98.3754C102.51 98.4097 102.556 98.4225 102.592 98.4525C102.63 98.4825 102.656 98.5239 102.7 98.5453L106.252 100.594C106.281 100.611 106.308 100.605 106.336 100.618C106.375 100.637 106.403 100.668 106.446 100.679L106.588 100.728L106.735 100.785C106.765 100.797 106.799 100.794 106.827 100.802C106.856 100.811 106.879 100.832 106.909 100.835L107.057 100.865C107.129 100.881 107.201 100.888 107.269 100.888H107.271H107.42H107.6C107.67 100.888 107.745 100.881 107.811 100.865L107.961 100.835C108.012 100.824 108.052 100.795 108.104 100.775C108.138 100.762 108.179 100.767 108.214 100.748L108.279 100.718L108.395 100.679C108.438 100.665 108.469 100.635 108.508 100.615C108.533 100.601 108.56 100.608 108.586 100.592L135.685 84.9336C135.707 84.9193 135.717 84.9036 135.737 84.8879C135.765 84.8693 135.792 84.8622 135.817 84.8465L135.965 84.7266C135.969 84.7237 135.971 84.718 135.975 84.7151C135.979 84.7123 135.984 84.7109 135.988 84.708L136.168 84.5596C136.236 84.501 136.278 84.4268 136.328 84.3568C136.348 84.3297 136.375 84.3226 136.393 84.294L136.483 84.1441C136.489 84.1399 136.489 84.1313 136.492 84.1241C136.495 84.1199 136.501 84.117 136.503 84.1127L136.623 83.9029C136.636 83.8786 136.635 83.8558 136.646 83.8344C136.666 83.7915 136.693 83.7573 136.709 83.7144L136.769 83.5346C136.78 83.4989 136.775 83.4618 136.783 83.4275C136.792 83.3875 136.813 83.3504 136.817 83.3104L136.847 83.0392C136.85 83.0164 136.842 83.0021 136.842 82.9792C136.845 82.9593 136.853 82.9464 136.853 82.925V57.7858C136.853 57.7644 136.845 57.7487 136.842 57.7301C136.853 57.7073 136.863 57.6887 136.859 57.6687ZM107.618 98.6909L107.535 98.7195C107.513 98.7266 107.501 98.7452 107.481 98.7509H107.43H107.407L107.366 98.7337C107.357 98.7309 107.348 98.7309 107.34 98.728C107.331 98.7252 107.326 98.7195 107.318 98.7166L107.241 98.6895L103.895 96.7608L103.877 96.7451C103.865 96.7323 103.847 96.728 103.84 96.7166C103.825 96.7038 103.82 96.6895 103.81 96.6795L103.728 96.611L103.725 96.5981C103.722 96.5938 103.72 96.5895 103.72 96.5853C103.72 96.5795 103.722 96.5753 103.72 96.571L103.69 96.4211C103.688 96.4111 103.681 96.404 103.68 96.3968V82.264V71.4903L103.708 71.3761C103.711 71.3618 103.708 71.3504 103.711 71.3404C103.714 71.3261 103.722 71.3147 103.725 71.3019L103.728 71.2904L103.81 71.2205C103.824 71.2091 103.83 71.1934 103.84 71.1834C103.851 71.1734 103.868 71.1691 103.877 71.1563L103.898 71.1363L118.171 62.925V62.9221H118.174L130.84 55.5845C130.857 55.5802 130.87 55.5831 130.887 55.5759C130.89 55.5745 130.893 55.5716 130.899 55.5702C130.91 55.5674 130.926 55.5674 130.937 55.5645C130.957 55.5588 130.97 55.5431 130.989 55.5374C131.007 55.5431 131.02 55.5588 131.04 55.5645L131.122 55.5874L131.166 55.6002L134.619 57.6202L134.665 57.6502L134.709 57.7373L134.72 57.8472V82.8622L134.709 82.955L134.669 83.0306L134.625 83.0663L134.555 83.122L107.618 98.6909ZM30.2849 85.8643L30.2078 85.8915C30.1864 85.8986 30.1735 85.9172 30.1521 85.9229H30.0993H30.0779L30.0436 85.9072C30.0336 85.9029 30.025 85.9057 30.015 85.9015C30.0065 85.8986 30.0008 85.8915 29.9922 85.8886L29.9094 85.8601L2.9729 70.2969L2.93151 70.2655L2.86584 70.1998L2.84157 70.1698C2.84014 70.1641 2.843 70.157 2.84157 70.147L2.80731 69.9871V45.072L2.84157 44.9121C2.843 44.9035 2.84014 44.895 2.84157 44.8864C2.843 44.8793 2.84871 44.8736 2.85014 44.8636L2.85442 44.8393L2.86584 44.825L2.87726 44.815L2.91437 44.7908L2.9158 44.7893L6.36763 42.7708L6.37191 42.7694L6.46613 42.7479C6.49611 42.7422 6.52038 42.7208 6.55035 42.7137H6.55464H6.55892C6.5889 42.7237 6.61174 42.7437 6.64314 42.7479L6.74165 42.7694L19.5354 50.1527C19.5368 50.1541 19.5368 50.1555 19.5382 50.1555L33.6824 58.3354L33.7567 58.3954L33.7952 58.4268L33.8338 58.4967L33.8366 58.5053L33.848 58.5938V69.4361V83.5488C33.8366 83.5917 33.848 83.6374 33.8437 83.6787C33.8409 83.7002 33.8338 83.7159 33.8323 83.733L33.7895 83.8229L33.7524 83.8529L33.6867 83.9072L30.2849 85.8643ZM129.284 45.8158C129.287 45.8172 129.287 45.8186 129.287 45.8186L129.34 45.8486L129.38 45.9357L129.384 45.9499L129.396 46.0413V53.9528L117.638 60.7637L102.579 52.0599L104.77 36.5923L104.8 36.5038V36.501C104.802 36.4995 104.803 36.4995 104.803 36.4981L104.86 36.3225L104.917 36.2197L105.034 36.1212L105.07 36.0913L108.645 34.0256L108.668 34.0213L108.77 33.9999L108.837 34.0127L108.882 34.037L129.284 45.8158ZM102.709 69.3518C102.668 69.3775 102.639 69.4175 102.602 69.446C102.566 69.476 102.519 69.4874 102.488 69.5217L102.399 69.6102L102.254 69.7316C102.225 69.7558 102.215 69.7887 102.188 69.8144C102.161 69.8415 102.129 69.8529 102.105 69.8829L101.985 70.0313C101.958 70.0613 101.955 70.1013 101.932 70.1313C101.91 70.1641 101.877 70.1884 101.86 70.2255L101.74 70.4653C101.711 70.5181 101.711 70.5738 101.695 70.6281C101.681 70.6737 101.653 70.7151 101.643 70.7637L101.62 70.9064L101.57 71.1134C101.558 71.1548 101.57 71.1991 101.564 71.2405C101.558 71.2847 101.537 71.3233 101.537 71.3661V81.6531L99.9837 82.5653L99.948 82.5824L99.9437 82.5838H99.8667H99.821L99.7924 82.5781H99.7896L99.7111 82.5453L80.953 71.713L80.9516 71.7116L79.4212 70.8151L79.3513 70.7594L79.3499 70.758L79.2985 70.7151C79.2942 70.708 79.2871 70.7037 79.2828 70.698C79.2756 70.6852 79.2728 70.6695 79.2642 70.6609L79.2585 70.6495L79.2528 70.6181V66.5624L79.2614 66.4839L79.2642 66.4767L79.3113 66.3839L79.347 66.354L79.3484 66.3525L79.4184 66.2969L100.937 53.87C100.946 53.8643 100.95 53.8543 100.959 53.8486C100.973 53.8429 100.987 53.8457 100.997 53.84L100.999 53.8386C101.002 53.8372 101.003 53.8386 101.006 53.8372L101.14 53.7701H101.186H101.201C101.216 53.7758 101.231 53.7858 101.244 53.7915C101.254 53.7972 101.263 53.8058 101.271 53.8086L101.35 53.8343L115.486 62.0042L102.709 69.3518ZM37.7866 69.7287L37.7453 69.7501L37.721 69.7544H37.6582H37.6182L37.5711 69.7458L37.5525 69.7415L37.5383 69.733L35.9879 68.8251V58.5367C35.9879 58.511 35.9765 58.4953 35.9737 58.471C35.9737 58.4482 35.9822 58.4296 35.9794 58.4068L35.9494 58.1669C35.9451 58.137 35.928 58.1156 35.9223 58.087C35.918 58.057 35.9251 58.0313 35.9166 58.0028L35.8566 57.7929C35.8438 57.7472 35.8138 57.7144 35.7952 57.6744C35.7781 57.6345 35.7767 57.5888 35.7552 57.5517L35.6353 57.3432C35.6325 57.3375 35.6268 57.3361 35.6239 57.329C35.6225 57.3247 35.6225 57.3204 35.6196 57.3176L35.5297 57.1677C35.4997 57.1191 35.4526 57.0863 35.4169 57.0463C35.3784 56.9992 35.3527 56.945 35.3041 56.9021L35.1243 56.7537C35.1214 56.7508 35.1186 56.7508 35.1157 56.7494C35.1128 56.7465 35.1114 56.7437 35.1086 56.7408L34.9587 56.6209C34.9358 56.6023 34.9101 56.5995 34.8873 56.5838C34.863 56.5681 34.8487 56.5452 34.823 56.5281L22.2149 49.2347L36.3834 41.0577L36.4348 41.0306L36.5004 41.0177L36.5133 41.0206L36.5718 41.0449C36.5818 41.0491 36.5918 41.0463 36.6004 41.0506C36.6089 41.0534 36.6146 41.0606 36.6232 41.0634L36.7017 41.0905L55.6125 52.0299C55.6139 52.0299 55.6139 52.0299 55.6154 52.0313L55.7867 52.1341L55.8438 52.1912C55.8509 52.1983 55.8595 52.1998 55.8666 52.2041C55.8737 52.2112 55.8766 52.2226 55.8837 52.2297L56.1236 52.4439L56.2663 52.6209L56.3862 52.825L56.4633 52.9749L56.5418 53.1891L56.5718 53.3033L56.5875 53.4646V57.9799L56.5704 58.1527L56.5418 58.2797L56.4676 58.4667L56.3862 58.6238L56.3648 58.658C56.2935 58.738 56.2349 58.8236 56.1878 58.9221L56.1236 59.0035L55.8837 59.219C55.8766 59.2248 55.8737 59.2362 55.8666 59.2433C55.8595 59.249 55.8509 59.2505 55.8438 59.2576L55.7581 59.3447L55.5768 59.4703L37.7866 69.7287ZM57.3156 28.9749C57.4226 29.0092 57.5326 29.0434 57.6525 29.0434C57.7724 29.0434 57.8837 29.012 57.9922 28.9749L76.6803 39.7458L58.6518 50.1741C58.6489 50.1755 58.6475 50.1784 58.6446 50.1798C58.6418 50.1798 58.6404 50.1798 58.6389 50.1812L58.3377 50.3611C58.2992 50.3868 58.2749 50.4225 58.2406 50.451C58.2064 50.4796 58.1621 50.4924 58.1307 50.5267L58.0051 50.6523L57.7182 50.9121C57.6953 50.9321 57.6882 50.9578 57.6682 50.9806C57.6482 50.9578 57.6396 50.9321 57.6182 50.9121L57.3313 50.6523L57.2057 50.5267C57.1743 50.4953 57.13 50.4796 57.0957 50.451C57.0615 50.4225 57.0372 50.3868 56.9987 50.3611L56.6974 50.1812C56.696 50.1798 56.6946 50.1798 56.6917 50.1798C56.6889 50.1784 56.6875 50.1755 56.6846 50.1741L38.6575 39.7444L57.3156 28.9749ZM59.761 59.4674L59.5797 59.3418L59.494 59.2547C59.4869 59.2476 59.4783 59.2462 59.4712 59.2405C59.4641 59.2319 59.4612 59.2219 59.4541 59.2162L59.2157 59.0021L59.1614 58.9321C59.1015 58.8036 59.0144 58.6894 58.9102 58.5952L58.9044 58.5866L58.8445 58.4667L58.7902 58.3297L58.776 58.2041C58.7745 58.1869 58.7645 58.1741 58.7617 58.1598C58.7588 58.1441 58.7645 58.1298 58.7617 58.1127L58.7217 57.9128V53.5274L58.7617 53.329C58.7645 53.3133 58.7588 53.3004 58.7617 53.2904C58.7645 53.2747 58.7731 53.2647 58.7745 53.2519L58.7902 53.1277L58.8473 52.9706L58.9044 52.8579L59.0529 52.648L59.2157 52.4425L59.4541 52.2283C59.4612 52.2212 59.4641 52.2098 59.4712 52.2041C59.4783 52.1983 59.4869 52.1969 59.494 52.1883L59.5511 52.1327L59.7224 52.0299C59.7239 52.0285 59.7239 52.0285 59.7253 52.0285L78.6404 41.0877L78.7146 41.062C78.7232 41.0591 78.7289 41.052 78.7374 41.0491C78.746 41.0463 78.7589 41.0477 78.7674 41.0434L78.826 41.0192L78.8374 41.0177L78.8745 41.0235L78.9758 41.0691L98.8859 52.5781L78.2863 64.4767C78.2606 64.491 78.2507 64.5138 78.2264 64.5281C78.2021 64.5453 78.1764 64.5495 78.155 64.5652L78.0051 64.6852C78.0023 64.688 78.0008 64.6909 77.998 64.6923C77.9951 64.6951 77.9908 64.6951 77.9866 64.698L77.8053 64.8479C77.7567 64.8879 77.731 64.9407 77.691 64.9907C77.6539 65.0349 77.6025 65.0692 77.5726 65.1206L77.4826 65.2705C77.4741 65.2833 77.4741 65.2961 77.4684 65.3076C77.4612 65.319 77.4484 65.3261 77.4427 65.3375L77.3242 65.5802C77.3113 65.6073 77.3113 65.6345 77.2999 65.6616C77.2885 65.6887 77.2699 65.7059 77.2585 65.7358L77.2014 65.9171C77.1914 65.9471 77.1971 65.9814 77.1886 66.0128C77.1828 66.0456 77.16 66.0742 77.1586 66.1098L77.1286 66.3511C77.1257 66.3754 77.1372 66.3939 77.1343 66.4196C77.1343 66.4439 77.12 66.461 77.12 66.4853V69.4946L59.761 59.4674ZM103.942 34.2726C103.918 34.2868 103.909 34.304 103.887 34.3197C103.867 34.3339 103.845 34.3368 103.825 34.3496L103.705 34.441C103.697 34.4467 103.694 34.4567 103.687 34.4624C103.678 34.4696 103.668 34.471 103.66 34.4781L103.451 34.6566C103.423 34.6808 103.416 34.7122 103.39 34.7379C103.364 34.7636 103.336 34.7736 103.311 34.8008L103.191 34.9506C103.169 34.9763 103.166 35.0063 103.149 35.0334C103.13 35.062 103.106 35.0748 103.089 35.1048L102.939 35.3746C102.922 35.4046 102.922 35.4389 102.909 35.4703C102.893 35.5003 102.872 35.5245 102.86 35.5574L102.77 35.8272L102.712 36.0013C102.7 36.0313 102.709 36.0656 102.7 36.0941C102.692 36.1298 102.67 36.1584 102.668 36.1926L100.555 51.0891L100.543 51.0777C100.52 51.0606 100.493 51.0549 100.469 51.0406C100.445 51.0235 100.432 51.0021 100.406 50.9864L80.3477 39.3903L82.5476 23.7672L82.5776 23.6773L82.6347 23.5059L82.6961 23.396L82.8046 23.3032L82.8431 23.2733L86.4277 21.2033L86.442 21.199L86.5447 21.179L86.6076 21.1905L86.6604 21.219L106.61 32.7279L103.942 34.2726ZM81.7196 21.446C81.6968 21.456 81.6896 21.476 81.6696 21.4888C81.6497 21.5031 81.6297 21.5045 81.6111 21.5174L81.4912 21.6073C81.4798 21.6159 81.4769 21.6273 81.4684 21.633C81.4598 21.6401 81.4469 21.643 81.4384 21.6501L81.2285 21.8314C81.1985 21.8571 81.1886 21.8885 81.1614 21.9171C81.1372 21.9399 81.1086 21.9513 81.0843 21.9813L80.9644 22.1298C80.9459 22.1555 80.9402 22.1812 80.9273 22.2069C80.9102 22.2326 80.8831 22.2468 80.8688 22.2768L80.7189 22.5452C80.7018 22.5752 80.7018 22.6109 80.6889 22.6408C80.6761 22.6708 80.6532 22.6937 80.6418 22.7265L80.5519 22.9963V22.9977C80.5519 22.9977 80.5504 22.9977 80.5504 22.9992L80.4905 23.1805C80.4791 23.2119 80.4862 23.2461 80.4776 23.2804C80.4691 23.3104 80.4491 23.3346 80.4477 23.3689L78.3492 38.2697C78.3406 38.2611 78.3306 38.2569 78.322 38.2511C78.2849 38.2212 78.2578 38.1826 78.2164 38.1598L58.8845 27.0177C58.8645 27.0063 58.8431 27.0063 58.8231 26.9963C58.8031 26.9849 58.7917 26.9663 58.7703 26.9606L58.726 26.9406V5.06195L84.3906 19.9014L81.7196 21.446ZM56.5818 5.08194V26.9421L56.5376 26.9621C56.5176 26.972 56.5062 26.9892 56.4862 26.9977C56.4662 27.0063 56.4462 27.0063 56.4262 27.0177L37.1243 38.1584C37.0986 38.1712 37.0857 38.1955 37.0629 38.2126C37.0386 38.2283 37.0101 38.2326 36.9872 38.2497L34.8659 23.3632C34.8659 23.3589 34.8616 23.3546 34.8616 23.3518C34.8602 23.3461 34.863 23.3418 34.8616 23.3346L34.8316 23.1533C34.8273 23.1234 34.8088 23.1048 34.8016 23.0763C34.7945 23.0463 34.8002 23.0191 34.7902 22.9906L34.7003 22.7208C34.6846 22.6751 34.6517 22.6423 34.6318 22.6023C34.6103 22.558 34.6046 22.5124 34.5775 22.4667L34.3976 22.1983L34.3962 22.1969L34.3263 22.0827C34.2963 22.037 34.2506 22.0056 34.2163 21.9642C34.1806 21.9228 34.1578 21.87 34.115 21.8314L33.9066 21.6501C33.8823 21.6273 33.8523 21.623 33.8266 21.6059C33.7995 21.5859 33.7852 21.5602 33.7567 21.5416L33.6068 21.4517C33.6039 21.4503 33.6011 21.4503 33.5996 21.4488C33.5954 21.4488 33.5939 21.4446 33.5911 21.4431L30.9201 19.8985L56.5818 5.08194ZM28.6517 21.2076L28.6746 21.1947L28.6889 21.1919L28.7916 21.1705L28.8687 21.1862L28.873 21.1905L32.5175 23.2989L32.5747 23.3318L32.5889 23.3461L32.5932 23.3532C32.5961 23.3561 32.6018 23.3575 32.6046 23.3632C32.6089 23.3718 32.6089 23.3817 32.6146 23.3889L32.7174 23.5416L32.736 23.5973L32.7517 23.6872L34.9901 39.3903L20.0764 47.9956L8.13494 41.1063V33.2747L8.1692 33.1205C8.17205 33.1105 8.16777 33.102 8.17063 33.0905C8.17205 33.0791 8.17919 33.072 8.18062 33.0606L8.18348 33.0491L8.24629 32.9949L8.29197 32.9621L28.6517 21.2076ZM35.9879 82.5481V71.3061L36.4847 71.5974C36.4947 71.6031 36.5076 71.6002 36.5176 71.6074C36.5304 71.6159 36.539 71.6288 36.5518 71.6359L36.7331 71.7244C36.7674 71.743 36.8059 71.7387 36.8416 71.7515C36.893 71.773 36.9358 71.8044 36.9901 71.8158L37.14 71.8458L37.2899 71.8757C37.3598 71.8914 37.4326 71.8971 37.5011 71.8971H37.6525H37.8024H37.8038C37.8623 71.8971 37.9223 71.8929 37.9808 71.8829L38.1621 71.8529C38.1721 71.8515 38.1807 71.8429 38.1906 71.84C38.2106 71.8358 38.2292 71.8386 38.2492 71.8343L38.3691 71.8044C38.4105 71.7929 38.4405 71.7672 38.479 71.7501C38.5104 71.7387 38.5461 71.743 38.5761 71.7258L38.7574 71.6373C38.7702 71.6302 38.7788 71.6188 38.7902 71.6116C38.8002 71.6045 38.8102 71.6088 38.8202 71.6016L56.065 61.6559V70.7394C56.0636 70.7494 56.0565 70.7551 56.055 70.7622L56.0251 70.9121C56.0236 70.9193 56.0265 70.925 56.0251 70.9336C56.0236 70.9378 56.0208 70.9407 56.0194 70.9464L56.0151 70.9707L56.0136 70.9735L56.0037 70.9864L55.9937 70.9978L55.9565 71.0206C55.9551 71.0206 55.9551 71.0221 55.9537 71.0235L35.9879 82.5481ZM59.3884 71.042L59.337 71.0021L59.2842 70.9578L59.2827 70.9521C59.2813 70.9464 59.2785 70.9421 59.277 70.9378C59.2756 70.9321 59.2785 70.9264 59.277 70.9178L59.267 70.8693V70.8508V61.6545L76.4805 71.5988C76.499 71.6102 76.5162 71.6045 76.5333 71.6145C76.559 71.6273 76.5719 71.6473 76.5975 71.6559L76.806 71.7458C76.8631 71.773 76.923 71.7701 76.9816 71.7801C77.0158 71.7958 77.0472 71.8201 77.0843 71.8301C77.0958 71.8315 77.1058 71.8315 77.1157 71.8329C77.1215 71.8343 77.1243 71.8386 77.1329 71.84L77.2813 71.87C77.3527 71.8857 77.4255 71.8914 77.4912 71.8914H77.494H77.5212L77.5711 71.9771C77.5868 72.0056 77.614 72.0114 77.6339 72.0385C77.6868 72.1113 77.731 72.1884 77.8038 72.2469L77.9851 72.3968C77.9894 72.3997 77.9937 72.4011 77.998 72.4039C78.0008 72.4054 78.0008 72.4096 78.0051 72.4111L78.1536 72.5324C78.1764 72.5495 78.2021 72.5581 78.2278 72.571C78.2478 72.5852 78.2578 72.6038 78.2792 72.6152L79.3442 73.2405V82.561L59.3884 71.042ZM81.6754 83.9371L81.6554 83.9172C81.6439 83.9057 81.6268 83.9029 81.6168 83.89C81.604 83.8772 81.5968 83.86 81.5868 83.8501L81.5069 83.7858L81.504 83.7701C81.5026 83.7644 81.4998 83.7601 81.4983 83.7558C81.4969 83.7487 81.4998 83.743 81.4983 83.7344L81.4898 83.6916V83.6787V74.4853L98.7061 84.4296C98.7232 84.4396 98.7389 84.4354 98.756 84.4425C98.7817 84.4568 98.7932 84.4753 98.8188 84.4853L99.0287 84.5753C99.0872 84.601 99.1458 84.5981 99.2071 84.6109C99.24 84.6224 99.27 84.6466 99.3042 84.6566C99.3185 84.6595 99.3313 84.6581 99.3413 84.6609C99.3499 84.6652 99.357 84.6709 99.3656 84.6723L99.5141 84.7023C99.5826 84.7166 99.6511 84.7223 99.7196 84.7223H99.8695H100.051C100.118 84.7223 100.188 84.7152 100.258 84.7023L100.406 84.6723C100.415 84.6709 100.421 84.6652 100.431 84.6609C100.442 84.6581 100.456 84.6595 100.466 84.6566L100.586 84.6266C100.63 84.6167 100.662 84.5881 100.702 84.571C100.733 84.5596 100.767 84.5624 100.797 84.5481L100.979 84.4582C100.993 84.4496 101 84.4396 101.01 84.4325C101.02 84.4254 101.032 84.4296 101.04 84.4225L101.538 84.1341V95.3775L81.6754 83.9371Z" fill="#264F68"/>
<path d="M140.863 9.17639C140.529 7.48331 139.617 6.01721 138.289 5.01079C137.978 4.77524 137.567 4.71386 137.202 4.85233C135.09 5.63891 133.961 5.17067 133.25 3.86303C133.066 3.5247 132.926 3.15497 132.832 2.78095C132.773 2.56253 132.745 2.39694 132.739 2.32699C132.692 1.91157 132.419 1.55325 132.033 1.39765C130.382 0.728127 128.542 0.728127 126.893 1.39765C126.504 1.55325 126.232 1.91157 126.185 2.32699C126.177 2.39836 126.15 2.56253 126.094 2.78095C125.997 3.15497 125.86 3.5247 125.676 3.86303C124.962 5.17067 123.833 5.63891 121.724 4.85233C121.356 4.71386 120.946 4.77524 120.633 5.01079C119.307 6.01721 118.395 7.48331 118.071 9.125C117.991 9.54612 118.107 9.92585 118.372 10.1914C120.776 12.6268 120.776 17.4205 118.372 19.8573C118.107 20.1243 117.991 20.504 118.061 20.8723C118.394 22.5654 119.306 24.0301 120.633 25.0379C120.94 25.2706 121.344 25.3334 121.707 25.205C121.814 25.1664 122.044 25.0993 122.365 25.0294C123.414 24.8024 124.512 24.7581 125.501 25.0065C126.808 25.3334 127.791 26.1386 128.408 27.6047C128.799 28.5369 130.121 28.5369 130.515 27.6047C131.133 26.1386 132.115 25.3334 133.423 25.0065C134.409 24.7567 135.509 24.801 136.558 25.0294C136.88 25.0993 137.109 25.1664 137.217 25.205C137.58 25.3334 137.983 25.2706 138.289 25.0379C139.616 24.0301 140.528 22.5654 140.853 20.9237C140.932 20.504 140.815 20.1229 140.552 19.8573C138.145 17.4219 138.145 12.6282 140.552 10.1914C140.816 9.92443 140.933 9.54612 140.863 9.17639ZM138.488 20.9737C138.262 21.6889 137.863 22.3384 137.326 22.8581C137.236 22.8381 137.145 22.8181 137.045 22.7938C135.681 22.4983 134.247 22.4412 132.866 22.7881C131.511 23.1293 130.352 23.8345 129.464 24.9309C128.576 23.8345 127.416 23.1293 126.061 22.7881C124.681 22.4412 123.247 22.4983 121.881 22.7938C121.784 22.8181 121.688 22.8381 121.603 22.8581C121.065 22.3384 120.668 21.6903 120.439 20.9723C123.137 17.726 123.137 12.3199 120.439 9.0736C120.662 8.36839 121.057 7.72742 121.581 7.20779C124.451 8.04577 126.528 7.07217 127.683 4.95226C127.994 4.38266 128.197 3.81735 128.319 3.32199C129.069 3.12784 129.855 3.12784 130.606 3.32199C130.731 3.81735 130.933 4.38124 131.244 4.95226C132.401 7.07217 134.478 8.04577 137.347 7.20779C137.87 7.72457 138.262 8.36697 138.488 9.07503C135.79 12.3213 135.79 17.726 138.488 20.9737Z" fill="#264F68"/>
</g>
<defs>
<clipPath id="clip0_111_1575">
<rect width="140.22" height="99.9944" fill="white" transform="translate(0.664551 0.893555)"/>
</clipPath>
</defs>
</svg>
