<svg xmlns="http://www.w3.org/2000/svg" width="99.453" height="89.832" viewBox="0 0 99.453 89.832"><g id="Icons-40" transform="translate(-193.9 -218.39)"><path id="Path_418" data-name="Path 418" d="M243.613,223.339c24.746,0,44.784,15.461,44.784,34.361s-20.16,34.47-44.9,34.47a58.6,58.6,0,0,1-9.849-.914,4.944,4.944,0,0,0-.822-.069,4.876,4.876,0,0,0-3.072,1.1c-6.757,5.494-13.287,9.281-19,11-.231,0-.574,0-.686-.112-.115-.231-.346-.574-.115-.8a43.108,43.108,0,0,0,5.84-13.973,4.817,4.817,0,0,0-1.947-5.042c-9.506-6.53-15-15.92-15-25.653,0-19.012,20.041-34.361,44.781-34.361m0-4.949c-13.053,0-25.366,3.933-34.678,11.073a40.233,40.233,0,0,0-10.921,12.459A32.391,32.391,0,0,0,193.9,257.7c0,11.377,6.216,22.186,17.055,29.669a38.194,38.194,0,0,1-5.048,12.149,5.4,5.4,0,0,0-.254,5.876h0l.35.7.568.567a5.731,5.731,0,0,0,4.187,1.564h.726l.7-.208c6.305-1.891,13.459-6,20.688-11.878h0a63.352,63.352,0,0,0,10.638.99c27.488,0,49.849-17.685,49.849-39.422a32.27,32.27,0,0,0-4.134-15.732A40.492,40.492,0,0,0,278.3,229.513c-9.328-7.17-21.645-11.119-34.684-11.119Z" transform="translate(0 0)" fill="#00C2A7"></path><path id="Path_419" data-name="Path 419" d="M292.078,291.641a5.464,5.464,0,1,0-5.465,5.467,5.464,5.464,0,0,0,5.465-5.467Z" transform="translate(-58.462 -45.423)" fill="#00C2A7"></path><path id="Path_420" data-name="Path 420" d="M379.63,286.17a5.467,5.467,0,1,0,5.464,5.465A5.467,5.467,0,0,0,379.63,286.17Z" transform="translate(-120.784 -45.416)" fill="#00C2A7"></path><path id="Path_421" data-name="Path 421" d="M326.363,353.388a2.762,2.762,0,0,0-1.564-.485,2.824,2.824,0,0,0-2.329,1.227,12.772,12.772,0,0,1-10.73,5.372,12.558,12.558,0,0,1-10.651-5.4,2.811,2.811,0,0,0-2.356-1.287,2.5,2.5,0,0,0-1.485.432h-.033a2.8,2.8,0,0,0-1.178,1.8,2.755,2.755,0,0,0,.436,2.089l.03.046.026.046a17.454,17.454,0,0,0,15.145,8.209,18.56,18.56,0,0,0,15.425-8.173A2.811,2.811,0,0,0,326.363,353.388Z" transform="translate(-68.403 -90.073)" fill="#00C2A7"></path></g></svg>