<svg xmlns="http://www.w3.org/2000/svg" width="74.231" height="100.002" viewBox="0 0 74.231 100.002"><g id="Icons-37" transform="translate(-269.13 -241.149)"><path id="Path_410" data-name="Path 410" d="M327.93,326.178h14.4v8.78H330.705V332a2.773,2.773,0,0,0-5.545,0v5.711a2.757,2.757,0,0,0,2.757,2.757h5.816v.087a2.773,2.773,0,0,0,5.545,0v-.087h5.812a2.757,2.757,0,0,0,2.757-2.757V323.408a2.757,2.757,0,0,0-2.757-2.757H330.705v-8.78h11.628v2.95a2.77,2.77,0,1,0,5.541,0V309.1a2.757,2.757,0,0,0-2.757-2.757h-5.826v-.092a2.773,2.773,0,0,0-5.545,0v.092H327.93a2.757,2.757,0,0,0-2.757,2.757v14.311a2.757,2.757,0,0,0,2.757,2.77Z" transform="translate(-30.288 -33.691)" fill="#00C2A7"></path><path id="Path_411" data-name="Path 411" d="M340.577,241.15H271.887a2.757,2.757,0,0,0-2.757,2.757v94.46a2.807,2.807,0,0,0,2.789,2.757,2.66,2.66,0,0,0,1.948-.841l9.483-9.455,9.5,9.5a2.757,2.757,0,0,0,3.928,0l9.474-9.5,9.5,9.5a2.757,2.757,0,0,0,3.928,0l9.469-9.5,9.5,9.5a2.757,2.757,0,0,0,1.948.79,2.614,2.614,0,0,0,1.1-.234,2.757,2.757,0,0,0,1.672-2.536V243.925a2.757,2.757,0,0,0-2.784-2.775ZM337.821,252.6H274.662v-5.9H337.8Zm0,79.065-6.726-6.722a2.757,2.757,0,0,0-3.928,0l-9.487,9.492-9.5-9.492a2.756,2.756,0,0,0-1.948-.795,2.7,2.7,0,0,0-1.971.841l-9.464,9.451-9.51-9.5a2.757,2.757,0,0,0-3.928,0l-6.7,6.717v-73.51H337.8Z" fill="#00C2A7"></path></g></svg>