<svg xmlns="http://www.w3.org/2000/svg" width="124" height="89.794" viewBox="0 0 124 89.794"><g id="Icons-39" transform="translate(-227.02 -261.214)"><path id="Path_414" data-name="Path 414" d="M350.02,355.81a6.771,6.771,0,0,0-.745-2.745l-.09-.185-12.166-14.441-.1-.11a7.41,7.41,0,0,0-5.435-2.19,7.945,7.945,0,0,0-5.465,2.19l-12.1,14.341a4.1,4.1,0,0,0-1,3.14v8.051H232.57a4.73,4.73,0,0,0-4.55,4.55,4.555,4.555,0,0,0,4.55,4.55h80.337v9.451a4.555,4.555,0,0,0,4.55,4.55h28a4.4,4.4,0,0,0,4.55-4.55Zm-9.1,22.052h-18.9V357.57l9.451-11.106L340.9,357.57Z" transform="translate(0 -36.958)" fill="#00C2A7" stroke="#fff" stroke-width="2"></path><path id="Path_415" data-name="Path 415" d="M233.049,286.148a4.56,4.56,0,0,0,3.265,1.28h0a4.4,4.4,0,0,0,4.55-4.55V266.916a4.555,4.555,0,0,0-9.106,0v15.961A4.58,4.58,0,0,0,233.049,286.148Z" transform="translate(-1.869 -0.149)" fill="#00C2A7" stroke="#fff" stroke-width="2"></path><path id="Path_416" data-name="Path 416" d="M333.192,287.428h0a4.4,4.4,0,0,0,4.55-4.55V266.916a4.555,4.555,0,0,0-9.106,0v15.961a4.39,4.39,0,0,0,4.55,4.55Z" transform="translate(-50.303 -0.149)" fill="#00C2A7" stroke="#fff" stroke-width="2"></path><path id="Path_417" data-name="Path 417" d="M430.083,287.279a4.405,4.405,0,0,0,4.555-4.55V266.763a4.56,4.56,0,0,0-4.55-4.545h0a4.4,4.4,0,0,0-4.55,4.55v15.961a4.4,4.4,0,0,0,4.545,4.55Z" transform="translate(-98.749)" fill="#00C2A7" stroke="#fff" stroke-width="2"></path></g></svg>