<svg xmlns="http://www.w3.org/2000/svg" width="86.611" height="100.002" viewBox="0 0 86.611 100.002"><g id="Icons-38" transform="translate(-241.15 -224.32)"><path id="Path_412" data-name="Path 412" d="M284.455,230.292,322.589,252.3v44.033l-38.133,22.013-38.133-22.013V252.3l38.133-22.013m0-5.968-43.305,25v50l43.305,25,43.305-25v-50l-43.305-25Z" fill="#00C2A7"></path><path id="Path_413" data-name="Path 413" d="M337.34,334.788a5.232,5.232,0,0,1,5.367-5.172,4.929,4.929,0,0,1,3.581,1.52,4.806,4.806,0,0,1,1.52,3.644,5.136,5.136,0,0,1-5.1,5.287A5.2,5.2,0,0,1,337.34,334.788Zm.859-7.34-.6-26.978h10.121l-.708,26.978Z" transform="translate(-57.921 -45.854)" fill="#00C2A7"></path></g></svg>