<svg xmlns="http://www.w3.org/2000/svg" width="110.604" height="88.512" viewBox="0 0 110.604 88.512"><g id="Icons-41" transform="translate(-179.89 -213.86)"><path id="Path_422" data-name="Path 422" d="M356.248,337.761l10,7.333-4.093-12.288,8.627-6.176h-10.89L356.248,316l-3.67,10.63h-10.89l8.64,6.176-4.1,12.281Zm0,6.862L335.5,359.833l8.3-24.894L324.44,321.1h24.2l7.607-22.1,7.607,22.1h24.2l-19.361,13.828,8.3,24.894Z" transform="translate(-97.562 -57.464)" fill="#00C2A7"></path><path id="Path_423" data-name="Path 423" d="M221.346,252.588a16.6,16.6,0,1,0-16.595-16.6,16.6,16.6,0,0,0,16.595,16.6Zm-3.979,11.147,8.279,5.916a34.607,34.607,0,0,0-40.23,32.718H179.89a40.11,40.11,0,0,1,37.477-38.641Zm41.579,30.556a40.106,40.106,0,0,1,1.1,8.081h-5.526a34.57,34.57,0,0,0-.553-4.961l4.626-3.394Zm-37.6-36.177a22.127,22.127,0,1,1,22.127-22.127,22.127,22.127,0,0,1-22.127,22.127Z" transform="translate(0)" fill="#00C2A7"></path></g></svg>