<svg xmlns="http://www.w3.org/2000/svg" width="63.684" height="100.001" viewBox="0 0 63.684 100.001"><path id="Icons-36" d="M312.524,241.15a31.838,31.838,0,0,0-26.532,49.44l.409.616v49.941l26.124-13.069,26.133,13.073V291.206l.409-.616a31.847,31.847,0,0,0-26.542-49.441Zm19.587,89.414-19.587-9.793-19.587,9.793V298.45l3.675,2.127a31.847,31.847,0,0,0,31.833,0l3.675-2.127Zm-19.587-32.27a25.3,25.3,0,1,1,25.306-25.3A25.3,25.3,0,0,1,312.524,298.294Z" transform="translate(-280.683 -241.15)" fill="#00C2A7"></path></svg>