<svg width="66" height="66" viewBox="0 0 66 66" fill="none" xmlns="http://www.w3.org/2000/svg">
<path d="M26.7862 12.4678C28.4023 12.4678 29.9523 11.8258 31.0951 10.683C32.2379 9.54016 32.8799 7.99019 32.8799 6.37402C32.8799 4.75786 32.2379 3.20789 31.0951 2.06509C29.9523 0.922292 28.4023 0.280273 26.7862 0.280273C25.1701 0.280273 23.6201 0.922292 22.4773 2.06509C21.3344 3.20789 20.6924 4.75786 20.6924 6.37402C20.6924 7.99019 21.3344 9.54016 22.4773 10.683C23.6201 11.8258 25.1701 12.4678 26.7862 12.4678ZM41.0049 32.7803C43.1598 32.7803 45.2264 31.9242 46.7502 30.4005C48.2739 28.8768 49.1299 26.8102 49.1299 24.6553C49.1299 22.5004 48.2739 20.4337 46.7502 18.91C45.2264 17.3863 43.1598 16.5303 41.0049 16.5303C38.85 16.5303 36.7835 17.3863 35.2597 18.91C33.736 20.4337 32.8799 22.5004 32.8799 24.6553C32.8799 26.8102 33.736 28.8768 35.2597 30.4005C36.7835 31.9242 38.85 32.7803 41.0049 32.7803ZM53.1924 4.34277C53.1924 3.26533 52.7645 2.23201 52.0025 1.47015C51.2407 0.708286 50.2074 0.280273 49.1299 0.280273C48.0525 0.280273 47.0192 0.708286 46.2574 1.47015C45.4954 2.23201 45.0674 3.26533 45.0674 4.34277C45.0674 5.42021 45.4954 6.45353 46.2574 7.21539C47.0192 7.97726 48.0525 8.40527 49.1299 8.40527C50.2074 8.40527 51.2407 7.97726 52.0025 7.21539C52.7645 6.45353 53.1924 5.42021 53.1924 4.34277ZM53.1924 24.6553C53.1924 28.1592 51.7071 31.3203 49.3331 33.5547C53.9669 35.2813 57.2549 39.7373 57.2549 44.9678C57.2549 51.6963 51.796 57.1553 45.0674 57.1553H20.6924C13.9639 57.1553 8.50494 51.6963 8.50494 44.9678C8.50494 38.2393 13.9639 32.7803 20.6924 32.7803H31.9151C29.9854 30.6221 28.8174 27.7783 28.8174 24.6553H12.5674C5.83893 24.6553 0.379944 30.1143 0.379944 36.8428V53.0928C0.379944 59.8213 5.83893 65.2803 12.5674 65.2803H53.1924C59.921 65.2803 65.3799 59.8213 65.3799 53.0928V36.8428C65.3799 30.1143 59.921 24.6553 53.1924 24.6553ZM20.6924 36.8428C16.211 36.8428 12.5674 40.4863 12.5674 44.9678C12.5674 49.4492 16.211 53.0928 20.6924 53.0928H45.0674C49.5489 53.0928 53.1924 49.4492 53.1924 44.9678C53.1924 40.4863 49.5489 36.8428 45.0674 36.8428H41.0049H20.6924Z" fill="#1D7C8F"/>
</svg>
