<svg width="81" height="70" viewBox="0 0 81 70" fill="none" xmlns="http://www.w3.org/2000/svg">
<g clip-path="url(#clip0_1_430)">
<path d="M16.5883 31.7797C18.5159 35.1915 20.735 38.4703 23.6206 41.4588C26.5125 44.4672 30.1066 47.2021 34.7663 49.5359C35.1115 49.7019 35.4401 49.7019 35.7318 49.5888C36.1743 49.4217 36.6259 49.0637 37.0711 48.6253C37.4163 48.2875 37.8437 47.7473 38.2939 47.1556C40.0832 44.8389 42.3022 41.9686 45.4321 43.4046C45.5012 43.436 45.5537 43.471 45.6227 43.5026L56.0674 49.4015C56.0956 49.4167 56.1354 49.4544 56.166 49.4682C57.5448 50.399 58.1102 51.835 58.1254 53.4579C58.1254 55.1135 57.505 56.9728 56.5957 58.5455C55.3935 60.6183 53.6194 61.9914 51.5755 62.9033C49.6313 63.7826 47.4659 64.2538 45.385 64.5552C42.117 65.0287 39.0574 64.7273 35.9274 63.7813C32.8655 62.8491 29.7843 61.3155 26.4153 59.2729L26.1659 59.1157C24.6221 58.171 22.9529 57.155 21.317 55.9591C15.317 51.5121 9.21081 45.0952 5.23425 38.0318C1.89849 32.1025 0.077127 25.7022 1.07351 19.5996C1.6235 16.2543 3.08417 13.2131 5.63077 11.2056C7.84989 9.44949 10.8416 8.48727 14.7133 8.8239C15.1584 8.8528 15.5549 9.10908 15.7608 9.48215L22.4541 20.5995C23.4351 21.8469 23.5553 23.0805 23.022 24.3153C22.5756 25.3316 21.6828 26.2624 20.4588 27.1368C20.0981 27.4382 19.6683 27.7448 19.2194 28.0663C17.7216 29.1341 16.0217 30.3652 16.6037 31.8161L16.5883 31.7797ZM29.0604 26.4722C28.0269 26.2109 27.4053 25.1721 27.6726 24.1571C27.9399 23.142 28.9964 22.5316 30.0299 22.7941C33.1648 23.5968 36.113 25.2638 38.4984 27.4508C40.8978 29.6517 42.7588 32.4015 43.6991 35.3498C44.0163 36.3533 43.4459 37.4212 42.4251 37.7327C41.4044 38.0456 40.3159 37.4852 39.9987 36.483C39.2632 34.1751 37.782 31.9995 35.8598 30.2358C33.922 28.4583 31.552 27.1104 29.0604 26.4722ZM29.3174 14.8223C28.2622 14.6464 27.5536 13.6615 27.7327 12.6252C27.9105 11.5901 28.9145 10.8929 29.9685 11.0687C35.879 12.0737 41.4902 15.0207 45.9885 19.1561C50.4894 23.2915 53.8955 28.6291 55.3935 34.4139C55.6568 35.4339 55.0288 36.4715 53.9902 36.7302C52.9516 36.9892 51.8951 36.3722 51.6317 35.3525C50.3143 30.2672 47.315 25.5678 43.3499 21.9248C39.3938 18.2881 34.4758 15.7003 29.3174 14.8223ZM30.5632 4.24631C29.5003 4.12699 28.7368 3.18233 28.8583 2.13842C28.9798 1.09453 29.9403 0.343319 31.0032 0.462658C39.2723 1.4136 47.0426 5.13821 53.1934 10.614C59.3596 16.1023 63.9158 23.3657 65.7307 31.3689C65.961 32.3914 65.3023 33.4065 64.2596 33.6326C63.2187 33.8587 62.1851 33.2117 61.9548 32.188C60.3177 24.9711 56.1926 18.4037 50.6009 13.4279C45.0331 8.47218 38.0151 5.10181 30.5632 4.24631Z" fill="#1D7C8F"/>
</g>
<defs>
<clipPath id="clip0_1_430">
<rect width="64.9968" height="64.66" fill="white" transform="translate(0.801575 0.450195)"/>
</clipPath>
</defs>
</svg>
