<svg width="66" height="53" viewBox="0 0 66 53" fill="none" xmlns="http://www.w3.org/2000/svg">
<g clip-path="url(#clip0_1_441)">
<path d="M3.0275 7.27051H6.2775H8.715V9.70801V18.6455V26.7705V34.8955V43.833V46.2705H6.2775H3.0275C1.67672 46.2705 0.589996 45.1838 0.589996 43.833C0.589996 42.4822 1.67672 41.3955 3.0275 41.3955H3.84V37.333H3.0275C1.67672 37.333 0.589996 36.2463 0.589996 34.8955C0.589996 33.5447 1.67672 32.458 3.0275 32.458H3.84V29.208H3.0275C1.67672 29.208 0.589996 28.1213 0.589996 26.7705C0.589996 25.4197 1.67672 24.333 3.0275 24.333H3.84V21.083H3.0275C1.67672 21.083 0.589996 19.9963 0.589996 18.6455C0.589996 17.2947 1.67672 16.208 3.0275 16.208H3.84V12.1455H3.0275C1.67672 12.1455 0.589996 11.0588 0.589996 9.70801C0.589996 8.35723 1.67672 7.27051 3.0275 7.27051ZM11.965 7.27051H54.215V46.2705H11.965V7.27051ZM65.59 9.70801C65.59 11.0588 64.5033 12.1455 63.1525 12.1455H62.34V16.208H63.1525C64.5033 16.208 65.59 17.2947 65.59 18.6455C65.59 19.9963 64.5033 21.083 63.1525 21.083H62.34V24.333H63.1525C64.5033 24.333 65.59 25.4197 65.59 26.7705C65.59 28.1213 64.5033 29.208 63.1525 29.208H62.34V32.458H63.1525C64.5033 32.458 65.59 33.5447 65.59 34.8955C65.59 36.2463 64.5033 37.333 63.1525 37.333H62.34V41.3955H63.1525C64.5033 41.3955 65.59 42.4822 65.59 43.833C65.59 45.1838 64.5033 46.2705 63.1525 46.2705H59.9025H57.465V43.833V34.8955V26.7705V18.6455V9.70801V7.27051H59.9025H63.1525C64.5033 7.27051 65.59 8.35723 65.59 9.70801Z" fill="#1D7C8F"/>
</g>
<defs>
<clipPath id="clip0_1_441">
<rect width="65" height="52" fill="white" transform="translate(0.589996 0.770508)"/>
</clipPath>
</defs>
</svg>
