<svg width="81" height="70" viewBox="0 0 81 70" fill="none" xmlns="http://www.w3.org/2000/svg">
<g clip-path="url(#clip0_1_461)">
<mask id="mask0_1_461" style="mask-type:luminance" maskUnits="userSpaceOnUse" x="0" y="0" width="66" height="66">
<path d="M65.1699 0.280273H0.169922V65.2803H65.1699V0.280273Z" fill="white"/>
</mask>
<g mask="url(#mask0_1_461)">
<path d="M32.6699 65.2803C41.2895 65.2803 49.556 61.8562 55.6508 55.7612C61.7458 49.6663 65.1699 41.3999 65.1699 32.7803C65.1699 24.1607 61.7458 15.8942 55.6508 9.7993C49.556 3.70437 41.2895 0.280273 32.6699 0.280273C24.0503 0.280273 15.7839 3.70437 9.68895 9.7993C3.59402 15.8942 0.169922 24.1607 0.169922 32.7803C0.169922 41.3999 3.59402 49.6663 9.68895 55.7612C15.7839 61.8562 24.0503 65.2803 32.6699 65.2803ZM21.0029 41.6035C23.2754 44.2315 27.1602 46.999 32.6699 46.999C38.1797 46.999 42.0644 44.2315 44.3369 41.6035C45.0732 40.7529 46.3555 40.6641 47.206 41.4003C48.0566 42.1367 48.1455 43.419 47.4092 44.2696C44.5782 47.5196 39.665 51.0616 32.6699 51.0616C25.6749 51.0616 20.7617 47.5196 17.9306 44.2696C17.1944 43.419 17.2832 42.1367 18.1338 41.4003C18.9843 40.6641 20.2666 40.7529 21.0029 41.6035ZM18.5019 26.6866C18.5019 25.6091 18.93 24.5757 19.6918 23.8139C20.4537 23.052 21.487 22.624 22.5644 22.624C23.6419 22.624 24.6752 23.052 25.4371 23.8139C26.199 24.5757 26.6269 25.6091 26.6269 26.6866C26.6269 27.7639 26.199 28.7973 25.4371 29.5591C24.6752 30.321 23.6419 30.749 22.5644 30.749C21.487 30.749 20.4537 30.321 19.6918 29.5591C18.93 28.7973 18.5019 27.7639 18.5019 26.6866ZM42.8769 22.624C43.9544 22.624 44.9877 23.052 45.7496 23.8139C46.5115 24.5757 46.9394 25.6091 46.9394 26.6866C46.9394 27.7639 46.5115 28.7973 45.7496 29.5591C44.9877 30.321 43.9544 30.749 42.8769 30.749C41.7995 30.749 40.7662 30.321 40.0043 29.5591C39.2425 28.7973 38.8144 27.7639 38.8144 26.6866C38.8144 25.6091 39.2425 24.5757 40.0043 23.8139C40.7662 23.052 41.7995 22.624 42.8769 22.624Z" fill="#1D7C8F"/>
</g>
</g>
<defs>
<clipPath id="clip0_1_461">
<rect width="65" height="65" fill="white" transform="translate(0.169922 0.280273)"/>
</clipPath>
</defs>
</svg>
