<svg width="114" height="118" viewBox="0 0 114 118" fill="none" xmlns="http://www.w3.org/2000/svg">
<path d="M108.275 9.78269H83.8187C81.1173 9.78269 78.9274 11.9725 78.9274 14.6739V34.2391H74.0362V9.78269H78.9274C81.6288 9.78269 83.8187 7.59284 83.8187 4.89146C83.8187 2.18985 81.6288 0 78.9274 0H69.1447C69.1156 0 69.0874 0.00389776 69.0585 0.00435632C68.9707 0.00596128 68.8831 0.011464 68.7953 0.0176546C68.7192 0.0231573 68.6431 0.0282014 68.5679 0.0369141C68.489 0.0463146 68.4106 0.0596128 68.3322 0.072911C68.251 0.0864386 68.1698 0.0995075 68.0903 0.116933C68.0176 0.132982 67.9461 0.153159 67.8741 0.172419C67.7924 0.194429 67.7106 0.215523 67.6308 0.241432C67.5588 0.264818 67.4882 0.292791 67.4171 0.319616C67.341 0.348506 67.2644 0.376019 67.1901 0.408577C67.1158 0.440905 67.0434 0.478278 66.9705 0.514504C66.9026 0.548438 66.8341 0.580996 66.768 0.61768C66.6947 0.658492 66.6233 0.704119 66.5518 0.749058C66.4888 0.788723 66.4252 0.827242 66.364 0.869659C66.2968 0.916203 66.232 0.966874 66.1668 1.01709C66.104 1.06546 66.041 1.11361 65.9804 1.16497C65.9227 1.21427 65.8669 1.26677 65.8108 1.31905C65.7468 1.37889 65.6835 1.43896 65.6228 1.50201C65.6026 1.52311 65.5806 1.54099 65.5606 1.56254L1.97348 70.0414C0.13534 72.021 0.24998 75.1158 2.22958 76.9539C4.20919 78.7921 7.30401 78.6774 9.14215 76.6978L10.449 75.2903V83.1521C7.74767 83.1523 5.55781 85.3422 5.55781 88.0435V112.5C5.55781 115.202 7.74767 117.391 10.449 117.391H108.275C110.977 117.391 113.167 115.202 113.167 112.5V14.6739C113.167 11.9725 110.977 9.78269 108.275 9.78269ZM59.3623 34.2391C56.6609 34.2391 54.471 36.4289 54.471 39.1303V58.6957H44.6884V39.1305C44.6884 38.9063 44.6679 38.6871 44.6388 38.4709L64.2535 17.3473V34.2393H59.3623V34.2391ZM20.2317 64.7553L34.9057 48.9527V58.6957C32.2043 58.6957 30.0144 60.8855 30.0144 63.5869V83.1521H20.2317V64.7553ZM103.384 107.609H15.3405V92.9348H34.9057C37.607 92.9348 39.7969 90.7449 39.7969 88.0435V68.4784H59.362C62.0634 68.4784 64.2533 66.2885 64.2533 63.5871V44.0218H83.8184C86.5198 44.0218 88.7097 41.8319 88.7097 39.1305V19.5652H103.384V107.609H103.384Z" fill="#264F68"/>
</svg>
