<svg width="15" height="16" viewBox="0 0 15 16" fill="none" xmlns="http://www.w3.org/2000/svg">
<g clip-path="url(#clip0_1_559)">
<path d="M9.6456 8.15013C9.6456 6.89127 8.61875 5.86441 7.35989 5.86441C6.10103 5.86441 5.07418 6.89127 5.07418 8.15013C5.07418 9.40899 6.10103 10.4358 7.35989 10.4358C8.61875 10.4358 9.6456 9.40899 9.6456 8.15013ZM10.8776 8.15013C10.8776 10.0964 9.30618 11.6678 7.35989 11.6678C5.4136 11.6678 3.84218 10.0964 3.84218 8.15013C3.84218 6.20384 5.4136 4.63241 7.35989 4.63241C9.30618 4.63241 10.8776 6.20384 10.8776 8.15013ZM11.8422 4.48956C11.8422 4.94498 11.4759 5.3107 11.021 5.3107C10.5662 5.3107 10.1999 4.94441 10.1999 4.48956C10.1999 4.0347 10.5662 3.66841 11.021 3.66841C11.4759 3.66841 11.8422 4.0347 11.8422 4.48956ZM7.35989 2.52498C6.35989 2.52498 4.21703 2.44441 3.31532 2.80156C3.00275 2.9267 2.77075 3.07813 2.5296 3.31927C2.28846 3.56041 2.13646 3.79241 2.01189 4.10498C1.65475 5.0067 1.73532 7.14956 1.73532 8.14956C1.73532 9.14956 1.65475 11.2924 2.01189 12.1941C2.13703 12.5067 2.28846 12.7387 2.5296 12.9798C2.77075 13.2209 3.00275 13.3729 3.31532 13.4975C4.21703 13.8547 6.35989 13.7741 7.35989 13.7741C8.35989 13.7741 10.5028 13.8547 11.4045 13.4975C11.717 13.3724 11.949 13.2209 12.1902 12.9798C12.4313 12.7387 12.5833 12.5067 12.7079 12.1941C13.065 11.2924 12.9845 9.14956 12.9845 8.14956C12.9845 7.14956 13.065 5.0067 12.7079 4.10498C12.5828 3.79241 12.4313 3.56041 12.1902 3.31927C11.949 3.07813 11.717 2.92613 11.4045 2.80156C10.5028 2.44441 8.35989 2.52498 7.35989 2.52498ZM14.217 8.15013C14.217 9.09641 14.2262 10.0341 14.1725 10.9804C14.1188 12.0787 13.869 13.0518 13.0656 13.8552C12.2622 14.6587 11.289 14.9089 10.1907 14.9621C9.24446 15.0158 8.30675 15.0067 7.36046 15.0067C6.41418 15.0067 5.47646 15.0158 4.53018 14.9621C3.43189 14.9084 2.45875 14.6587 1.65532 13.8552C0.851886 13.0518 0.601601 12.0787 0.548458 10.9804C0.494743 10.0341 0.503886 9.09641 0.503886 8.15013C0.503886 7.20384 0.494743 6.26613 0.548458 5.31984C0.602172 4.22156 0.851886 3.24841 1.65532 2.44498C2.45875 1.64156 3.43189 1.39127 4.53018 1.33813C5.47646 1.28442 6.41418 1.29356 7.36046 1.29356C8.30675 1.29356 9.24446 1.28442 10.1907 1.33813C11.289 1.39184 12.2622 1.64156 13.0656 2.44498C13.869 3.24841 14.1193 4.22156 14.1725 5.31984C14.2262 6.26613 14.217 7.20384 14.217 8.15013Z" fill="#000000"/>
</g>
<defs>
<clipPath id="clip0_1_559">
<rect width="14" height="15" fill="white" transform="translate(0.359985 0.880371)"/>
</clipPath>
</defs>
</svg>
